<svg xmlns="http://www.w3.org/2000/svg" xmlns:xlink="http://www.w3.org/1999/xlink" viewBox="0 0 89.55 89.55"><defs><style>.cls-1{fill:url(#radial-gradient);}.cls-2{fill:url(#radial-gradient-2);}.cls-3{fill:none;}.cls-4{fill:url(#linear-gradient);}.cls-5{fill:url(#linear-gradient-2);}.cls-6{isolation:isolate;}.cls-7{opacity:0.81;}.cls-8{opacity:0.75;mix-blend-mode:overlay;}.cls-9{clip-path:url(#clip-path);}.cls-10{opacity:0.64;}.cls-11{clip-path:url(#clip-path-2);}.cls-12{mask:url(#mask);}.cls-13{fill:#fefeff;}.cls-14{clip-path:url(#clip-path-3);}.cls-15{clip-path:url(#clip-path-4);}.cls-16{mask:url(#mask-2);}.cls-17{clip-path:url(#clip-path-6);}.cls-18{fill:url(#linear-gradient-6);}.cls-19{clip-path:url(#clip-path-8);}.cls-20,.cls-25{fill:#2b2c6b;}.cls-21{clip-path:url(#clip-path-9);}.cls-22{mask:url(#mask-3);}.cls-23{clip-path:url(#clip-path-10);}.cls-24{fill:url(#linear-gradient-10);}.cls-25{opacity:0.55;}.cls-26{fill:#fff;}.cls-27,.cls-28,.cls-29,.cls-30{fill:#ddd;}.cls-27{opacity:0.4;}.cls-29{opacity:0.57;}.cls-30{opacity:0.22;}</style><radialGradient id="radial-gradient" cx="132.43" cy="33.08" r="126.66" gradientUnits="userSpaceOnUse"><stop offset="0" stop-color="#9e9e9e" stop-opacity="0"/><stop offset="1" stop-color="#fff" stop-opacity="0.4"/></radialGradient><radialGradient id="radial-gradient-2" cx="-11.93" cy="33.08" r="126.66" xlink:href="#radial-gradient"/><linearGradient id="linear-gradient" x1="-14.25" y1="39.31" x2="92.33" y2="39.31" gradientUnits="userSpaceOnUse"><stop offset="0" stop-color="#00adea"/><stop offset="0.16" stop-color="#02a8e5"/><stop offset="0.35" stop-color="#069bd8"/><stop offset="0.54" stop-color="#0f85c2"/><stop offset="0.74" stop-color="#1a65a4"/><stop offset="0.94" stop-color="#283e7c"/><stop offset="1" stop-color="#2d306f"/></linearGradient><linearGradient id="linear-gradient-2" x1="130.11" y1="39.31" x2="236.69" y2="39.31" xlink:href="#linear-gradient"/><clipPath id="clip-path"><rect class="cls-3" x="-122" width="89.55" height="89.55" rx="44.78"/></clipPath><clipPath id="clip-path-2"><rect id="SVGID" class="cls-3" x="-122" width="89.55" height="89.55"/></clipPath><mask id="mask" x="-312.18" y="-65.41" width="349.7" height="200.19" maskUnits="userSpaceOnUse"/><clipPath id="clip-path-3"><rect id="SVGID-2" data-name="SVGID" class="cls-3" x="-497.53" y="606.46" width="567.07" height="159.84"/></clipPath><clipPath id="clip-path-4"><rect class="cls-3" x="144.36" width="89.55" height="89.55"/></clipPath><mask id="mask-2" x="-45.82" y="-65.41" width="349.7" height="200.19" maskUnits="userSpaceOnUse"><rect class="cls-1" x="15.47" y="-31.61" width="240.51" height="144.1"/></mask><clipPath id="clip-path-6"><path id="SVGID-4" data-name="SVGID" class="cls-5" d="M236.69,28.29H212.57L208.64,5.83,192,28.17l-55,1.56,58.63,2.66,9.92-14.52,2.27,14.52h16.13l-14.68,11,3.1,17.69-12.2-8.94-20,20.66,20-15L219.32,72,214.84,46.1ZM130.14,31.65h0Z"/></clipPath><linearGradient id="linear-gradient-6" x1="78.25" y1="38.06" x2="242.68" y2="38.06" xlink:href="#linear-gradient"/><clipPath id="clip-path-8"><rect class="cls-3" width="89.55" height="89.55" rx="26.05"/></clipPath><clipPath id="clip-path-9"><rect id="SVGID-6" data-name="SVGID" class="cls-3" width="89.55" height="89.55"/></clipPath><mask id="mask-3" x="-190.18" y="-65.41" width="349.7" height="200.19" maskUnits="userSpaceOnUse"><rect class="cls-2" x="-128.89" y="-31.61" width="240.51" height="144.1"/></mask><clipPath id="clip-path-10"><path id="SVGID-7" data-name="SVGID" class="cls-4" d="M92.33,28.29H68.21L64.28,5.83,47.67,28.17l-55,1.56,58.63,2.66,9.92-14.52,2.27,14.52H79.58l-14.68,11L68,61.06,55.8,52.12l-20,20.66,20-15L75,72,70.48,46.1ZM-14.22,31.65h0Z"/></clipPath><linearGradient id="linear-gradient-10" x1="-66.11" y1="38.06" x2="98.32" y2="38.06" xlink:href="#linear-gradient"/></defs><g class="cls-6"><g id="PRINT-2" data-name="PRINT"><g class="cls-19"><path id="SVGID-11" data-name="SVGID" class="cls-4" d="M92.33,28.29H68.21L64.28,5.83,47.67,28.17l-55,1.56,58.63,2.66,9.92-14.52,2.27,14.52H79.58l-14.68,11L68,61.06,55.8,52.12l-20,20.66,20-15L75,72,70.48,46.1ZM-14.22,31.65h0Z"/><g class="cls-23"><rect class="cls-24" x="-66.11" y="-0.23" width="164.42" height="76.58"/></g><polygon class="cls-25" points="41.74 66.65 55.91 55.12 71.12 66.3 67.75 44.35 86.48 30.57 66.1 30.14 63.08 11.91 49.66 30 -7.37 29.73 51.26 32.39 61.18 17.87 63.45 32.39 79.58 32.39 64.9 43.37 68 61.06 55.8 52.12 41.74 66.65"/><path id="SVGID-12" data-name="SVGID" class="cls-4" d="M92.33,28.29H68.21L64.28,5.83,47.67,28.17l-55,1.56,58.63,2.66,9.92-14.52,2.27,14.52H79.58l-14.68,11L68,61.06,55.8,52.12l-20,20.66,20-15L75,72,70.48,46.1ZM-14.22,31.65h0Z"/><g class="cls-23"><rect class="cls-24" x="-66.11" y="-0.23" width="164.42" height="76.58"/></g><polygon class="cls-25" points="86.48 30.58 77.92 36.87 73.91 39.82 67.75 44.35 68.2 47.3 68.81 51.22 71.12 66.3 55.91 55.12 49.62 60.24 45.29 63.77 41.74 66.65 45.29 62.99 49.62 58.52 55.8 52.12 68 61.06 66.32 51.49 65.63 47.52 64.9 43.37 73.49 36.94 77.01 34.31 79.58 32.39 63.45 32.39 63.45 32.35 62.82 28.33 61.18 17.87 54.04 28.33 51.28 32.35 51.26 32.39 50.44 32.35 45.29 32.12 -7.37 29.73 44.78 29.98 49.66 30 50.91 28.33 63.08 11.91 65.81 28.39 66.1 30.14 73.4 30.3 86.48 30.58"/><line class="cls-3" x1="31.88" y1="28.62" x2="23.7" y2="28.85"/><path class="cls-26" d="M43.39,57.58a12.24,12.24,0,0,1-3.54,9.06q-3.91,3.94-10.81,4a20.74,20.74,0,0,1-6.93-1A31.91,31.91,0,0,1,15,65.68,5.59,5.59,0,0,0,13.69,65c-.24,0-.59.36-1.08,1.08L12,65.56l3.45-7.51.64.48a6.14,6.14,0,0,0-.44,1.62c0,.63,1,1.62,2.94,3a20.19,20.19,0,0,0,5.08,2.59,17.4,17.4,0,0,0,5.32.79q5.79,0,8.81-3.32a7.61,7.61,0,0,0,2-5.26,5.57,5.57,0,0,0-3.42-5.54,7.75,7.75,0,0,0-2.29-.64c-.78-.09-3-.22-6.72-.4a33.31,33.31,0,0,1-6.17-.78,11.08,11.08,0,0,1-4-1.85,8.14,8.14,0,0,1-2.58-3.36,11.32,11.32,0,0,1-.95-4.68,11.57,11.57,0,0,1,2.48-7.46,12.24,12.24,0,0,1,5.06-3.57,17.16,17.16,0,0,1,2.49-.78l8.18-.23a16.33,16.33,0,0,1,2.27.53,28.18,28.18,0,0,1,6.1,2.8,3.46,3.46,0,0,0,.94.42c.27,0,.64-.41,1.12-1.21l.64.42-3.28,7.73L39,38.86a8.83,8.83,0,0,0,.39-1.68c0-.59-.57-1.24-1.7-1.94A18.54,18.54,0,0,0,28,32.43a13.22,13.22,0,0,0-7.4,2,7.58,7.58,0,0,0-2.4,2.63,7,7,0,0,0-.88,3.4A6.07,6.07,0,0,0,18,43.34a4.79,4.79,0,0,0,1.81,2,8.46,8.46,0,0,0,2.93,1,48.81,48.81,0,0,0,5.5.43,57.49,57.49,0,0,1,7.54.64,9.29,9.29,0,0,1,3.75,1.52Q43.39,51.78,43.39,57.58Z"/><path class="cls-26" d="M77,34.31,77,34.17a11.41,11.41,0,0,0-1.17-1.78,8.62,8.62,0,0,0-1.9-1.77c-.16-.11-.31-.22-.48-.32a10.45,10.45,0,0,0-3.64-1.47,22.73,22.73,0,0,0-4-.44c-.78-.05-1.61-.06-2.51-.06H43.53v1a3,3,0,0,1,1.25.66l.13.14a2.4,2.4,0,0,1,.38,1.42V63.76l4.33-3.52V51.58H63.3c1.08,0,2.09,0,3-.09s1.73-.15,2.48-.27l-.6-3.92a20.91,20.91,0,0,1-2.57.22q-.87,0-1.92,0H49.62V32.35H63.71c.79,0,1.49,0,2.13,0a19.06,19.06,0,0,1,2.53.24,7.6,7.6,0,0,1,2.74,1.08,5.85,5.85,0,0,1,2.38,3.23,9.8,9.8,0,0,1,.42,2.88l4-3A11.8,11.8,0,0,0,77,34.31Z"/><path class="cls-27" d="M68.37,32.62a7.61,7.61,0,0,1,2.74,1.09A5.84,5.84,0,0,1,73.49,37L77,34.31,77,34.17a11.41,11.41,0,0,0-1.17-1.78H65.84A19.52,19.52,0,0,1,68.37,32.62Z"/><polygon class="cls-27" points="63.45 32.35 62.82 28.33 54.03 28.33 51.28 32.35 63.45 32.35"/><path class="cls-28" d="M71.11,46.19c-.18.12-.37.22-.55.33l.71,4.1h0a9.47,9.47,0,0,0,4.59-3.31,11.93,11.93,0,0,0,2.38-7.44v-.09L73.05,44A5.82,5.82,0,0,1,71.11,46.19Z"/><path class="cls-29" d="M49.61,51.58H63.29c1.1,0,2.1,0,3-.1l-.69-4c-.58,0-1.22,0-1.93,0H49.61V32.35h.81l-5.14-.23V63l4.33-4.48Z"/><path class="cls-28" d="M73.49,37a9.93,9.93,0,0,1,.42,3,8.65,8.65,0,0,1-.86,4l5.19-4.23A12.59,12.59,0,0,0,77,34.31Z"/><path class="cls-28" d="M68.37,47.27a20.58,20.58,0,0,1-2.74.24l.69,4a19.8,19.8,0,0,0,5-.86l-.71-4.1A7.56,7.56,0,0,1,68.37,47.27Z"/><path class="cls-28" d="M63.7,32.35c.79,0,1.5,0,2.14,0h9.94a9.09,9.09,0,0,0-1.9-1.77,10.71,10.71,0,0,0-4.12-1.8,33.42,33.42,0,0,0-6.47-.49h-.47l.63,4Z"/><polygon class="cls-28" points="45.28 62.99 45.28 65.66 49.61 62.41 49.61 58.51 45.28 62.99"/><path class="cls-30" d="M51.28,32.35l2.75-4H43.53v1a2.81,2.81,0,0,1,1.38.8,2.4,2.4,0,0,1,.37,1.42v.58l5.14.23Z"/></g></g></g></svg>