<svg xmlns="http://www.w3.org/2000/svg" xmlns:xlink="http://www.w3.org/1999/xlink" viewBox="0 0 72 72"><defs><style>.cls-1{fill:none;}.cls-2{fill:url(#radial-gradient);}</style><radialGradient id="radial-gradient" cx="26.28" cy="52.57" r="38.21" gradientUnits="userSpaceOnUse"><stop offset="0" stop-color="#1ff"/><stop offset="0.46" stop-color="#9832ff"/><stop offset="1" stop-color="#faa53f"/></radialGradient></defs><g id="Home"><rect class="cls-1" width="72" height="72"/><path class="cls-2" d="M53,35.69A16.42,16.42,0,0,1,36.59,52.11H35.41a16.26,16.26,0,0,1-4.8-.72l-4.18,2.16A1,1,0,0,1,25,52.66V48.38a16.42,16.42,0,0,1,10.42-29.1h1.18A16.41,16.41,0,0,1,53,35.69Zm-25.88,6,4.65-3.85a1.8,1.8,0,0,1,2.3,0l3.31,2.74a2.71,2.71,0,0,0,4-.65l5-8a.81.81,0,0,0-1.2-1.06l-5,4.09a1.8,1.8,0,0,1-2.31,0L34.8,32.23a2.71,2.71,0,0,0-4.07.63l-4.82,7.75A.81.81,0,0,0,27.12,41.67Z"/></g></svg>