<svg xmlns="http://www.w3.org/2000/svg" viewBox="0 0 519.49 17.12"><defs><style>.cls-1,.cls-2{fill:#fff;}.cls-1{fill-rule:evenodd;}</style></defs><g id="Layer_2" data-name="Layer 2"><g id="Home"><path class="cls-1" d="M518.38,17.08c-.57.16-1.29-.25-2.66-.13A7,7,0,0,1,518.38,17.08Z"/><path class="cls-1" d="M515.12,16.88c-.07.15-1.09.07-1.16.22-.4,0-.25-.18-.31-.28A7.58,7.58,0,0,0,515.12,16.88Z"/><path class="cls-1" d="M481.14,14.54c-.86,0-.91-.15-1.78-.13C479.4,14.19,481.25,14.3,481.14,14.54Z"/><path class="cls-1" d="M460.8,13.91c-.4.17-2.16.06-1.78-.2C460,13.68,459.5,14,460.8,13.91Z"/><path class="cls-1" d="M382.06,11a5.23,5.23,0,0,1-1.74.36c-.16-.1,1.14-.17.28-.21A4.27,4.27,0,0,1,382.06,11Z"/><path class="cls-1" d="M376.67,9.57c-.15.06-.3.12-.28.22a16.63,16.63,0,0,0-3.83-.06A12.29,12.29,0,0,1,376.67,9.57Z"/><path class="cls-1" d="M375.08,12.19a17.92,17.92,0,0,1-3.53.15A21.49,21.49,0,0,1,375.08,12.19Z"/><path class="cls-1" d="M372,9.59c.18.42-1.94-.08-1.46.22,0,.17-1,0-.89-.07-4.08.07-1.32-.16.29-.07.29,0,.22-.09.29-.14C371.09,9.47,371.07,9.65,372,9.59Z"/><path class="cls-1" d="M365.79,9.61c0,.21-1.22.14-2.05.15A7.12,7.12,0,0,1,365.79,9.61Z"/><path class="cls-1" d="M363.14,9.55c.15.22-.62.23-1.46.22C361.85,9.62,362.12,9.5,363.14,9.55Z"/><path class="cls-1" d="M361.09,9.7c0,.34-3.95-.34-3.22.23-.43-.1-.8-.32-.33-.43C359.28,9.58,359.29,9.64,361.09,9.7Z"/><path class="cls-1" d="M347.59,10.25c0,.15-.73.15-1.46.14-.23-.21.28-.26.26-.42C346.92,10,346.89,10.23,347.59,10.25Z"/><path class="cls-1" d="M342.67,11.46c-.34.11-.24.32-1.16.29C341.6,11.58,341.68,11.42,342.67,11.46Z"/><path class="cls-1" d="M338.84,11.48c0,.21-1,.18-1.75.21C337.07,11.48,338.11,11.51,338.84,11.48Z"/><path class="cls-1" d="M329.4,11a31.17,31.17,0,0,1-3.24-.06A14.62,14.62,0,0,1,329.4,11Z"/><path class="cls-1" d="M290.22,10.32c-.87,0-1-.18-1.78-.21C288.73,10,290.24,10.14,290.22,10.32Z"/><path class="cls-1" d="M278.15,10.15v.21c-.73-.08-6,.06-2.06-.06A10.51,10.51,0,0,1,278.15,10.15Z"/><path class="cls-1" d="M276.81,7.62a6.69,6.69,0,0,1-2.35.08A13.19,13.19,0,0,1,276.81,7.62Z"/><path class="cls-1" d="M269.75,7.57c-.82.06-1.38.31-1.76.08A3.17,3.17,0,0,1,269.75,7.57Z"/><path class="cls-1" d="M267.38,7.3a1.48,1.48,0,0,0,0,.21c-.44-.08-1.32,0-1.19-.27C266.72,7.22,266.82,7.32,267.38,7.3Z"/><path class="cls-1" d="M262.28,10.35c1.14.16-1.1.11-.87.29-.52,0-.68-.12-.6-.28C261.53,10.26,262,10.56,262.28,10.35Z"/><path class="cls-1" d="M261.23,7.75c-.05.29-1.05,0-1.76.14V7.68C260.35,7.63,260.33,7.8,261.23,7.75Z"/><path class="cls-1" d="M259.81,8.53c.88.14-2.12,0-1.46.29C256.9,8.68,258.48,8.43,259.81,8.53Z"/><path class="cls-1" d="M256.5,7.41c0,.07-.36.06-.59.08s-.15.07,0,.07a4.38,4.38,0,0,1-1.17.07C254.56,7.38,255.6,7.41,256.5,7.41Z"/><path class="cls-1" d="M252.46,8.63c0,.09,0,.18,0,.28a11.58,11.58,0,0,0-2.07-.06C250.42,8.61,251.73,8.69,252.46,8.63Z"/><path class="cls-1" d="M245,7.1c-1,.1-1.87.21-2.92.3A7.53,7.53,0,0,1,245,7.1Z"/><path class="cls-1" d="M215.59,7.28c0,.1,0,.19,0,.28.1-.18-1.76-.29-.88-.06-.43.23-.73-.15-1.48-.07A10.76,10.76,0,0,1,215.59,7.28Z"/><path class="cls-1" d="M199.71,7.34a6.45,6.45,0,0,1-2.05.15A6.77,6.77,0,0,1,199.71,7.34Z"/><path class="cls-1" d="M194.52,9c-.17.07-.34.13,0,.14-.65.15-.55-.15-1.76,0C192.79,9,193.74,9,194.52,9Z"/><path class="cls-1" d="M193.59,8.21a12.56,12.56,0,0,1-2.94,0A13.13,13.13,0,0,1,193.59,8.21Z"/><path class="cls-1" d="M192.47,9.13c-.88.08-1.88,0-3.23,0,.52-.15,2.3,0,2.93-.15C192.13,9.07,192.24,9.12,192.47,9.13Z"/><path class="cls-1" d="M177.88,6.44c-.68.19-1.79-.11-2.64.08C175.24,6.12,176.93,6.44,177.88,6.44Z"/><path class="cls-1" d="M177.93,7.14c.38.23-1,.06-.57.28-.68,0-.34-.2-.9-.2C176.72,7,177,7.18,177.93,7.14Z"/><path class="cls-1" d="M177,6c-.38-.1-1.39,0-1.77-.14C175.82,5.71,176.94,5.72,177,6Z"/><path class="cls-1" d="M172.63,7.16a17.7,17.7,0,0,1-4.4.09A3.75,3.75,0,0,1,169.68,7c-1.2.19,2.54.27,1.76-.08C172.22,6.93,171.69,7.23,172.63,7.16Z"/><path class="cls-1" d="M162.07,7.62a1.48,1.48,0,0,1,0,.21c-1.09.08-.48-.26-1.48-.2C160.67,7.46,161.89,7.58,162.07,7.62Z"/><path class="cls-1" d="M156.73,6.94c-.22.37-1.66,0-2.63.22C154.26,6.92,156.07,7.06,156.73,6.94Z"/><path class="cls-1" d="M155.75,5.39V5.6c-.22-.16-2,.08-1.78-.2Z"/><path class="cls-1" d="M137.42,4c-.4.14-1.8,0-2.35.15C135.27,3.88,136.7,3.92,137.42,4Z"/><path class="cls-1" d="M73,3.87c-.22.46-1.33-.08-2.34.14C70.44,3.74,72.24,3.93,73,3.87Z"/><path class="cls-1" d="M51.13,2.68a10.88,10.88,0,0,0-2.35.08C48.87,2.55,51,2.27,51.13,2.68Z"/><path class="cls-1" d="M19.65,2.72c.21.41-1.52,0-1.74.29-.59-.12.91-.39-.33-.56C18.58,2.19,18.75,2.73,19.65,2.72Z"/><path class="cls-1" d="M11.19,3.81c-1.48.16.9.34-1.73.43l0-.35C10.48,3.86,10.15,3.69,11.19,3.81Z"/><path class="cls-1" d="M9.69,3.25c-1.69.14-2.07.59-4.08.65-.08.12.29.12.31.21C6.6,4,7.57,4,8.26,3.89c.18.2-.78.66,1.22.7C8,5,7.19,4.1,5,4.19c0-.31-.54-.49-1.22-.63a14.7,14.7,0,0,1,2-.5,3.09,3.09,0,0,1,1.78.27A7.08,7.08,0,0,1,9.69,3.25Z"/><path class="cls-1" d="M6.3,5.45C4.21,5.51,6.15,5,4.21,5c.53-.06.8-.19,1.46-.22C5.42,5.15,6.43,5.16,6.3,5.45Z"/><path class="cls-1" d="M280.21,10.21a31.3,31.3,0,0,0,4.71-.08c-.24.33.75-.1.89.13-.66.28-4.53,0-5.57.31a4.56,4.56,0,0,0,1.18.06c.36.17-2.51,0-2.37-.2C280.2,10.43,280.76,10.46,280.21,10.21Z"/><path class="cls-1" d="M378.82,11.05c-2.45.31-6.67-.14-8.8.38-.24-.18-1.47-.11-1.49-.35,2.92.18,4-.23,6.18.05A20.66,20.66,0,0,1,378.82,11.05Z"/><path class="cls-1" d="M367.37,11.37c.48.18-1.39-.13-2.35-.06a9.86,9.86,0,0,1,2.63-.22C367.28,11.19,366.22,11.29,367.37,11.37Z"/><path class="cls-1" d="M358.18,10.28c-.33,0-.16.07,0,.07-.67.17-2.78,0-3.52.15,0,0,4-.58,4.1-.16A1.12,1.12,0,0,1,358.18,10.28Z"/><path class="cls-1" d="M354.05,10.15c.38-.18-1.62-.29-2.38-.41.1.21-3.06.12-5.28.16,1.05-.22,6.62-.42,7.36,0,1.61.05,1.76,0,3.24.06a83.67,83.67,0,0,1-8.52.24A52.15,52.15,0,0,1,354.05,10.15Z"/><path class="cls-1" d="M345.24,10.25c-.3-.09-.8-.13-1.19-.2a4.19,4.19,0,0,1,1.17-.08c-.42.11-.21.23.6.21-.7.09-.65.36-1.74.36C343.68,10.26,344.87,10.35,345.24,10.25Z"/><path class="cls-1" d="M341.74,10.83c-.68.21-1.67-.06-2.35.08C339.62,10.66,341.12,10.83,341.74,10.83Z"/><path class="cls-1" d="M288,7.79c-.54.08-2.67,0-3.83-.06A26.12,26.12,0,0,1,288,7.79Z"/><path class="cls-1" d="M272.12,7.92a10.25,10.25,0,0,1-2.94,0C269.53,7.8,271,8,272.12,7.92Z"/><path class="cls-1" d="M239.44,7.48H240c-.06.06.12.07.3.07a21,21,0,0,1-2.34.29C237.9,7.6,239.24,7.78,239.44,7.48Z"/><path class="cls-1" d="M228.28,7.8c.54-.18,2.87.14,1.46-.15a40.86,40.86,0,0,0,7.07.12,22.8,22.8,0,0,1-3.26-.27c2-.21,3.15.29,4.42,0-.46,0-.22-.15,0-.21-.78,0-1.73.05-1.77-.13.32-.14,2.44.15,2.64-.16-7.4.13-13.25.08-20.59.08.46.1,1.38.09,1.78.21-.23,0-.59,0-.59.07.23,0,.58,0,.6.07-1.09-.06-2.75.09-2.05.22a7.5,7.5,0,0,1,2.65,0c.73-.14-.64-.37.56-.43,1.88.24,4.95-.23,5.89.19-1,.19-4.22-.22-5,.3a27.07,27.07,0,0,1,5,.12l.87-.21C229.06,7.71,227.73,7.72,228.28,7.8Zm5-.3c.1.22-1.27.26-1.76.15A5.23,5.23,0,0,1,233.26,7.5Z"/><path class="cls-1" d="M237.87,10.44c0,.16-1.25,0-1.77.08.18-.06.35-.13,0-.14C236.25,10.23,237.21,10.48,237.87,10.44Z"/><path class="cls-1" d="M218.66,9.17a14.89,14.89,0,0,1-3.81.16C215.78,9.2,217.51,9.25,218.66,9.17Z"/><path class="cls-1" d="M216.57,8.76c.4,0,.26.17.32.28-.79,0-2.59.28-2.37-.13C215.47,9,216.6,9.18,216.57,8.76Z"/><path class="cls-1" d="M205.29,7.18c0,.08.07.12.31.14a10.13,10.13,0,0,1-3.25-.06C203.05,7.11,204.17,7.31,205.29,7.18Z"/><path class="cls-1" d="M200.71,9.1c.52,0,.62.08,1.18.07a7.68,7.68,0,0,1-2.34.22C198.81,9.3,201.09,9.34,200.71,9.1Z"/><path class="cls-1" d="M192.74,8.78c-1.17.22-3.59,0-5,.3C188.61,8.68,191.07,8.84,192.74,8.78Z"/><path class="cls-1" d="M189.48,8.37c.1-.12-.24-.14-.59-.14.07-.17.77-.17,1.16-.08.1.15-1.22.51-1.16.22Z"/><path class="cls-1" d="M176.16,7.15c-.32.29-1.46,0-2.35,0C174.1,7,175.17,7.24,176.16,7.15Z"/><path class="cls-1" d="M41.56.25c-.22.06-.31.16-.28.28a4.11,4.11,0,0,0-2.36-.2c-.26-.06-.19-.19-.6-.21.23-.25.72,0,1.76-.08C40,.26,40.72.26,41.56.25Z"/><path class="cls-2" d="M110.37,4.29h0Z"/><path class="cls-2" d="M52.05,3.24l.26,0A.67.67,0,0,0,52.05,3.24Z"/><path class="cls-2" d="M110.66,4.22a.84.84,0,0,1-.19.07C110.61,4.28,110.71,4.27,110.66,4.22Z"/><path class="cls-2" d="M512.77,16.82c-.43,0-1.53-.08-1.47.08.63,0,.93.05.9.2h.88C512.68,17,512.12,17,512.77,16.82Z"/><path class="cls-2" d="M0,7.18v.2A5.67,5.67,0,0,0,1.69,7,14.58,14.58,0,0,0,0,7.18Z"/><path class="cls-2" d="M516,16.17c2.11-.34,1.66.08,3.53,0-1.06-.05-1.48-.17-.61-.35-2.6-.12-6.08-.22-7.95-.11-1.05-.52-6,.16-6.51-.61-1.19,0-.43.41-1.74.36-.94-.1-1.66-.26-2.68-.34a5.75,5.75,0,0,1-2.95-.13c.39,0,.27-.13.59-.15a23.41,23.41,0,0,0,5.29,0c-2.14,0-4.87-.15-6.76,0,.34,0,.83,0,.88.07-.86,0-.89.16-1.76.14-.19-.15.82-.22-.3-.21a5.31,5.31,0,0,1-1.17.22,39.34,39.34,0,0,0-6.77-.12c-2.7-.57-8.34.2-8.87-.74a34.71,34.71,0,0,1-7.07-.11c-.56,0-.19.23-.87.21-2.38-.42-6,.21-8.83,0,.17-.28,2.95.06,2-.29-4.18.29-7.63-.26-10.91-.24.1-.16,1.29-.07,1.16-.28-.91,0-2.9-.1-4.11,0-.1-.09-.43-.13-.32-.28a48.61,48.61,0,0,1-6.49-.26c-.39.16.78.26,0,.29h-1.76c.37-.09.37-.26-.32-.28-2.51.13-5.61-.05-7.92.24.86-.26-.77-.06-.89-.07s0-.13,0-.14c-4.49-.31-13.51.4-15.59,0,.51.16-1.28.46-2.34.22-.23-.19.57-.14.57-.28-7.12.15-14.93,0-23.24.08.23,0,.58,0,.59.07-3.89-.08-5.55-.27-8.83-.11-2.94-.1-8.44,0-10,0,.26,0,1.68.14.89.21a65.8,65.8,0,0,0-10.32-.39c-.35-.33-3.53-.33-3.53,0a4.66,4.66,0,0,0,1.76-.15c.37.1,1.55,0,1.19.28-1.5,0-6.19.09-3.84-.2-4.54.27-6-.24-10,0-.77-.68-6.25-.1-5.91-.48a11,11,0,0,1-3.84-.12c2.53-.19,4.3-.07,5.87-.23a6.22,6.22,0,0,1-2.07-.14,11.4,11.4,0,0,1-3.82,0c.06.31-1.19,0-1.47,0-.35.23.95.05.61.28a36.79,36.79,0,0,1-6.2-.19,3.63,3.63,0,0,0,1.17-.14c-1.63.11-3.5-.26-3.81.15a11.15,11.15,0,0,1,2.06.06,26,26,0,0,1-5-.12c.39,0,2.13,0,1.17-.07a15.45,15.45,0,0,0-2.64.15,63.92,63.92,0,0,0-8.26-.46,14.25,14.25,0,0,1-3.52.22c0-.1-.15-.15-.31-.21s1.14-.06.87-.29a37,37,0,0,1-5.6-.19c-.73.15-4.28.33-4.72-.12a39.68,39.68,0,0,1,5,0c.31-.24,6.07.11,5.57-.3a2.41,2.41,0,0,0,1.19.21c.42-.12,1.32-.22,2-.43-.11.5,1.75-.25,2.07.2,1,.06.6-.18,1.17-.22.79.07,1.16.24,2.08.28,6.66-.56,14.27,0,20.88-.15a25,25,0,0,1-4.14-.27c.51,0,1.48.2,1.76,0a15.52,15.52,0,0,1-1.77-.14c1.58-.12,2.66.25,3.24.13-1.69,0,.06-.26,0-.28a14,14,0,0,1-2.37-.2c-.06.13.34.15.31.28-.6,0-.59-.19-1.19-.21-4.05.73-10.47.09-15.27.48-.27-.36-1.3-.17-1.17,0a6.83,6.83,0,0,1-2.09-.42c-1.19.48-4.8,0-6.45.31-1.83-.42-5.92.08-7.94,0,.23,0,.34.05.3.14a8.38,8.38,0,0,1-2.36-.07c.68-.17.55.11,1.48.07-2.15-.5-5.5-.09-8.55-.25-.45.1-1.14.15-1.75.22a17.86,17.86,0,0,0-3.54-.13c-.21.2-.7.34-2,.29,1.53.48,4.3.34,6.19.26-1,.27.62.31-.55.49-.8-.36-4.84-.13-6.43-.17.47,0,.9,0,.84.19a18.52,18.52,0,0,1-3.24,0c1.48,0,1.13-.26,2.06,0a8.33,8.33,0,0,0-2.38-.49c-.21.22,1,.09.61.35a4.22,4.22,0,0,0-.59.08c-.41-.2-3.21-.07-2.37-.35-2.13.13-5.32.08-6.2-.33-3.57.18-6.37.39-10,.25-.06-.1.09-.26-.31-.28a8,8,0,0,1-1.45.29c-.11-.25-.8,0-.9-.14.42,0,.33-.16.58-.21a7.31,7.31,0,0,1-1.47-.07c-.21.22,1,.08.61.35a12.68,12.68,0,0,0-1.47.15c-1.15-.26-2.91.21-5,0,.09-.1.41-.14.28-.29-1.08,0-1,.32-2,.36.06-.1.48-.12.58-.21-1.44.52-5,0-5.89-.05.32,0,.71.11.3.14-4.76-.12-8.82.05-13.24.05,0-.08.42-.11,0-.14-2,.07-12.15.89-10.3,0-.23,0-.58,0-.59-.07.34,0,.83,0,.87-.07a35.18,35.18,0,0,0-3.81.15,6,6,0,0,0-.9-.28c-2.15.5-3.67-.26-5.89,0-.1-.18,1.14-.06.87-.28-3,.59-8.11.11-12.34.33-.1-.19,1.65.06,1.17-.22-3.05.21-8.81,0-12.64.19.88-.22-1.1-.09-1.2-.28,2.56-.48,5.34-.06,8.8-.45-.17-.11.32-.37-.32-.36-.91.66-4.59.28-7,.52-.13-.11-.92-.05-.6-.28a53.74,53.74,0,0,1-10.29.11c-.86.31-2.88,0-4.4.16.63-.11.44-.41,1.44-.43.35.19-.89.31.31.28.35-.52,4.19-.18,5-.37-.76,0,.39-.12,0-.28-1.25.2-2.4,0-3.51.22-.67-.21-3.13-.41-1.77,0-1-.4-3.37-.07-4.44-.41,3.2.05,4.36-.28,6.75-.3a20.14,20.14,0,0,0-3.54-.13c0-.1.13-.16.28-.21a77.12,77.12,0,0,1-10.32-.39c0,.09.06.2-.28.21a58.34,58.34,0,0,0-7.37-.11c.36,0,.7,0,.6.14-1.29,0-2.82.08-3-.2-.68,0-.26.31-1.16.29s-1.34-.44-2.39-.56c.94.27-4,.43-2.65-.06-1.84,0-2.83.17-4.14-.2a9.73,9.73,0,0,1-1.74.36c.24.68-.37.76-.21,1.27,1.56-.15,2.7-.24,3.25.2a9.48,9.48,0,0,1,3.24,0c2-.45,4.76.14,7.94,0-.15.34,1,.08,1.5.35-1.07,0-2,.1-2.94.15.41-.22-.06-.27-.61-.42a5.22,5.22,0,0,1-2.36,0c-.33.29,1.25.12,1.49.27-1.13.11-2.5.16-3.51.3-.59-.39-2.76-.36-4.13-.2-.59-.16-.59-.18,0-.35a35.38,35.38,0,0,1-7.95,0c-.75.52-3.16-.15-4.12,0a2.21,2.21,0,0,1,.9.2c-.9,0-.86.13-1.76.08.05-.28-1.11-.25-1.79-.35-.27.14.9.24,0,.29a31.9,31.9,0,0,0-5.29.09c-.27-.23,0-.43-1.79-.42,0,.12,0,.22-.28.28h.12a9.15,9.15,0,0,0-2.77.06h0l-.24.06c-.43,0-1.14,0-.9-.27.56,0,.26.26,1.14.21l0,0c-.34-.31,1.14-.32,2-.35-1.92,0-3.1-.78-3.85-.26-2.92-.16-4.9-.45-8-.68.06-.1.47-.12.57-.21-1.56-.14-2.46.37-2.65-.06a22.32,22.32,0,0,0,3.81-.16,3.87,3.87,0,0,1-1.18-.13c1.3.16.25-.28,2.64-.16-.26-.26.84-.22.85-.42a16.44,16.44,0,0,1-2.37-.28,15.77,15.77,0,0,1,5,.13c-.43,0-1.52-.08-1.47.07,1.63,0-1,.26.61.21a15.89,15.89,0,0,1,2.91-.43c-.58.29,1.33-.2,1.78.2.5-.07.58-.23,1.16-.28,2.31.44,6.77.36,9.15.46C137.77,7,136.89,7,137,6.8c.3,0,.35-.06.58-.07.93.31,2.88-.05,3.26.34a10.23,10.23,0,0,1,2.36.06c.26-.16-.18-.33,1.45-.29-.07.14-.78.14-.86.29,2.32,0,6.5-.26,7.95.11,3.76-1.1,9.87.4,12.92-.4,0,.09.52.06.59.14-.76,0-1,0-.86.21a29.93,29.93,0,0,1,3.54.13c-.47-.39-2.74-.33-3.58-.62a26.45,26.45,0,0,1,3.24-.08,20.42,20.42,0,0,0-3.84-.2.7.7,0,0,1-.58.21c-.4,0-.77-.19-1.19-.21-2-.06-4.82.31-5.89-.12a3.3,3.3,0,0,0,1.75-.21c-4.91.17-7.94,0-13.52,0,0-.07.22-.09.28-.14-1.91.16-4-.1-6.16.23.06-.1.47-.12.57-.21-1.23.06-2.22.18-3.22.29.61-.17-1-.23-1.2-.42.06.16-.23.23-.87.22s.36-.18-.31-.21c-1.5.09-3.22.13-4.39.29,0-.12,1.49-.24.57-.35-1.83.37-6.81-.12-8.55-.18.88.08-.9.23-1.17.08-.38.17,1.18.21.31.28-.41-.28-2.34-.07-2.66-.21-.47-.24,1,0,.87-.21-1.21-.16-2.59-.27-4.14-.34,2.74-.31,8.2.22,12-.32C126,4.77,125,5,124.54,5c-.22-.46-1,0-1.78-.2.71-.57,3.16,0,4.41-.16-.36,0-.7,0-.6-.14.29,0,.34-.06.58-.07,1.84,0,5.11.28,5.29-.09,1.44,0,2.59.5,3.85.34a11.18,11.18,0,0,1-3.58-.62c0-.1,2.12-.05,1.17-.15a40.14,40.14,0,0,1-5,.23c.22.11,1.44,0,1.19.21-.89,0-2.29.08-2.37-.13.85-.12-.46-.37-.6-.21.8.06-.23.26-.57.28-.06-.1-.71-.06-1.18-.07,0-.12-.08-.21-.31-.28a20.29,20.29,0,0,0-2,.15c-3.76-.37-9,.39-12.56.19-.74.2-2.22,0-2.12.22a7.78,7.78,0,0,0-2.07-.06c.19.12,1.4,0,1.48.13s-.32.11-.58.14a3.74,3.74,0,0,0-1.76,0l-.9-.21c-1.82.12-2.62.09-4.4.16,0-.1.13-.15.28-.21a6.56,6.56,0,0,1-2.06-.06,12.81,12.81,0,0,0,2-.36c-1.28.11-3.36,0-3.8.36.53,0,1.21-.21,1.47,0a20.22,20.22,0,0,0-2.33.29c0-.13-.31-.17-.89-.14.64-.18-.37-.39-.92-.49-.18.26.66.27.62.49-1.37,0-.3.11-.87.15-1.5,0-1.69-.26-3-.28a18.22,18.22,0,0,1,2-.43c-1.66,0-1.8.28-3.22.3,0-.18.55-.22-.31-.28-1.83.44-5.61.31-7.92.38.4.17.88-.13,1.18.06-.07.1-.64.09-.87.15-.17-.17-1.15-.15-.91-.42-1.64.26-3.44,0-5.58.16a1.84,1.84,0,0,0-1.49-.28c.36,0,.7,0,.6.14-1.24.08-2.11.08-4.11.09-.23-.49-2.64-.45-3.87-.69-.65.1.38.17-.29.21-3-.33-4.86-.29-8.85-.46,1.92-.12-1.85-.09-.61-.28a28.57,28.57,0,0,1-4.14.18c.2.08.13.3-.24.26-.61-.12-.1-.26-1.18-.14C51,3.13,50.75,3,50,3c-.4,0,0,.28-.57.29-.91-.11-1.14-.06-1.77-.14a2.17,2.17,0,0,0,.87-.21c-1,.05-.48-.14-.31-.21a15.93,15.93,0,0,1-2.37-.27c0,.34.78.51,0,.77.93,0,.84.32,1.21.49A107.31,107.31,0,0,1,33.21,3c.55-.23.53-.44-.34-.64-1.68,1.34-7.41-.17-11.16.4-.38.39.28.43.35.84a9.07,9.07,0,0,0-3.78.58c-1.74.13-2.49.07-4.41.16,0-.09-.1-.17-.59-.14-.8.07.79.13.31.35-2,0-2.45.73-4.37.58.61.38,0,.62-.24.77a1.5,1.5,0,0,0-.89,0c.48,0,0,.1-.58.07.62-.11-1.51-.53-1.78-.2,1,.13,2.91.24,2.1.62a3.51,3.51,0,0,1,1.78.21,11.68,11.68,0,0,1-1.16.28,9.15,9.15,0,0,0,1.2.35,18.1,18.1,0,0,1-6.18,0c-1.16.1-2.4.7-3.47.25v9.7H511.09l-2.43-.05a58.31,58.31,0,0,1,9.39-.39,1.79,1.79,0,0,1,.86-.36c-1.36,0-2.72,0-1.17.15A3.76,3.76,0,0,1,516,16.17Zm-202.78-5.8a15.2,15.2,0,0,1-2.95,0A14.5,14.5,0,0,1,313.18,10.37ZM158.33,8.83c.1-.12-.24-.13-.6-.13.58-.18,1.1.2,2.06,0,0,.08.07.12.3.14C159.44,9,159.53,8.68,158.33,8.83ZM132.56,6.25a5.75,5.75,0,0,1-2.05.08A10.56,10.56,0,0,1,132.56,6.25ZM117.64,7.51c-.22.06-.31.16-.28.28-.9,0-.57-.19-1.48-.14C115.9,7.47,116.86,7.51,117.64,7.51ZM.85,7.66c.76-.12,3.31-.31,3.54,0C3,7.59,1.21,8,.85,7.66ZM19.16,8.72C17,8.81,16.1,8,17.92,7.66c1.18.19,2.95.23,3,.7C20,8.46,18.62,8.46,19.16,8.72ZM42.43,4.61c-1,0-.6-.32-1.78-.27-.29-.13.86-.24,0-.28a35.29,35.29,0,0,1,4.1-.23c.39.09.4.26,0,.35a23.46,23.46,0,0,1,2.66.27A41.4,41.4,0,0,0,42.43,4.61Zm11.7-1.1c-.15-.19,1.61.05,1.46-.14.77,0,.25.27,1.19.2C56.07,3.86,55.27,3.52,54.13,3.51Zm48.56,4.76c0-.13.34-.15.27-.29A10.82,10.82,0,0,0,105,8C105,8.25,103.76,8.24,102.69,8.27ZM121.87,4.6a4,4,0,0,1-1.76.15A5.2,5.2,0,0,1,121.87,4.6Zm-2.09-.49H121C121.2,4.38,119.56,4.39,119.78,4.11Zm-5,.31a37.06,37.06,0,0,0,3.83.12,1.61,1.61,0,0,0,1.2.21c-1.63.33-4.31,0-5.88.09C114.43,4.75,114.72,4.61,114.79,4.42Zm-9.16,3.91c.28-.18.09-.16.27-.43,1.38.22,4.21.35,4.71,0,.52,0,.67.12.6.28.86-.06.33-.1.28-.28.85,0,.71.3,1.49.35C110.52,8.52,108.54,8.11,105.63,8.33Zm7.35-.1c1.18-.18,2.4.06,3.82-.09,0,.07,0,.14,0,.21A20.15,20.15,0,0,1,113,8.23Zm5.65.89a15.27,15.27,0,0,0,2.66.2C120.75,9.45,118.08,9.5,118.63,9.12Zm11.49.26c.57,0,.95-.2,1.17,0A11.61,11.61,0,0,1,130.12,9.38Zm36.51.41c-.4,0-.56-.15-.61-.28a7,7,0,0,1,1.46-.08C167.64,9.66,166.71,9.62,166.63,9.79ZM166.21,8a4,4,0,0,1,1.47,0C167.77,8.19,166.08,8.28,166.21,8ZM171,9.84c-.71,0-.63.14-1.47.08a1.38,1.38,0,0,0-.59-.14c0-.18,1.14-.1,1.16-.28.33,0,.16.07,0,.07C170.07,9.75,171.29,9.62,171,9.84Zm.3,0c-.1-.22,1.27-.26,1.75-.14C173.07,9.88,172.12,9.84,171.34,9.84Zm2.61-.5c.31-.28,1.16-.05,1.48.07C175.41,9.54,174.33,9.35,174,9.34Zm.53-.85a2.92,2.92,0,0,1,1.76-.15A5.2,5.2,0,0,1,174.48,8.49Zm4.42,0a7.78,7.78,0,0,1-2.06.07C177.12,8.28,177.85,8.54,178.9,8.48ZM186.35,10c.09-.23,2.51-.2,2.36.06C187.64,10,187.28,10.08,186.35,10Zm7.07.18c-.94,0-1.25-.12-2.35-.06A6.4,6.4,0,0,1,193.7,10C193.79,10.09,193.43,10.09,193.42,10.18Zm27.41.68a3.84,3.84,0,0,1,1.76-.08C222.87,11,221.05,10.91,220.83,10.86Zm6.48.11a36.51,36.51,0,0,0-4.13-.12,27.24,27.24,0,0,1,4.4-.16C227.08,10.84,227.81,10.83,227.31,11Zm35.31.08c-.23-.24,1-.25,1.46-.14S263.17,11,262.62,11.05Zm19.13.07a26.34,26.34,0,0,1,4.7,0A43,43,0,0,1,281.75,11.12Zm16.13-.62c-1,0,.52-.31-.31-.28.72-.05,1.94,0,2.95.06C300.57,10.57,298.22,10.3,297.88,10.5Zm1.8.42c-.73-.08,2.24-.45,2.06,0A8.3,8.3,0,0,0,299.68,10.92Zm9.45.67a15.48,15.48,0,0,1,1.77.06C310.68,11.81,309,11.89,309.13,11.59Zm34.51,1.21a13.08,13.08,0,0,1,3.8-.23A18.44,18.44,0,0,1,343.64,12.8Zm102.15,1c-.22.09-2.86.18-2.65-.06a23.47,23.47,0,0,0,3.22-.16C446.63,13.76,444.88,13.76,445.79,13.83ZM452,14a15.54,15.54,0,0,0,2,0C455.18,14.05,451.66,14.24,452,14Zm63.12,2.58c-.93,0-1.05-.12-2.06-.06,0-.09.53-.06.88-.08,0-.08-.08-.12-.31-.14a6.47,6.47,0,0,1,2.06,0C515.68,16.39,514.87,16.34,515.1,16.53Z"/><path class="cls-2" d="M289.44,11h0Z"/><path class="cls-2" d="M7.84,6.5A36,36,0,0,0,0,6.62v.2A49.55,49.55,0,0,1,7.84,6.5Z"/></g></g></svg>