<svg xmlns="http://www.w3.org/2000/svg" viewBox="0 0 17.12 519.49"><defs><style>.cls-1,.cls-2{fill:#030031;}.cls-1{fill-rule:evenodd;}</style></defs><g id="Layer_2" data-name="Layer 2"><g id="Home"><path class="cls-1" d="M0,518.38c-.16-.57.25-1.29.13-2.66A7,7,0,0,1,0,518.38Z"/><path class="cls-1" d="M.24,515.12C.09,515.05.17,514,0,514c0-.4.18-.25.28-.31A6.84,6.84,0,0,0,.24,515.12Z"/><path class="cls-1" d="M2.58,481.14c0-.86.15-.91.13-1.78C2.93,479.4,2.81,481.25,2.58,481.14Z"/><path class="cls-1" d="M3.21,460.8c-.17-.4-.07-2.16.2-1.78C3.44,460,3.1,459.5,3.21,460.8Z"/><path class="cls-1" d="M6.08,382.06a5.55,5.55,0,0,1-.35-1.74c.1-.16.17,1.14.21.28A4.35,4.35,0,0,1,6.08,382.06Z"/><path class="cls-1" d="M7.55,376.67c-.06-.15-.12-.3-.22-.28a16.63,16.63,0,0,0,.06-3.83A12.29,12.29,0,0,1,7.55,376.67Z"/><path class="cls-1" d="M4.93,375.08a17.92,17.92,0,0,1-.15-3.53A21.49,21.49,0,0,1,4.93,375.08Z"/><path class="cls-1" d="M7.53,372c-.42.18.08-1.94-.22-1.46-.17,0,0-1,.07-.89-.08-4.08.16-1.32.07.29,0,.29.09.22.14.29C7.65,371.09,7.47,371.07,7.53,372Z"/><path class="cls-1" d="M7.5,365.79c-.2,0-.13-1.22-.14-2.05A6.87,6.87,0,0,1,7.5,365.79Z"/><path class="cls-1" d="M7.56,363.14c-.21.15-.22-.62-.21-1.46C7.49,361.85,7.62,362.12,7.56,363.14Z"/><path class="cls-1" d="M7.42,361.09c-.35,0,.34-3.95-.23-3.22.1-.43.31-.8.42-.33C7.54,359.28,7.48,359.29,7.42,361.09Z"/><path class="cls-1" d="M6.87,347.59c-.15,0-.15-.73-.14-1.46.21-.23.25.28.42.26C7.09,346.92,6.89,346.89,6.87,347.59Z"/><path class="cls-1" d="M5.66,342.67c-.11-.34-.32-.24-.29-1.16C5.53,341.6,5.7,341.68,5.66,342.67Z"/><path class="cls-1" d="M5.64,338.84c-.21,0-.18-1-.22-1.75C5.64,337.07,5.6,338.11,5.64,338.84Z"/><path class="cls-1" d="M6.1,329.4a31.17,31.17,0,0,1,.06-3.24A14.62,14.62,0,0,1,6.1,329.4Z"/><path class="cls-1" d="M6.8,290.22c0-.87.18-1,.21-1.78C7.14,288.73,7,290.24,6.8,290.22Z"/><path class="cls-1" d="M7,278.15H6.76c.08-.73-.06-6,.06-2.06A10.51,10.51,0,0,1,7,278.15Z"/><path class="cls-1" d="M9.5,276.81a6.46,6.46,0,0,1-.08-2.35A14.23,14.23,0,0,1,9.5,276.81Z"/><path class="cls-1" d="M9.54,269.75c0-.82-.3-1.38-.07-1.76A3.08,3.08,0,0,1,9.54,269.75Z"/><path class="cls-1" d="M9.82,267.38H9.61c.08-.44.05-1.32.27-1.19C9.89,266.72,9.8,266.82,9.82,267.38Z"/><path class="cls-1" d="M6.77,262.28c-.16,1.14-.11-1.1-.29-.87,0-.52.12-.68.28-.6C6.86,261.53,6.56,262,6.77,262.28Z"/><path class="cls-1" d="M9.37,261.23c-.29-.05,0-1.05-.15-1.76h.22C9.49,260.35,9.32,260.33,9.37,261.23Z"/><path class="cls-1" d="M8.59,259.81c-.14.88,0-2.12-.29-1.46C8.44,256.9,8.68,258.48,8.59,259.81Z"/><path class="cls-1" d="M9.71,256.5c-.07,0-.06-.36-.08-.59s-.07-.15-.07,0a4.38,4.38,0,0,1-.07-1.17C9.74,254.56,9.71,255.6,9.71,256.5Z"/><path class="cls-1" d="M8.49,252.46l-.28,0a11.58,11.58,0,0,0,.06-2.07C8.5,250.42,8.43,251.73,8.49,252.46Z"/><path class="cls-1" d="M10,245c-.1-1-.22-1.87-.3-2.92A7.53,7.53,0,0,1,10,245Z"/><path class="cls-1" d="M9.84,215.59l-.29,0c.19.1.3-1.76.07-.88-.23-.43.14-.73.07-1.48A11.44,11.44,0,0,1,9.84,215.59Z"/><path class="cls-1" d="M9.78,199.71a6.45,6.45,0,0,1-.15-2.05A6.77,6.77,0,0,1,9.78,199.71Z"/><path class="cls-1" d="M8.14,194.52c-.07-.17-.13-.34-.14,0-.15-.65.14-.55,0-1.76C8.17,192.79,8.13,193.74,8.14,194.52Z"/><path class="cls-1" d="M8.91,193.59a12.56,12.56,0,0,1,0-2.94A13.13,13.13,0,0,1,8.91,193.59Z"/><path class="cls-1" d="M8,192.47c-.08-.88,0-1.88,0-3.23.15.52,0,2.3.15,2.93C8.05,192.13,8,192.24,8,192.47Z"/><path class="cls-1" d="M10.68,177.88c-.19-.68.11-1.79-.08-2.64C11,175.24,10.68,176.93,10.68,177.88Z"/><path class="cls-1" d="M10,177.93c-.23.38-.06-1-.29-.57,0-.68.21-.34.21-.9C10.14,176.72,9.94,177,10,177.93Z"/><path class="cls-1" d="M11.1,177c.1-.38,0-1.39.14-1.77C11.41,175.82,11.4,176.94,11.1,177Z"/><path class="cls-1" d="M10,172.63a17.7,17.7,0,0,1-.09-4.4,3.75,3.75,0,0,1,.22,1.45c-.19-1.2-.27,2.54.08,1.76C10.19,172.22,9.89,171.69,10,172.63Z"/><path class="cls-1" d="M9.5,162.07H9.28c-.07-1.09.27-.48.21-1.48C9.66,160.67,9.54,161.89,9.5,162.07Z"/><path class="cls-1" d="M10.18,156.73c-.38-.22,0-1.66-.22-2.63C10.2,154.26,10.06,156.07,10.18,156.73Z"/><path class="cls-1" d="M11.73,155.75h-.21c.16-.22-.08-2,.2-1.78Z"/><path class="cls-1" d="M13.14,137.42c-.14-.4,0-1.8-.15-2.35C13.24,135.27,13.19,136.7,13.14,137.42Z"/><path class="cls-1" d="M13.25,73c-.46-.22.08-1.33-.15-2.34C13.38,70.44,13.19,72.24,13.25,73Z"/><path class="cls-1" d="M14.44,51.13a10.88,10.88,0,0,0-.08-2.35C14.57,48.87,14.85,51,14.44,51.13Z"/><path class="cls-1" d="M14.39,19.65c-.4.21,0-1.52-.28-1.74.12-.59.39.91.56-.33C14.93,18.58,14.39,18.75,14.39,19.65Z"/><path class="cls-1" d="M13.3,11.19c-.15-1.48-.33.9-.42-1.73l.35,0C13.26,10.48,13.43,10.15,13.3,11.19Z"/><path class="cls-1" d="M13.86,9.69c-.14-1.69-.58-2.07-.65-4.08-.11-.08-.12.29-.21.31.1.68.13,1.65.22,2.34-.2.18-.65-.78-.7,1.22C12.14,8,13,7.19,12.93,5c.31,0,.49-.54.63-1.22a14.7,14.7,0,0,1,.5,2,3.09,3.09,0,0,1-.27,1.78A7.18,7.18,0,0,1,13.86,9.69Z"/><path class="cls-1" d="M11.67,6.3c-.06-2.09.43-.15.41-2.09.06.53.19.8.22,1.46C12,5.42,12,6.43,11.67,6.3Z"/><path class="cls-1" d="M6.9,280.21A32.74,32.74,0,0,0,7,284.92c-.33-.24.1.75-.14.89-.27-.66.06-4.53-.3-5.57a4.56,4.56,0,0,0-.06,1.18c-.17.36,0-2.51.2-2.37C6.69,280.2,6.65,280.76,6.9,280.21Z"/><path class="cls-1" d="M6.07,378.82c-.31-2.45.13-6.67-.38-8.8.18-.24.11-1.47.35-1.49-.18,2.92.23,4,0,6.18A20.66,20.66,0,0,1,6.07,378.82Z"/><path class="cls-1" d="M5.75,367.37c-.18.48.13-1.39.06-2.35A9.86,9.86,0,0,1,6,367.65C5.93,367.28,5.83,366.22,5.75,367.37Z"/><path class="cls-1" d="M6.84,358.18c0-.33-.07-.16-.07,0-.17-.67,0-2.78-.15-3.52,0,0,.58,4,.15,4.1A1.19,1.19,0,0,1,6.84,358.18Z"/><path class="cls-1" d="M7,354.05c.18.38.28-1.62.41-2.38-.21.1-.12-3.06-.16-5.28.22,1.05.42,6.62,0,7.36,0,1.61,0,1.76-.06,3.24a83.67,83.67,0,0,1-.24-8.52A52.15,52.15,0,0,1,7,354.05Z"/><path class="cls-1" d="M6.86,345.24a10.75,10.75,0,0,0,.21-1.19,4.19,4.19,0,0,1,.08,1.17c-.11-.42-.23-.21-.21.6-.09-.7-.36-.65-.36-1.74C6.85,343.68,6.76,344.87,6.86,345.24Z"/><path class="cls-1" d="M6.29,341.74c-.21-.68.06-1.67-.08-2.35C6.46,339.62,6.29,341.12,6.29,341.74Z"/><path class="cls-1" d="M9.33,288c-.08-.54.05-2.67.06-3.83A26.12,26.12,0,0,1,9.33,288Z"/><path class="cls-1" d="M9.2,272.12a10.25,10.25,0,0,1,0-2.94C9.32,269.53,9.12,271,9.2,272.12Z"/><path class="cls-1" d="M9.64,239.44c0,.2,0,.39,0,.59-.06-.06-.07.12-.07.3A21,21,0,0,1,9.29,238C9.52,237.9,9.34,239.24,9.64,239.44Z"/><path class="cls-1" d="M9.32,228.28c.18.54-.14,2.87.15,1.46a40.86,40.86,0,0,0-.12,7.07,21.39,21.39,0,0,1,.27-3.26c.21,2-.3,3.15,0,4.42,0-.46.15-.22.21,0,0-.78,0-1.73.13-1.77.14.32-.16,2.44.15,2.64-.12-7.4-.07-13.25-.07-20.59-.1.46-.09,1.38-.21,1.78,0-.23,0-.59-.07-.59,0,.23,0,.58-.07.6.06-1.09-.09-2.75-.22-2.05a7.5,7.5,0,0,1,0,2.65c.14.73.37-.64.43.56-.25,1.88.23,4.95-.19,5.89-.19-1,.22-4.22-.3-5a28,28,0,0,1-.12,5q.11.42.21.87C9.41,229.06,9.4,227.73,9.32,228.28Zm.3,5c-.23.1-.26-1.27-.15-1.76A5.23,5.23,0,0,1,9.62,233.26Z"/><path class="cls-1" d="M6.68,237.87c-.16,0,0-1.25-.08-1.77.06.18.13.35.14,0C6.89,236.25,6.64,237.21,6.68,237.87Z"/><path class="cls-1" d="M7.94,218.66a15.4,15.4,0,0,1-.15-3.81C7.92,215.78,7.87,217.51,7.94,218.66Z"/><path class="cls-1" d="M8.36,216.57c0,.4-.18.26-.28.32,0-.79-.28-2.59.13-2.37C8.16,215.47,7.94,216.6,8.36,216.57Z"/><path class="cls-1" d="M9.94,205.29c-.08,0-.13.07-.14.31a9.85,9.85,0,0,1,.06-3.25C10,203.05,9.81,204.17,9.94,205.29Z"/><path class="cls-1" d="M8,200.71c0,.52-.09.62-.07,1.18a7.68,7.68,0,0,1-.22-2.34C7.82,198.81,7.78,201.09,8,200.71Z"/><path class="cls-1" d="M8.34,192.74c-.23-1.17,0-3.59-.3-5C8.44,188.61,8.28,191.07,8.34,192.74Z"/><path class="cls-1" d="M8.75,189.48c.12.1.13-.24.14-.59.16.07.17.77.08,1.16-.15.1-.51-1.22-.22-1.16Z"/><path class="cls-1" d="M10,176.16c-.29-.32,0-1.46,0-2.35C10.12,174.1,9.88,175.17,10,176.16Z"/><path class="cls-1" d="M16.87,41.56c-.06-.22-.16-.31-.28-.28a4.11,4.11,0,0,0,.2-2.36c.06-.26.19-.19.21-.6.25.23,0,.72.08,1.76C16.86,40,16.85,40.72,16.87,41.56Z"/><path class="cls-2" d="M12.83,110.37v0Z"/><path class="cls-2" d="M13.88,52.05c0,.07,0,.16,0,.26A.5.5,0,0,0,13.88,52.05Z"/><path class="cls-2" d="M12.9,110.66a.84.84,0,0,1-.07-.19C12.84,110.61,12.85,110.71,12.9,110.66Z"/><path class="cls-2" d="M.3,512.77c0-.43.07-1.53-.08-1.47,0,.63,0,.93-.2.9v.88C.1,512.68.14,512.12.3,512.77Z"/><path class="cls-2" d="M9.94,0h-.2a5.37,5.37,0,0,0,.36,1.69A14.58,14.58,0,0,0,9.94,0Z"/><path class="cls-2" d="M.94,516c.35,2.11-.07,1.66,0,3.53,0-1.06.16-1.48.35-.61.12-2.6.22-6.08.11-7.95.52-1.05-.16-6,.61-6.51,0-1.19-.41-.43-.36-1.74.1-.94.26-1.66.34-2.68a5.75,5.75,0,0,1,.13-2.95c0,.39.13.27.15.59a23.41,23.41,0,0,0,0,5.29c0-2.14.15-4.87,0-6.77,0,.35,0,.84-.07.89,0-.86-.16-.89-.14-1.76.15-.19.22.82.21-.3a4.78,4.78,0,0,1-.22-1.17,39.34,39.34,0,0,0,.12-6.77c.57-2.7-.2-8.34.74-8.87A34,34,0,0,1,3,471.11c0-.56-.23-.19-.21-.87.42-2.38-.21-6,0-8.83.28.17-.06,2.95.29,2-.3-4.18.26-7.63.24-10.91.16.1.07,1.29.28,1.16,0-.91.1-2.9,0-4.11.09-.1.13-.43.28-.32a47,47,0,0,1,.26-6.49c-.17-.39-.27.78-.29,0v-1.76c.09.37.26.37.28-.32-.13-2.51,0-5.61-.24-7.92.26.86.06-.77.06-.89s.14,0,.15,0c.31-4.49-.4-13.51,0-15.59-.16.51-.46-1.28-.22-2.34.19-.23.14.57.28.57-.15-7.12,0-14.93-.08-23.24,0,.23,0,.58-.07.59.08-3.89.27-5.55.11-8.83.1-2.94,0-8.44,0-10,0,.26-.14,1.68-.21.89a65.8,65.8,0,0,0,.39-10.32c.33-.35.33-3.53,0-3.53a4.66,4.66,0,0,0,.15,1.76c-.1.37,0,1.55-.28,1.19,0-1.5-.09-6.19.2-3.84-.27-4.54.24-6,0-10,.68-.77.1-6.25.47-5.91A11,11,0,0,1,5,339.47c.19,2.53.06,4.3.23,5.87a6.22,6.22,0,0,1,.14-2.07,11.4,11.4,0,0,1,0-3.82c-.31.06,0-1.19,0-1.47-.23-.35-.05.95-.28.61a36.79,36.79,0,0,1,.19-6.2,3.63,3.63,0,0,0,.14,1.17c-.11-1.63.26-3.5-.15-3.81a10.15,10.15,0,0,1-.07,2.06,26.73,26.73,0,0,1,.13-5c0,.39,0,2.13.07,1.17a16.56,16.56,0,0,0-.15-2.64,63.92,63.92,0,0,0,.46-8.26,14.25,14.25,0,0,1-.22-3.52c.1,0,.15-.15.21-.31s.06,1.14.28.87a39.85,39.85,0,0,1,.19-5.6c-.14-.73-.32-4.28.13-4.72a41.69,41.69,0,0,1,0,5c.23.31-.12,6.07.3,5.57a2.41,2.41,0,0,0-.21,1.19c.11.42.22,1.32.43,2-.5-.11.25,1.75-.2,2.07-.06,1,.18.6.21,1.17-.06.79-.23,1.16-.27,2.08.56,6.66,0,14.27.15,20.88A26.4,26.4,0,0,1,7,339.64c0,.51-.19,1.48,0,1.76a13.52,13.52,0,0,1,.14-1.77c.12,1.58-.25,2.66-.13,3.24,0-1.69.26.06.28,0a14,14,0,0,1,.2-2.37c-.13-.06-.15.34-.28.31,0-.6.19-.59.21-1.19-.73-4.05-.09-10.47-.48-15.27.36-.27.17-1.3,0-1.17a6.53,6.53,0,0,1,.42-2.09c-.48-1.19,0-4.8-.31-6.45.42-1.83-.08-5.92,0-7.94,0,.23,0,.34-.14.3a8.38,8.38,0,0,1,.07-2.36c.17.68-.11.55-.07,1.48.5-2.15.09-5.5.25-8.55-.1-.45-.15-1.14-.22-1.75A17.86,17.86,0,0,0,7,292.27c-.2-.21-.34-.7-.29-2-.48,1.53-.34,4.3-.26,6.19-.27-1-.31.62-.49-.55.36-.8.13-4.84.17-6.43,0,.47-.05.9-.19.84a18.52,18.52,0,0,1,0-3.24c0,1.48.26,1.13,0,2.06a8.33,8.33,0,0,0,.49-2.38c-.22-.21-.09,1-.35.61,0-.3-.06-.35-.08-.59.2-.41.07-3.21.35-2.37-.13-2.13-.08-5.32.33-6.2-.18-3.57-.39-6.37-.25-10,.1-.06.26.09.28-.31a8,8,0,0,1-.29-1.45c.25-.11,0-.8.14-.9,0,.42.15.33.21.58a7.31,7.31,0,0,1,.07-1.47c-.22-.21-.09,1-.35.61,0-.73-.12-.91-.15-1.47.26-1.15-.21-2.91.05-5,.1.09.14.41.29.28,0-1.08-.32-1-.37-2,.11.06.13.48.22.58-.52-1.44,0-5,0-5.89,0,.32-.12.71-.14.3.12-4.76,0-8.82,0-13.24.08,0,.11.42.14,0-.07-2-.89-12.15,0-10.3,0-.23,0-.58.07-.59,0,.34,0,.83.07.87a35.18,35.18,0,0,0-.15-3.81,6,6,0,0,0,.28-.9c-.51-2.15.26-3.67.05-5.89.18-.1,0,1.14.28.87-.59-3-.11-8.11-.33-12.34.19-.1-.06,1.65.22,1.17-.21-3.05,0-8.81-.19-12.64.22.88.09-1.1.28-1.2.48,2.56.06,5.34.45,8.8.1-.17.37.32.35-.32-.65-.91-.27-4.59-.51-7,.11-.13,0-.92.27-.6a53.84,53.84,0,0,1-.1-10.29c-.32-.86,0-2.88-.16-4.4.11.63.41.44.43,1.44-.19.35-.31-.89-.28.31.52.35.18,4.19.37,5,0-.76.12.39.28,0-.2-1.25,0-2.4-.23-3.51.22-.67.42-3.13,0-1.77.4-1,.07-3.37.4-4.44,0,3.2.28,4.36.31,6.75a20.14,20.14,0,0,0,.13-3.54c.1,0,.15.13.21.28a75.48,75.48,0,0,1,.39-10.32c-.09,0-.2.06-.22-.28a56.52,56.52,0,0,0,.12-7.37c0,.36,0,.7-.14.6,0-1.29-.08-2.82.2-3,0-.68-.31-.26-.29-1.16s.43-1.34.56-2.39c-.27.94-.43-4,.06-2.65,0-1.84-.17-2.83.19-4.14a9.82,9.82,0,0,1-.35-1.74c-.68.24-.76-.37-1.27-.21.15,1.56.24,2.7-.2,3.25a9.74,9.74,0,0,1,0,3.24c.45,2-.14,4.76,0,7.94-.34-.15-.08,1-.35,1.5,0-1.07-.1-2-.15-2.94.22.41.27-.06.42-.61a5.22,5.22,0,0,1,0-2.36c-.3-.33-.12,1.25-.28,1.49-.1-1.13-.15-2.5-.29-3.51.39-.59.36-2.76.2-4.13.16-.59.18-.59.35,0a35.38,35.38,0,0,1,0-7.95c-.52-.75.15-3.16,0-4.12a2.21,2.21,0,0,1-.2.9c0-.9-.13-.86-.08-1.76.27.05.25-1.11.34-1.79-.13-.27-.23.9-.28,0a31.9,31.9,0,0,0-.09-5.29c.23-.27.43,0,.42-1.79-.12,0-.22,0-.28-.28a.49.49,0,0,0,0,.12,9.14,9.14,0,0,0-.07-2.77h0v-.05a2.17,2.17,0,0,0-.07-.24c.06-.43.06-1.14.28-.9,0,.56-.26.26-.21,1.14v0c.32-.34.33,1.14.35,2,0-1.92.79-3.1.27-3.85.16-2.92.44-4.9.68-8,.1.06.12.47.21.57.14-1.56-.37-2.46.06-2.65a22.32,22.32,0,0,0,.16,3.81,3.57,3.57,0,0,1,.13-1.18c-.16,1.3.28.25.15,2.64.27-.26.22.84.43.85a18.19,18.19,0,0,1,.27-2.37,15.53,15.53,0,0,1-.12,5c0-.43.08-1.52-.07-1.47,0,1.63-.26-1-.21.61a15.89,15.89,0,0,1,.43,2.91c-.29-.58.19,1.33-.21,1.78.07.5.24.58.29,1.16a79.31,79.31,0,0,0-.46,9.15c.08-.44.06-1.32.28-1.2,0,.3.06.35.07.58-.31.93,0,2.88-.34,3.26a10.85,10.85,0,0,1-.06,2.36c.16.26.33-.18.29,1.45-.15-.07-.14-.78-.29-.86,0,2.32.26,6.5-.11,7.95,1.1,3.76-.4,9.87.4,12.92-.09,0-.06.52-.14.59,0-.76,0-1-.21-.86a32.27,32.27,0,0,1-.13,3.54c.39-.47.33-2.74.62-3.58a28.63,28.63,0,0,1,.08,3.24,21.3,21.3,0,0,0,.2-3.84.7.7,0,0,1-.21-.58c0-.4.19-.77.2-1.19.06-2-.3-4.82.12-5.89a3.36,3.36,0,0,0,.22,1.75c-.17-4.91,0-7.94,0-13.52.07,0,.09.22.14.28-.16-1.91.09-4-.23-6.16.1.06.12.47.21.57-.06-1.23-.18-2.22-.29-3.22.17.61.23-1,.42-1.2-.16.06-.23-.23-.22-.87s.18.36.21-.31c-.09-1.5-.13-3.22-.3-4.39.13,0,.25,1.49.36.57-.37-1.83.12-6.81.18-8.55-.08.88-.23-.9-.08-1.17-.17-.38-.21,1.18-.28.31.28-.41.07-2.34.2-2.66.25-.47,0,1,.22.87.15-1.21.27-2.59.34-4.14.31,2.74-.22,8.2.32,12,.17-.26-.06-1.29-.07-1.76.46-.22,0-1,.2-1.78.57.71,0,3.16.16,4.41,0-.36,0-.7.14-.6,0,.29.06.34.07.58,0,1.84-.29,5.11.09,5.29,0,1.44-.5,2.59-.34,3.85a11.18,11.18,0,0,1,.62-3.58c.1,0,0,2.12.15,1.17a40.14,40.14,0,0,1-.23-5c-.11.22,0,1.44-.21,1.19,0-.89-.09-2.29.13-2.37.12.85.37-.46.21-.6-.06.8-.26-.23-.28-.57.1-.06.06-.71.06-1.18.13,0,.22-.08.28-.31a18,18,0,0,0-.14-2c.37-3.76-.39-9-.19-12.56-.2-.74,0-2.22-.22-2.12a7.78,7.78,0,0,0,.06-2.07c-.12.19,0,1.4-.13,1.48s-.11-.32-.15-.58a3.61,3.61,0,0,0,0-1.76c.07-.29.14-.59.2-.9-.11-1.82-.09-2.62-.15-4.4.09,0,.15.13.21.28a6.56,6.56,0,0,1,.06-2.06,12.81,12.81,0,0,0,.36,2C13,99.07,13,97,12.71,96.55c0,.53.21,1.21,0,1.47a20.22,20.22,0,0,0-.29-2.33c.13,0,.16-.31.14-.89.18.64.39-.37.49-.92-.26-.18-.27.66-.49.62,0-1.37-.11-.3-.15-.87,0-1.5.25-1.69.27-3a14.6,14.6,0,0,1,.43,2c0-1.66-.27-1.8-.29-3.22.18,0,.22.55.28-.31-.44-1.83-.31-5.61-.38-7.92-.17.4.13.88-.07,1.18-.1-.07-.08-.64-.14-.87.17-.17.15-1.15.42-.91-.26-1.64,0-3.44-.16-5.58A1.81,1.81,0,0,0,13,73.58c0,.36,0,.7-.14.6-.07-1.24-.07-2.11-.08-4.11.49-.23.44-2.64.69-3.87-.1-.65-.17.38-.21-.29.33-3,.29-4.86.46-8.85.12,1.92.09-1.85.28-.61a30.16,30.16,0,0,1-.19-4.14c-.08.2-.29.13-.25-.24.12-.61.26-.1.14-1.18.25.15.39-.14.41-.92,0-.4-.27,0-.28-.57.11-.91.06-1.14.14-1.77a2,2,0,0,0,.21.87c-.05-1,.14-.48.21-.31a15.93,15.93,0,0,1,.27-2.37c-.34,0-.52.78-.77,0,0,.93-.32.84-.49,1.21a107.31,107.31,0,0,1,.72-13.87c.23.55.44.53.64-.34-1.34-1.68.17-7.41-.4-11.16-.39-.38-.43.28-.84.35A9.07,9.07,0,0,0,13,18.28c-.13-1.74-.07-2.49-.16-4.41.09,0,.17-.1.14-.59-.07-.8-.13.79-.35.31,0-2-.73-2.45-.58-4.37-.38.61-.62,0-.78-.24.1,0,.09-.83,0-.89,0,.48-.1,0-.07-.58.11.62.52-1.51.2-1.78-.13,1-.24,2.91-.62,2.1a3.51,3.51,0,0,1-.21,1.78,11.54,11.54,0,0,1-.29-1.16,11.13,11.13,0,0,0-.34,1.2,18.09,18.09,0,0,1,0-6.18C9.87,2.31,9.27,1.07,9.72,0H0V511.09c0-.76,0-1.68.05-2.43a58.31,58.31,0,0,1,.39,9.39,1.7,1.7,0,0,1,.35.86c0-1.36,0-2.72-.14-1.17A3.8,3.8,0,0,1,.94,516ZM6.75,313.18a16,16,0,0,1,0-2.95A14.47,14.47,0,0,1,6.75,313.18ZM8.29,158.33c.11.1.13-.24.13-.6.18.58-.2,1.1,0,2.06-.08,0-.12.07-.14.3C8.14,159.44,8.44,159.53,8.29,158.33Zm2.58-25.77a5.75,5.75,0,0,1-.08-2.05A10.56,10.56,0,0,1,10.87,132.56ZM9.61,117.64c-.06-.22-.16-.31-.28-.28-.06-.9.19-.57.14-1.48C9.65,115.9,9.61,116.86,9.61,117.64ZM9.46.85c.11.76.31,3.31-.06,3.54C9.53,3,9.13,1.21,9.46.85ZM8.4,19.16c-.09-2.2.77-3.06,1-1.24-.18,1.18-.22,2.95-.69,3C8.66,20,8.66,18.62,8.4,19.16Zm4.11,23.27c0-1,.32-.6.27-1.78.13-.29.24.86.28,0a35.29,35.29,0,0,1,.23,4.1c-.09.39-.26.4-.35,0a23.46,23.46,0,0,1-.27,2.66A41.4,41.4,0,0,0,12.51,42.43Zm1.1,11.7c.19-.15,0,1.61.14,1.46,0,.77-.27.25-.2,1.19C13.25,56.07,13.6,55.27,13.61,54.13ZM8.85,102.69c.13,0,.15.34.29.27a10.05,10.05,0,0,0,0,2.06C8.87,105,8.88,103.76,8.85,102.69Zm3.67,19.18a4,4,0,0,1-.15-1.76A5.2,5.2,0,0,1,12.52,121.87Zm.48-2.09c0,.39,0,.78,0,1.17C12.74,121.2,12.73,119.56,13,119.78Zm-.3-5a37.06,37.06,0,0,0-.12,3.83,1.56,1.56,0,0,0-.21,1.2c-.33-1.63,0-4.31-.09-5.88C12.37,114.43,12.51,114.72,12.7,114.79Zm-3.91-9.16c.18.28.15.09.43.27-.23,1.38-.36,4.21-.06,4.71,0,.52-.11.67-.28.6.07.86.11.33.29.28,0,.85-.3.71-.35,1.49C8.6,110.52,9,108.54,8.79,105.63Zm.1,7.35c.18,1.18-.06,2.4.09,3.82H8.76A21.07,21.07,0,0,1,8.89,113ZM8,118.63a16.29,16.29,0,0,0-.21,2.66C7.67,120.75,7.62,118.08,8,118.63Zm-.26,11.49c0,.57.2.95,0,1.17A11.61,11.61,0,0,1,7.74,130.12Zm-.41,36.51c0-.4.15-.56.28-.61a7.15,7.15,0,0,1,.07,1.46C7.46,167.64,7.49,166.71,7.33,166.63Zm1.83-.42a4,4,0,0,1,0,1.47C8.93,167.77,8.84,166.08,9.16,166.21ZM7.27,171c0-.71-.13-.63-.07-1.47a1.38,1.38,0,0,0,.14-.59c.18,0,.1,1.14.28,1.16,0,.33-.07.16-.07,0C7.37,170.07,7.5,171.29,7.27,171Zm0,.3c.22-.1.26,1.27.14,1.75C7.24,173.07,7.28,172.12,7.28,171.34Zm.5,2.61c.28.31,0,1.16-.07,1.48C7.58,175.41,7.77,174.33,7.78,174Zm.85.53a2.94,2.94,0,0,1,.14,1.76A5.28,5.28,0,0,1,8.63,174.48Zm0,4.42a7.77,7.77,0,0,1-.08-2.06C8.84,177.12,8.58,177.85,8.64,178.9Zm-1.52,7.45c.23.09.2,2.51-.06,2.36C7.17,187.64,7,187.28,7.12,186.35Zm-.19,7.07c0-.94.12-1.25.07-2.35a6.4,6.4,0,0,1,.15,2.63C7,193.79,7,193.43,6.93,193.42Zm-.67,27.41a3.84,3.84,0,0,1,.08,1.76C6.08,222.87,6.2,221.05,6.26,220.83Zm-.12,6.48a34.39,34.39,0,0,0,.13-4.13,27.24,27.24,0,0,1,.16,4.4C6.28,227.08,6.29,227.81,6.14,227.31Zm-.08,35.31c.25-.23.26,1,.15,1.46S6.1,263.17,6.06,262.62ZM6,281.75a25.42,25.42,0,0,1,0,4.7A42.76,42.76,0,0,1,6,281.75Zm.63,16.13c0-1,.31.52.28-.31,0,.72,0,1.94-.06,2.95C6.55,300.57,6.82,298.22,6.62,297.88Zm-.42,1.8c.08-.73.44,2.24,0,2.06A8.3,8.3,0,0,0,6.2,299.68Zm-.67,9.45c.06.9-.07,1.08-.06,1.77C5.31,310.68,5.23,309,5.53,309.13ZM4.32,343.64a13.44,13.44,0,0,1,.23,3.8A18.44,18.44,0,0,1,4.32,343.64Zm-1,102.15c-.09-.22-.19-2.86.06-2.65a25.49,25.49,0,0,0,.15,3.22C3.36,446.63,3.36,444.88,3.29,445.79ZM3.17,452a15.54,15.54,0,0,0,0,2C3.07,455.18,2.87,451.66,3.17,452ZM.59,515.1c0-.93.12-1.05.06-2.06.08,0,.06.53.08.88.08,0,.12-.08.14-.31a6.47,6.47,0,0,1,0,2.06C.73,515.68.78,514.87.59,515.1Z"/><path class="cls-2" d="M6.15,289.44c0-.12,0-.24,0-.35C6.15,289.18,6.15,289.31,6.15,289.44Z"/><path class="cls-2" d="M10.61,7.84A34.8,34.8,0,0,0,10.49,0H10.3A48.44,48.44,0,0,1,10.61,7.84Z"/></g></g></svg>