<svg xmlns="http://www.w3.org/2000/svg" viewBox="0 0 698.27 124.83"><defs><style>.cls-1{fill:#ffbc00;fill-rule:evenodd;}</style></defs><g id="Layer_2" data-name="Layer 2"><g id="Home"><path class="cls-1" d="M219.33,121.66c-.73.22-1.62-1.8-1.89.57,1.69.34,3,1.89,3.8-1.86C220.59,120.15,220.08,121.44,219.33,121.66Z"/><path class="cls-1" d="M33.41,82a5.31,5.31,0,0,1-.28,1.42s-.51-1.63-.66-1.5c.1,2.47-.89,1.12-1,2.81,1.11-.32,1.8-.88,2.29,1.63.09-1.36-.22-1.61-.15-2.9.27.23.79,3,1.15.81-.24,0-.26-1.28,0-1.43l.47,0A8.13,8.13,0,0,1,34.94,85l.94.08c.23-2-.42-1.49-.38-2.92C34.4,82.75,33.91,82,33.41,82Z"/><path class="cls-1" d="M44.75,77.87c-.2-.23-1-2-.4-2.2.66-.48.43,1.47.89,1.51.36-4.09-2.13-2.36-1.89.57.61,0,.56,1.45,1.12,1.53.88.14,1.79-2.43,2-4.88C45.45,73.93,45.75,78.19,44.75,77.87Z"/><path class="cls-1" d="M42.91,77c-.35-2,1.07-1.31.3-2.14-.3,1.68-1-1.64-1.42.6C42.52,75,42,78,42.91,77Z"/><path class="cls-1" d="M44.27,85.76c.24.19.51-.77.95-.64s.55,1.94.91.79a8.22,8.22,0,0,1-.84-3c-1,2.44-1.85-3.38-2.58.51C43.33,83.55,43.65,85.28,44.27,85.76Z"/><path class="cls-1" d="M43.65,68.4c-.69.7-1,.67-1.63-.14-.06,1.14-.62.52-.54,2.12C42.57,69.54,43.19,71.75,43.65,68.4Z"/><path class="cls-1" d="M66.9,109.24c-.18-2.43-.88-.74-1.15-.81s-.09-.88-.44-.76-.77,1.07-1.21,1.34-1.45-.69-1.44,1.33c.64,1.3,1.34-1.1,2.37-1.25,1.3-.18,2.89,2.55,4.2.35C68.07,108.13,68.13,108.14,66.9,109.24Z"/><path class="cls-1" d="M34.29,76.29a2.24,2.24,0,0,0-1.94,2c.6,2,1-1.19,1.89-.56.75-.29.46,2.25,1.35,1.55.52-3.64,1.16-.6,2.12-.55C37.6,75.35,35.46,76,34.29,76.29Z"/><path class="cls-1" d="M291.44,117.43l.7.06.09-2.88-.7,0C291.45,116.52,291.87,116,291.44,117.43Z"/><path class="cls-1" d="M38.23,84.55c-.83-.59-.88,1.17,0,.72,1.68-.3,3.9,1,4.89.4.29-.13.17-.79,0-1.44C41.63,83.09,39.9,84,38.23,84.55Z"/><path class="cls-1" d="M41.72,77.62c-.56-1.29-.76,1-.4-2.2-1.1,2.38-2.76-3.06-3.12,2.63C39.51,75.48,40.8,81.16,41.72,77.62Z"/><path class="cls-1" d="M152.86,88.11c-1.52-2.24-5.1.9-5.76-2.63-.64,0-1.19,2.94-1.4-.12.32-1,.84-1.29,1.44-1.32.33,1.07.37,2.94,1.33,2.27.77-1.93-.75-1-.88-1.51-.07-.25.15-2,.06-2.16-.52-.83-1.32.45-1.84-.87-.34.41-.12,2.77-.56,2.84,0-2.18-.93-1.42-1.16-.1.43.36,1.44-.86,1.12,1.54-.62,2.08-2.69-.91-3.31,1.17C145.11,88.09,149.46,88.79,152.86,88.11Z"/><path class="cls-1" d="M338.67,49.86c.1-2-.51-2.12-1.1-2.25C337.39,49.85,338,50,338.67,49.86Z"/><path class="cls-1" d="M384.44,43.49c-.27-.13-.67.08-.68-.77-.39,1.34-2.88-.57-2.16,2C382,43.51,384,46.5,384.44,43.49Z"/><path class="cls-1" d="M40.39,106.1c.11-1.41-.27-1.45-.4-2.2-.61,1.13-2.42-.07-1.91,1.29.17.47.74-.32.67.78-.71,1.76-2.37-2.12-.84-3l-1.16-.09c-.32,3.07.56,2.83.54,5.09-.28.82-1.08.18-1.38-.83,1.17-.34.08-.42.56-2.84-1.12,1.18-1.85-1.22-2.82.49.73.13,1.35,2.32,2,4.49-.51.91-1.67-.78-1.77-3-.55.17-1.06,1.45-1.15-.82a3.35,3.35,0,0,0,.75-1.38c-2.18-1.7-4.36.27-7.69-.62-.44.61-.74,1.68-1.24,2.06-.79-1.37-1.77.75-2.14,1.27s-1,.32-1.19.62c-1.12,1.92-1.47,6.17-2.16,9.2.63,2,.61,5.79,1.15,8,.42-.38,1.34,1,1.42-.6-.49-.27.06-3.42.56-2.84s.46,1.16.16,2.18c1.46-.75,3.24-.37,4.29-2.54-.26-.17-.34-.83-.42-1.48.45-.27.63-1.5,1.21-1.35a8.67,8.67,0,0,1-.3,2.15c1.14-1,2.93.16,3.59-2.59-.91.49-1.57,1-1.57-2.3l1.17.1c.46-2.23-.78-3-.12-3.62.7.58.72-1.19,1.42-.61a32.29,32.29,0,0,1-.23,7.2c2.13-.54,4.3-.91,6.36-1.65-.77-1.3-1.49-.06-1.86-.15s-.36-1.29-.65-1.5c0,0-.74,1.55-.7,0,.25-.72.5-1.42.76-2.1.9-.7.61,1.84,1.36,1.55.27-1.59,2.18-3.18,1.86.15-.42.13-1.14-.82-1,1.36.75.23,1-1.19,1.89-.56.27-1.33-.62-2.46.09-2.88.31,0,.18,1.28.42,1.47.3-4.27,1.75-4.52,3-5.53C42.13,107.44,41.14,104.39,40.39,106.1ZM21.45,121.15c-.42.17-.46-.72-.21-.74.13-1.88-.89-.64-.61-2.93C21.28,117.66,21.59,118.8,21.45,121.15Zm3.14-3.35c-.77,1-.45-4.36-.09-4.34C25.38,112.87,24.8,117.29,24.59,117.8Zm.77-2.1.09-2.88c.5-.27.6.54.91.79C26.12,114.65,25.94,115.86,25.36,115.7Zm.95-7.86c.44.34,1,.34.86,2.23C26.56,110.23,26,110.22,26.31,107.84Zm1.91,5.92c-.49.44-.76,1.9-1.65.59.63-1.9,1.33,0,1.75-3.46.1,1.26,1.1,0,1.12,1.53C29.7,114.7,28.56,113.47,28.22,113.76ZM33,112c-.37,0,.34,5.15-.84,4.26.4-3.86.13-3.85-.52-5.82.88-2.65,1.6.8,2.52,1.65.38-.28.27-2.24,1-1.36C35.07,114.29,33.25,113.81,33,112Zm2.86-1.93c.88,1,1.22-.28,1.84.87C37.47,113.37,35.72,112.35,35.82,110.06Z"/><path class="cls-1" d="M22.15,83.24c-1,.59-2.09-2.7-2.59.51C20.27,83.52,22.55,84.69,22.15,83.24Z"/><path class="cls-1" d="M40,71.71c-1.39.08-2.36-1-3.45-1.72,0,1.91-1.29-.78-1,2.08.43.15.53-.72.95-.64C37.19,71.53,40.36,73.75,40,71.71Z"/><path class="cls-1" d="M32.69,67.51l-.09,2.88a2.12,2.12,0,0,1,2.08.89c.39-2.35,1.09-3.64,2-4.17C38,69,39.25,68.27,41,69.63c.18-2,1-2,1.49-2.77.13-1.22-.29-1.87.07-2.15.9,1-.11,1.48-.12,3.59.84-1.45,1.07-.77,1.89-.56.34.08.91-.71,1.19-.63a15.52,15.52,0,0,0,.65,1.5s.24-.83.49-.68c.53.3,1.38.07,2.1.17.52.07,1.61,2.76,1.89-.57-.16-1.94-1-1.23-1.57-2.29-.39-.76-.31-1.81-.86-2.24-1.51-1.2-3.59.75-4.62-1.82a13.28,13.28,0,0,1-2,3.45c-.18-3,1-1.21,1.26-2.78a4,4,0,0,1-.65-1.5c-1.43,2.37-2.88-.35-4.43-.36-.1,0-.33.84-.72.66-1-.45-1.82-2.09-2.73-2.38s-2,.57-3.06.47c-.65-.07-1.3-1.84-1.82-1.59-.31.15-.45,1.38-.74,1.38-.09,0,.08-1.75-.42-1.48-.3.17-.26,1.1-.51,1.4,0-1.1,0-1.42-.42-1.47-1.46-.21-4.19.4-5,2.47.35.16.87-.18.91.8-.59.31-1,1.29-1.46,2,.53.39,2.55-.06,2.26,2.36.44-.59.7-1.81,1.23-2.07A10.65,10.65,0,0,0,25.56,64c-.31,1-.92,1-1.24,2.06.58-.39,1.67,1.05,1.89-.56-.24-.2-.52-1.24-.19-1.46.92-1-.05,3.22.87,2.23.33.46,1.06-.29,1.65-.59.07.92.26,1.5.66,1.51a6.93,6.93,0,0,1,1-2.81s0,1.4,0,1.43c.31-.24,1.92-2.83,2.58-.5-.27,1.18-1.09.42-1.23,2.06,0-1.6-1.5-1.69-1.66.59.9-.28,1.49.32,1.82,1.59C31.68,67.69,32.09,67.25,32.69,67.51Zm8.06-3.68c.37.76.16,3.08.33,4.36-.73-.13-1.45,1.81-1.35-1.55a2.51,2.51,0,0,1,.42,1.47C41,67,40.2,65.42,40.75,63.83Zm-1.58-1.57c.81-.47.2,2.95,1.1,2.26-.09.9-.49.68-.47,0-.56.18-.51,2.46-1.24,2.06C38.52,64.26,39.33,65,39.17,62.26Zm-1,2.08c-.15,1.73.37,1.6.12,3.62C37.8,67.1,37,67,37,65,37.62,65.62,37.62,64,38.17,64.34ZM25.65,61.16c0-2.26.67-2.42,1.26-2.78-.07.83,0,1.28.18,1.46C26.84,61.08,26.31,61.37,25.65,61.16Zm10.23,1.56c.38,1.77-1.1-.89-1.86-.15C33.52,61.12,35.62,62.06,35.88,62.72Zm-.09,2.88c-.26,2.41-2.6,6.2-2.63,1.94C34.58,68.81,34.47,64.7,35.79,65.6Z"/><path class="cls-1" d="M294,110.43c.37-3.06-1.81-3.23-1.64-.13C293.05,109.6,293.36,109.63,294,110.43Z"/><path class="cls-1" d="M368.72,89.83c-.14-.06-.27-.13-.21-.74.4.07.62-.5.75-1.38-.76,0-1.29.81-1.49,2.76C368.12,90.37,368.62,90.79,368.72,89.83Z"/><path class="cls-1" d="M148.93,101.5c-.58.07-1.2,3-2.17,2-.18,2.27.62,1.52.89,1.51.53,0,1.15-2.09,1.65-.58.07-.56,0-1.42.28-1.43.35,1.32,1,2.1,1.4.12C150,103.35,149.67,101.41,148.93,101.5Z"/><path class="cls-1" d="M271.73,97.79c-.17,3-1-.54-1.21,1.35.43.34.53,1.59,1.12,1.53C271.72,100.24,272.3,98,271.73,97.79Z"/><path class="cls-1" d="M310.59,110.34a8.58,8.58,0,0,1,.3-2.14c-.75-1.61-1.07,1.65-2.1-.18.27,2.84-.58,1.43-.79,2.83,0-.28.44,2.26-.06,2.16-.26-.63-.6-1-1.15-.82-.26,2.33.73,1.25,1.12,1.54s.69,1.4,1.15.81c.11-1.41-.27-1.45-.4-2.2,1.08.28-.22-2.81.79-2.82C309.36,111.08,310.26,109.92,310.59,110.34Z"/><path class="cls-1" d="M419.52,109.11c-.3,1.82,2.21,2.62,2.57.21C420.93,108.75,420.18,110.07,419.52,109.11Z"/><path class="cls-1" d="M422.53,110.08c1.28-.83,3.09.17,4.24-1.1A3.12,3.12,0,0,0,422.53,110.08Z"/><path class="cls-1" d="M432.39,108.72c.27,1,1.35,1.36,1.42-.61C433.39,108.49,432.47,107.13,432.39,108.72Z"/><path class="cls-1" d="M413.93,108.66c-2-.17-4,2-5.85.24.23,3.45,1.58.8,2.54.93a39.34,39.34,0,0,0,5.83.47c.79,0,2.11,1.23,2.61-1.22C417.16,109.49,415.44,108.78,413.93,108.66Z"/><path class="cls-1" d="M407.15,108.82a5.82,5.82,0,0,0-4.48,1.08c1.82.65,3.34,1.17,4.9.4C407.57,109.42,407.55,108.59,407.15,108.82Z"/><path class="cls-1" d="M434.25,108.87c1,.24,1.57,1.26,2.36-.53C435.88,108.73,434.63,107.26,434.25,108.87Z"/><path class="cls-1" d="M449.28,106.48c-.6,0-1.68-2.72-2.14,1.27a43.84,43.84,0,0,0,6.81-.89c.56-.1,1.1,1.75,1.42-.6A31.76,31.76,0,0,0,449.28,106.48Z"/><path class="cls-1" d="M2.12,73.67c-1,.72-1.72-2.49-2.12.55C.57,74,2.65,75.05,2.12,73.67Z"/><path class="cls-1" d="M9.09,75c-.95.39-2.45-1.14-3,.47C7,75.05,8.49,76.57,9.09,75Z"/><path class="cls-1" d="M293.65,114c-.35.09-.85-.33-1,.64.67.46-.39,1.1-.3,2.14l.7.06C293,114.87,293.6,115.44,293.65,114Z"/><path class="cls-1" d="M198.86,59.4c.51-.16,2.47.75,1.89-.57C199.82,59,199.38,57,198.86,59.4Z"/><path class="cls-1" d="M396.38,109.39c.58,1,1.89.36,2.33.19C398,108.55,397,107.34,396.38,109.39Z"/><path class="cls-1" d="M144.94,101.9c-1.38.86-3-1.39-4.45.35,1.22,1.49,3.26.72,4.87,1.12.17-2.06,1.06-1.62,1.28-3.5C145.93,99.92,145.68,101.44,144.94,101.9Z"/><path class="cls-1" d="M299,115.88c.3.25.41,1.06.9.8.2-.48.65-4,.14-4.32C300.22,115.49,299.28,114.58,299,115.88Z"/><path class="cls-1" d="M294.79,107.61c-.29,2.62.76,1,1.12,1.53.12.2-.09,2.23.42,1.48,0-1,.43-.62.51-1.4C296.35,108.14,295.77,107.32,294.79,107.61Z"/><path class="cls-1" d="M297.08,116.45c.31,1.17,1.29,1.16,1.21-1.34C297.71,115,297.16,114.88,297.08,116.45Z"/><path class="cls-1" d="M294.77,115.54l-1.17-.1C293.31,118.41,294.7,117.74,294.77,115.54Z"/><path class="cls-1" d="M297.3,109.26c.23-2.15.48.73.94.07.18-2.25-.57-2-.59-3.65-.84,1-1.07-.9-1.65.58.19,1.67,1.67-.2,1.82,1.59C297.36,107,296.67,108.89,297.3,109.26Z"/><path class="cls-1" d="M392.88,109.1c.48.69,3,2.34,3.06-.47C395,109,393.49,107.5,392.88,109.1Z"/><path class="cls-1" d="M383.54,109.07c.62-.24,1.29-.27,1.68-1.31C384.67,108.24,383.44,106.32,383.54,109.07Z"/><path class="cls-1" d="M312.36,113.37c.3,1.12,1.2.8,1.21-1.35C313,111.87,312.45,111.8,312.36,113.37Z"/><path class="cls-1" d="M40.86,71.74c-.13.65-.56.91-.42,1.93l1.53,0C42.06,72.49,41.41,72.17,40.86,71.74Z"/><path class="cls-1" d="M117.15,113a40.94,40.94,0,0,1-23.82,1.46c-.69.42-.53,2-2,1.41-1.57-.14-1.59-2.17-3.41-2-.38,5,4.84,3.27,4,8.79,8.3-2.49,16.11-2.14,24.63-3.86a8.12,8.12,0,0,0,1.64-4.8C117.67,113.88,116.94,114,117.15,113Z"/><path class="cls-1" d="M176.43,121.88a2.42,2.42,0,0,0,1.87,2.46C178.4,122.65,177,122.79,176.43,121.88Z"/><path class="cls-1" d="M200.25,6.26a13.88,13.88,0,0,0-.71-2.92C196.07,3.25,194,5,191.8,6.57c-.54-1.93-3.79-1.79-5.35-1.08C187,15.53,196.3,9.85,200.25,6.26Z"/><path class="cls-1" d="M303.25,111.37c-1-.15-1.25.6-1.2,1.77-.75.42-1.78.29-.22.81.43.34.36,2.09,1.12,1.54l.47,0a3.17,3.17,0,0,0-.62-2.37C303.19,112.88,303.3,112.24,303.25,111.37Z"/><path class="cls-1" d="M569.08,94c.73.12.86-.53,1.55-.46-1.46,1.18,1.75,1.47,1.9.53-.45-.09-1.09.06-1.13-.51s.5-.66.4-1.45c-2.16,1.31-5.27.44-8.46,1.29-.38,2.24,1-.65,1.13,1-.62.7-3.07.94-2.66-1-4.94,1.3-9.34-.21-13.11,3.12-1.59-2.91-4.14,1.06-4.66,2.81,6.06-.35,8.72-3.49,13.48-2.63,1.55-3,4.91,2.13,6.51.61-1.11-2.3,3.47-1.38,4.65-2.32.43.73.44,2,1.1,2.44,0-.8,1.07-.25,1.17-1C568.56,96.73,570.5,94.7,569.08,94Z"/><path class="cls-1" d="M573.34,92.15c-.08,1.19-.12,2.34.72,2.43A1.59,1.59,0,0,0,573.34,92.15Z"/><path class="cls-1" d="M577.94,92.24c-.9-.17-.68-1.69-1.89-1.49C575.84,92,577.35,93.52,577.94,92.24Z"/><path class="cls-1" d="M581.35,94.25c1.25-.19,3.31.7,3.48-.9C583.53,94.46,581.56,92.44,581.35,94.25Z"/><path class="cls-1" d="M587.13,93.39a2.8,2.8,0,0,0,2.34-1.88C588.12,91.39,587.79,92.61,587.13,93.39Z"/><path class="cls-1" d="M627.77,113.56c.08,1.79,1.59,1.85,2.24,3A3.35,3.35,0,0,0,627.77,113.56Z"/><path class="cls-1" d="M688.4,55.77c-1.15-2.8-3.32-1.25-5.33-2.05-2.52-1-4.68-4.4-6.8-5.46-.61-.3-1.31.56-1.54.45-1.7-.7-3.05-2.76-5.31-3-5-.54-6.61.3-11.15,1.23-9.19,1.89-18.48,3.31-21.75,13.11-3.43-.16-4.61,6.8-7.47,9-3.89.44-3.12,1.93-6.93,1.31-7.41-11-12.32-25-22.36-32.86-2.42.32-4.75.42-6.1-1.58,11-7.12,32.14,2.41,44.22-5.39-1.26-2.35-3-1-4.58-1.06-8.83-.23-18.56-1-29.15-.59-6.29.27-12.31,4.83-19.26,4-4.06-.5-7.19-2.35-11.85-2.17-.15-.76-1.19-.44-.73-1.95-5.44.82-9.82-8-14.88-3.68.23-1,1.17-.93.42-1.93-3.29-1.29-6.81-2.7-10-.69-7.1-1.66-15.71-4.92-23-2.39-2.5-1.79-5.43-.19-8-1.13-12.36-4.49-25.39.5-37.71,6l-2.69-.05c-3.74,1.32-7.43,4-11.61,5.08-8.6,2.2-18.72,0-27.59-1.52,0-.76.08-1.68-.74-1.47-8.63-2.57-16.75-8-25.92-8.26-2.24-.06-4.38,1.51-6.52-.13-2.37,1.52-5.31,2.29-8.12,3.22-5.22-1.38-13.67-.23-18.11,3.51-3-1.4-5.75.66-8.84.79-17.13.69-39.65-.14-57.16.3-1.63,1.61-2.81.91-4.65,1.84-4.88-2.42-14.19-.52-19.21,1.54-2.79-2.42-7.62-.84-11.85-2.17-3.31-1-6.25-4-8.79-1.63-7.46-1.26-15.44,1.14-23.74-2.41-3.36-1.44-6.74-3.81-10.26-5-4.8.64-9.29-.33-14.2.68-.08.56,0,1.37-.42,1.44-2.84-.94-7.45,3-11.15,1.22-6,3.17-11.43,8.75-21.25,7.32-2.5,3.11-6.79,3.49-11,3.84V33c-.92-.32-2.35.73-2.26-2.35.86-1,1,.47,1.89-.57-.54-3.16.83-1.71.86-5-.11-1.23-.67-1.24-.87-2.23-2.58.47-4.66.83-5.94,3.12-.65,1.17-.3-.69-.93-.08-.86.84-1.72,3.07-2.68,3.39.43.14.77.54.89,1.52,1.5-2.26,3.05.08,4.89.4.46-.85.44-3.53,1.21-1.35-.28,1.42-.5,3.05-1,3.53-.22,0-.45,0-.6.22a14.75,14.75,0,0,0-2.2.58c-4.09-.94-10.8-1.76-13.7-5.6-2.63-.59-5.06-1.43-8.42-1.13-1-.54-1.39-1.78-2.64-2a3.62,3.62,0,0,1-2.34,1.4c-5.58-3.41-14.65-3.36-21.45-1.4-.73-1.86-2.59.39-3.42-1.51-11.4,2.22-23.87,7.63-35.33,1.7-1.78-5.95-4.92-9.11-5.44-15.59-1-1-2.61-1.25-3-3,.21-1.52-.51-1.9-.71-2.92C68.78,1.52,62.23-2,58.39,1.46,56.43,6.12,54.05,10.85,57,16a55.76,55.76,0,0,0,.17,7.41c-.82.07-1.54.52-2.23-.22-.32-.33-.51-1.27-.89-1.51-3.76-2.43-7.88-3-11.77-4.56-.65-.27-1.14-1-1.84-.88-1.64.28-3.67-.85-5.34-1.15-.3-.06-.48.67-.95.64-1.18-.08-2.39-1.47-3.46-1.72-.42-.1-.73.65-.95.64-.55,0-1.09-1.86-1.63-.14-.46,2.23.77,3,.12,3.62-.24-2.5-1.16-.48-1.24,2.07,1-.35,1.16,1.65,1.54,3,.05,2.28-.64,2.9.12,3.62.21-1.66,1.24-.44,1-3.52-.18-1.65-1.21,1.14-1.1-2.25.92.63,1.49-1.3,2.29,1.63-.54.18-.35,2.25-.56,2.84s-.92-.57-.74,1.38c.73,2.31.83-.65,1.21-1.34s.56.44.72-.67c0,.09-.7-1.44-.19-1.45a10.92,10.92,0,0,1,.87,2.23,3.07,3.07,0,0,0-1.47,2c1.29.53,2-1.13,2.65-2.66.6,2,1-1.2,1.89-.57,0,1.37-.31,1.56-.32,2.86,1-.42.53-4.56,1.3-4.23l-.09,2.88c.82-.51.86,1.15,1.61.86.62-1.59.18-3.16.6-4.28a13.83,13.83,0,0,0,.82,3.67c-.54,1.56-1.39-1.86-1.26,2.78-.59-2.36-1.12,0-1.63-.13-.28-.05-.33-2.44-.91-.8-.8,2.2-1.59,1.34-3.33,1.9-.13,2.11.85,2.75-.11,3.6.15-1.73-.38-1.6-.12-3.62-1.72-.72-3.77.15-5.39.28-.36,0-.77-.81-1.14-.81s-.71,1.3-1,1.36c-.43.1-1-.9-1.37-.83-2.34.38-4.74,2.52-7.09,2.31-.06,0-.31-.81-.67-.78-1.63.12-3.21,1.18-4.73,1.78-1,.38-1.94,0-2.85,1.21-.43,1.4,0,.91-.09,2.87-.52-.23-.88.11-1,1.37C7,37.33,7,40.09,7.62,40.21c.07,0,.34-1.15.72-.66.24.32-.17,1.61.42,1.48.37-.08.24-1.79.74-1.38-.16,1,.16,3.74-.34,3.58l-1.87-.16c0,1.37-.31,1.58-.32,2.86,2.83.51,3.22,0,6.06.5.65-2.38,1.28-.67,1.89-.57.29,0,.49-.62.95-.65s.49.81.91.8c1.71,0,3.55-.89,5.41-1,1.48-.09,2.9.74,4.42.36.72-.18,1.38-1.14,2.15-1.27,2.51-.42,6,.63,7.92.65.44,0,1-.66,1.42-.61,1.85.2,3.64,1.54,5.34,1.16a10,10,0,0,1,3,.24c.25-.71.51-1.41.77-2.1a16.25,16.25,0,0,1,.17,2.18,8.35,8.35,0,0,1,2.08.07,20.16,20.16,0,0,0-.59,7.83c2.24,2.89,3.32,7.28,6.71,9.81-.74.91-.07,1.22,0,2.42,1.61.41,4.06-.2,4.18,2-4.05-.68-4.66,3.14-7.75,3.71l-.28.41c-.25,0-.49.12-.72.71a.68.68,0,0,1,.28,0A11.06,11.06,0,0,0,50.58,74l-.33,0c0-.4-.16-.84-.23,0a2.24,2.24,0,0,1,.2,1,22.87,22.87,0,0,0-.62,2.37c-.13.16-.27.23-.4.15-.1-2.22.47-2.09.37-4.3-1,.47-.45,2-1.07,4.24.56.28.34,1.86.69,2.18-.19,1.15-.35,2.28-.56,3.35-1-.06-1.71-3.08-2.64,0,.85.58,1.57,2.62.35,3.64.95.53,1.32-1,1.86-1.87a9.27,9.27,0,0,1-1.13,2.57c-1-.64-1.14-1.09-2.29-.53-.72,3.22.71,4.23-1.28,6.26.65,2,1.64,1.72,3,2,.91,4.56,4,6.44,7,8.49a5.82,5.82,0,0,1-2.16.81c-.23,3.52,1.54,2.28,1.84.87.81.8,1.57,1,2-.79l.28,0c-.06.29-.11.59-.16.94.85,1,1.28-.74,1.57-.82H57c.09.06.17.33.24,1a2.21,2.21,0,0,0,.2-.9,3,3,0,0,1,.42.06,1.62,1.62,0,0,0,.1.18c0-.06,0-.11,0-.17.65.11,1.29.23,1.91.38-.08.88,1-.32,1.52.79,0-.14,0-.27,0-.39.55.15,1.09.32,1.62.5l0,0v0c2.25.76,4.37,1.67,6.47,2.46a2.29,2.29,0,0,1,0,.25,5.74,5.74,0,0,0,2.15.49,18.56,18.56,0,0,0,8,1c.18,3,3.29,2.76,5,1.55.68,1.22.19,3.85,1.44,4.38,1.09-1.31-.3-2-.31-3.39,1.43-1,4.72-1.71,5.76-.37,1.61-1.46,4.07-1.62,6.49-2.07,0,.21,0,.43,0,.69.92.32,1.33-1.18,2.35-.53.44.35.36,2.09,1.12,1.54a10.43,10.43,0,0,1,.63-3.12l.25-.16a6.87,6.87,0,0,0,5.68,3.5,8.83,8.83,0,0,1,1.23-3.85c7.38-2.64,11.22,3.24,18.41.37,1.91,1.46,4.89,1.63,8,1.62,7.69,5.9,19.35,6.5,29.11,2.52,2.58,5,7,1.89,10.29,3.11,5.3,1.93,10.52,6.39,16,3.71.63,0,.24-1.34.8-1.43,4,.55,9.29-.79,13.82-.69,3.24.06,6.32,2,9.57,1.16.3-.08.58-.17.86-.26-.14.48-.31.89-.45,1.38-1.19.37-2.92-1.19-3.75.41,1.12.75,3.26-.52,4.63,1.1-.2-2.85.62-2.09,1.24-2.06a2.38,2.38,0,0,0,.14-1.49c.17-.08.32-.17.49-.26a3.59,3.59,0,0,0,.3,1.83l1.63.13c.31,0,.25-1.25.51-1.4.55,1.34,1.15,2.57,2.27,2.34,0,.48,0,1-.05,1.45.82.22.57-3.34,1.49-2.77.16,1.74.89,1.94,1.31,3-.59.87-1.5.45-2.36.54s-2.15-1.41-2.37,1.24c2.53-.79,6.1,1.72,8.88,0-.37-4,.94-2,1.28-3.5-.94-1.22.5-1.63-.1-4.34.7.6.51-1.93,1.21-1.34a24.1,24.1,0,0,1,1.43,6.61c1.57-.56,3.09,2.48,4.43.36-.23.47-.73-.73-.68-.77.37-.36,2,1.25,2.17-2,.26,1.26.39,2.87,1.07,3,.26-1,.82-.87,1-2.09,0,.72,0,1.45-.07,2.16.83.51.76-2.14,1.47-2-.61,3.69,1.45,1.74,1.59,1.57-.26-.17-.34-.83-.43-1.47,1.22.85.11-1.51.77-2.11,0,3.61.73-.18,1.17.1.29,2.25.92,3.61,2.24,3.06-.21-2.86.69-1.81,1-2.79a10.78,10.78,0,0,1-.32,2.85l1.63.14c.17-1.26-.15-4.26.37-4.3.5-1.16.29.09.93.08.21,1.9-.82,3,.14,2.89,1.33.24.06-2.43.56-2.84l.7,0c0,2-.44,1.42-.09,2.88l1.63.13c.06-1.12.05-2.49.53-2.11.78.35-.71,2.74.4,2.19,0-.27.53-4.85,1.23-2.06-.39-.07-.61.5-.74,1.38,1.78-.33,2.38,0,4.2.35.6-.81-.4-2.76.34-3.58.86.63-.06,2.51.35,3.63,2.08-.08,4-.9,5.37.44.05-.88.12-1.7.51-1.4.8.94,1.54,1.42,2.31.91.4-.27.53-1.26,1-1.37s1,1.3,1.61.86c.28-.22.49-1.43.75-1.38a5.5,5.5,0,0,0,.65,1.49c.59.44,1.24-.2,1.87.15.3,0,.25-1.25.51-1.4.51,2.4,1,.14,1.86.16.43,0,.51.6.91.78.66.31,1.29-.76,1.89-.56.43.14.74,1.34,1.12,1.53,2.36,1.23,5.07.74,7.39,2.77-.18-2,.54-.8.74-1.38.47-1.32.51-4.51,1.33-4.94-1.24-.36-.06-4.33-.52-5.82.52.25.88-.1,1-1.36-.61-.49-.68-2.45-.57-4.91,1.18.15,2.35.25,3.52.33.23.63.44,1.28.89,1.28a10.28,10.28,0,0,0,.23-1.2c1.73.08,3.46.08,5.19,0,.28,1.47.62,2.78,1.55,2.46.27-.33.19-1.86.36-2.52H303c-.09,1.91.59,1.72.6,3.34-.28-.25-1.44,0-.72.66l2.33.19c.34-.41.12-2.77.56-2.84.71.86.6.39,1.19-.62,0,1.13-.11,2.49.4,2.2.15-1.66.26-2.5.37-3.23l.65,0c-.26,1.37-.34,3.39-.82,4,.82-.13,1.11-2.13,1.41-4.06l.84-.06a10.19,10.19,0,0,0-.31,2.11c.52,1.86.94-.75,1.65-.58.06,2.24,1,2,1,4.41-.51-1.1-.38-1.56-1.14-.82-.28,2.74,1.1.94.82,3.68l-1.17-.1c.31-2.38-.25-2.38-.86-2.23,0,2.6,1.08,2.29,1.52,3.74.06-.85.39-.76.72-.67-.1-3.54.84-3.43,1.32-4.95.06,2.07.61,6.19,1.52,3.74-.81.47-.82-2.83-.14-2.9.32.88.27,2.75.58,3.65.24-1.57.88-1.73,1.26-2.78,0-3-1-3.4-1.22-5.87.5-1.36,1.45-.64,1.1,2.25.55.35.55-1.27,1.19-.62a10.38,10.38,0,0,1-.33,2.86c.42.72.85-2.09.94.08-.76-.56-.43,1.45-.3,2.13-.37,0-.81-.16-.75,1.38,1.1,1.1,1.74-1,2.14-1.26.85-.56,1.23.5,1.45-1.33-.21,3,2,2.88,2.52,1.65-.27-.14-.67.07-.68-.77.58-1.41.93.57,1.38.83,2.12,1.23,4.76-.6,7.27-.85.35,0,.81.8,1.14.81,1.36,0,3.09-.53,3.33-1.89,1.19,2.42,3.07-.3,3.75-.42.47-.07.89.78,1.38.83s.54-.76,1-.64.29.85.68.78c.09,0,.54-1.35.74-1.38s1,.53,1.38.83.67,1.38,1.12,1.54,1.2-1,1.89-.57c.29.2.3.78.67.78.59,0,1.32-1.47,1.91-1.29,1.24.36,3.05-.25,4.46-.36.51,0,.92.8,1.37.83s1.5-1.37,1.68-1.3c.56.21.84.34,1.42-.61-.31,1.46.26,3.46.42,1.48-.18-.18-.25-.63-.19-1.46.44.19.54-.77,1-.65a14.88,14.88,0,0,0-.3,2.14c.46.49.48-1.23.74-1.37.86-.48,3.36.32,4,.32s1.31-1.23,1.91-1.29c.28,0,.55.85.68.77.41-.23.87-2,1.23-2.06a4.23,4.23,0,0,0,.66,1.49c1.14.76,1.59-1.22,2.14-1.26.26,0,.64.65,1.14.81s1.24-.6,1.66-.58.29.81.67.77c2-.21,7.52.51,6.76.56,1.31-.08,1.72-1.43.54-2.13,1.26-1.35,2.68.07,4.22-.37.71-.21,1.24-1.18,1.91-1.29,4.37-.78,10.73,0,13.3.36a8.89,8.89,0,0,1,.54-2.12,2.56,2.56,0,0,1,3,1.68c.07-.84,0-2,.3-2.14.52,1.82,1-.44,1.87.16.62-.17.09,2.8.86,2.23.06-.87.13-1.7.52-1.4.46,0,.23,2,.88,1.51.33-2.64,1-.63,1.42-.6,1.53.11,4.44-.26,5.83.48.69.36,1.32-.51,2.12-.55.3,0,.29.82.68.77.68-.08,1.26-1.28,1.88-.57.47,0,.24,2,.89,1.52a13.91,13.91,0,0,1,2.21-3.43c-.37-.26-.44-1-.39-1.76a7.46,7.46,0,0,0,5.48-4.2,4.58,4.58,0,0,1-.52,2c.43.13.76.53.88,1.51-.86-.38-.89,2.18-1.49,2.77-.41,0-1.29-2-1.63-.14.69,3,2.2-.06,3.08-1.19l-.09,2.88c1.13,0,1.84,1.1,2.75,1.67a14.59,14.59,0,0,1,1.7-2c3.77,1.85,7.65,1,11-2,.34.4.56,1.12.89,1.52.89-1.72,2.31-2,3.31-1.17.56-.71.9-2.18,1.7-2,0,1-1,2.1-.32,2.86.19-1.73.93-1.52,1.46-2l-.06,2.15c1.2-.54,2.9-2.37,3.72.31a8.89,8.89,0,0,1,.54-2.12c1.06.64,3-1.15,4.68-.34,0,0,.35,1.37.42,1.48.63.82,1.37-.42,1.61.85,0,1-.43.62-.51,1.4,1,1,1.17-1.22,1.7-2q-.13,2.35.63,2.22c.54.33.72-1.31,1.21-1.35s.94,1.58,1.36,1.56c.61,0,.54-1.34,1.21-1.35,0,.57.17.85.44.76-.06.85-.47,1.6-.07,2.15,2.58-3.19,6.87.27,10.3-.59,1.27-.33,3,.27,4.43.35.24-1.67,2.43-2,1.17.1,1.35-1.75,2.55.89,4.19.34.14-1.9.69-2.38,1.26-2.78a9.15,9.15,0,0,0,.19,1.45c-.05,1.19-.66.35-.75,1.39,1.09.88,1.44-.8,1.93-2,.42,4.13,3.24,1.65,4.83,2.56.28.25,1.44,0,.72-.67-.41-.19-1.19.64-.88-1.51,1.29,1.22,1.23-.59,2.37-1.25.24-2.18-.15-2.64-.09-4.33.33-.15.43-1.16.74-1.39l7.22.59c.34-3.52-1.11-1.13-1.09-2.25.33-2.87.94.17,1.89-.57,0,1-.07,1.92-.1,2.88l.94.07c.49-.17-.29-2,.53-2.12a4.76,4.76,0,0,1,.84,3,20.86,20.86,0,0,1,2.54.93c.24-2.19-.15-2.64-.09-4.34l.93.08c.68-2-.89-6,.67-6.44-.09-3.47-.86-5.1-.64-9.43l1.87.15c.73,3.68,3,3.26,4,6.1.06-.84,0-2,.3-2.14.73.41.87-1.23,1.66-.59.35-2.16.57-2.9,1-3.52.21-.27.29.88.45.76.36-.29.07-2.47.34-3.58.06-.23.4.23.47,0,.32-.89.23-2.41.56-2.84-.29-.1-.55-.26-.43-1.48.64-1.27.2-1.78.82-3.54-.35-.15-.87.19-.91-.8.3,0,.35-.89.72-.66,0-2.26-.85-3.74-.77-5.91a19.92,19.92,0,0,1,6.24,1.26c5.9-3,15.24,1.57,20.8-3.93,1-.13.26,1.88,1.5,1.48,3.36-2.32,7.09-1.2,9.32-5.14a2.09,2.09,0,0,1,1.9.53c10.31-4.63,21.13-11.7,34.34-9.47C601.78,53,605.55,58.36,610,62.89c3.62,6,6.8,12.54,13.12,15.26C630,75.29,635,67.44,638.78,62c2.57-.72,3.64-3.91,4.34-5.72a75.51,75.51,0,0,1,17-5c12.25-1.87,19.37,11.69,31.25,10.31.5.49.73,1.32,1.51,1.48.77-3,4.66,2.39,5.41-2.31A11.2,11.2,0,0,0,688.4,55.77ZM170.59,29.68c-.17-.63-.62-.48-.65-1.49-.68.37-2.5-.72-.91-.8C169.77,27.55,170.83,26.83,170.59,29.68ZM30.88,21.19c-.3-.48-.62-.22-.91-.8a7,7,0,0,0-.44-.75c-.05-.27.12-1.25,0-1.44-.25-.68-1.3-.44-.85-2.95.7.72.84,2.95,1.27,4.42C30.4,19.87,31.19,19,30.88,21.19Zm2-3.45-1.16-.09C31.41,15.41,33.29,15.56,32.86,17.74ZM31.33,22c.07-1.36.78-.44.76-2.11.35,2.44,1.46-.63,1.55,3C32.63,21.73,32.18,23,31.33,22Zm2-3.45c0-3.19,1-.49,1.19-.62.51-.27.66-2.32,1.21-1.35C35.67,19.37,33.71,19.63,33.3,18.5ZM13.31,45c-.86.53-1.08-1.72-1.63-.14-.35-.4,0-.75.25-.7-.08-.65-.16-1.3-.42-1.47.19-1.21.55-.41.44.76C12.52,43,13.48,41.92,13.31,45Zm2.21-3.43c-.62.17-.56-1.55-.61-2.93.46,0,.36-1.94,1-1.37A8.42,8.42,0,0,1,15.52,41.58ZM38.13,21.06c0-2.26.68-2.42,1.26-2.79C39.35,20.54,38.71,20.7,38.13,21.06Zm3.81,5.36c.08-1.83.42-2.77,1-2.8.08.65.16,1.3.42,1.47C43.12,26.33,42.6,26.62,41.94,26.42Zm.69-7.16.93.07C43.66,22.12,42.36,22,42.63,19.26Zm516.69,6.81c1,.06.79-.79,1.54,0C561.12,28,559,27.93,559.32,26.07Zm-63.5,12.79c.39.67.53,2,1.35,1.55,0,.26,0,.49,0,.71l-.93,0v0C496.09,40.31,495.7,40.27,495.82,38.86Zm6,1.93c.26,0,.38.32.53.57l-.46,0A3.57,3.57,0,0,0,501.83,40.79Zm-7.2.25a.39.39,0,0,1,.19-.1V41ZM440,90.34c-.67-.73-1.65-.63-2.56-.69,0,.11,0,.2,0,.3l-.9-.17a1.58,1.58,0,0,0-1.63-.31,37.36,37.36,0,0,1-8.36-2.7,4.81,4.81,0,0,1-2.43-.33c.06-.47.16-.85.39-.73,2.82-.08,5.72,1,7.92.64.41-.42.46-2.14.79-2.82a13.94,13.94,0,0,0,.59,3.66c.84.83.53-2.39,1-2.81.47,1.14.67,3,1.54,3,.42-1,1.42-4.54,1.68-1.3-.35.09-.85-.33-1,.64.55,0,.65,1.3,1.38.84.06-1.13.05-2.5.54-2.12.22-1.6-1-2.38-.13-3.62a4.46,4.46,0,0,1,.64,2.21,6.36,6.36,0,0,0-.56,2.84c.49,1.75,1.15,0,1.86.15-.43,1,.16,2.66-.36,3.36ZM227.4,102.84c-1.19,1.08-.66-2.56-1.56-2.29.25-1.24.78-1.53,1.44-1.33C226.66,100.87,227.59,100.59,227.4,102.84Zm-29.48-6c-.49.1-1.09-1.79-1.19.62.41.2,1.19-.62.88,1.52-.8,0-1.05-1.49-1.56-2.29-.28-.25-1.44,0-.72.66.27.14.66-.07.67.78-.88-1.23-.17,3.1-.78,2.82,0-2.49-2-2-1.27-4.43a1.83,1.83,0,0,0-1.78-.81c.31-.18.62-.37.91-.57a62,62,0,0,0,6.67,1.17C199.07,96.45,198.42,96.73,197.92,96.83Zm-1.07,11.46c-.27-4.32,1.37-1.9,1.49-2.77C198.84,106.82,197.63,108.84,196.85,108.29ZM178.6,109l-.06,2.15c-.71-.87-.63.16-1.15-.81C177.76,108.08,177.89,110,178.6,109ZM127.22,89c-3.52-.2-7-.46-9.75-2.11a1.49,1.49,0,0,0,1.33-.79c0,1,.49.86.66,1.5.26-1.34.94-.54,1.42-.6s1.17-.77,1.42-.62.16,1.46.42,1.49c1.58.14,3.32-.67,5.17-1,.16-1-.15-3.74.35-3.58.35.58.28,2.31.86,2.24.27-1.33-.62-2.47.09-2.88,0,.88,0,1.71.43,1.48,1.21-1.51,2,.08,3,.24.07,0,.18-.8.49-.68s.33.84.44.76.23-2.6.74-1.38c.37.09.13,1.85.66,1.49.84.84.45-2.67,1.23-2.06.18,2.58,1.39,2.33,2,3.77-2-.45-5-.3-7-.57-.39-.06-.82-2.65-.95.64,2.37,1.81,7.11.69,9.76,1.52.19-3.37-1.24-2.29-1-5.85-.62,0-1.32-.38-1.65.58a13,13,0,0,1-.12-3.61c.92.57,1.35-.58,2.12-.55a4.54,4.54,0,0,1,.26-1.88l.23,0a3.34,3.34,0,0,1,0,.51c.21,2.35-.77.48-.56,2.84.88,1.28.68,1.26,1.63.13a7,7,0,0,1,.82,3.67c-.37.05-.8-.16-.74,1.39.57-.25.46,1.35,1.14.81,0-2.38.68-3.63,2-3.45a4.61,4.61,0,0,1,1.07-4.24c.92-.12.61,3.14,1.54,3,1.12,1,1.2-1.65,2.14-1.27a5.78,5.78,0,0,0,.56,4.37c0-1.19.66-.35.75-1.38-.39.19-.6-1-.19-1.46.59,1.89.6,1.27.12,3.62,1,1.43.41-2.83,1.23-2.07.34.17.16,1.76.15,2.9.71-.16,1.78,1,1.91-1.29-.43.06-.53-.76-.4-2.19.12,1.43,1.3-.07,1.35,1.55-.73.38-.7,3.4-1.3,4.22,2.1,1.3,3.82.4,6.74,1.27.71-1.77,1.25-4.12,2.67-3.39-.16,1,.16,3.74-.34,3.58-.69.15-.78-3-1.17-.09l.07.18c-6.59-.05-12.1-1.78-18.17,2C137.65,91.65,133.38,89.32,127.22,89Zm85.16-33.27c-.55,1.8-1.9.79-2.71,1.7,0-3,1.33-1.7,2.08-2Zm-3.45-1.4c-.07,1.08.28,1.08.28,3.07-1,.93-2.33.36-3.75.41-1,0-2.18-1.2-2.61,1.23,1-.2,3.6-.12,4.87,1.12.43-2.57,1.38-.6,1.65-.59,3,.1,6.36.64,8.67-.73-.08-.38-1.1-1.16-.42-1.48.82-.06.69,2.49,1.31,3,.55-1.46-.16-1.58-.16-3.31l.51,0c.42.77.8,1.38.35,3.39.69-.06,1.58,2.23,1.89-.57-.68.09-1.18-.28-1.36-1.55a3.41,3.41,0,0,1,.66-1.46,5.45,5.45,0,0,0,.76-.3c.33.18.56.94.43,2.63.72.69.54-1.83,1-2.09.71,2.6-.62,2.54-1,3.53a2.11,2.11,0,0,0,1.66,1.63c-9-.13-17.69-.33-26-3.17,0-.13-.52-.27-1.13-.4a41.94,41.94,0,0,1-6.79-3.23c0-.14,0-.29,0-.43,5.52.13,12.29.87,17.23,1.48.44-2.52-.78-.49-.63-2.21.93-.41,1.68,3.82,2.33.19l-.31-.37Zm-1.6,42.59c1.09,0,2.19.06,3.29.06a2.68,2.68,0,0,1-.35.9C209.44,98.26,208.41,97.3,207.33,96.88Zm2.44,16.79c-.26,1.24-.78,1.53-1.45,1.32C208.46,111.56,208.88,114.08,209.77,113.67Zm-43.32-27a.73.73,0,0,0-.22-.4c.19-.49.36-.69.52-.69A5.91,5.91,0,0,0,166.45,86.71Zm-4.21-7.21c-.08,1.59-1,.22-1.42.6C160.89,78.13,162,78.48,162.24,79.5Zm-6.08,7.44c-.09,1.78-.79.15-.93-.08,0-3.56,1-4,1.72-2.74-.23,1-.27,2.77-1,2.08C155.89,86.81,156,86.89,156.16,86.94Zm2.57.21c.46-.09,1.6-3.29,1.4.11-.75,1.39-2.22.23-3.29.46C157.18,85.05,158.16,87.26,158.73,87.15Zm-3.73-.3c-.1,1-.6.54-1,.64,0-.72.05-1.44.07-2.16C154.87,84.56,154.64,86.51,155,86.85Zm-4.13-9.72c-.42,1.3-1.75-.43-2.31-.91a2.06,2.06,0,0,1,.17-.39c.4,0,.8,0,1.2,0C150.3,76.26,150.64,76.87,150.87,77.13ZM142.8,80.8c-.33.9-.88.86-1.16-.1.23-1,.42-2.25,1-2.08A8.78,8.78,0,0,1,142.8,80.8Zm-10-1.53c.79-.89,1.78,1.4,2.77.94.38-.17-.24-2.18,1-1.36l-.09,2.88c-1.62.1-2.38-1.55-3.52.44C133,81,133.15,79.43,132.81,79.27Zm-.7-.06c-.71,1.56-2.28,3.37-2.31-.91C130.58,78.56,131.71,77.9,132.11,79.21Zm-4.67-.38c.28.61.88-.41.66,1.5-.52-.49-1-.3-1.42-.53a2.27,2.27,0,0,1,.36-1l.36-.08S127.43,78.79,127.44,78.83Zm-5.73,3.86c0,1.74-.47,1.53-.34,3.58-.71-2.81-1.53-1.31-2.73-2.39.09-.28.18-.64.29-1a1.54,1.54,0,0,0,.35.15l.16,0a5.26,5.26,0,0,0-.1.92c.37-.08.64-.51.92-.89a3.87,3.87,0,0,0,1.31-.46Zm-3.58,2.59-.94-.07a23.3,23.3,0,0,1,.48-3.4l.4.41c-.1.08-.22.07-.32.15C117.71,83.8,118.36,83.34,118.13,85.28ZM80.88,65.78a4.46,4.46,0,0,1-.36,2.15,1.49,1.49,0,0,0-.8,1.16,5,5,0,0,1-1,.74c.27-.28.51-.56.64-.69L77.05,69a2.12,2.12,0,0,0,.32,1.43,6.68,6.68,0,0,1-.93.19c0-.07.07-.14.1-.22-.86-1-1.37-2.34-2.31-.92a1.94,1.94,0,0,1,.35,1c-1.19-.57-3.07-2.79-1.76-4.36C74.3,64.33,78.58,67.73,80.88,65.78Zm19.64-3.48c-3.67-.62-4.64-2.14-8.77-2.59a3.8,3.8,0,0,1,.43-2.42C94.25,59.58,99.07,58.45,100.52,62.3Zm34.61-6.89.42.06c-.29,2-2.15.82-3.07.7C133.3,54.94,133.86,55.72,135.13,55.41Zm-15.75,3.88c4.3-.23,8.51-4.12,11.94-2.66-3.88,2.84-9.92,2.84-13.17,6.51-3.75-1.08-8.22-3.51-11.09-1.68-.27-2.19-2-2.55-1.82-5.35C109.55,57.68,114.38,59.57,119.38,59.29Zm-8,7.33a11.87,11.87,0,0,1,.11,2.11,3.06,3.06,0,0,1-1.2.23,3.64,3.64,0,0,1-.19-1.65c.51.41.84.13,1-.81A1.66,1.66,0,0,1,111.33,66.62ZM115.51,80h0a7.09,7.09,0,0,0,.63.77c-.13,2.28-1.53.32-2.09-.17a2.13,2.13,0,0,1,.06-.39C114.61,80.12,115.13,79.88,115.51,80Zm-6.39-12.78c-.34,2.82-.71-.24-1.4-.12a.2.2,0,0,0,0,.07V66.8l.78-.19C108.65,67,108.81,67.3,109.12,67.24Zm-2.59,1a1.86,1.86,0,0,1-.38.06,4.38,4.38,0,0,0,.28-.42A1.89,1.89,0,0,1,106.53,68.23ZM105.09,68l-.09,0a11.23,11.23,0,0,1,.15-1.53c.16.16.34.3.52.45C105.41,67.3,105.2,67.82,105.09,68Zm-.42-2.21a2.49,2.49,0,0,0,.25.38c-.25.28-.55,1.21-.7.69a1.37,1.37,0,0,1,0-.3A.91.91,0,0,0,104.67,65.77ZM104,67.68h-.13c0-.07,0-.12,0-.18Zm9.66,14.53a4.49,4.49,0,0,1,.18-1.6c-.25,2.88,1.13,1.31,1.31,3,.72.07,1.49-3.76,2.15-1.27-.73-.69-.55,1.83-1,2.09a2,2,0,0,1-1.09.43A10.19,10.19,0,0,1,113.65,82.21Zm9.36-.46a6,6,0,0,1,1-.41c.16.33.39.46.78.16a.34.34,0,0,0,.15-.33,4.58,4.58,0,0,1,.9,0h.06a10.84,10.84,0,0,0-.25,2.55c.4.19.65-1.17.7.06.54-.36-.24-1.15.31-2.14.46,0,.23,2,.88,1.52.13,2.3-.44,2.19-.58,3.55-1,.75-.86-1.58-1.59-1.57-.38-.29-.45.53-.51,1.41-.92-.74-1.07-1.65-2.07-.9A22.57,22.57,0,0,1,123,81.75Zm11-3.83c-.23,0-.33-.23-.4-.49l1.29-.24C134.69,78.21,134.16,77.94,134,77.92Zm76.88,19h.79c-.32.4-.66,1-1,.94C210.71,97.87,210.86,97.36,210.9,96.94Zm3.37,0c-.05.82,0,1.88-.29,2-.57.14-.79-1.23-1.26-1.92Zm9.39-38.36c1.53,1.73,2-1.64,3.35-2.61-.55,4.14,1.74.51,1.27,4.43-.76-1.3-1.62,1.08-2.31-.91.28-.09.66.18.72-.66-.24,0-.25-.7-.44-.76-.54-.17-.27.93-.52,1.4-.39.74-1,.59-.53,2.12.14,2.15.4-1.64,1-.64,1.15,1.23,2.74,2.12,3.51-.44-.32-.42-1.23.75-1.14-.81.06-.84,0-2,.3-2.14-.21,2.57.62,2.24,1.33,2.27a14.88,14.88,0,0,0-.3,2.14,9.14,9.14,0,0,1,3.26.27c1,.22,1.1-.12,1.87.15.6.21,1.4-.7,1.65-.59,0,0,.13.35.26.7l-.19.18c-4.11-.3-8.2-.37-12.23-.43h0C224.74,59.51,223.26,61.61,223.66,58.53Zm9.16-1.42a6.79,6.79,0,0,1,.37,2.92c-.3.8-.85.75-1.42.61C232.08,59.34,233,60.24,232.82,57.11Zm-1.49,2.77c-.3,2.18-.78-.39-.91-.8.3-1.58,1.94-4.85,1.89-.57C231.93,59.5,230.83,56.58,231.33,59.88ZM201.87,53c0,.54,0,1.07-.05,1.61-.57.25-.47-1.35-1.14-.82a4.87,4.87,0,0,1,.11-.78C201.15,53,201.51,53,201.87,53ZM157.6,100.76a1.51,1.51,0,0,1,.45.51,3.17,3.17,0,0,1-2.47,1c.14-1,.29-2.06.43-3.11-.14-2.11-.32-.84-.91-.79,0-.21,0-.39,0-.56q.5,0,1,0c.26.59.65.81.88,1.46-.06.84-.44.57-.72.66.13,2.12.77-.37,1.17.1.31-1-.39-1.71-.42-1.48a3,3,0,0,1,.19-.71l.56,0h0c.49.22.69,2,1.11,2.76l-.22.18C158.29,100.06,158,99.67,157.6,100.76Zm-17.38-6.37c.38.45.5,1.22,1,1.56a4.15,4.15,0,0,1-.05.59c-.76.55-.69-1.19-1.12-1.54A1.44,1.44,0,0,1,140.22,94.39Zm14.25,3.48a1.35,1.35,0,0,0,.38,1.22c-.35.75-.62,0-.71-1.19Zm-1.23.37c.86-.17.62,2.68.79,4.4A7.39,7.39,0,0,1,153.24,98.24Zm9.62-8.59a13.54,13.54,0,0,0,.11-3.6c.72.41.86-1.23,1.65-.59.07,1.14.72.68.38,2.92.46,0,1,.22,1.32-.07,0,.31,0,.61,0,1a28.57,28.57,0,0,1-3.46.38Zm20.59,7.7h.13c-.13.22-.25.32-.32.07Zm5.11,14.59c.29.6.86-.4.65,1.5-.73-2.33-1.6-.28-2.26-2.35C187.28,108.22,188.05,110.91,188.56,111.94Zm.22-14.41a3.18,3.18,0,0,1-.25-.41L189,97A.49.49,0,0,1,188.78,97.53Zm4.59,2.54c-.91.08-1.44-.88-1.54-3C192.66,97.21,193.89,96.23,193.37,100.07Zm8.59,9.36c-.09,1.83-.83,1.36-1.45,1.32C200.38,108.13,201.46,109.82,202,109.43Zm-1-11.63c.36,0,.78.14.75-1.29l.9.08C202.19,97.89,201.23,101.17,200.92,97.8ZM203,96.63c1,.08,1.93.14,2.91.19a2.65,2.65,0,0,0-1.26,1.28c.51.57,1.86-1.14,1.59,1.58C204.68,100.07,204.49,97.33,203,96.63Zm.88,3.57-1.16-.09C202.58,97.19,204.2,97.33,203.88,100.2Zm10.82-3.32,1.85-.08A3.85,3.85,0,0,1,214.7,96.88ZM332.63,48.65c.67-.08,1.28,0,1.1,2.26C333.06,51,332.45,50.89,332.63,48.65Zm-4,38.63c.5.18-.21,1-.26.7.27,1.89,1.26.24,2.08.89-.33,3.29-2.12.45-2.56-.21-.71-.6-.37,2.45-1.22,1.34C326.54,86.41,328.17,88.92,328.61,87.28Zm-9.71,3.6-.68-.09c.17-.2.39-.26.7,0C318.91,90.84,318.91,90.86,318.9,90.88ZM318,83.53c0,1.88-.18,3.08-.79,2.82C316.81,85.08,317.35,83.53,318,83.53Zm-10.45,1.13a3.51,3.51,0,0,1,.15-.53c.11.38.23.74.36,1.09A6.77,6.77,0,0,1,307.53,84.66Zm-17.88,14.8a2,2,0,0,1,.79.05l-.32.78A7,7,0,0,0,289.65,99.46Zm20.46-4.88c3.26-.93,6.62-.32,9.92.2-.61.28-1.27-.53-1.72.31.21.24,1,2,.4,2.21,0-1.51-1-.28-1.12-1.54-.31,1.82.93,2.6.12,3.61-1,.46-.73-2.37-1.82-1.59-.37,0-.24,1.82-.74,1.39.08-.9.41-1.44-.19-1.46-.72-.4-.81,1.4-1,2.77l-.79,0a2.32,2.32,0,0,1,.14-1.43c-.57.82-1,.23-1.48.1A8.56,8.56,0,0,1,310.11,94.58Zm5.53,5.94c.36-.75.44-2.47,1.16-1.94-.06.83,0,1.29.19,1.46a1.81,1.81,0,0,1-.07.48ZM319.48,91c.14-.51.33-.81.63-.76a5.13,5.13,0,0,1,.09-2.88c.89.17.82,3,1.51,3.73a.24.24,0,0,1,0,.09C321,91.09,320.24,91,319.48,91Zm23.44,1.82c-.38,1.12-1.36.94-1.12-1.53C342.19,90.12,343.17,90.3,342.92,92.77Zm97.62-55.06.25.11a3.4,3.4,0,0,1,.09,1.61,4.24,4.24,0,0,1-.6-1.92A1.51,1.51,0,0,0,440.54,37.71ZM428.48,84.59c-.43-1,1.44-.73,1.91-1.29C430.75,84.11,429.16,84.82,428.48,84.59Zm-1.54-3c-.44.26-.64-.14-.78-.68l.7-.29A6.56,6.56,0,0,1,426.94,81.58Zm-4.27,1.82c-.24-.13-.5-.28-.76-.41a7.45,7.45,0,0,0,1.5-.6C423.5,82.76,422.53,82.3,422.67,83.4Zm-34.61.79c-.53-.22-1-2-1.56-2.3.34-3.07,1.21-.48,1.89-.56,1.3-.17,2.7-1.92,3.54-1.16-.33,2.13-1,2.55-2.19,2.71,0,0-.05.85-.26.7-.05,0,0-.83-.21-.74C388.82,83,388.68,84.42,388.06,84.19Zm29.71-1.47a9.27,9.27,0,0,0,1,.27,3.29,3.29,0,0,0-.58.77c-.14-.54-.48-.52-.61-1.1ZM414.82,81a11.41,11.41,0,0,0,2.63,1.64,1.43,1.43,0,0,1-2,.94c-.22-.69,0-2.66-.63-2.22ZM458,82.17h-.68a13,13,0,0,1,0-1.73l.7.06C458,81.06,458,81.62,458,82.17ZM374.12,48.76a.27.27,0,0,1,.33-.06Zm12,30.94c0,.7-.3.53-.49.68-.13,2.1.46,2.25.33,4.36C384.51,84.5,384.83,79.84,386.1,79.7Zm66.55-40.59A2.59,2.59,0,0,0,451.58,41c1.26.33,1.58-.85,2.57.21a2,2,0,0,0-.87-2.16c4.11-.24,8.31-.17,13.34-.84a38.9,38.9,0,0,0-4.95,4,1.74,1.74,0,0,1-.53-.46c0,.35,0,.75-.06,1.11-.22.26-.43.54-.64.83-1.15-.39-3.14.54-4.75.51-.44,0-.5-.9-.91-.8-.24.06-.4,1-1,1.36-.08,0-.54-.39-.93-.07-1.49,1.21,1-.15.4,2.19-.83.5-1-.75-1.1-2.25-.75.29-.78-1.37-1.61-.85-.31,0-.25,1.24-.51,1.4-.37-.09-.13-1.85-.66-1.5-.71,2.7-1.66-.11-2.84,1.21-.23-1.56-.16-3.94-.79-4.39-.06,1.13-.05,2.5-.54,2.12.1-1.78.16-2.88.24-3.82a4,4,0,0,1,1.56.92A46.1,46.1,0,0,1,452.65,39.11ZM340.14,31.82c7.65-.79,17.61,1.31,25.35-1.43,2.85,1.17,9.27,2.68,11.53-.74,5.83,1.06,11.62-1.81,16.94-3,7.14,1.56,15.07-1.76,23,.95,1.79.61,3.09,2.83,4.92,3.48,1.58.56,3.55,0,5.36.59,2.6.86,5.07,3.31,7.59,4,1.16.33,2.71-.31,3.84.07a2.75,2.75,0,0,1,1.06,1.1c-.07.58-.16,1.15-.43,1-2.28.92-4.56.33-6.9,3.77a9.55,9.55,0,0,0-.4-2.2,23.33,23.33,0,0,1-9.88,2.08c-.25.72-.5,1.42-.76,2.1-.46-2.43-.43,0-1.17-.09-.33-.05-.35-1.36-.65-1.5a2.31,2.31,0,0,1-1,.65c-1.36.12-1.89.39-2.82.49-.35,4-1.8.56-1.88.56s-.25,1.37-.28,1.43c-.36.47-.82-.38-.91-.8-.44-2-1,0-1.63-.13a5.07,5.07,0,0,0-1.64-.14,5.9,5.9,0,0,1-2.56-.21c-.07,0-.19.81-.49.69s-.3-.81-.44-.76c-.89.35-1.64,2.56-2.4,2,0-1.13.11-2.49-.4-2.2-1-.42-.36,1.91-.77,2.11-.26-.65-1.33-2.41-1.61-.86.37.1.82,0,.66,1.5l-.06,0-.43,0c-.33-.41-.31-1.78-.87-1.57-.12,1.13-.35,1.47-.63,1.45h-.05c-.64-.14-1.49-1.9-1.92-.22,0,0,0,0,.06.08h-.15a7.84,7.84,0,0,1-.08-2.24c-.5.39-1.5-1-1.65.58.78-.29.64.71.26,1.57l-1.15,0c.19-.35.57,0,.63-.84-.49.31-.92.63-1.34.85-.5,0-1,0-1.49.07a2.89,2.89,0,0,1-.69-.48c0,.17,0,.36,0,.56a13.94,13.94,0,0,0-1.69.31,3.63,3.63,0,0,0,.09-1c-1.38,2.67-.71-3.54-1.82-1.59-.36,2.3.74.6.38,2.91-.07,0-.12.06-.16.16a10.33,10.33,0,0,0-1.52.77,9.89,9.89,0,0,0,0-1.06c-.62-.51-1.36.22-2.33-.19a7,7,0,0,1-.16,1.3l-.56-.1c-1.14-.43-2.41.15-3.73-.84,0,.25,0,.54,0,.82-1.36.17-2.71.48-4,.75a3.59,3.59,0,0,0-.17-1.19,1.5,1.5,0,0,1-2.56-.21,8.21,8.21,0,0,0-.21,1.91c-.33,0-.65.06-1,.06l-.28-.35c.1-.56.38-1.22-.2-1-.3-.44-.41-.21-.45.24-3.59-4.35-8.33-8.77-14.63-7.38-4.54,1-7.65,6.39-11,9.6a4,4,0,0,0-.8-2.48,19.08,19.08,0,0,0,.3,2.94c-.25.22-.5.42-.75.61-.23-.36-.56-.46-1.06-.07.09-1,.42-1.18.54-2.12-1.23.44-2.34-2.51-2.85,1.21.69.25,1.49-1.9,1.61.86-.32.2-.88-.43-1.11.06a5.25,5.25,0,0,0-1.81.46,1,1,0,0,1-1-.85,3.16,3.16,0,0,0,0,1.23,4.7,4.7,0,0,1-1.41.27c.26-1,.79-1.48,0-1.61-.49,0-.62.72-.66,1.54a9.76,9.76,0,0,1-1-.21,5.86,5.86,0,0,1-.21-1.48c.32.08.89-.09.49-.68-.73-.42-.6,2.16-1.45,1.32.24-3.49-1.27-2.22-2-3a4.21,4.21,0,0,1-1.3,2.33,17,17,0,0,0-1.8-.52c0-2.1,1.09-.37,1.23-2-.79-.38-1.31.18-1.89.57a11.49,11.49,0,0,1,.08,1.27,10.67,10.67,0,0,0-3.26-.18c-.5-.47-.57-2.12-1.22-2.17-.23,1.85.26,1.71.5,2.28a9.44,9.44,0,0,0-1.33.31c.2-1.18.36-2.3.5-3.36l.12,0a4.47,4.47,0,0,0,0-1c.17-1.33.33-2.59.52-3.8,1.07.14,2.49-.64,3.37,0,0-2.65-1.35-1.41-2.29-1.62a3.38,3.38,0,0,0-.78-.06,22.75,22.75,0,0,1,.73-2.78c-.51-1.59-2.26-1.66-2.23-3.92C329.14,33.31,334.81,32.36,340.14,31.82Zm-284.9-5-.93-.08C54.12,24.19,55.72,23.46,55.24,26.78Zm-3.17-3.14c.22,2.35-.77.48-.56,2.84.33,1.3,1.11,1.35,1.06,3.69-1.17.55-.51-3.87-1.78-3C51.14,25.68,51.28,23.52,52.07,23.64Zm4.57,26.65c.48.13.37,1,0,1,.05.57.69.42,1.14.5-.12,1-1.44.43-1.56,1.42a7.67,7.67,0,0,0,2.26,2C56.27,57.08,55,51.88,56.64,50.29Zm83.24,57.79c-1.64-.55-3.3-2.87-4.92-3.48-2.19-.83-4.44-.09-6.08-.7a1.86,1.86,0,0,0,.12-.42c-.3-.49-.75-.44-1.21-.32a3,3,0,0,1-.46-.65,5.52,5.52,0,0,1,1.19-2.7c.26,0,.51-.1.71-.72a6.41,6.41,0,0,1,.68-.48,4.9,4.9,0,0,0-.07.61c.42.42.53-.23.64-.91a9.38,9.38,0,0,1,1.21-.52c.25.64.62,1.1,1,.94a2.77,2.77,0,0,0-.11-1.22c.73-.22,1.48-.41,2.22-.63.48.45.4.55.75-.08a.67.67,0,0,1,.16-.2l.4-.15c.41,0,.83.37,1.13-.49l.21-.12c0,.13,0,.26,0,.39.78-.77,1.36,2.32,1.87.15-.32-.09-.19-1.85.27-1.41.36.21.12,1.59-.06,2.15,1.33.55,2.26,1.45,4.15,1.78.26-2.64-.74-.86-1.12-1.53a5.16,5.16,0,0,1,.25-1.27,4,4,0,0,1,.62.17.08.08,0,0,0,.08,0l.33.14c.17,1.3.31,4.52.77,2.55-.44-2.26,1.53,1.43,1.44-1.24l.59.32a6.58,6.58,0,0,0,1.48.22,8.46,8.46,0,0,1,0,1c-.44.13-.48-.85-.91-.79-.26.93-.31,2.63-.58,3.56.61,1.12,1.55-2.24,2.21-3.43.11,1.26,1.11,0,1.13,1.53.56.57,1.05-3.09,1.42-.6-.61-.25-1,.18-1,2.09,1.09,1.13,1.88-3,2.37-1.26-.13,1.68-1,.62-1.23,2.07.66,2.32.83-1.16,1.65-.59a9.08,9.08,0,0,1-.41,3.54C149.64,109.05,146,110.16,139.88,108.08Zm53.2,6.4c-1.68.39-3.14,2.69-5.05,2.8-3.86.22-6.24-2-10.7-2.15-1.77-3.26-6.22-1.3-6.43-4.48a.93.93,0,0,1,.13-.18,4.5,4.5,0,0,0,.51.08,5.19,5.19,0,0,0,.79,0c.81.53,1.72,1.36,2.41.18l-.38-.24a2,2,0,0,1,.91.38c.06-1.13,0-2.5.54-2.12a11.12,11.12,0,0,0,.14,2.9c2.26-.5,3.54,2,4.68-.35-.1,2.27.52,2.53,1.08,3a14.8,14.8,0,0,0,2.07-6.33,37.14,37.14,0,0,1,2.47,3.09c-.37,1.33-1.79.48-1.21,1.34.18.28.56-.85,1.14.82.55,1.94-.39.53-.32,2.86,1.08-.43,2-.06,2.58-.51-.12,0-.24-.6,0-.72a15.07,15.07,0,0,1,5.2-.42A3.09,3.09,0,0,0,193.08,114.48Zm1.53,0c1.34.12,2.71.31,4.06.48C197.32,115.62,196.07,114.75,194.61,114.47Zm4.87.58a29.8,29.8,0,0,0,4.63.32c-.37-.26,0-1,.49-.68-.27-3.29,1.15-4.73,1.23-2.06a4.58,4.58,0,0,0-1.17,2.9,7.8,7.8,0,0,0-4.35,1.51C199.62,116.88,199.72,115.76,199.48,115.05Zm6.08.43c0-.73,0-1.42.46-1.4a1.54,1.54,0,0,1,.1,1.38Zm16.87,4.27c-.36-.34-.13-2.28-.89-1.52a24.2,24.2,0,0,0,0-2.92c.26-.26.51-.53.76-.82-.15.58-.45.61-.49,1.61A8.94,8.94,0,0,1,222.43,119.75Zm13.65-3.22c-.5-.15-.44-1.85-.35-3.63l.93.07C236.4,113.9,236.35,115.6,236.08,116.53Zm-1.76-9.13a.77.77,0,0,1,.72-.3c.58-.1.71.35.92.71C235.36,107.68,234.84,107.51,234.32,107.4Zm2.5.54a6,6,0,0,1-.65-.09c0-1.4-.32-1.28,0-2.41.62,1.24,1-1.89,1.94-1a3.49,3.49,0,0,1,.33.66l-1.43.12a2.35,2.35,0,0,0,.42.6h-.06A8.89,8.89,0,0,1,236.82,107.94Zm1.68-1.31a1.79,1.79,0,0,0-.16-.31l.34,0C238.66,106.49,238.61,106.6,238.5,106.63Zm4.13,2.5c0-2.06-.82-2-1.14-3.18a4.82,4.82,0,0,1,1.34-.09C242.58,106.78,243.28,108.4,242.63,109.13Zm1-1.36a2.86,2.86,0,0,0,.17-1.54l.11.08a2.16,2.16,0,0,0,.29-.21c.07.32.23,0,.42-.35a7.12,7.12,0,0,1,.66-.55,4.54,4.54,0,0,1,.05.54C245.27,109.72,244.25,105.59,243.6,107.77Zm14.86,10.59c-.07-2.74,1.68-1.22,1.89-.57C259.75,119.75,259.14,116.71,258.46,118.36Zm4.9.4c-.55,0-.65-1.3-1.38-.84C262.09,115.68,263.45,116.66,263.36,118.76Zm10.16-18.65c.52-1.07,2.11-1,2.36-.54C275.09,101.36,274.55,100.35,273.52,100.11Zm-.39-2.21c-.61.92.35,2.21-.33,2.87-.24.06-.37-3.15-.68-.78.46,1.39-1.19,2.16-1.51,3.48-.09-2.34-1.3-.61-.58-3.65-.45-.25-.49.93-.75,1.38-1.44-1.27-2.85,1.42-4.4-1.08-.46,2.23.77,3,.12,3.62-.47-1.12-.43-3.65-1.29-3.71,0,2.94-.32-.15-.95.64.13,2.32-.43,2.22-.79,2.82-.18-2.14-1-2.59-1.52-3.73-.12,2.24-1.2,1.12-1.91,1.29-.46,2.8,1,.33.86,2.23-1.06-1-1.61.58-2-1.61-.74.58-1.22,2.11-2,2.73.13-1.38.92-.5.79-2.82-1.14.64-2-1-2.78-1s-1.67-.49-2.17,2c.93,1,1.84-1.89,2.8.22-.35.65-.9,1.79-1.46,2-.93.43-1.91-1.23-2.57-.21a2.48,2.48,0,0,0-3.68-1.74c-.11,0-.54,1.25-.75,1.38s-1.29-.78-1.44.52c-.91,0-1.83,0-2.77.08a1.62,1.62,0,0,1,0-.22c-.33-.43-.52-.16-.68.25l-.9,0a1.13,1.13,0,0,0-.29-.46c-.3-.16-.63.07-.93-.07.21-2.06-.22-2.57-.38-2.92s-.28-1.32-.46,0c.25.17.33.83.42,1.48-.93-.07-1.67.55-2.17,2a2.64,2.64,0,0,0,.1.27c-1.76.67-2.76.68-4.14,1.66,0-2.38-.52-3.56-.72-6.64-2-1.9-4.55-3.68-6.41-4.13a6.43,6.43,0,0,1-1.47,2c-.49-1.79-2.64-2.21-3.47-1,.11-.16.26.73,0,.72a2.27,2.27,0,0,0-1.1-1.22,111.22,111.22,0,0,0,19.64-3.06,13.86,13.86,0,0,0,10,.69c4.45,6.5,15.66-1.61,19.9,2.33,2.06-4.86,8.37-2.37,10.35.21.84-3.33,3.89-2,5.77-.85,0,.71-1.64,1.5,0,1.45.76.16.78-.64,1.17-.94.33.52.71,1,1.05,1.5a6.08,6.08,0,0,0-1.06.19c-.91.23-2,.18-2.82.49-.19-1.33-.65-1.41-.88-1.52-.77-.36-1.3,1.2-1.91,1.28-.3,0-.3-.81-.68-.77C277.4,97.88,275.37,98.6,273.13,97.9Zm12.2,20.48c-.06.84-.44.57-.72.67.23-2.26.07-3,.35-3.59C286.08,114.8,284.5,117.86,285.33,118.38Zm18.4-12.93a4.17,4.17,0,0,0,0-.5c.63,0,1.25-.06,1.88-.11C305,105.67,304.42,106.41,303.73,105.45Zm3.76-.41c-.15.38-.27.11-.34-.3l.34,0Zm3.38-.59.81-.07c-.1.41-.19.77-.23,1C311,105.66,311,105,310.87,104.45Zm22.6-8.12c.43.36,1.43-.87,1.12,1.53C334,98.28,333.34,99.22,333.47,96.33Zm.58,3.66c.24-1.37,1.08-1.87,1.42-.61C335.23,100.74,334.39,101.24,334.05,100Zm1.41,7.32c.18-1,.54-1.3,1-1.36.07-.61-.07-.68-.21-.74.36-1.57,1,1.72,1.08,3C337,107,336.12,107.45,335.46,107.31Zm19.11,1.56c-.48,1.37-.86.16-1.4-.11C353.08,107.1,354.87,106.27,354.57,108.87Zm2.37-1.25c-.44-.36-.26-5.09.58-3.56C357.78,106.81,356.84,105.39,356.94,107.62Zm.63-5c-.74.28-.55-2-1.1-2.25C357,96.86,358.85,100.83,357.57,102.62Zm5.56-13.25c0,1.33.77.5.89,1.51-.39,3.85-1.3-1.47-1.66.59-.26-.16-.11-.73,0-.72,0-3.69-1.7,1-2.14,1.27s-.78-.08-1.14-.81c.29-2.4.44-.33,1.19-.63.3-2.15-.48-1.32-.89-1.51-.2,2.23-1.59.29-1.51,3.48-.56-.14-.61-2-1.1-2.26-.05,0-1.22,2-.91-.79-.83.31-1.11,2-1.89.57,0,1.93-5.45,2.87-4.15-1.78.81.45.13,1.56,1.15.81.58-.43,1.27-.64,1.67-1.3-.24-2.1-1.08-.55-2.05-1.61.4-3,.77.06,1.4.11.36-.85.44-2.72.81-3.54.4.56,0,1.31-.07,2.16.32,1.81,1.71,1.77,3.2,2.42.43-.61.39-2.89,1.23-2.06a10.81,10.81,0,0,0-.32,2.86c.42-1.92,1.17-1.67,2.14-1.27.61.25,1.2-1.51.68.77.39.3.45-.52.51-1.4,1-.83,1.89,2,2.12-.55.13-1.9-1.33.57-.86-2.23,1,0,1.26,1.41,2.09.17-.11,1.47-.67,1.36-.79,2.82.49-1.21,1.9.8,1.73-2.74.62,1.33,1.61,1.52,2.56.2.78,2,2.48.37,4.17,1.07.32-1.3.94-1.49,1.26-2.78.9-.06.06.58.16,2.17,1.86-.7,3-2.51,4.94-1,.3-.29.51-.88.54-2.12,1.21.34,2.49,1.61,3.91,1.76.84.09,2.86-3.47,2.52,1.65a32.54,32.54,0,0,0-6.34.93c-.57-.17-.76,1-1,2.08a4.48,4.48,0,0,0-4.66-.38c-.31.15-.78.16-1,1.36-.66.47-.43-1.46-.89-1.52-1.17.63-.52,2.86-1.51,3.49.16,1.29.67,2.16.12,3.62-.27-.14-.16-1.33-.17-2.18-.43-.73-1,.81-1.42.61,0,0,.08-1.36,0-1.44-.12-.32-1.44.16-1.63-.14a14.82,14.82,0,0,0-.39-2.2C365,91.38,364.26,89.22,363.13,89.37Zm66.94,4a25,25,0,0,0-.35,3.6,21.9,21.9,0,0,0-6.84-1.23.57.57,0,0,0-.13-.08.36.36,0,0,0-.32.07c-.34,0-.69,0-1,0,0,0,0-.1,0-.16.82-1.57,1.51-2.63,2.36-.53.42-2.69-.6-1.43-.36-3.63.89.24,1,2.22.57,4.37l.46,0,.47,0c-.12-1.67-.72-3.54-.48-5.45a11,11,0,0,1,3.94,2.22c.61.12,1.23.28,1.86.47C430.14,93.18,430.1,93.27,430.07,93.38Zm1.41.13.88.33c.14.36.29.63.48.48C432.46,96.36,431.72,94.09,431.48,93.51Zm4.23,6.1c-.25-.36-.17,1.31-.27,1.42-.27.27-1.41-1.73-1.31-3,.79.64.93-1,1.65-.59-.12,1.44,0,2.26.4,2.2C436.28,102,435.68,100.71,435.71,99.61Zm38,2.37c.74-.28.55,2,1.1,2.26C474.57,105.72,473.53,103.9,473.73,102ZM493,105.72c0-1.73,1.05.48.76-2.1.41-.24.43.59.42,1.47.56,1,.82-2.79,1-.64C495.15,107.37,493.67,105.12,493,105.72ZM504.23,98c-.69-.06-1.42,0-1.33-2.27C503.61,95.73,504.45,95.41,504.23,98Zm5-3.19c0-1,.06-1.92.09-2.88C510.25,91.41,510.12,95.42,509.24,94.78Zm60.93-54.95c-3.65-.85-7.09,2.58-9.66,3.68-2.21,1-5,.84-7.33,1.79-2.84,1.15-4.46,3.13-8.89,3.21-1.75,0-3.41-.14-5.36-.11-4.07.05-8.56-2.84-11.84-2.66-.9,0-1.83,1-2.71.91-1.61-.18-3.48-1.55-5.31-2.21-.85-.57-1.72-1.11-2.62-.29a2.43,2.43,0,0,0-.49.77.62.62,0,0,1-.37.1c-1.14-.22-2.33-1.64-3.41-2a35.55,35.55,0,0,0-7.87-1.51c.18-1,.26-2.31.83-1.9.06-1.69-.33-2.15-.1-4.33-.89,1-1.72.38-2.58.51s-1.35,1.48-2.17,2c-1.27.79-2.71.26-3.52.44s-2.1-.34-3,.47c-.17.14-.48,1.3-.75,1.38s-.92-.85-1.37-.83c-.66,0-1.28,1.37-1.89.56a5.62,5.62,0,0,1-.11,1c-1.29-.07-2.58-.16-3.84-.29-1.85-.18-3.52-1.19-5.35-1.07a18.37,18.37,0,0,0-2.76.79,11.24,11.24,0,0,1,0-2.17c-1.05-.39-1.94-1.26-3.24-1,.24,2.35-.77,1-1,1.36a2.2,2.2,0,0,0-.09.44l-.45-.26c0-.16-.11-.27-.39-.25,0,0,0,0,0,0a3.44,3.44,0,0,0-2.77-.28.52.52,0,0,0-.2.08l-.14.06c.15-1.14.65-1.81.46-3.38,2,1.87,4.43-.94,6.18-2.3,5.73-.41,10.13-2.57,15.79-3.06,1.18.62,1.95,1.73,3,2.48,3.92.2,7.81.95,11.49,1.2,4,.26,8.16-.88,11.91-.73,4.15.16,8.3,3.94,11.87.72,4.14.78,9.82,3.78,13.39,2.21,3.4,2.66,9.24,1.88,13.73,4.14,8.85-1.67,14.54-8.31,24.24-3.86C577.91,38.52,572.74,36.26,570.17,39.83Z"/><path class="cls-1" d="M571.33,96.94c2.95-1.42,6.71-.06,9.26-2.71C578.08,95.89,573.25,94.51,571.33,96.94Z"/></g></g></svg>