<svg xmlns="http://www.w3.org/2000/svg" viewBox="0 0 72 72"><defs><style>.cls-1,.cls-2{fill:none;}.cls-2{stroke:#fff;stroke-miterlimit:10;stroke-width:2px;}.cls-3{fill:#fff;}</style></defs><g id="Home"><rect class="cls-1" y="71.61" width="72" height="72"/><rect class="cls-1" width="72" height="72"/><path class="cls-2" d="M21.8,49.33l7.07-.46a14.65,14.65,0,0,0,7.32,1.94,14.8,14.8,0,1,0-13.7-9.18Z"/><path class="cls-3" d="M43.41,39,38.93,37.9a.93.93,0,0,0-1,.49l-1,2a13.18,13.18,0,0,1-4.82-4.82l2-1a.91.91,0,0,0,.49-1L33.5,29.06a.9.9,0,0,0-.9-.71H29.74a.91.91,0,0,0-.66.27,1,1,0,0,0-.27.67,14.41,14.41,0,0,0,1.46,6.16V36h.3a14.75,14.75,0,0,0,5.69,5.77v0l.66.33a14.33,14.33,0,0,0,6.28,1.5h0a.94.94,0,0,0,.65-.26,1,1,0,0,0,.27-.66V40A1,1,0,0,0,43.41,39Z"/></g></svg>