<?xml version="1.0" encoding="utf-8"?>
<!-- Generator: Adobe Illustrator 23.0.3, SVG Export Plug-In . SVG Version: 6.00 Build 0)  -->
<svg version="1.1" id="Layer_1" xmlns="http://www.w3.org/2000/svg" xmlns:xlink="http://www.w3.org/1999/xlink" x="0px" y="0px"
	 viewBox="0 0 192 192" style="enable-background:new 0 0 192 192;" xml:space="preserve">
<style type="text/css">
	.st0{opacity:0.47;}
	.st1{fill:url(#SVGID_1_);}
	.st2{fill:url(#SVGID_2_);}
	.st3{fill:url(#SVGID_3_);}
	.st4{fill:url(#SVGID_4_);}
	.st5{fill:none;stroke:#000000;stroke-width:0.5;stroke-miterlimit:10;}
	.st6{fill:none;stroke:#000000;stroke-width:0.5;stroke-miterlimit:10;stroke-dasharray:4.0945,4.0945;}
</style>
<g class="st0">
	<polygon points="105.1,115.1 76.4,115.1 82,99.9 99.5,99.9 	"/>
	<polygon points="68.7,136 93,70.2 84.9,48.3 52.5,136 	"/>
	<g>
		
			<linearGradient id="SVGID_1_" gradientUnits="userSpaceOnUse" x1="102.9389" y1="146.0299" x2="115.4611" y2="53.4501" gradientTransform="matrix(1 0 0 -1 0 191.89)">
			<stop  offset="0" style="stop-color:#33C599"/>
			<stop  offset="0.4627" style="stop-color:#1DDE99"/>
			<stop  offset="1" style="stop-color:#00FF99"/>
		</linearGradient>
		<polygon class="st1" points="117.3,135.9 84.9,48.3 101.1,48.3 133.5,136 		"/>
	</g>
	<g>
		
			<linearGradient id="SVGID_2_" gradientUnits="userSpaceOnUse" x1="135.0587" y1="92.6385" x2="139.9117" y2="56.7593" gradientTransform="matrix(1 0 0 -1 0 191.89)">
			<stop  offset="0" style="stop-color:#33B699"/>
			<stop  offset="1" style="stop-color:#00FF99"/>
		</linearGradient>
		<polygon class="st2" points="133.5,136 146.8,99.9 130.6,99.9 125.4,114 		"/>
	</g>
	<g>
		
			<linearGradient id="SVGID_3_" gradientUnits="userSpaceOnUse" x1="59.8359" y1="92.8332" x2="61.967" y2="77.0776" gradientTransform="matrix(1 0 0 -1 0 191.89)">
			<stop  offset="0" style="stop-color:#33CC99"/>
			<stop  offset="0.1445" style="stop-color:#26D999"/>
			<stop  offset="0.4381" style="stop-color:#11EE99"/>
			<stop  offset="0.7262" style="stop-color:#04FB99"/>
			<stop  offset="1" style="stop-color:#00FF99"/>
		</linearGradient>
		<polygon class="st3" points="60.2,115 59.6,115 54,99.9 65.9,99.9 		"/>
	</g>
</g>
<g>
	
		<linearGradient id="SVGID_4_" gradientUnits="userSpaceOnUse" x1="12" y1="95.89" x2="180" y2="95.89" gradientTransform="matrix(1 0 0 -1 0 191.89)">
		<stop  offset="0" style="stop-color:#33C599"/>
		<stop  offset="0.4627" style="stop-color:#1DDE99"/>
		<stop  offset="1" style="stop-color:#00FF99"/>
	</linearGradient>
	<path class="st4" d="M160,20c6.6,0,12,5.4,12,12v128c0,6.6-5.4,12-12,12H32c-6.6,0-12-5.4-12-12V32c0-6.6,5.4-12,12-12H160 M160,12
		H32c-11,0-20,9-20,20v128c0,11,9,20,20,20h128c11,0,20-9,20-20V32C180,21,171,12,160,12z"/>
</g>
<g>
	<g>
		<line class="st5" x1="58.9" y1="162.5" x2="59.6" y2="160.6"/>
		<line class="st6" x1="61" y1="156.8" x2="108.5" y2="28.1"/>
		<line class="st5" x1="109.2" y1="26.2" x2="109.9" y2="24.3"/>
	</g>
</g>
<g>
	<g>
		<line class="st5" x1="42.7" y1="162.5" x2="43.4" y2="160.6"/>
		<line class="st6" x1="44.8" y1="156.8" x2="92.3" y2="28.1"/>
		<line class="st5" x1="93" y1="26.2" x2="93.7" y2="24.3"/>
	</g>
</g>
<g>
	<g>
		<line class="st5" x1="118.7" y1="175.4" x2="119.4" y2="173.6"/>
		<line class="st6" x1="120.8" y1="169.7" x2="168.3" y2="41.1"/>
		<line class="st5" x1="169" y1="39.1" x2="169.7" y2="37.3"/>
	</g>
</g>
<g>
	<g>
		<line class="st5" x1="102.5" y1="175.4" x2="103.2" y2="173.6"/>
		<line class="st6" x1="104.6" y1="169.7" x2="152.1" y2="41.1"/>
		<line class="st5" x1="152.8" y1="39.1" x2="153.5" y2="37.3"/>
	</g>
</g>
<g>
	<g>
		<line class="st5" x1="127.1" y1="162.5" x2="126.4" y2="160.6"/>
		<line class="st6" x1="125" y1="156.8" x2="77.5" y2="28.1"/>
		<line class="st5" x1="76.8" y1="26.2" x2="76.1" y2="24.3"/>
	</g>
</g>
<g>
	<g>
		<line class="st5" x1="122.6" y1="162.6" x2="121.9" y2="160.7"/>
		<line class="st6" x1="120.5" y1="156.9" x2="73" y2="28.2"/>
		<line class="st5" x1="72.3" y1="26.3" x2="71.6" y2="24.4"/>
	</g>
</g>
<g>
	<g>
		<line class="st5" x1="143.3" y1="162.6" x2="142.6" y2="160.7"/>
		<line class="st6" x1="141.2" y1="156.9" x2="93.7" y2="28.2"/>
		<line class="st5" x1="93" y1="26.3" x2="92.3" y2="24.4"/>
	</g>
</g>
<g>
	<g>
		<line class="st5" x1="25.2" y1="115.1" x2="27.2" y2="115.1"/>
		<line class="st6" x1="31.2" y1="115.1" x2="168.4" y2="115.1"/>
		<line class="st5" x1="170.5" y1="115.1" x2="172.5" y2="115.1"/>
	</g>
</g>
<g>
	<g>
		<line class="st5" x1="19.5" y1="99.9" x2="21.5" y2="99.9"/>
		<line class="st6" x1="25.6" y1="99.9" x2="162.8" y2="99.9"/>
		<line class="st5" x1="164.8" y1="99.9" x2="166.8" y2="99.9"/>
	</g>
</g>
</svg>
