<svg xmlns="http://www.w3.org/2000/svg" width="192" height="192"><path fill="#D0103A" d="M172 160V32c0-6.6-5.4-12-12-12H32c-6.6 0-12 5.4-12 12v128c0 6.6 5.4 12 12 12h128c6.6 0 12-5.4 12-12z"/><path fill="#FEDF00" d="M32 20c-6.6 0-12 5.4-12 12v128c0 6.6 5.4 12 12 12h103.09V20H32z"/><path fill="#0018A8" d="M32 20c-6.6 0-12 5.4-12 12v128c0 6.6 5.4 12 12 12h24.91V20H32z"/><path fill="#C7B37F" d="M126.3 104.65c0-.04.01-.07.01-.11 0-.42-.17-.81-.47-1.08l-.09-.09-.02-.02c-.01-.16-.06-.3-.12-.44-.01-.02-.01-.04-.02-.06-.23-.5-.67-.7-1.21-.73-.04 0-.09-.01-.13-.01-.15 0-.29.03-.43.07 0 0-.01 0-.01.01-.26.09-.48.26-.64.48-.08.1-.16.2-.24.32-.02-.01-.04-.03-.05-.04-.07-.06-.14-.12-.2-.18-.9-.95-1.42-2.24-1.43-3.55-.01-1.37.54-2.68 1.1-3.23.02.02.05.04.07.06.29.29.69.41 1.07.41.15 0 .3-.02.43-.05.39-.1.71-.35.91-.71.23-.4.28-.89.14-1.35-.07-.22-.16-.4-.3-.59-.1-.13-.28-.36-.45-.48-.06-.05-.12-.1-.18-.14 1.44-.4 4.57-1.5 4.54-6.7-.01-1.6-.41-2.96-1.18-4.07-.3-.53-.66-.99-1.08-1.39a5.097 5.097 0 00-3.73-1.36h-.42v.02c-.51.05-.99.19-1.43.45.11-.53.03-1.05-.23-1.39-.2-.26-.49-.39-.83-.39-.37-.06-.69.06-.89.35-.12.17-.17.37-.17.56-.1-.19-.18-.4-.19-.61-.05-1.34 1.43-2.79 2.5-3.85.4-.39.75-.73.98-1.03l.01-.02c1.02-1.27 1.49-1.86 1.51-3.21.01-.94-.81-1.9-1.69-2h-.01c-.36-.87-1.12-1.52-1.94-1.52V67c-.03-.01-.06-.01-.09-.02-.05-.09-.11-.19-.17-.28-.14-.21-.31-.39-.49-.54-.68-.6-1.62-.67-2.46-.16l-.05-.05c-.53-.7-1.26-.81-2.18-.34h-.01l-.03-.03c-.07-.07-.15-.14-.23-.2-.36-.27-.8-.38-1.23-.31-.49.08-.94.38-1.25.84l-.1.15c-.14.01-.28.03-.42.06-.03 0-.06 0-.09.01-.85.26-1.47.86-1.47 1.75 0 .21.06.41.17.58.02.05.04.09.07.14.04.1.12.21.25.34.34.35.65.48.9.52-1.02.78-2.15 1.11-3.81 1.17-.59.02-1.79-.19-2.5-.68-.07-.05-.12-.1-.17-.15-.35-.39-.43-.83-.25-1.38.06-.18.19-.45.33-.77.39-.86.93-2.04.97-2.96.07-1.8-.58-3.06-1.84-3.56-.08-.03-.15-.07-.23-.09-1.55-.55-3.17.37-4.47 1.11-.51.29-.99.56-1.37.69-.71.24-1.06.26-1.7.26-.64 0-1.01-.03-1.72-.26-.39-.13-.87-.4-1.38-.69-.43-.25-.9-.51-1.39-.74-.18-.09-.37-.17-.56-.23-.82-.3-1.68-.44-2.52-.14-.06.02-.11.04-.17.07-.17.07-.33.15-.48.27-.69.48-1.29 1.39-1.22 3.13.04.92.58 2.09.97 2.95.15.32.27.6.33.77.23.7.04 1.27-.6 1.72-.7.5-1.91.7-2.5.69-1.59-.05-2.7-.36-3.68-1.07-.03-.03-.07-.05-.1-.08.03 0 .07.01.1.01.21 0 .74-.05 1.12-.55.29-.38.37-.9.2-1.47-.06-.21-.2-.43-.41-.63-.11-.12-.24-.23-.38-.33-.01-.01-.02-.01-.03-.02a2.13 2.13 0 00-1.19-.43c-.01-.01-.02-.01-.04-.02-.01-.01-.03-.02-.04-.03l-.07-.1c-.31-.46-.76-.76-1.25-.84-.44-.07-.87.04-1.23.31-.1.07-.18.15-.27.23-.92-.41-1.67-.28-2.22.37l-.01.01c-.05-.03-.11-.06-.16-.09-.06-.03-.11-.07-.15-.09-.11-.05-.21-.07-.31-.09-.85-.23-1.7.08-2.24.88-.07.1-.13.2-.18.3-.03.02-.05.05-.08.07-.85.15-1.53.72-1.84 1.48-.15.02-.3.05-.45.11-.14.05-.28.12-.41.21-.5.32-.88.86-.88 1.5 0 .9.24 1.48.72 2.16.2.32.44.62.7.9.02.03.04.05.06.08l.09.13c.22.28.54.6.91.97 1.04 1.06 2.47 2.5 2.43 3.87-.01.16-.04.33-.09.49-.03.01-.05.04-.06.07-.06-.14-.15-.27-.25-.38a.952.952 0 00-.4-.23.735.735 0 00-.3-.07c-.71 0-1.21.64-1.21 1.35 0 .08.02.14.04.2.01.09.02.17.05.25 0 .03-.02.04-.05.04-.08-.05-.16-.1-.25-.15-.02-.02-.05-.03-.07-.04-.34-.19-.59-.23-.98-.28-.14-.02-.24-.02-.35-.03h-.31c-.55 0-.93.1-1.35.26-.25.09-.5.19-.74.31-.01 0-.01 0-.02.01-.92.4-1.34.88-1.96 1.66-1.05 1.31-1.35 2.36-1.57 4.02-.03.21-.03.34-.03.55 0 .72.1 1.17.28 1.8.07.28.15.55.24.81.1.32.21.6.4.92.11.2.22.4.35.58.1.15.19.26.27.36.34.49.67.89 1.28 1.27.02.01.03.02.05.03.49.37.99.64 1.51.82l.01.01c-.66.3-1.01.84-1.01 1.57 0 .77.46 1.45 1.14 1.7.08.04.15.07.23.09.15.04.3.06.44.06.38 0 .75-.12 1-.35.04-.03.07-.07.11-.11.15.19.29.42.41.69.05.15.1.31.16.49.23.71.31 1.14.31 1.89 0 1.07-.25 1.71-.8 2.62-.14.23-.25.44-.37.62-.16.19-.33.37-.51.53-.06.04-.12.07-.19.11-.12-.24-.3-.45-.52-.59-.01-.01-.03-.02-.04-.03-.03-.02-.05-.03-.08-.05l-.12-.06h-.01-.01c-.03-.01-.05-.02-.08-.03-.02-.01-.03-.01-.05-.02-.01 0-.03-.01-.04-.01-.01 0-.02-.01-.03-.01-.1-.02-.2-.04-.31-.04-.59 0-1.09.38-1.28.93-.04.07-.07.14-.11.21l-.03.06c-.05.05-.1.1-.14.15-.07.06-.15.12-.2.23-.07.14-.08.26-.09.38-.02.09-.03.19-.03.29 0 .03.01.06.01.08 0 .03-.01.05-.01.08-.01.03-.02.05-.03.08-.07.06-.12.13-.18.2-.07.06-.14.12-.2.21-.17.3-.18.53-.18.87 0 .54.21.97.56 1.3.26.27.6.48.99.59.19.06.4.09.61.09.09 0 .19-.01.29-.02l-.07.07c-.39.34-.71.71-.99 1.13-.72.97-1.11 1.98-1.11 3.38 0 .33-.01.52.03.84.04.34.1.67.17.98.12.67.31 1.28.51 1.68.03.05.06.12.1.2.22.49.65 1.45 1.75 2.49.91.92 2.12 1.69 3.6 2.3.07.03.15.06.23.09.42.18.79.29 1.17.37 2.24.6 5.04.78 7.36.88 3.11.12 6.06.24 7.99 1.95.05.04.09.09.14.13.06.05.11.11.17.17-.01.01-.03.01-.04.02-.37.12-.69.34-.94.66-.33.35-.52.79-.52 1.33 0 .73.28 1.3.76 1.74.4.44 1.01.73 1.66.81l.01.01c.2.34.83.83 1.52.9.13.01.26.02.39.02.75 0 1.36-.23 1.96-.74.05-.04.09-.09.14-.13l.01.01c.13.16.28.33.45.49l.1.1c.35.36.78.72 1.23 1 .22.18.41.33.7.36.03.01.07.03.1.04l.04.01.04-.01c.05-.02.11-.04.16-.06.01 0 .02-.01.03-.01.01-.01.03-.01.04-.02.01 0 .02-.01.03-.01.93-.42 1.83-1.25 2.3-1.92.27.26.53.45.81.58.41.21.84.31 1.32.31.13 0 .25-.01.39-.02.67-.07 1.22-.51 1.45-.91.7-.06 1.34-.37 1.77-.86.36-.42.54-.94.51-1.48a2.6 2.6 0 00-.18-.84c-.16-.38-.47-.76-.81-1.03l-.01.01c-.11-.09-.23-.17-.36-.23 1.88-2.07 5.03-2.2 8.38-2.33 2.84-.11 6.39-.37 8.76-1.34 3.81-1.57 4.81-3.78 5.18-4.61.04-.08.07-.15.09-.2.37-.72.66-2.08.69-3.25.02-.68-.09-1.44-.29-2.01-.4-1.15-.93-2-1.66-2.69l-.01.01c-.13-.13-.27-.26-.42-.38.24.06.47.09.69.09.22 0 .43-.03.62-.09.56-.17.99-.52 1.21-.98.22-.46.21-1.01-.04-1.57-.11-.21-.26-.42-.45-.61zm-.57-23.63c.11.09.22.2.34.33a4.998 4.998 0 00-.45-.4c.04.02.08.04.11.07z"/><path fill="#FFF" d="M77.62 88.45c-.1-.54.16-1.55 1.06-1.85 1.15-.39 1.89.44 2.24 1.13 0 0 0 .01.01.01l-.5.54c-.37-.67-.96-.97-1.36-.66-.3.24-.32.63-.07 1.01.16.24.43.4.63.5l-.75.81c-.42-.15-1.08-.54-1.26-1.49zm5.03-1.16c-.14-.34-.27-.66-.4-.98-1.18-2.99-1.55-4.85-1.55-4.85l5.26-6.77 3.21 4.14.59.76 1.45 1.87s-.59 2.9-2.58 7.26c-.3-.12-.56-.22-.8-.3l.03.03c0 .49.35 1.56 1.08 1.71 1.35.27 1.56-1.48 2.05-2.43.35-.69 1.09-1.51 2.24-1.13.9.3 1.16 1.31 1.06 1.85-.27 1.43-1.64 1.61-1.64 1.61l-.64-.81s.62-.2.89-.61c.25-.38.24-.78-.07-1.01-.52-.4-1.33.2-1.62 1.32-.27 1.05-.82 2.34-2.02 2.45-.43.04-.87-.1-1.29-.37-.27-.17-.58-.46-.83-.84-.19-.29-.19-.29-.39-.88-.18-.51-.19-1.15-.19-1.15l.01-.01c-.18-.02-.36-.02-.57-.02-.2 0-.39.01-.56.03l.01.01s-.01.64-.19 1.15c-.2.59-.2.59-.39.88-.25.39-.56.67-.83.84-.43.27-.86.41-1.29.37-1.06-.09-1.62-1.13-1.92-2.09l.53-.58c.31.82.7 1.63 1.65 1.44.73-.15 1.08-1.22 1.08-1.71l.01-.01c-.24.08-.5.18-.79.28-.2-.52-.4-.99-.59-1.45zm3.82-10.31v10.13c.61.04 1.1.16 1.68.29 1.48-3.44 1.97-5.72 1.97-5.72l-3.65-4.7zM83.76 87.4c.57-.13 1.07-.24 1.68-.29V76.98l-3.65 4.7s.49 2.28 1.97 5.72z"/><path fill="#D52B1E" d="M77.12 91.85h17.67V74.21H77.12v17.64zm1.56-5.25c1.15-.39 1.89.44 2.24 1.13 0 0 0 .01.01.01l1.32-1.42c-1.18-2.99-1.55-4.85-1.55-4.85l5.26-6.77 3.21 4.14.72-.78s.35-.28.35-.74l-.48.07-.11-.25-.02-.25.65-.14c.01-.11 0-.18.02-.3.02-.11.04-.16.07-.27l-.71.05c.04-.12.03-.19.07-.31.03-.1.04-.13.11-.24.13-.02.25-.05.41-.07.16-.02.25-.01.41-.02.39-.72 2-1.38 3.14-.2.83.86.65 2.44-.42 2.85-.61.24-1.1.1-1.49-.24l.43-.84c.59.35 1.08-.09 1.05-.54-.04-.58-.42-.93-.95-.98-.49-.04-.84.24-1.06.68-.14.27-.07.46-.12.76-.05.32-.02.5-.12.83-.07.24-.25.53-.51.78l-.83.9 1.45 1.87s-.59 2.9-2.58 7.26c-.3-.12-.56-.22-.8-.3l.03.03c0 .49.35 1.56 1.08 1.71 1.35.27 1.56-1.48 2.05-2.43.35-.69 1.09-1.51 2.24-1.13.9.3 1.16 1.31 1.06 1.85-.27 1.43-1.64 1.61-1.64 1.61l-.64-.81s.62-.2.89-.61c.25-.38.24-.78-.07-1.01-.52-.4-1.33.2-1.62 1.32-.27 1.05-.82 2.34-2.02 2.45-.43.04-.87-.1-1.29-.37-.27-.17-.58-.46-.83-.84-.19-.29-.19-.29-.39-.88-.18-.51-.19-1.15-.19-1.15l.01-.01c-.18-.02-.36-.02-.57-.02-.2 0-.39.01-.56.03l.01.01s-.01.64-.19 1.15c-.2.59-.2.59-.39.88-.25.39-.56.67-.83.84-.43.27-.86.41-1.29.37-1.06-.09-1.62-1.13-1.92-2.09l-1.92 2.08-.7-.65.71-.77c-.43-.16-1.09-.56-1.26-1.5-.09-.57.17-1.58 1.07-1.88zm2.65 2.12l1.32-1.43c.19.46.4.93.63 1.43.29-.11.55-.2.79-.28l-.01.01c0 .49-.35 1.56-1.08 1.71-.95.18-1.34-.62-1.65-1.44zm-.9-.44l-.79.86c-.2-.1-.48-.27-.63-.5-.25-.38-.24-.78.07-1.01.4-.32.98-.02 1.35.65zm21.51-14.07v17.64h-2.66V74.21h2.66zm5.1 0v17.64h-2.66V74.21h2.66zm5.1 0v17.64h-2.66V74.21h2.66zM81.21 93.93v17.58c-.62-.17-.92-.28-1.32-.49-.3-.16-.56-.32-.78-.48V93.93h2.1zm7.94 0v17.54c-.73.04-1.29.1-1.99.2l-.1.01V93.93h2.09zm3.95 0v17.87c-.2-.05-.39-.1-.59-.14-.59-.12-1.06-.18-1.5-.21V93.93h2.09zm-7.92 0v17.96c-.08 0-.16.01-.25.01-.31.01-.56.02-.8.02-.37 0-.72-.02-1.06-.05V93.93h2.11zm16.47 4.08zm6.76 4.23c-.01 0-.01-.01-.01-.02-.12-.08-.19-.14-.32-.2-.12-.06-.19-.07-.31-.11.2-.16.3-.06.45-.18.09-.07.13-.14.2-.23.05-.07.07-.12.13-.2.04-.06.08-.08.12-.14.1-.13.14-.2.22-.34.07-.11.12-.18.16-.3.02-.05.03-.09.04-.13v.01l.07-.04c.2-.08.38-.2.55-.35.03.02.06.03.09.05l.25.13h.02c.02.03.03.06.03.11 0 .09-.06.12-.12.19-.11.15-.23.18-.36.31-.3.29-.47.47-.65.85-.06.12-.06.25-.14.32-.06.05-.15.03-.22.05a.24.24 0 00-.17.09c-.02.02-.03.07-.03.13zm-5.52-4.86c.18-.36.22-.56.29-.89h.01s.42-.01.83-.04c.8-.07.81-.19 1.34-.23.3-.03.76.08 1.26.07.42-.01.65-.04 1.07-.09.43-.05.68-.14 1.11-.16.36-.02.57-.02.93.01.35.03.57.01.9.12.2.07.42.12.59.32.05.06.09.11.12.18.03.07.06.12.07.2.01.08.02.15.02.22 0 .1-.02.21-.07.32-.16.35-.26.4-.52.54-.03.01-.05.03-.07.04l-.04.01c-.15.07-.28.08-.46.09h-.06c-.27.02-.48-.03-.71-.09-.24-.06-.49-.12-.81-.1-.19.01-.32.1-.45.18-.1.06-.19.12-.32.16-.06.02-.11.03-.16.03l.12-.24-.21.04s-.27.05-.44.06h-.09l.21-.2-.22-.04c-.04-.01-.15-.03-.23-.05.03-.01.06-.01.09-.02.15-.04.26-.09.36-.14.14-.07.25-.12.47-.14.2-.02.57-.02 1.63.15.68.11.99.06 1.26-.06.23-.11.28-.32.3-.47.02-.17-.06-.34-.23-.49a.485.485 0 00-.31-.1c-.06 0-.11.04-.11.1 0 .06.04.11.1.11.11 0 .16.03.18.05.08.07.17.17.15.3-.02.17-.07.25-.18.3-.24.11-.51.15-1.14.05-1.07-.18-1.46-.18-1.69-.16-.25.02-.4.1-.54.17-.1.05-.19.09-.32.12-.14.03-.22.05-.36.08l-.24.04.19.15c.09.07.15.11.26.15l.1.03-.23.22.21.04a1.953 1.953 0 00.62.01l-.1.21.19-.02c.15-.01.24-.03.39-.06.16-.04.28-.12.38-.18.11-.07.21-.14.35-.15.28-.02.5.03.74.09s.48.12.78.09h.06c.18-.01.33-.03.49-.09v.4c.01.27-.05.42-.03.6.01.12.05.18.15.33.19.28.39.34.23.79-.11.31-.05.22-.09.37-.04.16-.04.2-.09.41-.04.19-.09.57-.14.98-.01.06-.01.11-.02.14-.02.07-.08.05-.17.07-.1.02-.05.22-.09.37v-.01c-.12-.08-.19-.14-.32-.2-.12-.06-.19-.07-.32-.12.04-.03.08-.05.12-.08.13-.11.18-.19.25-.34.07-.16.07-.26.1-.43.04-.19.08-.31.07-.5-.01-.17-.09-.24-.12-.41-.02-.14.04-.23-.01-.37-.05-.13.01-.14-.1-.22-.01-.01-.02-.02-.03-.02l-.26-.13a1.69 1.69 0 01-.49-.37c-.12-.12-.23-.24-.43-.35a.61.61 0 01-.16-.12c-.11-.1-.24-.21-.5-.17-.05.01-.11.01-.17.01-.06 0-.11.05-.1.11 0 .06.04.1.11.1s.13-.01.19-.02c.17-.02.23.03.33.12.03.03.06.05.1.08-.13.05-.27.11-.42.18-.28.13-.61.28-1.01.38-.01 0-.03.01-.04.01-.04.01-.12.04-.15.05-.69.15-1.22.17-1.82.11 0-.01.01-.01.01-.02.01-.04.01-.09.02-.13.03-.18.07-.3.12-.44.03-.09.06-.19.09-.3l.08-.29-.21-.06-.08.29c-.03.11-.06.21-.09.3-.04.14-.08.28-.12.46-.01.05-.02.1-.02.15v.02h-.01c-.02.19-.03.32-.08.54-.04.19-.11.28-.15.47-.03.13-.03.21-.03.34-.01.23 0 .36.03.6.02.14.05.22.06.36.01.09.03.11-.01.16-.03.05-.12-.01-.2.02-.05.02-.07.06-.1.12-.03.05-.03.08-.03.14v-.01c-.12-.08-.19-.14-.32-.2-.12-.06-.19-.07-.32-.12 0 0-.01 0-.01.01.08-.06.15-.07.21-.15.06-.08.08-.13.1-.23.03-.15.04-.23.05-.38.01-.16 0-.26 0-.41 0-.06-.03-.09-.05-.14-.02-.05-.03-.08-.06-.12-.07-.11-.03-.51-.03-.74l.01-.18v-.01c-.01-.02-.01-.05-.02-.07-.01-.07-.01-.13-.02-.18 0-.08-.01-.17-.04-.28-.03-.13-.06-.21-.12-.34-.03-.07-.09-.18-.09-.18l-.19.1s.05.1.08.17c.05.11.08.18.11.3.02.09.03.16.03.24 0 .06.01.13.02.21 0 .03.01.05.01.08v.03c-.04 0-.09 0-.17-.02-.19-.05-.24-.09-.31-.08-.04.01-.08.01-.12 0 0-.03-.02-.07-.05-.08-.11-.06-.15-.29-.19-.47-.04-.21-.08-.4-.23-.43a.123.123 0 00-.14.08c-.01.06.02.11.07.12.03.03.06.17.08.27.05.22.1.47.26.59-.11.1-.18.15-.32.29-.06.06-.09.1-.08.16.04.22.22.25.35.4.07.08.2.14.14.24-.04.07-.14.06-.16.14-.01.07 0 .13.05.17-.11.09-.18.14-.28.24-.09.1-.12.17-.2.27l-.02-.01a1.61 1.61 0 00-.07-.43c-.05-.17-.09-.28-.17-.43-.16-.28-.21-.32-.33-.52-.2-.34-.09-.35.07-.6.11-.17.23-.27.36-.39.03-.02.05-.04.07-.07-.08-.14-.12-.27-.25-.33-.07-.03-.18-.28-.32-.69a.384.384 0 01.01-.18c.01-.02.02-.05.03-.07l.02.01c.33-.19.61-.47.84-.9zm-3.05-.03c.05.07.06.15.12.17.12.04.19.03.29.03.17.04.28.03.44.1.13.06.19.12.32.18.1.05.17.07.28.1.08.02.13.03.22.02.05-.01.08-.03.14-.03h.03l-.03.08v.01l.12-.09.01-.01c.2-.16.4-.38.58-.66.2-.32.23-.54.35-.91l.07-.01c.13-.05.17-.1.25-.2.06-.08.05-.15.12-.23.06-.07.1-.14.17-.21a.745.745 0 00-.2-.1c-.08-.02-.12-.01-.2 0-.11.01-.17.03-.26.07-.08.04-.14.08-.18.13 0 0-.02-.01-.05-.03l-.07.07c-.06.05-.1.07-.17.09-.05 0-.09 0-.14-.02-.13-.06-.23-.23-.14-.35.01-.02.03-.03.05-.04-.21-.09-.33-.14-.61-.18 0 0-.08.04-.13.06v.01c-.06.07-.1.12-.17.18s-.12.09-.18.12h-.01c-.03.02-.05.03-.08.05-.05.04-.09.05-.13.09-.05.07-.02.14-.05.22-.04.09-.08.13-.14.2-.08.09-.14.13-.23.22s-.13.16-.24.22c-.03.02-.04.03-.07.04-.05.01-.08 0-.12.01-.08.03-.11.12-.17.16.02.05.02.08.05.13.02.07.14.26.16.31zm1.02-.94l.06-.09c.03-.06.07-.12.15-.17.11-.07.2-.09.33-.07l.07.02v.04c0 .12-.03.2-.11.29-.06.07-.11.11-.19.13-.02 0-.04.01-.06.01-.05 0-.09-.02-.13-.03-.02-.01-.05-.02-.08-.03l-.09-.02.05-.08zm-1 .52c.06.01.08.01.13.01.03 0 .04-.01.07-.02.03-.01.06-.03.11-.03h.05c.04 0 .08 0 .13.04.04.03.06.06.08.09.02.04.04.08.03.14-.02.08-.09.13-.19.14-.08 0-.14-.03-.17-.09-.01-.01-.01-.03-.02-.04-.04 0-.08 0-.13-.02-.08-.03-.13-.06-.17-.14l-.07-.11.15.03zm8.59 2.69c.22-.1.41-.19.56-.22.09.07.17.14.24.22.08.08.17.17.28.25-.13.11-.28.2-.46.28l-.02.01c-.05.02-.11.04-.14.05v.17c-.01.07 0 .14-.07.18-.04.02-.07.03-.12.02-.05-.01-.08-.04-.11-.09-.02-.05 0-.09-.01-.14 0-.02-.01-.08-.01-.1-.08.01-.11.01-.19.01s-.11 0-.19-.01c0 .03.01.12 0 .15-.01.06-.01.12-.05.16-.04.04-.09.05-.14.03a.124.124 0 01-.08-.06c-.04-.05-.02-.09-.03-.16v-.21c-.14-.05-.26-.12-.38-.19.37-.1.68-.24.92-.35zm-6.8 6.34zm-1.81-.66c.05.07.06.15.12.17.12.04.19.03.29.03.17.04.28.03.44.1.13.06.19.12.32.18.1.05.17.07.28.1.08.02.13.03.22.02.05-.01.08-.03.14-.03h.03l-.01.08v.01l.12-.09.01-.01c.2-.16.4-.38.58-.66.2-.32.23-.54.35-.91l.07-.01c.13-.05.17-.1.25-.2.06-.08.05-.15.12-.23.06-.07.1-.14.17-.21a.745.745 0 00-.2-.1c-.08-.02-.12-.01-.2 0-.11.01-.17.03-.26.07-.08.04-.14.08-.18.13 0 0-.02-.01-.05-.03l-.07.07c-.06.05-.1.07-.17.09-.05 0-.09 0-.14-.02-.13-.06-.23-.23-.14-.35.01-.02.03-.03.05-.04-.21-.09-.33-.14-.61-.18 0 0-.08.04-.13.06-.06.07-.1.12-.17.18s-.12.09-.18.12h-.01c-.03.02-.05.03-.08.05-.05.04-.09.05-.13.1-.05.07-.02.14-.05.22-.04.09-.08.13-.14.2-.08.09-.14.13-.23.22s-.13.16-.24.22c-.03.02-.04.03-.07.04-.05.01-.08 0-.12.01-.08.03-.11.12-.17.16.02.05.02.08.05.13 0 .06.12.26.14.31zm1.02-.95l.06-.09c.03-.06.07-.12.15-.17.11-.07.2-.09.33-.07l.07.02v.04c0 .12-.03.2-.11.29-.06.07-.11.11-.19.13-.02 0-.04.01-.06.01-.05 0-.09-.02-.13-.03-.02-.01-.05-.02-.08-.03l-.09-.02.05-.08zm-1 .53c.06.01.08.02.13.01.03 0 .04-.01.07-.02.03-.01.06-.03.11-.03h.05c.04 0 .08 0 .13.04.04.03.06.06.08.09.02.04.04.08.03.14-.02.08-.09.13-.19.14-.08 0-.14-.03-.17-.09-.01-.01-.01-.03-.02-.04-.04 0-.08 0-.13-.02-.08-.03-.13-.06-.17-.14l-.07-.11.15.03zm3.03.45c.18-.36.22-.56.29-.89h.01s.42-.01.83-.04c.8-.07.81-.19 1.34-.23.3-.03.76.08 1.26.07.42-.01.65-.04 1.07-.09.43-.05.68-.14 1.11-.16.36-.02.57-.02.93.01.35.03.57.01.9.12.2.07.42.12.59.32.05.06.09.11.12.18.03.07.06.12.07.2.01.08.02.15.02.22 0 .1-.02.21-.07.32-.16.35-.26.4-.52.54-.03.01-.05.03-.07.04l-.04.01c-.15.07-.28.08-.46.09h-.06c-.27.02-.48-.03-.71-.09-.24-.06-.49-.12-.81-.1-.19.01-.32.1-.45.18-.1.06-.19.12-.32.16-.06.02-.11.03-.16.03l.12-.24-.21.04s-.27.05-.44.06h-.09l.21-.2-.22-.03c-.04-.01-.15-.03-.23-.05.03-.01.06-.01.09-.02.15-.04.26-.09.36-.14.14-.07.25-.12.47-.14.2-.02.57-.02 1.63.15.68.11.99.06 1.26-.06.23-.11.28-.32.3-.47.02-.17-.06-.34-.23-.49a.485.485 0 00-.31-.1c-.06 0-.11.04-.11.1 0 .06.04.11.1.11.11 0 .16.03.18.05.08.07.17.17.15.3-.02.17-.07.25-.18.3-.24.11-.51.15-1.14.05-1.07-.18-1.46-.18-1.69-.16-.25.02-.4.1-.54.17-.1.05-.19.09-.32.12-.14.03-.22.05-.36.08l-.24.04.19.15c.09.07.15.11.26.15l.1.03-.23.22.21.04a1.953 1.953 0 00.62.01l-.1.21.19-.02c.15-.01.24-.03.39-.06.16-.04.28-.12.38-.18.11-.07.21-.14.35-.15.28-.02.5.03.74.09s.48.12.78.09h.06c.18-.01.33-.03.49-.09v.4c.01.27-.05.42-.03.6.01.12.05.18.15.33.19.28.39.34.23.79-.11.31-.05.22-.09.37-.04.16-.04.2-.09.41-.04.19-.09.57-.14.98-.01.06-.01.11-.02.14-.02.07-.08.05-.17.07-.1.02-.05.22-.09.37v-.01c-.12-.08-.19-.14-.32-.2-.12-.06-.19-.07-.32-.12.04-.03.08-.05.12-.08.13-.11.18-.19.25-.34.07-.16.07-.26.1-.43.04-.19.08-.31.07-.5-.01-.17-.09-.24-.12-.41-.02-.14.04-.23-.01-.37-.05-.13.01-.14-.1-.22l-.03-.03-.26-.13a1.69 1.69 0 01-.49-.37c-.12-.12-.23-.24-.43-.35a.61.61 0 01-.16-.12c-.11-.1-.24-.21-.5-.17-.05.01-.11.01-.17.01-.06 0-.11.05-.1.11 0 .06.04.1.11.1s.13-.01.19-.02c.17-.02.23.03.33.12.03.03.06.05.1.08-.13.05-.27.11-.42.18-.28.13-.61.28-1.01.38-.01 0-.02.01-.03.01l-.15.05c-.69.15-1.22.17-1.82.11 0-.01.01-.01.01-.02.01-.04.01-.09.02-.13.03-.18.07-.3.12-.44.03-.09.06-.19.09-.3l.08-.29-.21-.06-.08.29c-.03.11-.06.21-.09.3-.04.14-.08.28-.12.46-.01.05-.02.1-.02.15v.02h-.01c-.02.19-.03.32-.08.54-.04.19-.11.28-.15.47-.03.13-.03.21-.03.34-.01.23 0 .36.03.6.02.14.05.22.06.36.01.09.03.11-.01.16-.03.05-.12-.01-.2.02-.05.02-.07.06-.1.12-.03.05-.03.08-.03.14v-.01c-.12-.08-.19-.14-.32-.2-.12-.06-.19-.07-.32-.12 0 0-.01 0-.01.01.08-.06.15-.07.21-.15.06-.08.08-.13.1-.23.03-.15.04-.23.05-.38.01-.16 0-.26 0-.41 0-.06-.03-.09-.05-.14-.02-.05-.03-.08-.06-.12-.07-.11-.03-.51-.03-.74l.01-.18v-.01c-.01-.02-.01-.05-.02-.07-.01-.07-.01-.13-.02-.18 0-.08-.01-.17-.04-.28-.03-.13-.06-.21-.12-.34-.03-.07-.09-.18-.09-.18l-.19.1s.05.1.08.17c.05.11.08.18.11.3.02.09.03.16.03.24 0 .06.01.13.02.21 0 .03.01.05.01.08v.03c-.04 0-.09 0-.17-.02-.19-.05-.24-.09-.31-.08-.04.01-.08.01-.12 0 0-.03-.02-.07-.05-.08-.11-.06-.15-.29-.19-.47-.04-.21-.08-.4-.23-.43a.123.123 0 00-.14.08c-.01.06.02.11.07.12.03.03.06.17.08.27.05.22.1.47.26.59-.11.1-.18.15-.32.29-.06.06-.09.1-.08.16.04.22.22.25.35.4.07.08.2.14.14.24-.04.07-.14.06-.16.14-.01.07 0 .13.05.17-.11.09-.18.14-.28.24-.09.1-.12.17-.2.27l-.02-.01a1.61 1.61 0 00-.07-.43c-.05-.17-.09-.28-.17-.43-.16-.28-.21-.32-.33-.52-.2-.34-.09-.35.07-.6.11-.17.23-.27.36-.39.03-.02.05-.04.07-.07-.08-.14-.12-.27-.25-.33-.07-.03-.18-.28-.32-.69a.384.384 0 01.01-.18c.01-.02.02-.05.03-.07l.02.01c.32-.19.6-.47.83-.9zm6.75 3.39c-.3.29-.47.47-.65.85-.06.12-.06.25-.14.32-.06.05-.15.03-.22.05a.235.235 0 00-.22.25c0-.01 0-.01-.01-.02-.12-.08-.19-.14-.32-.2-.12-.06-.19-.07-.31-.11.2-.16.3-.06.45-.18.09-.07.13-.14.2-.23.05-.07.07-.12.13-.2.04-.06.08-.08.12-.14.1-.13.14-.2.22-.34.07-.11.12-.18.16-.3.02-.05.03-.09.04-.13v.01l.07-.04c.2-.08.38-.2.55-.35.03.02.06.03.09.05l.25.13h.02c.02.03.03.06.03.11 0 .09-.06.12-.12.19-.09.12-.21.15-.34.28zm-1.19-1.16c.22-.1.41-.19.56-.22.09.07.17.14.24.22.08.08.17.17.28.25-.13.11-.28.2-.46.28l-.02.01c-.05.02-.11.04-.14.05v.17c-.01.07 0 .14-.07.18-.04.02-.07.03-.12.02-.05-.01-.08-.04-.11-.09-.02-.05 0-.09-.01-.14 0-.02-.01-.08-.01-.1-.08.01-.11.01-.19.01s-.11 0-.19-.01c0 .03.01.12 0 .15-.01.06-.01.12-.05.16-.04.04-.09.05-.14.03a.124.124 0 01-.08-.06c-.04-.05-.02-.09-.03-.16v-.21c-.14-.05-.26-.12-.38-.19.37-.1.68-.23.92-.35z"/><path fill="#FCD900" d="M101.01 96.42c-.01 0-.02-.01-.02-.01.01-.01.02-.03.02-.04.03-.05.06-.1.11-.13.08-.05.15-.06.23-.06a.33.33 0 01-.08.17c-.05.05-.08.08-.14.09-.04.01-.07 0-.12-.02zm-.88.62l.1-.04-.03.11c-.01.02 0 .03 0 .04.01.01.02.03.07.03.02 0 .07-.01.08-.05 0-.02 0-.02-.02-.05-.02-.04-.03-.05-.05-.06-.01-.02-.03-.02-.06-.02h-.05c-.03 0-.05.01-.07.02-.02.01-.05.02-.09.03.05.01.08.01.12-.01zm1.01 7.35c.06-.01.09-.04.14-.09.05-.06.07-.1.08-.17-.08-.01-.14.01-.23.06-.06.03-.08.08-.11.13-.01.01-.02.03-.02.04.01 0 .02.01.02.01.04.02.07.03.12.02zm-1.01.59l.1-.04-.03.11c-.01.02 0 .03 0 .04.01.01.02.03.07.03.02 0 .07-.01.08-.05 0-.02 0-.02-.02-.05-.02-.04-.03-.05-.05-.06-.02-.02-.04-.02-.07-.02h-.05c-.03 0-.05.01-.07.02-.02.01-.05.02-.09.03.06.01.09.01.13-.01z"/><path fill="#FEDF00" d="M93.37 78.25c-.61.24-1.1.1-1.49-.24l.43-.84c.59.35 1.08-.09 1.05-.54-.04-.58-.42-.93-.95-.98-.49-.04-.84.24-1.06.68-.14.27-.07.46-.12.76-.05.32-.02.5-.12.83-.07.24-.25.53-.51.78l-.83.9-.59-.76.72-.78s.35-.28.35-.74l-.48.07-.11-.25-.02-.25.65-.14c.01-.11 0-.18.02-.3.02-.11.04-.16.07-.27l-.71.05c.04-.12.03-.19.07-.31.03-.1.04-.13.11-.24.13-.02.25-.05.41-.07.16-.02.25-.01.41-.02.39-.72 2-1.38 3.14-.2.81.87.63 2.44-.44 2.86zm-10.72 9.04c-.14-.34-.27-.66-.4-.98l-1.32 1.42-.5.54-.79.86-.75.81-.71.77.7.65 1.92-2.08.53-.58 1.32-1.41zm3.82-10.31zm0 0v10.13c.61.04 1.1.16 1.68.29 1.48-3.44 1.97-5.72 1.97-5.72l-3.65-4.7zm-1.03 0l-3.65 4.7s.49 2.28 1.97 5.72c.57-.13 1.07-.24 1.68-.29V76.98zm0 0zm18.94-2.77h-2.44v17.64h2.44V74.21zm5.1 0h-2.44v17.64h2.44V74.21zm5.06 0h-2.4v17.64h2.4V74.21zm-15.26 0h-2.41v17.64h2.41V74.21zM77.12 93.93v12.63s.04.61.07.81c.08.52.24.99.46 1.41.09.14.14.24.19.33.12.23.21.38.72.95.14.16.33.32.55.48V93.93h-1.99zm15.99 17.87c.75.19 1.42.42 1.68.52V93.93H93.1l.01 17.87zm-3.97-.33c.14-.01.28-.02.43-.02.26-.01.5-.02.72-.02.22 0 .43.01.62.02.03 0 .07 0 .1.01V93.93h-1.87v17.54zm-3.96.41c.67-.04 1.22-.11 1.7-.18l.17-.02V93.93h-1.87v17.95zm-3.97-.37c.05.01.1.03.15.04.6.16 1.15.26 1.72.31V93.92h-1.87v17.59zm33.33-4.97c0 .01-.04.62-.07.82-.08.52-.24.99-.46 1.4-.09.14-.15.25-.2.34-.12.23-.21.38-.72.95-.28.31-.73.63-1.33.96-.42.23-.74.34-1.47.53-.97.25-1.8.36-2.78.36-.23 0-.49-.01-.8-.02-.79-.03-1.41-.12-1.95-.19l-.26-.04c-.83-.11-1.47-.18-2.42-.22-.53-.02-.94-.02-1.34 0-.47.03-.96.09-1.6.22-.96.19-1.96.53-2.29.65l.01-18.39h17.67l.01 12.63zm-13.02.68c0-.08-.06-.14-.14-.13-.08 0-.14.06-.13.14 0 .08.06.14.14.13.07 0 .13-.06.13-.14zm.35-.63c.02-.12.08-.19.05-.32-.02-.08-.11-.14-.18-.17-.08-.02-.18-.01-.24.04-.11.08-.1.18-.15.29-.05.12-.04.2-.13.29-.06.06-.12.07-.19.12 0 0 .25.13.43.18.17.05.44.08.44.08-.03-.08-.06-.12-.08-.2-.02-.12.03-.19.05-.31zm7.77 2.13c.13-.13.25-.16.36-.31.05-.07.11-.1.12-.19 0-.04-.02-.07-.03-.11h-.02l-.25-.13c-.03-.01-.06-.03-.09-.05-.16.15-.34.26-.55.35l-.07.04v-.01c-.01.04-.02.08-.04.13-.04.12-.1.19-.16.3-.08.14-.12.21-.22.34-.05.06-.08.08-.12.14-.06.07-.07.12-.13.2-.07.1-.11.16-.2.23-.15.12-.25.02-.45.18h-.01c-.13.03-.19.24-.32.39.05.03.08.05.14.07.08.03.14.02.23.02.11.01.17.01.27 0 .13-.01.22-.03.33-.05.01-.03 0-.06-.01-.08 0-.07.01-.11.05-.16.05-.06.1-.08.17-.09.08-.01.16.01.22-.05.08-.07.08-.2.14-.32.17-.36.34-.55.64-.84zm-.72-.56c.03-.01.09-.03.14-.05l.02-.01c.17-.07.32-.16.46-.28-.11-.08-.2-.17-.28-.25-.07-.08-.15-.15-.24-.22-.15.02-.34.11-.56.22-.25.12-.55.25-.9.36.12.08.24.15.38.19v.21c.01.06-.01.1.03.16.02.03.04.05.08.06.06.01.1 0 .14-.03.05-.04.04-.1.05-.16.01-.03 0-.12 0-.15.08.01.11.01.19.01s.11 0 .19-.01c0 .02 0 .08.01.1.01.05-.02.09.01.14.02.05.05.08.11.09.04.01.08 0 .12-.02.06-.04.06-.11.07-.18-.02-.03-.02-.16-.02-.18zm2.5-3.1c0-.07-.01-.14-.02-.22-.01-.09-.04-.14-.07-.2a.707.707 0 00-.12-.18c-.17-.2-.39-.25-.59-.32-.32-.12-.54-.09-.9-.12s-.57-.03-.93-.01c-.44.02-.68.11-1.11.16-.42.05-.65.08-1.07.09-.49.01-.96-.1-1.26-.07-.53.05-.54.17-1.34.23-.42.03-.83.04-.83.04h-.01c0-.02.01-.03.01-.05l-.39-.13h-.01c.13-.05.17-.1.25-.2.06-.08.05-.15.12-.23.06-.07.1-.14.17-.21a.745.745 0 00-.2-.1c-.08-.02-.12-.01-.2 0-.11.01-.17.03-.26.07-.08.04-.14.08-.18.13 0 0-.02-.01-.05-.03.03-.03.05-.07.07-.11.04-.09.05-.15.05-.25 0-.12-.05-.18-.09-.3-.05-.12-.11-.17-.15-.3-.03-.09-.05-.15-.06-.25-.01-.07.04-.15.01-.18-.04 0-.13.06-.18.13-.08.11-.07.21-.08.34 0 .09.01.14.03.23.01.08.04.12.05.2 0 .07.01.12-.03.18-.02.03-.04.04-.07.05-.21-.09-.33-.14-.61-.18 0 0-.08.04-.13.06-.04-.05-.08-.08-.11-.14-.03-.06-.04-.1-.06-.16-.03-.12-.05-.2-.09-.32a.39.39 0 00-.15-.23.331.331 0 00-.2-.09c-.04 0-.07-.02-.09 0-.02.02.05.05.07.09.04.07.04.12.05.2.01.08 0 .12 0 .2 0 .09-.01.14 0 .23.01.1.03.16.07.25.04.1.05.17.13.24.01.01.03.02.03.02-.03.02-.05.03-.08.05-.05.04-.09.05-.13.1-.05.07-.02.14-.05.22-.04.09-.08.13-.14.2-.08.09-.14.13-.23.22s-.13.16-.24.22c-.03.02-.04.03-.07.04-.05.01-.08 0-.12.01-.08.03-.11.12-.17.16.02.05.02.08.05.13.03.07.15.26.18.31.05.07.06.15.12.17.12.04.19.03.29.03.17.04.28.03.44.1.13.06.19.12.32.18.1.05.17.07.28.1.08.02.13.03.22.02.05-.01.08-.03.14-.03h.03l-.01.08v.01l-.01.01h.02l.45.21c-.01.02-.03.05-.03.07-.02.07-.02.15-.01.18.14.41.25.67.32.69.13.05.17.19.25.33-.03.03-.05.04-.07.07-.13.13-.25.22-.36.39-.16.26-.27.26-.07.6.12.2.18.24.33.52.08.14.12.25.17.43.04.16.06.26.07.43l.02.01c0 .13.18.25.29.41.04-.04.07-.06.1-.11.05-.07.06-.13.08-.21l.08-.26c.03-.13.03-.22.04-.33-.03-.02-.07-.01-.1-.02l-.01.01c-.05-.04-.07-.1-.05-.17.02-.08.11-.06.16-.14.06-.1-.07-.16-.14-.24-.13-.15-.31-.18-.35-.4-.01-.06.02-.09.08-.16.14-.14.21-.19.32-.29-.16-.12-.21-.37-.26-.59-.02-.1-.05-.24-.08-.27a.089.089 0 01-.07-.12c.01-.06.08-.09.14-.08.15.03.18.22.23.43.04.18.09.41.19.47.03.02.05.05.05.08.04.01.08.01.12 0 .06-.01.11.03.31.08.07.02.12.02.17.02v-.03c-.01-.02-.01-.05-.01-.08-.01-.08-.02-.14-.02-.21 0-.08-.01-.15-.03-.24-.03-.12-.06-.19-.11-.3-.03-.07-.08-.17-.08-.17l.19-.1s.06.11.09.18c.06.13.09.2.12.34.03.11.03.2.04.28 0 .06.01.11.02.18 0 .03.01.05.02.07v.01l-.01.18c.01.23-.03.63.03.74.03.05.04.07.06.12.02.05.05.09.05.14 0 .15.01.25 0 .41-.01.15-.02.23-.05.38-.02.1-.04.15-.1.23-.06.08-.13.09-.21.15-.12.04-.19.24-.31.38.05.03.08.05.14.07.08.03.14.02.23.02.11.01.17.01.27 0 .13-.01.22-.03.33-.05.01-.03-.01-.07-.01-.1 0-.06.01-.09.03-.14.03-.05.05-.1.1-.12.08-.03.16.03.2-.02.03-.05.01-.07.01-.16-.01-.14-.04-.21-.06-.36-.04-.24-.05-.37-.03-.6.01-.13.01-.21.03-.34.04-.19.11-.28.15-.47.05-.21.06-.35.08-.54h.01v-.02c.01-.05.01-.09.02-.15.04-.19.08-.32.12-.46.03-.09.06-.18.09-.3l.08-.29.21.06-.08.29c-.03.12-.06.21-.09.3-.04.14-.08.26-.12.44-.01.05-.02.09-.02.13 0 .01 0 .02-.01.02.6.07 1.13.04 1.82-.11l.15-.05c.01-.01.02-.01.03-.01.4-.1.72-.25 1.01-.38.15-.07.29-.13.42-.18-.04-.03-.07-.05-.1-.08-.1-.09-.16-.14-.33-.12-.06.01-.12.01-.19.02-.07 0-.11-.04-.11-.1 0-.06.04-.11.1-.11.06 0 .12-.01.17-.01.27-.04.39.07.5.17.05.04.09.08.16.12.2.11.32.23.43.35.13.13.25.26.49.37l.26.13.03.03c.11.07.06.09.1.22.05.13-.01.23.01.37.02.16.1.24.12.41.02.2-.03.31-.07.5-.03.17-.03.28-.1.43-.07.15-.12.23-.25.34-.04.04-.08.05-.12.08-.13.03-.19.24-.32.39.05.03.08.05.14.07.08.03.14.02.23.02.11.01.17.01.27 0 .13-.01.22-.03.33-.05.01-.03 0-.06-.01-.09.04-.14-.01-.35.09-.37.09-.01.15 0 .17-.07.01-.03.01-.07.02-.14.05-.41.09-.79.14-.98.05-.21.05-.26.09-.41.04-.14-.02-.06.09-.37.16-.46-.05-.52-.23-.79-.1-.15-.14-.21-.15-.33-.02-.18.04-.32.03-.6 0-.16-.01-.29 0-.4-.16.07-.31.08-.49.09h-.06c-.3.02-.55-.04-.78-.09a2.18 2.18 0 00-.74-.09c-.14.01-.24.07-.35.15-.1.07-.22.14-.38.18-.15.04-.24.05-.39.06l-.19.02.1-.21a1.953 1.953 0 01-.62-.01l-.21-.04.23-.22c-.04-.01-.07-.02-.1-.03-.1-.04-.16-.08-.26-.15l-.19-.15.24-.04c.14-.02.22-.04.36-.08.13-.03.22-.08.32-.12.14-.07.29-.14.54-.17.23-.02.61-.02 1.69.16.63.1.91.06 1.14-.05.11-.05.16-.14.18-.3.02-.13-.08-.23-.15-.3-.02-.02-.07-.05-.18-.05-.06 0-.11-.05-.1-.11 0-.06.05-.1.11-.1.16.01.26.06.31.1.17.15.25.31.23.49-.02.15-.07.37-.3.47-.27.12-.58.18-1.26.06-1.06-.17-1.43-.17-1.63-.15-.21.02-.33.08-.47.14a1.805 1.805 0 01-.45.16c.08.03.19.05.23.05l.22.03-.21.2h.09c.17 0 .44-.05.44-.06l.21-.04-.12.24c.05-.01.1-.02.16-.03.13-.03.22-.09.32-.16.13-.08.26-.17.45-.18.32-.02.56.04.81.1.23.06.45.11.71.09h.06c.18-.01.31-.02.46-.09l.04-.01c.03-.01.05-.03.07-.04.25-.14.36-.18.52-.54-.1-.04-.08-.15-.08-.25zm-9.55-6.41c.02-.12.08-.19.05-.32-.02-.08-.11-.14-.18-.17-.08-.02-.18-.01-.24.04-.11.08-.1.18-.15.29-.05.12-.04.2-.13.29-.06.06-.12.07-.19.12 0 0 .25.13.43.18.17.05.44.08.44.08-.03-.08-.06-.12-.08-.2-.02-.12.03-.19.05-.31zm-.49.49c-.08 0-.14.06-.13.14 0 .08.06.14.14.13.08 0 .14-.06.13-.14-.01-.07-.07-.13-.14-.13zm7.54 1.07c.03-.01.09-.03.14-.05l.02-.01c.17-.07.32-.16.46-.28-.11-.08-.2-.17-.28-.25-.07-.08-.15-.15-.24-.22-.15.02-.34.11-.56.22-.25.12-.55.25-.9.36.12.08.24.15.38.19v.21c.01.06-.01.1.03.16.02.03.04.05.08.06.06.01.1 0 .14-.03.05-.04.04-.1.05-.16.01-.03 0-.12 0-.15.08.01.11.01.19.01s.11 0 .19-.01c0 .02 0 .08.01.1.01.05-.02.09.01.14.02.05.05.08.11.09.04.01.08 0 .12-.02.06-.04.06-.11.07-.18-.02-.03-.02-.16-.02-.18zm-1.48 2.08c.05.03.08.05.14.07.08.03.14.02.23.02.11.01.17.01.27 0 .13-.01.22-.03.33-.05.01-.03 0-.06-.01-.08 0-.07.01-.11.05-.16.05-.06.1-.08.17-.09.08-.01.16.01.22-.05.08-.07.08-.2.14-.32.19-.37.35-.56.65-.85.13-.13.25-.16.36-.31.05-.07.11-.1.12-.19 0-.04-.02-.07-.03-.11h-.02l-.25-.13c-.03-.01-.06-.03-.09-.05-.16.15-.34.26-.55.35l-.07.04v-.01c-.01.04-.02.08-.04.13-.04.12-.1.19-.16.3-.08.14-.12.21-.22.34-.05.06-.08.08-.12.14-.06.07-.07.12-.13.2-.07.1-.11.16-.2.23-.15.12-.25.02-.45.18h-.01c-.13.05-.2.25-.33.4zm3.98-5.18c0-.07-.01-.14-.02-.22-.01-.09-.04-.14-.07-.2a.707.707 0 00-.12-.18c-.17-.2-.39-.25-.59-.32-.32-.12-.54-.09-.9-.12s-.57-.03-.93-.01c-.44.02-.68.11-1.11.16-.42.05-.65.08-1.07.09-.49.01-.96-.1-1.26-.07-.53.05-.54.17-1.34.23-.42.03-.83.04-.83.04h-.01c0-.02.01-.03.01-.05l-.39-.13h-.01c.13-.05.17-.1.25-.2.06-.08.05-.15.12-.23.06-.07.1-.14.17-.21a.745.745 0 00-.2-.1c-.08-.02-.12-.01-.2 0-.11.01-.17.03-.26.07-.08.04-.14.08-.18.13 0 0-.02-.01-.05-.03.03-.03.05-.07.07-.11.04-.09.05-.15.05-.25 0-.12-.05-.18-.09-.3-.05-.12-.11-.17-.15-.3-.03-.09-.05-.15-.06-.25-.01-.07.04-.15.01-.18-.04 0-.13.06-.18.13-.08.11-.07.21-.08.34 0 .09.01.14.03.23.01.08.04.12.05.2 0 .07.01.12-.03.18-.02.03-.04.04-.07.05-.21-.09-.33-.14-.61-.18 0 0-.08.04-.13.06-.04-.05-.08-.08-.11-.14-.03-.06-.04-.1-.06-.16-.03-.12-.05-.2-.09-.32a.39.39 0 00-.15-.23.331.331 0 00-.2-.09c-.04 0-.07-.02-.09 0-.02.02.05.05.07.09.04.07.04.12.05.2.01.08 0 .12 0 .2 0 .09-.01.14 0 .23.01.1.03.16.07.25.04.1.05.17.13.24.01.01.03.02.03.02-.03.02-.05.03-.08.05-.05.04-.09.05-.13.09-.05.07-.02.14-.05.22-.04.09-.08.13-.14.2-.08.09-.14.13-.23.22s-.13.16-.24.22c-.03.02-.04.03-.07.04-.05.01-.08 0-.12.01-.08.03-.11.12-.17.16.02.05.02.08.05.13.03.07.15.26.18.31.05.07.06.15.12.17.12.04.19.03.29.03.17.04.28.03.44.1.13.06.19.12.32.18.1.05.17.07.28.1.08.02.13.03.22.02.05-.01.08-.03.14-.03h.03l-.08.11v.01l-.01.01h.02l.45.21c-.01.02-.03.05-.03.07-.02.07-.02.15-.01.18.14.41.25.67.32.69.13.05.17.19.25.33-.03.03-.05.04-.07.07-.13.13-.25.22-.36.39-.16.26-.27.26-.07.6.12.2.18.24.33.52.08.14.12.25.17.43.04.16.06.26.07.43l.02.01c0 .13.18.25.29.41.04-.04.07-.06.1-.11.05-.07.06-.13.08-.21l.08-.26c.03-.13.03-.22.04-.33-.03-.02-.07-.01-.1-.02l-.01.01c-.05-.04-.07-.1-.05-.17.02-.08.11-.06.16-.14.06-.1-.07-.16-.14-.24-.13-.15-.31-.18-.35-.4-.01-.06.02-.09.08-.16.14-.14.21-.19.32-.29-.16-.12-.21-.37-.26-.59-.02-.1-.05-.24-.08-.27a.089.089 0 01-.07-.12c.01-.06.08-.09.14-.08.15.03.18.22.23.43.04.18.09.41.19.47.03.02.05.05.05.08.04.01.08.01.12 0 .06-.01.11.03.31.08.07.02.12.02.17.02v-.03c-.01-.02-.01-.05-.01-.08-.01-.08-.02-.14-.02-.21 0-.08-.01-.15-.03-.24-.03-.12-.06-.19-.11-.3-.03-.07-.08-.17-.08-.17l.19-.1s.06.11.09.18c.06.13.09.2.12.34.03.11.03.2.04.28 0 .06.01.11.02.18 0 .03.01.05.02.07v.01l-.01.18c.01.23-.03.63.03.74.03.05.04.07.06.12.02.05.05.09.05.14 0 .15.01.25 0 .41-.01.15-.02.23-.05.38-.02.1-.04.15-.1.23-.06.08-.13.09-.21.15-.12.04-.19.24-.31.38.05.03.08.05.14.07.08.03.14.02.23.02.11.01.17.01.27 0 .13-.01.22-.03.33-.05.01-.03-.01-.07-.01-.1 0-.06.01-.09.03-.14.03-.05.05-.1.1-.12.08-.03.16.03.2-.02.03-.05.01-.07.01-.16-.01-.14-.04-.21-.06-.36-.04-.24-.05-.37-.03-.6.01-.13.01-.21.03-.34.04-.19.11-.28.15-.47.05-.21.06-.35.08-.54h.01v-.02c.01-.05.01-.09.02-.15.04-.19.08-.32.12-.46.03-.09.06-.18.09-.3l.08-.29.21.06-.08.29c-.03.12-.06.21-.09.3-.04.14-.08.26-.12.44-.01.05-.02.09-.02.13 0 .01 0 .01-.01.02.6.07 1.13.04 1.82-.11.03-.01.11-.04.15-.05.01-.01.02-.01.04-.01.4-.1.72-.25 1.01-.38.15-.07.29-.13.42-.18-.04-.03-.07-.05-.1-.08-.1-.09-.16-.14-.33-.12-.06.01-.12.01-.19.02-.07 0-.11-.04-.11-.1 0-.06.04-.11.1-.11.06 0 .12-.01.17-.01.27-.04.39.07.5.17.05.04.09.08.16.12.2.11.32.23.43.35.13.13.25.26.49.37l.26.13c.01.01.02.01.03.02.11.07.06.09.1.22.05.13-.01.23.01.37.02.16.1.24.12.41.02.2-.03.31-.07.5-.03.17-.03.28-.1.43-.07.15-.12.23-.25.34-.04.04-.08.05-.12.08-.13.03-.19.24-.32.39.05.03.08.05.14.07.08.03.14.02.23.02.11.01.17.01.27 0 .13-.01.22-.03.33-.05.01-.03 0-.06-.01-.09.04-.14-.01-.35.09-.37.09-.01.15 0 .17-.07.01-.03.01-.07.02-.14.05-.41.09-.79.14-.98.05-.21.05-.26.09-.41.04-.14-.02-.06.09-.37.16-.46-.05-.52-.23-.79-.1-.15-.14-.21-.15-.33-.02-.18.04-.32.03-.6 0-.16-.01-.29 0-.4-.16.07-.31.08-.49.09h-.06c-.3.02-.55-.04-.78-.09a2.18 2.18 0 00-.74-.09c-.14.01-.24.07-.35.15-.1.07-.22.14-.38.18-.15.04-.24.05-.39.06l-.19.02.1-.21a1.953 1.953 0 01-.62-.01l-.21-.04.23-.22c-.04-.01-.07-.02-.1-.03-.1-.04-.16-.08-.26-.15l-.19-.15.24-.04c.14-.02.22-.04.36-.08.13-.03.22-.08.32-.12.14-.07.29-.14.54-.17.23-.02.61-.02 1.69.16.63.1.91.06 1.14-.05.11-.05.16-.14.18-.3.02-.13-.08-.23-.15-.3-.02-.02-.07-.05-.18-.05-.06 0-.11-.05-.1-.11 0-.06.05-.1.11-.1.16.01.26.06.31.1.17.15.25.31.23.49-.02.15-.07.37-.3.47-.27.12-.58.18-1.26.06-1.06-.17-1.43-.18-1.63-.15-.21.02-.33.08-.47.14a1.805 1.805 0 01-.45.16c.08.03.19.05.23.05l.22.04-.21.2h.09c.17 0 .44-.05.44-.06l.21-.04-.12.24c.05-.01.1-.02.16-.03.13-.03.22-.09.32-.16.13-.08.26-.17.45-.18.32-.02.56.04.81.1.23.06.45.11.71.09h.06c.18-.01.31-.02.46-.09l.04-.01c.03-.01.05-.03.07-.04.25-.14.36-.18.52-.54-.04-.06-.02-.16-.02-.27zm-9.65.8zm0 7.95zm-.31-9.77v.04c0 .12-.03.2-.11.29-.06.07-.11.11-.19.13-.02 0-.04.01-.06.01-.05 0-.09-.02-.13-.03-.02-.01-.05-.02-.08-.03l-.09-.02.05-.07.06-.09c.03-.06.07-.12.15-.17.11-.07.2-.09.33-.07l.07.01zm-.11.09c-.08-.01-.14.01-.23.06-.06.03-.08.08-.11.13-.01.01-.02.03-.02.04.01 0 .02.01.02.01.05.02.08.03.12.02.06-.01.09-.04.14-.09.05-.05.07-.1.08-.17zm-.92.84c.02.04.04.08.03.14-.02.08-.09.13-.19.14-.08 0-.14-.03-.17-.09-.01-.01-.01-.03-.02-.04-.04 0-.08 0-.13-.02-.08-.03-.13-.06-.17-.14l-.07-.11.13.03c.06.01.08.01.13.01.03 0 .04-.01.07-.02.03-.01.06-.03.11-.03h.05c.04 0 .08 0 .13.04.07.02.08.05.1.09zm-.07.11c0-.02 0-.02-.02-.05-.02-.04-.03-.05-.05-.06-.02-.02-.04-.02-.07-.02h-.05c-.03 0-.05.01-.07.02-.02.01-.05.02-.09.03.04.01.07.01.11-.01l.1-.04-.03.11c-.01.02 0 .03 0 .04.01.01.02.03.07.03.04 0 .09-.01.1-.05zm1.1 6.91v.04c0 .12-.03.2-.11.29-.06.07-.11.11-.19.13-.02 0-.04.01-.06.01-.05 0-.09-.02-.13-.03-.02-.01-.05-.02-.08-.03l-.09-.02.05-.07.06-.09c.03-.06.07-.12.15-.17.11-.07.2-.09.33-.07l.07.01zm-.11.09c-.08-.01-.14.01-.23.06-.06.03-.08.08-.11.13-.01.01-.02.03-.02.04.01 0 .02.01.02.01.05.02.08.03.12.02.06-.01.09-.04.14-.09.05-.06.07-.1.08-.17zm-.92.83c.02.04.04.08.03.14-.02.08-.09.13-.19.14-.08 0-.14-.03-.17-.09-.01-.01-.01-.03-.02-.04-.04 0-.08 0-.13-.02-.08-.03-.13-.06-.17-.14l-.07-.11.13.03c.06.01.08.02.13.01.03 0 .04-.01.07-.02.03-.01.06-.03.11-.03h.05c.04 0 .08 0 .13.04.07.03.08.06.1.09zm-.07.12c0-.02 0-.02-.02-.05-.02-.04-.03-.05-.05-.06-.02-.02-.04-.02-.07-.02h-.05c-.03 0-.05.01-.07.02-.02.01-.05.02-.09.03.04.01.07.01.11-.01l.1-.04-.03.11c-.01.02 0 .03 0 .04.01.01.02.03.07.03.04-.01.09-.01.1-.05z"/><path fill="#0065BD" d="M101.87 98.65c-.02.12-.06.19-.04.32.01.08.05.11.08.2 0 0-.27-.03-.44-.08-.17-.05-.43-.18-.43-.18.07-.05.13-.06.19-.12.08-.09.08-.17.13-.29.05-.11.04-.21.15-.29.06-.05.17-.06.24-.04.08.02.16.09.18.17.02.11-.05.18-.06.31zm-.63.63c0 .08.06.14.14.13.08 0 .14-.06.13-.14 0-.08-.06-.14-.14-.13-.07.01-.13.07-.13.14zm-.38-3.58c.07-.03.12-.06.19-.12s.1-.11.17-.18c-.04-.05-.08-.08-.11-.14-.03-.06-.04-.1-.06-.16-.03-.12-.05-.2-.09-.32a.39.39 0 00-.15-.23.331.331 0 00-.2-.09c-.04 0-.07-.02-.09 0-.02.02.05.05.07.09.04.07.04.12.05.2.01.08 0 .12 0 .2 0 .09-.01.14 0 .23.01.1.03.16.07.25.04.1.05.17.13.24 0 .01.01.02.02.03zm.78 2.31zm.72-.77c-.17.28-.37.5-.58.66l-.01.01-.12.09-.01.01h.02l.45.21.02.01c.25-.14.54-.42.76-.85.18-.36.22-.56.29-.89 0-.02.01-.03.01-.05l-.39-.13h-.01l-.07.01c-.12.39-.16.6-.36.92zm.35 4.7zm.2-.27c-.09.1-.12.17-.2.27 0 .13.18.25.29.41.04-.04.07-.06.1-.11.05-.07.06-.13.08-.21l.08-.26c.03-.13.03-.22.04-.33-.03-.02-.07-.01-.1-.02l-.01.01c-.11.09-.18.13-.28.24zm7.29.79c-.12-.06-.19-.07-.32-.12-.13.03-.19.24-.32.39.05.03.08.05.14.07.08.03.14.02.23.02.11.01.17.01.27 0 .13-.01.22-.03.33-.05.01-.03 0-.06-.01-.09v-.01c-.12-.08-.19-.14-.32-.21zm-2.12-.44c-.12-.06-.19-.07-.31-.11h-.01c-.13.03-.19.24-.32.39.05.03.08.05.14.07.08.03.14.02.23.02.11.01.17.01.27 0 .13-.01.22-.03.33-.05.01-.03 0-.06-.01-.08 0-.01 0-.01-.01-.02-.11-.1-.18-.16-.31-.22zm-3.76.46c-.12-.06-.19-.07-.32-.12 0 0-.01 0-.01.01-.12.04-.19.24-.31.38.05.03.08.05.14.07.08.03.14.02.23.02.11.01.17.01.27 0 .13-.01.22-.03.33-.05.01-.03-.01-.07-.01-.1v-.01c-.13-.07-.19-.13-.32-.2zm-2.27-6.59c.05.02.08.03.14.02.07-.02.11-.04.17-.09.03-.02.05-.04.07-.07.03-.03.05-.07.07-.11.04-.09.05-.15.05-.25 0-.12-.05-.18-.09-.3-.05-.12-.11-.17-.15-.3-.03-.09-.05-.15-.06-.25-.01-.07.04-.15.01-.18-.04 0-.13.06-.18.13-.08.11-.07.21-.08.34 0 .09.01.14.03.23.01.08.04.12.05.2 0 .07.01.12-.03.18-.02.03-.04.04-.07.05-.02.01-.04.02-.05.04-.11.14-.02.3.12.36zm-.13 10.39c-.02-.08-.11-.14-.18-.17-.08-.02-.18-.01-.24.04-.11.08-.1.18-.15.29-.05.12-.04.2-.13.29-.06.06-.12.07-.19.12 0 0 .25.13.43.18.17.05.44.08.44.08-.03-.08-.06-.12-.08-.2-.02-.12.02-.19.04-.32.02-.12.09-.19.06-.31zm-.54.81c-.08 0-.14.06-.13.14 0 .08.06.14.14.13.08 0 .14-.06.13-.14-.01-.07-.07-.13-.14-.13zm-.52-3.45c.07-.03.12-.06.19-.12s.1-.11.17-.18c-.04-.05-.08-.08-.11-.14-.03-.06-.04-.1-.06-.16-.03-.12-.05-.2-.09-.32a.39.39 0 00-.15-.23.331.331 0 00-.2-.09c-.04 0-.07-.02-.09 0-.02.02.05.05.07.09.04.07.04.12.05.2.01.08 0 .12 0 .2 0 .09-.01.14 0 .23.01.1.03.16.07.25.04.1.05.17.13.24 0 .02.01.03.02.03zm.78 2.31zm.72-.76c-.17.28-.37.5-.58.66l-.01.01-.12.09-.01.01h.02l.45.21.02.01c.25-.14.54-.42.76-.85.18-.36.22-.56.29-.89 0-.02.01-.03.01-.05l-.39-.13h-.01l-.07.01c-.12.38-.16.6-.36.92zm.55 4.42c-.09.1-.12.17-.2.27 0 .13.18.25.29.41.04-.04.07-.06.1-.11.05-.07.06-.13.08-.21l.08-.26c.03-.13.03-.22.04-.33-.03-.02-.07-.01-.1-.02l-.01.01c-.11.09-.18.14-.28.24zm-.2.28zm7.49.52c-.12-.06-.19-.07-.32-.12-.13.03-.19.24-.32.39.05.03.08.05.14.07.08.03.14.02.23.02.11.01.17.01.27 0 .13-.01.22-.03.33-.05.01-.03 0-.06-.01-.09v-.01c-.12-.09-.19-.15-.32-.21zm-2.12-.45c-.12-.06-.19-.07-.31-.11h-.01c-.13.03-.19.24-.32.39.05.03.08.05.14.07.08.03.14.02.23.02.11.01.17.01.27 0 .13-.01.22-.03.33-.05.01-.03 0-.06-.01-.08 0-.01 0-.01-.01-.02-.11-.09-.18-.15-.31-.22zm-3.76.47c-.12-.06-.19-.07-.32-.12 0 0-.01 0-.01.01-.12.04-.19.24-.31.38.05.03.08.05.14.07.08.03.14.02.23.02.11.01.17.01.27 0 .13-.01.22-.03.33-.05.01-.03-.01-.07-.01-.1v-.01c-.13-.08-.19-.14-.32-.2zm-2.27-6.59c.05.02.08.03.14.02.07-.02.11-.04.17-.09.03-.02.05-.04.07-.07.03-.03.05-.07.07-.11.04-.09.05-.15.05-.25 0-.12-.05-.18-.09-.3-.05-.12-.11-.17-.15-.3-.03-.09-.05-.15-.06-.25-.01-.07.04-.15.01-.18-.04 0-.13.06-.18.13-.08.11-.07.21-.08.34 0 .09.01.14.03.23.01.08.04.12.05.2 0 .07.01.12-.03.18-.02.03-.04.04-.07.05-.02.01-.04.02-.05.04-.11.13-.02.3.12.36z"/><path fill="#703D29" d="M126.3 104.65c0-.04.01-.07.01-.11 0-.42-.17-.81-.47-1.08l-.09-.09-.02-.02c-.01-.16-.06-.3-.12-.44-.17-.34-.5-.61-.93-.73-.1-.03-.19-.05-.3-.06-.04 0-.09-.01-.13-.01-.15 0-.29.03-.43.07 0 0-.01 0-.01.01-.26.09-.48.26-.64.48-.08.11-.14.23-.19.35-.01-.01-.02-.01-.02-.02-.01-.01-.02-.01-.02-.02-.02-.01-.04-.03-.05-.04-.07-.06-.14-.12-.2-.18-.9-.95-1.42-2.24-1.43-3.55-.01-1.37.54-2.68 1.1-3.23l.01-.01c.02.02.04.05.06.07.29.29.69.41 1.07.41.15 0 .3-.02.43-.05.39-.1.71-.35.91-.71.23-.4.28-.89.14-1.35-.07-.22-.16-.4-.3-.59-.1-.13-.28-.36-.45-.48-.06-.05-.12-.1-.18-.14 1.44-.4 4.57-1.5 4.54-6.7-.01-1.6-.41-2.96-1.18-4.07-.3-.53-.66-.99-1.08-1.39a5.097 5.097 0 00-3.73-1.36h-.42v.02c-.51.05-.99.19-1.43.45.11-.53.03-1.05-.23-1.39-.2-.26-.49-.39-.83-.39-.37-.06-.69.06-.89.35-.12.17-.17.37-.17.56-.1-.19-.18-.4-.19-.61-.05-1.34 1.43-2.79 2.5-3.85.4-.39.75-.73.98-1.03l.01-.02c1.02-1.27 1.49-1.86 1.51-3.21.01-.94-.81-1.9-1.69-2h-.01c-.36-.87-1.12-1.52-1.94-1.52v.02c-.03-.01-.06-.01-.09-.02-.05-.09-.11-.19-.17-.28-.14-.21-.31-.39-.49-.54-.68-.6-1.62-.67-2.46-.16l-.05-.05c-.53-.7-1.26-.81-2.18-.34 0 0-.01 0-.01.01l-.03-.03c-.07-.07-.15-.14-.23-.2-.36-.27-.8-.38-1.23-.31-.49.08-.94.38-1.25.84l-.1.15c-.14.01-.28.03-.42.06-.29.07-.57.19-.8.37-.35.26-.54.51-.62.78-.13.44-.11.85.04 1.18.02.05.04.09.07.14.04.1.12.21.25.34.34.35.65.48.9.52-1.02.78-2.15 1.11-3.81 1.17-.59.02-1.79-.19-2.5-.68-.07-.05-.12-.1-.17-.15-.35-.39-.43-.83-.25-1.38.06-.18.19-.45.33-.77.39-.86.93-2.04.97-2.96.07-1.8-.58-3.06-1.84-3.56-.08-.03-.15-.07-.23-.09-1.55-.55-3.17.37-4.47 1.11-.51.29-.99.56-1.37.69-.71.24-1.06.26-1.7.26-.64 0-1.01-.03-1.72-.26-.39-.13-.87-.4-1.38-.69-.43-.25-.9-.51-1.39-.74-.18-.09-.37-.16-.56-.23-.82-.3-1.68-.44-2.52-.14-.06.02-.11.04-.17.07-.16.07-.33.16-.48.27-.69.48-1.29 1.39-1.22 3.13.04.92.58 2.09.97 2.95.15.32.27.6.33.77.23.7.04 1.27-.6 1.72-.7.5-1.91.7-2.5.69-1.59-.05-2.7-.36-3.68-1.07l-.11-.08c.03 0 .07.01.1.01.21 0 .74-.05 1.12-.55.29-.38.37-.9.2-1.47-.06-.21-.2-.43-.41-.63-.05-.05-.11-.1-.17-.15-.06-.06-.13-.12-.21-.18-.01-.01-.02-.01-.03-.02a2.13 2.13 0 00-1.19-.43h-.05l-.03-.04-.07-.1c-.31-.46-.76-.76-1.25-.84-.44-.07-.87.04-1.23.31-.1.07-.18.15-.27.23-.92-.41-1.67-.28-2.22.37l-.01.01c-.05-.03-.11-.06-.16-.09a2.19 2.19 0 00-.46-.18c-.85-.23-1.7.08-2.24.88-.07.1-.13.2-.18.3l-.03.06c-.02 0-.03.01-.05.01-.85.15-1.53.72-1.84 1.48-.15.02-.3.05-.45.11-.14.05-.28.12-.41.21-.5.32-.88.86-.88 1.5 0 .9.24 1.48.72 2.16.19.27.43.57.7.9.02.03.04.05.06.08l.08.13c.22.28.54.6.91.97 1.04 1.06 2.47 2.5 2.43 3.87-.01.16-.04.33-.09.49-.03.01-.05.04-.06.07-.06-.14-.15-.27-.25-.38a.952.952 0 00-.4-.23c-.07-.02-.13-.03-.2-.04-.03 0-.06 0-.09-.01h-.03c-.06 0-.12.01-.18.02-.44.08-.78.42-.92.9a1.58 1.58 0 000 .86c.01.03.02.06.03.08-.02-.02-.05-.03-.07-.04-.08-.05-.16-.1-.25-.15-.43-.22-.91-.33-1.41-.35h-.01c-.54-.02-1.11.08-1.65.26-.25.09-.5.19-.74.31-.31.16-.62.35-.89.57-.2.16-1.94 1.6-2.44 4.01-.13.65-.21 1.14-.2 1.75.01.49.06.94.17 1.44l.06.27c.07.28.15.55.24.81.12.33.25.64.4.92.11.2.22.4.35.58.1.15.19.26.27.36.06.08.13.15.19.21l.03.03c0 .01 0 .01.01.02.21.27.48.54.8.81l.3.24c.49.37.99.64 1.51.82.01 0 .03.01.04.01-.05.02-.11.05-.16.08-.17.11-.32.25-.46.44-.15.19-.24.37-.31.59-.08.25-.09.52-.05.77 0 .02.01.05.01.07 0 .01.01.03.01.04.03.18.1.36.19.53.16.29.52.58.86.74.08.04.15.07.23.09.15.04.3.06.44.06.38 0 .75-.12 1-.35.04-.03.07-.07.11-.11.15.19.29.42.41.69.3.64.51 1.48.51 2.34a5.376 5.376 0 01-1.2 3.29c-.16.19-.33.37-.51.53-.06.05-.11.1-.17.15-.01-.01-.01-.03-.02-.04-.12-.24-.3-.45-.52-.59-.01-.01-.03-.02-.04-.03-.03-.02-.05-.03-.08-.05l-.12-.06h-.01-.01c-.03-.01-.05-.02-.08-.03h-.01c-.01 0-.02-.01-.03-.01-.01 0-.03-.01-.04-.01-.01 0-.02-.01-.03-.01-.1-.02-.2-.04-.31-.04-.59 0-1.09.38-1.28.93-.02.06-.04.12-.05.19-.03.03-.06.05-.09.08-.05.05-.1.1-.14.15a1.44 1.44 0 00-.32.9c0 .03.01.06.01.08 0 .04.01.07.01.1l-.05.05c-.07.06-.12.13-.18.2-.07.09-.13.18-.17.29-.04.08-.06.17-.09.25-.04.12-.07.24-.08.36-.01.06-.01.12-.01.18v.18c0 .03.01.06.01.08 0 .03.01.06.01.1.01.03.01.06.02.08l.03.11c0 .02.01.03.02.05.03.08.06.16.1.24.09.17.2.33.34.47.26.27.6.48.99.59.19.06.4.09.61.09.09 0 .19-.01.29-.02h.01c-.03.02-.06.05-.08.07-.39.34-.71.71-.99 1.13-.32.48-.57 1.02-.79 1.65-.2.57-.31 1.32-.29 2 .01.51.07 1.05.17 1.56.12.67.31 1.28.51 1.68.03.05.06.12.1.2.22.49.65 1.45 1.75 2.49.91.92 2.12 1.69 3.6 2.3a12.347 12.347 0 001.4.46c2.24.6 5.04.78 7.36.88 3.11.12 6.06.24 7.99 1.95.05.04.09.09.14.13.06.05.11.11.17.17 0 0 .01 0 .01.01-.02 0-.03.01-.05.01-.37.12-.69.34-.94.66-.12.15-.22.32-.3.51-.1.24-.16.52-.18.84-.03.54.15 1.07.51 1.48.03.04.07.07.11.11.02.03.04.05.06.08.01.02.03.03.05.05.4.44 1.01.73 1.66.81l.01.01c.2.34.83.83 1.52.9.13.01.26.02.39.02.75 0 1.36-.23 1.96-.74.05-.04.09-.09.14-.13l.01.01c.13.16.28.33.45.49l.1.1c.35.36.78.72 1.23 1 .23.14.47.27.7.36.03.01.07.03.1.04l.04.01.04-.01c.05-.02.11-.04.16-.06.01 0 .02-.01.03-.01.01-.01.03-.01.04-.02.01 0 .02-.01.03-.01.93-.42 1.83-1.25 2.3-1.92l.01-.01c.06.06.11.12.17.17.21.17.41.31.63.42.41.21.84.31 1.32.31.13 0 .25-.01.39-.02.67-.07 1.22-.51 1.45-.91.7-.06 1.34-.37 1.77-.86.36-.42.54-.94.51-1.48a2.6 2.6 0 00-.18-.84c-.16-.38-.47-.76-.81-1.03l-.01.01c-.11-.09-.23-.17-.36-.23 1.88-2.07 5.03-2.2 8.38-2.33 2.84-.11 6.39-.37 8.76-1.34 3.81-1.57 4.81-3.78 5.18-4.61.04-.08.07-.15.09-.2.37-.72.66-2.08.69-3.25.02-.68-.09-1.44-.29-2.01-.4-1.15-.93-2-1.66-2.69l-.01.01c-.13-.13-.27-.26-.42-.38.24.06.47.09.69.09.22 0 .43-.03.62-.09.56-.17.99-.52 1.21-.98.22-.46.21-1.01-.04-1.57a2.71 2.71 0 00-.47-.64zm-1.67 3.9c.57.62.97 1.33 1.29 2.26.19.54.29 1.26.28 1.91-.03 1.27-.36 2.56-.66 3.13-.03.06-.06.13-.1.22-.36.8-1.32 2.94-5.03 4.47-2.33.96-5.85 1.21-8.66 1.32-3.49.14-6.79.27-8.73 2.6a1.557 1.557 0 00-1.47.49c-.31.33-.46.77-.42 1.21.02.16.06.31.13.45v.01c.01.03.03.06.04.08v.01c.16.36.55.76 1.14.76.05 0 .1 0 .16-.01.26-.03.48-.15.62-.34.14-.18.19-.42.14-.67-.01-.08-.05-.15-.08-.23-.01-.03-.03-.05-.04-.09 0-.01-.11-.24-.28-.36l-.03-.03a.109.109 0 00-.15 0c-.04.04-.04.11 0 .15.03.03.05.05.07.08-.02.03-.02.06 0 .1.14.28.16.52.07.7-.09.16-.28.27-.52.3a.86.86 0 01-.67-.18.893.893 0 01-.25-.32c0-.01-.01-.01-.01-.02-.06-.12-.1-.26-.12-.41-.04-.37.1-.75.36-1.04.27-.29.64-.45 1.02-.45.69.01 1.3.44 1.59 1.12.09.22.15.47.16.77.03.48-.14.96-.46 1.33-.41.48-1.05.77-1.75.8-.59.02-1.16-.2-1.62-.64a2.71 2.71 0 01-.82-1.9c0-2.4 3.49-3.87 5.34-4.31 1.84-.44 2.97-.61 6.06-.79.44-.02.85-.04 1.24-.05.7-.02 1.36-.04 2.21-.13l.13-.01c1.13-.12 1.74-.18 2.94-.46 1.71-.4 3.12-1.11 4.3-2.19 1.02-.92 1.58-1.58 2.04-2.81.39-1.06.6-3.21-.43-4.82-.86-1.33-2.06-2.12-3.59-2.34-1.34-.19-2.49.42-3.15 1.68-.27.52-.26 1.34-.09 1.9-.34-.51-.61-1.31-.53-2.14v-.01c.02-.23.08-.47.17-.7.23-.6.61-1.01 1.26-1.35l.02.02c.02-.02.03-.04.05-.06l.06-.03c2.01-.99 4.18.19 5.02.74.05.03.12.02.15-.03s.02-.12-.03-.15c-.8-.53-2.77-1.59-4.72-.96.41-.31.98-.62 1.62-.7.87-.11 1.67.08 2.7.64.77.42 1.38.84 1.86 1.33.07.04.12.1.17.15zm-49.2.32c-.01-.04-.03-.07-.05-.11-.14-.4-.22-.82-.3-1.39-.04-.32-.04-.82-.04-.83V72.13h41.6v34.42l.01.1c0 .16-.01.5-.04.73-.13.98-.29 1.5-.7 2.31-.4.8-.72 1.22-1.4 1.9-.69.68-1.16.97-1.95 1.36-.82.41-1.35.54-2.2.73-.9.2-1.42.24-2.31.28-.23.01-.44.02-.64.02-.47 0-.87-.03-1.42-.07h-.07c-.48-.03-.84-.08-1.22-.14-.32-.05-.65-.09-1.07-.13-.16-.01-.3-.03-.44-.04-.48-.05-.87-.08-1.43-.08h-.03c-.78 0-1.22.01-1.97.14-.68.12-1.1.22-1.78.5-.8.33-1.77.89-2.12 1.24-.35-.35-1.32-.91-2.12-1.24-.68-.28-1.1-.38-1.78-.5-.75-.13-1.19-.14-1.97-.14h-.04c-.56 0-.95.04-1.43.08-.14.01-.28.03-.44.04-.42.04-.75.08-1.07.13-.38.05-.74.1-1.22.14h-.06c-.56.04-.96.07-1.43.07-.2 0-.41-.01-.65-.02-.89-.04-1.41-.08-2.31-.28-.86-.19-1.39-.32-2.2-.73-.77-.38-1.23-.67-1.88-1.3l-.08-.08c-.31-.31-.53-.56-.72-.82l-.02.01c-.24-.31-.43-.64-.65-1.07-.12-.23-.21-.44-.29-.65a.865.865 0 01-.07-.17zm-1.56-1.57c-.33-.7-.95-1.06-2-1.17-.42-.05-.84-.02-1.26.06h.01c.29-.21.53-.42.74-.63 1.02-1.06 1.68-2.33 2.02-3.87.41-1.89 0-3.77-.09-4.13-.47-1.94-1.72-3.65-3.09-4.33.59-.13 1.09-.43 1.43-.86.36-.46.52-1.06.44-1.69-.12-.93-.95-1.71-1.62-1.8-.01 0-.03 0-.04-.01h-.02c-.35-.05-.69.03-.97.23-.37.26-.59.82-.51 1.3.01.09.04.17.07.25-.3.04-.55-.01-.78-.13a.55.55 0 01-.09-.07c-.09-.06-.19-.13-.26-.2-.12-.12-.23-.24-.34-.4-.36-.53-.64-1.21-.77-1.87-.19-.97-.12-1.91-.06-2.22.18-.88.44-1.56.77-2.02.34-.48.79-.82 1.38-1.05-.06.2-.07.41-.05.63v.02c0 .03.01.05.01.08.14.97.85 1.56 1.91 1.58h.03c.7 0 1.34-.44 1.67-1.16.37-.79.3-1.72-.15-2.49.25.12.54.19.84.19.21 0 .42-.04.62-.13.19-.08.35-.19.5-.3.41.44.61.98.61 1.62 0 .94-.8 2.67-2.96 3.27-.12.03-.24.06-.36.07-.19.03-.29.04-.43.04h-.13c-.22-.01-.36-.02-.6-.07-.16-.04-.26-.07-.43-.14-.1-.04-.18-.09-.25-.13a.11.11 0 00.02.15c.3.26 1 .46 1.68.46.23 0 .46-.02.67-.08 1.31-.33 2.07-1.07 2.51-1.71.22.21.31.47.31.86 0 .33-.23.78-.6 1.2-.56.63-1.62 1.31-2.9 1.32-.65.01-1.23-.14-1.76-.44-.08-.04-.16-.08-.26-.15a2.71 2.71 0 01-.49-.39c-.2-.19-.29-.32-.45-.55-.15-.22-.23-.36-.32-.6-.04-.1-.06-.18-.08-.26-.05.01-.07.05-.07.1h-.01l.06.21c.21.68.7 1.32 1.38 1.77.62.41 1.29.61 2.05.61h.05c1.34-.02 2.46-.73 3.05-1.39.25.32.35.71.35 1.26 0 .89-.36 1.59-1.21 2.33-.18.16-.37.3-.58.42-.02.01-.05.02-.07.03a.1.1 0 00-.06.13c.11-.02.2-.04.33-.08.1-.03.17-.07.25-.11.05-.02.09-.05.15-.07.01 0 .01-.01.02-.01.84.69 1.18 1.37 1.18 2.38 0 1.33-.69 2.06-1.28 2.43-.05-.07-.1-.14-.16-.21l-.02-.02c-.05-.06-.1-.11-.17-.18l-.06-.06c-.08-.08-.14-.14-.23-.22-.08-.06-.13-.11-.2-.15-.01 0-.02-.01-.02-.02-.02.04-.01.08.01.11 1.38 1.71 2.1 2.7 2.14 4.73.04 1.74-.46 3.06-1.7 4.56-.01.02-.02.04-.02.06-.04.04-.04.11 0 .15.02.02.05.03.08.03s.05-.01.07-.03c.48-.44.96-1.07 1.23-1.61.14-.28.25-.56.35-.85v4.66c0 .01 0 .53.05.86.04.26.07.5.12.71-.26-.31-.61-.57-1.06-.79-.08 0-.1-.01-.12-.02zm-4.54-25.37c-.07.05-.13.1-.19.16-.21.05-.51.14-.83.29-.51.24-.93.59-1.24 1.03-.34.48-.61 1.19-.8 2.1-.07.32-.14 1.3.05 2.3.14.69.43 1.4.8 1.95.11.16.23.33.36.47.39.39.75.64 1.26.64.1 0 .21-.01.33-.03.14.19.33.32.59.4.1.03.19.03.28.02-.33.2-.79.27-1.12.24-1.56-.15-2.3-1.37-2.54-1.77-.33-.55-.58-1.25-.74-2.06-.05-.24-.08-.49-.11-.77l-.02-.13c-.03-.28-.02-1.16.22-2.08.09-.35.16-.56.31-.88.12-.25.31-.6.46-.81.12-.16.27-.36.47-.52.17-.14.34-.28.52-.4 1.02-.64 2.02-.7 2.72-.44-.2.01-.47.08-.78.29zm5.49-.38c-.12-.21-.26-.41-.44-.59.17-.16.32-.35.44-.56v1.15zm0 10.27c-.21-.41-.52-.79-.97-1.15.43-.39.76-.74.97-1.13v2.28zm0-4.84c-.06-.1-.13-.19-.21-.27.08-.1.15-.2.21-.3v.57zm0-2.4c-.06-.07-.12-.13-.19-.19.07-.12.14-.24.19-.35v.54zm0 13.21c-.24-.7-.6-1.3-1.06-1.93.47-.3.83-.71 1.06-1.18v3.11zm16.94-26.67c.11.35.31.62.56.79h-4.1c1.42-.4 2.62-1.04 3.51-1.53-.06.25-.05.5.03.74zm-1.7-2.61c-.03-.87-.4-1.44-.81-2.05-.27-.41-.55-.84-.72-1.37-.26-.81-.32-1.41.2-1.91.42-.41.92-.47 1.62-.2.01 0 .02.01.03.01.35.14.71.34 1.12.58 1.12.63 2.5 1.41 4.52 1.44h.01v-.1.1c2.02-.03 3.41-.81 4.52-1.44.43-.24.8-.45 1.16-.59.63-.25 1.1-.22 1.5.1.42.48.36 1.05.11 1.82-.17.53-.45.95-.72 1.36-.4.61-.78 1.19-.81 2.06-.01.39.06.6.13.83.02.05.03.1.05.15-1.85-.86-3.91-1.77-5.01.05-.32.53-.3 1.23.04 1.83.18.32.43.57.73.73h-3.35c.46-.35.64-.64.7-1.41.07-.91-.4-1.42-.83-1.76-1.05-1.01-2.73-.31-4.29.42.08-.16.11-.35.1-.65zm10.06 2.78c.08-.45.08-.81-.15-1.21 1.12.63 2.64 1.44 4.48 1.83h-4.7c.18-.17.32-.34.37-.62zm11.64-5.25c.28-.41.67-.68 1.11-.75.38-.06.76.03 1.07.27.02.02.04.04.07.06l.03.03c.04.03.08.06.12.1.63.62.86 1.58.62 2.75-.14.69-.6 1.31-1.33 1.78l.02.04c-.04.03-.06.09-.03.14.02.03.06.05.09.05.02 0 .04-.01.06-.02.56-.34 1.23-.86 1.47-1.85.28-1.13.06-2.16-.57-2.86.74-.37 1.3-.31 1.75.18 0 .03.01.05.04.07.03.02.06.05.09.08.01.01.01.02.02.02.53.73.63 1.74.51 2.37-.18.9-.45 1.26-1.14 1.89-.01 0-.01.01-.01.02l-.01.01c0 .01 0 .01-.01.02 0 .01 0 .02-.01.02v.05c0 .01.01.02.01.03l.01.01h.01c.02.02.05.03.07.03h.01c.02 0 .03-.01.05-.02h.01c.79-.59 1.09-1.02 1.31-1.92.17-.68.08-1.72-.49-2.46.58-.34 1.21-.38 1.75-.13.15.07.3.17.43.28.13.12.26.25.36.41.42.62.56 1.15.52 2.01-.05 1.21-.68 2.13-1.38 2.69-.01.01-.02.02-.03.02-.16.12-.31.23-.47.32-.05.03-.07.09-.04.15.02.04.06.05.09.05h.01c.01 0 .01.01.02.01.02 0 .04-.01.06-.02.15-.1.31-.21.47-.34.01-.01.02-.01.03-.02.77-.62 1.51-1.53 1.56-2.76.02-.66-.05-1.14-.26-1.61.98.26 1.76 1.22 1.76 2.23 0 1.35-.42 1.91-1.1 2.84l-.17.23c-.21.28-.53.62-.91 1.01-.03.03-.05.06-.08.08l-.2.2-.2.2.01.01c-.7.75-1.45 1.63-1.88 2.6V71.9h-7.81a7.12 7.12 0 002.15-.97c1.37-.93 2.69-2.1 2.05-3.66-.2-.48-.57-.79-.78-.93l-.01.01c-.16-.1-.33-.18-.52-.23-.12-.03-.25-.05-.38-.06v-.02zm7.88 12.48c.36.06.64.35.75.75.11.4.06.97-.41 1.41l-.02.02c-.32.28-1.05.62-1.7.33-.75-.34-1.18-.94-1.33-1.89v-.04c-.04-.26-.06-.54-.06-.85 0-.32.05-.64.14-.95h.02v-.05c.41-1.33 1.53-2.53 2.43-3.47.41-.41.77-.79 1.12-1.19l.03-.04c.56-.66 1.32-1.56 1.32-3.01 0-.28-.04-.54-.12-.8.63.22 1.1.86 1.1 1.57 0 1.27-.34 1.79-1.38 3.09-.23.28-.57.62-.97 1.01-1.17 1.15-2.62 2.57-2.57 4.01.02.64.51 1.31 1.04 1.48.12.04.25.06.39.04l-.02-.21a.43.43 0 01-.16 0c-.02 0-.04-.01-.06-.01-.03-.01-.06-.01-.08-.02h-.01a.463.463 0 01-.21-.18c-.12-.21-.1-.52.06-.74.1-.13.31-.34.7-.26zm4.98 23.87c.31.11.56.35.68.67a1.4 1.4 0 00-.61-.14c-.7 0-1.29.51-1.41 1.18-.11-.18-.17-.39-.17-.61 0-.64.51-1.17 1.14-1.17.07 0 .13.01.19.02.06.02.12.03.18.05zm-7.08 5.04l.01.01c-.22.13-.42.26-.59.41.01-.08.02-.16.04-.25.04-.33.05-.85.05-.86l-.01-.11V102c.28.76.73 1.5 1.37 2.27.02.03.05.04.08.04.02 0 .05-.01.07-.02a.1.1 0 00.01-.15c-1.24-1.5-1.73-2.82-1.7-4.56.04-2.03.76-3.02 2.14-4.73.04-.05.03-.11-.02-.15-.05-.04-.11-.03-.15.02-.25.31-.48.6-.69.88-.48-.31-1.04-.85-1.22-1.77v-.01c-.04-.2-.06-.42-.06-.65 0-1.05.49-2.08 1.12-2.4.03.02.05.04.08.05.2.15.34.17.46.19.08.01.15.02.24.07.02.01.04.01.05.01.04 0 .07-.02.09-.05.03-.05.01-.12-.04-.15a.739.739 0 00-.31-.1c-.11-.02-.2-.03-.37-.16-.04-.02-.08-.05-.13-.08l-.01-.04c-.01 0-.02.01-.03.01-.44-.35-.92-1.12-1.05-1.96-.07-.47-.06-1.13.39-1.67.74.71 2 1.21 3.12 1.22h.05c.76 0 1.44-.2 2.05-.61.68-.45 1.14-1.11 1.34-1.89l-.21-.05a2.96 2.96 0 01-1.26 1.76c-.59.4-1.24.59-1.99.58-1.3-.02-2.49-.65-3.06-1.24-.42-.44-.46-.94-.45-1.28.01-.4.09-.64.3-.85.09.17.2.28.32.4l.14.14c.53.56 1.27.98 2.14 1.22.26.07.52.11.78.11.2 0 .41-.02.6-.07.28-.04.52-.11.72-.24l-.02-.03c.05-.03.1-.05.14-.08.05-.03.07-.1.03-.15-.03-.05-.1-.07-.15-.03-.25.15-.51.26-.79.32-.4.05-.87.01-1.37-.13-1.14-.32-1.91-.96-2.37-1.62l-.12-.18c-.33-.53-.47-1.07-.47-1.47 0-.73.26-1.32.79-1.79.18.15.38.28.61.38.21.1.42.13.62.13.23 0 .45-.05.62-.11-.44.83-.36 1.68-.1 2.26.13.29.31.53.52.72.35.37.82.58 1.31.58h.03c.72-.01 1.29-.35 1.57-.91.27-.54.23-1.21-.1-1.66-.01-.02-.04-.03-.06-.04-.04-.06-.08-.11-.13-.17 1.04.38 2.6 1.45 2.6 4.42 0 1.65-.21 3.44-2.45 4.33.11-.13.19-.29.22-.47.08-.43-.09-1-.65-1.32-.46-.26-1.02-.26-1.5-.02-.52.26-.87.78-.95 1.42-.08.66.09 1.28.49 1.75.37.44.91.72 1.55.83-1.58.59-2.82 2.58-3.28 4.47-.09.36-.49 2.25-.09 4.14.33 1.54.99 2.81 2.02 3.87.24.24.52.48.88.73-.53-.14-1.03-.18-1.54-.12-1.03.14-1.92.88-2.27 1.29zm-15.45 21.53c-.22.26-.67.55-1.15.59-.88.09-1.53-.11-2.18-.67-.67-.57-1.09-1.53-1.09-2.5 0-.48.1-1.14.39-1.6 1.02-1.6 2.19-2.13 3.83-2.85.05-.02.08-.09.05-.14-.02-.05-.09-.08-.14-.05-1.6.71-2.87 1.27-3.92 2.93-.31.49-.42 1.21-.42 1.71 0 .32.05.63.12.93-1.11-.27-1.61-.96-1.61-1.56 0-.19 0-.36.03-.52.14-.87.73-1.51 1.43-2.2.08-.07.16-.15.25-.22.07-.06.15-.13.21-.19.18-.17.41-.32.64-.46.06-.04.12-.08.18-.11.8-.51 1.87-.97 3.28-1.4l.41-.12c.15-.04.3-.08.44-.11l.16-.03c.51-.11 1.01-.19 1.45-.26l.4-.06c.65-.11 1.24-.15 1.93-.19.2-.01.4-.03.62-.04.94-.07 1.7-.05 2.44-.03.28.01.56.01.84.01h.67c.54.01 1.09.01 1.74-.02.23-.01.43-.02.61-.02.55-.02.98-.04 1.62-.11 2.25-.26 3.72-.68 4.93-1.4 1.76-1.05 3.14-3.69 2.28-6.12l-.02-.05c-.05-.16-.15-.45-.36-.81-.08-.14-.22-.32-.33-.47l-.06-.09c-.29-.39-.6-.58-.9-.74-.77-.43-1.7-.28-2.15.34-.32.44-.42.83-.31 1.23.02.07.05.15.09.21.03.05.1.07.15.03a.1.1 0 00.05-.11c0-.01-.01-.03-.01-.04a.774.774 0 01-.07-.16l.02-.01a.897.897 0 01-.01-.46c.04-.12.13-.21.26-.28.18-.09.4-.11.55-.1.05.01.09.01.13.02.12.04.61.26.63.95 0 .1 0 .21-.02.33 0 .01-.18.99-1.48.99h-.06c-.04 0-.09-.01-.14-.01-.02 0-.05-.01-.07-.01-.03-.01-.06-.01-.09-.02-.59-.14-1.04-.61-1.2-.91-.25-.47-.32-1.44-.03-1.99.63-1.19 1.67-1.75 2.93-1.56 1.46.21 2.62.97 3.44 2.25.99 1.54.79 3.62.41 4.63-.44 1.2-.97 1.81-1.98 2.73-1.15 1.05-2.53 1.75-4.21 2.14-1.18.27-1.8.34-2.91.45l-.13.01c-.84.09-1.5.11-2.19.12-.39.01-.8.02-1.24.05-3.1.17-4.24.35-6.1.79-.88.21-2.21.68-3.32 1.38-1.45.91-2.18 1.97-2.18 3.14 0 .75.33 1.52.89 2.06l.03.03c.43.45.98.71 1.55.75zm-4.43-1.38c.15.43.37.82.65 1.15-.47.7-1.47 1.61-2.46 1.99-.62-.24-1.25-.69-1.75-1.17-.22-.23-.41-.47-.55-.68l-.04-.06c.25-.29.45-.63.59-1.01l.05-.01c1.19-.24 1.64-.87 1.81-1.27.27.47.83.89 1.7 1.06zm21.21-17.06zm-2.14 1.5c.06.12.16.23.19.26.26.42 1.15 1.05 1.93 1.06h.04c1.48 0 1.69-1.16 1.69-1.17.17-1.05-.21-1.35-.73-1.64-.01 0-.08-.04-.21-.08-.01 0-.01 0-.02-.01-.03-.01-.06-.02-.1-.02-.02 0-.04-.01-.06-.01-.1-.01-.21-.01-.32 0 .34-.27 1.05-.53 1.66-.19.27.15.53.31.77.67l.03-.02.03.04c.11.14.24.32.31.44.2.33.29.61.34.77l.02.06c.82 2.32-.49 4.83-2.17 5.83-1.18.7-2.62 1.11-4.83 1.37-.64.07-1.06.09-1.6.11-.19.01-.39.01-.62.02-.64.03-1.19.02-1.73.02h-.67c-.28 0-.55 0-.83-.01-.74-.02-1.51-.03-2.46.03-.22.02-.42.03-.62.04-.7.05-1.3.09-1.96.2l-.4.06c-.44.07-.94.15-1.46.27l-.16.03c-.15.03-.31.07-.46.11l-.41.12c-1.44.44-2.53.91-3.34 1.43-.06.04-.12.07-.18.11-.24.15-.49.31-.68.49-.06.06-.13.12-.2.18-.09.08-.18.15-.26.23-.57.56-1.1 1.13-1.36 1.83-.28-.61-.77-1.12-1.28-1.63l-.19-.19c-.07-.07-.14-.12-.21-.18-.08-.07-.16-.14-.25-.23-.18-.18-.42-.33-.66-.48-.07-.04-.14-.08-.2-.13-.81-.52-1.91-.99-3.34-1.43l-.41-.12c-.16-.05-.31-.08-.46-.11l-.16-.03c-.51-.12-1.02-.2-1.46-.27l-.4-.06c-.66-.11-1.26-.15-1.96-.2-.2-.01-.4-.03-.62-.04-.95-.07-1.72-.05-2.46-.03-.28.01-.55.01-.83.01h-.67c-.53.01-1.09.01-1.73-.02l-.31-.01c-.7-.03-1.16-.05-1.91-.12-1.93-.17-3.41-.46-4.83-1.37-.26-.17-.51-.37-.74-.59-1.05-1.12-1.96-3.05-1.25-5.07l.02-.06c.05-.15.15-.43.34-.77.07-.13.21-.3.32-.44l.06-.09c.29-.38.61-.56.83-.68.65-.36 1.37-.12 1.71.16-.29-.13-.64-.11-.8-.06-.14.05-.75.31-.77 1.13a1.8 1.8 0 00.04.43c.02.06.06.21.15.37.19.36.66.95 1.72.95h.04c.59-.01 1.2-.33 1.76-.93.43-.45.8-1.31.82-2.21.32.57.65.98 1.22 1.54.02.02.03.03.05.04l.05.05.03.03c.02.02.04.05.07.07.71.7 1.19 1 2 1.4.84.42 1.38.55 2.25.75.91.21 1.44.25 2.35.29.82.04 1.3 0 2.1-.05h.06c.49-.03.85-.08 1.23-.14.32-.04.65-.09 1.06-.13.16-.01.31-.03.44-.04.49-.05.87-.08 1.44-.08.79 0 1.2.01 1.93.14.68.12 1.07.21 1.73.48.74.3 1.56.78 1.94 1.09l.07.09.01-.02.09.11.01-.01.08.11.09-.11c.2-.27 1.22-.9 2.12-1.27.67-.27 1.06-.36 1.73-.48.73-.13 1.14-.14 1.93-.14.58 0 .96.04 1.45.08.14.01.28.03.44.04.41.04.74.08 1.06.13.38.05.74.1 1.23.14h.05c.8.06 1.29.09 2.12.05.91-.04 1.43-.08 2.35-.29.88-.2 1.41-.33 2.25-.75.81-.41 1.3-.71 2-1.4.58-.57.91-.99 1.25-1.59.08.74.35 1.34.64 1.74zm.31-17.3c.27.49.65.83 1 1.05-.43.59-.77 1.14-1 1.74v-2.79zm0-5.21c.21.47.5.86.78 1.11-.32.19-.58.52-.78.91v-2.02zm0-3.01c.05.08.11.16.17.24-.07.08-.12.16-.17.24v-.48zm0-2.43c.04.09.09.17.14.25-.05.05-.1.1-.14.16v-.41zm0-3.91c.12.24.28.44.47.62-.19.17-.35.36-.47.56v-1.18zm4.75 11.08l.01.02c-.02-.01-.03-.02-.05-.03.01.01.03.01.04.01zm3.6-4.7c0-2.54-1.22-4.33-3.27-4.78l-.1-.02v.01c-.24-.09-.46-.11-.68-.05a.88.88 0 00-.24.11c.39-.52 1.07-.6 1.72-.59 2.18.03 3.68 2.69 3.7 5.14.03 3.17-1.3 5.04-3.64 5.14-.27.01-.62-.04-.91-.16 3.42-.86 3.42-3.42 3.42-4.8zm-1.67 18.56c-.16-.21-.26-.47-.26-.75 0-.67.55-1.22 1.22-1.22.67 0 1.22.55 1.22 1.22 0 .02 0 .04-.01.07-.27-.18-.58-.29-.89-.3h-.02c-.48 0-.89.25-1.15.71-.01.02-.07.12-.11.27zm-.8-1.86a1.41 1.41 0 00.29 1.13c-.94-.56-1.43-1.22-1.86-1.85-.03-.05-.1-.06-.15-.03-.05.03-.06.1-.03.15.46.69 1.01 1.41 2.12 2.02.06.27.2.51.39.71v.03c0 .21.06.46.18.65-.1-.05-.21-.11-.33-.18l-.14-.08c-.42-.24-.9-.56-1.4-1.06a8.24 8.24 0 01-1.31-1.87c-.26-.48-.44-.97-.57-1.49-.1-.41-.15-.77-.17-1.11-.02-.64.04-1.3.21-2.09.25-1.21.7-2.2 1.36-3.03l.09-.11c.08-.11.17-.22.27-.32-.04.39.04.68.16.89-.69.64-1.19 2.09-1.19 3.41.01 1.7.8 3.04 1.67 3.86l.02.02c.08.08.16.15.25.22.04.03.08.06.11.09.01.02.02.03.03.04zm1.38-9.55a1.55 1.55 0 01.15 1.7c-.18.31-.44.52-.78.61-.45.12-.94.02-1.24-.25-.27-.24-.39-.6-.34-1.05.03-.21.26-.42.52-.47.05-.01.11-.01.17-.01.26.02.48.19.61.51.02.06.09.08.15.06.06-.02.08-.09.06-.15-.19-.46-.56-.7-.98-.64-.05.01-.11.02-.16.04-.59.11-.9.47-1.21.89-.81 1.11-1.14 1.84-1.4 3.11-.17.8-.23 1.48-.21 2.14.01.36.07.72.17 1.15.13.54.32 1.05.59 1.54.48.9.98 1.55 1.46 2.03.09.1.19.19.29.28l.01-.01c.41.36.8.61 1.14.81l.14.08c.19.11.35.2.5.27.21.09.37.15.52.17.05.01.11.02.17.02.23 0 .48-.08.66-.23.25-.21.32-.51.2-.83-.02-.06-.08-.08-.14-.06-.05.02-.07.06-.07.11-.01.02-.02.04-.02.06.01.29-.08.5-.26.61-.21.12-.54.09-.8-.07-.16-.1-.28-.4-.29-.7v-.07l.02-.03c-.01 0-.01-.01-.02-.01.02-.19.1-.34.11-.35.29-.5.68-.59.98-.59.32.01.64.14.9.36.01.01.02.01.03.02.15.13.27.28.36.45.25.48.29.97.09 1.38-.19.41-.58.7-1.1.81-.45.1-.87.09-1.28-.03-.38-.11-.9-.33-1.21-.48l-.06-.03c-.04-.02-.09-.04-.13-.07-.9-.51-1.49-.93-1.91-1.37-.99-1.03-1.64-2.26-1.96-3.76-.4-1.84 0-3.68.09-4.04.52-2.17 2.09-4.47 3.99-4.47.48 0 .79.01 1.07.19.16.08.29.21.42.37zm-1.98-13.86c.73.02 2.06.28 3.31 1.11.04.02.07.05.11.08.11.09.22.2.34.33.72.74 1.61 2 1.84 3.51.5 3.33-.19 5.64-2.12 7.05-.8.58-1.89.94-3 .98h-.07c-.15 0-.3.01-.44 0-.75-.03-1.39-.31-1.79-.79-.36-.43-.52-.99-.44-1.59.07-.57.38-1.02.84-1.25.42-.21.9-.2 1.3.02.51.28.61.76.55 1.09-.07.37-.35.62-.74.67a.657.657 0 01-.69-.41v-.03a.37.37 0 01.11-.36c.04-.04.04-.11 0-.15a.109.109 0 00-.15 0c-.16.17-.21.38-.16.59a.9.9 0 00.29.57c.36.34.97.48 1.41.48h.08c2.44-.1 3.88-2.11 3.85-5.36-.03-2.56-1.6-5.32-3.91-5.36-.88-.01-1.93.13-2.2 1.36-.16.38-.01.73.21.92.24.19.55.2.8.02.05-.03.06-.1.02-.15-.03-.05-.1-.06-.15-.02-.2.15-.41.09-.54-.02a.563.563 0 01-.14-.68c.04-.1.22-.43.57-.53.26-.07.55 0 .86.21.41.28.59.89.42 1.44-.19.63-.74 1.01-1.48 1.03h-.03c-.4 0-.77-.15-1.07-.42-.08-.09-.16-.18-.22-.28-.02-.02-.04-.04-.06-.05-.07-.1-.14-.21-.19-.33-.31-.67-.34-1.73.5-2.66l.02-.02c.56-.65 1.34-.95 2.16-1zM74.59 110c.29.55.22 1.52-.03 1.99-.17.31-.62.77-1.2.91-.03.01-.06.01-.09.02-.02 0-.05.01-.07.01-.05.01-.09.01-.14.01H73c-.8 0-1.18-.37-1.35-.66-.03-.06-.06-.12-.07-.16h-.01c-.04-.1-.06-.17-.06-.18-.03-.16-.03-.29-.02-.42 0-.02-.01-.03-.01-.05 0-.5.41-.9.9-.9a.903.903 0 01.5 1.65c.13-.01.27-.07.41-.26.32-.42.16-1.05-.16-1.45l-.09-.09c-.03-.04-.06-.08-.1-.12-.38-.42-1.33-.77-2.12-.33-.29.16-.61.36-.89.74l-.06.08c-.11.15-.25.33-.33.47-.21.35-.31.65-.36.81l-.02.06c-.72 2.03.15 4.22 1.53 5.52.03.04.07.07.1.11l.01-.01c.2.18.42.35.64.49 1.46.93 2.97 1.22 4.93 1.4.76.07 1.22.09 1.92.12l.31.01c.65.03 1.2.02 1.74.02h.67c.28 0 .56 0 .84-.01.74-.02 1.5-.03 2.44.03.22.02.42.03.62.04.69.05 1.29.09 1.93.19.13.02.26.04.4.07.44.07.94.15 1.45.26l.16.03c.15.03.3.06.44.11l.41.12c1.41.43 2.49.89 3.29 1.4.07.04.14.09.2.13.22.14.45.28.62.45.1.1.18.17.27.24l.2.17c.07.06.13.13.19.19l.04.04c.6.6 1.08 1.2 1.21 1.97.01.07.02.15.02.22 0 .1-.01.2-.01.3 0 .04 0 .07.01.11-.05.53-.48 1.11-1.37 1.39.04-.23.07-.46.07-.69 0-.51-.11-1.22-.42-1.71-1.06-1.68-2.28-2.31-3.88-3.02-1.28-.57-1.5-.62-1.64-.65-.04-.01-.08-.02-.14-.04a.111.111 0 00-.14.06c-.02.06.01.12.06.14.08.03.12.04.17.05.12.03.31.07 1.38.54.5.22.96.43 1.38.65.04.02.09.05.13.07.03.02.06.03.09.05l.21.12c.01.01.02.01.03.02.06.04.12.08.18.11.03.02.05.03.08.05l.09.06c.6.42 1.13.94 1.62 1.71.29.45.39 1.12.39 1.6 0 .97-.42 1.93-1.09 2.5-.66.55-1.31.75-2.18.67-.47-.05-.92-.33-1.14-.58.61 0 1.2-.25 1.68-.7.56-.53.89-1.3.89-2.06 0-.79-.35-1.54-1.02-2.23-.33-.35-.75-.69-1.26-1.01-1.11-.69-2.44-1.17-3.32-1.38-1.86-.44-3-.62-6.1-.79-.45-.02-.85-.04-1.24-.05-.69-.02-1.35-.04-2.19-.12l-.13-.01c-1.12-.12-1.73-.18-2.91-.45-1.68-.39-3.05-1.09-4.21-2.14-1.01-.92-1.54-1.53-1.98-2.73-.38-1.02-.58-3.09.41-4.63.82-1.28 1.98-2.04 3.44-2.25 1.25-.15 2.29.41 2.91 1.6zm35.25-42.65c.06-.22.24-.44.55-.67.47-.36 1.11-.49 1.68-.33.49.13.87.46 1.06.93.59 1.42-.67 2.51-1.97 3.4-1.17.79-2.63 1.21-4.37 1.24h-.51c-2.73-.08-4.92-1.29-6.37-2.11-.15-.08-.29-.16-.42-.24-.39-.22-.82-.18-1.05.09-.26.31-.22.79.09 1.08a.1.1 0 00.15-.01.1.1 0 00-.01-.15.56.56 0 01-.07-.78c.16-.19.48-.21.78-.04.02.01.05.03.08.04l-.01.01c.28.5.41.77.26 1.24-.17.55-.56.86-1.08.86-.57 0-1.09-.32-1.39-.85-.3-.53-.32-1.13-.05-1.59 1-1.68 2.94-.77 4.81.1l.34.16-.05-.24c-.03-.17-.08-.3-.12-.42-.07-.21-.13-.39-.12-.74.02-.8.39-1.35.77-1.93.28-.42.57-.86.75-1.42.22-.7.41-1.5-.25-2.15-.49-.48-1.08-.55-1.87-.25-.37.15-.77.37-1.19.61-1.09.62-2.45 1.38-4.41 1.41-1.97-.03-3.33-.8-4.42-1.41-.42-.24-.82-.46-1.19-.6-.78-.31-1.37-.23-1.86.25-.66.64-.48 1.45-.25 2.15.18.56.47 1 .75 1.42.38.58.75 1.13.77 1.93.01.35-.05.53-.12.74-.04.12-.08.25-.12.42l-.05.24.45-.21c1.61-.75 3.26-1.52 4.27-.61.16.14.3.33.42.56.26.49.22 1.14-.09 1.66-.3.5-.79.78-1.34.78-.51 0-.9-.31-1.08-.86-.13-.4-.05-.79.25-1.23l-.01-.01c.03-.02.06-.03.08-.05.3-.16.61-.15.77.04.16.2.18.54-.07.77-.05.04-.05.11-.01.16.03.03.07.04.11.03.02.02.05.03.07.03.03 0 .05-.01.07-.03.34-.31.3-.82.06-1.11-.11-.14-.29-.21-.49-.23-.19-.03-.41.02-.62.13-.13.07-.28.15-.42.24-1.57.88-3.72 2.08-6.53 2.11-1.88.03-3.47-.4-4.71-1.25-1.3-.88-2.55-1.98-1.97-3.39.19-.46.57-.79 1.06-.93.56-.15 1.2-.03 1.67.33.3.23.48.45.55.67.1.35.16.85-.16 1.27-.38.49-.96.5-1.18.43-.28-.09-.5-.26-.64-.49a.74.74 0 01-.18-.4.67.67 0 01.21-.57c.08-.08.19-.12.32-.11.03 0 .05 0 .08.01h.02c.21.05.38.24.43.49.02.01.05.02.08.02.06-.01.1-.07.09-.13a.752.752 0 00-.56-.6c-.26-.06-.51.02-.66.21-.2.26-.25.6-.14.93.07.23.21.43.4.58l.04.04c.06.07.12.13.19.18 1.18 1.11 2.44 1.57 4.43 1.63.62.02 1.89-.2 2.63-.73.72-.51.95-1.17.68-1.96-.06-.19-.19-.47-.34-.79-.39-.84-.92-2-.95-2.87-.07-1.7.53-2.83 1.73-3.25 1.46-.52 3.03.38 4.29 1.1.52.29 1.01.57 1.41.71.73.25 1.13.27 1.79.28.65 0 1.04-.03 1.77-.28.41-.14.9-.41 1.41-.71 1.26-.72 2.83-1.61 4.29-1.1.06.02.13.05.19.08.02.01.03.01.05.02 1.05.48 1.56 1.57 1.5 3.16-.04.88-.57 2.03-.95 2.87-.15.33-.28.61-.34.79-.26.79-.04 1.45.68 1.96.08.06.17.12.27.17.72.39 1.71.56 2.28.56h.08c1.92-.06 3.17-.49 4.32-1.53.39-.15.69-.45.81-.83.11-.34.06-.69-.15-.96a.645.645 0 00-.48-.29c-.03-.01-.06-.01-.1-.01h-.01-.01c-.06 0-.11.01-.17.02-.29.07-.5.29-.55.59-.01.06.03.11.09.12.06.01.11-.03.12-.09.04-.21.19-.37.39-.42.18-.04.36.01.45.13.16.21.2.49.11.77-.11.33-.37.59-.72.7-.22.07-.8.05-1.18-.44-.33-.39-.27-.9-.17-1.25zm-38.13 1.41c.03.65.21 1.22.49 1.71.05.09.09.16.17.26.14.18.22.27.38.43.22.22.37.33.62.5.16.11.29.18.43.26.02.01.03.02.05.03 0 0 .01 0 .01-.01.03-.05.01-.12-.04-.15 0 0-.01 0-.01-.01-.08-.04-.15-.09-.22-.14-.02-.02-.05-.03-.07-.05-.07-.05-.14-.1-.21-.16-.02-.02-.04-.04-.06-.05-.06-.05-.11-.1-.17-.15l-.04-.04a3.79 3.79 0 01-.87-1.33c-.13-.34-.21-.71-.23-1.11-.03-.87.1-1.39.52-2.01.6-.89 1.64-1.1 2.56-.55-.53.79-.51 1.83-.41 2.35.02.09.04.18.06.26l.06.18c.04.12.07.22.14.35.13.27.24.42.47.67.19.21.36.32.56.45l.09.06c.02-.04.01-.09-.03-.12-.7-.63-.96-1-1.14-1.89-.11-.53-.12-1.62.5-2.36.47-.56 1.1-.67 1.9-.34-.55.67-.72 1.62-.5 2.74.01.06.03.12.05.17 0 .01.01.01.01.02.03.07.05.14.07.2.04.11.07.2.14.32.09.17.16.26.27.4.15.19.25.28.44.43.14.11.25.17.39.24.06.03.13.07.2.11.03-.05.02-.11-.03-.15-.73-.47-1.19-1.09-1.33-1.78-.26-1.29.04-2.33.84-2.93.31-.24.69-.33 1.07-.27.44.07.83.34 1.11.75l.02.03a2.5 2.5 0 00-.38.06c-.56.15-.99.53-1.21 1.06-.65 1.56.67 2.73 2.05 3.67.74.5 1.59.85 2.54 1.06h-8.13v5.16c-.47-1.36-1.62-2.58-2.52-3.52-.38-.39-.7-.74-.91-1.02-.87-1.18-1.19-1.76-1.19-3.19 0-1.02.73-1.9 1.73-2.12-.2.43-.26.89-.24 1.52zm-.41 10.5c.12-.4.4-.68.76-.75.39-.07.6.13.69.26.16.22.18.54.06.74-.1.17-.28.24-.52.22v.04h-.03c-.06 0-.11.04-.12.1-.01.06.04.11.1.12h.11c.08 0 .16-.01.23-.03.11-.01.23-.05.33-.14.1-.07.18-.18.26-.3h.01v-.01c.03-.04.05-.08.08-.12h.02v-.04c.16-.29.26-.65.27-.98.05-1.46-1.36-2.88-2.49-4.03-.36-.37-.67-.68-.89-.95l-.1-.12c-.96-1.19-1.44-1.79-1.44-3.01 0-.83.72-1.46 1.45-1.59-.06.21-.09.42-.09.65 0 1.57.42 2.22 1.23 3.32.21.29.54.64.93 1.04 1.13 1.18 2.67 2.8 2.67 4.55 0 1.47-.43 2.32-1.39 2.76-.65.29-1.38-.04-1.7-.33l-.03-.03c-.46-.41-.51-.97-.4-1.37zm-6.42 11.16c-.46-.67-.82-1.54-1.03-2.51-.1-.48-.15-.92-.16-1.4-.01-.58.06-1.07.2-1.7.39-1.9 1.67-3.33 2.36-3.88 1.56-1.24 3.94-1.62 5.28-.14l.05.05c.67.78.84 1.84.44 2.71-.31.66-.88 1.05-1.51 1.04-.74-.01-1.29-.4-1.48-1.03-.02-.06-.03-.12-.04-.18 0-.02-.01-.04-.01-.06-.06-.48.12-.96.47-1.2.34-.23.66-.3.94-.21.28.09.45.31.51.48.12.32-.01.6-.19.74-.07.06-.15.08-.23.09-.09 0-.18-.02-.27-.07-.01-.01-.02-.01-.03-.01-.05-.03-.12-.02-.15.02-.03.05-.02.11.02.15.01 0 .01.01.02.01l.01.01s.01 0 .02.01c.14.09.3.12.45.08.11-.01.22-.05.32-.12.25-.18.37-.51.31-.88-.04-.22-.19-.46-.41-.62-.71-.61-2.1-.76-3.49.12-.19.12-.37.27-.54.41-.22.18-.38.38-.51.56-.16.22-.35.58-.48.84-.16.33-.23.55-.33.92-.25.95-.26 1.87-.22 2.16l.02.13c.03.28.06.54.11.78.16.84.42 1.56.77 2.13.25.42 1.03 1.71 2.7 1.87.06.01.12.01.18.01.41 0 .93-.12 1.28-.42.19-.17.3-.37.34-.6.06-.22.01-.45-.15-.62-.03-.03-.07-.04-.1-.03.07.1.12.23.12.38 0 .33-.23.59-.53.62h-.07c-.03 0-.06 0-.09-.01-.01 0-.03 0-.04-.01-.44-.13-.58-.44-.62-.68-.07-.4.12-.88.42-1.09.24-.17.53-.23.83-.19h.01c.02 0 .03 0 .05.01.1.02.2.05.29.09.06.02.11.05.16.08.01.01.02.01.04.02.41.26.68.7.75 1.23.08.6-.08 1.16-.44 1.59-.4.48-1.04.76-1.79.79-1.22.05-2.39-.38-3.47-1.28a3.22 3.22 0 01-.37-.37c-.07-.08-.15-.17-.27-.29-.15-.12-.27-.28-.45-.53zm4.9 4.08v-.01.01zm1.08 4.52c.01-1.21-.41-2.51-1.01-3.22.13-.22.21-.52.16-.94-.01-.05-.02-.12-.04-.18.1.1.2.23.3.37.8 1.09 1.1 1.77 1.37 3.03.16.79.23 1.45.21 2.09-.01.34-.06.7-.17 1.11-.13.52-.31 1.01-.57 1.49-.97 1.82-2.01 2.57-2.81 3.03l-.14.08c-.06.03-.11.06-.16.09.06-.14.1-.3.1-.47v-.03c.24-.23.39-.54.43-.88.53-.31.93-.64 1.25-.98.03-.04.07-.09.11-.14l.04-.06c.07-.09.12-.15.18-.25.05-.09.09-.15.13-.22l.04-.08c.06-.11.1-.19.15-.28l.04-.08c-.05-.02-.1 0-.13.04-.38.57-.82 1.15-1.6 1.68.09-.19.14-.4.14-.62 0-.13-.02-.27-.06-.39a5.382 5.382 0 002.04-4.19zm-3.41 3.3c.02 0 .03 0 .05.01h.07c.02 0 .04 0 .07.01.02 0 .04.01.06.01.51.12.89.58.89 1.14 0 .18-.05.36-.12.52-.1-.28-.28-.54-.51-.73a1.49 1.49 0 00-.49-.28h-.01c-.03-.01-.05-.02-.08-.02-.11-.03-.23-.05-.35-.05h-.02c-.22 0-.43.05-.62.14.18-.45.59-.75 1.06-.75zm-1.65 2.03a1.225 1.225 0 011.58-1.17h.01c.02.01.05.02.07.03.02.01.04.01.05.02.01.01.03.01.04.02.02.01.05.02.07.04.01.01.03.02.04.03.02.01.03.02.05.03a1.21 1.21 0 01.3 1.69l-.06-.12c-.29-.5-.72-.8-1.16-.8h-.19c-.28.02-.56.12-.79.27-.01-.02-.01-.03-.01-.04zm.8-.02h.2c.37.04.67.24.88.6.04.07.09.2.11.36l-.02.02.02.03c0 .02.01.05.01.07 0 .3-.13.6-.29.7-.09.06-.18.1-.28.12-.09.05-.18.08-.28.08-.36 0-.66-.37-.66-.82v-.03c-.04.02-.06.05-.06.09-.01.34.09.6.3.76.03.03.07.05.11.07.14.08.31.12.49.12H67.2c.13-.01.26-.04.38-.09.06-.02.13-.05.2-.08.15-.07.31-.16.5-.27l.14-.08c.83-.47 1.9-1.25 2.89-3.11.27-.5.46-1 .59-1.54.1-.43.16-.8.17-1.15.02-.65-.04-1.33-.21-2.14-.27-1.28-.59-2-1.4-3.11-.32-.44-.64-.81-1.28-.9a.292.292 0 00-.09-.02.77.77 0 00-.56.12c-.04.03-.07.05-.1.09-.08.08-.09.11-.16.25-.04.08-.05.19-.07.32.05.01.1-.02.12-.06.13-.31.35-.49.61-.51.08 0 .15.01.21.02.25.06.46.26.49.46.05.45-.06.82-.34 1.05-.31.27-.8.36-1.25.25-.33-.09-.6-.3-.78-.61-.09-.16-.14-.33-.17-.52-.01-.05-.01-.1-.01-.15-.01-.17.01-.35.06-.52a1.663 1.663 0 01.68-.91c.28-.18.59-.19 1.08-.19.16 0 .32.02.48.05.08.01.15.04.23.06 1.58.48 2.84 2.47 3.29 4.37.08.35.48 2.19.09 4.04-.32 1.5-.97 2.74-1.96 3.77-.42.44-1.02.86-1.93 1.38-.26.15-.93.44-1.39.57-.47.13-.9.14-1.28.03-.49-.15-.86-.45-1.05-.85a.694.694 0 01-.05-.13c0-.01-.01-.03-.01-.04a.292.292 0 01-.02-.09c-.01-.03-.01-.05-.02-.08 0-.03-.01-.05-.01-.08s-.01-.05-.01-.08v-.11-.04c.01-.16.04-.32.09-.49 0-.01.01-.02.01-.03.02-.06.04-.12.07-.19.17-.46.66-.8 1.17-.83zm20.62 22.2c.02-.3.07-.55.16-.77.29-.68.9-1.11 1.59-1.12.28 0 .55.09.78.24l.03.03c.04.02.07.05.1.07.03.03.07.06.1.1.27.29.4.67.36 1.04-.03.3-.17.57-.38.74a.86.86 0 01-.67.18c-.24-.03-.43-.14-.52-.3a.694.694 0 01-.05-.13v-.05c-.01-.15.02-.32.12-.51l-.02-.01c.02-.05 0-.11-.05-.14-.05-.02-.12 0-.14.05-.12.27-.14.48-.12.65 0 .03.01.06.02.08v.01c.02.07.05.14.08.19.14.25.42.42.74.46.05.01.1.01.15.01.26 0 .5-.08.69-.24.25-.2.42-.53.46-.88.05-.53-.2-1.08-.63-1.41-.3-.26-.67-.41-1.06-.4-.08 0-.16.01-.25.02l-.01-.01c-1.93-2.33-5.23-2.46-8.72-2.6-2.81-.11-6.34-.36-8.67-1.32-1.56-.64-2.63-1.39-3.38-2.1l-.08-.08a6.909 6.909 0 01-1.58-2.3c-.04-.09-.07-.16-.1-.22-.3-.57-.63-1.87-.66-3.14-.02-.65.09-1.37.28-1.92.62-1.78 1.52-2.8 3.33-3.77 1-.54 1.84-.73 2.72-.64.86.09 1.38.35 1.7.82-1.27-.47-2.56-.19-3.54.22-.09.04-.18.08-.29.14-.15.08-.22.13-.36.21-.17.11-.26.17-.42.28-.11.08-.18.14-.26.2-.01 0-.01.01-.02.01.03.05.1.06.15.03.82-.54 2.93-1.68 4.9-.79.04.02.08.03.12.05.7.34 1.11.75 1.35 1.33.03.09.06.17.1.26.26.84.09 1.72-.22 2.34.07-.5.03-1.07-.18-1.46-.18-.34-.4-.64-.65-.89-.67-.71-1.57-1.03-2.59-.89-1.52.22-2.73 1.01-3.59 2.34-1.03 1.61-.83 3.77-.43 4.82.46 1.23 1.02 1.89 2.04 2.81 1.18 1.07 2.59 1.79 4.3 2.19 1.19.28 1.81.34 2.94.46l.13.01c.85.09 1.51.11 2.21.13.39.01.8.02 1.24.05 3.08.17 4.22.35 6.06.79 1.19.28 3.06.99 4.24 2.1.03.03.06.06.1.09.6.59 1 1.3 1 2.11 0 .7-.31 1.41-.82 1.9a2.2 2.2 0 01-1.62.64c-.64-.03-1.23-.28-1.65-.69a.138.138 0 01-.03-.04c-.02-.03-.05-.05-.07-.08-.32-.34-.48-.82-.46-1.3zm4.05-60.01c-.03-.12-.02-.29-.02-.3-.01-.3.12-.5.23-.61.15-.16.36-.25.56-.25.4 0 .61.15.89.37.17.13.37.28.66.43.97.52 1.39.64 2.27.65.87-.01 1.29-.13 2.26-.65.28-.15.49-.3.66-.43.3-.22.52-.38.93-.38.19 0 .81.05.83.66.01.18-.02.25-.04.31-.01.02-.02.05-.02.07h-.06l-.01-.01c-.01-.01-.03-.02-.03-.04v-.07c0-.05 0-.12-.03-.2-.07-.22-.22-.34-.41-.34-.39 0-.61.17-.93.4-.19.14-.4.29-.69.45-.98.52-1.41.65-2.3.65-.88-.01-1.31-.13-2.29-.65-.28-.15-.48-.29-.67-.42-.33-.23-.56-.4-.96-.4-.09 0-.36.05-.53.27-.12.16-.18.29-.17.55l-.06.01c0-.01-.01-.01-.02-.02-.02 0-.05-.01-.05-.05zm-13.41 50.59c-.01.04-.05.05-.13.02-.13-.04-.25-.1-.52-.18-.15-.05-.3-.08-.39-.11-.03-.01-.03-.04-.02-.06.04-.14.26.04.38-.32l.58-1.85c.1-.33-.26-.36-.28-.48-.04.08-.17.02-.34.2l-1.78 1.93c-.07.08-.1.1-.14.09-.03-.01-.05-.06-.06-.25l-.02-2.53c0-.17-.03-.23-.16-.32-.01-.01-.04-.05-.03-.07.03-.09.13-.02.18 0 .11.04.22.1.34.14.22.08.32.1.38.12.11.04.13.04.1.11-.04.1-.22-.03-.28.13-.04.11-.06.31-.07.57l-.01 1.39c0 .03 0 .09.02.1.02.01.05-.04.07-.06l.9-.98c.2-.22.25-.35.28-.41.13-.36-.26-.35-.21-.48.03-.07.12-.02.16-.01.1.04.19.09.29.12.1.04.2.06.29.09.06.02.1.03.1.07.02-.06.1-.02.13-.01.14.04.27.1.39.14.13.04.26.06.45.13.1.03.12.05.1.09-.04.13-.26-.09-.37.28l-.58 1.84c-.16.49.29.44.25.56zm2.08-2.3c-.23-.07-.48-.12-.71-.19-.22-.07-.24-.09-.4-.14-.04-.01-.08 0-.09.04-.04.14.38.11.25.54l-.51 1.71c-.14.49-.39.28-.43.4-.02.08.05.09.09.1.17.05.35.09.54.14.15.04.24.09.3.1.08.02.12.01.13-.03.04-.14-.35-.08-.23-.5l.2-.67c.04-.14.03-.17.21-.11.17.05.23.11.26.3l.11.7c.04.26.08.54.36.62.14.04.4.02.43-.1.01-.03 0-.06-.04-.07-.03-.01-.08 0-.11-.01s-.09-.03-.11-.1c-.11-.56-.24-1.22-.23-1.24.01-.04.12-.04.25-.1.13-.06.27-.18.35-.43.05-.17.14-.74-.62-.96zm.16.95c-.07.23-.15.44-.68.28-.1-.03-.23-.07-.21-.17l.23-.78c.07-.23.18-.2.31-.16.35.11.46.45.35.83zm3.12-.01l-.05.37c0 .05 0 .21-.09.19-.14-.03.08-.44-.33-.53l-.3-.07c-.15-.03-.19-.02-.23.17l-.43 1.78c-.12.48.36.48.34.59-.02.09-.09.07-.19.04-.14-.03-.26-.08-.49-.13-.24-.06-.36-.07-.5-.1-.06-.02-.13-.03-.1-.11.04-.15.39.13.5-.34l.44-1.83c.05-.19.01-.22-.13-.25l-.3-.07c-.4-.1-.42.45-.58.41-.07-.02-.03-.1-.01-.15l.18-.51c.01-.04.03-.09.08-.08.33.08.56.15 1.08.28.52.12.76.17 1.09.24.04 0 .02.06.02.1zm2.42.75l-1.42 2.21c-.06.1-.08.12-.12.11-.04-.01-.06-.05-.1-.23l-.46-2.48c-.03-.17-.07-.22-.21-.29-.01-.01-.05-.04-.05-.07.02-.1.12-.04.18-.03.12.02.24.06.36.08.23.04.34.05.39.06.11.02.13.02.12.09-.02.11-.22.01-.25.18-.02.12-.01.32.03.57l.23 1.37c.01.03.01.09.03.09.02 0 .05-.05.06-.07l.72-1.12c.16-.25.19-.39.2-.45.07-.37-.32-.29-.29-.43.01-.08.12-.04.16-.04.1.02.2.05.31.07.1.02.2.02.3.04.08.01.13.01.12.08-.02.09-.17.05-.31.26zm2.01.17l-.05.54c-.01.09-.03.14-.11.12-.08-.01-.01-.77-.63-.87-.24-.04-.42.09-.47.35-.04.27.14.35.59.67.35.25.56.46.48.97-.09.52-.48.82-.95.74-.22-.04-.39-.16-.59-.25-.09-.04-.08-.07-.08-.17l-.02-.57c0-.06-.02-.18.07-.16.06.01.06.05.06.1.05.4.21.8.61.87.28.05.53-.11.58-.43.06-.34-.16-.43-.69-.81-.28-.2-.47-.39-.4-.81.08-.46.42-.75.84-.68.29.05.42.23.53.25.05.01.15-.04.19-.03.07.02.05.08.04.17zm6.63.32c0 .12-.31.02-.31.45l-.02 2.27c0 .09 0 .12-.04.12-.05 0-.07-.02-.09-.06l-1.74-2.12c-.03-.03-.05-.05-.07-.05-.02 0-.03.03-.03.06l-.01 1.38c-.01.78.46.51.46.7 0 .06-.09.05-.14.05-.18 0-.3-.02-.43-.02-.12 0-.22.01-.31.01-.04 0-.11.02-.11-.05 0-.16.35-.09.35-.5l.01-1.54c.01-.65-.28-.58-.37-.65-.06.03-.14.07-.22.22l-1.18 2.35c-.05.1-.07.12-.11.12-.04 0-.07-.05-.12-.22l-.72-2.42c-.05-.16-.1-.21-.24-.26-.01 0-.06-.03-.05-.06.01-.1.12-.06.17-.05.12.01.24.04.37.05.23.02.34.01.4.01.12.01.13.01.13.08-.01.11-.22.03-.24.2-.01.12.02.31.09.57l.37 1.34c.01.03.02.09.04.09s.04-.05.05-.08l.59-1.19c.13-.26.15-.4.15-.47.03-.38-.35-.26-.34-.4.01-.08.11-.06.15-.05.11.01.21.03.31.04.1.01.2 0 .31.01.03 0 .06 0 .08.01.01 0 .01-.01.02-.01.07 0 .13.02.2.02.09 0 .19-.01.38-.01.12 0 .07.03.14.11l1.45 1.8c.05.06.09.11.11.11.02 0 .03-.05.03-.15l.01-1.35c0-.37-.44-.3-.44-.43 0-.03.01-.07.06-.07.06 0 .16.02.42.02.23 0 .36-.01.39-.01.09-.02.09.02.09.03zm1.43 2.8c0 .04-.03.06-.12.06-.13 0-.27-.02-.55-.02-.16 0-.31.01-.41.01-.03 0-.04-.03-.04-.05 0-.14.26-.03.27-.42v-1.94c0-.37-.39-.26-.39-.4 0-.07.09-.06.12-.06.14 0 .28.02.41.02.13 0 .26-.01.47-.01.11 0 .13.01.13.06 0 .14-.27-.01-.28.37l-.02 1.93c0 .5.41.32.41.45zm2.06-2.6h-.31c-.15 0-.19.02-.18.22l.02 1.83c0 .5.47.38.47.49 0 .1-.07.09-.18.09-.15 0-.27-.01-.51-.01s-.36.02-.51.02c-.07 0-.13.01-.13-.08 0-.16.41.03.41-.45l-.02-1.88c0-.19-.04-.22-.19-.21h-.31c-.41 0-.3.53-.46.53-.08 0-.06-.09-.05-.14l.05-.54c0-.04 0-.1.06-.1.34 0 .58.01 1.12.01.53 0 .78-.02 1.12-.03.05 0 .06.06.06.1l.04.37c.01.05.05.21-.05.21-.14 0-.03-.45-.45-.43zm2.72 2.11l-1.18-2.39c-.06-.12-.06-.12-.1-.12-.05 0-.06.08-.08.15l-.79 2.52c-.07.23-.26.22-.25.32 0 .05.06.04.11.04.11-.01.21-.03.32-.04.12-.01.23 0 .34-.01.08-.01.19.01.18-.07-.01-.11-.4-.01-.42-.3-.01-.1.03-.24.05-.33.06-.27.14-.3.2-.3l.72-.06c.09-.01.12.03.26.34.05.11.08.18.09.27.02.25-.24.22-.23.34 0 .06.05.04.12.04.11-.01.24-.03.4-.05.24-.02.34-.01.47-.02.1-.01.13 0 .13-.07-.02-.15-.2.02-.34-.26zm-1.03-.81l-.49.04c-.07.01-.12.01-.12-.03 0-.06.01-.1.03-.15l.22-.74c.01-.05.03-.05.04-.05.02 0 .01 0 .03.03l.36.71c.02.05.05.09.05.15 0 .03-.05.03-.12.04zm4.05-1.61c.01.05.05.18-.04.19-.17.02.05-.48-.65-.39-.44.06-.45.06-.41.34l.07.56c.02.17.03.2.18.18l.23-.03c.31-.04.27-.41.35-.42.03 0 .06-.02.08.09l.12.71c.01.05.05.19-.04.2-.12.02-.07-.42-.45-.37l-.27.04c-.17.02-.15.07-.11.3l.08.59c.06.45.45.29.47.4.01.08-.07.07-.16.09-.14.02-.27.02-.43.04-.11.01-.26.05-.46.08-.05.01-.07-.01-.07-.04-.02-.18.28 0 .21-.49l-.25-1.88c-.05-.36-.44-.18-.46-.34 0-.04.02-.07.07-.08.15-.02.41-.04.96-.11.26-.03.5-.08.82-.12.05-.01.08.03.08.07l.08.39zm1.28-.73c-.86.17-1.21.91-1.05 1.78.15.81.73 1.26 1.45 1.12 1.14-.21 1.18-1.23 1.08-1.79-.15-.83-.78-1.24-1.48-1.11zm.48 2.72c-.64.13-1.02-.66-1.13-1.24-.11-.58-.03-1.16.57-1.28.46-.09.98.29 1.15 1.17.13.65.03 1.22-.59 1.35zm3.82-.92c-.04.01-.07.04-.1.05-.03.01-.1.02-.14-.03-.37-.44-.81-.93-.82-.96-.01-.04.08-.1.17-.21.08-.12.15-.29.09-.54-.04-.18-.25-.72-1.02-.53-.24.06-.47.13-.71.19-.22.05-.26.04-.42.08-.04.01-.07.04-.06.08.03.14.39-.1.49.34l.42 1.73c.12.5-.2.44-.17.56.02.08.09.05.13.04.18-.04.35-.1.54-.15.15-.04.25-.04.31-.06.08-.02.1-.05.1-.09-.03-.14-.35.1-.45-.32l-.16-.68c-.03-.14-.06-.16.13-.21.18-.04.25-.02.37.13l.45.55c.16.2.34.42.62.36.14-.03.36-.18.33-.3-.04-.02-.06-.04-.1-.03zm-1.67-.89c-.11.03-.24.06-.26-.04l-.19-.8c-.06-.24.05-.26.18-.29.36-.09.63.16.72.54.06.23.09.46-.45.59zm3.48.64c.02.09-.05.1-.15.13-.14.04-.26.05-.5.11s-.35.11-.49.14c-.06.02-.12.04-.14-.05-.04-.15.41-.07.29-.53l-.47-1.82c-.05-.19-.09-.2-.23-.16l-.3.08c-.4.1-.16.59-.32.63-.07.02-.08-.07-.08-.13l-.08-.53c-.01-.04-.02-.1.03-.11.33-.08.57-.13 1.08-.26.52-.13.75-.21 1.08-.3.05-.01.07.04.08.08l.13.35c.02.05.1.19.01.21-.14.04-.14-.43-.54-.31l-.3.08c-.14.04-.17.07-.13.25l.46 1.77c.12.49.54.26.57.37zm1.89-.52c.01.04-.02.07-.1.09-.13.04-.26.06-.54.13-.15.04-.3.1-.39.12-.03.01-.05-.02-.05-.04-.04-.14.24-.11.14-.48l-.52-1.87c-.1-.36-.47-.14-.5-.27-.02-.07.07-.08.1-.09.14-.04.28-.06.4-.09.13-.04.25-.09.45-.14.11-.03.13-.03.14.02.04.13-.27.07-.16.44l.52 1.86c.13.49.48.2.51.32zm.54-3.18c-.82.28-1.07 1.07-.79 1.91.26.78.9 1.14 1.6.91 1.1-.37 1-1.38.82-1.92-.28-.81-.96-1.14-1.63-.9zm.85 2.62c-.62.22-1.1-.51-1.29-1.07-.19-.56-.19-1.15.39-1.35.44-.16 1.01.15 1.3 1 .22.63.19 1.21-.4 1.42zm1.52-3.44c-.23.09-.45.2-.68.29-.21.08-.25.08-.4.14-.04.02-.07.05-.05.09.05.14.37-.15.53.27l.65 1.66c.19.47-.14.46-.09.58.03.08.1.04.13.02.17-.07.33-.15.52-.22.14-.06.24-.08.3-.1.08-.03.1-.06.08-.1-.05-.14-.33.15-.49-.25l-.26-.65c-.05-.13-.08-.15.1-.22.17-.07.24-.06.39.08l.52.48c.19.18.39.37.66.27.14-.05.33-.22.28-.34-.01-.03-.04-.04-.07-.03-.03.01-.06.05-.09.06-.03.01-.09.04-.15-.01-.43-.38-.94-.81-.94-.83-.01-.04.07-.11.13-.24s.11-.31.01-.55c-.06-.19-.34-.7-1.08-.4zm.35 1.3c-.1.04-.23.09-.26 0l-.3-.76c-.09-.23.02-.27.14-.32.34-.13.64.07.79.44.08.21.14.43-.37.64zM94.97 74.04H76.95v17.98h18.02V74.04zm-.18 17.81H77.12V74.21h17.67v17.64zm19.92-17.81H96.7v17.98h18.02V74.04zm-.17 17.81H96.87V74.21H114.54v17.64zm-37.52 15.54c.09.54.25 1.03.48 1.47.09.14.14.24.19.33.13.23.22.4.74.98.29.33.75.66 1.38.99.44.24.76.35 1.5.55.98.26 1.83.37 2.82.37.24 0 .49-.01.81-.02.8-.03 1.44-.12 1.97-.19l.27-.04c.83-.11 1.45-.18 2.41-.22.52-.02.93-.02 1.33 0 .46.03.95.09 1.57.22 1.16.23 2.35.68 2.37.69l.12.04V93.75H76.96v12.8c-.01.03.02.64.06.84zm17.77 4.93c-.26-.09-.94-.33-1.68-.52-.2-.05-.39-.1-.59-.14-.59-.12-1.06-.18-1.5-.21-.03 0-.07 0-.1-.01-.2-.01-.4-.02-.62-.02-.22 0-.45.01-.72.02-.15.01-.29.01-.43.02-.73.04-1.29.1-1.99.2l-.1.01-.17.02c-.49.07-1.03.14-1.7.18-.08 0-.16.01-.25.01-.31.01-.56.02-.8.02-.37 0-.72-.02-1.06-.05-.57-.05-1.11-.16-1.72-.31-.05-.01-.1-.03-.15-.04-.62-.17-.92-.28-1.32-.49-.3-.16-.56-.32-.78-.48-.23-.16-.41-.32-.55-.48-.51-.57-.6-.73-.72-.95-.05-.09-.11-.19-.19-.33-.22-.41-.38-.89-.46-1.41-.03-.2-.07-.81-.07-.81V93.93H94.8l-.01 18.39zm4.39-.49c.63-.13 1.11-.19 1.57-.22.39-.02.8-.02 1.33 0 .95.04 1.58.11 2.41.22l.26.04c.52.07 1.17.16 1.97.2.31.01.57.02.81.02.99 0 1.84-.11 2.82-.37.74-.19 1.07-.31 1.5-.55.62-.33 1.08-.67 1.38-.99.53-.59.62-.76.74-.98.05-.09.1-.19.2-.33.23-.43.39-.92.48-1.46.03-.21.07-.81.07-.84v-12.8H96.7l-.01 18.69v.12l.12-.04c0-.02 1.21-.47 2.37-.71zm-2.31-17.9h17.67v12.62c0 .01-.04.62-.07.82-.08.52-.24.99-.46 1.4-.09.14-.15.25-.2.34-.12.23-.21.38-.72.95-.28.31-.73.63-1.33.96-.42.23-.74.34-1.47.53-.97.25-1.8.36-2.78.36-.23 0-.49-.01-.8-.02-.79-.03-1.41-.12-1.95-.19l-.26-.04c-.83-.11-1.47-.18-2.42-.22-.53-.02-.94-.02-1.34 0-.47.03-.96.09-1.6.22-.96.19-1.96.53-2.29.65l.02-18.38z"/><g><path fill="none" d="M172 160V32c0-6.6-5.4-12-12-12H32c-6.6 0-12 5.4-12 12v128c0 6.6 5.4 12 12 12h128c6.6 0 12-5.4 12-12z" opacity=".4"/><path fill="none" d="M0 0v192h192V0H0z"/><path fill="#DFDFDF" d="M160 20c6.6 0 12 5.4 12 12v128c0 6.6-5.4 12-12 12H32c-6.6 0-12-5.4-12-12V32c0-6.6 5.4-12 12-12h128m0-8H32c-11.03 0-20 8.97-20 20v128c0 11.03 8.97 20 20 20h128c11.03 0 20-8.97 20-20V32c0-11.03-8.97-20-20-20z"/><path fill="#FFF" fill-opacity=".2" d="M160 20H32c-6.6 0-12 5.4-12 12v1c0-6.6 5.4-12 12-12h128c6.6 0 12 5.4 12 12v-1c0-6.6-5.4-12-12-12z"/><path fill="#212121" fill-opacity=".1" d="M160 172H32c-6.6 0-12-5.4-12-12v-1c0 6.6 5.4 12 12 12h128c6.6 0 12-5.4 12-12v1c0 6.6-5.4 12-12 12z"/><radialGradient id="a" cx="23.768" cy="23.933" r="204.625" gradientUnits="userSpaceOnUse"><stop offset="0" stop-color="#fff" stop-opacity=".1"/><stop offset="1" stop-color="#fff" stop-opacity="0"/></radialGradient><path fill="url(#a)" d="M160 172H32c-6.6 0-12-5.4-12-12V32c0-6.6 5.4-12 12-12h128c6.6 0 12 5.4 12 12v128c0 6.6-5.4 12-12 12z"/></g></svg>