<svg xmlns="http://www.w3.org/2000/svg" width="192" height="192"><path fill="#E41E20" d="M172 160V32c0-6.6-5.4-12-12-12H32c-6.6 0-12 5.4-12 12v128c0 6.6 5.4 12 12 12h128c6.6 0 12-5.4 12-12z"/><path d="M137.31 112.49c-1.34-1.57-2.83-1.68-4.69.32-1.96.06-3.32.09-5.28.16 1.05-.89 1.61-1.57 2.66-2.45 1.61.51 3.19.34 3.88-1.46.52-.61 1.11-.97 2.44-1.02-.93-.77-1.7-1.06-3.36-.28-2.46-1.11-2.67.46-3.11 1.49-1.67 1.09-3.02 2.02-4.68 3.12-3.4-.99-6.16-1.55-9.56-2.54.74-.76 1.48-1.46 2.21-2.22.19-.65-.15-.97-.7-1.07-5.49-1.11-8.63-3.28-10.55-8.79-.8-2.3.93-2.99 1.52-1.58.82 1.95 1.72 4.1 4.19 5.77.85.57 3.38.11 1.89-1.29-1.56-1.24-2.22-1.78-2.99-4.82 0-1.55 1.61-2.24 2.51-.76.95 3.03 1.06 4.33 2.78 6.28 1.31 1.48 3.03 2.47 3.88 2.45 1.54-.03 3.08-1.64 1.03-2.81-3-1.17-4.1-2.78-4.54-4.31-.48-2.67.04-3.96 1.69-2.65 2.34 2.59 6.8 7.43 9.13 9.68 2.62 1.96 5.62 2.03 8.02.04 1.37-1.54.88-3.2-1.26-2.84-4.83.4-8.5-1.95-12.51-8.29-.79-1.44-1.01-3.49.73-1.97 2 2.65 4.92 4.91 7.64 5.87 2.72.96 5.23.63 5.84-.41 1.01-1.72.78-3.62-1.04-2.99-1.5.51-3.61.65-5.8-.19-2.2-.84-4.48-2.64-6.91-5.71-.83-1.74-.55-3.2 1.12-2.31 3.98 3.3 9.1 5.97 11.72 4.36 1.92-1.18 1.96-4.19-.48-4-4.93.67-6.79-.41-11.51-4.49-1.08-.79-1-2.77.7-1.5 3.98 2.5 9.41 3.48 11.54 2.18 1.92-1.18 1.63-4.76-1.6-3.49-2.58 1.54-5.44 1.49-11.16-2.51-1.44-1.17-.37-2.7.82-2.04 4.6 2.56 11.3 3.66 13.05-1.55.67-2-.55-3.16-2.36-1.78-3.95 3.57-8.43 1.81-10.93.02-.66-.03-2.05-2.51.28-2.13 5.99 1.34 11.92.18 12.99-3.97.63-1.35-.6-3.72-2.78-1.73-2.88 2.78-5.93 2.87-9.76 2.85-1.96-.4-1.97-2.5-.34-2.81 3.02.07 6.02-1.23 8.41-2.55 2.33-1.31 4.27-3.15 4.88-5.7.38-2.28-1.87-4.71-3.23-2.29-2 3.55-6.44 6.89-11.37 7.49-.25-.42-.91-1.5-1.7-1.2-2.9 1.1-6.91 2.94-10.21 4.77-.72.4.12 2.31.29 3.05.16 1.88-.41 3.07-1.01 3.77-.59.7-2.21 1.16-3.13.91-1.82-.49-2.8-2.07-2.5-4.88.09-.3.17-1.65 1.66-3.41.75-.88 1.8-2.01 3.46-2.92 1.66-.9 4.18-1.4 7.2-2.06 1.84-.36 2.78-1.05 2.89-1.8-.88.2-2.33.95-3.28.77-.94-.18-1.41-.63-1.82-.89.69-.15 1.97.02 3.11.02s2.14-.24 2.81-.35c1.4-.23 2.51-.8 3.17-2.08.29-1.38-.63-1.63-1.5-.74-.73.75-.88 1.06-1.35 1.39-.47.33-1.25.64-1.81.74-1.14.2-2.26.42-3.71.08.29-.36.93-.94 1.52-1.3.59-.36 1.16-.54 1.71-.45.37.06.84.39 1.24.99.24-1.51-.19-3.21-4.3-2.51.05-1.13-2.4-1.63-3.88-1.61-.84.01-2.55.5-3.79 1.08-1.96.59-3.9 1.03-6.18 1.19 1.31 1.1 1.57 1.17 2.9 2.11-2.01.73-3.56 2.24-4.26 3.23 1.75.08 2.33-.06 2.93.19-2.44.71-3.55 1.12-4.84 2.41.46.08 1.14.2 1.42.31.3.11.18.27-.03.48-.56.35-2.7 2.87-3.33 3.46-.64-.59-2.77-3.11-3.33-3.46-.2-.22-.33-.37-.03-.48.29-.11.97-.23 1.42-.31-1.29-1.29-2.39-1.71-4.84-2.41.59-.25 1.17-.11 2.93-.19-.7-.99-2.25-2.5-4.26-3.23 1.32-.94 1.58-1.01 2.9-2.11-2.28-.16-4.22-.59-6.17-1.19-1.24-.58-2.95-1.07-3.79-1.08-1.48-.02-3.93.47-3.88 1.61-4.12-.71-4.55.99-4.3 2.51.39-.6.87-.93 1.24-.99.55-.09 1.12.09 1.71.45.59.36 1.23.94 1.52 1.3-1.45.35-2.58.12-3.71-.08-.56-.1-1.35-.41-1.81-.74-.47-.33-.61-.63-1.35-1.39-.87-.89-1.79-.64-1.5.74.66 1.28 1.77 1.85 3.17 2.08.67.11 1.68.35 2.81.35 1.14 0 2.41-.16 3.11-.02-.42.26-.89.71-1.82.89-.95.18-2.4-.57-3.28-.77.11.74 1.05 1.43 2.89 1.8 3.03.66 5.54 1.16 7.2 2.06 1.66.9 2.71 2.03 3.46 2.92 1.49 1.76 1.57 3.11 1.66 3.41.31 2.81-.67 4.4-2.5 4.88-.91.24-2.53-.21-3.13-.91-.59-.7-1.17-1.9-1.01-3.77.16-.74 1-2.65.29-3.05-3.3-1.82-7.31-3.67-10.21-4.77-.79-.3-1.45.78-1.7 1.2-4.93-.6-9.37-3.94-11.37-7.49-1.36-2.42-3.61 0-3.23 2.29.61 2.55 2.55 4.39 4.88 5.7 2.39 1.32 5.38 2.61 8.41 2.55 1.63.31 1.61 2.42-.34 2.81-3.82.02-6.88-.07-9.76-2.85-2.19-2-3.42.38-2.78 1.73 1.07 4.15 6.99 5.31 12.99 3.97 2.32-.38.93 2.1.28 2.13-2.5 1.8-6.99 3.55-10.93-.02-1.81-1.38-3.03-.22-2.36 1.78 1.75 5.21 8.45 4.11 13.05 1.55 1.18-.66 2.26.88.82 2.04-5.72 4-8.58 4.04-11.16 2.51-3.23-1.27-3.51 2.31-1.6 3.49 2.13 1.31 7.56.33 11.54-2.18 1.71-1.27 1.78.72.7 1.5-4.73 4.08-6.59 5.16-11.51 4.49-2.44-.19-2.41 2.82-.48 4 2.62 1.61 7.75-1.06 11.72-4.36 1.67-.89 1.95.57 1.12 2.31-2.43 3.07-4.71 4.87-6.91 5.71-2.2.84-4.31.7-5.8.19-1.82-.63-2.05 1.27-1.04 2.99.61 1.04 3.13 1.37 5.84.41 2.72-.96 5.63-3.22 7.64-5.87 1.74-1.53 1.53.52.73 1.97-4.01 6.34-7.68 8.69-12.51 8.29-2.14-.36-2.63 1.3-1.26 2.84 2.4 1.99 5.4 1.93 8.02-.04 2.33-2.25 6.79-7.09 9.13-9.68 1.65-1.31 2.17-.02 1.69 2.65-.44 1.53-1.54 3.14-4.54 4.31-2.05 1.17-.51 2.78 1.03 2.81.85.02 2.56-.97 3.88-2.45 1.73-1.95 1.83-3.25 2.78-6.28.9-1.48 2.51-.79 2.51.76-.77 3.03-1.43 3.58-2.99 4.82-1.49 1.4 1.04 1.87 1.89 1.29 2.47-1.66 3.37-3.81 4.19-5.77.59-1.41 2.32-.73 1.52 1.58-1.91 5.51-5.05 7.67-10.54 8.79-.56.1-.9.43-.7 1.07.74.77 1.48 1.46 2.21 2.22-3.4.99-6.16 1.54-9.56 2.54-1.67-1.09-3.02-2.02-4.68-3.12-.44-1.03-.64-2.6-3.11-1.49-1.67-.77-2.44-.49-3.36.28 1.34.05 1.92.41 2.44 1.02.68 1.8 2.26 1.98 3.88 1.46 1.05.88 1.61 1.56 2.66 2.45-1.96-.07-3.33-.1-5.28-.16-1.87-2-3.36-1.89-4.69-.32-1.02.16-1.45.18-2.15 1.42 1.1-.45 1.79-.58 2.26-.09 1.98 1.15 3.28.89 4.27 0 1.91.12 3.64.22 5.56.34-.7.6-1.67.92-2.38 1.52-2.88-.82-4.38.28-4.88 2.63-.39.95-.57 1.92-.4 2.94.28-.93.73-1.72 1.55-2.22 2.56.65 3.53-.4 3.67-1.93 1.24-1.01 3.1-1.23 4.33-2.25 1.44.46 2.14.75 3.59 1.21.52 1.57 1.68 2.19 3.58 1.79 2.26.07 1.86 1 2.04 1.74.6-1.06.58-2.1-.81-3.04-.51-1.37-1.63-2-3.1-1.21-1.38-.39-1.75-.96-3.13-1.35 3.49-1.11 5.96-1.36 9.44-2.47.87.82 1.56 1.41 2.44 2.15.46.28.91.35 1.18 0 2.18-3.16 3.16-5.94 5.19-8.03.78-.86 1.75-2.03 2.84-2.31.54-.14 1.21-.06 1.63.41.43.46.76 1.32.62 2.59-.2 1.83-.65 2.41-1.16 3.51-.51 1.1-1.14 1.77-1.79 2.61-1.29 1.68-2.99 2.66-4 3.32-2.01 1.31-2.87.74-4.43.66-2.02.23-2.55 1.21-.9 2.56 1.54.8 2.93.9 4.06.69.97-.18 2.1-1.43 2.91-2.1.91-1.05 2.41.2 1.39 1.42-1.87 2.22-3.73 3.68-6.03 3.65-2.42.33-1.97 1.68-.36 2.35 2.89 1.19 5.5-1.04 6.82-2.51 1.02-1.12 1.75-1.16 1.57.57-1.01 3.14-2.4 4.35-4.66 4.5-1.84-.17-1.86 1.25-.51 2.2 3.06 2.12 5.27-1.49 6.31-3.67.74-1.97 1.87-1.03 1.99.59.02 2.16-.96 3.93-3.58 6.15 2 3.19 4.34 6.44 6.35 9.64 2.01-3.2 4.34-6.45 6.35-9.64-2.62-2.22-3.6-3.98-3.58-6.15.12-1.62 1.25-2.55 1.99-.59 1.03 2.18 3.25 5.78 6.31 3.67 1.34-.96 1.32-2.37-.51-2.2-2.26-.16-3.65-1.37-4.66-4.5-.18-1.73.55-1.69 1.57-.57 1.32 1.47 3.93 3.7 6.82 2.51 1.6-.66 2.06-2.02-.36-2.35-2.3.03-4.17-1.43-6.03-3.65-1.03-1.22.48-2.46 1.39-1.42.81.67 1.94 1.92 2.91 2.1 1.13.21 2.51.11 4.06-.69 1.65-1.36 1.11-2.34-.9-2.56-1.56.08-2.41.66-4.43-.66-1.01-.66-2.71-1.64-4-3.32-.64-.84-1.27-1.52-1.79-2.61-.51-1.1-.96-1.68-1.16-3.51-.14-1.28.19-2.13.62-2.59.43-.46 1.09-.55 1.63-.41 1.09.28 2.07 1.45 2.84 2.31 2.03 2.08 3 4.87 5.19 8.03.27.35.72.28 1.18 0 .88-.73 1.57-1.32 2.44-2.15 3.48 1.11 5.96 1.36 9.44 2.47-1.38.39-1.74.96-3.13 1.35-1.47-.79-2.59-.17-3.1 1.21-1.39.94-1.41 1.98-.81 3.04.18-.74-.22-1.67 2.04-1.74 1.9.4 3.07-.22 3.58-1.79 1.45-.46 2.15-.74 3.59-1.21 1.23 1.02 3.1 1.24 4.33 2.25.14 1.53 1.1 2.58 3.67 1.93.82.5 1.27 1.3 1.55 2.22.17-1.01-.01-1.99-.4-2.94-.51-2.35-2.01-3.45-4.88-2.63-.7-.6-1.67-.92-2.38-1.52 1.92-.13 3.64-.22 5.56-.34.98.89 2.28 1.15 4.27 0 .48-.49 1.17-.35 2.26.09-.82-1.24-1.26-1.27-2.27-1.42zM110.95 52.2c1.2 0 1.96.37 1.96.87 0 .51-.76.96-1.96.96s-1.95-.41-1.95-.92c.01-.5.75-.91 1.95-.91zm-29.9 1.83c-1.2 0-1.96-.45-1.96-.96 0-.5.76-.87 1.96-.87s1.95.41 1.95.91c-.01.51-.75.92-1.95.92z"/><path fill="none" d="M172 160V32c0-6.6-5.4-12-12-12H32c-6.6 0-12 5.4-12 12v128c0 6.6 5.4 12 12 12h128c6.6 0 12-5.4 12-12z" opacity=".4"/><path fill="none" d="M0 0v192h192V0H0z"/><path fill="#DFDFDF" d="M160 20c6.6 0 12 5.4 12 12v128c0 6.6-5.4 12-12 12H32c-6.6 0-12-5.4-12-12V32c0-6.6 5.4-12 12-12h128m0-8H32c-11.03 0-20 8.97-20 20v128c0 11.03 8.97 20 20 20h128c11.03 0 20-8.97 20-20V32c0-11.03-8.97-20-20-20z"/><path fill="#FFF" fill-opacity=".2" d="M160 20H32c-6.6 0-12 5.4-12 12v1c0-6.6 5.4-12 12-12h128c6.6 0 12 5.4 12 12v-1c0-6.6-5.4-12-12-12z"/><path fill="#212121" fill-opacity=".1" d="M160 172H32c-6.6 0-12-5.4-12-12v-1c0 6.6 5.4 12 12 12h128c6.6 0 12-5.4 12-12v1c0 6.6-5.4 12-12 12z"/><radialGradient id="a" cx="23.768" cy="23.933" r="204.625" gradientUnits="userSpaceOnUse"><stop offset="0" stop-color="#fff" stop-opacity=".1"/><stop offset="1" stop-color="#fff" stop-opacity="0"/></radialGradient><path fill="url(#a)" d="M160 172H32c-6.6 0-12-5.4-12-12V32c0-6.6 5.4-12 12-12h128c6.6 0 12 5.4 12 12v128c0 6.6-5.4 12-12 12z"/></svg>