<svg xmlns="http://www.w3.org/2000/svg" width="192" height="192"><path d="M172 160V32c0-6.6-5.4-12-12-12H32c-6.6 0-12 5.4-12 12v128c0 6.6 5.4 12 12 12h128c6.6 0 12-5.4 12-12z"/><path fill="#CE1126" d="M160 20H32c-6.6 0-12 5.4-12 12v64h152V32c0-6.6-5.4-12-12-12z"/><path fill="#F9D616" d="M138.85 140.02c-1.18-1.91-2.63-3.32-4.53-5-1.9-1.69-4.52-3.54-6.46-5.42l-3.69 4.33c-.16.18-.1.6.1.64 4.15.71 5.45 2.18 7.09 3.59 2.23 2.25 3.14 4.98 4.59 5.99 2.69 1.86 4.63-1.32 2.9-4.13zm-9.71-6.88c-.28 0-.51-.23-.51-.51s.23-.51.51-.51.51.23.51.51-.23.51-.51.51zm3.76 3.28c-.28 0-.51-.23-.51-.51s.23-.51.51-.51.51.23.51.51-.23.51-.51.51zm3.3 3.35c-.28 0-.51-.23-.51-.51s.23-.51.51-.51.51.23.51.51-.23.51-.51.51zM91.03 83.93l-8.04-5.84h9.94L96 68.64l3.07 9.45h9.94l-8.04 5.84 3.07 9.45L96 87.54l-8.04 5.84 3.07-9.45zm8.07-17.41l.71-6.8c2.31.24 4.57.73 6.77 1.39l.89-2.93c2.48.75 4.87 1.74 7.16 2.96l-1.44 2.7c2.09 1.12 4.09 2.42 5.94 3.94l.02.02 1.93-2.35c2 1.64 3.84 3.48 5.48 5.48l-2.35 1.93a36.32 36.32 0 013.98 5.95l2.68-1.43c1.22 2.28 2.21 4.68 2.96 7.16l-2.91.88a36.56 36.56 0 011.39 7.01l3.03-.3c.25 2.58.25 5.17 0 7.75l-3.03-.3c-.23 2.36-.69 4.71-1.39 7.01l2.91.88c-.75 2.48-1.74 4.87-2.96 7.16l-2.68-1.43a37.124 37.124 0 01-3.96 5.93c0 .01-.01.01-.02.02l2.35 1.93c-.96 1.17-2 2.28-3.08 3.33l-8.33-5.77c5.63-4.76 9.51-11.61 10.35-19.53 1.69-16.29-10.12-30.88-26.4-32.59zm10.38 59.79l1.6 6.22c-1.18.49-2.39.92-3.61 1.29l-.88-2.91a36.56 36.56 0 01-7.01 1.39l.3 3.03c-2.58.25-5.17.25-7.75 0l.3-3.03c-2.36-.23-4.71-.69-7.01-1.39l-.88 2.91c-2.48-.75-4.87-1.74-7.16-2.96l1.43-2.68a37.124 37.124 0 01-5.93-3.96l4.34-5.29c4.48 3.67 9.93 5.95 15.69 6.55 4.45.47 8.76-.08 12.73-1.45l3.84 2.28zm16.08 4.84l-1.86 2.19c-8.79-5.84-15.45-9.9-22.65-14.08-3.61-2.09-7.35-4.22-11.57-6.62-4.97-2.82-12.68-9.92-6.59-21.8.24 4.94 12.71 15.34 25.12 24.67 7.17 5.39 14.33 10.42 19.1 13.83l-1.04 1.23c-3.78-2.86-7.78-5.67-11.65-8.4-7.81-5.5-15.89-11.19-22.66-17.57-.15-.14-.39-.14-.54.02s-.14.39.02.54c6.81 6.42 14.91 12.12 22.75 17.64 3.83 2.7 7.81 5.51 11.57 8.35z"/><path fill="none" d="M172 160V32c0-6.6-5.4-12-12-12H32c-6.6 0-12 5.4-12 12v128c0 6.6 5.4 12 12 12h128c6.6 0 12-5.4 12-12z" opacity=".4"/><path fill="none" d="M0 0v192h192V0H0z"/><path fill="#DFDFDF" d="M160 20c6.6 0 12 5.4 12 12v128c0 6.6-5.4 12-12 12H32c-6.6 0-12-5.4-12-12V32c0-6.6 5.4-12 12-12h128m0-8H32c-11.03 0-20 8.97-20 20v128c0 11.03 8.97 20 20 20h128c11.03 0 20-8.97 20-20V32c0-11.03-8.97-20-20-20z"/><path fill="#FFF" fill-opacity=".2" d="M160 20H32c-6.6 0-12 5.4-12 12v1c0-6.6 5.4-12 12-12h128c6.6 0 12 5.4 12 12v-1c0-6.6-5.4-12-12-12z"/><path fill="#212121" fill-opacity=".1" d="M160 172H32c-6.6 0-12-5.4-12-12v-1c0 6.6 5.4 12 12 12h128c6.6 0 12-5.4 12-12v1c0 6.6-5.4 12-12 12z"/><radialGradient id="a" cx="23.768" cy="23.933" r="204.625" gradientUnits="userSpaceOnUse"><stop offset="0" stop-color="#fff" stop-opacity=".1"/><stop offset="1" stop-color="#fff" stop-opacity="0"/></radialGradient><path fill="url(#a)" d="M160 172H32c-6.6 0-12-5.4-12-12V32c0-6.6 5.4-12 12-12h128c6.6 0 12 5.4 12 12v128c0 6.6-5.4 12-12 12z"/></svg>