<svg xmlns="http://www.w3.org/2000/svg" width="192" height="192"><path fill="#74ACDF" d="M160 20H32c-6.6 0-12 5.4-12 12v128c0 6.6 5.4 12 12 12h128c6.6 0 12-5.4 12-12V32c0-6.6-5.4-12-12-12z"/><path fill="#FFF" d="M20 55.16h152v81.68H20z"/><path fill="#F6B40E" d="M102.08 108.41l6.7 18.08c.03.07.08.26.04.34-.01.01-.01.02-.04.04-.11.04-.25-.22-.27-.28l-8.04-17.51c.17-.06.33-.12.5-.18l3.71 8.11-3.11-8.36c.18-.07.34-.16.51-.24zM99 109.5c.37 3.67 2.25 5.9 1.31 8.68.42-3.41-1.32-5.34-1.98-8.55-.19.03-.38.06-.58.09.22 1.07.56 2.06.91 3.01.65 1.76 1.27 3.42 1.08 5.53-.26 2.9.84 4.9 1.65 6.36.31.57.58 1.06.73 1.51.33 1.01.07 1.78-.1 2.28-.03.1-.08.23-.1.32.04-.01.09-.05.17-.12.32-.31.8-1.27.56-2.88-.11-.73-.36-1.27-.66-1.91-.59-1.27-1.26-2.7-.99-6.07.2-2.43-.3-3.93-.77-5.38-.31-.96-.61-1.88-.72-3.01-.16.05-.33.1-.51.14zm-5.39.11c-1.06 3.53-.18 6.32-2.11 8.52 1.69-2.99.81-5.44 1.43-8.66-.2-.04-.39-.1-.58-.15-.2 1.08-.25 2.12-.29 3.14-.07 1.88-.13 3.65-1.12 5.53-1.35 2.58-1.1 4.85-.91 6.51.07.64.13 1.2.1 1.67-.08 1.06-.61 1.67-.97 2.07-.07.08-.16.19-.21.26.04.01.11-.01.2-.04.42-.17 1.23-.87 1.62-2.44.18-.71.15-1.31.12-2.01-.06-1.4-.13-2.98 1.41-5.99 1.11-2.17 1.23-3.74 1.35-5.27.08-1 .15-1.97.48-3.06-.17-.02-.34-.04-.52-.08zm2.7.21l-.33 8.92-.33-8.92c-.18 0-.35-.02-.53-.03l.72 19.26c0 .06.03.36.15.36.02 0 .07 0 .11-.13.04-.11.04-.22.04-.23l.72-19.27c-.18.02-.36.04-.55.04zm-5.31-.93L87.28 117l3.11-8.36c-.16-.07-.32-.15-.48-.23l-6.7 18.07c-.02.06-.11.35-.01.39.1.05.25-.22.27-.27l8.04-17.52c-.16-.06-.34-.13-.51-.19zm-2.42-1.23c-2.33 2.86-2.58 5.77-5.22 7.07 2.71-2.12 2.83-4.71 4.64-7.45l-.48-.36c-.6.92-1.05 1.87-1.47 2.8-.78 1.71-1.52 3.32-3.14 4.68-2.24 1.87-2.87 4.06-3.33 5.67-.18.62-.33 1.16-.55 1.58-.48.95-1.2 1.31-1.68 1.54-.1.05-.22.11-.29.16.04.02.1.03.2.04h.01c.45 0 1.46-.34 2.42-1.63.44-.59.64-1.16.88-1.81.48-1.31 1.02-2.8 3.59-4.99 1.85-1.58 2.57-2.99 3.26-4.35.45-.9.9-1.77 1.62-2.64-.15-.12-.31-.21-.46-.31zm-3.9-3.73c-3.25 1.75-4.59 4.34-7.52 4.53 3.31-.92 4.42-3.27 7.14-5.11-.1-.16-.2-.33-.3-.5-.9.62-1.69 1.31-2.44 2-1.38 1.28-2.68 2.49-4.7 3.12-2.78.87-4.21 2.66-5.25 3.96-.4.51-.75.94-1.11 1.25-.81.69-1.61.75-2.15.78-.11.01-.25.02-.33.03.03.03.08.07.17.11.41.18 1.48.25 2.87-.58.63-.38 1.04-.82 1.51-1.34.94-1.03 2.02-2.2 5.23-3.24 2.32-.75 3.51-1.78 4.68-2.77.76-.66 1.51-1.29 2.51-1.82-.09-.13-.2-.27-.31-.42zm1.77 2.06l-6.54 6.08 6.08-6.54a12.3 12.3 0 01-.35-.39l-13.11 14.13c-.04.05-.24.28-.15.36.08.08.31-.11.35-.15l14.14-13.11c-.14-.13-.29-.25-.42-.38zM82.5 99c-3.67.37-5.9 2.25-8.68 1.31 3.41.42 5.34-1.32 8.55-1.98-.03-.19-.06-.38-.09-.58-1.07.22-2.06.56-3.01.91-1.76.65-3.43 1.27-5.53 1.08-2.9-.26-4.9.84-6.36 1.65-.57.31-1.06.58-1.51.73-1.01.33-1.78.07-2.28-.1-.1-.03-.23-.08-.32-.1.01.04.05.09.12.17.31.32 1.27.8 2.88.56.73-.11 1.27-.36 1.91-.66 1.27-.59 2.7-1.26 6.07-.99 2.43.19 3.93-.3 5.38-.77.96-.31 1.88-.61 3.01-.72-.05-.16-.1-.33-.14-.51zm.85 2.57l-8.36 3.11 8.11-3.71c-.06-.16-.12-.33-.18-.5l-17.51 8.04c-.06.03-.32.17-.28.27.01.02.02.06.16.05.11-.01.22-.05.22-.05l18.08-6.7c-.08-.17-.17-.33-.24-.51zm-.96-7.96c-3.53-1.06-6.32-.18-8.52-2.11 2.99 1.69 5.44.81 8.66 1.43.04-.2.1-.39.15-.58-1.08-.2-2.12-.25-3.14-.29-1.88-.07-3.65-.13-5.53-1.12-2.58-1.35-4.85-1.1-6.51-.91-.64.07-1.2.14-1.67.1-1.06-.08-1.67-.61-2.07-.97-.08-.07-.19-.16-.26-.21 0 .04.01.1.04.2.17.42.87 1.23 2.44 1.62.71.18 1.32.15 2.01.12 1.4-.06 2.98-.13 5.99 1.41 2.16 1.11 3.74 1.23 5.27 1.35 1 .08 1.97.15 3.06.48.02-.17.04-.34.08-.52zm-.21 2.7l-8.92-.33 8.92-.33c0-.18.02-.35.03-.53l-19.26.72c-.06 0-.36.03-.36.15 0 .02 0 .07.13.11.11.04.22.04.22.04l19.27.72c-.01-.18-.03-.36-.03-.55zm.93-5.31L75 87.28l8.36 3.11c.07-.16.15-.32.23-.48l-18.07-6.7c-.06-.02-.35-.11-.39-.01-.04.11.22.25.27.27l17.52 8.04c.06-.16.13-.34.19-.51zm1.23-2.42c-2.86-2.33-5.77-2.58-7.07-5.22 2.12 2.71 4.71 2.83 7.45 4.64l.36-.48c-.92-.6-1.87-1.05-2.8-1.47-1.71-.78-3.32-1.52-4.68-3.14-1.87-2.24-4.06-2.87-5.67-3.33-.62-.18-1.16-.33-1.58-.55-.95-.48-1.31-1.2-1.54-1.68-.05-.1-.11-.22-.16-.29-.02.03-.03.1-.04.2-.01.45.33 1.46 1.63 2.43.59.44 1.16.64 1.81.88 1.31.48 2.8 1.02 4.99 3.59 1.58 1.85 2.99 2.57 4.35 3.26.9.45 1.77.9 2.64 1.62.12-.15.21-.31.31-.46zm3.73-3.9c-1.75-3.25-4.34-4.59-4.53-7.52.92 3.31 3.27 4.42 5.11 7.14.16-.1.33-.2.49-.3-.62-.9-1.31-1.69-2-2.44-1.28-1.38-2.49-2.68-3.12-4.7-.87-2.78-2.66-4.21-3.96-5.25-.51-.4-.94-.75-1.25-1.11-.69-.81-.75-1.61-.78-2.15-.01-.11-.02-.25-.03-.33-.03.03-.07.08-.11.17-.18.41-.25 1.48.58 2.87.38.63.82 1.04 1.34 1.51 1.03.94 2.2 2.02 3.24 5.23.75 2.32 1.78 3.51 2.77 4.68.66.76 1.29 1.51 1.82 2.51.14-.09.28-.2.43-.31zm-2.06 1.77l-6.08-6.54 6.54 6.08c.13-.12.26-.24.39-.35L72.73 72.53c-.05-.04-.28-.24-.36-.15-.02.02-.05.05.01.16.05.1.13.19.13.19l13.11 14.14c.14-.14.26-.29.39-.42zM93 82.5c-.37-3.67-2.25-5.9-1.31-8.68-.42 3.41 1.32 5.34 1.98 8.55.19-.03.38-.06.58-.09-.22-1.07-.56-2.06-.91-3.01-.65-1.76-1.27-3.42-1.08-5.53.26-2.9-.84-4.9-1.65-6.36-.31-.57-.58-1.06-.73-1.51-.33-1.01-.07-1.78.1-2.28.03-.1.08-.23.1-.32-.04.01-.09.05-.17.12-.32.31-.8 1.27-.56 2.88.11.73.36 1.27.66 1.91.59 1.27 1.26 2.7.99 6.07-.2 2.43.3 3.93.77 5.38.31.96.61 1.88.72 3.01.16-.05.33-.1.51-.14zm-2.57.85l-3.11-8.36 3.71 8.11c.16-.06.33-.12.5-.18l-8.04-17.51c-.03-.06-.16-.32-.27-.28-.02.01-.06.02-.05.16.01.11.05.22.05.22l6.7 18.08c.17-.08.33-.17.51-.24zm7.96-.96c1.06-3.53.18-6.32 2.11-8.52-1.69 2.99-.81 5.44-1.43 8.66.2.04.39.1.58.15.2-1.08.25-2.12.29-3.14.07-1.88.13-3.65 1.12-5.53 1.35-2.58 1.1-4.85.91-6.51-.07-.64-.13-1.2-.1-1.67.08-1.06.61-1.67.96-2.07.07-.08.16-.19.21-.25-.04 0-.1.01-.2.04-.42.17-1.23.87-1.62 2.44-.18.71-.15 1.31-.12 2.01.06 1.4.13 2.98-1.41 5.99-1.11 2.16-1.23 3.74-1.35 5.27-.08 1-.15 1.97-.48 3.06.18.01.35.03.53.07zm-2.7-.21l.33-8.92.33 8.92c.18 0 .35.02.53.03l-.72-19.26c0-.06-.03-.36-.15-.36-.02.02-.07 0-.11.13-.04.11-.04.22-.04.23l-.72 19.27c.18-.02.36-.04.55-.04zm7.73 2.16c2.33-2.86 2.58-5.77 5.22-7.07-2.71 2.12-2.83 4.71-4.64 7.45l.48.36c.6-.92 1.05-1.87 1.47-2.8.78-1.71 1.52-3.32 3.14-4.68 2.23-1.87 2.87-4.06 3.33-5.67.18-.62.33-1.16.55-1.58.48-.95 1.2-1.31 1.68-1.54.1-.05.22-.11.29-.16a.559.559 0 00-.2-.04c-.44.01-1.46.33-2.43 1.63-.44.59-.64 1.16-.88 1.81-.48 1.31-1.02 2.8-3.59 4.99-1.85 1.58-2.57 2.99-3.26 4.35-.45.9-.9 1.77-1.62 2.64.15.12.31.21.46.31zM101 83.11l3.71-8.11-3.11 8.36c.16.07.32.15.48.23l6.7-18.07c.02-.06.11-.35.01-.39-.11-.04-.25.22-.27.27l-8.04 17.52c.17.06.35.13.52.19zm6.32 4.96c3.25-1.75 4.59-4.34 7.52-4.53-3.31.92-4.42 3.27-7.14 5.11.1.16.2.33.3.49.9-.62 1.69-1.31 2.44-2 1.38-1.28 2.68-2.49 4.7-3.12 2.78-.87 4.21-2.66 5.25-3.96.4-.51.75-.94 1.11-1.25.81-.69 1.61-.75 2.15-.78.11-.01.25-.02.33-.03a.546.546 0 00-.17-.11c-.41-.18-1.48-.25-2.87.58-.63.38-1.04.82-1.51 1.34-.94 1.03-2.02 2.2-5.23 3.24-2.32.75-3.51 1.78-4.68 2.77-.76.66-1.51 1.29-2.51 1.82.09.14.2.28.31.43zm-1.77-2.06l6.54-6.08-6.08 6.54c.12.13.24.26.35.39l13.11-14.13c.04-.05.24-.28.15-.36-.02-.02-.03-.02-.05-.02-.09 0-.25.11-.3.17l-14.14 13.11c.15.13.29.25.42.38zM109.5 93c3.67-.37 5.9-2.25 8.68-1.31-3.41-.42-5.34 1.32-8.55 1.98l.09.58c1.07-.22 2.06-.56 3.01-.92 1.76-.65 3.42-1.27 5.53-1.08 2.9.26 4.9-.84 6.36-1.65.57-.31 1.06-.58 1.51-.73 1.01-.33 1.78-.07 2.28.1.1.03.23.08.32.1-.01-.04-.05-.09-.12-.17-.31-.32-1.27-.8-2.88-.56-.73.11-1.27.36-1.91.66-1.27.59-2.71 1.26-6.07.99-2.42-.2-3.93.3-5.38.77-.96.31-1.88.62-3.01.72.05.17.1.34.14.52zm-.85-2.57l8.36-3.11-8.11 3.71c.06.16.12.33.18.5l17.51-8.04c.06-.03.32-.17.28-.27-.01-.03-.02-.03-.04-.04-.08-.04-.27.01-.34.04l-18.08 6.7c.08.17.17.33.24.51zm20.64 5.46c-.11-.04-.22-.04-.22-.04l-19.27-.72.03.56 8.92.33-8.92.33c0 .18-.02.35-.03.53l19.26-.72c.06 0 .36-.03.36-.15-.01-.03-.01-.07-.13-.12zm-19.68 2.5c3.53 1.06 6.32.18 8.52 2.11-2.99-1.69-5.44-.81-8.66-1.43-.04.2-.1.39-.15.58 1.08.2 2.12.25 3.14.29 1.88.07 3.65.13 5.53 1.12 2.58 1.35 4.85 1.1 6.51.91.64-.07 1.2-.14 1.67-.1 1.06.08 1.67.61 2.07.96.08.07.19.16.25.21 0-.04-.01-.1-.04-.2-.17-.42-.87-1.23-2.44-1.62-.71-.18-1.31-.15-2.01-.12-1.4.06-2.98.13-5.99-1.41-2.17-1.11-3.74-1.23-5.27-1.35-1-.08-1.97-.15-3.06-.48-.01.18-.03.35-.07.53zm-1.95 5.03c2.86 2.33 5.77 2.58 7.07 5.22-2.12-2.71-4.71-2.83-7.45-4.64l-.36.48c.92.6 1.87 1.05 2.8 1.47 1.71.78 3.32 1.52 4.68 3.14 1.87 2.24 4.06 2.87 5.67 3.33.62.18 1.16.33 1.58.55.95.48 1.31 1.2 1.54 1.68.05.1.11.22.16.29.02-.03.03-.1.04-.2.01-.45-.33-1.46-1.63-2.43-.59-.44-1.16-.64-1.81-.88-1.31-.48-2.8-1.02-4.99-3.59-1.58-1.85-2.99-2.57-4.35-3.26-.9-.45-1.77-.9-2.64-1.62-.12.15-.21.31-.31.46zm1.23-2.42l8.11 3.71-8.36-3.11c-.07.16-.15.32-.23.48l18.07 6.7c.06.02.35.11.39.01.01-.03.01-.04 0-.05-.04-.09-.2-.19-.27-.22l-17.52-8.04c-.06.17-.13.35-.19.52zm-4.95 6.32c1.75 3.25 4.34 4.59 4.53 7.52-.92-3.31-3.27-4.42-5.11-7.14-.17.11-.34.21-.51.31.62.9 1.32 1.68 2.02 2.43 1.28 1.38 2.49 2.68 3.12 4.7.87 2.78 2.66 4.21 3.96 5.25.51.4.94.75 1.25 1.11.69.81.75 1.61.78 2.15.01.11.02.25.03.33.03-.03.07-.08.11-.17.18-.41.25-1.48-.58-2.87-.38-.63-.82-1.04-1.34-1.51-1.03-.94-2.2-2.02-3.24-5.23-.75-2.32-1.78-3.51-2.77-4.68-.66-.76-1.29-1.51-1.82-2.51-.15.09-.29.2-.43.31zm2.05-1.77l6.08 6.54-6.54-6.08c-.13.12-.26.24-.39.35l14.13 13.11c.05.04.28.24.36.15.08-.08-.11-.31-.15-.35l-13.11-14.14c-.13.15-.25.29-.38.42zM96 82.89c-7.23 0-13.11 5.88-13.11 13.11s5.88 13.11 13.11 13.11 13.11-5.88 13.11-13.11S103.23 82.89 96 82.89z"/><path fill="#85340A" d="M129.46 95.38c-.19-.06-.38-.07-.39-.07l-18.5-.7c.82-.22 1.59-.5 2.34-.78 1.7-.63 3.31-1.23 5.3-1.05 3.06.27 5.15-.88 6.67-1.72.54-.3 1.01-.56 1.41-.69.84-.28 1.48-.06 1.94.1.35.12.78.27.98-.14.06-.12.12-.37-.11-.68-.44-.59-1.7-1.12-3.46-.86-.81.12-1.41.4-2.06.7-1.21.56-2.57 1.2-5.8.94-2.53-.2-4.09.31-5.59.8-.86.28-1.7.56-2.69.68l17.29-7.93c.02-.01.19-.08.34-.21.25-.22.33-.5.22-.76a.594.594 0 00-.33-.33c-.32-.13-.71.02-.75.04l-17.33 6.43c.66-.52 1.26-1.06 1.84-1.61 1.33-1.24 2.59-2.4 4.49-3 2.94-.92 4.42-2.78 5.51-4.14.39-.49.72-.9 1.04-1.18.67-.58 1.34-.62 1.83-.65.37-.02.83-.05.85-.51.01-.13-.03-.39-.37-.59-.63-.38-2-.38-3.52.53-.7.42-1.15.91-1.63 1.43-.9.98-1.92 2.09-5 3.09-2.42.78-3.66 1.85-4.86 2.88-.69.59-1.36 1.16-2.22 1.65l12.93-13.95c.3-.3.48-.78.15-1.11a.598.598 0 00-.43-.18c-.35 0-.65.29-.68.32L105.35 84.7c.41-.73.75-1.46 1.09-2.19.76-1.65 1.47-3.21 3-4.49 2.36-1.97 3.02-4.26 3.5-5.93.17-.6.32-1.11.51-1.49.4-.79 1-1.08 1.44-1.3.33-.16.74-.37.6-.8-.04-.13-.17-.34-.56-.4-.73-.11-1.99.41-3.05 1.84-.48.65-.71 1.28-.96 1.95-.46 1.25-.97 2.67-3.44 4.77-1.94 1.65-2.68 3.11-3.39 4.52-.41.81-.81 1.59-1.42 2.38l6.61-17.83c.16-.4.14-.9-.29-1.09a.567.567 0 00-.46 0c-.32.13-.49.52-.5.56L100.32 82c.1-.83.14-1.64.17-2.44.07-1.81.13-3.53 1.05-5.3 1.43-2.73 1.16-5.09.97-6.82-.07-.62-.13-1.15-.1-1.57.07-.88.51-1.38.83-1.75.24-.28.55-.62.25-.96-.09-.1-.29-.25-.67-.16-.72.18-1.68 1.15-2.11 2.87-.2.79-.17 1.46-.14 2.17.06 1.33.12 2.84-1.35 5.72-1.16 2.26-1.28 3.89-1.4 5.47-.07.9-.14 1.78-.4 2.74l-.72-19.01c0-.43-.21-.89-.68-.89-.29 0-.51.18-.62.5-.06.19-.07.38-.07.39l-.69 18.5c-.22-.82-.5-1.59-.78-2.34-.63-1.7-1.23-3.31-1.05-5.3.28-3.07-.88-5.15-1.72-6.67-.3-.54-.56-1.01-.69-1.42-.28-.84-.06-1.48.1-1.94.12-.35.27-.79-.14-.98-.12-.06-.37-.12-.68.11-.59.44-1.12 1.7-.86 3.46.12.81.4 1.41.7 2.05.56 1.21 1.2 2.58.94 5.8-.2 2.53.31 4.09.8 5.59.28.86.56 1.7.68 2.69l-7.93-17.29c-.16-.4-.54-.74-.97-.56-.27.11-.41.36-.38.69.01.2.08.37.09.38l6.43 17.33c-.52-.66-1.06-1.26-1.61-1.84-1.24-1.33-2.4-2.59-3-4.49-.92-2.94-2.78-4.42-4.14-5.51-.49-.39-.9-.72-1.18-1.04-.58-.67-.62-1.34-.65-1.83-.02-.37-.05-.83-.51-.86-.13-.01-.39.03-.59.37-.38.63-.38 2 .53 3.52.42.7.91 1.15 1.43 1.63.98.9 2.09 1.92 3.09 5 .78 2.42 1.85 3.66 2.88 4.86.59.69 1.16 1.36 1.65 2.23L73.11 72.14c-.3-.3-.78-.48-1.11-.15-.2.2-.24.49-.09.79.09.18.22.31.23.32L84.7 86.65c-.73-.41-1.46-.75-2.19-1.08-1.65-.76-3.21-1.47-4.49-3-1.97-2.36-4.26-3.02-5.93-3.5-.6-.17-1.11-.32-1.49-.51-.79-.4-1.08-1-1.3-1.44-.16-.33-.37-.74-.8-.6-.13.04-.34.17-.4.56-.11.73.42 1.99 1.84 3.05.65.49 1.28.71 1.95.96 1.25.46 2.67.97 4.77 3.44 1.65 1.93 3.11 2.68 4.52 3.39.81.41 1.59.81 2.38 1.42l-17.83-6.61c-.4-.16-.9-.14-1.09.29-.06.15-.07.31 0 .46.13.32.52.49.56.5L82 91.69c-.83-.1-1.64-.14-2.44-.17-1.81-.07-3.53-.13-5.3-1.05-2.73-1.43-5.09-1.16-6.82-.97-.62.07-1.15.13-1.57.1-.88-.07-1.38-.51-1.75-.83-.28-.24-.62-.55-.96-.25-.1.09-.25.29-.16.67.17.72 1.15 1.68 2.87 2.11.79.2 1.46.17 2.17.14 1.33-.06 2.84-.12 5.72 1.35 2.26 1.16 3.89 1.28 5.47 1.4.9.07 1.78.14 2.74.4l-19.01.72c-.43 0-.89.21-.89.68 0 .29.18.51.5.62.19.06.38.06.39.07l18.5.7c-.82.22-1.59.5-2.34.78-1.7.63-3.31 1.23-5.3 1.05-3.07-.28-5.15.88-6.67 1.72-.54.3-1.01.56-1.42.69-.84.28-1.48.06-1.94-.1-.35-.12-.79-.27-.98.14-.06.12-.12.37.11.68.44.59 1.7 1.12 3.46.86.81-.12 1.41-.4 2.05-.7 1.21-.56 2.58-1.2 5.8-.94 2.53.2 4.09-.31 5.59-.8.86-.28 1.7-.56 2.69-.68l-17.29 7.93c-.4.16-.74.54-.56.97.1.25.33.39.62.39h.07c.2-.01.37-.08.38-.09l17.33-6.43c-.66.52-1.26 1.06-1.84 1.61-1.33 1.24-2.59 2.4-4.49 3-2.94.92-4.42 2.78-5.51 4.14-.39.48-.72.9-1.04 1.18-.67.58-1.34.62-1.83.65-.37.02-.83.05-.86.51-.01.13.03.39.37.59.63.38 2 .38 3.52-.53.7-.42 1.15-.91 1.63-1.43.9-.98 1.92-2.09 5-3.09 2.42-.78 3.66-1.85 4.86-2.88.69-.59 1.36-1.16 2.22-1.65L72.16 118.9c-.3.3-.48.78-.15 1.11.12.12.27.18.43.18.11 0 .24-.03.36-.09.18-.09.31-.22.32-.23l13.55-12.57c-.41.73-.75 1.47-1.09 2.19-.76 1.65-1.47 3.21-3 4.49-2.36 1.97-3.02 4.26-3.5 5.93-.17.6-.32 1.11-.51 1.49-.4.79-1 1.08-1.44 1.3-.33.16-.74.37-.6.8.04.13.17.34.56.4.73.12 1.99-.42 3.05-1.84.49-.65.71-1.28.96-1.95.46-1.25.97-2.67 3.44-4.77 1.94-1.65 2.68-3.11 3.39-4.52.41-.81.81-1.59 1.42-2.38l-6.61 17.83c-.16.4-.14.91.29 1.09.08.03.16.05.24.05.08 0 .15-.02.23-.05.32-.13.49-.52.5-.56l7.71-16.8c-.1.83-.14 1.64-.17 2.44-.07 1.81-.13 3.53-1.05 5.3-1.43 2.73-1.16 5.09-.97 6.82.07.62.13 1.15.1 1.57-.07.88-.51 1.38-.83 1.75-.24.28-.55.62-.25.96.09.1.29.25.67.16.72-.18 1.68-1.15 2.11-2.87.2-.79.17-1.46.14-2.17-.06-1.33-.12-2.84 1.35-5.72 1.16-2.26 1.28-3.89 1.4-5.47.07-.9.14-1.78.4-2.74l.71 19.01c0 .43.21.89.68.89.29 0 .51-.18.62-.5.06-.19.07-.38.07-.39l.7-18.5c.22.81.5 1.59.78 2.34.63 1.7 1.23 3.31 1.05 5.3-.28 3.07.88 5.15 1.72 6.67.3.54.56 1.01.69 1.41.28.84.06 1.48-.1 1.94-.12.35-.27.79.14.98.05.03.14.05.24.05.12 0 .27-.04.45-.17.59-.44 1.12-1.7.86-3.46-.12-.81-.4-1.41-.7-2.06-.56-1.21-1.2-2.57-.94-5.8.2-2.53-.31-4.09-.8-5.59-.28-.86-.56-1.7-.68-2.69l7.93 17.29c.01.02.08.19.21.34.22.25.49.33.76.22.15-.06.27-.18.33-.33.13-.32-.02-.71-.04-.75l-6.43-17.33c.52.66 1.06 1.26 1.61 1.84 1.24 1.33 2.4 2.59 3 4.49.92 2.94 2.78 4.42 4.14 5.51.48.39.9.72 1.18 1.04.58.67.62 1.34.65 1.83.02.37.05.83.51.85h.03c.14 0 .37-.05.56-.37.38-.63.38-2-.53-3.52-.42-.7-.91-1.15-1.43-1.63-.98-.9-2.09-1.92-3.09-5-.78-2.42-1.85-3.66-2.88-4.86-.59-.69-1.16-1.36-1.65-2.22l13.95 12.93c.3.3.78.48 1.11.15.2-.2.24-.49.09-.79-.09-.18-.22-.31-.23-.32l-12.57-13.55c.73.41 1.47.75 2.19 1.09 1.65.76 3.21 1.47 4.49 3 1.97 2.36 4.26 3.02 5.93 3.5.6.17 1.11.32 1.49.51.79.4 1.08 1 1.3 1.44.14.28.31.63.62.63.05 0 .11-.01.17-.03.13-.04.34-.17.4-.56.11-.73-.42-1.99-1.84-3.05-.65-.49-1.28-.71-1.95-.96-1.25-.46-2.67-.97-4.76-3.44-1.65-1.94-3.11-2.68-4.52-3.39-.81-.41-1.59-.81-2.38-1.42l17.83 6.61c.4.16.91.14 1.09-.29.06-.15.07-.31 0-.46-.13-.32-.52-.49-.55-.5l-16.8-7.71c.83.1 1.64.14 2.44.17 1.81.07 3.53.13 5.3 1.05 2.73 1.43 5.09 1.16 6.82.97.62-.07 1.15-.13 1.57-.1.88.07 1.38.51 1.75.83.2.17.42.37.66.37.1 0 .2-.04.3-.13.1-.09.25-.29.16-.67-.18-.72-1.15-1.68-2.87-2.11-.79-.2-1.46-.17-2.17-.14-1.33.06-2.84.12-5.72-1.35-2.26-1.16-3.89-1.28-5.47-1.4-.9-.07-1.78-.14-2.74-.4l19.01-.71c.43 0 .89-.21.89-.68 0-.24-.18-.46-.49-.57zm-17.08-3.63c1.45-.48 2.96-.97 5.38-.77 3.36.27 4.8-.4 6.07-.99.63-.29 1.18-.55 1.91-.66 1.61-.24 2.56.24 2.88.56.07.08.11.13.12.17-.08-.02-.21-.06-.32-.1-.5-.17-1.27-.43-2.28-.1-.45.15-.94.42-1.51.73-1.46.81-3.47 1.91-6.36 1.65-2.11-.19-3.77.43-5.53 1.08-.95.35-1.94.69-3.01.92-.03-.2-.06-.39-.09-.58 3.21-.66 5.14-2.4 8.55-1.98-2.78-.94-5.01.94-8.68 1.31-.04-.18-.09-.35-.14-.52 1.12-.1 2.05-.4 3.01-.72zM109.11 96c0 7.23-5.88 13.11-13.11 13.11S82.89 103.23 82.89 96 88.77 82.89 96 82.89s13.11 5.88 13.11 13.11zm17.38-12.78c.07-.03.26-.08.34-.04.01.01.02.01.04.04.04.11-.22.25-.28.27l-17.51 8.04c-.06-.17-.12-.33-.18-.5l8.11-3.71-8.36 3.11-.24-.51 18.08-6.7zm-16.99 2.59c1.16-1 2.36-2.03 4.68-2.77 3.21-1.04 4.28-2.21 5.23-3.24.47-.51.88-.96 1.51-1.34 1.39-.83 2.46-.76 2.87-.58.1.04.15.08.17.11-.08.02-.22.03-.33.03-.53.03-1.34.09-2.15.78-.36.31-.71.75-1.11 1.25-1.04 1.31-2.47 3.09-5.25 3.96-2.02.63-3.32 1.84-4.7 3.12-.75.69-1.53 1.38-2.44 2-.1-.17-.2-.33-.3-.49 2.72-1.84 3.83-4.19 7.14-5.11-2.93.19-4.27 2.79-7.52 4.53-.1-.15-.21-.29-.32-.43 1.02-.53 1.76-1.16 2.52-1.82zm9.77-13.29c.06-.06.21-.17.3-.17.01 0 .03 0 .05.02.08.08-.11.31-.15.36l-13.11 14.13c-.12-.13-.23-.26-.35-.39l6.08-6.54-6.54 6.08-.41-.38 14.13-13.11zm-14.7 8.9c.69-1.36 1.41-2.78 3.26-4.35 2.57-2.19 3.11-3.68 3.59-4.99.24-.66.45-1.22.88-1.81.97-1.3 1.99-1.63 2.43-1.63.1 0 .17.02.2.04-.07.05-.19.11-.29.16-.48.24-1.2.59-1.68 1.54-.21.43-.37.96-.55 1.58-.46 1.6-1.1 3.8-3.33 5.67-1.62 1.36-2.36 2.97-3.14 4.68-.43.93-.88 1.87-1.47 2.8l-.48-.36c1.81-2.74 1.93-5.33 4.64-7.45-2.63 1.3-2.88 4.21-5.22 7.07-.15-.1-.31-.19-.46-.28.73-.91 1.17-1.77 1.62-2.67zm3.95-16.02c.02-.05.16-.32.27-.27.11.04.02.33-.01.39l-6.7 18.07c-.16-.08-.31-.16-.48-.23l3.11-8.36-3.71 8.11c-.17-.07-.35-.13-.53-.19l8.05-17.52zm-8.83 8.58c1.54-3.01 1.47-4.59 1.41-5.99-.03-.7-.06-1.3.12-2.01.4-1.57 1.21-2.28 1.62-2.44.1-.04.16-.04.2-.04-.05.07-.14.17-.21.25-.35.4-.88 1.01-.96 2.07-.04.47.03 1.03.1 1.67.19 1.66.44 3.93-.91 6.51-.98 1.87-1.05 3.65-1.12 5.53-.04 1.02-.09 2.06-.29 3.14-.19-.05-.39-.11-.58-.15.62-3.22-.26-5.66 1.43-8.66-1.93 2.21-1.05 4.99-2.11 8.52-.18-.03-.35-.06-.53-.08.33-1.08.41-2.05.48-3.06.12-1.52.24-3.1 1.35-5.26zm-3.83-11.04s0-.12.04-.23c.04-.13.09-.11.11-.13.12 0 .14.3.15.36l.72 19.26-.53-.03-.33-8.92-.33 8.92c-.19 0-.37.02-.56.03l.73-19.26zm-4.11 16.69c-.48-1.45-.97-2.96-.77-5.38.27-3.37-.4-4.8-.99-6.07-.29-.63-.55-1.18-.66-1.91-.24-1.61.24-2.56.56-2.88.08-.07.13-.11.17-.12-.02.08-.06.21-.1.32-.17.51-.43 1.27-.1 2.28.15.45.42.94.73 1.51.81 1.46 1.91 3.46 1.65 6.36-.19 2.11.43 3.77 1.08 5.53.35.95.69 1.94.91 3.01-.19.02-.39.06-.58.09-.66-3.21-2.4-5.14-1.98-8.55-.94 2.78.94 5.01 1.31 8.68-.18.04-.35.09-.52.14-.09-1.13-.39-2.06-.71-3.01zm-8.53-14.12s-.04-.11-.05-.22c-.01-.13.03-.15.05-.16.11-.04.25.22.27.28l8.04 17.51c-.17.06-.33.12-.5.18l-3.71-8.11 3.11 8.36-.51.24-6.7-18.08zm2.59 16.99c-1-1.16-2.03-2.36-2.77-4.68-1.04-3.21-2.21-4.28-3.24-5.23-.51-.47-.96-.88-1.34-1.51-.83-1.39-.76-2.46-.58-2.87.04-.1.08-.15.11-.17.02.08.03.22.03.33.03.53.09 1.34.78 2.15.31.36.75.71 1.25 1.11 1.31 1.04 3.09 2.47 3.96 5.25.63 2.02 1.84 3.32 3.12 4.7.69.75 1.38 1.53 2 2.44-.17.1-.33.2-.49.3-1.84-2.72-4.19-3.83-5.11-7.14.19 2.93 2.79 4.27 4.53 7.52-.15.1-.29.21-.43.32-.53-1.02-1.16-1.76-1.82-2.52zm-13.29-9.77s-.08-.08-.13-.19c-.06-.12-.03-.15-.01-.16.08-.08.31.11.36.15l14.13 13.11c-.13.12-.26.23-.39.35l-6.54-6.08 6.08 6.54-.38.41-13.12-14.13zm8.9 14.7c-1.36-.69-2.78-1.41-4.35-3.26-2.19-2.57-3.68-3.11-4.99-3.59-.66-.24-1.22-.44-1.81-.88-1.3-.97-1.64-1.98-1.63-2.43 0-.1.02-.17.04-.2.05.07.11.19.16.29.24.48.59 1.2 1.54 1.68.43.22.96.37 1.58.55 1.6.46 3.8 1.1 5.67 3.33 1.36 1.62 2.97 2.36 4.68 3.14.93.43 1.87.88 2.8 1.47l-.36.48c-2.74-1.81-5.33-1.93-7.45-4.64 1.3 2.63 4.21 2.88 7.07 5.22-.1.15-.19.31-.28.46-.91-.73-1.77-1.17-2.67-1.62zM65.4 83.48c-.05-.02-.32-.16-.27-.27.04-.11.33-.02.39.01l18.07 6.7c-.08.16-.16.31-.23.48L75 87.29 83.11 91c-.07.17-.13.35-.19.53L65.4 83.48zm13.85 10.18c-1.53-.12-3.1-.24-5.27-1.35-3.01-1.54-4.59-1.47-5.99-1.41-.7.03-1.3.06-2.01-.12-1.57-.4-2.28-1.21-2.44-1.62-.04-.1-.05-.16-.04-.2.07.05.17.14.26.21.4.35 1.01.89 2.07.97.48.04 1.03-.03 1.67-.1 1.66-.19 3.93-.44 6.51.91 1.87.98 3.65 1.05 5.53 1.12 1.02.04 2.06.09 3.14.29-.05.19-.11.39-.15.58-3.22-.62-5.66.26-8.66-1.43 2.21 1.93 4.99 1.05 8.52 2.11-.03.18-.06.35-.08.53-1.09-.34-2.06-.42-3.06-.49zm-16.31 2.48s-.12 0-.22-.04c-.13-.04-.13-.09-.13-.11 0-.12.3-.14.36-.15l19.26-.72-.03.53-8.92.33 8.92.33c0 .19.02.37.03.56l-19.27-.73zm16.69 4.11c-1.45.48-2.96.97-5.38.77-3.37-.27-4.8.4-6.07.99-.63.29-1.18.55-1.91.66-1.6.24-2.56-.24-2.88-.56-.07-.08-.11-.13-.12-.17.08.02.21.06.32.1.51.17 1.27.43 2.28.1.45-.15.94-.42 1.51-.73 1.46-.81 3.46-1.91 6.36-1.65 2.11.19 3.77-.43 5.53-1.08.95-.35 1.94-.69 3.01-.91l.09.58c-3.21.66-5.14 2.4-8.55 1.98 2.78.94 5.01-.94 8.68-1.31.04.18.09.35.14.52-1.13.09-2.06.39-3.01.71zm-14.12 8.53s-.11.04-.22.05c-.13.01-.15-.03-.16-.05-.04-.11.22-.25.28-.27l17.51-8.04c.06.17.12.33.18.5l-8.11 3.71 8.36-3.11.24.51-18.08 6.7zm16.99-2.59c-1.16 1-2.36 2.03-4.68 2.77-3.21 1.04-4.28 2.21-5.23 3.24-.47.51-.88.96-1.51 1.34-1.39.83-2.46.76-2.87.58-.1-.04-.15-.08-.17-.11.08-.02.22-.03.33-.03.53-.03 1.34-.09 2.15-.78.36-.31.71-.75 1.11-1.25 1.04-1.3 2.47-3.09 5.25-3.96 2.02-.63 3.32-1.84 4.7-3.12.75-.69 1.53-1.38 2.44-2 .1.17.2.33.3.5-2.72 1.84-3.83 4.19-7.14 5.11 2.93-.19 4.27-2.79 7.52-4.53.1.15.21.29.32.43-1.02.52-1.76 1.15-2.52 1.81zm-9.77 13.29c-.04.04-.27.23-.35.15-.08-.08.11-.31.15-.36l13.11-14.13c.12.13.23.26.35.39l-6.08 6.54 6.54-6.08.41.38-14.13 13.11zm14.7-8.9c-.69 1.36-1.41 2.78-3.26 4.35-2.57 2.19-3.11 3.68-3.59 4.99-.24.66-.44 1.22-.88 1.81-.96 1.29-1.97 1.63-2.42 1.63h-.01a.4.4 0 01-.2-.04c.07-.05.19-.11.29-.16.48-.24 1.2-.59 1.68-1.54.21-.43.37-.96.55-1.58.46-1.6 1.1-3.8 3.33-5.67 1.62-1.36 2.36-2.97 3.14-4.68.43-.93.88-1.87 1.47-2.8l.48.36c-1.81 2.74-1.93 5.33-4.64 7.45 2.63-1.3 2.88-4.21 5.22-7.07.15.1.31.19.46.28-.73.91-1.17 1.77-1.62 2.67zm-3.95 16.02c-.02.05-.17.32-.27.27-.11-.04-.02-.33.01-.39l6.7-18.07c.16.08.32.16.48.23L87.29 117l3.71-8.11c.17.07.35.13.53.19l-8.05 17.52zm8.83-8.58c-1.54 3.01-1.47 4.59-1.41 5.99.03.7.06 1.3-.12 2.01-.4 1.57-1.21 2.28-1.62 2.44-.1.04-.16.05-.2.04.05-.07.14-.17.21-.26.35-.4.89-1.01.97-2.07.04-.47-.03-1.03-.1-1.67-.19-1.66-.44-3.93.91-6.51.98-1.87 1.05-3.65 1.12-5.53.04-1.02.09-2.06.29-3.14.19.05.39.11.58.15-.62 3.22.26 5.66-1.43 8.66 1.93-2.21 1.05-4.99 2.11-8.52.18.03.35.06.53.08-.33 1.08-.41 2.05-.48 3.06-.13 1.53-.25 3.11-1.36 5.27zm3.83 11.04s0 .12-.04.23c-.04.13-.09.13-.11.13-.12 0-.14-.3-.15-.36l-.72-19.26.53.03.33 8.92.33-8.92c.19 0 .37-.02.56-.03l-.73 19.26zm4.11-16.69c.48 1.45.97 2.96.77 5.38-.27 3.37.4 4.8.99 6.07.29.63.55 1.18.66 1.91.24 1.61-.24 2.56-.56 2.88-.08.07-.13.11-.17.12.02-.08.06-.21.1-.32.17-.51.43-1.27.1-2.28-.15-.45-.42-.94-.73-1.51-.81-1.46-1.91-3.46-1.65-6.36.19-2.11-.43-3.77-1.08-5.53-.35-.95-.69-1.94-.91-3.01.2-.02.39-.06.58-.09.66 3.21 2.4 5.14 1.98 8.55.94-2.78-.94-5.01-1.31-8.68.18-.04.35-.09.52-.14.09 1.13.39 2.06.71 3.01zm8.53 14.12c.03.07.08.26.04.34-.01.01-.01.02-.04.04-.11.04-.25-.22-.27-.28l-8.04-17.51c.17-.06.33-.12.5-.18l3.71 8.11-3.11-8.36.51-.24 6.7 18.08zm-2.59-16.99c1 1.16 2.03 2.36 2.77 4.68 1.04 3.21 2.21 4.28 3.24 5.23.52.47.96.88 1.34 1.51.83 1.39.76 2.46.58 2.87-.04.1-.08.15-.11.17-.02-.08-.03-.22-.03-.33-.03-.53-.09-1.34-.78-2.15-.31-.36-.75-.71-1.25-1.11-1.3-1.04-3.09-2.47-3.96-5.25-.63-2.02-1.84-3.32-3.12-4.7-.69-.75-1.39-1.53-2.02-2.43.17-.1.34-.2.51-.31 1.84 2.72 4.19 3.83 5.11 7.14-.19-2.93-2.79-4.27-4.53-7.52.15-.1.29-.21.43-.32.53 1.02 1.16 1.76 1.82 2.52zm13.29 9.77c.04.04.23.27.15.35-.08.08-.31-.11-.36-.15l-14.13-13.11c.13-.12.26-.23.39-.35l6.54 6.08-6.08-6.54.38-.41 13.11 14.13zm-8.9-14.7c1.36.69 2.78 1.41 4.35 3.26 2.19 2.57 3.68 3.11 4.99 3.59.65.24 1.22.45 1.81.88 1.3.97 1.64 1.98 1.63 2.43a.4.4 0 01-.04.2c-.05-.07-.11-.19-.16-.29-.23-.48-.59-1.2-1.54-1.68-.43-.21-.96-.37-1.58-.55-1.6-.46-3.8-1.1-5.67-3.33-1.36-1.62-2.97-2.36-4.68-3.14-.93-.43-1.87-.88-2.8-1.47l.36-.48c2.74 1.81 5.33 1.93 7.45 4.64-1.3-2.63-4.21-2.88-7.07-5.22.1-.15.19-.31.28-.46.91.73 1.77 1.17 2.67 1.62zm16.02 3.95c.07.03.24.13.27.22.01.01.01.03 0 .05-.04.11-.33.02-.39-.01l-18.07-6.7c.08-.16.16-.31.23-.48l8.36 3.11-8.11-3.71c.07-.17.13-.35.19-.53l17.52 8.05zm-13.85-10.18c1.53.12 3.1.24 5.27 1.35 3 1.54 4.59 1.47 5.99 1.41.7-.03 1.3-.06 2.01.12 1.57.4 2.28 1.21 2.44 1.62.04.1.05.16.04.2-.07-.05-.17-.14-.25-.21-.4-.35-1.01-.88-2.07-.96-.47-.04-1.03.03-1.67.1-1.66.19-3.93.44-6.51-.91-1.87-.98-3.65-1.05-5.53-1.12-1.02-.04-2.06-.09-3.14-.29.05-.19.11-.39.15-.58 3.22.62 5.66-.26 8.66 1.43-2.21-1.93-4.99-1.05-8.52-2.11.03-.18.06-.35.08-.53 1.08.33 2.05.41 3.05.48zm16.3-2.19l-19.26.72.03-.53 8.92-.33-8.92-.33c0-.19-.02-.37-.03-.56l19.27.72s.11 0 .22.04c.13.04.13.09.13.11 0 .13-.3.16-.36.16zm-25.17-1.91c-.21.1-1.24-1.45-3.11-1.45-.62 0-1.24 0-1.87.52-.62.52-1.04.72-1.24.83-.21.1-.31-.21-.21-.31s.41 0 1.04-.52c.62-.52.93-.83 2.28-.83 2.07 0 3.31 1.66 3.11 1.76zm-7.05-2.18c-.14.38-.25.78-.32 1.18-.27 1.54.02 3.15.84 4.73.1-.1.31-.21.42-.21-.93-1.31-1.29-2.58-1.08-3.76.11-.61.37-1.19.77-1.73 1.66-1.55 4.66-1.24 7.04.83-2.29-3.11-5.39-2.9-7.67-1.04zm7.67 1.04zm-3.91.02c.92 0 1.89.4 2.56 1.12-1.55 1.14-3.84 1.04-4.88.11.52-.83 1.4-1.23 2.32-1.23zm-.61.3c-.49.13-.96.41-1.28.93.41.33.91.53 1.44.6.13.07.27.12.43.12.17 0 .32-.06.46-.14.51-.1 1.01-.35 1.41-.79-.09-.33-.66-.65-1.35-.76a.93.93 0 00-.52-.18.93.93 0 00-.59.22zm-.35.71c0 .36.21.66.51.82.13.07.27.12.43.12.17 0 .32-.06.46-.14.28-.16.47-.45.47-.79 0-.32-.17-.59-.41-.75a.93.93 0 00-.52-.18c-.22 0-.42.09-.58.22-.22.16-.36.41-.36.7zm-.52 1.04c-.83-.41-1.04-.62-1.24-.62-.21 0-.21.21.83.83s2.8.73 4.56-.62c-2.08.83-3.32.83-4.15.41zm-1.14 3.9c-.33 0-.6-.26-.62-.59-.1.2-.5.8-1.29.83-.79-.03-1.19-.63-1.29-.83-.02.33-.29.59-.62.59a.623.623 0 01-.21-1.21c-.44.08-.76.47-.76.92 0 .51.43.92.94.92.3 0 .58-.14.76-.39.36.27.86.3 1.12.3h.12c.27-.01.76-.03 1.12-.3.17.25.45.39.76.39.51 0 .94-.41.94-.92 0-.45-.32-.84-.76-.92.25.09.41.33.41.59 0 .35-.27.62-.62.62zm-1.99 2.17H96c.41 0 1.03-.51 1.76-.09.73.41 1.15.82 1.67 1.03-.93-.62-1.36-1.56-2.39-1.56-.21 0-.62.11-1.03.32h-.02c-.41-.21-.82-.32-1.03-.32-1.04 0-1.45.94-2.38 1.56.52-.21.93-.62 1.65-1.03.72-.41 1.34.09 1.75.09zm3.11.94c.11 0 .2-.01.33.01-2.18.21-1.14 1.46-3.43 1.46h-.02c-2.28 0-1.23-1.25-3.41-1.46.12-.01.23-.01.34-.01.75-.22 1.29-.3 1.69-.32.68-.03.99.12 1.38.12H96c.62-.01 1.03-.42 3.09.2zm0 0c-1.85-.41-2.26.22-3.09.22h-.02c-.82 0-1.24-.6-3.03-.22h.01c1.81-.02 1.27 1.15 3.02 1.15H96c1.76-.01 1.25-1.18 3.09-1.15zm-6.12-.01zm3.03 1.5c-1.03 0-1.86.84-1.86 1.87.21-.86.98-1.47 1.86-1.47.89 0 1.66.61 1.87 1.47 0-1.03-.84-1.87-1.87-1.87zM87.62 93.1c.01 0 .01 0 0 0 .01 0 0 0 0 0zm7.05-.83c.41.54.67 1.12.77 1.73.21 1.18-.16 2.45-1.08 3.76.1 0 .31.1.42.21.82-1.57 1.11-3.19.84-4.73-.07-.4-.18-.8-.32-1.18-2.28-1.86-5.39-2.07-7.67 1.03 2.38-2.06 5.38-2.37 7.04-.82zm-1.45 1.04c.62.52 1.04.72 1.24.83.21.1.31-.21.21-.31s-.41 0-1.04-.52c-.62-.52-.93-.83-2.28-.83-2.07 0-3.32 1.66-3.11 1.76.21.1 1.24-1.45 3.11-1.45.63 0 1.25 0 1.87.52zm-4.25 1.04c.55.49 1.45.75 2.41.71a.973.973 0 01-.38-.1c-.58-.04-1.16-.25-1.61-.62.37-.59.93-.88 1.5-.97.15-.1.32-.18.52-.18.22 0 .41.09.56.21.59.13 1.06.43 1.15.73-.33.36-.72.59-1.14.71a.89.89 0 01-.51.2c.82-.05 1.67-.3 2.37-.81a3.567 3.567 0 00-2.56-1.12c-.91.01-1.79.41-2.31 1.24zm3.02.5a.89.89 0 01-.51.2c-.02 0-.04.01-.07.01-.01 0-.02-.01-.03-.01a.973.973 0 01-.38-.1.914.914 0 01-.52-.83c0-.32.17-.59.42-.76.15-.1.32-.18.52-.18.22 0 .41.09.56.21.22.17.37.43.37.72-.01.32-.15.57-.36.74zm2.27-.3c-.21 0-.41.21-1.24.62-.83.41-2.07.41-4.15-.41 1.76 1.35 3.52 1.24 4.56.62 1.03-.62 1.03-.83.83-.83z"/><path fill="none" d="M172 160V32c0-6.6-5.4-12-12-12H32c-6.6 0-12 5.4-12 12v128c0 6.6 5.4 12 12 12h128c6.6 0 12-5.4 12-12z" opacity=".4"/><path fill="none" d="M0 0v192h192V0H0z"/><path fill="#DFDFDF" d="M160 20c6.6 0 12 5.4 12 12v128c0 6.6-5.4 12-12 12H32c-6.6 0-12-5.4-12-12V32c0-6.6 5.4-12 12-12h128m0-8H32c-11.03 0-20 8.97-20 20v128c0 11.03 8.97 20 20 20h128c11.03 0 20-8.97 20-20V32c0-11.03-8.97-20-20-20z"/><path fill="#FFF" fill-opacity=".2" d="M160 20H32c-6.6 0-12 5.4-12 12v1c0-6.6 5.4-12 12-12h128c6.6 0 12 5.4 12 12v-1c0-6.6-5.4-12-12-12z"/><path fill="#212121" fill-opacity=".1" d="M160 172H32c-6.6 0-12-5.4-12-12v-1c0 6.6 5.4 12 12 12h128c6.6 0 12-5.4 12-12v1c0 6.6-5.4 12-12 12z"/><radialGradient id="a" cx="23.768" cy="23.933" r="204.625" gradientUnits="userSpaceOnUse"><stop offset="0" stop-color="#fff" stop-opacity=".1"/><stop offset="1" stop-color="#fff" stop-opacity="0"/></radialGradient><path fill="url(#a)" d="M160 172H32c-6.6 0-12-5.4-12-12V32c0-6.6 5.4-12 12-12h128c6.6 0 12 5.4 12 12v128c0 6.6-5.4 12-12 12z"/></svg>