<svg xmlns="http://www.w3.org/2000/svg" width="192" height="192"><path fill="#00247D" d="M172 160V32c0-6.6-5.4-12-12-12H32c-6.6 0-12 5.4-12 12v128c0 6.6 5.4 12 12 12h128c6.6 0 12-5.4 12-12z"/><path fill="#FFF" d="M45 113.2l2.6 8 7.9-3-4.7 7 7.2 4.3-8.4.7 1.2 8.3-5.8-6.1-5.8 6.1 1.2-8.3-8.4-.7 7.2-4.3-4.7-7 7.9 3 2.6-8zm89 14.4l1.2 3.8 3.7-1.4-2.2 3.3 3.4 2-4 .3.5 4-2.8-2.9-2.8 2.9.5-4-4-.3 3.4-2-2.2-3.3 3.7 1.4 1.6-3.8zm-22.2-35.2l1.2 3.8 3.7-1.4-2.2 3.3 3.4 2-4 .3.5 4-2.8-2.9-2.8 2.9.5-4-4-.3 3.4-2-2.2-3.3 3.7 1.4 1.6-3.8zM134 68.3l1.2 3.8 3.7-1.4-2.2 3.3 3.4 2-4 .3.5 4-2.8-2.9-2.8 2.9.5-4-4-.3 3.4-2-2.2-3.3 3.7 1.4 1.6-3.8zm19.8 18.2l1.2 3.8 3.7-1.4-2.2 3.3 3.4 2-4 .3.5 4-2.8-2.9-2.8 2.9.5-4-4-.3 3.4-2-2.2-3.3 3.7 1.4 1.6-3.8zm-10.9 17.8l1 2.4 2.6.2-2 1.7.6 2.5-2.2-1.4-2.2 1.4.6-2.5-2-1.7 2.6-.2 1-2.4z"/><path fill="#00247D" d="M96 20H32c-6.6 0-12 5.4-12 12v64h76V20z"/><path fill="#FFF" d="M96 20H79L32.7 43.15V20H32c-6.6 0-12 5.4-12 12v64h12.7V72.85L79 96h17v-8.5L62.4 70.7H96V45.3H62.4L96 28.5V20z"/><path fill="#CC142B" d="M45.4 70.7h11.3L96 90.35V96L45.4 70.7zM96 20H84.69L34.02 45.3H45.4L96 20zM27.6 65.6H96V50.4H27.6V20.85C23.16 22.62 20 26.95 20 32v64h7.6V65.6z"/><path fill="none" d="M172 160V32c0-6.6-5.4-12-12-12H32c-6.6 0-12 5.4-12 12v128c0 6.6 5.4 12 12 12h128c6.6 0 12-5.4 12-12z" opacity=".4"/><path fill="none" d="M0 0v192h192V0H0z"/><path fill="#DFDFDF" d="M160 20c6.6 0 12 5.4 12 12v128c0 6.6-5.4 12-12 12H32c-6.6 0-12-5.4-12-12V32c0-6.6 5.4-12 12-12h128m0-8H32c-11.03 0-20 8.97-20 20v128c0 11.03 8.97 20 20 20h128c11.03 0 20-8.97 20-20V32c0-11.03-8.97-20-20-20z"/><path fill="#FFF" fill-opacity=".2" d="M160 20H32c-6.6 0-12 5.4-12 12v1c0-6.6 5.4-12 12-12h128c6.6 0 12 5.4 12 12v-1c0-6.6-5.4-12-12-12z"/><path fill="#212121" fill-opacity=".1" d="M160 172H32c-6.6 0-12-5.4-12-12v-1c0 6.6 5.4 12 12 12h128c6.6 0 12-5.4 12-12v1c0 6.6-5.4 12-12 12z"/><radialGradient id="a" cx="23.768" cy="23.933" r="204.625" gradientUnits="userSpaceOnUse"><stop offset="0" stop-color="#fff" stop-opacity=".1"/><stop offset="1" stop-color="#fff" stop-opacity="0"/></radialGradient><path fill="url(#a)" d="M160 172H32c-6.6 0-12-5.4-12-12V32c0-6.6 5.4-12 12-12h128c6.6 0 12 5.4 12 12v128c0 6.6-5.4 12-12 12z"/></svg>