<svg xmlns="http://www.w3.org/2000/svg" width="192" height="192"><path fill="#3F9C35" d="M160 20H32c-6.6 0-12 5.4-12 12v128c0 6.6 5.4 12 12 12h128c6.6 0 12-5.4 12-12V32c0-6.6-5.4-12-12-12z"/><path fill="#ED2939" d="M160 20H32c-6.6 0-12 5.4-12 12v105h152V32c0-6.6-5.4-12-12-12z"/><path fill="#00B9E4" d="M160 20H32c-6.6 0-12 5.4-12 12v23h152V32c0-6.6-5.4-12-12-12z"/><path fill="#FFF" d="M96 126.75c8.3 0 15.82-3.3 21.35-8.65-6.73 8.99-17.46 14.8-29.55 14.8-20.38 0-36.9-16.52-36.9-36.9s16.52-36.9 36.9-36.9c12.09 0 22.82 5.82 29.55 14.8-5.53-5.35-13.05-8.65-21.35-8.65-16.98 0-30.75 13.77-30.75 30.75S79.02 126.75 96 126.75zm28.88-40.22L114.3 81.5l5.03 10.57L108.3 96l11.03 3.92-5.03 10.57 10.57-5.03 3.92 11.03 3.92-11.03 10.57 5.03-5.03-10.57L149.3 96l-11.03-3.92 5.03-10.57-10.57 5.03-3.93-11.04-3.92 11.03z"/><path fill="none" d="M172 160V32c0-6.6-5.4-12-12-12H32c-6.6 0-12 5.4-12 12v128c0 6.6 5.4 12 12 12h128c6.6 0 12-5.4 12-12z" opacity=".4"/><path fill="none" d="M0 0v192h192V0H0z"/><path fill="#DFDFDF" d="M160 20c6.6 0 12 5.4 12 12v128c0 6.6-5.4 12-12 12H32c-6.6 0-12-5.4-12-12V32c0-6.6 5.4-12 12-12h128m0-8H32c-11.03 0-20 8.97-20 20v128c0 11.03 8.97 20 20 20h128c11.03 0 20-8.97 20-20V32c0-11.03-8.97-20-20-20z"/><path fill="#FFF" fill-opacity=".2" d="M160 20H32c-6.6 0-12 5.4-12 12v1c0-6.6 5.4-12 12-12h128c6.6 0 12 5.4 12 12v-1c0-6.6-5.4-12-12-12z"/><path fill="#212121" fill-opacity=".1" d="M160 172H32c-6.6 0-12-5.4-12-12v-1c0 6.6 5.4 12 12 12h128c6.6 0 12-5.4 12-12v1c0 6.6-5.4 12-12 12z"/><radialGradient id="a" cx="23.768" cy="23.933" r="204.625" gradientUnits="userSpaceOnUse"><stop offset="0" stop-color="#fff" stop-opacity=".1"/><stop offset="1" stop-color="#fff" stop-opacity="0"/></radialGradient><path fill="url(#a)" d="M160 172H32c-6.6 0-12-5.4-12-12V32c0-6.6 5.4-12 12-12h128c6.6 0 12 5.4 12 12v128c0 6.6-5.4 12-12 12z"/></svg>