<svg xmlns="http://www.w3.org/2000/svg" width="192" height="192"><path fill="#002395" d="M172 160V32c0-6.6-5.4-12-12-12H32c-6.6 0-12 5.4-12 12v128c0 6.6 5.4 12 12 12h128c6.6 0 12-5.4 12-12z"/><path fill="#FECB00" d="M172 32c0-6.6-5.4-12-12-12H32c-3.16 0-6.03 1.25-8.18 3.26l144.92 144.92c2.01-2.15 3.26-5.02 3.26-8.18V32z"/><path fill="#FFF" d="M58.69 86.97L50.2 80.8l-8.49 6.17 3.24-9.98-8.49-6.17h10.49l3.24-9.98 3.24 9.98h10.49l-8.49 6.17 3.26 9.98zM25.93 32.83H20v4.31l5.93-4.31zm67.52 82.16l8.49-6.17h-10.5l-3.24-9.98-3.24 9.98H74.47l8.49 6.17-3.24 9.98 8.49-6.17 8.49 6.17-3.25-9.98zm35.99 31.84l-3.24-9.98-3.24 9.98h-10.49l8.49 6.17-3.24 9.98 8.49-6.17 8.49 6.17-3.24-9.98 8.49-6.17h-10.51zm-16.99-12.84l8.49-6.17h-10.49l-3.24-9.98-3.24 9.98h-10.5l8.49 6.17-3.24 9.98 8.49-6.17 8.49 6.17-3.25-9.98zm46.48 31.84h-10.49l-3.24-9.98-3.24 9.98h-10.49l8.49 6.17v.01h10.49V172l8.48-6.17zM22.71 67.97l8.49-6.17 8.49 6.17-3.24-9.98 8.49-6.17h-10.5l-3.24-9.98-3.24 9.98H20v1.84l5.95 4.33-3.24 9.98zm51.74 28.02l8.49-6.17h-10.5l-3.24-9.98-3.24 9.98H55.47l8.49 6.17-3.24 9.98 8.49-6.17 8.49 6.17-3.25-9.98z"/><path fill="none" d="M172 160V32c0-6.6-5.4-12-12-12H32c-6.6 0-12 5.4-12 12v128c0 6.6 5.4 12 12 12h128c6.6 0 12-5.4 12-12z" opacity=".4"/><path fill="none" d="M0 0v192h192V0H0z"/><path fill="#DFDFDF" d="M160 20c6.6 0 12 5.4 12 12v128c0 6.6-5.4 12-12 12H32c-6.6 0-12-5.4-12-12V32c0-6.6 5.4-12 12-12h128m0-8H32c-11.03 0-20 8.97-20 20v128c0 11.03 8.97 20 20 20h128c11.03 0 20-8.97 20-20V32c0-11.03-8.97-20-20-20z"/><path fill="#FFF" fill-opacity=".2" d="M160 20H32c-6.6 0-12 5.4-12 12v1c0-6.6 5.4-12 12-12h128c6.6 0 12 5.4 12 12v-1c0-6.6-5.4-12-12-12z"/><path fill="#212121" fill-opacity=".1" d="M160 172H32c-6.6 0-12-5.4-12-12v-1c0 6.6 5.4 12 12 12h128c6.6 0 12-5.4 12-12v1c0 6.6-5.4 12-12 12z"/><radialGradient id="a" cx="23.768" cy="23.933" r="204.625" gradientUnits="userSpaceOnUse"><stop offset="0" stop-color="#fff" stop-opacity=".1"/><stop offset="1" stop-color="#fff" stop-opacity="0"/></radialGradient><path fill="url(#a)" d="M160 172H32c-6.6 0-12-5.4-12-12V32c0-6.6 5.4-12 12-12h128c6.6 0 12 5.4 12 12v128c0 6.6-5.4 12-12 12z"/></svg>