<svg xmlns="http://www.w3.org/2000/svg" width="192" height="192"><path fill="#00267F" d="M172 160V32c0-6.6-5.4-12-12-12H32c-6.6 0-12 5.4-12 12v128c0 6.6 5.4 12 12 12h128c6.6 0 12-5.4 12-12z"/><path fill="#FFC726" d="M58 20h76v152H58z"/><path d="M127.99 69.74c-6.04.94-12.26 4.11-16.52 8.52-.49.61 2.63-.66 2.92-.7 2.34-.7-.69 3.29-.86 4.33-2.39 7.65-4.47 15.04-5.24 23.84 0 .61-.1 1.05-.38 1.08l-8-1.19V77.29c1.88-.05 4.81.45 6.48 1-5.39-5.37-7.9-12.38-10.37-19.11-2.47 6.74-4.99 13.75-10.37 19.11 1.67-.55 4.6-1.04 6.48-1v28.33l-8 1.19c-.29-.03-.38-.47-.38-1.08-.77-8.8-2.85-16.19-5.24-23.84-.17-1.04-3.2-5.04-.86-4.33.28.04 3.41 1.31 2.92.7-4.26-4.41-10.48-7.58-16.52-8.52-.53-.13-.85.13-.37.75 8.02 12.34 14.72 26.9 14.67 44.18 3.12 0 10.67-1.84 13.79-1.84v19.99H99.94v-19.99c3.13 0 10.68 1.84 13.79 1.84-.06-17.28 6.65-31.84 14.67-44.18.43-.61.12-.88-.41-.75z"/><path fill="none" d="M172 160V32c0-6.6-5.4-12-12-12H32c-6.6 0-12 5.4-12 12v128c0 6.6 5.4 12 12 12h128c6.6 0 12-5.4 12-12z" opacity=".4"/><path fill="none" d="M0 0v192h192V0H0z"/><path fill="#DFDFDF" d="M160 20c6.6 0 12 5.4 12 12v128c0 6.6-5.4 12-12 12H32c-6.6 0-12-5.4-12-12V32c0-6.6 5.4-12 12-12h128m0-8H32c-11.03 0-20 8.97-20 20v128c0 11.03 8.97 20 20 20h128c11.03 0 20-8.97 20-20V32c0-11.03-8.97-20-20-20z"/><path fill="#FFF" fill-opacity=".2" d="M160 20H32c-6.6 0-12 5.4-12 12v1c0-6.6 5.4-12 12-12h128c6.6 0 12 5.4 12 12v-1c0-6.6-5.4-12-12-12z"/><path fill="#212121" fill-opacity=".1" d="M160 172H32c-6.6 0-12-5.4-12-12v-1c0 6.6 5.4 12 12 12h128c6.6 0 12-5.4 12-12v1c0 6.6-5.4 12-12 12z"/><radialGradient id="a" cx="23.768" cy="23.933" r="204.625" gradientUnits="userSpaceOnUse"><stop offset="0" stop-color="#fff" stop-opacity=".1"/><stop offset="1" stop-color="#fff" stop-opacity="0"/></radialGradient><path fill="url(#a)" d="M160 172H32c-6.6 0-12-5.4-12-12V32c0-6.6 5.4-12 12-12h128c6.6 0 12 5.4 12 12v128c0 6.6-5.4 12-12 12z"/></svg>