<svg xmlns="http://www.w3.org/2000/svg" width="192" height="192"><path fill="#CC142B" d="M172 160V32c0-6.6-5.4-12-12-12H32c-6.6 0-12 5.4-12 12v128c0 6.6 5.4 12 12 12h128c6.6 0 12-5.4 12-12z"/><path fill="#FFF" d="M113.02 116.5h.02l.25-.6.15-.92.11-1.19.41-1.13.07.01.1 1.65.15 1.11.37.18.18-.22-.25-1.01v-1.92l.07-.01.36 1.19.31 1.23.49.88.21-.25-.2-.76v-.01l.1-1.6.07-.01.46 2.15.81.71v-.64l-.31-1.38.07-.02.52 1.08.26.93.45.99.04-.68v-1.66l.41-1.34.07.02-.15 1.13.05 1.58.41.96.25.17.15-1.02v-1.6l.32-1.19.27.2v.02l-.21 2.1.36.8.29-1.78h.07l.4 1.74.36-.31.17-1.06.71 1.04.3-.02c-.28-.34-.5-.73-.63-1.12-.47-.85-.72-1.81-.96-2.74-.1-.39-.21-.8-.33-1.19-.08-.33-.13-.46-.15-.51-.01.05-.03.14-.04.23-.05.33-.12.83-.39.93H120c-.32-.05-.51-.5-.68-.94-.09-.23-.19-.47-.3-.63-.01-.03-.03-.05-.04-.07 0 .02.01.03.01.05.08.4.25 1.24-.2 1.39l-.03.01-.01-.03c-.11-.21-.18-.23-.23-.23-.04 0-.08.02-.12.03-.05.02-.1.04-.15.04-.09 0-.17-.06-.26-.18-.02.2-.11.46-.25.62-.12.14-.27.19-.42.14-.14.2-.35.34-.54.34a.29.29 0 01-.25-.12c-.06-.08-.11-.25-.01-.56l.01-.02c.54-.52.49-1.18.44-1.88-.03-.44-.07-.9.06-1.32-.03-.75.29-1.39.65-1.98.07-.51-.05-1.01-.18-1.5l-.12-.49c-.19-.81.56-1.25 1.1-1.57l.03-.02c.33-.05.65-.24.96-.43.39-.23.79-.47 1.21-.43.16-.08.36-.11.64-.11.14 0 .28.01.42.02.13.01.26.02.38.02.24 0 .39-.03.48-.11-.05-.08-.11-.17-.17-.26-.3-.47-.72-1.11-1.07-1.11.01.24-.06.46-.22.62-.19.2-.48.32-.81.32-.5 0-.93-.25-1.1-.64-.1-.26-.31-.92-.08-1.42.1-.22.28-.38.53-.48-.17-.75.5-1.24 1.04-1.64.09-.06.17-.12.25-.18.18-.26-.03-.5-.26-.77-.24-.27-.51-.58-.36-.97.04-.18.09-.35.14-.5.16-.49.25-.78-.32-1.24l-.01-.01v-.01c-.04-.15-.16-.31-.29-.47-.28-.38-.6-.8-.19-1.25.14-.24.32-.36.57-.36.13 0 .25.03.38.06.12.03.24.05.35.05.17 0 .29-.07.4-.21.16-.29.34-.43.56-.43.26 0 .51.19.76.37.14.1.27.2.39.26a.84.84 0 01.74-.41c.49 0 1.01.34 1.18.77.13.53.28 1.01.76 1.01.13 0 .29-.04.46-.11h.02c.06.01.12.01.18.01.57 0 .88-.38 1.19-.74.11-.13.21-.25.33-.37l.01-.01h.02c.34.02.57-.06.72-.23.16-.19.21-.48.15-.91v-.02l.01-.01c.54-.53.44-.7.25-1.07l-.11-.22c-.47-.22-.82-.73-.87-1.28-.04-.47.15-.89.52-1.15.16-.18.39-.3.62-.3.18 0 .32.07.38.2.05.11.06.31-.2.61-.11.34-.08.42-.06.44 0 .01.01.01.02.01.15 0 .58-.55.58-.93v-.01l.01-.01c.18-.24.25-.41.21-.5-.05-.1-.28-.11-.52-.12-.26-.01-.56-.02-.78-.15-.27-.09-.46-.27-.54-.51-.1-.31-.02-.71.21-1.03.13-.34.27-.51.44-.51.16 0 .3.16.42.29.06.07.13.15.16.15.01 0 .02-.02.03-.06v-.01l.01-.01c.14-.14.2-.25.19-.33-.02-.11-.16-.2-.33-.29-.29-.16-.65-.36-.54-.87l.01-.01c.15-.22.29-.33.43-.33s.25.12.35.23c.07.08.14.16.21.16.07 0 .14-.08.22-.23l.01-.01.01-.01c.23-.12.36-.28.39-.49.06-.38-.25-.83-.55-1.13-.23-.18-.32-.35-.29-.51.06-.3.58-.46.96-.58l.09-.03c.21-.12.3-.43.4-.72.1-.33.2-.64.46-.64.11 0 .25.06.41.19.08.02.15.03.21.03.29 0 .33-.28.37-.61.04-.31.08-.62.34-.73h.02c.13.03.26.05.38.05.62 0 1.11-.4 1.59-.85l.02-.02.02.02c.34.26.7.48 1.06.69l.07.04c.07.05.14.07.23.07.16 0 .34-.07.52-.15.16-.07.31-.13.44-.13.2 0 .3.15.31.47.03.46.25.56.57.56.09 0 .19-.01.29-.02.1-.01.2-.02.3-.02.16 0 .37.02.52.18l.01.01v.02c-.17.88.12 1.52.88 1.95l.01.01c.11.12.15.32.11.58-.08.5-.44 1.09-.79 1.3.07.34.4.59.78.59.25 0 .47-.11.62-.32l.02-.02.03.01c.2.06.31.15.34.26.04.23-.31.51-.69.8-.3.23-.63.49-.61.64.01.06.08.1.2.14l.02.01.01.02c.09.26.2.39.33.39.16 0 .35-.17.52-.32.15-.13.28-.25.38-.25.04 0 .07.01.1.04.08.08.11.27.1.6.32.53.12 1.38-.41 1.72-.2.1-.39.15-.59.15-.53 0-.97-.33-1.27-.67.19.35.35.71.41 1.11.11.39.18.44.2.44.04 0 .11-.13.17-.24.12-.23.28-.54.56-.58h.09c.47 0 .51.41.54.82.03.26.05.54.18.74l.01.01v.02c-.12.59-.62.98-1.25.98-.29 0-.57-.09-.81-.25-.16-.08-.31-.2-.45-.35.04.08.08.18.13.31.18.18.16.61.15.99-.01.23-.01.47.04.52 0 .01.01.01.01.01.02 0 .07-.02.18-.15-.12-.35-.06-.55.02-.66a.49.49 0 01.41-.19c.26 0 .54.15.72.4.32.2.34.6.36.92.01.29.03.45.17.45.06 0 .14-.03.25-.09l.03-.01.02.02c.04.05.08.09.12.14.33.41.78.97 1.33 1.11.19.05.39.07.58.07.61 0 1.24-.25 1.82-.72l.01-.01h.01c.37-.03.72-.2 1.06-.37.4-.2.81-.41 1.26-.37.06-.01.15-.01.24-.01.36 0 1.03.08 1.23.36.06.08.08.18.05.29.45.56.1 1.38-.42 1.92.59.81.82 1.52.69 2.1l-.01.01c-.12.18-.31.32-.5.46-.41.31-.77.57-.37 1.15.53.59.7 1.32.8 1.96.54.48.57 1.29.6 1.93l.01.13-.01.01c-.28.43-.68.52-.96.52-.49 0-1.01-.27-1.34-.7a.311.311 0 00-.22-.08c-.26 0-.58.25-.71.47-.06.11-.08.21-.04.27.05.09.2.13.43.12.06-.01.12-.02.19-.02.3 0 .58.11.84.22s.51.21.79.21c.11 0 .21-.02.32-.05h.02c.1.04.19.07.28.11.48.18.89.33 1.39.62h.03c.47 0 .87.27 1.12.74.3.58.28 1.31-.04 1.78.03.15.05.33.06.52.03.5.06 1.07.55 1.18.12-.16.24-.24.37-.24.23 0 .39.25.46.48.09.29.08.68-.15.87.31.77.09 1.71-.2 2.61-.37.74-.94 1.3-1.52 1.48-.13.05-.22.04-.26-.03-.09-.13.01-.43.12-.77.09-.29.19-.59.16-.75-.05-.34-.09-.43-.11-.45-.03.04-.09.23-.13.38-.08.29-.18.64-.33.81-.21.51-.74.9-1.25.9-.13 0-.25-.02-.36-.07l-.03-.02.02-.03c.22-.47.61-1.82.56-1.99-.02.02-.09.09-.26.4l-.01.01c-.35.38-.96.87-1.63 1.12-.19.85-.44 1.71-.76 2.63-.01.05-.02.1-.03.14l.03-.02.31.1.39-.24.48-1.76.26.33v.02l-.36 1.38.22.54.17-.29.47-1.25.57-.52.06.04-.56 1.44v.55l.15.35.27.31.49-1.12-.1-1.33.07-.02.37.63v.01l-.05 1.07.23.27.38-.23.51-1.12-.05-.92.07-.01.21.57.11.53-.1.56.18.55.25-.25-.05-.46.16-.26.06-.87.32.45.05.74-.15.76.32.45.38-.71.1-1.74.07-.01.31.89v.01l-.2.77.14 1 .71-.81.05-1.48h.07l.31 1.99.41.27.39-1.03-.15-1.33.07-.02.28.54.13-37.57h-43.06v40.12z"/><path fill="#2F8F22" d="M155.95 114.07l-.25-.48.13 1.15v.01l-.43 1.13-.52-.34v-.02l-.25-1.62-.04 1.11-.01.01-.83.94-.17-1.17.21-.77-.24-.69-.1 1.58-.44.83-.41-.58.16-.78-.05-.71-.19-.27-.05.69-.15.25.05.47-.36.36-.23-.68.1-.57-.1-.51-.12-.32.04.68-.52 1.15-.45.28-.29-.35v-.01l.05-1.07-.27-.47.09 1.19-.54 1.25-.35-.42-.16-.38v-.58l.51-1.29-.44.4-.46 1.23-.25.43-.29-.7v-.01l.36-1.37-.15-.19-.45 1.64-.44.27-.31-.1-.06.03c-.22.95-.72 1.72-1.43 2.17-.13.09-.33.16-.52.23-.28.1-.58.2-.61.36-.02.1.05.22.22.36l.01.01v.01c.12.5.31.56.45.56.2 0 .45-.15.7-.3.08-.05.17-.1.25-.15h.07c.49 0 .78.33 1.05.65.17.2.34.39.55.5l.01.01c.74.75.75 1.87.64 2.97-.09.3-.65 1.21-.99 1.21-.07 0-.17-.04-.21-.23v-.02c.08-.21-.06-.51-.21-.73-.18-.25-.4-.43-.54-.43-.09 0-.14.07-.16.2.29 1.03.07 2-.6 2.62-.19.2-.34.3-.45.3a.21.21 0 01-.13-.05c-.14-.14-.14-.52-.14-.89 0-.13 0-.25-.01-.35h-.02c-.36 0-.58-.45-.74-.78-.08-.16-.17-.35-.23-.35-.01 0-.05.01-.1.14-.03.5-.38.66-.72.81-.26.12-.53.24-.67.51-.17.28-.34.43-.5.43-.09 0-.17-.05-.24-.13-.17-.22-.23-.66-.13-1.04-.03-.22.04-.48.1-.73.08-.31.15-.59.04-.75-.05-.07-.12-.11-.24-.12h-.01l-.01-.01c-.3-.28-.55-.61-.79-.93-.33-.43-.67-.88-1.13-1.21-.03-.01-.07-.01-.1-.01-.26 0-.52.16-.8.32-.28.17-.56.34-.87.37-.21.14-.47.26-.71.37-.39.17-.79.35-1.03.66.33-.03.6.14.71.44.12.35.01.76-.28.99-.38.2-.8.24-1.21.28-.22.02-.45.04-.67.09h-.02l-.01-.01a.753.753 0 00-.51-.19c-.18 0-.36.05-.54.1-.17.05-.35.1-.53.1-.1 0-.19-.02-.27-.05l-.07.01c-.24.05-.53.11-.82.11-.52 0-.85-.19-1-.6a.944.944 0 01.13-.84c.16-.21.41-.34.67-.34.1 0 .19.02.29.05-.27-.6-.83-.73-1.43-.87-.26-.06-.53-.12-.77-.23-.19-.04-.4-.14-.61-.24-.26-.12-.52-.25-.75-.25-.22 0-.38.11-.51.36l-.01.01c-.14.11-.27.25-.4.37-.33.32-.67.65-1.13.77h-.01l-.01-.01a.224.224 0 00-.1-.03c-.15 0-.17.29-.19.6-.02.28-.05.59-.16.81-.16.37-.7 1.09-1.13 1.09-.12 0-.22-.05-.3-.16l-.01-.01v-.02c.06-.45.03-.79-.08-.92-.03-.04-.07-.05-.12-.05-.08 0-.22.05-.45.3-.15.11-.32.19-.48.26-.44.2-.82.38-.59 1.04.08.33.08.53 0 .63-.03.04-.07.06-.12.06-.23 0-.62-.44-.8-.82-.29-.3-.26-.69-.23-1.04.03-.36.05-.68-.25-.86-.67-.04-.73.25-.83.71-.03.13-.06.28-.11.44l-.01.04-.04-.02c-.75-.37-1.09-1.25-.91-2.34.06-.59.25-1.1.56-1.79l.01-.01c.35-.42.87-.6 1.37-.77l.42-.15h.02c.22.01.45.09.68.16.24.08.5.16.73.16.18 0 .34-.05.48-.15.07-.18.24-.4.4-.6.27-.35.56-.71.37-.91-.11.02-.22.03-.33.03-.7 0-1.29-.35-1.73-.85l-.4.02-.63-.92-.14.9-.47.41-.38-1.68-.3 1.84-.47-1.05.21-2.1-.15-.11-.29 1.08v1.59l-.16 1.15-.37-.25-.42-1-.05-1.6.09-.69-.28.9v1.64l-.05.83-.07.01-.52-1.13-.26-.93-.37-.78.24 1.07v.81l-.95-.84v-.01l-.41-1.9-.09 1.32.21.79-.3.37-.55-.98-.31-1.24-.29-.94v1.66l.26 1.04-.24.3-.46-.23-.16-1.15-.09-1.47-.35.96-.1 1.18-.15.93-.27.65-.07.01v.58c.32 3.51 5.74 6.47 11.47 9.6.19.11.39.21.58.32.69-2.38-.27-3.01-1.18-3.3l.06-.2c1.47.47 1.88 1.6 1.31 3.58l-.13-.04c2.97 1.62 6 3.3 8.73 5.26 3.58-2.36 7.11-4.13 10.24-5.71 6.7-3.36 11.54-5.79 11.82-11.15l-.03-1.47zm-37.29 4.03c-1.33-.44-2.19.03-3.09.53-.13.07-.26.15-.4.22l.03.1-.19.04c0-.02-.01-.04-.02-.06-.09.04-.18.09-.26.12l-.08-.18c.1-.04.19-.09.28-.13-.25-.69-.83-1.04-1.76-1.06v-.19c1 .02 1.65.41 1.93 1.16.12-.07.25-.13.37-.2.9-.5 1.83-1.01 3.24-.54l-.05.19zm19 11.13c-.58-.7-1.23-1.18-1.96-1.43h-.01c-1.51-.52-3.34-.04-5.52 1.44l-.04-.06h-.07c-.03-.55.06-1.11.14-1.65.31-1.92.59-3.73-3.96-5.6l.06-.14c4.66 1.92 4.35 3.87 4.05 5.76-.08.49-.16.99-.15 1.48 2.15-1.44 3.97-1.91 5.49-1.41-.03-1.38-.42-2.4-1.16-3.06-.89-.79-2.32-1.06-4.25-.82l-.02-.19c1.99-.25 3.47.04 4.4.87.79.7 1.2 1.8 1.22 3.26.69.27 1.33.75 1.9 1.43l-.12.12zm4.82-3.05c-.72-1.34-3.48-.38-6.25.72l-.06-.14c2.83-1.13 5.66-2.11 6.44-.66l-.13.08zm9.8-4.42c-.72-2.08-2-3.27-3.81-3.54l.02-.13c1.86.28 3.17 1.5 3.91 3.63l-.12.04zm2.46-3.3c-.54-1.22-1.01-2.05-2.1-1.74l-.05-.18c1.32-.38 1.87.85 2.32 1.84l-.17.08z"/><path fill="#4DCF4A" d="M130.21 129.04c-.01-.49.07-1 .15-1.48.3-1.89.61-3.84-4.05-5.76l-.06.14c4.55 1.87 4.26 3.68 3.96 5.6-.09.54-.17 1.1-.14 1.65h.07l-.04-.06c.03-.04.07-.06.11-.09z"/><path fill="#38BB26" d="M135.7 127.8h.01-.01zM134.66 124.44c-.93-.82-2.41-1.11-4.4-.87l.02.19c1.93-.24 3.36.03 4.25.82.74.65 1.13 1.68 1.16 3.06.06.02.13.04.19.07-.02-1.48-.43-2.57-1.22-3.27z"/><path fill="#51C757" d="M135.88 127.7c-.06-.02-.12-.05-.19-.07-1.52-.5-3.33-.03-5.49 1.41-.04.03-.07.05-.11.07l.04.06.04.06c2.18-1.48 4.01-1.96 5.52-1.44h.01c.72.25 1.37.72 1.96 1.43l.12-.1c-.57-.67-1.2-1.15-1.9-1.42zM136.18 126.77l.06.14c2.77-1.1 5.53-2.07 6.25-.72l.13-.07c-.79-1.46-3.61-.48-6.44.65z"/><path fill="#7ACB73" d="M148.49 118.08l-.02.13c1.8.27 3.08 1.46 3.81 3.54l.13-.04c-.75-2.13-2.07-3.35-3.92-3.63z"/><path fill="#4CB135" d="M152.59 116.54l.05.18c1.09-.31 1.55.53 2.1 1.74l.17-.08c-.45-.99-1-2.22-2.32-1.84z"/><path fill="#60C85A" d="M123.96 123.56l-.06.2c.91.29 1.86.92 1.18 3.3.02.01.04.02.07.04l.13.04c.57-1.97.15-3.11-1.32-3.58z"/><path fill="#71CE5B" d="M115.48 118.46c-.12.07-.24.13-.37.2-.29-.75-.93-1.14-1.93-1.16v.19c.93.02 1.51.37 1.76 1.06-.09.05-.19.09-.28.13l.08.18c.09-.04.18-.08.26-.12.01.02.01.04.02.06l.19-.04c-.01-.04-.02-.07-.03-.1.14-.07.27-.14.4-.22.9-.5 1.76-.97 3.09-.53l.06-.18c-1.42-.48-2.35.03-3.25.53z"/><path fill="#D40000" d="M134.06 84.55c.22 0 .6-.1.63-.8-.01-.27-.24-.37-.46-.37a.83.83 0 00-.65.31.72.72 0 00-.11.63c.11.12.35.23.59.23zM136.15 84.49c.19 0 .33-.07.39-.18.11-.27.03-.48-.06-.61a.8.8 0 00-.64-.33c-.14 0-.4.04-.55.33.07.52.48.79.86.79zM138.79 78.53c-.01.01-.02.01-.03.01l-.64-.03c-.06-.01-.21-.05-.26-.05-.04.01-.12.04-.14.06-.02.01-.04 0-.05-.02-.09-.18-.21-.38-.23-.4-.05-.04-.18-.34-.22-.42l-.09-.21-.28.1h-.01l-.29.02c-.12.05-.33.15-.36.16-.01 0-.02.01-.03.01-.06 0-.14-.07-.17-.09l-.36-.24-.15-.01c-.01 0-.01 0-.02-.01l-.18-.11s-.01 0-.01-.01l-.21-.23-.13-.02-.28.07c-.06.08-.24.31-.29.34-.03.02-.1.12-.15.2-.01.01-.02.02-.03.02h-.15l-.28-.03-.24.11c-.01.01-.03 0-.04 0l-.15-.1h-.41l-.08.18-.08.35-.06.39c0 .01 0 .01-.01.02l-.18.22-.01.01-.21.11c-.01 0-.02.01-.03 0l-.19-.06-.17-.05-.23-.03-.22.03-.01.15v.01l-.08.22-.17.31-.03.19-.03.12c0 .01-.01.02-.02.02l-.17.09h-.01l-.12.07-.14.01-.13.08-.06.08-.01.07.08.09.14.19.18.17.11.09h.18c.01 0 .02 0 .02.01l.17.13.16.13.01.01.1.16.14.18.01.01.06.25.06.1.12.18.09.15.11.22.09.16.13.11.1-.01.04-.06.05-.2c0-.02.02-.03.04-.03l.17.02c.01 0 .02.01.02.01l.11.12.01.01.06.15c.01.01.06.14.07.18l.1.18.22.21.21.1.26-.03.11-.05.17-.16s.01 0 .01-.01l.12-.06.05-.09-.06-.13v-.02l.03-.18v-.01l.06-.13c.01-.01.02-.02.03-.02h.17c.02 0 .04.02.04.04v.13c0 .02-.02.04-.03.04l-.1.01v.08l.04.02c.01.01.02.02.02.03l.03.29.02.02.05-.01v-.16c0-.01.01-.02.01-.03.01-.01.02-.01.03-.01l.15.03c.02 0 .03.02.03.04l.01.3.25.21.26-.3.01-.25c0-.02.02-.04.04-.04h.08c.01 0 .03.01.03.02l.06.12.03.01.11-.09-.01-.23-.23-.18c-.01-.01-.02-.03-.01-.04.01-.01.02-.02.04-.02h.17c.01 0 .02 0 .02.01l.22.18c.01.01.01.02.01.03l.03.34.1.09.22.21h.11l.19-.15.28-.14.26-.29.12-.44c0-.01 0-.01.01-.01l.14-.17.07-.17c.01-.01.02-.02.03-.02l.15-.01h.02l.13.05.14-.1.16-.35.26-.37.3-.3.01-.01.58-.33c.01-.01.02-.01.03 0l.16.05.16-.05-.01-.17-.23-.2-.18-.01c-.01 0-.02-.01-.03-.02l-.15-.21s0-.01-.01-.01l-.12-.46-.04-.35v-.01l.08-.43-.04-.06-.09.01zm-1.42 2.58l-.09.12-.59.53h-.21l-.1-.13-.16.01-.24.21-.14-.06-.03-.27-.42-.3-.8-.01-.26.39-.24.17-.13-.13-.96.03-.08-.04-.09-.11-.23-.16-.27-.25.05-.15.15-.16h.22l.11-.18v-.35l.13-.06.08.08.2.16.31.21.62.15.76.06.05.05h.11l.18-.15h.23c.04 0 .09.04.12.06l.14-.01.18-.13.56-.28.33-.17.22.04.06.36.19.19.25.06.04.23-.25-.01zM129.52 83.51l.39.01.27-.19.16-.05.34-.37.12-.03.19-.26.34-.29.11.08.15.03.11-.07.01-.1-.02-.09-.07-.29-.26-.22v-.07l-.3-.45-.17-.03-.2-.16-.2-.21-.22-.33-.38-.01v.04l.04.01.21.17.04.13.32.36.05.15.06.22.07.21.21.34.02.21-.2.1-.3.3-.13.07-.51.44-.16.02-.17-.07-.02-.19.05-.11-.07-.08-.19.13.01.23.05.11z"/><path fill="#A00" d="M139.26 81.82l.15-.01.1-.12.04-.18.15-.2.04-.2.15-.31.03-.16-.3-.01-.4.35-.31.02-.25.26-.19.03-.21.3-.06.16.02.16.11.07h.2l.23-.11.19-.16h.2z"/><path fill="#D40000" d="M133.68 85.34l.1.21.22.04.17-.09c.02-.01.03 0 .05.01l.17.2c.01.01.01.01.01.02l.03.32.32.35.12.03.11-.12.13-.13.01-.13c0-.01.01-.03.02-.03l.21-.09.05-.4c0-.01.01-.03.03-.03.01 0 .03 0 .04.01l.11.13.18-.11s.01 0 .02-.01l.22-.02v-.31l-.09-.22-.2-.15-.32-.14-.34-.12-.15.01-.3.18-.34.12h-.01l-.25.01-.25.25-.07.21z"/><path fill="#D40000" d="M140.29 83.13l-.32-.02-.21-.05h-.29c-.01 0-.02 0-.02-.01l-.41-.32-.32-.09c-.18-.08-.35-.12-.51-.12-.31 0-.59.16-.83.48-.07.19-.14.41-.2.62-.15.51-.3.98-.55 1.15-.01 0-.01.01-.02.01l-.45.02.07.16.09.38v.02l-.21.46c-.01.01-.02.02-.03.02l-.33.04-.78.91c-.01.01-.02.01-.03.01l-.21-.02h-.01l-.39-.23c-.01-.01-.02-.02-.02-.03l-.13-.81-.28.08c-.01 0-.02 0-.03-.01l-.35-.25c-.01-.01-.01-.02-.02-.03l-.02-.23c0-.01 0-.02.01-.03l.34-.41-.59-.48c-.01-.01-.01-.02-.01-.03l-.02-.63-.51-.49-.17-.04s-.01 0-.01-.01l-.43-.32h-.71l-1.21 1.07-.49.65v.15c0 .01-.01.02-.01.03l-.39.32c-.01.01-.03.01-.04.01-.01-.01-.02-.02-.02-.03l-.02-.76-.53.35-.02.33-.02.25.09.26.53.33.93-.02.31-.07.27-.2a.03.03 0 01.04 0c.01.01.02.02.02.03v.25c0 .01 0 .01-.01.02l-.3.46-.39.92-.51.79c-.01.01-.02.02-.04.02l-.39-.05c-.01 0-.02-.01-.03-.02l-.14-.32v-.03l.16-.35.15-.44-.03-.04-.09.09c-.01.01-.01.01-.02.01l-.28.04-.4.53-.05.38.07.53.37.46h.66l.8-.57.71-.76c.01-.01.03-.01.04-.01.01.01.02.02.02.03l.07 1.06.07.62.07.53c0 .01 0 .02-.01.03l-.6.64.28.24h.8l.36-.49c0-.01.01-.01.02-.01l.14-.04.05-1.52.07-.79c0-.01.01-.02.02-.03.01-.01.02-.01.03-.01l.09.02c.02 0 .03.02.03.04l-.12.62-.02.55.02.9.11.91.2.27c0 .01.01.01.01.02v.25l.18.05v-.94-.02l.18-.42c.01-.02.03-.03.04-.02.02 0 .03.02.03.04l-.05.37-.09.37.09.45.07.44.18.42.38.38.59.2.52.11.34-.07h.02l.31.13.36-.04-.6-.66-.01-.01-.16-.44v-.01l.02-.95c0-.01.01-.02.02-.03l.08-.06.25-.82.09-1.47c0-.02.02-.04.04-.04s.04.02.04.04v1.29l-.12.49-.07.52.08.27h.38c.01 0 .02 0 .03.01l.55.51.01.01.36.72h.45l.18-.09h.01l.28-.05c.01 0 .02 0 .03.01l.21.14.08.03.03-.06c.01-.02.02-.02.04-.02l.16.03-.04-.09c0-.01 0-.02.01-.03.01-.01.02-.01.03-.01h.17l-.1-.12-.55-.27c-.01 0-.01-.01-.01-.01l-.76-1.22c0-.01-.01-.01-.01-.02l-.02-1.27.02-.46v-.01l.11-.32v-.5c0-.02.02-.04.04-.04h.12c.02 0 .04.02.04.04v.51l-.09.37.02 1.67.7.99h.23c.01 0 .02 0 .03.01l.13.13h.17c.01 0 .02 0 .02.01l.2.18h.9l.52-.22.32-.34c.01-.01.01-.01.02-.01l.13-.02v-.44l-.11-.22-.32-.52-.42-.24h-.2l.04.84c0 .01 0 .02-.01.02l-.18.25s0 .01-.01.01l-.23.18c-.01.01-.01.01-.02.01h-.18c-.01 0-.02 0-.03-.01l-.14-.16c-.01-.01-.01-.02-.01-.02l-.02-1.49-.41-.8v-.01l-.14-.95-.14-.52-.27-.34c-.01-.01-.01-.02-.01-.03l.02-.23c0-.02.01-.03.03-.03.02 0 .03 0 .04.02l.72 1.13s0 .01.01.01l.07.38.52.78h.16c.01 0 .01 0 .02.01l.34.23.56.09.3-.09.47-.71-.08-.25-.32-.43c0-.01-.01-.01-.01-.02v-.16l.05-.26c0-.01 0-.01.01-.02l.09-.09-.06-.09-.22.02-.37.37v.32l-.09.23c-.01.02-.02.02-.04.02l-.37-.05c-.01 0-.02-.01-.03-.02l-.21-.48V86.93l-.11-.26-.16-.16c-.01-.01-.01-.01-.01-.02l-.07-.34-.44-.9v-.39c0-.02.01-.03.02-.03.02-.01.03 0 .04.01l.74.85c0 .01.01.01.01.02l.02.21.78.49.66-.09.42-.53v-.59l-.16-.29v-.01l-.04-.52-.39.35-.02.38c0 .01-.01.02-.01.03l-.12.09c-.01.01-.04.01-.05 0l-.25-.23h-.1c-.01 0-.02 0-.03-.01l-1.34-1.48c-.01-.01-.01-.02-.01-.03l.02-.09c0-.01.01-.02.02-.03h.03l.61.36.78-.29.38-.33.02-.39-.51.41c0 .01 0 .01-.01.01zM120.52 91.49l-.22.04-.3.15-.24.15-.07.28.05.15.16.24.1.24h.05l.18-.32.13.04.19-.11h.2l.21.15h.26l.41-.52.63.1v.1l.31.4.02.23.1-.02.31-.32.11.1.6-.24.25.06.08.2.02.2-.02.12-.07.14-.04.37.16.01.13.2-.33.1v.26l.25.13.04.22-.04.33-.05.17.3.06.78-.24.31-.3.61-.04 1.35-.68.01-.35-.27-.37v-.11l-.42.02-.81.15-.8.06-.12-.21-.07-.63-.44-.64-.41-.22-.41-.06-.16.09-.47.34-.42-.04-.41-.55-.34-.05-.27.11-.34.38-.39.36-.14-.28zM127.47 92.85l.25.27-.02.31.14.14.25-.14.25-.17.25-.1.3-.16.03-.17.31-.15.33-.1.43-.12.42-.06-.31-.21-.89-.58-.36-.04-.14.12-.52.02-.29.07-.21.12z"/><path fill="#D40000" d="M129.04 90.95l.22.46.76.57.43.1.3-.14.7-.3.43-.29.14-.22-.08-.14-.6-.02h-.42l-.34-.15-.28-.28-.04-.25-.19-.3-.17-.18h-.27l-.39.26-.16.33zM129.77 89.39l.24.02.47.59.3-.32.02-.8-.1-.08.1-.36.04-.22h-.08l-.75.72-.53.07-.25.15-.01.15.18.11z"/><path fill="#D40000" d="M132.01 92.19l.27.08.55.3.3.15.52-.04-.42-.52-.16-.31-.03-.25-.11.03-.17-.04-.21-.28-.12-.37-.07-.46-.1-.01-.1.18.11.11.12.26-.2.26-.02.2-.26.2-.36.16-.33.13-.35.13-.03.11.62-.06zM136.29 91.82l-.39-.42h-.12l.02.77.26.24h.25l.19-.11.05-.13-.18-.11zM140.32 91.76l-.45.04-.35.06h-.28l-.24.06-.06.09.8.53.24.08.21-.07.38-.3.18-.42.02-.26-.14-.02zM140.56 92.85l.25.2.72.11.58-.75v-.19l-.31-.36-.24-.06-.26-.35-.13.2-.16.39-.33.36.02.29h-.16zM148.96 91.51l-.13-.12-.45-.13-.54.02-.54-.09-.96.5-.38.07-.13.16-.59.11-.49.41-.61.22h-1.29l-.27.09-.28.35v.16l.21.26.3.41.52.34.13.11h.25l.28.18.47.17.42-.02.04-.22.1-.42.15-.21v-.1l-.41-.2.16-.21.2.09.28.11.26.15.23-.04.3.14.65.15.01-.16-.21-.24h-.25l-.5-.49-.13-.42.36-.31.52.06.32.29h.13l.12-.74h.39l.17.07.2.29v.17l.09.16.18.09.25.01.04-.07-.23-.42.05-.56.31-.17.25.02zM152.39 111.29l.48-.71.13-.52.12-1.01-.07-.78.03-.32.1-.15-.01-.51-.07-.16-.32.43-.18.04-.42-.28-.11-.03-.25-.36-.16-.55.01-.58h-.09v-.04c0-.02.04-.52.09-.65.04-.12.09-.33.1-.37l-.07-.53-.27-.5-.33-.28-.53-.16-.64-.18-.36-.29-.68-.07-.35.05-.67-.31-.42-.16-.54-.01-.52-.06-.24.01-.29.27-.2.38-.07.4-.13.52-.06.39.09 1.32.27.42.15.04.14.29.24-.65.17.13.07.51.4.34-.04.06c-.14-.07-.4-.19-.45-.19-.04 0-.06.04-.06.06l.09.2.22.22.4.16.84.02-.25.25h-.53l-.09.07.17.25.23.36.4.19.44-.11h.2l-.08.2.2.14.19.18.17.18.16.03v.26l-.26.66-.06.31-.14.24-.09.39-.26.45-.02.11h.07l.19-.24.28-.12.35-.45.02.01s.06.02.11.02c.03 0 .07 0 .08-.03.03-.07.18-.49.25-.7l.01-.02.2-.04.1-.62h.07l.18.6.15.77-.06.66-.38.7-.09.11.05.19h.23l.31-.33.55-.74.22-.74.12-1.44.07-.01.25.67.23.66.12.53v.01l-.18.67-.19.69.21-.15.56-.67zM118.79 111.12v-.88l-.49-1.43-.24-1.33.07-.02.64 1.73.39.36.35.94.3.55.04.3.16-.1.06-.1-.2-.15.16-.12-.03-.47-.15-1.1h-.16l-.58-1.21.07-.04.5.72h.17l.02-.15-.24-.49-.07-.71.55.79.1-.05-.26-.76-.05-.9.07-.01.16.38-.02.43.33.42.32.17.23-.27-.17-.12-.08-.39-.28-.32v-.59l.45.79.34.24.33.07.33-.23.57-.65-.05-.04-.61.03-.5-.34-.45-.42v-.43l.15.09.19.39.34.34.39.05.5.02.54-.49.3-.97.08-.53-.11-.66-.35-.78-.21-.34-.17-.07-1.36-.03-.19-.1-.32.26h-.63l-.66.38-.47.35-.24-.02-.92.84.13.67.11.2.05.68.03.99-.22.17-.32.8-.19.7-.16 1.38.13 1.02-.19.55-.38.6-.05.2.21-.15-.04-.07.07-.04.13.19.4-.73.19.31.1.02v-.88l-.19-1.43.08-.01.45 1.48.11.51.01-.01.06-1.19.07-.01.3.69.02.57.09.07zM142.57 122.37l.46.03.28.17.11.51v.13l.24-.13.23-.33.03-.86-.06-.24.08-.65h.08l.08.85.16.23.15-.11.17.61.35.35.14.23.01-.11-.03-.43.01-.01.41-1.06.24-.16.22.1.28.29-.01.07.15-.02-.05-.6-.34-.47-.54-.35-.28-.28-.31-.55.5.28.41.38.36.19.29.05.47.91.23.35.05-.5.22-.69.23-.31.29-.03.3.09-.07-.34-.26-.5-.54-.49-.56-.43-.46-.2-.43.37-.13.05-.25.23-.22-.1-.63-.59-.16-.11-.01-.01-.26-.64-.39-.18-.61.06-.01-.01-.74-.15-1.43 1.48-.19-.05-.49.41-.03.42.49.38.17.33.13-.03.5.62.46.64.19.11.15.33-.24.35.06.17zM120.52 120.21l.26.32.08.41.25.63v.39l.15-.12.44-.62.56-.41.56-.36.78-.22.18.19-.15.07-.41.17-.51.32-.5.43-.27.42-.1.28.39-.23.41-.05.4.2.23.47.14.37.57-.38.03-.16.13-.1-.02-.5-.11-.08.17-.13.08.08.28.45.07-.23.37-.31.58-.06.41.09-.15-.24-.06-.72.51.3.33-.1 1.07-.81.43-.37-.6-.5-.37-.59-.39-.33.02-.17-.26-.3-.16-.51-.18-.3-.64.05-.56.29-.48.7-.35.66-.46.22-.35.03-.59-.03-.29-.16-.59-.08-.39.08-.47.39-.27.47-.6.32-.25.43.33-.06z"/><path d="M137.32 80.81l-.19-.19-.06-.36-.22-.04-.33.17-.56.28-.18.13-.14.01c-.03-.02-.08-.06-.12-.06h-.23l-.18.15H135l-.05-.05-.76-.06-.62-.15-.31-.21-.2-.16-.08-.08-.13.06v.35l-.11.18h-.22l-.15.16-.05.15.27.25.23.16.09.11.08.04.97-.01.13.13.24-.17.26-.39.8.01.42.3.03.27.14.06.24-.21.16-.01.1.13h.21l.59-.53.09-.12.24-.01-.04-.23-.25-.06zm-.55.15l-.09-.13-.05-.11.02-.03h.21l.26.22-.01.11-.44.35-.4-.02-.06-.04v-.08l.05-.04.43-.04.08-.19zm-2.91.32v.07l-.18.08-.35.02-.24-.04-.16-.14-.03-.28.21-.24h.18l.01.05.02.41h.45l.09.07z"/><path fill="#FFF" d="M133.33 81.21l-.02-.4-.02-.06h-.17l-.22.24.04.28.16.14.23.04.36-.02.17-.08v-.07l-.08-.07zM136.2 81.23v.08l.06.04.41.02.44-.35.01-.11-.26-.22h-.21l-.02.03.05.11.09.13-.1.19-.43.04z"/><path fill="#5656A6" d="M120.67 93.76l.33.28.07-.06.01-.77-.24-.43-.15-.06-.23.05-.17.14v.26l.19.32zM121.72 92.29l-.29.27v1l.21.39.53-1.09v-.29l-.2-.28zM123.65 93.16l.1-.2-.05-.14-.19-.15-.12-.03-.29.13-.17.16-.34.61.05.44.26-.12zM123.94 94.25l-.16-.14-.29-.02-.3.13-.33.06-.01.03.53.36.29.02.25-.18.07-.12z"/><path fill="#48489C" d="M145.95 94.01h-.42l-.1.1-.11.22v.25l.12.15.17.02.24-.11.56-.16.27-.2v-.13l-.48-.01zM149.23 92.14l-.14-.4-.27-.07-.23.02-.12.12-.04.35.13.3.12.18-.02.34-.03.33c.1-.06.25-.17.29-.25.06-.13.19-.42.19-.43l.12-.49zM147.57 92.09h-.24l-.07.49.21.22v.67l.24-.13.19-.35.02-.38-.15-.3zM146.49 92.52h-.3l-.19.15.05.31.37.28.32.06.33.49.08-.09.05-.27-.11-.41-.17-.18-.21-.2zM148.44 93.27v-.28l-.3-.06.03.38z"/><path fill="#4F4D9F" d="M146.38 123.27l-.03-.63-.18-.29-.21-.18-.16-.09-.27.37v.65l.14.33v.01l-.12 1.13.59-.83zM147.74 122.91l.19-.28.34-.58.06-.43v-.58l-.16-.26-.14-.12-.18.05-.23.49-.06.66.14.36v.49zM142.13 123.79l.04.29.57-.4.34-.44-.05-.32-.2-.15-.26-.11-.22.03-.25.35z"/><path fill="#4748A5" d="M125.46 123.08l.44-.5v-.69l-.25-.1-.22-.04-.43.22v.24l-.11.13v.49l.14.16-.02.42zM121.92 123.56l.37.59.39.47-.02-.4-.06-.57.09-.37.14-.22.22-.2-.15-.43-.38-.23-.35.03-.15.25-.13.5zM119.75 122.05l.16.39.29.37.21.13v-.76l.18-.24.12-.07.1-.36-.02-.28-.26-.6-.3-.1-.29.1-.13.41zM120.82 118.94c-.37.08-.54.28-.51.61l.37-.28.14-.33z"/><path fill="#DFDA4D" d="M129.97 92.65l-.65.43-.29.02-.63.42-.55.22-.44.19-.85.39-.59.35-.29.04-.68.42-.98.08-.18-.1-.45-.06-.29-.11-.3-.17-.41-.48-.1-.07h-.34l-.09.13.05.3.52.48.38.24.3.12.38.21h.81l.73-.08.37-.14.71-.02.57-.26.43-.3.42-.02.24-.23h.31l.61-.46.88-.39.91-.33.99-.19.43.02.17.13.2.33.08.17-.1.36-.42.24-.1-.3.23-.19-.04-.07-.35-.06h-.23l-.21.21-.04.5.3.25.31.21.27.02.34-.21.46-.4.26-.45-.08-.66-.15-.41-.45-.34-.57-.23-1 .02-.59.16z"/><path fill="#D9D24D" d="M133.19 93.08l.11.94-.2.56.4.01h.51l.46-.09.45-.04.41.02.33.04.37-.15.02-.28-.1-.27.01-.01.18-.59-.06-.1z"/><path fill="#D9D34A" d="M142.58 94.12l-1.15-.6-1.02-.46-1.53-.58-.74-.19-.65.09-.55.17-.51.38-.09.37-.08.59.09.34.36.49.58.16.53-.13.49-.24v-.46l-.36-.33-.4-.02-.16.15.08.23.14.06.12-.07.15.06-.1.2-.24.11-.26-.05-.15-.48.11-.39.2-.28.21-.12.42.06.52.06.55.19.67.2.2.15.37.04.6.31.39.06.79.41 1.01.44.84.17.54.18 1.12-.06.47.02.25-.21.19-.02.46-.51.53-.6.03-.34-.26.16-.82.95-.38.04-.54.18-.28-.02-.62.08-.55-.2-.9-.43z"/><path fill="#DDD457" d="M120.9 110.71l.25.81.49 1.94.42.95.56 1.13.73.87.94.21.7.03.6-.07.58-.17.48-.48.13-.5-.33-.5-.59.1-.16.41.34.21.23-.23.02.02.03-.02v.01l.02.03.14.21-.39.35-.82.21-.94-.11-.71-.4-.92-.96-.64-1.34-.78-3.25-.5-1.07.31-.38.18-.04 1.26-1.05.74-.91.53-.81.45-1.26.07-.88-.14-.87-.56-1.27-.46-.67-.24-.24-.88-.99-.35-.21-.32-.31-.44-.07-.17.07-.58.14-.34-.07-.19.16-.13.3.14.52.17.33.4.2.5-.03.19-.23.03-.5-.24-.18-.21.15-.03.18.12.2-.15.1-.36-.16v-.21l.15-.47.23-.23.49.15.1.14h.25l.33.18.47.47v.14l.63.66c.46.55.43.62.42.64-.01.02-.03.03-.07.03h-.02c-.01.02.02.09.06.16l.43.71.18.64.04 1.36v.01l-.21.79-.07.07-.68 1.28-.4.36h-.11l-1.82 1.61-.19.16.52 1.01.09.73z"/><path fill="#DBD45D" d="M131.74 121.6l-.32.25-.04.61.3.29.44.1.33-.13.34-.37.03-.44-.13-.66-.59-.83-.63-.32-1.59-.56-1.03-.39-.74-.53-.68-.73-.4-1.03.19-.69.41-.31.27.09-.09.25-.09.17.12.24.31.07.23-.29v-.33l-.2-.37-.26-.06-.3.03-.45.31-.24.27-.14.65.35 1.08.56.73 1.41.92 1.51.56.95.14.01.01.72.71.36.87-.34.56-.48.04v-.28l.19-.04.19-.19-.09-.17z"/><path fill="#E5DC5E" d="M138.25 119.61l1.23-.53 1.13-.77.8-.66.2-.76-.21-.72-.3-.37-.66.04-.23.5v.38l.38.06.28-.12-.03-.24-.36-.22.48-.05.3.38v.59l-1.32 1.43-1.87.92-1.28.53-.87.49-.56.56-.27.44.03.48.2.33.65.31.4-.07.37-.36-.1-.5-.38-.22-.19.18-.06.36.1.14v.23l-.41-.08-.3-.53.01-.01.46-.86.53-.39z"/><path fill="#D7D643" d="M149.25 100.84l.16-.4-.07-.58-.43-.4-.8.07-.59.07-.73.42-.77.81-.53.77-.66 1.08-.21.99.03 1.71.88 1.86.77.98 1.51 1.02.27.19-.47 1.06-.67 2.14-.42 1.73-.36.76-1.14 1-1.28.49h-.01l-1.1-.03-.55-.4-.15-.38-.04-.56.36-.09v.33h.21l.22-.03.09-.38-.19-.26-.26-.03-.34.07-.36.26-.04.54.17.38.35.52.63.31.62.17.94-.07 1.08-.52 1.01-.73.42-1.02 1.2-4.23.44-.9.32-.29-.07-.1h-.31l-.82-.61-.86-.54-1.09-1.3-.57-1.12-.18-1.56.32-1.53.68-1.14 1.09-.92 1-.71 1.03-.04.16.43-.17.38-.24-.2-.28-.03-.12.46.31.16z"/><path fill="#44B3CC" d="M133.3 103.46h.23l.03-.47-.98-4.26-.03.31.16 1.18z"/><path fill="#50AECE" d="M133.84 103.29l.2-.06-.79-3.44z"/><path fill="#50AFCE" d="M134.3 103.15l.3-.11-1.13-3.66z"/><path fill="#50ABCE" d="M135 103.05l.25-.09-1.28-3.66z"/><path fill="#50B0CE" d="M135.57 102.84l.35-.05-1.65-3.86z"/><path fill="#50B3CE" d="M136.16 102.6l.37.04-1.89-3.71z"/><path fill="#64B4D1" d="M120.22 97.86l-.21.32-.08.36.02.38.06.07.41-.02.25-.08.4-.04.39.07.57.39.81.73.2.24-.16-.39-.14-.73-.1-.74v-.01l.12-.44.22-.3.23.12.18-.1.23.12.19-.12.32.1.38-.19.59-.46h.44l.11.09.24-.1.13.19.46-.35.41-.21.41.16.49.11.19-.17.43-.02.58-.08.3.21v.01l.27.66.18.2.29.06.17.08.28.7.2.55.1.68-.03.13.14-.02.28.28.24.12.2.22.05.33.11-.01.14-.18.31.07.23.25.17.01-.4-2.66-.39-.22-.02-.68.93-.33.02-.2-.13-.39-.16-.33-.38.04.31-1 .78.81-.35.04.26 1 1.17-.19.24.33-.08.26.09.17.06.31.35.44.93 2.01.86 1.76.36-.38.42-.1.45-.31.26-.09.2-.26.54-.02.74.67.1-.16.77-.04.25.5.03.15.26-.11h.01l.82.18.49.39.38.16.08.16.19-.23.18.02.25.06.78-.06.4-.81c.02-.03.38-.77.56-.97.17-.19.9-.97.9-.98l.89-.59.68-.38.63-.08.55-.02-.02-.48-.23-.5-.59-.77-.12-.61v-.4l.53-.34.59-.48.02-.49-.17-.62-.35-.52-.11-.09-.17-.03-.26.16-.55.76-.61.61-.77.46-.87.1-1.37-.22-.97-.3-1.2-.45-1.26-.59-.69-.14-1.03-.51-.35-.02-.01.12.31.31-.08.58-.29.31-.49.02c-.02.03-.07.07-.26.12-.09.02-.19.04-.28.04-.17 0-.28-.04-.29-.04l-.49-.29h-1.39l-1.04.1-1.17.1-.59.51-.53.08h-.01l-.56-.14-.59-.69.02-.4.38-.47-.14-.01-1.29.47-.8.45-.44.28-.31-.02-.41.37-.51.04-.3.32-.11-.04-.81.21-.75.14c-.04.01-.95.14-1.05.14-.1 0-.97-.11-1.01-.12h-.01l-.68-.34-.31-.35-.29-.19-.41-.43.02-.31-.09-.06-.23.04-.3.24-.13.32.02.59.21.36.37.39.19.31-.1.56-.54.34-.54.39z"/><path fill="#5DB7D2" d="M133.08 104.09l-.03.53.37-.09-.05-.51zM133.66 103.92v.43h.12v-.44zM134.11 103.81v.48l.2-.07-.02-.43zM134.92 103.63l-.22.07.02.35h.18zM135.25 103.59v.37h.31l-.05-.42zM135.86 103.44v.35l.26-.07-.07-.36z"/><path fill="#FFFCFC" d="M146.27 109.1l.37.06-.02-.08-.3-.29-.06-.19-.11-.05v.36l.1.05z"/><path fill="#CCC" d="M138.34 101.55l-.47.29-.38.31-.46.09-.23.25.05.11.35.02.17-.1h.22l.16-.13.26.08.26.05.31-.19.44-.28.22.02.18-.14-.6-.5zM140.47 101.87h-.34l-.22.09v.07l.08.02.22.22.05.73 1.42 3.05.27.3 1.05 1.4.25.34.12-.11.18-.02.35-.33.31.03.22-.1.75.1.21.1-.79-1.28-.45-1.62-.1-.96.08-.23.05-.29-.07-.18-.22.07h-.01l-.36-.05-.07-.1h-.27v.17h-.37l-.42-.23-.37-.37-.41-.19h-.58l-.37.11v-.22zM133.22 122.15v-.18l-.02.23zM134.85 122.65l.13.1.18.02.03-.1-.37-.49v-.59l.16-.8.33-.46.47-.37.71-.63h.01l.67-.02.59-.27.83-.3.5-.15.74-.5.57-.59.39-.43-.12.1h-.01l-.51.03-.3-.19-.13-.4.08-.54.29-.36.38-.26.51.03h.2l.12-.33.24-.31.62-.35.46-.03.48.34-.06.56-.18.31-.45.11.34.32h1.3l.81-.52 1.04-.79.42-1.09.45-1.54.27-.97.17-.92.02-.46-.36-.04-.53.19-.23.28-.09.04.16.23v.01l.03.62.02.02v.44l-.25.46-.53.56-.62.26-.56.07-.39-.09-.14-.23-.09-.24v-.53l.13-.25.05.15-.02.57.18.22.39.12.36-.12.44-.12.36-.2.01-.09-.15-.02.06-.09h.21l.26-.51.09-.44v-.34l-.1-.1-.06-.1v-.15h.01l.07-.06-.09.05-.33-.25v-.02l-.07-1.07-.09-.38-.45-.22-.63-.12-.39.15-.84.44-.45.5-.16.03-.46.27-.64 1.11-.1.68-.01.01c-.03.03-.34.33-.49.36-.03 0-.07.01-.11.01-.15 0-.32-.03-.33-.03l-.01-.01-.23-.15.02.19-.49-.23.02-.07.3.07.05-.1v-.01l.03-.06.3.19h.38l.45-.3-.14-.99-.28-.35-.32-.05-.2-.22h-.75l-.74.37-.32.12-.84.86c-.03.05-.2.43-.3.55-.1.12-.62 1.01-.62 1.02l-.01.01-.69.53-.37.07-.24.06.18.21-.5.03-.72.07-1-.02-.45-.08-.17-.26.12.25.01-.01.44.56.61.57-.04.06-.35-.11-.3-.29-.02-.03.17.36-.06.04-.23-.3-.36-.63-.09-.51.06-.02-.05-.08-.28-.31.03-.13-.23-.38.33-.39.02-.3-.18-.23.08-.18-.22-.3.16-.05-.05-.14-.27-.02-.28-.35-.96-.29-.51-.02-.39.12-.58.43-.22-.07-.25.23-.47.74-.32.81v1.01l.25.87.3.82.54.83.17.02.56.51.54.29.35.2-.02.07-.4-.05-.56-.05-.32-.24-.22.08-.05-.16-.16-.02-.13.15-.02.1.19.02.05.24.36.49.67.37.65.3.52.12-.01.07h-.61l-.42-.12-.35-.18-.02.04h-.16l-.1-.05-.41-.08-.5-.62-.18-.03-.15-.19.16.66-.21-.21.1.5.31.48.86.42.36.13.01-.04.43.07.8-.24.87-.42.04.06-.41.39-.53.26-.31.25 1.04.31.58.36.33.36.03.06-.1-.26.5.15.23.09.53.07-.37.23.44.1v.03c-.02 0-.46.05-.53.05-.05 0-.23.11-.3.15 0 .03-.02.16.02.22.02.02.04.03.07.02.05-.01.11-.01.17-.02.12-.02.24-.03.3-.03.09 0 .36.05.37.05l.19.15-.12.18h-.01l-.7.02.07.06h.64l-.58.38.65-.02.57.23v.16h-.01l-.5.11.01.01h.53zm3.27-8.26l.26-.02.64-.73.02.01-.09.17v.24l.07.21.05.21.22.29.62.09.29-.14.61-.66.47-.54.09-.24-.02-.62-.31-.4-.4-.38.18-.08h.01l.35.32.21.28.16.42.07.44-.04.24h-.16l-.09.49h-.01l-.24.1-.33.3-.38.4-.53.34-.37-.04-.21-.19-.33-.11-.13-.27.03-.48-.22.16-.09.3-.53.44-.6.06.73-.61zm-7.56-2.07l.45.24h.78l.16-.16.05.05-.22.22-.37.09h-.01c-.06-.01-.36-.04-.44-.1-.07-.05-.45-.28-.45-.28l.05-.06zm1.02 3.08l-.07.18-.29-.46-.21-.42-.14-.58-.05-1.51.3.13.08.16h-.25l.07.76.19.72.17.42.3.4.3.3-.1.1-.3-.2zM133.04 122.64l.04.02zM126.53 114.45l.29.21.37.41.27.14c.03-.04.07-.1.13-.1.04 0 .11-.01.15-.01l.01-.71a.256.256 0 01-.12-.13c-.01-.05-.02-.27-.02-.33l-.1-.1v-.02l-.01-3.07-.29-.79-.24-.41-.19-.15-.3-.03-.36.23-.23.13-.5-.11-.17-.11-.29-.01-.25-.46-.73-.23-.89-.07-.25.17-.3.36-.21.41-.03.67.16.22v.32l.07.13v.39l-.31-.37-.23-.57-.09-.28-.05.08.03.46.01.38.13.35.13.5.22.63.18.68.16.65.3.58.26.36.6.6.37.26.58.2.64-.01.16-.11-.24-.23v-.01c0-.02-.05-.17-.05-.23s.07-.31.09-.36l.01-.02.29-.3.84-.19zm-2.87.23l-.14-.42v-.45l.07-.01.14.86-.07.02zm.75.07l-.06.04-.64-.89v-.05l-.02-.63.48.07.25-.27.06.05-.26.29h-.06l-.36-.03-.01.49.62.93zm1.59-2.46l-.16-.21.01-.01-.35-.5-.05-.18-.07-.14-.11-.54.06-.07.01.07h-.01.01l.18.65.27.49.66.57-.05.06-.36-.26.01.01.26.35-.05.05-.01-.01-.01.01-.7-.46.04-.06.53.33-.11-.15zM136.34 103.31v.34l.17-.04-.05-.3zM136.75 103.2v.26h.1v-.28zM137.14 103.4l.21-.04-.03-.28-.2.08zM137.77 103.3l.05-.35h-.15v.35zM138.15 102.87v.29l.14.02-.05-.31zM138.74 103.12v-.29l-.15-.06v.34zM139.1 102.71l-.07-.06-.07.37h.17zM139.37 102.6v.31l.29-.13-.05-.33z"/><path fill="#76401B" d="M133.03 96.14l-.6-.59-.24.73z"/><path fill="#784421" d="M134.88 104.54l-1.25.33-.69.32-.4.37-.4.66-.08.75v.57l-.02.07.72-.11 2.65-.65 4.1-1.08.02.07.01.06.02-1.38-.16-.3v-.01l.05-.77-.58.05-1.46.35-1.3.3-1.23.4zm-2.36 2.61l-.33.07v-.39l.01-.01.32-.53v.86zm.35-.1l-.06-.67.3-.11.03.79h-.27zm.41-.16v-.62l.26-.15.1.7-.36.07zm.53-.2v-.56l.26-.22.13.75-.39.03zm.53-.14v-.63l.35-.14.03.7-.38.07zm.61-.11v-.77l.32-.04.06.74-.38.07zm.76-.27l-.03-.55.35-.14.03.58-.35.11zm3.22-1.33l.35-.17.07.65-.41.03v-.51zm-.37 0l.03.56-.32.07-.03-.49.32-.14zm-.96.39l.29-.18.1.66h-.39v-.48zm-.61.03l.29-.15.06.74h-.36v-.59zm-.62.19l.36-.18-.03.71h-.32v-.53zM133 112.88l.81.24 1.07-.03 1.18-.48.64-.77.25-.46-4.25.96.01.1z"/><path fill="#784421" d="M132.27 110.65l.25.48.11.73.05.34 4.3-.97.02.08.28-.5.7-.73.56-.44.76-.21.11-.95.03-.45-7.36 1.67-.46-.06.02-.15.22.03 3.77-.78 3.79-.86.02.07.01.06.1-1.41.01-.7-6.35 1.67-1.15.17-.01-.07-.01-.04-.11.34-.45 1.92.42.29.37.47zm3.8-1.05l1.19-.21.06 1.02h-.08v-.01l-1.13-.32h-.04v-.48zm-2.45.55l1.11-.21-.03 1.08h-.08V111l-.97-.54h-.04v-.31zm2.64-2.78l1.26-.23.01.07-.25.05.05.83h-.07v-.02l-.96-.32h-.04v-.38zm-3.34.78l1.25-.29.03.07-.18.13.03.82h-.07v-.02l-1.02-.4h-.04v-.31zM140.4 109.55l.61.37.22.32.28-.24.14-.47.58-.33.84-.73-.72-1.08-.17-.25.05.2-2.39.64-.05-.17-.12 1.58zM139.8 107.72v.04l2.37-.63-.19-.28-.52-.59-.62-1.15-.7-1.52h-.32l-.03 1.9 1.09-.19.03.19-1.09.19-.03-.18-.02 1.11z"/><path fill="#A05A2C" d="M131.98 98.15l2.25-.71v-.14l-2.27.36z"/><path d="M125.55 112.19l.7.46.01-.01.01.01.05-.05-.26-.35-.01-.02.36.26.04-.06-.66-.57-.27-.49-.17-.65h-.01.01l-.02-.07-.06.07.11.54.07.14.05.18.34.49v.01l.16.21.12.18-.53-.34zM124.17 113.37h.05l.26-.29-.06-.05-.25.27-.48-.08.02.64v.05l.64.88.06-.04-.62-.92.01-.49zM123.52 113.81v.45l.14.42.07-.02-.14-.86z"/><path fill="#666" d="M131.6 112.64h-.49c.09.02.21.04.3.05l.19-.05z"/><path d="M131.41 112.76l.37-.09.22-.22-.05-.05-.16.16h-.78l-.45-.24-.04.07s.38.23.45.28c.08.05.38.08.44.09zm.19-.12l-.19.05a2.68 2.68 0 01-.3-.05h.49z"/><path fill="#666" d="M133.02 114.37l-.4-.85.04.22z"/><path fill="gray" d="M133.43 114.55l.17.05-.49-.47-.15-.18.18.33z"/><path fill="#666" d="M131.87 115.58l.07-.07-.29-.29-.29-.41-.18-.42-.19-.72-.08-.78h.24l-.06-.12-.26-.12.06 1.47.14.58.2.42.27.41.07-.16h.01z"/><path d="M131.87 115.61l.1-.1-.3-.3-.3-.4-.17-.42-.19-.72-.07-.76h.25l-.08-.16-.3-.13.05 1.51.14.58.21.42.29.46.07-.18.3.2zm-.37-.08l-.27-.42-.21-.42-.14-.58-.05-1.47.26.11.06.12h-.24l.07.78.19.72.18.42.3.4.29.29-.07.07-.29-.2-.01-.01-.07.19z"/><path fill="gray" d="M138.6 114.19v-.01l.27-.19-.04.53.12.26.33.11.21.18.36.04.52-.33.39-.4.33-.3.24-.1.09-.5h.16l.03-.21-.07-.44-.16-.42-.2-.28-.35-.3-.13.06.37.35.32.41.02.63-.01.01-.08.25-.48.54-.61.67-.3.14h-.01l-.63-.09h-.01l-.22-.31-.06-.21-.07-.21v-.25l.05-.1-.59.68h-.01l-.25.01-.66.56.52-.05.52-.44z"/><path d="M138.53 114.5l.09-.3.22-.16-.03.48.13.27.33.11.21.19.37.04.53-.34.38-.4.33-.3.24-.1h.01l.09-.49h.16l.04-.24-.07-.44-.16-.42-.21-.28-.35-.32h-.01l-.18.08.4.38.31.4.02.62-.09.24-.47.54-.61.66-.29.14-.62-.09-.22-.29-.05-.21-.07-.21v-.24l.09-.17-.02-.01-.64.73-.26.02-.71.6.6-.06.51-.43zm-1.06.47l.65-.55.26-.02.59-.67-.05.1v.25l.07.21.05.21.23.3.63.09.3-.14.62-.67.47-.54.09-.25-.02-.63-.32-.41-.37-.36.14-.06.34.31.21.28.16.42.07.44-.03.22h-.16l-.09.49-.24.1-.34.3-.38.4-.52.33-.36-.03-.21-.19-.33-.11-.12-.26.04-.53-.26.19-.09.3-.52.43-.51.05z"/><path fill="gray" d="M143.77 111.75l-.02-.06-.08.16v.52l.09.22.13.22.38.09.55-.07.61-.26.52-.56.24-.45v-.4l-.02-.02v-.01l-.03-.62-.15-.21-.11.1v.11l.05.09.1.1v.36l-.09.45-.26.53h-.21l-.02.02.13.02-.02.15h-.01l-.37.21-.44.13-.37.12-.41-.13h-.01l-.19-.23v-.01z"/><path fill="#666" d="M131.57 118.85l.23-.22-.66.32-.82.25-.07-.01.48.18.31-.25z"/><path fill="#999" d="M133.12 121.1c.03-.02.26-.16.33-.16.05 0 .3-.03.43-.04l-.42-.09.36-.22-.45-.06-.23-.09-.44-.13.18.48.23.52c-.01-.1.01-.2.01-.21zM134.78 122.5v-.12l-.55-.22-.75.02.58-.39h-.55l-.14-.11h.04l.73-.02.09-.14-.16-.13a2.6 2.6 0 00-.36-.05c-.06 0-.18.02-.3.03-.06.01-.12.02-.17.02-.04 0-.07-.01-.09-.03 0-.01-.01-.01-.01-.02l.1.35.02.48-.2.44.24.16.13-.17.72-.2.12.21.51-.11z"/><path fill="#E4CB5E" d="M123.04 97.81l-.15.22-.04.61.1.76.25.84.23.35.17.03.05-.21h-.03l-.03-.8-.13-.34-.09-.19v-.06l.11-.84h.06l-.14-.38-.13.09z"/><path fill="#E4CB5E" d="M125.26 97.2l-1.05.76-.38-.13-.22.19-.05.22-.01-.04-.1.82.08.21.14.28.03.89.1.44.16.16v.01l.05.82.6 1.34v-1.72l-.17-.33.05-1.11-.19-.25v-1.07h.07v1.05l.2.25v.01l-.05 1.1.17.34v1.84h-.04l.06.71.03 1.27v.01l-.23.28-.3.45.01.13-.31.59.02.89.07.08.02.86.23.02.19.21.4-.04v-.25h.04l.06.3.34.44.28.23.19.01.1-.14-.01-.97h.01l-.05-3.05.07-.01.57 1.38v-1.79l-.03-.7.01-.04-.03-.61-.04-.07-.11-.8-.66-.83.06-.05.57.7v-.65l-.03-1.11V100l-.08-.41.03-1.32h.07l-.01.58.04 1.02.02.12v.45l.11 2.6.05.4.17.31-.11.43.03.69v1.23h.03l.08 1.56-.07.01-.06-.42-.33-.84-.18.27-.06 1.85h-.04l.06.87.19-.01.27-.24h.01l.36-.05.13.01s.1.06.15.15c.04.08.21.16.21.16h.01l.13.26.13.05.07-.15-.11-2.07-.11-1.69-.12-2.15-.12-2.74-.02-.87-.14-.12.01-.3.52-.15-.08-.24-.1-.88v-.34l.13-.11h.01l.24-.01.18.21.32 1.32.15.05.59-.01.01.01 1.32 2.09.47.7.64 1.2.84 1.19.26.34.15.02.06-1.26.01-.01.36-.31-.31-2.17-.24-.05-.34-.31-.18.03-.2.33-.26-.3v-.01l-.03-.3-.21-.14h-.17l-.22-.29-.1-.03-.16.15-.03-1.03-.21-.47-.04-.28-.39-.55-.42-.1v-.01c-.02-.04-.19-.42-.19-.48 0-.04-.05-.19-.08-.25l-.28-.29-.95.12-.27.16-.21-.13-.13.08-.48-.25-.55.3-.26.24h-.18l-.12-.16-.25.17-.16-.16-.18-.07zm-.53 11.34l-.03-.75-.11-.69-.06-1.62h.07l.06 1.61.11.69.03.76h-.07zm7.04-7.22l.25 2.78-.07.01-.25-2.78.07-.01zm-1.27-1.86h.07l-.03 1.28.14.69.11.75-.07.01-.11-.75-.14-.69.03-1.29zm-5.07-2.05l.07.04-.22.41.14 1.27-.08.84-.07-.01.08-.83-.14-1.28.22-.44z"/><path fill="#DCC56A" d="M129.07 109.82l.26.33.2-.11.19-.09.36-.12-.03-.3-.18-.86-.36-1.19-.51-2.15-.25-.56v-.38l-.15-.66-.36-.98-.32-1.44-.09-.29.03.35.07.47.06.58.17.83.08.71.45 2.69.16 1.21.09.78.04.82z"/><path fill="#E2CC75" d="M130.15 106.89l.59 1.93.12.51.28.55.04-.01.2-.95.25-.75.1-.51.08-.4-.02-.6-.16-.35-1.22-2.45-.18-.48-.34-.59-.46-.96-.75-1.29-.29-.39-.05.05.29 1.06.24.94.23 1.03.39 1.35.22.93.23.57z"/><path fill="#DDD690" d="M127.92 110.81h.31l.09-.2-.15-.12-.27.26zM128.09 110.29l.12-.22-.02-.15-.21.05-.13.07.04.27zM128.94 110.06v-.1l-.17-.07-.3.02.06.15zM128.71 109.67l.13-.18-.15-.13-.29.12.02.19zM127.81 109.75l.32-.07v-.07l-.41-.03-.04.11zM128.12 109.19l-.1-.08-.29.05v.13l.31.02zM128.8 109.07l-.19-.13-.16.05-.04.11.28.07zM128.05 108.63l.02-.14-.17-.02-.14.07-.05.19.17.02zM128.37 108.62l.29.07v-.29l-.13-.04-.16.07zM127.68 108.31l.31-.13-.02-.16h-.27zM128.64 107.81l-.16-.04-.17.13-.11.21h.31zM128.24 107.42l.02.16.27-.04-.1-.2zM127.91 107.65l-.1-.13-.18-.05.01.22zM127.89 107.02h-.27l-.02.2h.35zM128.15 106.88v.26h.33l-.06-.26zM127.62 106.85l.22-.26-.14-.21-.16.27zM128.41 106.36l-.1-.06-.14.07-.04.21h.28zM127.67 106.04h-.14l-.02.15h.24z"/><path fill="#E2D67E" d="M128.27 106.14v-.18h-.16l-.03.18zM128.3 105.63l.02-.15-.29-.02-.04.17zM127.59 105.57l-.04.27.25-.11v-.14zM127.68 105.14l-.04-.11-.09.03-.08.18.1.05zM128.21 105.2v-.23l-.19-.09h-.01l-.07.15.12.21zM127.59 104.85c.04-.02.07-.04.08-.05 0-.03.02-.1.03-.15l-.12-.07-.04.01-.06.16.11.1zM128.13 104.73c0-.05.01-.13.01-.17 0-.02-.06-.06-.11-.08l-.09.01-.04.17.08.05.15.02zM127.5 104.35l.12.03c.03-.03.06-.07.06-.08 0-.01-.03-.07-.06-.13l-.11.02-.01.16zM127.86 104.26c.02.02.06.06.11.06.06 0 .07-.06.07-.07 0-.02-.01-.08-.02-.13l-.13.01-.03.13zM127.63 103.95l-.09-.07h-.06l-.03.12.1.05zM127.87 103.76l-.02.11c.03.02.07.04.09.04.01-.01.04-.05.06-.08l-.11-.07h-.02zM127.61 103.58l-.06-.15a.653.653 0 00-.11-.02h-.06l-.03.15c.04.04.08.07.1.07.03-.01.11-.03.16-.05zM127.76 103.43l.2.03c.01-.06.01-.12 0-.14-.04 0-.12-.01-.17-.02l-.03.13zM127.52 103.13l-.05-.1h-.08l-.02.07.09.07zM127.73 103.05l.11.05.08-.07-.13-.07zM127.39 102.75l.07-.05-.08-.08-.03.05zM127.83 102.58v-.04l-.04-.06-.1.03-.04.05.06.08zM127.47 102.36l-.04-.08-.07-.01-.05.11.11.05zM127.77 102.2l-.07-.09h-.04l-.06.06.08.08zM127.31 102.04l.1-.01-.01-.06-.06.01h-.03zM127.62 101.82v.07l.09-.01-.01-.07zM127.4 101.76c.01-.02.01-.05.01-.06h-.09l-.03.04.06.07.05-.05zM127.3 101.46l.04.05.03-.02-.06-.04z"/><path fill="#D3C55F" d="M131.89 106.01l.17-.25-.24-.34-.14.19.01.22z"/><path fill="#D3C75F" d="M132.14 105.07l-.18.26.18.28.17-.11c.01-.13.01-.25 0-.28-.03-.03-.12-.11-.17-.15z"/><path fill="#E2D67E" d="M131.75 104.61a.43.43 0 00-.07.14c0 .02.03.14.05.25l.12.15c.06-.02.11-.05.12-.06.01-.04.05-.17.07-.21l-.17-.22-.12-.05z"/><path fill="#D3C95F" d="M131.58 105.36c.04-.03.08-.06.09-.08 0-.02-.05-.15-.09-.26l-.09-.09-.06.02-.03.06c-.01.08 0 .17.01.18l.17.17z"/><path fill="#E2D67E" d="M131.24 104.84c.05-.01.1-.03.12-.04v-.2l-.09-.16-.15-.07-.03.02-.05.13.07.19.13.13zM131.45 104.25l-.03.09c.01.07.02.14.03.15l.12.06.08-.14-.09-.19-.11.03zM131.42 104.09v-.14l-.12-.07h-.03l-.06.14.04.1.08.04c.04-.03.09-.06.09-.07zM131.07 104.17l-.08-.15-.09-.02-.08.11.03.13.13.04zM130.81 103.62l-.05.01-.07.07v.07l.1.07.09-.04-.03-.11zM131.11 103.55l-.03.07.06.12.07-.04-.02-.1zM130.98 103.18h-.09l-.02.21.13-.02.03-.11zM130.67 103.39l-.01-.11-.03-.03c-.03 0-.06.01-.09.01l.02.21.07-.01.04-.07zM130.35 103.05l.07.11h.05l.03-.08-.09-.1zM130.73 102.88l-.04.06.03.05.05.01.04-.06-.04-.05zM130.27 102.68l-.04-.01-.03.09.08.02.02-.05zM130.5 102.6l-.01.09.09-.01-.01-.08zM130.17 102.37c-.02.01-.04.01-.06.01-.02 0-.04.01-.06.01v.08h.1c.02-.04.03-.09.02-.1zM130.37 102.32v.07l.09-.01-.02-.07zM129.98 102.23l.09-.01-.01-.06h-.09zM130.24 102.05l-.01.07h.11v-.07zM130.16 101.84l-.09-.01v.09c.03 0 .09.01.12.01-.01-.02-.02-.06-.03-.09zM129.94 101.95l.01-.08-.04-.03h-.11l.01.11zM129.51 101.34l.22.35h.06l-.11-.16v-.02c.01-.03.01-.06 0-.07-.03-.01-.05-.01-.05-.01h-.02l-.07-.12-.03.03zM129.94 101.44l-.08-.07v.16l.11.11.04.01-.02-.07zM129.7 101.2c-.03-.01-.06-.04-.08-.06h-.03l-.02.02.24.16-.06-.11c-.01 0-.03 0-.05-.01z"/><path d="M125.35 99.12l-.09.84.08.01.08-.85-.14-1.27.22-.4-.07-.04-.22.43zM130.72 102.2l.07-.01-.11-.76-.14-.69.03-1.28h-.07l-.03 1.29.14.7zM131.766 101.326l.251 2.788-.07.007-.25-2.79zM124.67 107.09l-.06-1.61h-.07l.05 1.62.12.69.02.75h.08l-.03-.76z"/><path fill="#D38D5F" d="M134.01 107.98l-1.02.23v.25h-.03l1.02.4-.03-.84z"/><path d="M132.99 108.46v-.25l1.02-.23-.06.04.03.84v.02l.07-.01-.02-.81.17-.13-.03-.07-1.25.29v.31h.04z"/><path fill="#D38D5F" d="M136.34 107.43v.33h-.04l.96.32-.05-.81z"/><path d="M136.34 107.76v-.33l.87-.16.05.81v.02l.08-.01-.06-.83.25-.05-.01-.07-1.26.23v.39h.04z"/><path fill="#D38D5F" d="M133.69 110.21v.25h-.04l.97.54.03-.97zM134.66 111.02z"/><path d="M133.69 110.46v-.25l.96-.18-.03.97v.02h.07l.03-1.08-1.1.21v.31h.03z"/><path fill="#D38D5F" d="M137.27 110.41zM136.14 109.66v.41h-.04l1.14.33-.06-.92z"/><path d="M136.14 110.07v-.41l1.04-.18.06.92v.01h.03l.04-.01-.06-1.01-1.18.21v.47h.03z"/><path fill="#D38D5F" d="M132.45 106.56l-.18.29v.28l.18-.04z"/><path d="M132.2 106.83v.39l.33-.07v-.86l-.33.54zm.07.02l.18-.29v.53l-.18.04v-.28z"/><path fill="#D38D5F" d="M133.06 106.97l-.03-.6-.14.05.05.55z"/><path d="M132.81 106.37l.06.67h.27l-.03-.79-.3.12zm.22 0l.02.61h-.12l-.05-.55.15-.06z"/><path fill="#D38D5F" d="M133.36 106.31v.49l.2-.04-.08-.53z"/><path d="M133.28 106.26v.62l.36-.07-.1-.7-.26.15zm.08.54v-.49l.13-.07.07.52-.2.04z"/><path fill="#D38D5F" d="M133.89 106.16v.45l.22-.02-.09-.54z"/><path d="M133.81 106.13v.56l.39-.04-.13-.75-.26.23zm.08.48v-.44l.13-.11.09.54-.22.01z"/><path fill="#D38D5F" d="M134.62 105.89l-.21.09v.48l.24-.04z"/><path d="M134.34 105.93v.63l.38-.07-.03-.7-.35.14zm.07.05l.21-.08.02.53-.23.04v-.49z"/><path fill="#D38D5F" d="M135.03 105.73v.62l.23-.04-.05-.6z"/><path d="M134.95 105.67v.77l.38-.07-.06-.74-.32.04zm.08.68v-.62l.18-.02.05.6-.23.04z"/><path fill="#D38D5F" d="M135.98 106.01l-.02-.42-.21.08.03.4z"/><path d="M135.68 105.62l.03.55.35-.11-.03-.58-.35.14zm.28-.03l.02.42-.2.06-.02-.4.2-.08z"/><path fill="#D38D5F" d="M136.45 105.91h.18l.02-.51-.2.1z"/><path d="M136.73 105.28l-.36.18v.53h.32l.04-.71zm-.1.63h-.18v-.41l.2-.1-.02.51z"/><path fill="#D38D5F" d="M137.21 105.23l-.15.08v.46h.2z"/><path d="M137.28 105.11l-.29.15v.59h.36l-.07-.74zm-.22.2l.15-.08.05.54h-.2v-.46z"/><path fill="#D38D5F" d="M137.83 105.18l-.16.1v.35h.23z"/><path d="M137.89 105.05l-.29.18v.48h.39l-.1-.66zm-.22.23l.16-.1.07.46h-.23v-.36z"/><path fill="#D38D5F" d="M138.32 105.03l.02.35.18-.04-.03-.39z"/><path d="M138.59 105.4l-.03-.56-.32.14.03.49.32-.07zm-.25-.02l-.02-.35.18-.08.02.39-.18.04z"/><path fill="#D38D5F" d="M139.22 104.78l-.21.11v.38l.26-.02z"/><path d="M139.28 104.67l-.35.17v.51l.41-.03-.06-.65zm-.27.22l.21-.1.05.47-.26.02v-.39z"/><path fill="none" d="M132.68 112.27"/><path fill="#C87137" d="M132.06 109.55l3.56-.81-3.77.78zM139.42 107.96zM132.04 107.68zM133.17 107.44l2.24-.59-2.64.65zM139.53 105.84z"/><path d="M111.67 75v42.24c.35 4.24 5.83 7.23 12.17 10.69 3.27 1.78 6.65 3.63 9.61 5.79l.38.28.39-.26c3.64-2.44 7.28-4.27 10.49-5.88 6.84-3.44 12.24-6.15 12.56-12.29l.16-40.57h-45.76zm32.45 51.66c-3.13 1.57-6.67 3.35-10.24 5.71-2.74-1.95-5.77-3.64-8.73-5.26-.02-.01-.04-.02-.07-.04-.19-.11-.39-.21-.58-.32-5.74-3.13-11.16-6.09-11.47-9.6v-.58l.07-.01.27-.65.15-.93.1-1.18.35-.96.09 1.47.16 1.15.46.23.24-.3-.26-1.04v-1.66l.29.94.31 1.24.55.98.3-.37-.21-.79.09-1.32.41 1.9v.01l.95.84v-.81l-.24-1.07.37.78.26.93.52 1.13.07-.01.05-.83v-1.64l.28-.9-.09.69.05 1.6.42 1 .37.25.16-1.15v-1.59l.29-1.08.15.11-.21 2.1.47 1.05.3-1.84.38 1.68.47-.41.14-.9.63.92.4-.02c.44.5 1.03.85 1.73.85.11 0 .22-.01.33-.03.19.2-.1.56-.37.91-.16.21-.33.42-.4.6-.14.1-.3.15-.48.15-.24 0-.49-.08-.73-.16-.23-.07-.46-.15-.68-.16h-.02l-.42.15c-.5.17-1.02.34-1.37.77l-.01.01c-.31.68-.5 1.2-.56 1.79-.18 1.09.16 1.97.91 2.34l.04.02.01-.04c.05-.15.08-.31.11-.44.09-.46.15-.75.83-.71.3.18.28.49.25.86-.03.35-.06.74.23 1.04.18.38.57.82.8.82.05 0 .09-.02.12-.06.07-.09.07-.3 0-.63-.23-.66.15-.83.59-1.04.16-.07.33-.15.48-.26.24-.25.38-.3.45-.3.05 0 .08.02.12.05.11.13.14.47.08.92v.02l.01.01c.08.11.18.16.3.16.43 0 .98-.72 1.13-1.09.11-.22.14-.53.16-.81.02-.31.05-.6.19-.6.03 0 .06.01.1.03l.01.01h.01c.46-.12.8-.45 1.13-.77.13-.13.26-.26.4-.37l.01-.01c.13-.25.29-.36.51-.36.23 0 .5.13.75.25.21.1.42.2.61.24.24.1.51.17.77.23.6.14 1.17.27 1.43.87a.93.93 0 00-.29-.05c-.26 0-.51.13-.67.34-.17.23-.22.53-.13.84.16.4.49.6 1 .6.28 0 .58-.06.82-.11l.07-.01c.08.03.17.05.27.05.17 0 .35-.05.53-.1.18-.05.36-.1.54-.1.2 0 .36.06.51.19l.01.01h.02c.22-.05.45-.07.67-.09.41-.04.83-.07 1.21-.28.29-.24.4-.64.28-.99a.64.64 0 00-.71-.44c.24-.3.64-.48 1.03-.66.25-.11.5-.22.71-.37.31-.03.6-.2.87-.37.28-.17.54-.32.8-.32.04 0 .07 0 .1.01.47.32.81.77 1.13 1.21.24.32.49.65.79.93l.01.01h.01c.12.01.19.05.24.12.11.15.03.44-.04.75-.06.25-.13.51-.1.73-.09.37-.04.82.13 1.04.07.09.15.13.24.13.16 0 .33-.14.5-.43.15-.27.42-.39.67-.51.34-.15.69-.31.72-.81.05-.13.09-.14.1-.14.06 0 .15.19.23.35.16.33.38.78.74.78h.02c.01.1.01.22.01.35 0 .37 0 .75.14.89.04.04.08.05.13.05.12 0 .26-.1.45-.3.67-.61.89-1.59.6-2.62.02-.13.08-.2.16-.2.14 0 .37.18.54.43.15.22.29.52.21.73v.02c.05.19.14.23.21.23.34 0 .9-.91.99-1.21.1-1.1.1-2.22-.64-2.97l-.01-.01c-.21-.11-.38-.3-.55-.5-.27-.32-.56-.65-1.05-.65h-.07c-.08.05-.17.1-.25.15-.24.15-.49.3-.7.3-.14 0-.33-.06-.45-.56v-.01l-.01-.01c-.16-.14-.24-.27-.22-.36.03-.16.33-.26.61-.36.19-.07.4-.14.52-.23.71-.45 1.21-1.21 1.43-2.17l.06-.03.31.1.44-.27.45-1.64.15.19-.36 1.37v.01l.29.7.25-.43.46-1.23.44-.4-.51 1.29v.58l.16.38.35.42.54-1.25-.09-1.19.27.47-.05 1.07v.01l.29.35.45-.28.52-1.15-.04-.68.12.32.1.51-.1.57.23.68.36-.36-.05-.47.15-.25.05-.69.19.27.05.71-.16.78.41.58.44-.83.1-1.58.24.69-.21.77.17 1.17.83-.94.01-.01.04-1.11.25 1.62v.02l.52.34.43-1.13v-.01l-.13-1.15.25.48v1.44c-.25 5.38-5.08 7.81-11.78 11.18zM127.69 91.9l.21-.12.29-.08.52-.02.14-.12.37.04.89.58.31.21-.43.06-.43.12-.33.1-.31.15-.03.18-.29.15-.25.1-.25.17-.25.14-.14-.14.02-.31-.25-.27.21-.94zm-9.05 19.26l-.03-.58-.3-.69-.07.01-.05 1.19-.02.01-.1-.5-.46-1.49-.07.02.19 1.43v.88l-.1-.02-.19-.31-.41.73-.13-.19-.06.04.04.08-.21.14.05-.2.38-.6.19-.55-.14-1.03.16-1.37.19-.7.32-.8.22-.17-.03-.99-.05-.68-.11-.2-.13-.68.92-.84.24.03.47-.36.67-.37h.63l.32-.26.19.1 1.36.03.17.07.21.34.35.78.11.67-.08.53-.29.96-.55.5-.5-.03-.39-.05-.34-.34-.19-.38-.15-.1v.44l.45.42.5.33.62-.03.04.04-.56.64-.34.23-.33-.08-.34-.23-.44-.79v.59l.27.33.08.38.17.12-.23.27-.32-.17-.34-.42.03-.43-.17-.39-.07.02.05.89.26.76-.1.05-.55-.79.07.71.24.49-.02.15h-.16l-.5-.71-.06.04.58 1.21h.15l.16 1.1.03.47-.16.13.2.14-.06.1-.16.1-.05-.3-.3-.55-.35-.95-.38-.36-.65-1.72-.07.02.24 1.33.49 1.43v.88l-.06.11-.09-.06zm22.17-28.06l-.38.33-.78.29-.61-.36c-.01-.01-.02-.01-.03 0-.01 0-.02.01-.02.03l-.02.09c0 .01 0 .02.01.03l1.34 1.48c.01.01.02.01.03.01h.1l.22.22c.01.01.03.01.05 0l.12-.09c.01-.01.01-.02.01-.03l.02-.38.39-.35.04.52v.01l.16.29v.55l-.42.53-.66.09-.78-.49-.02-.21c0-.01 0-.01-.01-.02l-.74-.85c-.01-.01-.03-.02-.04-.01-.01.01-.02.02-.02.03v.39l.44.9.07.34c0 .01 0 .01.01.02l.16.16.11.26V87.23l.21.48c.01.01.02.02.03.02l.37.05c.02 0 .03-.01.04-.02l.09-.23v-.32l.37-.37.22-.02.06.09-.09.09c-.01.01-.01.01-.01.02l-.05.26v.16c0 .01 0 .02.01.02l.32.43.08.25-.47.71-.3.09-.56-.09-.34-.23c-.01 0-.01-.01-.02-.01h-.16l-.52-.78-.07-.38s0-.01-.01-.01l-.72-1.13c-.01-.01-.02-.02-.04-.02s-.03.02-.03.03l-.02.23c0 .01 0 .02.01.03l.27.34.14.52.14.95v.01l.41.8.02 1.49c0 .01 0 .02.01.02l.14.16c.01.01.02.01.03.01h.18c.01 0 .02 0 .02-.01l.23-.18.01-.01.18-.25c.01-.01.01-.02.01-.02l-.04-.84h.2l.42.24.32.52.11.22v.44l-.13.02c-.01 0-.02.01-.02.01l-.32.34-.52.22h-.9l-.2-.18c-.01-.01-.02-.01-.02-.01h-.17l-.13-.13c-.01-.01-.02-.01-.03-.01h-.23l-.7-.99-.02-1.67.09-.37v-.51c0-.02-.02-.04-.04-.04h-.12c-.02 0-.04.02-.04.04v.5l-.11.32v.01l-.02.46.02 1.27c0 .01 0 .01.01.02l.76 1.22c0 .01.01.01.01.01l.55.27.1.12h-.17c-.01 0-.02 0-.03.01-.01.01-.01.02-.01.03l.02.13-.16-.03c-.02 0-.03 0-.04.02l-.03.06-.08-.03-.21-.14c-.01-.01-.02-.01-.03-.01l-.28.05h-.01l-.18.09h-.45l-.36-.72s0-.01-.01-.01l-.55-.51c-.01-.01-.02-.01-.03-.01h-.39l-.08-.27.07-.52.12-.49v-1.29c0-.02-.02-.04-.04-.04s-.04.02-.04.04l-.09 1.47-.25.82-.08.06c-.01.01-.01.02-.02.03l-.02.95v.01l.16.44s0 .01.01.01l.6.66-.36.04-.31-.13h-.01-.01l-.34.07-.52-.11-.59-.2-.38-.38-.18-.42-.07-.44-.09-.45.09-.37.05-.37c0-.02-.01-.04-.03-.04-.02 0-.04 0-.04.02l-.18.42v.96l-.18-.05v-.25c0-.01 0-.02-.01-.02l-.2-.27-.11-.91-.02-.9.02-.55.12-.62c0-.02-.01-.04-.03-.04l-.09-.02c-.01 0-.02 0-.03.01-.01.01-.01.02-.02.03l-.07.79-.05 1.52-.14.04c-.01 0-.01.01-.02.01l-.36.49h-.8l-.28-.24.6-.64c.01-.01.01-.02.01-.03l-.07-.53-.07-.62-.07-1.06c0-.01-.01-.03-.02-.03s-.03 0-.04.01l-.71.76-.8.57h-.66l-.37-.46-.07-.53.05-.38.4-.53.28-.04c.01 0 .02 0 .02-.01l.09-.09.03.04-.15.44-.16.35v.03l.14.32c.01.01.02.02.03.02l.39.05c.01 0 .03 0 .04-.02l.51-.79.39-.92.3-.46c0-.01.01-.01.01-.02v-.25c0-.01-.01-.03-.02-.03a.03.03 0 00-.04 0l-.27.2-.31.07-.93.02-.53-.33-.09-.26.02-.25.02-.33.53-.35.02.76c0 .01.01.03.02.03.01.01.03 0 .04-.01l.39-.32c.01-.01.01-.02.01-.03v-.15l.49-.65 1.21-1.07h.71l.43.32.01.01.17.04.51.49.02.63c0 .01.01.02.01.03l.59.48-.34.41c-.01.01-.01.02-.01.03l.02.23c0 .01.01.02.02.03l.35.25c.01.01.02.01.03.01l.28-.08.13.81c0 .01.01.02.02.03l.39.23h.01l.21.02c.01 0 .02 0 .03-.01l.78-.91.33-.04c.01 0 .02-.01.03-.02l.21-.46v-.02l-.09-.38-.07-.16.45-.02c.01 0 .01 0 .02-.01.25-.16.4-.64.55-1.15.06-.21.13-.43.2-.62.24-.32.53-.48.83-.48.16 0 .33.04.51.12l.32.09.41.32c.01.01.01.01.02.01h.29l.21.05.32.02c.01 0 .02 0 .03-.01l.51-.41.02.4zm-19.52 8.46l.34-.38.27-.11.34.05.41.54.42.04.47-.33.16-.09.41.06.41.22.44.64.08.63.11.21.8-.06.81-.15.43-.02v.11l.27.37-.02.35-1.35.68-.61.04-.31.29-.78.25-.3-.07.05-.16.04-.34-.04-.22-.25-.13v-.26l.33-.1-.14-.19-.15-.02.03-.36.07-.15.02-.11-.02-.2-.09-.2-.24-.07-.61.25-.09-.1-.31.33-.1.01-.02-.22-.31-.41v-.1l-.63-.11-.41.53h-.26l-.21-.15h-.2l-.19.11-.13-.04-.18.32H120l-.11-.23-.15-.25-.05-.14.07-.28.24-.15.3-.15.21-.04.25.14.13.29.4-.37zm17.51-12.6v.01l.04.35.12.46s0 .01.01.01l.15.21c.01.01.02.02.03.02l.18.01.23.2.01.17-.16.05-.16-.05h-.03l-.58.33s-.01 0-.01.01l-.3.3-.26.37-.16.35-.14.1-.13-.05h-.02l-.15.01c-.01 0-.03.01-.03.02l-.06.16-.14.17-.01.01-.12.44-.26.29-.28.14-.19.15h-.11l-.22-.21-.1-.09-.03-.34c0-.01-.01-.02-.01-.03l-.22-.18c-.01-.01-.01-.01-.02-.01h-.17c-.02 0-.03.01-.04.02-.01.01 0 .03.01.04l.23.18.01.23-.11.09-.03-.01-.06-.12c-.01-.01-.02-.02-.03-.02h-.08c-.02 0-.04.02-.04.04l-.01.25-.26.3-.25-.21-.01-.3c0-.02-.01-.03-.03-.04l-.15-.03c-.01 0-.02 0-.03.01-.01.01-.01.02-.01.03v.2l-.05.01-.02-.02-.03-.29c0-.01-.01-.02-.02-.03l-.04-.02v-.08l.1-.01c.02 0 .03-.02.03-.04v-.13c0-.02-.02-.04-.04-.04h-.17c-.01 0-.03.01-.03.02l-.06.13v.01l-.03.18v.02l.06.13-.05.09-.12.06s-.01 0-.01.01l-.17.16-.11.05-.26.03-.21-.1-.22-.21c-.04-.07-.1-.16-.1-.18-.01-.04-.06-.17-.07-.18l-.06-.15s0-.01-.01-.01l-.11-.12c-.01-.01-.01-.01-.02-.01l-.17-.02c-.02 0-.04.01-.04.03l-.05.2-.04.06-.1.01-.13-.11-.09-.16-.11-.22-.09-.15-.12-.18-.06-.1-.06-.25c0-.01 0-.01-.01-.01l-.14-.18-.1-.16s0-.01-.01-.01l-.16-.13-.17-.13c-.01-.01-.01-.01-.02-.01h-.18l-.11-.09-.18-.17-.14-.19-.08-.09.01-.07.06-.08.13-.08.17.01.17-.04h.01l.17-.09c.01 0 .02-.01.02-.02l.03-.12.03-.19.17-.31.08-.22V79l.01-.15.22-.03.23.03.17.05.19.06h.03l.21-.11.01-.01.18-.22c0-.01.01-.01.01-.02l.06-.39.08-.35.08-.18h.41l.15.1c.01.01.02.01.04 0l.24-.11.28.03h.15c.01 0 .02-.01.03-.02a.82.82 0 01.15-.2c.05-.03.22-.26.29-.34l.28-.07.13.02.21.23.01.01.18.11c.01 0 .01.01.02.01l.15.01.36.24c.03.02.11.09.17.09.01 0 .02 0 .03-.01.03-.01.25-.11.36-.16l.29-.02h.01l.28-.1.09.21c.04.09.16.38.22.42.03.02.14.22.23.4.01.02.03.03.05.02.03-.01.1-.05.14-.06.05 0 .2.04.26.05l.64.03c.01 0 .02 0 .03-.01l.05-.06.04.06-.13.4zm-2.96 4.41c.25 0 .5.13.64.33.09.13.16.33.06.61-.06.11-.2.18-.39.18-.38 0-.79-.27-.85-.79.15-.29.4-.33.54-.33zm-2.26.32c.15-.19.4-.31.65-.31.22 0 .45.1.46.37-.03.7-.41.8-.63.8-.24 0-.48-.12-.59-.24a.705.705 0 01.11-.62zm.66 1.17c.01 0 .01 0 0 0l.35-.12.3-.18.15-.01.34.12.32.14.2.15.09.22v.31l-.23.02c-.01 0-.01 0-.02.01l-.18.11-.11-.13c-.01-.01-.02-.02-.04-.01-.01 0-.02.02-.03.03l-.05.4-.21.09c-.01.01-.02.02-.02.03l-.01.13-.13.13-.11.12-.12-.03-.32-.35-.03-.32c0-.01 0-.02-.01-.02l-.17-.2c-.01-.01-.03-.02-.05-.01l-.15.1-.22-.04-.1-.21.06-.22.25-.25.25-.01zm4.71-3.15l-.19.16-.23.11h-.21l-.1-.07-.02-.16.06-.17.2-.3.19-.03.25-.27.31-.01.41-.35.29.01-.03.16-.14.3-.04.2-.15.2-.05.17-.1.12-.15.01-.11-.11h-.19zm-9.74 1.15l.19-.14.07.08-.05.11.02.19.17.07.16-.02.51-.44.13-.07.3-.3.2-.11-.02-.21-.21-.34-.07-.22-.06-.21-.06-.15-.31-.36-.04-.13-.21-.17-.04-.02v-.04l.38.01.22.33.2.21.2.15.17.03.31.46v.06l.26.23.07.29.03.09-.01.1-.11.07-.15-.02-.12-.08-.34.29-.19.26-.12.03-.34.37-.16.05-.27.19-.39-.01-.25-.31-.05-.12-.02-.2zm19.43 10.44l.03-.33.02-.34-.12-.18-.13-.3.04-.35.12-.12.23-.02.27.07.14.4-.11.49s-.14.29-.19.43c-.05.08-.2.19-.3.25zm-28.18 15.5l1.82-1.61h.11l.4-.36.68-1.28.07-.07.21-.79v-.01l-.04-1.36-.18-.64-.43-.71a.459.459 0 01-.06-.16h.02c.03.01.05 0 .07-.03.01-.02.04-.09-.42-.64l-.63-.66v-.14l-.47-.47-.33-.18h-.25l-.1-.14-.49-.15-.23.23-.15.47v.21l.36.16.15-.1-.12-.2.03-.18.21-.15.24.18-.03.5-.19.23-.5.03-.4-.2-.17-.33-.14-.52.13-.3.19-.16.34.07.58-.14.17-.07.44.07.32.31.35.21.88.99.24.24.46.67.56 1.27.14.87-.07.88-.45 1.26-.53.81-.74.91-1.26 1.05-.18.04-.31.38.5 1.07.78 3.25.64 1.34.92.96.71.4.94.11.82-.21.39-.35-.14-.21-.02-.03v-.01l-.03.02-.02-.02-.23.23-.34-.21.16-.41.59-.1.33.5-.13.5-.48.48-.58.17-.6.07-.7-.03-.94-.21-.73-.87-.56-1.13-.42-.95-.49-1.94-.25-.81-.11-.74-.52-1.01.21-.15zm.97-12.24l-.19-.31-.37-.39-.21-.36-.02-.59.13-.32.3-.24.23-.04.09.06-.02.31.41.43.29.19.31.35.68.34h.01c.04 0 .91.12 1.01.12.1 0 1.01-.13 1.05-.14l.75-.14.81-.21.11.04.3-.32.51-.04.41-.37.31.02.44-.28.8-.45 1.29-.47.14.01-.38.47-.02.4.59.69.56.14h.01l.53-.08.59-.51 1.17-.1 1.04-.1h.94l.46.08.49.29s.12.04.29.04c.1 0 .19-.01.28-.04.19-.05.24-.09.26-.12l.49-.02.29-.31.08-.58-.31-.31.01-.12.35.02 1.03.51.69.14 1.26.59 1.2.45.97.3 1.37.22.87-.1.77-.46.61-.61.55-.76.26-.16.17.03.11.09.35.52.17.62-.02.49-.59.48-.53.34v.4l.12.61.59.77.23.5.02.48-.55.02-.63.08-.68.38-.89.59c-.01.01-.73.79-.9.98-.18.2-.54.94-.56.97l-.4.81-.78.06-.25-.06-.18-.02-.19.23-.08-.16-.38-.16-.49-.39-.82-.18h-.01l-.26.11-.03-.15-.25-.5-.77.04-.1.16-.74-.67-.54.02-.2.26-.26.09-.45.31-.42.1-.36.38-.86-1.76-.93-2.01-.35-.44-.06-.31-.09-.17.08-.26-.24-.33-1.17.19-.26-1 .35-.04-.78-.81-.31 1 .38-.04.16.33.13.39-.02.2-.93.33.02.68.39.22.4 2.66-.17-.01-.23-.25-.31-.07-.14.18-.11.01-.05-.33-.2-.22-.24-.12-.28-.28-.14.02.03-.13-.1-.68-.2-.55-.28-.7-.17-.08-.29-.06-.18-.2-.31-.71v-.01l-.3-.21-.58.08-.43.02-.19.17-.49-.11-.41-.16-.41.21-.46.35-.13-.19-.24.1-.11-.09h-.44l-.59.46-.38.19-.32-.1-.19.12-.23-.12-.18.1-.23-.12-.22.3-.12.44v.01l.1.74.14.73.16.39-.2-.24-.81-.73-.57-.39-.39-.07-.4.04-.25.08-.41.01-.06-.07-.02-.38.08-.36.21-.32.56-.41.54-.34.11-.56zm27.01-3.57v.29l-.28.04-.02-.39.3.06zm-24.77 1.7l-.29-.02-.53-.37.01-.03.33-.06.3-.13.29.02.16.14.05.15-.06.11-.26.19zm-1.08-1.15l.34-.6.17-.17.29-.13.12.03.2.14.05.15-.11.19-.75.71-.26.11-.05-.43zm13.37.27v.01l.1.28-.02.28-.38.14-.32-.04-.41-.02-.45.04-.46.1h-.52l-.39-.02.2-.55v-.01l-.11-.93 2.9.04.06.1-.2.58zm-13.79-1.24v.29l-.53 1.09-.21-.39v-1l.29-.27h.26l.19.28zm24.92.47l.11.41-.05.27-.08.09-.33-.49-.32-.06-.37-.28-.05-.31.19-.15h.3l.22.15.21.19.17.18zm.81-.05l-.18.35-.25.12v-.66l-.21-.21.07-.49h.24l.2.22.15.3-.02.37zm-1.22 1.16v.14l-.27.2-.56.16-.24.11-.17-.02-.12-.15v-.25l.11-.22.1-.1h.42l.24.13h.49zm-10.13-1.98l-.04.13-.19.1h-.25l-.27-.23-.02-.78h.12l.39.43.08.24.18.11zm-5.68-.07l.35-.13.33-.14.36-.16.26-.2.02-.2.2-.26-.13-.25-.1-.11.09-.18.1.01.07.46.12.37.21.27.18.04.1-.03.03.25.16.31.42.52-.52.03-.3-.15-.55-.29-.28-.08-.55-.04-.62.05.05-.09zm17.48-.42l-.04.55.23.42-.04.08-.26-.02-.18-.09-.09-.16v-.16l-.21-.29-.17-.06h-.39l-.12.74h-.13l-.33-.29-.51-.06-.36.32.13.42.5.48h.25l.21.25-.01.15-.65-.14-.3-.14-.23.04-.26-.15-.27-.12-.2-.09-.16.22.41.2v.1l-.15.2-.1.42-.03.22-.43.02-.47-.17-.28-.18h-.25l-.13-.11-.52-.35-.31-.4-.2-.26v-.17l.28-.35.27-.09h1.29l.61-.22.49-.41.58-.12.14-.15.37-.08.97-.5.54.09.54-.02.45.13.13.12-.04.03-.25-.02-.32.17zm-3.65 3.38l.62-.08.28.02.54-.17.38-.04.82-.96.26-.15-.03.34-.53.59-.45.51-.19.02-.25.21-.47-.02-1.12.06-.54-.17-.84-.17-1-.44-.79-.41-.39-.06-.59-.31-.37-.04-.2-.15-.67-.2-.55-.2-.52-.06-.42-.06-.2.12-.2.28-.1.39.15.48.27.04.24-.11.1-.2-.15-.06-.12.08-.14-.06-.08-.23.16-.15.4.02.36.33v.46l-.49.24-.53.13-.58-.17-.36-.49-.09-.33.08-.59.09-.37.51-.38.55-.17.65-.1.74.19 1.53.58 1.02.46 1.14.6.68.31.89.43.5.21zm-3.95-3.23l-.19.41-.37.3-.21.07-.23-.07-.8-.54.05-.09.25-.05h.28l.35-.06.46-.04.31-.21.14.01-.04.27zm-11.52-2.67l.25-.14.53-.08.75-.71h.08l-.03.22-.1.35.1.08-.02.8-.31.32-.47-.6-.24-.02-.37.04-.18-.12.01-.14zm2.55 3.24l.57.23.45.34.15.41.08.67-.26.45-.45.4-.34.21-.27-.02-.32-.2-.3-.26.04-.49.21-.21h.23l.35.06.04.07-.23.19.1.3.42-.24.1-.36-.09-.17-.19-.33-.17-.13-.43-.02-.99.2-.91.33-.88.39-.61.46h-.31l-.23.23-.42.02-.43.29-.57.27-.71.02-.37.14-.73.08h-.8l-.38-.21-.3-.11-.38-.25-.51-.48-.05-.3.1-.13h.34l.1.07.4.48.3.17.29.12.45.06.18.1.98-.08.69-.43.28-.04.59-.35.85-.39.44-.19.55-.22.63-.42.29-.02.64-.43.23-.08.59-.15.97-.05zm-11.49.51l.17-.14.23-.05.15.07.24.43-.02.77-.06.05-.34-.28-.19-.27-.19-.32v-.26zm28.16 7.37l.27.03.24.2.17-.38-.16-.43-1.03.04-1 .71-1.09.92-.68 1.14-.32 1.53v.01l.18 1.56.57 1.11 1.09 1.31.85.54.82.61h.31l.07.1-.33.3-.43.9-1.2 4.23-.42 1.01-1.01.73-1.09.53-.94.07-.62-.17-.63-.31-.34-.52-.17-.38.03-.54.37-.27.34-.07.26.03.19.26-.1.38-.22.03h-.21v-.33l-.36.09.04.56.15.37.55.4 1.11.04h.01l1.28-.5 1.14-.99.36-.76.42-1.73.67-2.15.47-1.05-.27-.19-1.51-1.02-.77-.98-.88-1.86-.04-1.71.21-.98.67-1.09.53-.77.77-.81.73-.42.59-.07.8-.07.44.4.07.58-.16.39-.6.07-.32-.16.13-.47zm-.89 21.58l.05-.66.23-.49.18-.04.14.12.15.26v.58l-.05.43-.35.59-.19.28-.04-.2v-.49l-.12-.38zm-4.99.8l.26.1.2.15.05.32-.34.44-.57.4-.04-.29-.03-.74.25-.35.22-.03zm-20.4-.43l.35-.02.38.23.15.42-.22.2-.14.22-.09.37.05.57.02.4-.38-.48-.37-.59-.03-.58.13-.5.15-.24zm-1.94-1.7l.3.1.26.6.03.28-.1.36-.12.07-.18.24v.76l-.21-.12-.29-.37-.16-.39.05-1.01.13-.41.29-.11zm.59-1.59l-.13.33-.37.28c-.04-.33.13-.53.5-.61zm14.59 2.81l-.01.02.3.53.41.08v-.23l-.1-.14.07-.36.18-.18.38.22.1.49-.37.37-.4.07-.65-.31-.2-.34-.03-.47.27-.44.56-.56.87-.49 1.27-.53 1.87-.92 1.33-1.43v-.59l-.3-.38-.48.05.36.23.03.24-.28.13-.38-.06v-.38l.23-.5.67-.03.3.37.21.72-.21.76-.8.66-1.12.77-1.24.53-1.84.89-.53.39-.47.82zm-1.27.65l-.72.2-.13.17-.24-.16.2-.44-.02-.48-.1-.35c0 .01.01.01.01.02.02.03.05.04.09.03.05-.01.11-.01.17-.02.12-.02.24-.03.3-.03.08 0 .33.05.36.05l.16.13-.09.14-.73.02h-.04l.14.11h.55l-.58.39.75-.02.55.22v.12l-.52.12-.11-.22zm-1.02-1.11l-.23-.52-.18-.48.44.13.23.09.45.06-.36.22.42.09c-.14.02-.39.04-.43.04-.07 0-.3.14-.32.16h-.01v.01c-.01.02-.03.12-.01.2zm.1.68l.01.18-.02.05.01-.23zm-.18.67l.04.02-.04-.02zm1.76-.12h.01v-.16l-.57-.23-.65.02.58-.38h-.64l-.07-.06.7-.02h.01l.12-.18-.19-.15c-.01 0-.28-.05-.37-.05-.06 0-.18.02-.3.03-.06.01-.12.02-.17.02-.03 0-.05 0-.07-.02-.05-.06-.03-.19-.02-.22.07-.05.25-.15.3-.15.07 0 .51-.05.53-.05v-.03l-.44-.1.37-.23-.53-.07-.23-.09-.5-.15.1.26-.03-.06-.33-.36-.58-.36-1.04-.31.31-.25.53-.26.41-.39-.04-.06-.87.42-.8.24-.43-.07-.01.04-.36-.13-.86-.42-.31-.48-.1-.5.21.21-.16-.66.15.19.18.03.5.62.41.08.1.05h.16l.02-.04.35.18.42.12h.61l.01-.07-.52-.12-.65-.3-.67-.37-.36-.49-.05-.24-.19-.02.02-.1.13-.15.16.02.05.16.22-.08.32.24.56.05.4.05.02-.07-.35-.2-.54-.29-.56-.51-.17-.02-.54-.83-.3-.82-.25-.87v-1.01l.32-.81.47-.74.25-.23.22.07.58-.43.39-.12.51.02.96.29.28.35.27.02.05.14-.16.05.22.3-.08.18.18.23-.02.3-.33.39.23.38-.03.13.28.31.05.08-.06.02.09.51.36.63.23.3.06-.04-.17-.36.02.03.3.29.35.11.04-.06-.61-.57-.44-.56-.01.01-.12-.25.17.26.45.08 1 .02.72-.07.5-.03-.18-.21.24-.06.37-.07.69-.53.01-.01c.01-.01.52-.9.62-1.02.1-.12.28-.5.3-.55l.84-.86.32-.12.74-.37h.75l.2.22.32.05.28.35.14.99-.45.3h-.38l-.3-.19-.03.06v.01l-.05.1-.3-.07-.02.07.49.23-.02-.19.23.15.01.01c.01 0 .18.03.33.03.04 0 .08 0 .11-.01.16-.03.46-.33.49-.36l.01-.01.1-.68.64-1.11.46-.27.16-.03.45-.5.84-.44.39-.15.63.12.45.22.09.38.07 1.07v.02l.33.25.09-.05-.07.06h-.01v.15l.06.1.1.1v.34l-.09.44-.26.51h-.21l-.06.09.15.02-.01.09-.36.2-.44.12-.36.12-.39-.12-.18-.22.02-.57-.05-.15-.13.25v.53l.09.24.14.23.39.09.56-.07.62-.26.53-.56.25-.46v-.44l-.02-.02-.03-.62v-.01l-.16-.23.09-.04.23-.28.53-.19.36.04-.02.46-.17.92-.27.97-.45 1.54-.42 1.09-1.04.79-.81.52h-1.3l-.34-.32.45-.11.18-.31.06-.56-.48-.34-.46.03-.62.35-.24.31-.12.33h-.2l-.51-.03-.38.26-.29.36-.08.54.13.4.3.19.51-.03h.01l.12-.1-.39.43-.57.59-.74.5-.5.15-.83.3-.59.27-.67.02h-.01l-.71.63-.47.37-.33.46-.16.8v.59l.37.49-.03.1-.18-.02-.13-.1h-.54l-.01-.01.51-.09zm-2.77-.33l-.2.04v.28l.48-.04.34-.56-.36-.86-.71-.72-.01-.01-.96-.14-1.51-.56-1.41-.91-.56-.73-.35-1.08.14-.65.23-.27.45-.31.3-.03.26.07.2.37v.33l-.22.29-.31-.06-.12-.25.1-.17.08-.25-.27-.09-.41.3-.18.7.39 1.03.68.72.74.53 1.03.39 1.58.56.63.31.59.83.14.66-.03.44-.34.37-.33.13-.44-.1-.3-.3.03-.6.32-.26.39.23.09.18-.17.19zm.4-26.64l.6.6-.84.14.24-.74zm11.52 17.01l.42.13.37-.12.44-.12.37-.21h.01l.02-.15-.13-.02.01-.02h.21l.27-.54.09-.45v-.36l-.11-.11-.05-.08v-.11l.12-.1.14.21.04.62v.01l.02.02v.41l-.24.45-.52.56-.61.26-.55.07-.37-.08-.13-.22-.09-.22v-.52l.08-.17.02.06-.02.57v.01l.19.22zm-13.7 6.63l.07.01.82-.25.66-.32-.23.22-.53.26-.32.25-.47-.17zm-6.98-21.3l.12-.09.15.38-.06-.01-.11.85.01.01-.01.04.09.19.13.34.03.8h.03l-.05.21-.17-.03-.23-.34-.25-.84-.1-.76.04-.61.15-.22.23.08zm2.29-.45l.25-.17.12.16h.18l.26-.24.55-.3.48.25.13-.08.21.13.27-.16.95-.12.28.29c.02.06.08.21.08.25 0 .06.17.44.19.48v.01l.42.1.39.55.04.28.21.47.03 1.03.16-.15.1.03.22.29h.17l.21.14.03.3v.01l.26.3.2-.33.18-.03.34.31.24.05.31 2.17-.36.31-.01.01-.06 1.26-.15-.02-.26-.34-.84-1.19-.64-1.2-.47-.7-1.32-2.09-.01-.01-.59.01-.15-.05-.32-1.32-.18-.21-.24.01h-.01l-.13.11v.34l.1.88.08.24-.52.15-.01.3.14.12.02.87.12 2.74.12 2.15.11 1.69.11 2.07-.07.15-.13-.05-.13-.26h-.01s-.17-.08-.21-.16c-.05-.09-.15-.15-.15-.15l-.13-.01-.36.05h-.01l-.27.24-.19.01-.06-.87h.04l.06-1.85.18-.27.33.84.06.42.07-.01-.08-1.56h-.03v-1.23l-.03-.69.11-.43-.17-.31-.05-.4-.11-2.6V100l-.02-.12-.04-1.02.01-.58h-.07l-.03 1.32.08.41v.73l.03 1.11v.65l-.57-.7-.06.05.66.83.11.8.04.07.03.61-.01.04.03.7v1.79l-.57-1.38-.07.01.05 3.05h-.01l.01.97-.1.14-.19-.01-.28-.23-.34-.44-.06-.3h-.04v.25l-.4.04-.19-.21-.23-.02-.02-.86-.07-.08-.02-.89.31-.59-.01-.13.3-.45.23-.28v-.01l-.03-1.27-.06-.71h.04v-1.84l-.17-.34.05-1.1V100l-.2-.25V98.7h-.07v1.07l.19.25-.05 1.11.17.33v1.72l-.6-1.34-.05-.82v-.01l-.16-.16-.1-.44-.03-.89-.14-.28-.08-.21.1-.82.01.04.05-.22.22-.19.38.13 1.05-.76.14.08.2.15zm8.67 0l-2.25.71-.02-.49 2.28-.37v.15zm11.92 11.47v-.36l.11.05.07.19.3.29.02.08-.37-.06-.03-.14-.1-.05zm-9.64-5.3l-.17.04v-.33h.13l.04.29zm2.86-.7v-.31l.24-.15.04.33-.28.13zm.42 2.59l.03.19 1.09-.19-.03-.19-1.09.19.03-1.9h.32l.69 1.52.63 1.14.51.59.2.28-2.38.64v-.04l-.03-1.11.03-1.12zm1.24-3h.58l.41.19.37.37.42.24h.37v-.17h.27l.07.1.36.05h.01l.22-.07.06.18-.05.28-.08.23.1.96.45 1.62.79 1.28-.21-.1-.74-.1-.23.1-.31-.03-.35.33-.17.02-.13.11-.25-.34-1.05-1.4-.27-.3-1.42-3.06-.05-.73-.22-.22-.08-.02v-.07l.22-.09h.34l.19.52v.22l.38-.1zm-1.24 5.31l.04.17 2.39-.64-.05-.2.18.25.71 1.08-.84.73-.58.33-.14.46-.28.24-.22-.32-.61-.36-.74-.16.14-1.58zm-14.39 7.11c-.01.05-.09.3-.09.36a1 1 0 00.05.23v.01l.24.23-.16.11-.64.01-.58-.2-.37-.26-.6-.6-.26-.36-.3-.58-.16-.65-.18-.68-.22-.63-.13-.5-.13-.35-.01-.38-.03-.46.05-.08.09.28.23.57.31.37V111l-.07-.13v-.32l-.16-.22.03-.67.21-.41.3-.36.25-.17.89.07.73.23.25.46.29.01.17.11.5.11.23-.13.36-.23.3.03.19.15.24.41.29.79.01 3.07v.02l.1.1c0 .06 0 .28.02.33.01.06.08.11.12.13l-.01.71c-.04 0-.12.01-.15.01-.06 0-.11.06-.13.1l-.27-.14-.37-.41-.29-.21-.83.15-.29.3-.02.03zm7.65-10.3l.02-.53.29-.07.05.51-.36.09zm3.11-2.02l-1.52-3.67 1.89 3.71-.37-.04zm-.04 1.12l-.25.06v-.35l.19-.08.06.37zm-.87.24v-.38l.26-.04.05.42h-.31zm.32-1.12l-1.3-3.91 1.66 3.86-.36.05zm-.57.21l-1.03-3.75 1.28 3.66-.25.09zm2.35.31l-.21.04-.02-.24.21-.08.02.28zm1.68-.71l.08.06.02.31h-.17l.07-.37zm.21-.58l-.22-.03-.43.28-.31.19-.26-.05-.27-.08-.15.13h-.22l-.17.1-.34-.02-.05-.11.22-.25.46-.1.39-.3.47-.3.47-.12.6.51-.19.15zm-1.42.88l-.05.34h-.1v-.34h.15zm.47.23l-.14-.02v-.29h.1l.04.31zm.45-.35v.29l-.15-.02v-.33l.15.06zm-9.97 7.06l.16.07v.1h-.41l-.06-.15.31-.02zm-1.43-8.38l-.04-.04.02-.02.06.04-.04.02zm3.03.88v-.07h.07l.02.07h-.09zm.12.3l.01-.09.07.01.01.08h-.09zm.38.7l.02-.21.09-.01.05.08-.04.11-.12.03zm-1.29-2.23l.02-.02h.03c.02.02.04.05.08.06.02 0 .04.01.06.01l.06.11-.25-.16zm.39.48l-.12-.11v-.16l.08.07.05.14.02.07-.03-.01zm.26.48l.01-.07h.09v.06l-.1.01zm.54.88h-.04l-.04-.06.05-.05h.04l.04.05-.05.06zm.05 1.11l.08-.1.1.02.08.15-.09.11-.13-.04-.04-.14zm.27.28l.03-.02.15.07.09.16v.2c-.02.01-.07.03-.12.04l-.13-.13-.07-.19.05-.13zm.3.62l.03-.06.06-.02.09.09c.04.11.09.25.09.26 0 .01-.04.05-.09.08-.04-.05-.14-.14-.18-.17a.499.499 0 010-.18zm-.85-1.75c.03 0 .06-.01.09-.01l.03.03.01.11-.04.08-.07.01-.02-.22zm.25.58l-.1-.08v-.07l.07-.06.05-.01.05.07.02.11-.09.04zm-.32-.68l-.04.01-.07-.12.05-.07.1.1-.04.08zm1.35 2.26l.24.34-.18.25-.19-.18-.01-.22.14-.19zm.14-.34c-.01.01-.06.04-.12.06l-.12-.15c-.03-.11-.05-.23-.05-.25 0-.02.04-.08.07-.14l.11.04.17.22c-.01.06-.05.18-.06.22zm-.38-.53l-.12-.06a.338.338 0 01-.03-.15l.03-.09.12-.02.09.19-.09.13zm-.33-.44l-.04-.1.06-.14h.03l.12.07v.14a.45.45 0 01-.09.06l-.08-.03zm-1.18-1.89l-.09.01-.01-.07h.1v.06zm-.02.17c.02 0 .03 0 .06-.01.02 0 .05-.01.06-.01.01.01 0 .06-.01.1h-.1l-.01-.08zm.15.37l.03-.09h.04l.03.06-.02.05-.08-.02zm-.13-.84v-.09l.09.01c.01.03.02.07.03.09-.03 0-.09-.01-.12-.01zm-.16-.08l.04.03-.01.08h-.13l-.01-.11h.11zm-.28-.4s.03 0 .05.01c.01.01 0 .04 0 .07v.02l.11.16h-.06l-.22-.35.03-.03.07.12h.02zm2.68 4.06l-.17.11-.18-.28.18-.26c.05.04.14.12.16.15.02.02.02.15.01.28zm-1.17-1.76l-.06-.12.03-.07.08.05.02.1-.07.04zm-2.69 5.25l.16-.05.19.13-.11.09-.28-.07.04-.1zm.21-.59v.29l-.29-.07v-.2l.16-.07.13.05zm-1.04-1.38h.27l.06.2h-.35l.02-.2zm-.07-1.18l.04-.26.21.02v.14l-.25.1zm.29.75l-.22.26-.08-.2.16-.27.14.21zm-.36-2.71h.06l.09.06-.08.11-.1-.05.03-.12zm-.09-.85h.08l.05.1-.06.03-.09-.07.02-.06zm-.07-1.33h.09c0 .02 0 .04-.01.06l-.06.05-.06-.07.04-.04zm.08.27l.01.06-.1.01v-.06h.03l.06-.01zm.91 5.93l.17-.12.16.04-.14.3h-.31l.12-.22zm.22-.36l-.27.04-.02-.16.19-.09.1.21zm-.21-2.06l-.02.15h-.31l.04-.17.29.02zm-.74-.9l.12.07c-.01.04-.03.12-.03.15-.01.01-.04.03-.08.05l-.11-.1.06-.16.04-.01zm.43.3l.2.09-.01.23-.15.04-.12-.21.08-.15zm-.06-.96c-.02 0-.06-.02-.1-.04l.02-.11h.03l.11.07c-.03.03-.05.07-.06.08zm.09.33c0 .02-.02.07-.07.07-.04 0-.08-.04-.11-.06l.02-.14.13-.01c.02.06.03.12.03.14zm-.11.24l.09-.01c.06.03.11.07.11.08 0 .04 0 .12-.01.17l-.15-.01-.08-.05.04-.18zm-.09-1.39l-.11-.05.06-.09.13.08-.08.06zm.12.37l-.2-.03.03-.13c.05.01.13.02.17.02.01.02 0 .07 0 .14zm-.27-.96l.1-.02.05.06-.01.04-.12.06-.06-.08.04-.06zm-.03-.4l.04.01.07.08-.09.05-.08-.08.06-.06zm-.04-.22v-.07h.08v.06l-.08.01zm-.25 1.52h.06c.02 0 .07.01.11.02l.06.15c-.05.01-.13.04-.16.05-.02-.01-.06-.04-.1-.07l.03-.15zm.31.88c0 .01-.03.05-.06.08l-.12-.03.01-.16.11-.02c.02.06.06.12.06.13zm-.13.77l.09-.04.04.11-.11.15-.11-.05.09-.17zm.72.9v.18h-.19l.04-.18h.15zm-.1.41l.13-.07.1.06v.22h-.28l.05-.21zm.31.77h-.33v-.26h.27l.06.26zm-1.12-4.87l.07.01.04.09-.06.07-.1-.06.05-.11zm.1.43l-.06.05-.05-.07.04-.06.07.08zm.07 3.34h.14l.07.15h-.23l.02-.15zm.45 3.93l.21-.05.02.14-.12.22-.2.02-.05-.27.14-.06zm.15-.36v.07l-.32.07-.13-.06.04-.11.41.03zm-.4-.45l.29-.05.1.08-.08.12-.31-.02v-.13zm.03-.62l.14-.07.17.02-.02.14-.17.12-.17-.02.05-.19zm.93.82l.15.13-.13.18h-.28l-.02-.19.28-.12zm.16-1.5l-.16-1.21-.46-2.69-.08-.71-.16-.83-.07-.57-.07-.47-.03-.35.09.29.32 1.43.36.99.14.66v.38l.25.55.51 2.15.36 1.19.18.86.03.3-.36.12-.19.09-.21.11-.26-.33-.09-.36-.04-.82-.06-.78zm.64-3.28l-.39-1.35-.23-1.03-.24-.93-.29-1.07.05-.04.29.39.75 1.29.46.96.34.59.19.48 1.21 2.45.16.35.02.6-.08.41-.11.5-.24.75-.2.96h-.04l-.28-.55-.12-.51-.59-1.92-.22-.81-.22-.57-.22-.95zm-1.5 3.6l-.31.13.02-.29h.27l.02.16zm-.18-.66l.1.13-.26.04-.02-.22.18.05zm.51 3.09l-.09.2h-.31l-.02-.06.27-.27.15.13zm3.61-2.64l.11-.34.01.04.01.07 1.15-.17 6.35-1.67-.01.7-.1 1.41-.01-.06-.02-.07-3.79.86-3.55.81-.22-.03-.22-.03-.02.15.46.06 7.36-1.67-.03.45-.11.95-.76.21-.56.44-.7.73-.28.5-.02-.08-4.3.97-.05-.34-.11-.73-.25-.48-.38-.46-.42-.29.46-1.93zm.75 4.3zm4.27-.89l-.25.45-.64.78-1.18.48-1.07.03-.82-.24-.29-.44-.01-.1 4.26-.96zm1.92-7.9l.58-.05-.05.77v.01l.16.3-.02 1.38-.01-.06-.02-.07-4.1 1.08-2.24.59-.41.06-.72.11.02-.07v-.57l.08-.75.4-.66.4-.37.69-.32 1.25-.33 1.24-.4 1.3-.3 1.45-.35zm-5.21.87v-.43l.12-.02v.45h-.12zm.45-.06v-.47l.18-.02.02.43-.2.06zm.59-.59l.23-.06-.02.41h-.18l-.03-.35zm-.4-.55l-.83-3.77 1.13 3.66-.3.11zm-.46.14l-.59-3.5.79 3.44-.2.06zm-1.26-4.56l.98 4.26-.02.47h-.23l-.59-3.24-.16-1.18.02-.31zm4.17 4.73v-.26l.09-.02v.28h-.09zm-3.79 10.49l.14.18.49.47-.17-.05-.29-.27-.17-.33zm-.34-.43l.4.85-.36-.62-.04-.23zm9.78 8.38l-.15-.33-.19-.11-.46-.64-.5-.61-.13.03-.18-.33-.48-.38.02-.42.49-.41.19.05 1.44-1.49.74.16h.01l.62-.05.38.18.26.64v.01l.17.11.62.6.22.1.26-.23.13-.05.43-.37.46.2.57.43.54.48.26.5.07.34-.3-.09-.29.03-.23.31-.22.7-.04.49-.24-.34-.47-.91-.28-.06-.37-.18-.41-.38-.5-.28.31.55.28.28.54.35.34.47.05.6-.15.02.02-.08-.29-.29-.22-.1-.24.15-.41 1.07v.01l.03.43-.01.11-.13-.23-.35-.35-.18-.61-.15.12-.16-.23-.08-.86h-.07l-.08.66.05.24-.03.85-.23.34-.23.13v-.13l-.11-.5-.28-.17-.46-.03-.35.05-.06-.17.21-.38zm3.27 1.54l-.13-.34v-.66l.27-.37.15.09.21.19.18.28.03.63-.24.47-.59.83.12-1.12zm-25.55-3.6l.6-.32.27-.46.47-.4.39-.08.58.08.29.16.59.03.35-.03.46-.23.36-.66.48-.7.55-.29.65-.05.17.3.16.51.27.3-.03.17.39.33.38.59.6.49-.42.38-1.08.81-.33.1-.51-.3.06.72.15.24-.4-.09-.59.06-.37.31-.06.23-.28-.45-.08-.08-.18.13.11.07.03.5-.13.11-.03.16-.57.37-.15-.37-.22-.47-.4-.2-.42.06-.39.22.1-.27.27-.43.51-.43.51-.32.41-.16.15-.08-.19-.19-.78.22-.55.36-.57.41-.44.63-.15.11v-.39l-.24-.63-.08-.41-.26-.33h-.32l-.32.06.23-.4zm4.77 2.99v-.49l.11-.14v-.23l.43-.23.22.05.25.1v.69l-.44.5-.45.33.02-.42-.14-.16zm26.87-11.4l.18-.67v-.01l-.12-.53-.23-.66-.25-.67-.07.01-.12 1.44-.22.74-.55.74-.31.33h-.23l-.05-.19.09-.11.38-.7.06-.66-.15-.77-.18-.6h-.07l-.1.62-.2.04-.01.02c-.07.21-.21.63-.25.7-.01.02-.05.03-.08.03-.05 0-.11-.02-.11-.02l-.03-.01-.35.45-.28.12-.19.24h-.07l.02-.11.26-.45.09-.39.14-.24.06-.31.26-.66v-.26l-.16-.03-.17-.18-.19-.18-.2-.14.08-.2h-.2l-.44.11-.4-.19-.23-.36-.17-.25.09-.07h.53l.25-.25-.84-.02-.4-.16-.22-.22-.09-.2c.01-.02.02-.06.06-.06.06 0 .31.11.45.19l.04-.06-.4-.34-.07-.51-.17-.13-.24.65-.14-.29-.15-.04-.27-.42-.09-1.32.06-.39.13-.52.07-.4.2-.38.29-.27.24-.01.52.06.54.01.42.16.67.31.35-.05.68.07.36.29.64.18.53.16.33.28.27.5.07.53c-.01.04-.06.25-.1.37-.04.13-.09.63-.09.65v.04h.09l-.01.58.16.55.25.36.11.03.42.28.18-.04.32-.43.07.16.01.51-.1.15-.03.32.07.78-.12 1.01-.13.52-.48.71-.61.68-.21.15.25-.7zM140.68 92.4l.34-.36.16-.39.13-.2.27.35.23.06.31.37v.19l-.58.75-.72-.11-.25-.2-.01-.16h.15l-.03-.3zm-11.05-2.59h.26l.18.18.19.3.04.26.28.28.34.14h.42l.6.02.08.14-.14.23-.43.28-.7.31-.3.13-.43-.09-.76-.57-.22-.47.04-.54.17-.33.38-.27zm26.32 24.1l-.28-.54-.07.02.15 1.33-.39 1.03-.41-.27-.31-1.99h-.07l-.05 1.48-.71.81-.14-1 .2-.77V114l-.31-.89-.07.01-.1 1.74-.38.71-.32-.45.15-.76-.05-.74-.32-.45-.06.87-.16.26.05.46-.25.25-.18-.55.1-.56-.11-.53-.21-.57-.07.01.05.92-.51 1.12-.38.23-.23-.27.05-1.07v-.01l-.37-.63-.07.02.1 1.33-.49 1.12-.27-.31-.15-.35v-.55l.56-1.44-.06-.04-.57.52-.47 1.25-.17.29-.22-.54.36-1.38V113l-.26-.33-.48 1.76-.39.24-.31-.1-.03.02.03-.14c.32-.92.57-1.78.76-2.63.67-.25 1.28-.74 1.63-1.12l.01-.01c.17-.31.24-.39.26-.4.05.17-.34 1.52-.56 1.99l-.02.03.03.02c.11.05.23.07.36.07.5 0 1.04-.38 1.25-.9.15-.17.25-.53.33-.81.04-.15.1-.34.13-.38.02.02.05.11.11.45.03.16-.07.46-.16.75-.11.35-.21.65-.12.77.05.07.14.08.26.03.58-.19 1.15-.74 1.52-1.48.29-.9.52-1.84.2-2.61.23-.18.24-.57.15-.87-.07-.23-.23-.48-.46-.48-.13 0-.25.08-.37.24-.49-.11-.52-.68-.55-1.18-.01-.19-.02-.37-.06-.52.32-.47.34-1.2.04-1.78-.24-.47-.65-.74-1.12-.74h-.03c-.5-.28-.91-.44-1.39-.62-.09-.03-.19-.07-.28-.11h-.02c-.1.03-.21.05-.32.05-.28 0-.53-.1-.79-.21-.26-.11-.54-.22-.84-.22-.06 0-.13.01-.19.02-.23.01-.38-.03-.43-.12-.04-.07-.02-.16.04-.27.13-.22.45-.47.71-.47.09 0 .16.03.22.08.33.42.86.7 1.34.7.28 0 .68-.09.96-.52l.01-.01-.01-.13c-.02-.64-.05-1.45-.6-1.93-.1-.64-.28-1.36-.8-1.96-.4-.58-.04-.84.37-1.15.19-.14.38-.28.5-.46l.01-.01c.13-.58-.1-1.28-.69-2.1.53-.54.88-1.36.42-1.92a.33.33 0 00-.05-.29c-.2-.28-.87-.36-1.23-.36-.1 0-.18 0-.24.01-.45-.03-.86.18-1.26.37-.34.17-.69.35-1.06.37h-.01l-.01.01c-.58.47-1.21.72-1.82.72-.19 0-.39-.02-.58-.07-.55-.14-1-.7-1.33-1.11-.04-.05-.08-.1-.12-.14l-.02-.02-.03.01c-.11.06-.19.09-.25.09-.14 0-.15-.16-.17-.45-.02-.32-.04-.72-.36-.92-.18-.25-.46-.4-.72-.4a.49.49 0 00-.41.19c-.08.11-.14.31-.02.66-.11.14-.16.15-.18.15 0 0-.01 0-.01-.01-.05-.05-.04-.29-.04-.52.01-.38.02-.81-.15-.99-.05-.12-.1-.23-.13-.31.14.15.3.27.45.35.24.16.52.25.81.25.63 0 1.13-.4 1.25-.98v-.02l-.01-.01c-.13-.2-.16-.47-.18-.74-.04-.4-.08-.82-.54-.82h-.09c-.28.04-.44.35-.56.58-.06.11-.13.24-.17.24-.02 0-.09-.04-.2-.44-.06-.4-.22-.77-.41-1.11.31.34.74.67 1.27.67.2 0 .4-.05.59-.15.52-.34.72-1.19.41-1.72 0-.33-.03-.52-.1-.6a.128.128 0 00-.1-.04c-.11 0-.24.12-.38.25-.17.15-.35.32-.52.32-.14 0-.25-.13-.33-.39l-.01-.02-.02-.01c-.12-.04-.19-.08-.2-.14-.03-.15.31-.41.61-.64.38-.29.74-.57.69-.8-.02-.11-.13-.2-.34-.26l-.03-.01-.02.02c-.15.2-.37.32-.62.32-.38 0-.72-.25-.78-.59.35-.21.71-.8.79-1.3.04-.26 0-.46-.11-.58l-.01-.01c-.77-.43-1.05-1.07-.88-1.95v-.02l-.01-.01c-.15-.16-.35-.18-.52-.18-.1 0-.2.01-.3.02-.1.01-.19.02-.29.02-.32 0-.54-.09-.57-.56-.01-.32-.11-.47-.31-.47-.13 0-.28.06-.44.13-.17.07-.35.15-.52.15a.37.37 0 01-.23-.07l-.07-.04c-.35-.21-.72-.42-1.06-.69l-.02-.02-.02.02c-.49.45-.98.85-1.59.85-.12 0-.25-.02-.38-.05h-.02c-.26.11-.3.42-.34.73-.04.33-.08.61-.37.61-.06 0-.13-.01-.21-.03-.16-.13-.3-.19-.41-.19-.26 0-.36.31-.46.64-.09.3-.19.61-.4.72l-.09.03c-.38.12-.9.28-.96.58-.03.16.07.33.29.51.3.3.61.75.55 1.13-.03.2-.16.37-.39.49l-.01.01-.01.01c-.08.16-.16.23-.22.23-.07 0-.14-.08-.21-.16-.09-.11-.2-.23-.35-.23-.13 0-.28.11-.43.33l-.01.01c-.11.5.25.7.54.87.17.09.31.18.33.29.01.09-.05.2-.19.33l-.01.01v.01c-.01.04-.02.06-.03.06-.03 0-.1-.08-.16-.15-.11-.13-.26-.29-.42-.29-.17 0-.31.17-.44.51-.23.33-.31.72-.21 1.03.08.25.27.43.54.51.22.13.52.14.78.15.24.01.47.02.52.12.04.09-.03.25-.21.5l-.01.01v.01c0 .38-.43.93-.58.93-.01 0-.02 0-.02-.01-.01-.02-.05-.1.06-.44.26-.3.25-.5.2-.61-.06-.12-.2-.2-.38-.2-.23 0-.47.11-.62.3-.37.26-.56.67-.52 1.15.05.55.4 1.06.87 1.28.04.08.08.15.11.22.2.37.29.54-.25 1.07l-.01.01v.02c.06.43.01.72-.15.91-.14.17-.38.24-.72.23h-.02l-.01.01c-.12.11-.23.24-.33.37-.31.36-.62.74-1.19.74-.06 0-.12 0-.18-.01h-.02c-.17.07-.33.11-.46.11-.48 0-.64-.47-.76-1.01-.18-.43-.7-.77-1.18-.77a.82.82 0 00-.74.41c-.12-.06-.25-.15-.39-.26-.25-.18-.5-.37-.76-.37-.22 0-.41.14-.56.43-.1.14-.23.21-.4.21-.11 0-.23-.03-.35-.05-.12-.03-.25-.06-.38-.06-.24 0-.43.12-.57.36-.41.45-.09.88.19 1.25.13.17.25.33.29.47v.01l.01.01c.57.46.47.75.32 1.24-.05.15-.1.31-.14.5-.15.38.12.69.36.97.24.27.44.51.26.77-.08.06-.16.12-.25.18-.54.4-1.21.89-1.04 1.64a.93.93 0 00-.53.48c-.23.5-.02 1.16.08 1.42.17.39.61.64 1.1.64.33 0 .63-.12.81-.32.15-.16.22-.38.22-.62.35 0 .76.64 1.07 1.11.06.1.12.18.17.26-.09.08-.24.11-.48.11-.12 0-.24-.01-.38-.02s-.28-.02-.42-.02c-.28 0-.48.04-.64.11-.43-.04-.83.2-1.21.43-.31.19-.63.38-.96.43l-.03.02c-.54.32-1.29.76-1.1 1.57.03.16.08.33.12.49.12.49.25.99.18 1.5-.35.59-.68 1.24-.65 1.98-.13.42-.09.88-.06 1.32.05.7.1 1.36-.44 1.88l-.01.02c-.1.31-.05.48.01.56.06.08.14.12.25.12.19 0 .41-.14.54-.34.15.05.3 0 .42-.14.14-.16.23-.42.25-.62.09.12.17.18.26.18.06 0 .11-.02.15-.04.04-.02.08-.03.12-.03.05 0 .12.02.23.23l.01.03.03-.01c.46-.15.28-.99.2-1.39 0-.02-.01-.03-.01-.05.01.02.02.04.04.07.11.16.21.4.3.63.18.44.36.89.68.94h.02c.27-.11.34-.6.39-.93.01-.09.03-.19.04-.23.03.05.07.18.15.51.12.39.22.8.33 1.19.24.93.49 1.89.96 2.74.13.39.35.79.63 1.12l-.3.02-.71-1.04-.17 1.06-.36.31-.4-1.74h-.07l-.29 1.78-.36-.8.21-2.1v-.02l-.27-.2-.32 1.19v1.6l-.15 1.02-.25-.17-.41-.96-.05-1.58.15-1.13-.07-.02-.41 1.34v1.66l-.04.68-.45-.99-.26-.93-.52-1.08-.07.02.31 1.38v.64l-.81-.71-.46-2.15-.07.01-.1 1.6v.01l.2.76-.21.25-.49-.88-.31-1.23-.36-1.19-.07.01v1.92l.25 1.01-.18.22-.37-.18-.15-1.11-.1-1.65-.07-.01-.41 1.13-.11 1.19-.15.92-.25.6h-.02V76.34h43.06l.04 37.57z"/><g><path fill="#00247D" d="M96 20H32c-6.6 0-12 5.4-12 12v64h76V20z"/><path fill="#FFF" d="M96 20H79L32.7 43.15V20H32c-6.6 0-12 5.4-12 12v64h12.7V72.85L79 96h17v-8.5L62.4 70.7H96V45.3H62.4L96 28.5V20z"/><path fill="#CC142B" d="M45.4 70.7h11.3L96 90.35V96L45.4 70.7zM96 20H84.69L34.02 45.3H45.4L96 20zM27.6 65.6H96V50.4H27.6V20.85C23.16 22.62 20 26.95 20 32v64h7.6V65.6z"/></g><g><path fill="none" d="M172 160V32c0-6.6-5.4-12-12-12H32c-6.6 0-12 5.4-12 12v128c0 6.6 5.4 12 12 12h128c6.6 0 12-5.4 12-12z" opacity=".4"/><path fill="none" d="M0 0v192h192V0H0z"/><path fill="#DFDFDF" d="M160 20c6.6 0 12 5.4 12 12v128c0 6.6-5.4 12-12 12H32c-6.6 0-12-5.4-12-12V32c0-6.6 5.4-12 12-12h128m0-8H32c-11.03 0-20 8.97-20 20v128c0 11.03 8.97 20 20 20h128c11.03 0 20-8.97 20-20V32c0-11.03-8.97-20-20-20z"/><path fill="#FFF" fill-opacity=".2" d="M160 20H32c-6.6 0-12 5.4-12 12v1c0-6.6 5.4-12 12-12h128c6.6 0 12 5.4 12 12v-1c0-6.6-5.4-12-12-12z"/><path fill="#212121" fill-opacity=".1" d="M160 172H32c-6.6 0-12-5.4-12-12v-1c0 6.6 5.4 12 12 12h128c6.6 0 12-5.4 12-12v1c0 6.6-5.4 12-12 12z"/><radialGradient id="a" cx="23.768" cy="23.933" r="204.625" gradientUnits="userSpaceOnUse"><stop offset="0" stop-color="#fff" stop-opacity=".1"/><stop offset="1" stop-color="#fff" stop-opacity="0"/></radialGradient><path fill="url(#a)" d="M160 172H32c-6.6 0-12-5.4-12-12V32c0-6.6 5.4-12 12-12h128c6.6 0 12 5.4 12 12v128c0 6.6-5.4 12-12 12z"/></g></svg>