<svg xmlns="http://www.w3.org/2000/svg" width="192" height="192"><path fill="#F7E017" d="M172 160V32c0-6.6-5.4-12-12-12H32c-6.6 0-12 5.4-12 12v128c0 6.6 5.4 12 12 12h128c6.6 0 12-5.4 12-12z"/><path fill="#FFF" d="M20 46.39v59.64l152 15.83v-43.8z"/><path d="M20 82.28v31.66l152 31.67v-31.67z"/><path fill="#CF1126" d="M131.42 134.96c0 .43-.05.78-.12.78-.06 0-.54-.18-1.06-.39-1.47-.61-2.31-.76-4.03-.75-1.31.01-1.76.07-2.68.37-1.4.46-2.9 1.34-4.12 2.43-1.34 1.2-2.19 1.58-3.5 1.57-1.22-.01-2.05-.37-2.49-1.06-.23-.37-.27-.6-.21-1.44.04-.55.03-.99-.01-.99-.05 0-.52.3-1.05.67-1.4.96-2.29 1.44-3.9 2.08-4.89 1.94-11.96 2.77-17.36 2.06-4.09-.54-7.83-1.84-10.44-3.62-.5-.35-.98-.63-1.05-.63-.08 0-.14.38-.14.86 0 1.34-.54 2.02-1.9 2.38-1.3.34-3.28-.34-4.89-1.68-1.67-1.38-3.59-2.44-5.22-2.86-1.34-.35-3.12-.29-4.41.14-.6.2-1.28.48-1.51.63-.23.15-.5.26-.58.26-.23 0-.2-1.45.04-1.91.31-.61 1.09-1.2 1.99-1.53.46-.17.83-.38.83-.47s-.15-.44-.34-.77c-.61-1.07-.36-2.11.71-2.93 1.09-.84 2.94-.98 4.58-.36.41.16.8.28.85.28.22 0 .08-.3-.51-1.17-.68-1-.82-1.49-.73-2.69.11-1.51 1.34-2.74 2.84-2.85 1.23-.09 1.99.33 3.81 2.05 5.42 5.16 11.3 8.01 18.17 8.78 1.73.19 5.22.09 7.27-.22 6.18-.93 12.4-4.04 17.27-8.62 1.35-1.27 2-1.6 3.1-1.61.96 0 1.63.31 2.32 1.07.63.7.84 1.36.77 2.42-.04.68-.15 1.01-.56 1.67-.6.97-.49 1.06.68.6 1.59-.62 3.55-.33 4.61.67.93.88 1.02 1.77.3 2.97-.26.44-.48.85-.48.92 0 .12.2.18 1.17.33 1.25.19 1.98 1.13 1.98 2.56zm-38.3-4.09c4.27.23 8.6-.18 12.68-1.51 8.98-2.83 15.78-10.62 18.47-19.5 1.99-6.98 1.83-14.83-1.54-21.37-.97-1.82-2.62-4.53-3.92-5.22 2.29 4.6 3.07 9.89 2.37 14.97-.82 9.39-7.57 17.8-16.42 20.92-4.01 1.3-8.36 2.59-12.56 1.37-10.62-1.54-19.5-10.43-21.39-20.93-1.22-5.26-.45-10.83 1.84-15.68-2.87 2.75-4.56 6.61-5.39 10.46-1.57 8.47.05 17.73 5.2 24.75 4.72 6.72 12.51 10.96 20.66 11.74zM49.51 88.51c.8.63 1.3 1.55 1.76 2.45.29.6.56 1.21.67 1.87.65.22 1.22.62 1.72 1.07-.2-.61-.65-1.08-.95-1.63-.33-.58-.64-1.18-.78-1.84-.62-.67-.97-1.61-.83-2.52.03-1.01-.3-2.05-.97-2.81-.17-.17-.37-.35-.62-.37-.44.13-.35.67-.21 1 .19.91.23 1.85.21 2.78zm1.98-.26c-.02.53.17 1.04.44 1.49a.81.81 0 01.71-.6c.12-.02.3.04.23-.14-.08-1.01-.24-2.03-.59-2.98-.14-.34-.29-.7-.59-.93-.06-.04-.13-.08-.21-.07-.24.04-.38.27-.51.45-.05.18.18.38.21.58.29.69.4 1.46.31 2.2zm4.78 30.05c-.92-.12-1.8-.46-2.63-.85-.31-.15-.6-.39-.95-.44-.54-.08-1 .54-.78 1.04.41.6 1.11.92 1.76 1.2 1.09.44 2.27.63 3.44.61h.47c1.04 0 2.07-.2 3.02-.6.59-.23 1.3-.45 1.55-1.09.19-.35.04-.87-.4-.9-.41-.02-.76.24-1.14.36-1.36.56-2.87.8-4.34.67zm-8.61-29.93c1.11 1.3 1.97 2.86 2.23 4.57.01.64.68.86 1.12 1.17 1.03.65 2.18 1.13 3.1 1.95.19.21.34.43.2.01-.14-.54-.22-1.13-.64-1.54-.58-.62-1.3-1.17-2.14-1.36-.07-.87-.48-1.67-.87-2.43-.42-.73-.87-1.52-1.59-2 .03-1.29.01-2.64-.55-3.83-.16-.31-.4-.67-.79-.69-.63.1-.6.9-.31 1.32.32.9.41 1.88.24 2.83zm12.7 27.07c-1.01.51-2.14.8-3.27.8-.98.03-1.91-.38-2.76-.82-.31-.16-.56-.43-.91-.5-.46-.06-.78.47-.7.88.07.37.4.61.67.84 1.13.82 2.55 1.17 3.93 1.13-.54 0 .72.01.34 0 .87 0 1.74-.22 2.53-.6.53-.23 1.14-.49 1.32-1.09.08-.28.14-.68-.18-.84-.34-.2-.67.09-.97.2zM45.66 83.9zm17.36 36.39c.25-.46-.21-.92-.67-.83-.65.14-1.25.44-1.9.6-1.39.39-2.85.54-4.29.42-1.05-.13-2.07-.46-3.04-.87-.34-.15-.65-.37-1.03-.41-.53-.08-1.12.44-.92.99.38.56 1.05.83 1.65 1.09 1.38.55 2.87.78 4.35.76h.57c1.22 0 2.43-.22 3.58-.63.63-.22 1.44-.42 1.7-1.12zm-10.13-19.14c.58 1.09.38 2.4.5 3.59.1 3.24.07 6.49.01 9.73 1.46.74 3.06 1.47 4.74 1.19 1-.24 2.85-.39 3.06-1.38-.08-5.59-.13-11.19-.21-16.78-.57-1.71-2.31-2.6-3.62-3.7-1.08-1.06-2.08-2.2-3-3.4-.55-.93-2.72-1.27-1.93.35.46 1.4 1.63 2.45 1.92 3.93.06.81 1.03 2.3.21 2.77-.52-.89-1.28-1.65-2.26-2.1-.94-.7-2.48-.99-2.82-2.22-.25-1.75-1.14-3.33-2.3-4.64.3-1.57 0-3.53-1.36-4.54l-.19-.04c-.69.69-.16 1.96-.2 2.86.36 2.78.8 5.59 1.84 8.21 1.28 2.54 3.98 3.91 5.61 6.17zm86.46-12.01c.33.03.64.27.71.6.27-.45.46-.96.44-1.49-.08-.74.02-1.51.3-2.2.04-.2.26-.4.21-.58-.13-.18-.27-.41-.51-.45-.08-.01-.15.03-.21.07-.3.23-.45.59-.59.93-.35.95-.51 1.97-.59 2.98-.06.18.12.12.24.14zm-7.96 30.12c.96.39 1.99.6 3.02.6h.47c1.17.02 2.35-.17 3.44-.61.65-.28 1.35-.6 1.76-1.2.23-.5-.24-1.12-.78-1.04-.35.05-.63.29-.95.44-.83.39-1.71.73-2.63.85-1.48.13-2.98-.11-4.35-.68-.38-.12-.73-.38-1.14-.36-.45.03-.59.54-.4.9.26.65.98.87 1.56 1.1zm.43-2.1c.79.38 1.65.59 2.53.6-.38.01.87 0 .34 0 1.38.05 2.81-.3 3.93-1.13.27-.22.6-.47.67-.84.08-.42-.24-.94-.7-.88-.35.07-.6.34-.91.5-.85.45-1.78.86-2.76.82-1.14.01-2.26-.28-3.27-.8-.3-.12-.63-.4-.96-.21-.32.16-.26.56-.18.84.17.6.79.87 1.31 1.1zm9.51-26.43c-.38.77-.8 1.57-.87 2.43-.84.19-1.56.74-2.14 1.36-.42.41-.49 1-.64 1.54-.14.42.01.2.2-.01.92-.82 2.07-1.29 3.1-1.95.44-.32 1.11-.53 1.12-1.17.26-1.71 1.12-3.27 2.23-4.57a5.67 5.67 0 01.23-2.83c.29-.42.31-1.22-.31-1.32-.38.02-.62.38-.79.69-.55 1.19-.58 2.54-.55 3.83-.72.48-1.16 1.26-1.58 2zm-1.26-.3c-.14.65-.45 1.26-.78 1.84-.3.56-.75 1.03-.95 1.63.51-.45 1.08-.86 1.72-1.07.11-.66.38-1.27.67-1.87.46-.89.96-1.81 1.76-2.45-.02-.93.02-1.87.22-2.78.14-.33.22-.87-.21-1-.25.01-.45.2-.62.37-.67.76-1 1.8-.97 2.81.13.91-.21 1.85-.84 2.52zm-.16 28.77c-.37.05-.69.26-1.03.41-.97.41-1.99.75-3.04.87-1.44.12-2.9-.03-4.29-.42-.64-.17-1.25-.46-1.9-.6-.47-.09-.93.37-.67.83.26.7 1.07.91 1.71 1.13 1.15.41 2.36.63 3.58.63h.57c1.48.02 2.97-.21 4.35-.76.6-.27 1.26-.54 1.65-1.09.19-.56-.4-1.08-.93-1zm6.43-35.3zm0 0l-.19.04c-1.36 1-1.65 2.97-1.36 4.54-1.16 1.31-2.05 2.89-2.3 4.64-.34 1.23-1.88 1.52-2.82 2.22-.97.45-1.73 1.21-2.26 2.1-.82-.47.14-1.96.21-2.77.29-1.48 1.46-2.52 1.92-3.93.78-1.62-1.38-1.29-1.93-.35-.92 1.2-1.92 2.34-3 3.4-1.3 1.1-3.05 1.98-3.62 3.7-.07 5.59-.13 11.19-.21 16.78.21.99 2.06 1.14 3.06 1.38 1.69.28 3.28-.46 4.74-1.19-.06-3.24-.09-6.49.01-9.73.12-1.19-.08-2.5.5-3.59 1.63-2.26 4.33-3.62 5.6-6.18 1.04-2.61 1.48-5.43 1.84-8.21-.02-.89.5-2.16-.19-2.85zm-48.47 36.45c1.55-.25 2.94-1.13 3.97-2.3.63-.78 1.23-1.63 1.58-2.58-.13-.33-.75.27-1.05.34-.65.38-1.43.41-2.05.84-.7.59-1.4 1.21-2.25 1.59-.69.32-.52-.64-.26-.95.26-.86-.28-1.7-.73-2.4-.33-.3-.63-1.2-1.08-1.05-.62.73-1.23 1.49-1.63 2.37-.24.49-.05 1.04.23 1.47.22.82-.96.31-1.29.06-.72-.39-1.18-1.13-1.93-1.45-.6-.04-1.15-.27-1.67-.56-.28-.05-.86-.78-.91-.31.88 2.72 3.45 4.8 6.3 5.07.91.07 1.86.03 2.77-.14zm-6.28-6.61c-.06.92.33 1.79.85 2.53.27.32.91 1.27 1.24.75.04-1.14.79-2.06 1.4-2.96.39-.32.71-1.43 1.29-1.09.62.8 1.25 1.61 1.7 2.53.29.52.42 1.1.36 1.68.03.14.2.15.3.08.81-.57 1.48-1.41 1.7-2.39.47-2.21-.25-4.44-1.19-6.43-.49-1.01-.77-2.15-.57-3.27.12-.89.66-1.64 1.3-2.24.46-.4-.14-.58-.49-.38-.87.17-1.35.97-2.02 1.44-.56-.03-.2-1-.55-1.4-.17-.45-.68-1.41-1.18-.74-.5.45-.55 1.14-.79 1.72-.61.27-.97-.83-1.64-.88-.39-.3-1.62-.18-.87.41.79.65.98 1.72.93 2.69.07 1.29-.6 2.43-1 3.61-.55 1.37-.83 2.85-.77 4.34zm8.3-24.18c-.51-.25-1.17-.22-1.64.1-.48.25-.73.81-1.24 1-.53-.29-.11-1.19-.52-1.65-.28-.72-.95-.06-.96.45-.18.36-.02 1.12-.4 1.23-.53-.44-.95-1.07-1.66-1.25-.32-.06-1.17-.24-1.21.09.66.84 1.53 1.58 1.81 2.66.22.94.31 1.96-.05 2.88-.57 1.46-1.22 2.95-1.16 4.56-.01.99.16 2.19 1.1 2.74.59.58.88-.16 1.12-.61.34-.33.65-.97 1.15-.97.52.38.89.92 1.2 1.48.11.18.19.4.35.55.64-.3 1.26-.77 1.44-1.49.31-1.18.32-2.43.1-3.62-.18-1.06-.69-2.02-.98-3.05a4.27 4.27 0 01.79-3.82c.2-.43.94-.81.76-1.28zm-25.81-8.89c1.37.08 2.09-.14 4.68-1.41 2.02-.99 3.16-1.37 3.91-1.28.58.07.55.36-.05.45-1.32.21-1.89.42-3.82 1.38-1.22.61-2.5 1.14-3.15 1.3-.6.15-1.12.31-1.16.35-.04.04.04.3.19.57.85 1.58 3.5 1.72 5.26.27 1.5-1.24 4.01-2.41 5.27-2.47.65-.03.87.27.28.39-1.84.39-4.16 1.49-5.39 2.57-.28.25-.71.56-.95.68-.24.13-.43.3-.43.37 0 .29.86 1.1 1.33 1.26.67.22 2.17.1 2.93-.24.34-.15.99-.61 1.44-1.03 1.53-1.41 3.55-2.72 4.18-2.72.49 0 .31.26-.44.63-.92.46-2.78 1.8-3.4 2.45-.26.28-.68.63-.93.78-.54.33-.56.64-.1 1.19.91 1.08 2.89.86 4.97-.54.36-.24 1.45-1.25 2.41-2.23 1.21-1.23 1.8-1.74 1.9-1.64.1.1-.08.41-.58 1.01-.62.75-.72.94-.7 1.41.04.95.57 1.24 1.68.92.69-.2.78.01.29.69-.33.46-.42.73-.42 1.23 0 .98.23 1.48.94 2 .35.26.64.47.65.47.01 0 .19-.28.41-.62.62-.99 1.19-.99 1.83-.02.18.28.4.5.49.5.09 0 .41-.22.72-.48 1-.85 1.12-2.1.3-3.11-.55-.68-.42-.88.42-.66.81.22 1.21.09 1.45-.49.27-.65.13-1.1-.58-1.9-.58-.65-.75-1.05-.45-1.05.08 0 .86.74 1.73 1.65 2.24 2.32 3.66 3.2 5.48 3.39.91.1 1.62-.15 2.05-.71.42-.55.43-.84.05-1.05-.16-.09-.64-.48-1.07-.88-.91-.83-2.14-1.69-3.34-2.33-.91-.48-1.14-.77-.63-.77.63 0 2.61 1.27 4.71 3.03.99.83 1.95 1.16 3.06 1.05.85-.09 1.64-.54 1.95-1.12.19-.35.18-.39-.05-.53-.14-.08-.7-.48-1.23-.88-1.74-1.3-3.44-2.11-4.89-2.33-.43-.07-.63-.17-.66-.33-.16-.83 4 .72 5.67 2.11 1 .83 1.62 1.07 2.74 1.08 1.17 0 2-.35 2.48-1.07.46-.68.45-.98-.05-.98-.68 0-1.83-.41-3.87-1.38-1.89-.9-3.24-1.37-3.94-1.37-.19 0-.31-.08-.31-.2 0-.59 2.41 0 4.43 1.09 3.23 1.74 5.53 1.75 7.3.03.97-.94 1.79-2.55 1.31-2.55-.08 0-.59.1-1.13.22-1.31.3-3.87.19-5.32-.22-1.43-.41-3.86-1.63-5.05-2.54-1.18-.91-2.42-1.61-3.54-2.01-2.66-.93-5.96-.9-7.87.07-.88.45-1.71 1.18-1.94 1.72-.04.09-.08.16-.13.23V69.2l-1.08.86-.97-.73v4.74c-.17-.13-.36-.32-.58-.53-1.47-1.49-3.13-2.1-5.74-2.09-2.83.01-5.05.83-7.77 2.86-1.42 1.06-3.5 2.12-5.07 2.57-.94.27-1.4.32-3.16.31-1.25 0-2.29-.07-2.66-.18-.33-.1-.63-.14-.68-.1-.18.18.75 1.78 1.41 2.4 1.03.96 1.73 1.28 2.98 1.36zm18.7-10.96l1.76-1.97 1.8 1.66 1.73-1.73 1.8 2.1 1.56-1.73 2.65 1.9c-.96-2.13-2.26-3.94-2.1-6.93-2.57 1.91-8.66 2.25-11.28.1-.22 2.77-.92 4.7-1.9 6.83l2.34-2.17 1.64 1.94zm9.06-7.11c-.48-.35-1.07-.56-1.72-.69-.86-.17-1.81-.18-2.71-.2v1.49l-2.05-.01V61.7c-.94.02-1.93.03-2.83.2-.62.12-1.18.32-1.65.65.08 1.82 8.66 2.57 10.96.05zm-6.14-9.96v10.3l1.36.01-.01-4.93 4.61 2.25-2.6-3.47 3.55-1.15-5.57-2.87v-.08c.47-.1.78-.33.78-.58 0-.35-.57-.64-1.35-.64s-1.36.29-1.36.64c-.01.21.23.41.59.52z"/><path fill="#F7E017" d="M96.03 136.12c.03.13-.09.64-.26 1.13-.34.98-.82 1.49-1.67 1.77-.64.21-2.83.31-3.43.16-.24-.06-.54-.19-.66-.29-.39-.32-.01-.43 1.06-.29.57.07 1.21.11 1.43.08 2.24-.24 2.66-.53 2.46-1.72-.08-.47-.04-.58.23-.81.41-.32.77-.34.84-.03zm3.13-1.31c-.36.59-.35.63.17.76.27.07.53.27.68.52.57.98.4 1.59-.44 1.59-.76.01-.97.11-1.17.61-.11.26-.19.53-.19.61 0 .21.29.17.55-.07.13-.12.56-.32.97-.45.54-.17.82-.36 1.05-.7.66-.98.53-1.82-.43-2.96-.54-.61-.77-.59-1.19.09zm-1.85-1.64c-.13-.13-.75.28-.83.54-.04.14.03.45.15.69.19.38.22.73.16 2.21-.08 1.87.05 2.18.44 1.12.14-.39.19-1.09.18-2.51-.02-1.09-.06-2.01-.1-2.05zm-4.14 4.71c.19-.22.41-.69.49-1.04.08-.35.17-1.06.22-1.58s.15-1.18.24-1.47c.22-.73 0-.92-.58-.51l-.43.31.09 1.05c.08.95-.07 2.71-.28 3.39-.07.17.01.13.25-.15zm-2.68-.54c.77-.64.68-1.75.85-2.64-.02-.6.38-1.31.12-1.83-.72.13-1.16.81-.8 1.49.03.79 0 1.65-.4 2.35-.33.46-1.38.34-1.33-.3.26-.97-.9-.5-1.36-.24-.35.24-1.09.26-.84-.35-.17-.82-1.22-.31-1.79-.31-.54-.01-.04-1.09-.82-.9-1.44-.11-3.02.01-4.27-.86-.73-.35-.62-1.23-.24-1.79.45-.77.58-1.74 1.3-2.34.71-.68-.67-.39-.98-.16-.69.38-.05 1.36-.62 1.9-.33.56-.77 1.34-1.53 1.23-1.11-.21-1.74-1.24-2.54-1.93-.68-.14-.3 1.1.05 1.36.69.52 1.51.9 2.34 1.12.83-.13.86.96 1.57 1.13 1.31.61 2.76.79 4.19.87.56.05.24 1.04.98.85.41.11 1.34-.15 1.39.32-.62.74.6.72 1.05.59.58-.09 1.32-.31 1.47.48.48.51 1.37.43 1.96.14.1-.05.18-.11.25-.18zm-11.84-7.72c.19-.44.48-.94.64-1.11.37-.4.16-.65-.43-.52-.32.07-.45.19-.5.46-.18.9-.5 1.81-.79 2.24-.52.77-.54.8-.32.8.11 0 .39-.24.63-.54.22-.29.57-.9.77-1.33zm-3.65.01c-.37.19-.74.35-.82.35s-.15-.27-.17-.59l-.05-.58-.96-.09c-1.49-.13-1.82-.33-2.38-1.44-.19-.38-.43-.62-.71-.71-.58-.2-.55-.57.04-.57.47 0 1 .45 1.52 1.28.62 1 1.76 1.16 2.82.39.34-.25.77-.43 1-.43.51 0 1.07.36 1.07.7.01.51-.66 1.34-1.36 1.69zm.32-.97c.15-.4.08-.61-.2-.61-.31 0-.48.3-.35.62.1.28.45.27.55-.01zm40.62 2.76c-.47.92-1.61 2.08-2.48 2.53-.64.33-1.16.38-1.06.12.04-.1.37-.38.75-.64 1.4-.96 2.74-2.75 2.74-3.69 0-.37-.11-.38-.79-.09-.49.2-.52.2-.75-.09-.37-.46-.33-1.75.07-2.34.24-.36.36-.45.75-.46h.19c.56 0 .63.04.86.48.2.39.23.74.19 1.92-.04 1.28-.09 1.53-.47 2.26zm-.34-3.36c-.03-.42-.08-.48-.38-.48-.49 0-.69.6-.36 1.1.23.35.25.35.52.12.19-.18.25-.39.22-.74zm-4.92 4.8c-.36 0-.44-.25-.28-.95.15-.68-.03-1.53-.33-1.53-.11 0-.3.16-.42.35-.19.3-.2.42-.06.86.21.64.04 1.12-.53 1.53-.27.19-.42.42-.42.64 0 .18.02.33.05.33.03 0 .33-.16.67-.34l.62-.34.36.28c.2.16.36.41.36.57 0 .75-2.14 2.01-3.61 2.13-.78.06-.92.04-1.19-.23-.22-.22-.28-.41-.23-.67.04-.2.12-.57.17-.81.14-.65-.15-.57-.63.2-.4.63-.52 1.3-.29 1.66.18.29 1.4.57 2.27.51.54-.03 1.08-.18 1.65-.46 1.23-.61 1.96-1.29 2.43-2.28.22-.47.4-.91.4-.99-.02-.17-.63-.46-.99-.46zm9.19-7.01c-.26.36-.62.57-1.91 1.17-.33.15-.35.23-.42 1.59-.09 1.57-.3 2.16-1.18 3.24-.54.65-.56.74-.18.74.15 0 .55-.27.87-.6.78-.77 1.11-1.72 1.11-3.18v-1.1l.64-.3c.83-.4 1.62-1.19 1.62-1.63.01-.44-.19-.42-.55.07zm-11.82 5.06c-.08.08-.1.21-.05.3.12.2.51.13.59-.1.08-.22-.35-.38-.54-.2zm11.67-3.02c-.08.08-.1.22-.05.3.12.2.51.13.59-.1.08-.22-.35-.38-.54-.2zm-14.8.45c-.38.16-.83.28-1.23.14-.29-.32-.27-.77-.36-1.17h-1.15c-.11-.02-.29.04-.35-.03.02-.43-.06-.89.11-1.3.35-.21.33.58.7.55.58.06 1.03-.46 1.6-.49.64-.01 1.27.16 1.91.2.4.11.67-.24.77-.58.26-.89-.05-1.8-.3-2.66-.25-.72-.48-1.5-1.01-2.07-.09-.1-.21-.19-.06-.3.21-.25.37-.57.67-.72.05-.01.1.03.12.07.2.49.33 1.02.5 1.52.35 1.14.81 2.28.86 3.49.05.79-.46 1.6-1.24 1.82-.32.16-.85.05-.97.46-.11.39-.16.88-.57 1.07zm-.61-1.52c-.42-.04-.56.37-.34.68.12.34.7.65.86.17.09-.35-.09-.88-.52-.85zm-1.66-1.69c-.45.09-.83.23-.86.3-.21.64-1.68 1.51-2.74 1.63-.37.04-.86-.02-1.31-.17-.63-.21-.9-.22-2.29-.1-1.49.13-1.59.12-1.77-.13-.13-.19-.36-.26-.76-.26-.31 0-.98-.04-1.49-.09-.9-.08-.92-.09-.92-.47 0-.47-.02-.48-1-.6l-.8-.1-.69.75c-.43.47-.95.86-1.38 1.05-.89.38-2.27.47-3.41.2-1.06-.24-1.49-.5-1.6-.96-.12-.47.01-.56.53-.34 2.11.87 3.23.95 4.49.32.88-.44 1.02-.76.46-1.02-.76-.36-.47-1.29.65-2.08.21-.15.43-.22.62-.22.42.01.75.35.75.93 0 .96.35 1.14 1.57.81.49-.13.66-.13.79 0s.13.23-.01.45c-.15.24-.15.33.07.56.23.26.36.28 1.59.2 1.12-.07 1.34-.05 1.34.11 0 .36.28.37 1.04.06l.75-.31.33.31c.21.2.37.26.42.16.14-.22.85-.18 1.34.07.29.15.59.19.96.13.56-.09 1.81-.66 1.95-.89.04-.07-.1-.26-.3-.43-.32-.25-.49-.28-1.09-.22-.64.07-.72.04-.72-.19 0-.35.51-.69 1.05-.69.24 0 .74.12 1.11.26.36.14 1.02.3 1.45.36 1 .16.95.4-.12.61zm-14.36-1.27c-.08-.08-.14-.12-.2-.12-.07 0-.14.04-.24.12-.16.11-.22.27-.17.41.11.29.63.3.74.01a.496.496 0 00-.13-.42zm-7.39-3.36c-1.57 1.77-1.71 2.14-.93 2.62.63.38 1.43.35 2.06-.07l.51-.35v.63c0 .81.16 1.1.79 1.43.8.42 1.76.37 2.55-.13.75-.47.73-.44.84-1.75.07-.93.06-1-.19-1-.37 0-.56.4-.56 1.17 0 .49-.08.71-.34.97-.62.62-2.16.34-2.36-.43-.07-.26.02-.5.34-.96.67-.96.52-1.19-.3-.46-.57.5-.67.51-.56.08.1-.39-.11-.55-.57-.43-.24.06-.37.21-.42.49-.05.28-.18.44-.41.49-.37.1-1.01-.26-1.01-.56 0-.22.95-1.39 2.18-2.66.46-.48.84-.93.84-1s-.25-.12-.55-.12c-.44 0-.55.05-.55.25.01.13-.6.94-1.36 1.79zm31.14 4.28c-.5.29-.46-.25-.12-.45.81-.71 1.65-1.49 1.98-2.55.09-.52.5-1.19.19-1.67-.63-.21-1.31-.21-1.97-.31.02.56.12 1.13.03 1.69-.29.75-.93 1.45-1.76 1.55-.58.13-1.19-.12-1.75-.05-.19.59.03 1.26-.2 1.84-.34-.14-.18-.88-.32-1.25-.22-.91-.45-1.87-1.02-2.63-.14-.39.2-1.12.62-1.18.36.43.2 1.08.5 1.56.41.56.43-.47.68-.65.51.05.17 1.04.69 1.31.56.55 1.51.12 1.79-.53.31-.54.01-1.13-.31-1.58-.35-.39-.62-1.33.13-1.43.47.12.57.66.79 1.02.14-.47.23-1 .61-1.35.49-.49 1.25-.16 1.67.26.48.77.92-.01 1.1-.52.34-.78.96-1.52 1.84-1.67.62-.12 1.48-.3 1.71-.97-.09-.49-.55-1.22.04-1.57.53.04.51.77.53 1.16.05.76-.45 1.43-1.11 1.76-.5.25-1.22.58-1.03 1.26.2.59-.32 1.3-.92 1.32-.59 0-1.38-.14-1.71.5-.22.84.05 1.76-.29 2.58-.49 1.1-1.3 2.09-2.39 2.55zm4.07-6.47c.37.85 1.21-.49.5-.68-.34-.02-.62.35-.5.68zm-2.77.28c-.46-.02-.59.48-.19.68.78.6 1.11-.73.19-.68zm-33.6 5.36c.12.2.4.09.45-.19.03-.13-.04-.23-.16-.23-.26 0-.41.22-.29.42zm10.9-1.11c.2 0 .28-.09.28-.28 0-.2-.07-.27-.24-.24-.36.07-.4.52-.04.52zm-13.84-6.11c.15-.35.42-.71.84-.62.13 0 .27 0 .39.05.36.26-.2.44-.36.63-.55.6-1.12 1.19-1.64 1.82-.27.22-.58.87.02.85.79-.06 1.38-.71 2.16-.81.32.01.76.03.91.35-.15.35-.47.6-.73.86-.08.19-.65.32-.46.49.46.1.98.19 1.43 0 .62-.46 1.11-1.06 1.6-1.66.29-.3.42-.77.83-.92.46-.24.7.59.26.7-.62.49-1.06 1.15-1.6 1.72-.38.44-.9.81-1.5.82-.85.03-1.69-.08-2.53-.12-.11.15-.22.3-.34.45-.17.15-.4.66-.63.47-.09-.44.04-.9.23-1.29.19-.35.07-.93-.41-.92-.43.14-.57-.27-.56-.62-.13-.41-.61-.53-.95-.73-.39-.19-.86-.49-.83-.99-.01-.38.53-.72.84-.48.18.35.09.87.51 1.08.36.21.81.37 1.22.26.58-.3.97-.85 1.3-1.39zm.7 3.08c.27.05.91-.31.52-.53-.2.02-.39.11-.57.2-.31.07-.3.43.05.33zm-.43.64c.44-.14-.03-.35-.25-.35-.4.11-.06.58.25.35zm8.93.45c.18-.03.32-.14.32-.25 0-.3-.53-.26-.59.05-.04.19.02.23.27.2zm23.69-2.06c.13-.03.26-.15.28-.29.05-.29-.34-.47-.55-.27s-.01.61.27.56zm-38.2-3.26c.85.49 1.18.5 1.68.08.37-.32.38-.34.22-1.04-.23-.98-.21-1.09.16-1.18.47-.12 1.67.52 1.94 1.04.21.4.2.43-.15.75-.38.35-.38.76 0 .76.31 0 1.18-.82 1.18-1.11 0-.41-.96-1.37-1.72-1.72-.47-.22-.94-.32-1.48-.32-.97 0-1.1.21-.84 1.34.31 1.32-.11 1.5-1.18.5-.79-.74-1.1-1.51-1.1-2.73 0-1.3.5-1.95 1.62-2.1.75-.1.73-.27-.04-.39-1.12-.17-2.06.58-2.42 1.91-.41 1.47.51 3.28 2.13 4.21zm45.76-1.55zm-.79-.98c.35.21.42.32.36.61-.1.51.11.69.44.37.09-.09.16-.3.16-.45s.15-.5.34-.75c.19-.26.34-.52.34-.58 0-.26-.43-.25-.77.02-.35.27-.61.28-.61.01 0-.07.16-.2.37-.3.5-.24.54-.49.12-.68-.54-.25-1.09.2-1.15.95-.03.49.01.57.4.8zm6.77-3.11c-.16-.4-.66-.95-1.74-1.93-.83-.75-1.6-1.37-1.7-1.37-.3 0-.24 1.09.06 1.18.54.17.87.39 1.72 1.16.99.89 1.44 1.73 1.19 2.19-.24.45-.56.31-1.43-.62-.46-.49-.91-.89-1-.89-.1 0-.17.18-.17.43 0 .31.17.61.62 1.11.74.82.81 1.31.26 1.75-.2.16-.4.28-.45.28-.05 0-.21-.24-.36-.54-.31-.62-2.19-2.62-2.48-2.62-.13 0-.19.16-.19.48 0 .38.08.52.38.67.37.19 1.3 1.13 2.23 2.25.27.32.53.58.58.58.05 0 .35-.22.65-.5.3-.27.55-.58.55-.69 0-.1.26-.38.58-.61.91-.64 1.11-1.3.7-2.31zm-2.61-3.42c.22.06.88.58 1.48 1.16s1.12 1.02 1.16.98c.04-.04.03-.22-.02-.39-.12-.39-2.65-3-2.91-3-.14 0-.18.16-.15.57.04.51.1.59.44.68zm-12.86 30.7c-.21 0-.38.15-.38.34 0 .19.17.34.38.34s.38-.15.38-.34c0-.18-.17-.34-.38-.34zm1.33-.44c-.21 0-.38.15-.38.34s.17.34.38.34.38-.15.38-.34-.17-.34-.38-.34z"/><path fill="none" d="M172 160V32c0-6.6-5.4-12-12-12H32c-6.6 0-12 5.4-12 12v128c0 6.6 5.4 12 12 12h128c6.6 0 12-5.4 12-12z" opacity=".4"/><path fill="none" d="M0 0v192h192V0H0z"/><path fill="#DFDFDF" d="M160 20c6.6 0 12 5.4 12 12v128c0 6.6-5.4 12-12 12H32c-6.6 0-12-5.4-12-12V32c0-6.6 5.4-12 12-12h128m0-8H32c-11.03 0-20 8.97-20 20v128c0 11.03 8.97 20 20 20h128c11.03 0 20-8.97 20-20V32c0-11.03-8.97-20-20-20z"/><path fill="#FFF" fill-opacity=".2" d="M160 20H32c-6.6 0-12 5.4-12 12v1c0-6.6 5.4-12 12-12h128c6.6 0 12 5.4 12 12v-1c0-6.6-5.4-12-12-12z"/><path fill="#212121" fill-opacity=".1" d="M160 172H32c-6.6 0-12-5.4-12-12v-1c0 6.6 5.4 12 12 12h128c6.6 0 12-5.4 12-12v1c0 6.6-5.4 12-12 12z"/><radialGradient id="a" cx="23.768" cy="23.933" r="204.625" gradientUnits="userSpaceOnUse"><stop offset="0" stop-color="#fff" stop-opacity=".1"/><stop offset="1" stop-color="#fff" stop-opacity="0"/></radialGradient><path fill="url(#a)" d="M160 172H32c-6.6 0-12-5.4-12-12V32c0-6.6 5.4-12 12-12h128c6.6 0 12 5.4 12 12v128c0 6.6-5.4 12-12 12z"/></svg>