<svg xmlns="http://www.w3.org/2000/svg" width="192" height="192"><path fill="#009B3A" d="M20 32v128c0 6.6 5.4 12 12 12h128c6.6 0 12-5.4 12-12V32c0-6.6-5.4-12-12-12H32c-6.6 0-12 5.4-12 12z"/><path fill="#FEDF00" d="M172 105.01V86.99L96 38.46 20 86.99v18.02l76 48.53z"/><circle fill="#002776" cx="96" cy="96" r="38"/><path fill="#FFF" d="M132.28 107.34c.61-1.94 1.05-3.96 1.34-6.02-16.04-13.48-36.74-21.61-59.34-21.61-4.43 0-8.78.32-13.04.92-.83 1.87-1.51 3.81-2.03 5.81 4.9-.86 9.93-1.31 15.07-1.31 22.29.01 42.62 8.41 58 22.21z"/><path fill="#009B3A" d="M63.15 81.3c-.89.11-1.52 1-1.4 1.99.12.99.94 1.71 1.84 1.6.89-.11 1.52-1 1.4-1.99-.13-.99-.95-1.71-1.84-1.6zm.22 2.9c-1.23 0-1.23-2.21 0-2.21 1.23.01 1.23 2.21 0 2.21zm12.99-.62l2.64.1-.02.67-3.26-.11.13-3.62 3.1.11-.02.67-2.48-.09-.03.72 2.07.07-.02.62-2.07-.07-.04.93zm6.61-2.55l.9.08-.32 3.61-.62-.05.22-2.47-.94 2.41-.57-.05-.5-2.54-.22 2.47-.62-.05.32-3.61.9.08.5 2.54.95-2.42zm5.39 1.04l2.61.45-.11.61-2-.34-.1.56 1.68.29-.11.61-1.68-.29-.14.82 2.06.35-.11.61-2.68-.46.58-3.21zm29.72 10.48l-.36.63 1.8 1.02-.31.54-1.8-1.02-.46.81 2.29 1.3-.33.59-2.83-1.6 1.78-3.15 2.7 1.53-.33.59-2.15-1.24zm5.97 4.11l-.67-.42c.21-.33-.02-.64-.37-.86-.34-.22-.61-.31-.81 0-.34.51 1.91 1.46 1.22 2.54-.51.8-1.39.45-1.98.07-.5-.32-1.25-1.07-.76-1.83l.69.44c-.19.31 0 .65.44.92.44.28.73.27.86.07.4-.62-1.89-1.53-1.19-2.61.61-.93 1.65-.21 2.04.04.39.24 1.02.89.53 1.64zm3.87 2.7l-.64-.46c.23-.32.01-.64-.32-.88-.33-.23-.6-.35-.81-.04-.36.49 1.83 1.56 1.08 2.6-.55.77-1.41.37-1.98-.03-.48-.35-1.19-1.14-.67-1.87l.66.47c-.21.29-.03.64.39.94.42.3.72.31.85.12.43-.6-1.81-1.62-1.05-2.67.66-.9 1.66-.12 2.04.15.39.28.98.95.45 1.67zm3.13 1.02c-.8-.41-1.82-.03-2.28.86-.46.89-.18 1.94.61 2.36.8.41 1.82.03 2.28-.86.47-.89.19-1.94-.61-2.36zm-1.45 2.52c-1.02-.69.23-2.51 1.25-1.82 1.01.7-.24 2.52-1.25 1.82zM74.08 81.31c-.4-.64-1.2-.67-1.2-.67l-1.81.03.06 3.62s1.44 0 1.82-.04c.38-.04.83-.26 1.12-.64.29-.38.29-.84.29-1.12-.01-.29.03-.67-.28-1.18zm-.68 2.03c-.37.25-.56.25-.8.25h-.81s-.03-1.83-.04-2.27c.75-.01.77-.01 1.06-.01.54.01.76.41.88.67.04.29.04.41.05.66-.03.26-.11.49-.34.7zm-4.27-.47s.38-.32.48-.78c.1-.46-.19-.83-.31-.94-.12-.11-.37-.36-.75-.35-.37.01-2.22.14-2.22.14l.2 3.61.67-.05-.09-1.34 1.16-.08.28-.02s.36.59.39.95c.02.21.02.4.02.4h.65s.02-.64-.17-1.03c-.17-.37-.31-.51-.31-.51zm-.4-.56c-.14.12-.54.12-.54.12l-1.12.07s-.04-.63-.07-.93c.17 0 1.06-.07 1.08-.07l.38-.02s.15 0 .29.13c.03.02.15.13.15.31-.01.19-.11.36-.17.39zm37.26 4.05c-.89-.12-1.72.58-1.86 1.57-.14.99.47 1.89 1.37 2.02.89.12 1.72-.58 1.86-1.57.13-.99-.48-1.9-1.37-2.02zm-.53 2.86c-1.19-.32-.62-2.45.57-2.13 1.18.32.62 2.45-.57 2.13zm-3.17-4.39c-.36-.11-2.14-.59-2.14-.59l-.99 3.48.65.17.35-1.3 1.13.3.27.07s.15.68.06 1.03c-.05.21-.11.38-.11.38l.62.21s.23-.6.18-1.03c-.05-.43-.14-.6-.14-.6s.46-.18.7-.58c.24-.4.1-.85.02-.99-.09-.12-.25-.44-.6-.55zm-.04 1.17c-.06.17-.22.3-.29.31-.17.07-.55-.06-.55-.06l-1.08-.3s.16-.61.24-.9c.16.06 1.03.28 1.04.28.17.05.37.1.37.1s.14.05.23.22c.02.04.1.18.04.35zm13.9 4.8c-.07-.15-.19-.48-.54-.62-.35-.14-2.08-.77-2.08-.77l-1.28 3.38.63.23.46-1.26 1.1.4.26.1s.09.69-.03 1.03c-.07.21-.14.37-.14.37l.6.27s.28-.58.26-1.01c-.01-.43-.09-.61-.09-.61s.48-.14.75-.52c.28-.39.17-.85.1-.99zm-.68.54c-.08.17-.24.28-.32.28-.18.05-.54-.11-.54-.11l-1.05-.39s.22-.59.32-.87c.15.07 1 .36 1.01.37.17.07.36.13.36.13s.13.06.21.24c.02.03.09.18.01.35zm-17.69-7.72c-.36-.1-2.16-.54-2.16-.54l-.91 3.5.65.16.32-1.31 1.13.28.27.07.61-.02s.46-.19.69-.6c.23-.41.08-.85-.01-.99-.06-.13-.23-.45-.59-.55zm-.01 1.17c-.06.17-.21.3-.28.32-.17.07-.55-.05-.55-.05l-1.09-.27.22-.9c.16.05 1.03.25 1.05.26.17.05.37.09.37.09s.14.05.24.21c.02.03.1.17.04.34zm11.64 5.98c.39.27.82.16 1.13-.11l-.51-.22.21-.47.64.28c.1.03.19.06.29.1.12.05.24.11.36.16-.02.04-.03.07-.05.11-.03.06-.07.12-.1.17l-.09.2-.52 1.19-.47-.21.2-.45c-.42.17-.89.16-1.29-.05-.8-.41-1.07-1.47-.61-2.36.46-.89 1.48-1.27 2.28-.86.58.3.88.94.83 1.6-.06-.03-.13-.06-.19-.09-.15-.07-.32-.1-.47-.17a.85.85 0 00-.37-.65c-1.04-.69-2.29 1.13-1.27 1.83z"/><path fill="#FFF" d="M65.35 88.67h1.18l-.96.7.37 1.13-.96-.7-.96.7.37-1.13-.96-.7h1.18l.37-1.13.37 1.13zm3.36 15.98l-.37-1.13-.37 1.13h-1.18l.96.7-.37 1.13.96-.7.96.7-.37-1.13.96-.7h-1.18zm-4.72 3.49l-.3-.94-.3.94h-.99l.8.58-.3.94.8-.58.8.58-.3-.94.8-.58h-1.01zm32.38 4.59L96 111.6l-.37 1.13h-1.18l.96.7-.37 1.13.96-.7.96.7-.37-1.13.96-.7h-1.18zm-15.22 2.73l-.37-1.13-.37 1.13h-1.18l.96.7-.37 1.13.96-.7.96.7-.37-1.13.96-.7h-1.18zm40.51-4.83l.96-.7.96.7-.37-1.13.96-.7h-1.18l-.37-1.13-.37 1.13h-1.18l.96.7-.37 1.13zm-13.99 10.52l-.31-.95-.31.95h-.99l.8.58-.31.95.8-.58.8.58-.31-.95.8-.58h-.97zm7.3-1.92l-.31.95h-.99l.8.58-.31.95.8-.58.8.58-.31-.95.8-.58h-.99l-.29-.95zm7.22-3.93l-.31-.95-.31.95h-.99l.8.58-.31.95.8-.58.8.58-.31-.95.8-.58h-.97zm2.29-2.97l-.31-.95-.31.95h-.99l.8.58-.31.95.8-.58.8.58-.31-.95.8-.58h-.97zm-23.78-7.19l-.31-.95-.31.95h-.99l.8.58-.31.95.8-.58.8.58-.31-.95.8-.58h-.97zm-5.5-1.79l.8-.58.8.58-.31-.95.8-.58h-.99l-.3-.95-.31.95h-.99l.8.58-.3.95zm13.02-19.63l-.31-.95-.31.95h-.99l.8.58-.31.95.8-.58.8.58-.31-.95.8-.58h-.97zM81.55 96.19l-.3.92h-.97l.78.57-.3.92.78-.57.78.57-.3-.92.78-.57h-.97l-.28-.92zm47.46 13.19h-.82l-.25-.78-.25.78h-.82l.66.48-.25.78.66-.48.66.48-.25-.78.66-.48zm-22.6-14.85l.66.48-.25-.78.66-.48h-.82l-.25-.78-.25.78h-.82l.66.48-.25.78.66-.48zm7.8 23.31l.66-.48.66.48-.25-.78.66-.48h-.82l-.25-.78-.25.78h-.82l.66.48-.25.78zm4.89-.58l-.25-.78-.25.78h-.82l.66.48-.25.78.66-.48.66.48-.25-.78.66-.48h-.82zm-3.79 6.89l-.25-.78-.25.78h-.82l.66.48-.25.78.66-.48.66.48-.25-.78.66-.48h-.82zm-4.41-6.3l-.25-.78-.25.78h-.82l.66.48-.25.78.66-.48.66.48-.25-.78.66-.48h-.82zm-6.28-.87l-.25-.78-.25.78h-.82l.66.48-.25.78.66-.48.66.48-.25-.78.66-.48h-.82zm-28.01-8.52l-.28-.85-.28.85h-.89l.72.52-.28.85.72-.52.72.52-.28-.85.72-.52h-.87zm-1.18 3.97l-.25-.78-.25.78h-.83l.66.48-.25.78.66-.48.66.48-.25-.78.66-.48h-.81zm16.98-7.19l-.25-.78-.25.78h-.82l.66.48-.25.78.66-.48.66.48-.25-.78.66-.48h-.82zm-20.22-2.57l-.15-.47-.15.47h-.5l.4.29-.15.47.4-.29.4.29-.15-.47.4-.29h-.5zm22.12 5.48l.4-.29h-.5l-.15-.47-.15.47h-.5l.4.29-.15.47.4-.29.4.29-.15-.47zm1.78 17.42l-.12-.36-.12.36h-.38l.31.22-.12.36.31-.22.31.22-.12-.36.31-.22h-.38z"/><g><path fill="none" d="M172 160V32c0-6.6-5.4-12-12-12H32c-6.6 0-12 5.4-12 12v128c0 6.6 5.4 12 12 12h128c6.6 0 12-5.4 12-12z" opacity=".4"/><path fill="none" d="M0 0v192h192V0H0z"/><path fill="#DFDFDF" d="M160 20c6.6 0 12 5.4 12 12v128c0 6.6-5.4 12-12 12H32c-6.6 0-12-5.4-12-12V32c0-6.6 5.4-12 12-12h128m0-8H32c-11.03 0-20 8.97-20 20v128c0 11.03 8.97 20 20 20h128c11.03 0 20-8.97 20-20V32c0-11.03-8.97-20-20-20z"/><path fill="#FFF" fill-opacity=".2" d="M160 20H32c-6.6 0-12 5.4-12 12v1c0-6.6 5.4-12 12-12h128c6.6 0 12 5.4 12 12v-1c0-6.6-5.4-12-12-12z"/><path fill="#212121" fill-opacity=".1" d="M160 172H32c-6.6 0-12-5.4-12-12v-1c0 6.6 5.4 12 12 12h128c6.6 0 12-5.4 12-12v1c0 6.6-5.4 12-12 12z"/><radialGradient id="a" cx="23.768" cy="23.933" r="204.625" gradientUnits="userSpaceOnUse"><stop offset="0" stop-color="#fff" stop-opacity=".1"/><stop offset="1" stop-color="#fff" stop-opacity="0"/></radialGradient><path fill="url(#a)" d="M160 172H32c-6.6 0-12-5.4-12-12V32c0-6.6 5.4-12 12-12h128c6.6 0 12 5.4 12 12v128c0 6.6-5.4 12-12 12z"/></g></svg>