<svg xmlns="http://www.w3.org/2000/svg" xmlns:xlink="http://www.w3.org/1999/xlink" width="192" height="192"><path fill="#C8313E" d="M172 160V32c0-6.6-5.4-12-12-12H32c-6.6 0-12 5.4-12 12v128c0 6.6 5.4 12 12 12h128c6.6 0 12-5.4 12-12z"/><path fill="#4AA657" d="M172 160v-38.67H53.78V172H160c6.6 0 12-5.4 12-12z"/><defs><path id="a" d="M172 160V32c0-6.6-5.4-12-12-12H32c-6.6 0-12 5.4-12 12v128c0 6.6 5.4 12 12 12h128c6.6 0 12-5.4 12-12z"/></defs><clipPath id="b"><use xlink:href="#a" overflow="visible"/></clipPath><path clip-path="url(#b)" fill="#FFF" d="M40.55 82.3h-1.47v-2.5h-1.47v-2.49h-1.46v2.49h-1.47v2.49H33.2v2.49h-1.47v2.49h-1.47v2.49h-1.47v12.46h1.47v2.49h1.47v2.49h1.47v2.49h1.47v2.49h1.47v2.49h1.46v-2.49h1.47v-2.49h1.47v-2.49h1.47v-2.49h1.47v-2.49h1.47V89.76h-1.47v-2.49h-1.47v-2.49h-1.47V82.3zm-8.82 13.36v1.58h-1.47v-2.49h1.47v.91zm10.29 0v-.91h1.47v2.49h-1.47v-1.58zM36.14 82.3h1.46v2.49h-1.46V82.3zm1.47 27.4h-1.46v-2.49h1.46v2.49zm2.94-17.44h-1.47v2.49h-1.47v2.49h1.47v2.49h1.47v4.98h-1.47v-2.49h-1.47v-2.49h-1.46v2.49h-1.47v2.49H33.2v-4.98h1.47v-2.49h1.47v-2.49h-1.47v-2.49H33.2v-4.98h1.47v2.49h1.47v2.49h1.46v-2.49h1.47v-2.49h1.47v4.98zm11.76 19.94h1.47v2.49h-1.47v2.49h1.47v4.98h-1.47v-2.49h-1.47v-2.49h-1.47v-2.49H47.9v2.49h-1.47v2.49h-1.47v2.49h2.94v2.49h-4.41v-2.49h-1.47v-2.49h-1.47v-2.49h1.47v-2.49h1.47v-2.49h1.47v-2.49h1.47v-2.49h1.47v-2.49h1.47v2.49h1.47v2.49h1.47v2.49zM21.44 29.97H20v-4.98h1.44V22.5H20V20h5.85v2.49h-1.47v2.49h-1.47v2.49h-1.47v2.5zm30.87 39.87h1.47v4.98h-1.47v2.49h1.47v2.49h-1.47v2.49h-1.47v2.49h-1.47v2.49H47.9v-2.49h-1.47V82.3h-1.47v-2.5h-1.47v-2.49h-1.47v-2.49h-1.47v-2.49h1.47v-2.49h1.47v-2.49h4.41v2.49h-2.94v2.49h1.47v2.49h1.47v2.49h1.47v-2.49h1.47v-2.49h1.47v-2.49zm0 17.44h1.47v17.44h-1.47v-2.49h-1.47v-2.49h-1.47v-2.49H47.9v-2.49h1.47v-2.49h1.47v-2.49h1.47v-2.5zm-26.46 82.23V172H20v-2.49h1.44v-2.49H20v-4.98h1.44v2.49h1.47v2.49h1.47v2.49h1.47zm26.46-7.48h1.47v4.98h-1.47v2.49h1.47v2.5H47.9v-2.49h1.47v-2.49h1.47v-2.49h1.47v-2.5zm0-32.39h-1.47v2.49h-1.47v2.49H47.9v2.49h-1.47v2.49h-1.47v-2.49h-1.47v-2.49h-1.47v-2.49h-1.47v-2.49h-1.47v-2.49h-1.47v-2.49h-1.46v2.49h-1.47v2.49H33.2v2.49h-1.47v2.49h-1.47v2.49h-1.47v2.49h-1.47v-2.49h-1.47v-2.49h-1.47v-2.49h-1.47v-2.49h-1.47v-2.49H20v4.98h1.44v2.49H20v7.48h1.44v-2.49h1.47v-2.49h1.47v2.49h1.47v2.49h1.47v2.49h-1.47v2.49h-1.47v2.49h-1.47v-2.49h-1.47v-2.49H20v7.48h1.44v2.49H20v4.98h1.44v-2.49h1.47v-2.49h1.47v-2.49h1.47v-2.49h1.47v-2.49h1.47v2.49h1.47v2.49h1.47v2.49h1.47v2.49h1.47v2.49h1.47v2.49h-1.47v2.49H33.2v2.49h-1.47v2.49h-1.47v2.5h5.88v-4.98h1.46V172h5.88v-2.49h-1.47v-2.49h-1.47v-2.49h-1.47v-2.49H37.6v-2.49h1.47v-2.49h1.47v-2.49h1.47v-2.49h1.47v-2.49h1.47v-2.49h1.47v2.49h1.47v2.49h1.47v2.49h1.47v2.49h1.47v2.49h1.47v-4.98H52.3v-2.49h1.47v-7.48H52.3v2.49h-1.47v2.49h-1.47v-2.49H47.9v-2.49h-1.47v-2.49h1.47v-2.49h1.47v-2.49h1.47v2.49h1.47v2.49h1.47v-7.48h-1.47v-2.49h1.47v-4.98h-1.47v2.48zm-16.17 2.49h1.46v4.98h-1.46v-4.98zm-1.47 12.46v2.49H33.2v2.49h-1.47v-2.49h-1.47v-2.49h-1.47v-2.49h1.47v-2.49h1.47v-2.49h1.47v2.49h1.47v2.49h1.47v2.49h-1.47zm2.94 9.97h-1.46v-4.98h1.46v4.98zm7.35-9.97h-1.47v2.49h-1.47v2.49h-1.47v-2.49h-1.47v-2.49h-1.47v-2.49h1.47v-2.49h1.47v-2.49h1.47v2.49h1.47v2.49h1.47v2.49zM53.78 20v2.49h-1.47v2.49h1.47v4.98h-1.47v-2.49h-1.47v-2.49h-1.47v-2.49H47.9V20h5.88zm-32.34 84.72H20V87.28h1.44v2.49h1.47v2.49h1.47v2.49h1.47v2.49h-1.47v2.49h-1.47v2.49h-1.47v2.5zm30.87-69.77h-1.47v2.49h-1.47v2.49H47.9v2.49h-1.47v2.49h-1.47v-2.49h-1.47v-2.49h-1.47v-2.49h-1.47v-2.49h-1.47v-2.49h-1.47v-2.49h1.47v-2.49h1.47v-2.49h1.47V22.5h1.47V20h-5.88v4.98h-1.47V20h-5.88v2.49h1.47v2.49h1.47v2.49h1.47v2.49h1.47v2.49h-1.47v2.49H33.2v2.49h-1.47v2.49h-1.47v2.49h-1.47v2.49h-1.47v-2.49h-1.47v-2.49h-1.47v-2.49h-1.47v-2.49h-1.47v-2.49H20v4.98h1.44v2.49H20v7.48h1.44v-2.49h1.47v-2.49h1.47v2.49h1.47v2.49h1.47v2.49h-1.47v2.49h-1.47v2.49h-1.47v-2.49h-1.47V49.9H20v7.48h1.44v2.49H20v4.98h1.44v-2.49h1.47v-2.49h1.47v-2.49h1.47v-2.49h1.47V52.4h1.47v2.49h1.47v2.49h1.47v2.49h1.47v2.49h1.47v2.49h1.47v2.49h1.46v-2.49h1.47v-2.49h1.47v-2.49h1.47v-2.49h1.47v-2.49h1.47V52.4h1.47v2.49h1.47v2.49h1.47v2.49h1.47v2.49h1.47v2.49h1.47v-4.98H52.3v-2.49h1.47V49.9H52.3v2.49h-1.47v2.49h-1.47v-2.49H47.9V49.9h-1.47v-2.49h1.47v-2.49h1.47v-2.49h1.47v2.49h1.47v2.49h1.47v-7.48h-1.47v-2.49h1.47v-4.98h-1.47v2.49zm-16.17 2.49h1.47v4.98h-1.47v-4.98zM34.67 49.9v2.49H33.2v2.49h-1.47v-2.49h-1.47V49.9h-1.47v-2.49h1.47v-2.49h1.47v-2.49h1.47v2.49h1.47v2.49h1.47v2.49h-1.47zm2.94 4.99v4.98H36.14v-4.98h1.47zm7.35-4.99h-1.47v2.49h-1.47v2.49h-1.47v-2.49h-1.47V49.9h-1.47v-2.49h1.47v-2.49h1.47v-2.49h1.47v2.49h1.47v2.49h1.47v2.49zm-23.52 72.26H20v-4.98h1.44v-2.49H20v-2.49h1.44v-2.49h1.47v-2.49h1.47v-2.49h1.47v2.49h1.47v2.49h1.47v2.49h1.47v2.49h1.47v2.49h1.47v2.49h-1.47v2.49h-1.47v2.49h-4.41v-2.49h2.94v-2.49h-1.47v-2.49h-1.47v-2.49h-1.47v2.49h-1.47v2.49h-1.47v2.49zm0-42.36H20v-2.49h1.44v-2.49H20v-4.98h1.44v2.49h1.47v2.49h1.47v2.49h1.47v-2.49h1.47v-2.49h1.47v-2.49h-2.94v-2.49h4.41v2.49h1.47v2.49h1.47v2.49h-1.47v2.49h-1.47v2.49h-1.47v2.49h-1.47v2.49h-1.47v2.49h-1.47v-2.49h-1.47V82.3h-1.47v-2.5z"/><path fill="none" d="M172 160V32c0-6.6-5.4-12-12-12H32c-6.6 0-12 5.4-12 12v128c0 6.6 5.4 12 12 12h128c6.6 0 12-5.4 12-12z" opacity=".4"/><path fill="none" d="M0 0v192h192V0H0z"/><path fill="#DFDFDF" d="M160 20c6.6 0 12 5.4 12 12v128c0 6.6-5.4 12-12 12H32c-6.6 0-12-5.4-12-12V32c0-6.6 5.4-12 12-12h128m0-8H32c-11.03 0-20 8.97-20 20v128c0 11.03 8.97 20 20 20h128c11.03 0 20-8.97 20-20V32c0-11.03-8.97-20-20-20z"/><path fill="#FFF" fill-opacity=".2" d="M160 20H32c-6.6 0-12 5.4-12 12v1c0-6.6 5.4-12 12-12h128c6.6 0 12 5.4 12 12v-1c0-6.6-5.4-12-12-12z"/><path fill="#212121" fill-opacity=".1" d="M160 172H32c-6.6 0-12-5.4-12-12v-1c0 6.6 5.4 12 12 12h128c6.6 0 12-5.4 12-12v1c0 6.6-5.4 12-12 12z"/><radialGradient id="c" cx="23.768" cy="23.933" r="204.625" gradientUnits="userSpaceOnUse"><stop offset="0" stop-color="#fff" stop-opacity=".1"/><stop offset="1" stop-color="#fff" stop-opacity="0"/></radialGradient><path fill="url(#c)" d="M160 172H32c-6.6 0-12-5.4-12-12V32c0-6.6 5.4-12 12-12h128c6.6 0 12 5.4 12 12v128c0 6.6-5.4 12-12 12z"/></svg>