<svg xmlns="http://www.w3.org/2000/svg" width="192" height="192"><path fill="red" d="M160 20H32c-6.6 0-12 5.4-12 12v128c0 6.6 5.4 12 12 12h128c6.6 0 12-5.4 12-12V32c0-6.6-5.4-12-12-12z"/><path fill="#FFF" d="M56 20h80v152H56z"/><path fill="red" d="M96 63.5l-5.46 10.18c-.62 1.11-1.73 1-2.84.39l-3.95-2.05 2.95 15.64c.62 2.86-1.37 2.86-2.35 1.62l-6.9-7.72-1.12 3.92c-.13.51-.7 1.06-1.55.93l-8.72-1.83 2.29 8.33c.49 1.85.87 2.62-.5 3.11l-3.11 1.46 15.01 12.19c.59.46.89 1.29.68 2.04l-1.31 4.31c5.17-.6 9.8-1.49 14.97-2.04.46-.05 1.22.7 1.22 1.23L94.63 131h2.51l-.4-15.76c0-.53.69-1.32 1.15-1.27 5.17.55 9.8 1.45 14.97 2.04l-1.31-4.31c-.21-.75.09-1.58.68-2.04l15.01-12.19-3.11-1.46c-1.37-.49-.99-1.26-.49-3.11l2.29-8.33-8.72 1.83c-.85.13-1.42-.41-1.55-.93l-1.12-3.92-6.9 7.72c-.98 1.24-2.97 1.24-2.35-1.62l2.95-15.64-3.95 2.05c-1.11.62-2.22.72-2.84-.39"/><path fill="none" d="M172 160V32c0-6.6-5.4-12-12-12H32c-6.6 0-12 5.4-12 12v128c0 6.6 5.4 12 12 12h128c6.6 0 12-5.4 12-12z" opacity=".4"/><path fill="none" d="M0 0v192h192V0H0z"/><path fill="#DFDFDF" d="M160 20c6.6 0 12 5.4 12 12v128c0 6.6-5.4 12-12 12H32c-6.6 0-12-5.4-12-12V32c0-6.6 5.4-12 12-12h128m0-8H32c-11.03 0-20 8.97-20 20v128c0 11.03 8.97 20 20 20h128c11.03 0 20-8.97 20-20V32c0-11.03-8.97-20-20-20z"/><path fill="#FFF" fill-opacity=".2" d="M160 20H32c-6.6 0-12 5.4-12 12v1c0-6.6 5.4-12 12-12h128c6.6 0 12 5.4 12 12v-1c0-6.6-5.4-12-12-12z"/><path fill="#212121" fill-opacity=".1" d="M160 172H32c-6.6 0-12-5.4-12-12v-1c0 6.6 5.4 12 12 12h128c6.6 0 12-5.4 12-12v1c0 6.6-5.4 12-12 12z"/><radialGradient id="a" cx="23.768" cy="23.933" r="204.625" gradientUnits="userSpaceOnUse"><stop offset="0" stop-color="#fff" stop-opacity=".1"/><stop offset="1" stop-color="#fff" stop-opacity="0"/></radialGradient><path fill="url(#a)" d="M160 172H32c-6.6 0-12-5.4-12-12V32c0-6.6 5.4-12 12-12h128c6.6 0 12 5.4 12 12v128c0 6.6-5.4 12-12 12z"/></svg>