<svg xmlns="http://www.w3.org/2000/svg" width="192" height="192"><path fill="#003893" d="M172 160V32c0-6.6-5.4-12-12-12H32c-6.6 0-12 5.4-12 12v128c0 6.6 5.4 12 12 12h128c6.6 0 12-5.4 12-12z"/><path fill="#FFF" d="M20 96h152v38H20z"/><path fill="#CF2027" d="M20 109h152v12H20z"/><g fill="#F7D116"><path d="M79.76 77.93l4.47-3.25h-5.52L77 69.43l-1.71 5.25h-5.52l4.47 3.25-1.71 5.25L77 79.93l4.47 3.25zM57.43 85.15l4.46-3.24h-5.52l-1.71-5.25-1.7 5.25h-5.52l4.46 3.24-1.7 5.26 4.46-3.25 4.47 3.25zM57.43 148.06l4.46-3.24h-5.52l-1.71-5.25-1.7 5.25h-5.52l4.46 3.24-1.7 5.25 4.46-3.24 4.47 3.24zM102.1 85.15l4.46-3.24h-5.52l-1.7-5.25-1.71 5.25h-5.52l4.46 3.24-1.7 5.26 4.47-3.25 4.46 3.25zM43.62 127.64l4.47-3.25h-5.52l-1.71-5.25-1.71 5.25h-5.52l4.47 3.25-1.71 5.25 4.47-3.24 4.47 3.24zM79.76 153.9l4.47-3.25h-5.52L77 145.4l-1.71 5.25h-5.52l4.47 3.25-1.71 5.25L77 155.9l4.47 3.25zM102.1 146.64l4.46-3.25h-5.52l-1.7-5.25-1.71 5.25h-5.52l4.46 3.25-1.7 5.25 4.47-3.24 4.46 3.24zM115.9 104.15l4.47-3.24h-5.52l-1.71-5.25-1.71 5.25h-5.52l4.47 3.24-1.71 5.26 4.47-3.25 4.47 3.25zM42.59 104.15l4.47-3.24h-5.53l-1.7-5.25-1.71 5.25H32.6l4.47 3.24-1.71 5.26 4.47-3.25 4.47 3.25zM115.9 128.75l4.47-3.25h-5.52l-1.71-5.25-1.71 5.25h-5.52l4.47 3.25-1.71 5.25 4.47-3.25 4.47 3.25z"/></g><path fill="none" d="M172 160V32c0-6.6-5.4-12-12-12H32c-6.6 0-12 5.4-12 12v128c0 6.6 5.4 12 12 12h128c6.6 0 12-5.4 12-12z" opacity=".4"/><path fill="none" d="M0 0v192h192V0H0z"/><path fill="#DFDFDF" d="M160 20c6.6 0 12 5.4 12 12v128c0 6.6-5.4 12-12 12H32c-6.6 0-12-5.4-12-12V32c0-6.6 5.4-12 12-12h128m0-8H32c-11.03 0-20 8.97-20 20v128c0 11.03 8.97 20 20 20h128c11.03 0 20-8.97 20-20V32c0-11.03-8.97-20-20-20z"/><path fill="#FFF" fill-opacity=".2" d="M160 20H32c-6.6 0-12 5.4-12 12v1c0-6.6 5.4-12 12-12h128c6.6 0 12 5.4 12 12v-1c0-6.6-5.4-12-12-12z"/><path fill="#212121" fill-opacity=".1" d="M160 172H32c-6.6 0-12-5.4-12-12v-1c0 6.6 5.4 12 12 12h128c6.6 0 12-5.4 12-12v1c0 6.6-5.4 12-12 12z"/><radialGradient id="a" cx="23.768" cy="23.933" r="204.625" gradientUnits="userSpaceOnUse"><stop offset="0" stop-color="#fff" stop-opacity=".1"/><stop offset="1" stop-color="#fff" stop-opacity="0"/></radialGradient><path fill="url(#a)" d="M160 172H32c-6.6 0-12-5.4-12-12V32c0-6.6 5.4-12 12-12h128c6.6 0 12 5.4 12 12v128c0 6.6-5.4 12-12 12z"/></svg>