<svg xmlns="http://www.w3.org/2000/svg" width="192" height="192"><path fill="#FFF" d="M172 160V32c0-6.6-5.4-12-12-12H32c-6.6 0-12 5.4-12 12v128c0 6.6 5.4 12 12 12h128c6.6 0 12-5.4 12-12z"/><path fill="#435125" d="M92.15 146.22c-.05-.02-.06-.03-.09-.06l-.03-.03c-.08-.08-.22-.21-.4-.42-.34-.38-.79-.94-1.19-1.44-.79-.98-1.44-1.83-1.56-1.99l-.2-.26-1.97-.61-1.44-.67.77-.86 2.64 1.13 1.97.4 3.64 2.68c-.01.01-.53.44-1.05.91-.23.21-.52.48-.73.71-.1.1-.18.21-.24.29-.03.05-.05.1-.06.12l.23-.14.24.19-.5.05h-.03zm-13.51-4.06c-1.72 0-3.41-.47-5.04-1.41 0 0 .21-.41.73-.78.49-.36 1.38-.79 2.81-.8h.03c1.7 0 3.77.58 6.17 1.72-.08.05-1.96 1.27-4.7 1.27zm-7.44-1.64c-.32 0-.6-.12-.8-.34-.16-.18-.28-.42-.36-.73-.13-.51-.09-1.02-.09-1.07.13-.06.27-.09.4-.09h.03c.64 0 1.14.55 1.35 1.1.12.31.15.57.07.78-.09.2-.32.34-.6.35zM84.29 139c-4.4-.63-6.26-2.22-7.05-3.44-.84-1.3-.67-2.51-.67-2.52 0 0 .27-.07.67-.07 1.18-.01 4.17.57 7.05 6.03zm-9.02-.87c-1.88 0-3.31-.32-4.25-.96-.54-.37-.81-.77-.93-1.05-.12-.26-.15-.47-.15-.51.05-.02.82-.36 1.97-.42.1 0 .19-.01.3-.01 1.45 0 3.66.47 5.99 2.73-1.07.14-2.05.22-2.93.22zm-9.09-.35c-1.98 0-4.7-.6-6.4-2.3h.01c.02 0 1.86-.47 3.93-.52h.37c1.86 0 3.28.36 4.23 1.07.33.25.51.48.55.71.03.19-.07.39-.27.54-.43.32-1.19.49-2.27.51l-.15-.01zm-6.42-3.3c-.24 0-.47-.11-.63-.3-.13-.16-.22-.36-.28-.64-.11-.47-.07-.93-.07-.93.09-.04.2-.07.31-.07.29 0 .52.16.66.29.19.18.34.42.43.67.09.26.11.48.05.67-.07.15-.24.31-.47.31zm14.83-.33c-.32 0-.6-.12-.8-.34-.16-.18-.28-.42-.36-.73-.13-.51-.09-1.02-.09-1.07.13-.06.27-.09.4-.09h.03c.64 0 1.14.55 1.35 1.1.12.31.15.57.07.78-.09.21-.33.35-.6.35zm-7.23-.3c-3.99-.14-6.06-1.27-7.09-2.2-.58-.52-.91-1.04-1.07-1.38-.16-.32-.22-.57-.23-.62h.01s.38-.13.98-.15h.09c1.35 0 4.08.57 7.31 4.35zm4.33-.4c-3.21-.49-5.02-1.87-5.98-2.93-1.01-1.12-1.31-2.16-1.32-2.21.01 0 .4-.1.99-.12h.27c1.61.03 4.54.76 6.04 5.26zm-16.46-1.54c-1.05 0-2.07-.12-3.03-.36-1.68-.42-2.4-1.06-2.71-1.53-.18-.26-.24-.49-.26-.64-.02-.14-.01-.25-.01-.27h.01s1.11-.31 2.65-.34h.18c.74 0 1.47.07 2.17.21 2.67.53 4.05 2.55 4.07 2.57-.02 0-1.29.36-3.07.36zm7.44-2.71c-.32 0-.61-.12-.8-.33-.16-.18-.28-.42-.36-.74-.13-.51-.09-1.01-.09-1.06.13-.06.27-.09.4-.09h.03c.63 0 1.14.55 1.35 1.1.12.3.14.56.06.77-.08.21-.31.35-.59.35zm-5.6-.77c-.02-.01-1.51-.39-3.03-1.32-1.4-.86-3.12-2.39-3.33-4.77 0 0 .13-.03.32-.04h.08c.42 0 1.28.12 2.32.91 1.33 1 2.55 2.76 3.64 5.22zm3.66-.13c-.01 0-1.07-.43-2.4-1.54-1.24-1.04-2.98-2.9-4.23-5.91 0 0 .29-.15.73-.18h.2c.61.02 1.54.27 2.57 1.38 1.18 1.28 2.24 3.38 3.13 6.25zm-9.47-.28c-1.22 0-1.64-.66-1.76-.95-.2-.47-.14-.93-.14-.94v-.01c.2-.05.41-.08.61-.08h.04c.96 0 1.72.49 2.05.97.06.1.26.43.1.69-.14.22-.44.32-.9.32zm-2.71-3.41c-.68 0-1.73-.04-2.82-.24-1.09-.2-1.7-1.12-2.03-1.86-.35-.81-.45-1.58-.46-1.58 3.36.1 4.95 1.08 5.69 1.89.76.83.81 1.7.81 1.75.01 0-.47.04-1.19.04zm3.5-3.5c0-.01-.39-.48-.77-1.07-.4-.62-.77-1.27-.77-1.79 0-.51-.12-1.59-.19-2.18-.09-.76-.18-1.4-.19-1.46.09.03 2.1.79 2.1 2.68.02 1.89-.17 3.8-.18 3.82zm-2.61-.18c-.02 0-.04 0-.06-.01-.6-.1-1.65-.56-2.81-1.22-1.29-.74-2.33-1.53-2.94-2.23-.56-.64-.89-1.64-.98-2.97-.07-.95.01-1.74.02-1.81.1-.03.22-.05.33-.05.45.01.92.21 1.57.65.5.35 1.06.82 1.64 1.4 1.02 1 1.82 2.01 1.82 2.02l.01.01c.07.12.64 1.16 1.09 2.17.28.64.45 1.1.51 1.46.04.2.05.33 0 .45-.02.05-.06.1-.1.11-.03.01-.06.02-.1.02zm35.76 25.29c.05-.02.06-.03.09-.06l.03-.03c.08-.08.22-.21.4-.42.34-.38.79-.94 1.19-1.44.79-.98 1.44-1.83 1.56-1.99l.2-.26 1.97-.61 1.44-.67-.77-.86-2.64 1.13-1.97.4-3.64 2.68c.01.01.53.44 1.05.91.23.21.52.48.73.71.1.1.18.21.24.29.03.05.05.1.06.12l-.23-.14-.24.19.5.05h.03zm13.52-4.06c1.72 0 3.41-.47 5.04-1.41 0 0-.21-.41-.73-.78-.49-.36-1.38-.79-2.81-.8h-.03c-1.7 0-3.77.58-6.17 1.72.07.05 1.96 1.27 4.7 1.27zm7.44-1.64c.32 0 .6-.12.8-.34.16-.18.28-.42.36-.73.13-.51.09-1.02.09-1.07a.968.968 0 00-.4-.09h-.03c-.64 0-1.14.55-1.35 1.1-.12.31-.15.57-.07.78.08.2.32.34.6.35zM93.06 139c4.4-.63 6.26-2.22 7.05-3.44.84-1.3.67-2.51.67-2.52 0 0-.27-.07-.67-.07-1.18-.01-4.17.57-7.05 6.03zm9.02-.87c1.88 0 3.31-.32 4.25-.96.54-.37.81-.77.93-1.05.12-.26.15-.47.15-.51-.05-.02-.82-.36-1.97-.42-.1 0-.19-.01-.3-.01-1.45 0-3.66.47-5.99 2.73 1.07.14 2.06.22 2.93.22zm9.09-.35c1.98 0 4.7-.6 6.4-2.3h-.01c-.02 0-1.86-.47-3.93-.52h-.37c-1.86 0-3.28.36-4.23 1.07-.33.25-.51.48-.55.71-.03.19.07.39.27.54.43.32 1.19.49 2.27.51l.15-.01zm6.42-3.3c.24 0 .47-.11.63-.3.13-.16.22-.36.28-.64.11-.47.07-.93.07-.93a.783.783 0 00-.31-.07c-.29 0-.52.16-.66.29-.19.18-.34.42-.43.67-.09.26-.11.48-.05.67.07.15.24.31.47.31zm-14.82-.33c.32 0 .6-.12.8-.34.16-.18.28-.42.36-.73.13-.51.09-1.02.09-1.07a.968.968 0 00-.4-.09h-.03c-.64 0-1.14.55-1.35 1.1-.12.31-.15.57-.07.78.08.21.32.35.6.35zm7.22-.3c3.99-.14 6.06-1.27 7.09-2.2.58-.52.91-1.04 1.07-1.38.16-.32.22-.57.23-.62h-.01s-.38-.13-.98-.15h-.09c-1.35 0-4.08.57-7.31 4.35zm-4.33-.4c3.21-.49 5.02-1.87 5.98-2.93 1.01-1.12 1.31-2.16 1.32-2.21-.01 0-.4-.1-.99-.12h-.27c-1.61.03-4.54.76-6.04 5.26zm16.47-1.54c1.05 0 2.07-.12 3.03-.36 1.68-.42 2.4-1.06 2.71-1.53.18-.26.24-.49.26-.64.02-.14.01-.25.01-.27h-.01s-1.11-.31-2.65-.34h-.18c-.74 0-1.47.07-2.17.21-2.67.53-4.05 2.55-4.07 2.57.01 0 1.28.36 3.07.36zm-7.45-2.71c.32 0 .61-.12.8-.33.16-.18.28-.42.36-.74.13-.51.09-1.01.09-1.06a.968.968 0 00-.4-.09h-.03c-.63 0-1.14.55-1.35 1.1-.12.3-.14.56-.06.77.08.21.31.35.59.35zm5.6-.77c.02-.01 1.51-.39 3.03-1.32 1.4-.86 3.12-2.39 3.33-4.77 0 0-.13-.03-.32-.04h-.08c-.42 0-1.28.12-2.32.91-1.33 1-2.55 2.76-3.64 5.22zm-3.66-.13c.01 0 1.07-.43 2.4-1.54 1.24-1.04 2.98-2.9 4.23-5.91 0 0-.29-.15-.73-.18h-.2c-.61.02-1.54.27-2.57 1.38-1.18 1.28-2.23 3.38-3.13 6.25zm9.48-.28c1.22 0 1.64-.66 1.76-.95.2-.47.14-.93.14-.94v-.01c-.2-.05-.41-.08-.61-.08h-.04c-.96 0-1.72.49-2.05.97-.06.1-.26.43-.1.69.13.22.43.32.9.32zm2.7-3.41c.68 0 1.73-.04 2.82-.24 1.09-.2 1.7-1.12 2.03-1.86.35-.81.45-1.58.46-1.58-3.36.1-4.95 1.08-5.69 1.89-.76.83-.81 1.7-.81 1.75 0 0 .47.04 1.19.04zm-3.5-3.5c0-.01.39-.48.77-1.07.4-.62.77-1.27.77-1.79 0-.51.12-1.59.19-2.18.09-.76.18-1.4.19-1.46-.09.03-2.1.79-2.1 2.68-.01 1.89.17 3.8.18 3.82zm2.61-.18c.02 0 .04 0 .06-.01.6-.1 1.65-.56 2.81-1.22 1.29-.74 2.33-1.53 2.94-2.23.56-.64.89-1.64.98-2.97.07-.95-.01-1.74-.02-1.81-.1-.03-.22-.05-.33-.05-.45.01-.92.21-1.57.65-.5.35-1.06.82-1.64 1.4-1.02 1-1.82 2.01-1.82 2.02l-.01.01a29.9 29.9 0 00-1.09 2.17c-.28.64-.45 1.1-.51 1.46-.04.2-.05.33 0 .45.02.05.06.1.1.11.03.01.07.02.1.02z"/><path fill="#D47600" d="M159.04 44.19l-.6.24-.23.09-.72-.04-.68.33-1.2.82-.05.04-.45.12-.42-.18-.24.11-.08.49-.22.35-.28.19-.96.1-.81.42-1.05-.28-.49.19-1.04.94-.52.23-.19-.01-.7-.04-.3.1-.44.43-.84.07-.26.18-.41.83-.44.46-.25.05-.28-.1-.21.04-.09.53-.2.22-.56.19-.45.37-.39.2-.53-.01h-.12l-.53.29-.99.09-.41.39-.09.08-.19.12-.31.19-.08.05-.38-.07-.44.18-.18-.28-.31.18-.41.02-.51-.23-.39-.17-.28.04-.1.49-.01.05-.3.39-.55.34-.08.1-.63.81-1.2 1.26-1.01.51-1.05.32-.73.6-1.93.95-3.04 1.51-.62.2-.89.14-1.59.59-1.4.42-.08.02-.28.08-1.98.6-.92-.1-.55.2-1.42-.16-.99.02-.62.13-1.17.56-1.98.95-.66.6-1.02.53-1.19.38v-.5l-.01-.02-.41.13-.3.09-.97.15h-.54l-.33-.1-.05.02-1.98.65-2.21.21-1.11.35-.83-.01-.52.15-1.01.12-.36-.1-.08-.02-2.98.13-1.36-.15-.65.15-1.09-.37-1.59-.18-.37-.11-.83-.25-.38.22-.28.03-.68-.24-.23.02-.56.2-.32-.08-.3-.24-.7-.1-.43-.36-2.38.32-.65-.19-2.17-.63-.34.02-.43.32-.65.24-.56.15-.76.03-.89-.23-.91-.44-.34-.08-.75.08-.23.02-1.38-.74-1.78-1.12-1.21-.58-.45-.07-.06.22.23.71.08.7-.02.65-.01.4.11.36.44.48.18.49.13 1.34v1.36L70.38 71l-.07.33-.25 1.12-.23 1.03-.9 2.74-.25.34-.61.41-1.37.93-1.01.58-.32.13-.82.06-.51-.03-.64-.34-.62-.16-.82-.59-.91-.19-1-.58-.26-.31-.54-.05-.75-.23-.28-.08-.22-.07-.96-.03-.9-.41-.47-.11-.65-.03-.68.31-.34.16-.43-.17-.31.02-.35.54-.05.08-.24.13h-.3l-.24-.01-.26.11-.35.15-.31.13-.15.06-.09.02-.16.03-.2.04-.36-.21-.2-.11-.32-.06-.17.12-.03.58-.16.35-.5.44-.5.44-.35.52-.93 2.13-.58.86-.18.2-.61.67-.54.42-1.25.97-1.18.44-1.02.21h-.49l-.94-.12-.84-.26-.92-.58-1.01-.81L36 81.8l-.21-.12-.04-.03-.46-.3-.34.01-.13.22-.07.32-.06.28-.17 1.61.01.09.09.66 1.11 1.56.34.83.06.09.23.39.18.29.02.03.38 1.14-.27.64.14.43-.34.26-.06.37 1 1.25.22.55-.24.77-.39.42-.11.12.05.32.46.41.78.7.42 1.04.32.28.37-.08.21.16.31-.01.31.31.2.1.31.16.25.32.05.99.46 1.23.01.67v.09l.29.49.09.39-.15 1.03.37.33.4-.08.26.04.41.34.5.76.49-.07.31.15 1.5 1.35.34.17.02.01.24.12.3.31.47-.31.05-.01.51-.05.22.15.43.29.57-.01 1.23.38.54.14 1.08.67.46.28.27.22.36.29.72.31.62.15.33.08.25.1.01-.02-.01.02 1.34.51.73.17.67.25.49.18.36.01.51-.43.49-.03.41.1.4-.07.63-.39.12-.18.45-.21 1.51-.19.44.14 1.13-.49.76.21.67-.24 1.46.33.39.27.43.5h.05l.48.01-.2.34.64.67.58.87.04.12.42 1.23.31.44.22.61.01.4-.34.26-.06.15-.02.05.07.17.13-.07.24-.14.3-.05.52.06.35.04.55-.27.36-.18.58.25.64-.01.27.12.76.34.39.04.14-.09.09-.22-.05-.25-.29-.34-.64-.74-.26-.38-.2-.55-.06-.71-.04-.48.08-.63.17-.22.13-.5.03-.13.36-.47.94-.61 1.01-.91.8-.53.83-.36.02-.1.09.04 2.1-.71h.03l.94-.16 6.31.44.23-.07.21-.59.11-.11.08-.07.69-.31.32-.05.9.22.37.09.59-.33.42.01.87-.47.53.01.2-.08 1.04-.75 1-.29.26-.14.09-.05 1.03-.54.65-.5.56-.3.62-.16 1.62-.11.33-.54.7-.09.42-.47.48-.2.34-.5.29-.42.4-.23 1.29-.08 1.53.19.2-.12.35-1.24.36-.23.98-1.42v-.95l.16-.62-.11-1.11.13-1.13.61-1.43.53-.58.86-.58.44-.19.62-.1.09-.02.16-.03 2.14-.03c.03-.02.78-.01.78-.01l.71-.01 1.8.32.13.02.61.2.7.55.74.73.14.14.48.2.15.06.4-.06.57-.3.43-.36.58-.32.01-.02.33-.49.01-.01h.01-.01l.13-.2 1.13-.44 1.32-.08.15-.08.08-.04.35-.41h.33l.79.29.56-.11.44.18.34-.04.65-.08.7.49.41.05 1.43.84.07.01.04.01.08.01.17-.05.25-.07.03-.01.03.04.16.23.22.03.26-.35-.11-.16-.04-.06-.51-.1-.46-.79.44-.47-.69-.84-.1-.12-.04-.06-.24-.36-1.2-1.83-1.57-1.25-.55-.44-.19-.15-.84-.85-.6-.79-.08-.17-.12-.27-.36-.78-.62-.48-.51-.56-.02-.03-1.05-1.43-.17-.24-.25-.14h-.52l-.05-.05-.03-.03.02-.02.25-.25.28-.07.12-.28-.53-1.55v-.05l-.04-.49.44-2.24.06-.27.74-1.51.46-.38.5-.99.43-.63.41-.4.07-.04.74-.45.62-.09.59-.08 1.04.32.99-.02.19-.02.45-.05.74-.23.35-.21.18-.28.38-1.26.12-.4.23-.44 1.34-1.55 1.02-.94 2.28-1.68 1.12-.67.57-.34 5.1-2.27 1.32-1.34.69-.7 1.22-.82 1.43-.59 1.23-.97.27-.34.34-1.09.28-.07.25-.55.07-.16 1-.71.11-.06 3.9-1.95.57.08.3-.45 1.13-.19.21-.04.28-.14.24-.41v-.08l.03-1.08.24-.29.13-.71.12-.16.13-.17.32-.23-.02-.13z"/><path fill="none" d="M172 160V32c0-6.6-5.4-12-12-12H32c-6.6 0-12 5.4-12 12v128c0 6.6 5.4 12 12 12h128c6.6 0 12-5.4 12-12z" opacity=".4"/><path fill="none" d="M0 0v192h192V0H0z"/><path fill="#DFDFDF" d="M160 20c6.6 0 12 5.4 12 12v128c0 6.6-5.4 12-12 12H32c-6.6 0-12-5.4-12-12V32c0-6.6 5.4-12 12-12h128m0-8H32c-11.03 0-20 8.97-20 20v128c0 11.03 8.97 20 20 20h128c11.03 0 20-8.97 20-20V32c0-11.03-8.97-20-20-20z"/><path fill="#FFF" fill-opacity=".2" d="M160 20H32c-6.6 0-12 5.4-12 12v1c0-6.6 5.4-12 12-12h128c6.6 0 12 5.4 12 12v-1c0-6.6-5.4-12-12-12z"/><path fill="#212121" fill-opacity=".1" d="M160 172H32c-6.6 0-12-5.4-12-12v-1c0 6.6 5.4 12 12 12h128c6.6 0 12-5.4 12-12v1c0 6.6-5.4 12-12 12z"/><radialGradient id="a" cx="23.768" cy="23.933" r="204.625" gradientUnits="userSpaceOnUse"><stop offset="0" stop-color="#fff" stop-opacity=".1"/><stop offset="1" stop-color="#fff" stop-opacity="0"/></radialGradient><path fill="url(#a)" d="M160 172H32c-6.6 0-12-5.4-12-12V32c0-6.6 5.4-12 12-12h128c6.6 0 12 5.4 12 12v128c0 6.6-5.4 12-12 12z"/></svg>