<svg xmlns="http://www.w3.org/2000/svg" width="192" height="192"><path fill="#FFF" d="M172 160V32c0-6.6-5.4-12-12-12H32c-6.6 0-12 5.4-12 12v128c0 6.6 5.4 12 12 12h128c6.6 0 12-5.4 12-12z"/><path fill="#006233" d="M32 20c-6.6 0-12 5.4-12 12v128c0 6.6 5.4 12 12 12h64V20H32z"/><g fill="#D21034"><path d="M109.15 102.86l8.13 11.13v-13.78L130.2 96l-12.92-4.21V78.01l-8.13 11.13L96 84.85 104.14 96 96 107.15z"/><path d="M86.2 119.73C73.1 109.24 70.98 90.11 81.47 77s29.62-15.22 42.73-4.73c1.75 1.4 3.33 2.98 4.73 4.73-10.49-18.18-33.73-24.4-51.91-13.91S52.62 96.82 63.12 115s33.73 24.4 51.91 13.91A38.029 38.029 0 00128.94 115c-10.5 13.11-29.63 15.22-42.74 4.73z"/></g><path fill="none" d="M172 160V32c0-6.6-5.4-12-12-12H32c-6.6 0-12 5.4-12 12v128c0 6.6 5.4 12 12 12h128c6.6 0 12-5.4 12-12z" opacity=".4"/><path fill="none" d="M0 0v192h192V0H0z"/><path fill="#DFDFDF" d="M160 20c6.6 0 12 5.4 12 12v128c0 6.6-5.4 12-12 12H32c-6.6 0-12-5.4-12-12V32c0-6.6 5.4-12 12-12h128m0-8H32c-11.03 0-20 8.97-20 20v128c0 11.03 8.97 20 20 20h128c11.03 0 20-8.97 20-20V32c0-11.03-8.97-20-20-20z"/><path fill="#FFF" fill-opacity=".2" d="M160 20H32c-6.6 0-12 5.4-12 12v1c0-6.6 5.4-12 12-12h128c6.6 0 12 5.4 12 12v-1c0-6.6-5.4-12-12-12z"/><path fill="#212121" fill-opacity=".1" d="M160 172H32c-6.6 0-12-5.4-12-12v-1c0 6.6 5.4 12 12 12h128c6.6 0 12-5.4 12-12v1c0 6.6-5.4 12-12 12z"/><radialGradient id="a" cx="23.768" cy="23.933" r="204.625" gradientUnits="userSpaceOnUse"><stop offset="0" stop-color="#fff" stop-opacity=".1"/><stop offset="1" stop-color="#fff" stop-opacity="0"/></radialGradient><path fill="url(#a)" d="M160 172H32c-6.6 0-12-5.4-12-12V32c0-6.6 5.4-12 12-12h128c6.6 0 12 5.4 12 12v128c0 6.6-5.4 12-12 12z"/></svg>