<svg xmlns="http://www.w3.org/2000/svg" width="192" height="192"><path d="M160 20H32c-6.6 0-12 5.4-12 12v128c0 6.6 5.4 12 12 12h128c6.6 0 12-5.4 12-12V32c0-6.6-5.4-12-12-12z"/><path fill="#FFF" d="M160 20H32c-6.6 0-12 5.4-12 12v92h152V32c0-6.6-5.4-12-12-12z"/><path fill="#CE1126" d="M160 20H32c-6.6 0-12 5.4-12 12v36h152V32c0-6.6-5.4-12-12-12z"/><path fill="#C09300" d="M114.15 82.19c-.12-3.04-1.79-3.67-3.16-3.67-1.7 0-3.63.96-4.63 1.53-1.63 1.04-3.45 1.57-5.43 1.57h-.01c-.75-1.29-1.41-3.91-1.3-6.24.12-3.02-.43-4.23-.91-4.71-.58-.58-2.4-1.1-3.64-1.17-.29-.01-.49.06-.62.22-.06.08-.1.16-.11.24-1.38-.33-2.45-.33-2.96.01-.48.32-.64 1.48-.51 1.89.07.22.21.25.27.25.06 0 .13-.02.19-.07.23-.19.47-.28.7-.28.55 0 1.04.54 1.35.99.42.61.46 2.5-.27 4.93-.45 1.5-1.39 3.01-2.05 3.94a9.98 9.98 0 01-5.39-1.57c-1-.57-2.92-1.53-4.62-1.53-1.37 0-3.04.64-3.16 3.67L76.5 114.4c0 .07.04.14.1.17.02.01.05.02.08.02.04 0 .09-.02.12-.05l10.05-9.12-2.07 7.36c-.47-.13-.87-.25-1.17-.35-.07-.02-.15-.02-.22-.02-.26 0-.51.09-.72.24-.54 0-1.03.27-1.33.75-.3.49-.37 1.11-.18 1.6-.04.12-.08.24-.1.38-.56.05-.91.49-1.19.85-.19.24-.37.48-.55.5-.06-.01-.13-.02-.2-.02-.17 0-.31.12-.33.29-.02.17.08.32.25.36.06.02.13.03.19.03.08.05.12.21.18.47.1.43.26 1.07.94 1.4.01.83.13 1.63 1.62 1.9 2.97.84 8.08 1.33 14.04 1.33 5.95 0 11.08-.48 14.08-1.33 1.45-.27 1.57-1.07 1.58-1.9.69-.33.84-.97.94-1.4.06-.26.11-.42.18-.47.06 0 .12-.01.19-.03.16-.04.27-.2.24-.36a.326.326 0 00-.33-.29c-.07 0-.14.01-.2.02-.18-.03-.36-.26-.55-.5-.28-.36-.63-.8-1.19-.85-.02-.14-.05-.26-.1-.38.18-.49.12-1.11-.18-1.6-.3-.48-.78-.75-1.32-.75-.21-.15-.46-.24-.72-.24-.08 0-.15.01-.24.03-.29.1-.69.22-1.16.35l-2.12-7.53.79.64 9.31 8.64c.05.05.13.06.2.03s.11-.1.1-.17l-1.36-32.21zm-3.57 32.51a2.18 2.18 0 00-.53-.26c-.24-.1-.49-.19-.56-.33-.09-.26-.07-.39-.05-.53a.88.88 0 00-.07-.58c.55.01.86.37.99.59.22.33.29.76.22 1.11zm1.55 2.49c-.08.17-.13.36-.17.52-.11.45-.2.84-.74 1.02a.33.33 0 00-.23.31c0 .88 0 1.28-1.05 1.47-.01 0-.02 0-.03.01-2.95.83-8.02 1.31-13.92 1.31-5.82 0-11.01-.49-13.88-1.31-.01 0-.02-.01-.03-.01-1.08-.18-1.08-.58-1.08-1.46 0-.14-.09-.27-.23-.31-.53-.18-.63-.57-.74-1.02-.04-.17-.09-.36-.17-.53.2-.15.36-.36.51-.55.34-.43.55-.66.9-.59.1.02.2 0 .28-.07.08-.06.12-.16.12-.26 0-.53.21-.83.51-1 .07-.03.15-.06.22-.1.18-.06.38-.09.57-.09.03.01.05.03.08.04 1.26.35 3.1.71 4.31.93.06.26.21.46.35.64.17.23.34.44.34.79 0 .1.08.18.18.18s.18-.08.18-.18c0-.36.17-.51.38-.69.13-.12.28-.25.38-.44.84.1 1.88.18 2.87.18.59 0 1.1-.03 1.54-.08.09-.01.18-.03.26-.05.06.22.3.38.54.55.28.19.56.39.56.64 0 .08.05.14.12.17.02.01.04.01.05.01.06 0 .11-.03.14-.07.25-.35.44-.85.49-1.34.08 0 .17.01.25.01h.25c.05.49.23.99.48 1.33.03.05.09.07.14.07.02 0 .04 0 .05-.01.07-.02.12-.09.12-.17 0-.26.29-.45.56-.64.24-.17.47-.33.54-.55.08.02.17.04.26.05.43.06.95.08 1.54.08.99 0 2.03-.08 2.87-.18.1.2.25.33.38.44.21.19.38.33.38.69 0 .1.08.18.18.18.1 0 .18-.08.18-.18 0-.35.17-.56.34-.79.14-.18.29-.38.35-.64 1.21-.22 3.05-.58 4.33-.94.02-.01.04-.02.07-.03.19.01.38.03.56.09.07.04.15.07.23.1.29.17.51.47.51 1 0 .1.05.2.12.26.08.06.18.09.28.07.36-.08.57.16.9.59.16.19.32.4.52.55zm-30.5-3.61c.13-.22.44-.58.99-.59-.11.23-.1.39-.07.58.02.14.05.27-.04.52-.07.15-.32.25-.56.35-.19.07-.38.15-.53.26-.07-.35 0-.78.21-1.12zm3.83-33.24c1.6 1.03 3.39 1.57 5.33 1.62-.27.37-.45.59-.45.6l-.23.28h.36c.83 0 1.87-.51 2.4-.81l-.36 1.5.32-.15c.94-.45 1.72-1.08 2.02-1.34l1.14 1.2.12-.16c.27-.36.76-.83.98-1.04.3.28 1.16.94 2.36 1.05.07 0 .13-.03.17-.09.03-.05.1-.15-.08-.67.72.3 1.84.38 2 .39l.08-.32c-.15-.07-.31-.21-.47-.42 1.96-.04 3.78-.58 5.4-1.61 1.67-.95 3.25-1.48 4.45-1.48 1.74 0 2.68 1.08 2.8 3.2-.65-.43-1.62-1-2.02-1l1.31 31-.64-.6-1.34-29.92c-.44.44-1.76 1.52-2 1.76l1.12 26.08-.89-.83L108.2 84c-.44.44-1.32 1.08-1.56 1.32l.87 21.59-.89-.82-.86-20.33c-.31.14-.84.42-1.28.57v-.01l-.01-.18-.18.04c-.24.05-.45.07-.68.07-1.88 0-6.39-1.09-7.4-2.42l-.12-.15-.13.14c-1.09 1.2-5.65 2.43-7.57 2.43-.23 0-.46-.02-.68-.07l-.18-.04-.01.18v.01c-.44-.15-.97-.43-1.29-.57l-.87 20.52-.89.8.88-21.77c-.24-.24-1.12-.88-1.56-1.32l-1.11 24.72-.89.81 1.12-26.2c-.24-.24-1.56-1.32-2-1.76l-1.35 29.99-.64.58 1.31-31.05c-.4 0-1.36.56-2.01.99.12-2.12 1.06-3.2 2.8-3.2 1.2 0 2.78.52 4.44 1.47zM96 71.08c0 .18-.15.33-.33.33s-.33-.15-.33-.33c0-.18.15-.33.33-.33s.33.15.33.33zm-2.1 2.16c.03-.05.08-.09.13-.14.03-.03.1-.06.28-.06.28 0 .63.08.64.08l.11.02-.06-.09c-.96-1.63-2.08-2.21-2.75-2.21h-.06c-.5.02-.81.52-.95.83l-.09.06c-.02-.12-.03-.38.03-.69.03-.18.08-.34.14-.47.16-.12.41-.25.81-.28.12-.01.22-.01.31-.01.56 0 .81.15 1.32.56.65.51 1.14.74 1.46.69.03 0 .08.07.11.13.03.04.06.09.09.13.01.02.02.03.03.05.06.08.11.14.35.14.15 0 .24-.16.32-.3.04-.07.08-.14.12-.17.13-.1.37-.16.54-.19l.06-.01c.28-.07.46-.08.64-.1.07-.01.14-.01.23-.02.02 0 .09-.01.21-.01.18 0 .55.02.81.17.31.59.61 1.75.52 4.03-.12 2.63.72 5.8 1.72 6.96-.6-.08-1.38-.24-1.66-.5-1.01-1.49-1.27-5.67-1.27-5.71l-.35.02c.01.18.27 4.33 1.33 5.9.11.25.21.54.25.71-1.11-.16-1.88-.85-2.05-1.01-.24-.74-.29-4.47-.29-5.85h-.33c0 .2 0 4.78.28 5.89-.18.17-.61.58-.93.96l-.89-.94c.77-1.6 1.01-5.9 1.02-6.09l-.35-.02c0 .05-.25 4.59-1.02 6.04-.15.14-.84.73-1.7 1.2l.27-1.13c1.18-1.35 1.79-5.77 1.82-5.96l-.35-.05c-.01.05-.63 4.53-1.75 5.79-.2.12-1.25.74-2.15.9.57-.75 1.97-2.7 2.56-4.69.54-1.82.71-3.52.49-4.56zm9.16 42.05c0-.38.21-.94.5-.94.34 0 .7.36.7.7v.04c.09.39-.07.59-.27.85-.09.11-.18.23-.25.37-.09-.13-.21-.23-.31-.32-.2-.2-.37-.34-.37-.7zm-15.33-.21v-.04c0-.34.36-.7.7-.7.29 0 .5.56.5.94 0 .36-.17.51-.38.69-.1.09-.21.19-.31.32-.08-.14-.17-.26-.25-.37-.19-.24-.35-.45-.26-.84zm1.21-12.54l-.54-1.32-.03.01 1.4-4.96c.22.44.45.88.71 1.33l.34 3.15-1.88 1.79zm15.91 1.79l-.96-3.39-.32-8.08c.28-.93.48-1.81.61-2.6l.67 14.07zm-7.03 11.4c0 .11-.22.25-.4.38-.2.14-.44.3-.58.51-.25-.52-.35-1.2-.13-1.64a.67.67 0 01.43-.36c-.05.29.18.48.35.62.21.16.33.28.33.49zm-.45-1.5c-.56.02-.84.33-.98.59-.05.1-.09.22-.11.33h-.27c-.1 0-.2-.01-.3-.01-.03-.11-.06-.22-.11-.32-.13-.26-.41-.56-.96-.59-.2-.27-.52-.44-.86-.44-.41.05-.88.08-1.39.08l.24-1.07.69.69 1.08-.79 1.01-7.24-.42 7.21 1.03 1.31 1.03-1.31-.42-7.21 1.01 7.24 1.07.79.69-.68.23 1.07c-.5 0-.96-.03-1.37-.08-.36-.01-.68.17-.89.43zm-2.21 2.4c-.14-.21-.38-.38-.58-.51-.19-.13-.4-.28-.4-.38 0-.21.12-.32.33-.49.17-.13.39-.32.35-.62a.7.7 0 01.43.36c.22.43.12 1.12-.13 1.64zm-7.33-30.11c.18.03.37.04.56.04 1.76 0 6.28-1.1 7.68-2.4 1.29 1.37 5.7 2.4 7.54 2.4.19 0 .37-.01.56-.04.04 1.38.01 10.5-8.17 16.87-8.18-6.36-8.21-15.48-8.17-16.87zm13.26 11.77l-.23 2.15-.76-.73c.36-.47.69-.95.99-1.42zm-13.27-8.03c.14.79.33 1.67.61 2.61l-.32 8.07-.96 3.39.67-14.07zm3.09 8.05c.3.47.63.94.98 1.41l-.76.72-.22-2.13zm1.2 1.69c.36.46.75.91 1.17 1.35l-1.8 2.35-.3-2.82.93-.88zm1.42 1.61c.31.32.65.64 1 .96l-.62 2.8-.13.2-.9-3.11.65-.85zm.12 4.8l.02.06-1.05 4.8-.52-2.48 1.55-2.38zm-1.22 5.69l-.39 1.76c-.44-.01-.88-.03-1.33-.07l-.55-1.69c-.02-.07-.08-.11-.15-.12a.168.168 0 00-.17.09l-.9 1.54c-.11-.01-.22-.03-.33-.04l-.68-2.27 1.38-2.28.76 2.32c.02.06.08.11.15.12.07.01.13-.02.17-.08l1.43-2.22.61 2.94zm-2.1 1.66c-.35-.03-.69-.07-1.01-.11l.63-1.06.38 1.17zm-.04-2.88l-.76-2.33c-.02-.07-.08-.11-.15-.12h-.02c-.06 0-.12.03-.15.09l-1.39 2.28-1.02-3.76 2-2.05.63 2.25c.02.07.07.11.14.13.07.01.13-.01.17-.07l1.39-1.88.59 3.25-1.43 2.21zm-2.64.73l.57 1.91c-.6-.09-1.18-.19-1.71-.31l1.14-1.6zm14.02 2.16l.39-1.17.63 1.07c-.34.03-.68.06-1.02.1zm2.11-.26l.57-1.91 1.14 1.6c-.53.12-1.11.23-1.71.31zm.4-2.72l-1.39-2.28a.169.169 0 00-.17-.08c-.07.01-.13.06-.15.12l-.76 2.33-1.42-2.21.59-3.25 1.39 1.88c.04.05.11.08.17.07.07-.01.12-.06.14-.13l.63-2.25 2 2.05-1.03 3.75zm-2.57.59c.04.06.1.09.17.08.07-.01.12-.06.15-.12l.76-2.32 1.38 2.28-.68 2.27c-.11.01-.22.03-.33.04l-.91-1.54a.196.196 0 00-.17-.09c-.07.01-.13.05-.15.12l-.55 1.69c-.44.03-.89.06-1.33.07l-.39-1.76.62-2.94 1.43 2.22zm-2.23-.12l-1.05-4.8.02-.06 1.56 2.37-.53 2.49zm-1.29-5.88l-.62-2.81c.35-.31.68-.63.99-.96l.65.86-.9 3.11-.12-.2zm.62-4.04c.42-.45.81-.9 1.17-1.35l.93.89-.3 2.82-1.8-2.36zm2.48-.59l.34-3.17c.26-.44.49-.88.71-1.32l1.4 4.97-.03-.01-.54 1.32-1.88-1.79zm-12.96.98l.49 1.18c.02.05.07.09.13.11h.04c.05 0 .09-.02.12-.05l1.86-1.78.32 2.99c.01.07.06.13.13.15.02 0 .03.01.05.01.05 0 .11-.03.14-.07l1.11-1.46.91 3.15-1.53 2.32-.6-3.33a.171.171 0 00-.13-.14c-.07-.01-.14.01-.18.07l-1.41 1.91-.62-2.2a.175.175 0 00-.13-.12c-.06-.02-.13 0-.17.05l-1.84 1.89 1.31-4.68zm-.68 9.41l-1.41 1.99c-.37-.08-.72-.17-1.04-.26l1.49-5.28.96 3.55zm.86 2.76c1.13.15 2.6.32 3.95.32.54 0 1.03-.03 1.44-.08.32 0 .64.29.69.61-.03.06-.1.12-.21.21-.15.12-.34.28-.42.52-.1.03-.21.05-.33.07-.42.05-.92.08-1.49.08-.95 0-1.95-.07-2.76-.17.01-.05.01-.11.01-.17 0-.54-.3-1.3-.86-1.3-.53 0-1.04.51-1.06 1.04-.01.04-.01.08-.02.12-1.2-.22-2.98-.57-4.18-.9-.12-.05-.22-.11-.3-.16.06-.26.04-.43.02-.56-.03-.17-.05-.27.16-.57.03-.04.03-.09.02-.13a.93.93 0 01.29-.05c.05 0 .1.01.13.01.92.28 2.78.82 4.92 1.11zm20.51-1.08c-.01.04 0 .09.02.12.2.3.19.4.16.57-.02.14-.04.3.02.56-.08.06-.17.11-.28.15-1.22.34-3 .69-4.2.91 0-.04-.01-.08-.02-.12-.01-.53-.53-1.04-1.06-1.04-.56 0-.86.75-.86 1.3 0 .06 0 .12.01.17-.82.1-1.81.17-2.76.17-.57 0-1.08-.03-1.49-.08-.12-.02-.23-.04-.33-.07-.08-.24-.27-.4-.42-.52-.1-.08-.17-.14-.2-.2.05-.3.34-.62.7-.62.42.06.9.08 1.44.08 1.34 0 2.8-.17 3.93-.32 2.14-.29 4-.83 4.9-1.12.14-.01.29.01.44.06zm-3.05.3l-1.41-1.99.97-3.55 1.49 5.28c-.33.09-.68.18-1.05.26zm-2.62-8.6c-.04-.05-.11-.06-.17-.05-.06.02-.11.06-.13.12l-.62 2.2-1.41-1.91c-.04-.06-.11-.08-.18-.07-.07.02-.12.07-.13.14l-.6 3.33-1.53-2.32.91-3.15 1.11 1.46c.03.04.09.07.14.07.02 0 .03 0 .05-.01.07-.02.12-.08.13-.15l.32-2.99 1.86 1.78c.03.03.08.05.12.05h.04c.06-.01.1-.05.13-.11l.49-1.18 1.32 4.68-1.85-1.89zM80.23 81.07zm31.54 0zm-27.02 32.55c.03.02.06.06.06.1 0 .07-.06.13-.13.12-.01 0-.03 0-.04-.01l-1.31-.44c-.01 0-.03-.01-.04-.02-.05-.03-.07-.1-.04-.16.02-.05.08-.07.13-.07.44.03 1.12.22 1.37.48zm.82.22c.28.01 1.13.21 1.58.44.05.01.09.06.09.12 0 .07-.06.13-.13.12h-.03l-1.55-.44c-.03 0-.06-.02-.08-.05a.136.136 0 01-.01-.15c.04-.02.08-.05.13-.04zm6.35 1.11c.25-.21.97-.23 1.62-.23.05-.01.1.02.12.06.02.04.02.09 0 .13-.02.04-.07.06-.11.06l-1.54.2h-.02c-.05 0-.09-.03-.11-.07-.02-.06 0-.11.04-.15zm-2.48-.07c-.01-.06.01-.11.06-.14.22-.12.57-.2.92-.2.17 0 .6.02.79.22.04.04.05.09.03.14-.02.05-.06.08-.11.08h-1.56c-.07-.01-.12-.05-.13-.1zm19.21-1.72c.06 0 .11.04.12.1.01.06-.03.12-.08.14l-1.32.44c-.01 0-.03.01-.04.01-.04 0-.08-.02-.11-.06a.121.121 0 01.02-.15c.28-.28.97-.48 1.41-.48zm-3.82 1.14c.44-.24 1.32-.45 1.6-.45.05-.01.1.01.13.06.03.05.02.11-.02.15-.02.02-.04.03-.07.04l-1.55.44h-.03a.13.13 0 01-.12-.08c-.02-.07 0-.13.06-.16zm-4.84.87l-1.54-.2c-.03 0-.07-.01-.09-.04-.04-.04-.05-.1-.02-.14.02-.05.07-.07.13-.07.63 0 1.33.02 1.6.21.04.02.07.06.07.11 0 .07-.05.12-.13.12-.01.01-.02.01-.02.01zm1.6-.63c.35 0 .69.07.92.2.05.03.07.08.06.14-.01.06-.06.09-.12.09h-1.56a.122.122 0 01-.07-.22c.19-.19.6-.21.77-.21zm-18.8 1.98c.05-.17.18-.27.31-.22.08.03.23.18.23.23 0 .06-.08.21-.11.21-.01 0-.04.01-.05.03-.03.03-.12.05-.19.03-.14-.02-.22-.14-.19-.28zm15.37 1.18c0-.11.16-.28.26-.28.05 0 .18.07.23.12.09.09.07.25-.04.34-.06.04-.22.06-.31.03-.05-.03-.14-.16-.14-.21zm.25.89c-.12-.04-.16-.1-.17-.23-.01-.14 0-.16.15-.23l.1-.06.1.04c.13.06.19.12.2.21.01.1-.07.2-.18.25-.11.05-.11.05-.2.02zm-14.2-3.04zm1.85 3.13c.09-.32.16-.65.25-.98.06-.13.14-.42-.11-.36-.14.09-.27.22-.44.23-.24.01-.1.26-.01.37.02.16-.03.36-.14.49-.15.09-.33-.02-.48-.05-.16 0-.48-.08-.33-.3.05-.16.06-.34.12-.5.08-.17.09-.36.13-.54-.1-.22-.27.07-.41.1-.09.07-.45.09-.26.26.16.12.04.33.01.49-.01.21-.23.27-.41.22-.18-.01-.42-.14-.27-.33.03-.16.09-.32.12-.48.07-.19.12-.38.19-.58.03-.17.09-.34.17-.49 0-.19.13-.36.13-.55-.01-.09-.06-.13-.11-.13-.1 0-.23.09-.31.13-.18.04-.39.15-.57.03-.17-.05-.4-.01-.43.2.04.18.3.29.45.17.11-.15.43-.24.46.02-.13.19-.11.45-.22.65-.02.13-.07.25-.14.36-.13.01-.27 0-.37.08-.17.01-.35.1-.45.24-.11.16-.22.33-.25.52.03.2.26.26.44.27.19.05.37.12.56.17.3.07.59.18.89.24.44.13.91.19 1.35.31.05.02.09.03.14.03.19.06.29-.14.3-.29zm-2.79-.95a.19.19 0 01-.08.05c-.13-.01-.17-.03-.17-.08 0-.04.01-.05.1-.1.04-.02.07-.03.1-.03.02 0 .04 0 .06.01.06.03.06.09-.01.15zm-.02.9c.15.14.16.23.02.35-.07.06-.1.07-.17.07-.08 0-.11-.01-.18-.08-.14-.13-.12-.22.09-.38.09-.06.14-.05.24.04zm.82.37c0 .1-.01.12-.06.17-.06.05-.17.08-.25.06a.231.231 0 01-.17-.3c.04-.12.06-.13.23-.13.21-.01.25.02.25.2zm25.03-.1c.1.17.09.24-.02.35-.06.06-.07.07-.22.07-.14 0-.16 0-.23-.06-.06-.05-.08-.08-.08-.14 0-.11.07-.2.21-.26.19-.1.27-.09.34.04zm-23.86.58c-.09.11-.18.14-.34.1-.1-.03-.15-.1-.16-.23 0-.09.01-.11.07-.16a.46.46 0 01.16-.07c.07-.01.1 0 .16.04.17.11.2.21.11.32zm6.08.41c-.09.05-.22.04-.3-.04-.02-.03-.07-.04-.08-.08.01-.15.02-.31.07-.46.03-.15 0-.3.05-.44.05-.26.05-.53.11-.78 0-.13.02-.26.05-.39.04-.2 0-.41.06-.61-.01-.07.08-.27.16-.16.11.16.25.29.4.42.12.07.01.17-.07.21-.12.05-.14.17-.14.29-.02.12-.06.23-.07.34-.02.17-.02.35-.04.52-.05.17-.03.35-.05.53 0 .11-.05.21-.04.32-.01.11-.02.25-.11.33zm9.54-.76c-.07-.19-.04-.4-.07-.59 0-.15-.2-.21-.3-.1-.1.1-.25.12-.32.24-.08.17.18.17.22.3.05.13.03.27.04.41.03.17-.15.17-.26.19-.15.06-.36.09-.44-.09-.05-.13-.05-.28-.06-.42 0-.25-.06-.49-.08-.74-.01-.31-.07-.61-.09-.92 0-.13-.02-.33-.2-.3-.13.1-.25.22-.37.34-.17.13.14.2.17.31.04.16.04.34.05.51.05.15.07.32.06.48-.01.17-.24.14-.34.24-.14.06-.19.19-.3.29-.07.13-.09.3-.1.45.01.12-.08.26 0 .37.01.02.02.04.03.05.03.04.1.01.14.02.14-.01.29.01.42-.04.34-.06.68-.06 1.02-.08.21.01.41-.07.62-.06.16.04.24-.14.24-.27-.08-.19 0-.41-.08-.59zm-1.74.54c-.06.02-.11.03-.11.03s-.02-.01-.05-.03c-.06-.04-.05-.11.03-.19.05-.05.07-.06.14-.05l.09.01.01.1.01.1-.12.03zm-8.35-2.84c-.11.04-.24.19-.35.19-.25.02-.21.26-.03.34.02.07 0 .16.01.24.03.22-.1.4-.08.62-.01.24-.09.48-.1.72-.07.25-.07.51-.11.77-.03.23-.2.15-.34.09 0-.1-.01-.2-.01-.3.06-.23-.12-.29-.31-.32-.19.02-.29-.15-.24-.31.08-.1.29-.07.42-.09.27.06.26-.31.12-.44-.1-.18-.33-.25-.4-.44.03-.24-.13-.48-.33-.6-.3-.02-.53.24-.65.5-.13.04-.25.07-.37.12-.2.05-.48.39-.21.52.15.04.61.15.41.36-.11.2-.34.2-.53.15-.2 0-.43-.1-.42-.33-.04-.21-.03-.43-.13-.63-.04-.23-.31-.18-.32.03-.2.15-.18.39-.03.57.09.2 0 .44-.09.63-.05.24-.32.25-.51.33-.09.04-.45-.02-.32.18.21.07.46.14.68.09.23-.03.43-.19.54-.38.15-.16.42-.07.62-.08.22 0 .44.15.65.05.06-.16.34-.42.43-.15-.01.24.2.37.42.34.24-.01.15.17.15.31.02.26.18.4.4.51.07.02.15.01.23 0 .21-.07.43-.16.5-.39.08-.19.09-.4.15-.6.05-.32.11-.63.12-.95.08-.29.05-.6.11-.89.04-.22.06-.44.09-.65-.06-.12-.11-.14-.17-.11zm-1.71 1.61c-.03.02-.09.04-.19.03-.16 0-.26-.04-.35-.13l-.05-.05.08-.05c.04-.03.11-.09.16-.14.08-.08.13-.12.17-.11.04.01.07.06.07.15 0 .1.06.18.12.2.05.01.05.06-.01.1zm20.5-.59c-.3-.15-.56.46-.9.16-.26-.2-.24-.58-.34-.87-.07-.38-.05-.82-.32-1.12-.19-.2-.44-.25-.71-.24-.16.01-.32.03-.46.07-.29-.02-.44.29-.16.44.17.43.43-.09.7-.05.4.08.43.51.5.84.02.32.12.64.21.94.27.3-.2.49-.4.25-.17-.19-.54-.41-.74-.16-.25.11-.26.44-.47.54-.34.1-.38-.31-.56-.49-.16-.23-.48-.25-.73-.33-.12-.24-.06-.65-.31-.82-.21.08-.59.47-.27.65.31.27-.14.39-.28.58-.2.23-.24.54-.27.83-.35.19-.42-.22-.46-.48-.03-.31-.29-.22-.47-.1-.27.11-.4.36-.58.56-.02.18.01.38.01.57.06.23.34.12.51.1.27-.11.38.18.17.34-.15.19-.62.09-.58.39.15.02.31.01.46 0 .3-.08.63-.3.66-.64.04-.3.47-.24.7-.31.29-.08.64-.11.71.26.2.21.63.44.85.16.22-.14.33-.37.31-.63-.05-.22.35-.23.45-.1.15.24.6.17.82.03.23-.17.28-.48.62-.48.5-.15 1.01-.23 1.5-.42.38-.07-.07-.32-.17-.47zm-6.32 1.39c-.06.03-.2.04-.24.02-.01-.01-.04-.03-.05-.05-.02-.03-.02-.05.01-.07.02-.01.03-.03.03-.04 0-.01.02-.05.04-.08.04-.05.1-.07.16-.06.06.01.11.06.12.12.02.08.01.12-.07.16zm1.66-.3c-.01.06-.01.06-.16.06-.18 0-.2-.02-.19-.18 0-.11 0-.13.06-.19.04-.05.08-.07.11-.07s.06.01.1.04c.05.04.07.08.08.17.01.05.01.13 0 .17zm.43-.17c0-.02-.02-.08-.03-.13-.03-.09-.03-.09.02-.15.03-.04.05-.06.09-.06.04 0 .07.02.14.05.12.07.21.18.21.27 0 .06-.02.06-.1.1-.06.03-.12.05-.14.05-.07.01-.19-.09-.19-.13zm.56.71c-.04.03-.24.03-.31 0-.03-.01-.04-.03-.04-.06 0-.04.01-.06.08-.1a.38.38 0 01.17-.04c.05 0 .09.02.12.04.04.05.03.12-.02.16zm1.42-.63c-.06.02-.11.04-.12.04-.01 0-.06-.03-.1-.06-.08-.05-.09-.07-.09-.13 0-.09.1-.17.22-.17.1-.01.17.03.21.1.05.09.01.16-.12.22zm-5.11.82c0 .16 0 .32-.05.47-.04.08-.12.13-.17.2-.09.08-.19.16-.3.21-.08.03-.13.12-.23.1-.14 0-.29.02-.43 0 .01.02-.04-.03-.03-.02-.03-.02-.07-.03-.03-.06.05-.08.14-.11.23-.14.15-.07.28-.18.38-.31.01-.09.12-.14.12-.24 0-.13.01-.27-.02-.4a.512.512 0 00-.23-.27c-.07-.06-.19-.07-.21-.17-.01-.1.07-.17.1-.25.06-.12.11-.24.18-.36.07-.08.18 0 .22.07.05.08.1.16.13.25.08.09.16.2.19.32.04.09.11.17.1.27-.01.11.05.22.05.33zm-3.13 1.08zm1.16-.2c0 .13 0 .13-.08.21-.08.07-.09.07-.19.06-.12-.01-.2-.07-.21-.16-.01-.07-.04-.09-.06-.04-.01.02-.04.03-.07.04-.06.01-.15.07-.22.14-.03.02-.07.04-.14.04-.1 0-.11-.01-.19-.08-.07-.07-.08-.1-.08-.17s.01-.1.08-.16c.12-.12.18-.13.39-.02.2.1.27.11.29.04.02-.07.13-.13.24-.13.07 0 .11.01.17.06.07.04.07.05.07.17zm-2.56-1.79c-.23-.06-.43.15-.66.17-.26.12-.48.35-.49.65-.15.25-.4-.04-.31-.25-.01-.09.02-.2-.01-.28-.14-.17-.39-.11-.58-.14-.28.01-.56-.05-.85-.04-.25-.02-.51.02-.75-.04-.29-.01-.25-.29-.3-.49a.262.262 0 00-.17-.05c-.19 0-.39.16-.41.34.04.21.22.42.1.64.08.28-.21.39-.41.23-.12-.27-.18-.57-.36-.81-.22-.06-.32.29-.48.42.08.21.31.4.33.66.05.26-.1.54-.32.67-.19.18-.45.12-.69.16-.29.17.21.23.34.24.29.03.6-.01.81-.23.21-.1.2-.47.45-.51.44-.02.88.07 1.32.08.24.06.6-.03.77.15 0 .31.26.5.51.62.14.04.29-.13.43-.17.27-.09.19-.42.35-.55.46-.02.93-.02 1.39-.03.09 0 .11-.12.17-.17-.01-.18-.02-.35-.04-.53-.08-.26.02-.55-.14-.74zm-1.93 1.3c-.01.07.02.17-.04.22-.02.01-.04.03-.07.03-.08-.02-.16-.07-.19-.14-.01-.1.01-.2.01-.3 0-.03.01-.07 0-.09a.372.372 0 00-.2-.07c-.24-.01-.47-.03-.71-.03-.2-.01-.4.02-.59-.03-.07-.03-.17-.02-.22-.1-.07-.08.03-.17.1-.2.09-.04.18-.05.28-.05.1 0 .19.01.28.03.12.02.25-.04.37 0 .27.05.54.04.82.06.07 0 .12.05.17.1-.01.18-.01.38-.01.57zm1.57-.39c-.14.05-.27.05-.32-.02-.02-.03 0-.12.04-.16.08-.07.17-.12.22-.12.04 0 .06.01.08.1.01.05.03.12.03.14.01.03-.01.04-.05.06zm-8.29-27.35c1.14 4.14 3.53 7.75 6.9 10.43l.08.06.08-.06c3.37-2.69 5.76-6.3 6.91-10.44.37-1.36.61-2.73.7-4.08.02-.31.04-.73.04-1.14v-.13l-.13.01c-.08 0-.15.01-.23.01-1.6 0-5.66-.85-7.22-2.19l-.08-.07-.08.06c-1.57 1.19-5.62 2.19-7.34 2.19-.06 0-.13-.01-.21-.02l-.15-.03v.15c0 .43.02.87.04 1.17.08 1.35.31 2.72.69 4.08zm9.77 7.45c-.83.98-1.76 1.88-2.8 2.72-1.1-.89-2.09-1.86-2.96-2.91v-13.2c1.18-.37 2.3-.84 3.01-1.35.65.53 1.66.98 2.74 1.33v13.41z"/><path fill="none" d="M172 160V32c0-6.6-5.4-12-12-12H32c-6.6 0-12 5.4-12 12v128c0 6.6 5.4 12 12 12h128c6.6 0 12-5.4 12-12z" opacity=".4"/><path fill="none" d="M0 0v192h192V0H0z"/><path fill="#DFDFDF" d="M160 20c6.6 0 12 5.4 12 12v128c0 6.6-5.4 12-12 12H32c-6.6 0-12-5.4-12-12V32c0-6.6 5.4-12 12-12h128m0-8H32c-11.03 0-20 8.97-20 20v128c0 11.03 8.97 20 20 20h128c11.03 0 20-8.97 20-20V32c0-11.03-8.97-20-20-20z"/><path fill="#FFF" fill-opacity=".2" d="M160 20H32c-6.6 0-12 5.4-12 12v1c0-6.6 5.4-12 12-12h128c6.6 0 12 5.4 12 12v-1c0-6.6-5.4-12-12-12z"/><path fill="#212121" fill-opacity=".1" d="M160 172H32c-6.6 0-12-5.4-12-12v-1c0 6.6 5.4 12 12 12h128c6.6 0 12-5.4 12-12v1c0 6.6-5.4 12-12 12z"/><radialGradient id="a" cx="23.768" cy="23.933" r="204.625" gradientUnits="userSpaceOnUse"><stop offset="0" stop-color="#fff" stop-opacity=".1"/><stop offset="1" stop-color="#fff" stop-opacity="0"/></radialGradient><path fill="url(#a)" d="M160 172H32c-6.6 0-12-5.4-12-12V32c0-6.6 5.4-12 12-12h128c6.6 0 12 5.4 12 12v128c0 6.6-5.4 12-12 12z"/></svg>