<svg xmlns="http://www.w3.org/2000/svg" width="192" height="192"><path fill="#DA121A" d="M172 160V32c0-6.6-5.4-12-12-12H32c-6.6 0-12 5.4-12 12v128c0 6.6 5.4 12 12 12h128c6.6 0 12-5.4 12-12z"/><path fill="#FCDD09" d="M160 20H32c-6.6 0-12 5.4-12 12v89h152V32c0-6.6-5.4-12-12-12z"/><path fill="#078930" d="M160 20H32c-6.6 0-12 5.4-12 12v38h152V32c0-6.6-5.4-12-12-12z"/><g transform="translate(360 180)"><circle fill="#0F47AF" cx="-264" cy="-84" r="50.67"/><path fill="#FCDD09" d="M-275.6-98.53l-12.9-17.76 1.37-.99 12.9 17.76-1.37.99zm22.21 6.65h-3.55l9.68 29.78 4.65 3.38-6.66-20.49 23.82-17.31h-5.75l-19.18 13.93-3.01-9.29zm13.9-24.42l-1.37-.99-12.91 17.76 1.37.99 12.91-17.76zm-34.71 23.15l-3.02 9.29 2.87 2.09 9.68-29.78-1.78-5.47-6.66 20.49h-29.45l4.65 3.38h23.71zm5.98-3.38l-1.1 3.38H-238l4.65-3.38h-21.55l-9.1-28.01-1.78 5.47 7.32 22.54h-9.76zm7.09 25.92l7.9-5.74-1.1-3.38-25.33 18.41-1.78 5.47L-264-68.52l23.82 17.31-1.78-5.47-19.17-13.93zm15.06-8.45l-.52 1.61 20.88 6.78.52-1.61-20.88-6.78zm-21.88 7.67l2.87-2.09-25.33-18.41h-5.75l17.43 12.67-9.1 28.01 4.65-3.38 7.32-22.54 7.91 5.74zm-13.98-7.67l-20.88 6.78.52 1.61 20.88-6.78-.52-1.61zm17.09 13.64v21.96h1.69v-21.96h-1.69z"/></g><path fill="none" d="M172 160V32c0-6.6-5.4-12-12-12H32c-6.6 0-12 5.4-12 12v128c0 6.6 5.4 12 12 12h128c6.6 0 12-5.4 12-12z" opacity=".4"/><path fill="none" d="M0 0v192h192V0H0z"/><path fill="#DFDFDF" d="M160 20c6.6 0 12 5.4 12 12v128c0 6.6-5.4 12-12 12H32c-6.6 0-12-5.4-12-12V32c0-6.6 5.4-12 12-12h128m0-8H32c-11.03 0-20 8.97-20 20v128c0 11.03 8.97 20 20 20h128c11.03 0 20-8.97 20-20V32c0-11.03-8.97-20-20-20z"/><path fill="#FFF" fill-opacity=".2" d="M160 20H32c-6.6 0-12 5.4-12 12v1c0-6.6 5.4-12 12-12h128c6.6 0 12 5.4 12 12v-1c0-6.6-5.4-12-12-12z"/><path fill="#212121" fill-opacity=".1" d="M160 172H32c-6.6 0-12-5.4-12-12v-1c0 6.6 5.4 12 12 12h128c6.6 0 12-5.4 12-12v1c0 6.6-5.4 12-12 12z"/><radialGradient id="a" cx="23.768" cy="23.933" r="204.625" gradientUnits="userSpaceOnUse"><stop offset="0" stop-color="#fff" stop-opacity=".1"/><stop offset="1" stop-color="#fff" stop-opacity="0"/></radialGradient><path fill="url(#a)" d="M160 172H32c-6.6 0-12-5.4-12-12V32c0-6.6 5.4-12 12-12h128c6.6 0 12 5.4 12 12v128c0 6.6-5.4 12-12 12z"/></svg>