<svg xmlns="http://www.w3.org/2000/svg" width="192" height="192"><path fill="#FFF" d="M172 160V32c0-6.6-5.4-12-12-12H32c-6.6 0-12 5.4-12 12v128c0 6.6 5.4 12 12 12h128c6.6 0 12-5.4 12-12z"/><path fill="red" d="M111 81V20H81v61H20v30h61v61h30v-61h61V81z"/><path fill="red" d="M31 44.8c.21 1.7.32 3.43.32 5.18 0 1.75-.11 3.48-.32 5.18 3.54-.67 7.17-1.11 10.86-1.29-.18 3.69-.62 7.32-1.29 10.86 1.7-.21 3.43-.32 5.18-.32 1.75 0 3.48.11 5.18.32-.67-3.54-1.11-7.17-1.29-10.86 3.69.18 7.32.62 10.86 1.29-.21-1.7-.32-3.43-.32-5.18 0-1.75.11-3.48.32-5.18-3.54.67-7.17 1.11-10.86 1.29.18-3.69.62-7.32 1.29-10.86-1.7.21-3.43.32-5.18.32-1.75 0-3.48-.11-5.18-.32.67 3.54 1.11 7.17 1.29 10.86-3.69-.18-7.32-.62-10.86-1.29zM161 147.2c-.21-1.7-.32-3.43-.32-5.18s.11-3.48.32-5.18c-3.54.67-7.17 1.11-10.86 1.29.18-3.69.62-7.32 1.29-10.86-1.7.21-3.43.32-5.18.32-1.75 0-3.48-.11-5.18-.32.67 3.54 1.11 7.17 1.29 10.86-3.69-.18-7.32-.62-10.86-1.29.21 1.7.32 3.43.32 5.18s-.11 3.48-.32 5.18c3.54-.67 7.17-1.11 10.86-1.29-.18 3.69-.62 7.32-1.29 10.86 1.7-.21 3.43-.32 5.18-.32 1.75 0 3.48.11 5.18.32-.67-3.54-1.11-7.17-1.29-10.86 3.69.18 7.32.62 10.86 1.29zM150.14 53.88c3.69.18 7.32.62 10.86 1.29-.21-1.7-.32-3.43-.32-5.18 0-1.75.11-3.48.32-5.18-3.54.67-7.17 1.11-10.86 1.29.18-3.69.62-7.32 1.29-10.86-1.7.21-3.43.32-5.18.32-1.75 0-3.48-.11-5.18-.32.67 3.54 1.11 7.17 1.29 10.86-3.69-.18-7.32-.62-10.86-1.29.21 1.7.32 3.43.32 5.18 0 1.75-.11 3.48-.32 5.18 3.54-.67 7.17-1.11 10.86-1.29-.18 3.69-.62 7.32-1.29 10.86 1.7-.21 3.43-.32 5.18-.32 1.75 0 3.48.11 5.18.32-.68-3.54-1.11-7.17-1.29-10.86zM60.52 147.2c-.21-1.7-.32-3.43-.32-5.18s.11-3.48.32-5.18c-3.54.67-7.17 1.11-10.86 1.29.18-3.69.62-7.32 1.29-10.86-1.7.21-3.43.32-5.18.32-1.75 0-3.48-.11-5.18-.32.67 3.54 1.11 7.17 1.29 10.86-3.69-.18-7.32-.62-10.86-1.29.21 1.7.32 3.43.32 5.18s-.11 3.48-.32 5.18c3.54-.67 7.17-1.11 10.86-1.29-.18 3.69-.62 7.32-1.29 10.86 1.7-.21 3.43-.32 5.18-.32 1.75 0 3.48.11 5.18.32-.67-3.54-1.11-7.17-1.29-10.86 3.69.18 7.32.62 10.86 1.29z"/><g><path fill="none" d="M172 160V32c0-6.6-5.4-12-12-12H32c-6.6 0-12 5.4-12 12v128c0 6.6 5.4 12 12 12h128c6.6 0 12-5.4 12-12z" opacity=".4"/><path fill="none" d="M0 0v192h192V0H0z"/><path fill="#DFDFDF" d="M160 20c6.6 0 12 5.4 12 12v128c0 6.6-5.4 12-12 12H32c-6.6 0-12-5.4-12-12V32c0-6.6 5.4-12 12-12h128m0-8H32c-11.03 0-20 8.97-20 20v128c0 11.03 8.97 20 20 20h128c11.03 0 20-8.97 20-20V32c0-11.03-8.97-20-20-20z"/><path fill="#FFF" fill-opacity=".2" d="M160 20H32c-6.6 0-12 5.4-12 12v1c0-6.6 5.4-12 12-12h128c6.6 0 12 5.4 12 12v-1c0-6.6-5.4-12-12-12z"/><path fill="#212121" fill-opacity=".1" d="M160 172H32c-6.6 0-12-5.4-12-12v-1c0 6.6 5.4 12 12 12h128c6.6 0 12-5.4 12-12v1c0 6.6-5.4 12-12 12z"/><radialGradient id="a" cx="23.768" cy="23.933" r="204.625" gradientUnits="userSpaceOnUse"><stop offset="0" stop-color="#fff" stop-opacity=".1"/><stop offset="1" stop-color="#fff" stop-opacity="0"/></radialGradient><path fill="url(#a)" d="M160 172H32c-6.6 0-12-5.4-12-12V32c0-6.6 5.4-12 12-12h128c6.6 0 12 5.4 12 12v128c0 6.6-5.4 12-12 12z"/></g></svg>