<svg xmlns="http://www.w3.org/2000/svg" width="192" height="192"><path fill="#FFF" d="M160 20H32c-6.6 0-12 5.4-12 12v128c0 6.6 5.4 12 12 12h128c6.6 0 12-5.4 12-12V32c0-6.6-5.4-12-12-12z"/><path fill="#DA000C" d="M20 160c0 6.6 5.4 12 12 12h128c6.6 0 12-5.4 12-12v-45H20v45z"/><path d="M66.39 50.7h10.66v19.54H66.39V50.7zm20.87-12.44h16.87V68.9H87.26V38.26zM61.81 83.11h67.69v25.31H61.81V83.11zm53.15-32.41h10.66v19.54h-10.66V50.7z"/><path fill="#DA000C" d="M135.79 72.49V69.9h2.77v-6h-2.77v3.31h-4.64V63.9h-3.34V43.6h1.26v-2.75h2.16v-5.27h-3.83v2.68h-3.76v-2.68h-5.74v2.68h-3.76v-2.68h-3.11v5.27h1.21v2.75h1.11v20.3h-.57v3.31h-5.21V63.9h-1.64V38.24h1.82v-3.65h2.21v-4.24h-3.51v2.34h-3.96v-2.34h-4.51v2.34h-3.96v-2.34h-4.51v2.34h-3.96v-2.34h-3.51v4.24h2.21v3.65h1.82V63.9h-1.64v3.31h-5.21V63.9h-.57V43.6h1.11v-2.75h1.21v-5.27h-3.11v2.68H74.1v-2.68h-5.74v2.68H64.6v-2.68h-3.83v5.27h2.16v2.75h1.26v20.3h-3.34v3.31h-4.64V63.9h-2.77v6h2.77v2.59h2.25v32.23L53.47 108v3.47h21.11v1.7h42.83v-1.7h21.11V108l-4.98-3.28V72.49h2.25zm-68.1-8.59v-5.57c0-2.09 1.47-3.8 3.54-3.9h.2c2.16 0 3.9 1.75 3.9 3.9v5.57h-.02v3.31h-7.62V63.9zm9.72 40.82H65.65V96.2c0-3.19 2.6-6.02 5.88-6.02 3.24 0 5.88 2.7 5.88 6.02v8.52zm22.34-61.99h1.97v6.71h-1.97v-6.71zm-4.72-1.72h1.95v9.07h-1.95v-9.07zM96 52.12c3.44 0 4.57 2.44 4.57 4.19V67.21h-9.13v-10.9c-.01-1.75 1.12-4.19 4.56-4.19zm-5.72-9.39h1.97v6.71h-1.97v-6.71zm14.04 63.67H87.68V94.7c0-5.51 3.68-8.11 8.32-8.11 4.46 0 8.32 2.6 8.32 8.11v11.7zm12.36-48.07c0-2.15 1.75-3.9 3.9-3.9h.2c2.06.1 3.54 1.81 3.54 3.9v8.88h-7.62V63.9h-.02v-5.57zm9.67 46.39h-11.76V96.2c0-3.32 2.64-6.02 5.88-6.02 3.28 0 5.88 2.83 5.88 6.02v8.52z"/><path d="M135.94 72.64v-2.59h2.77v-6.3h-3.06v3.31h-4.34v-3.31h-3.34v-20h1.26V41h2.16v-5.56h-4.12v2.68h-3.46v-2.68h-6.03v2.68h-3.46v-2.68h-3.4V41h1.2v2.75h1.11v20h-.57v3.31h-4.92v-3.31h-1.64V38.39h1.82v-3.65h2.21V30.2h-3.8v2.34h-3.66V30.2h-4.81v2.34H94.2V30.2h-4.81v2.34H85.7V30.2h-3.8v4.54h2.21v3.65h1.82v25.36h-1.64v3.31h-4.92v-3.31h-.57v-20h1.11V41h1.21v-5.56h-3.4v2.68h-3.46v-2.68h-6.03v2.68h-3.46v-2.68h-4.13V41h2.16v2.75h1.26v20H60.7v3.31h-4.34v-3.31H53.3v6.3h2.77v2.59h2.25v32.01l-4.88 3.21h-.1V111.64h21.11v1.7H117.58v-1.7h21.11v-3.78h-.1l-4.88-3.21v-32h2.23zM131 64.05v3.31h4.93v-3.31h2.48v5.71h-2.48v-.02h-19.1v-2.38h7.62v-3.31H131zm-10.53 25.99c-3.32 0-6.03 2.77-6.03 6.17v8.36h-2.58V75.29h3.42v-2.64h18.12v31.92h-6.9v-8.36c0-3.35-2.76-6.17-6.03-6.17zm5.73 6.17v8.37h-11.46v-8.37c0-3.24 2.57-5.88 5.73-5.88 3.11 0 5.73 2.69 5.73 5.88zm-54.67-6.17c-3.27 0-6.03 2.83-6.03 6.17v8.36h-6.9V72.64h18.11v2.64h3.42v29.28h-2.58V96.2c.01-3.39-2.7-6.16-6.02-6.16zm5.73 6.17v8.37H65.8v-8.37c0-3.18 2.62-5.88 5.73-5.88 3.16 0 5.73 2.64 5.73 5.88zm-2.08-32.46h-.02v3.31h-7.32v-8.73c0-2.04 1.46-3.66 3.4-3.75h.19c2.07 0 3.75 1.68 3.75 3.75v5.42zm39.8 11.24H77.02v-2.35h37.97v2.35zm-15.96 31.29h-11.2V94.7c0-4.99 3.06-7.96 8.18-7.96 3.77 0 8.18 2.08 8.18 7.96v11.58h-5.16zm12.55-.02h-7.1V94.7c0-6.09-4.56-8.26-8.47-8.26-5.23 0-8.47 3.16-8.47 8.26v11.56h-7.1V75.28h31.12l.01 29.58.01 1.4zm-31.32.31h31.51l5 2.41H75.25l5-2.41zm36.57-42.82v-5.43c0-2.07 1.68-3.75 3.75-3.75h.19c1.94.1 3.4 1.71 3.4 3.75v8.73h-7.32v-3.31h-.02zm-5.64-23.05v-4.97H114v2.68h4.05v-2.68h5.44v2.68h4.05v-2.68h3.54v4.97H111.18zm1.2 2.75V41h16.53v2.46h-16.53zm1.12.3h14.16v20h-3.2v-5.43c0-2.2-1.58-3.94-3.68-4.05h-.2c-2.23 0-4.05 1.82-4.05 4.05v5.43h-3.03v-20zm-31.31-9.31V30.5h3.21v2.34h4.25V30.5h4.22v2.34h4.25V30.5h4.22v2.34h4.25V30.5h3.21v3.95H82.19zm2.22 3.65v-3.35h23.19v3.35H84.41zM96 51.97c-3.72 0-4.71 2.73-4.71 4.34v7.44h-5.06V38.42h19.56v25.33h-5.06v-7.44c-.02-1.61-1.01-4.34-4.73-4.34zm4.42 4.34v10.75h-8.84V56.31c0-1.5.93-4.04 4.42-4.04 3.49 0 4.42 2.54 4.42 4.04zm-21.34 7.74v3.31h5.51v-3.31h1.34v.02h5.36v3.29h9.43v-3.29h5.36v-.02h1.34v3.31h5.51v-3.31h3.62v8.3h-41.1v-8.3h3.63zm-3.61-.3v-5.43c0-2.23-1.82-4.05-4.05-4.05h-.2c-2.1.11-3.68 1.85-3.68 4.05v5.43h-3.2v-20H78.5v20h-3.03zM60.92 40.7v-4.97h3.53v2.68h4.05v-2.68h5.44v2.68h4.05v-2.68h2.82v4.97H60.92zm2.16 2.75V41h16.53v2.46H63.08zm-7.02 26.31h-2.47v-5.71h2.47v3.31H61v-3.31h6.54v3.31h7.62v2.38h-19.1v.02zm.3 2.59v-2.29h18.8v2.29h-18.8zm2.14 32.52h21.64v1.44l-3.23 1.55H53.97l4.53-2.99zm15.94 6.46H53.62v-3.18H76.3l-1.86.89v2.29zm42.83 1.7H74.73v-3.76h42.53l.01 3.76zm21.11-1.7h-20.82v-2.29l-1.85-.89h22.66l.01 3.18zm-.35-3.47H115.1l-3.24-1.56v-1.42h21.64l4.53 2.98zm-21.19-35.51v-2.29h18.8v2.29h-18.8z"/><path fill="#F8D80E" d="M99.02 118.86c0-1.84.01-3.69-.01-5.53-.02-.11-.06-.37-.06-.37l-.04.04c.1-.14.19-.29.26-.46.33-.81.36-1.84-.29-2.5-.2-.23-.43-.44-.65-.64.27-.19.53-.38.78-.59 1.63-1.22 3.38-2.27 5.16-3.25v-2.28c-.86.43-1.69.92-2.52 1.4-1.75 1.03-3.44 2.15-5.02 3.43-.66-.46-1.35-.89-2.02-1.32-2.18-1.31-4.45-2.51-6.79-3.51v2.2a52.97 52.97 0 016.74 3.67c.15.11.31.21.47.32-.01.02-.03.03-.04.04-.59.5-1.19 1.18-1.07 2.02.01.13.08.11.17.04-.53.57-.85 1.34-.81 2.12 0 1.57 0 3.14.01 4.72l-5.71 3.32h-1.6v2.55h1.6l6.75 3.91v18.96h-9.94v4.62h2.89v-2.32h3.94v2.32h3.1v1.74h-3.1v2.32h-3.94v-2.32h-2.89v4.64h9.94v2.92h2.87v-32.88l6.75-3.91h1.6v-2.55h-1.6l-4.93-2.87zm-1.7-7.51c.02.04.02.09.03.13a.363.363 0 00-.07-.17c.01.01.03.02.04.04zm-.03.43c-.01.02-.01.03-.02.05.01-.02.01-.04.02-.05zm-.65-1.12l.18.18c-.04-.04-.09-.07-.13-.1-.04-.01-.08 0-.13 0 .03-.03.06-.05.08-.08zm-.55.05H96h.09zm.09 1.18c.28-.08.63.19.88.13-.14.08-.32.1-.5.05-.25-.09-.51-.17-.76-.16.12-.03.25-.04.38-.02zm-1.14 1.72c.9.6 2.17.61 3.11.07-.09.06-.18.14-.28.19v4.32l-2.13-1.24-1.32.76c0-1.45-.01-2.89 0-4.34.01-.17.06-.34.12-.49-.06.3.05.58.5.73zm2.69 6.97c-.26.67-.99 1.09-1.7 1.01-.81.02-1.48-.65-1.6-1.42l1.3-.76 2 1.17zm-3.08-9.51c-.11.07-.21.15-.31.23.1-.1.21-.19.31-.23zm1.08 15.45l-6.11-3.54 3.78-2.2c.35 1.1 1.38 1.97 2.56 1.99 1.14.11 2.29-.56 2.77-1.6-.01 0-.02-.01-.02-.01l3.14 1.83-6.12 3.53z"/><path d="M102.85 106.18v-2.06c.43-.25.88-.49 1.33-.72v-.25c-.7.35-1.38.74-2.04 1.12l-.54.31c-1.92 1.13-3.54 2.24-4.96 3.39-.54-.37-1.08-.73-1.63-1.07l-.33-.21c-2.44-1.47-4.7-2.63-6.85-3.54v.25c.51.22 1.03.46 1.56.71h-.04v1.98c-.51-.25-1.01-.48-1.51-.71v.24c2.21.99 4.44 2.21 6.68 3.63l.32.22c.01.01.02.01.03.02-.53.46-1.17 1.16-1.05 2.06 0 .04.01.06.02.09a3.02 3.02 0 00-.7 2.06v4.63l-5.6 3.25H85.8v2.85h1.71l6.64 3.85V147h-9.94v4.92h3.19v-2.32h3.64v2.32h3.1v1.45h-3.1v2.32H87.4v-2.32h-3.19v4.93h9.94v2.92h3.17v-32.94l6.64-3.85h1.71v-2.85h-1.71l-4.79-2.78v-1.95c0-1.16 0-2.32-.01-3.51l-.06-.37c.07-.11.13-.23.18-.35.31-.75.41-1.88-.31-2.62-.18-.2-.37-.38-.56-.56.23-.17.46-.33.68-.51 1.41-1.05 3.04-2.08 5.09-3.21v-.26c-.47.23-.92.48-1.33.72zm-11.71.83c-.52-.28-1.05-.56-1.57-.82h.06v-1.97c.5.24 1 .49 1.51.76v2.03zm1.81 1.02c-.5-.3-1.01-.58-1.51-.86v-2.04c.5.26 1 .54 1.51.83v2.07zm1.61.98c-.44-.28-.88-.54-1.32-.8v-2.08c.43.25.86.49 1.31.75l.17.11-.16 2.02zm-.41 48.97h-9.64v-4.34h2.6v2.32h4.23v-2.32h2.81v4.34zm0-6.38h-2.81v-2.32h-4.23v2.32h-2.6v-4.33h9.64v4.33zm4.23-44.67v2.21c-.05.03-.09.07-.14.1-.45-.41-.92-.79-1.42-1.15.5-.38 1.02-.77 1.56-1.16zm-.34 2.44l-1.03 1.43c-.04-.03-.68-.55-.88-.7l.48-1.86c.5.35.99.72 1.43 1.13zm-3.04-2.2c.46.29.91.58 1.36.89l-.48 1.86c-.31-.23-.62-.44-.94-.66l-.1-.07.16-2.02zm.04 2.43c.45.3.89.62 1.31.97h-.32c-.14 0-.22.01-.43 0-.61.08-1.15.4-1.58.84-.06-.77.53-1.39 1.02-1.81zm-1.63 4.06c-.07-1.34.94-2.62 2.2-2.8.14.01.28 0 .42 0 .22 0 .44-.01.6.01l.07.06c.44.35.61.56.41.84-.1.19-.24.09-.43.03-.17-.06-.36-.11-.53-.07-.95-.09-1.84.7-1.89 1.65-.01 1.32-.01 2.64-.01 3.95v2.44c-.05.5.13 1.01.49 1.4.34.37.78.57 1.24.57H96c.73.08 1.47-.33 1.79-.96l.72.43c-.45.85-1.36 1.4-2.33 1.4-.08 0-.15 0-.24-.01-1.31-.01-2.47-1.15-2.54-2.49-.01-1.34-.01-2.69-.01-4.03.02-.8.03-1.6.02-2.42zm4.47.02c-.24.11-.5.19-.79.23l-.1-1.74H97l1.61.92c-.21.22-.44.41-.73.59zm.97-.38l.01.03c.01 1.16.01 2.32.01 3.48v1.78l-.85-.49v-4.15c.32-.19.6-.41.83-.65zm-4.17-.14c-.01-.03-.04-.06-.04-.09.19-.6.78-1.05 1.42-1.03.04.01.07.01.11.02l-1.49 1.1zm1.83-.99l.02.01c.05.02.11.02.16.02l.11 1.76c-.05 0-.09.02-.14.02-.57 0-1.12-.16-1.56-.45l-.03-.01c-.09-.03-.14-.07-.2-.11l1.64-1.24zm-1.52 1.54c.47.31 1.06.48 1.67.48.38 0 .73-.07 1.06-.18v3.92l-1.9-1.11-.08-.04-1.17.68v-.13c0-1.3 0-2.59.01-3.88.08.1.21.19.41.26zm-.39 6.54l1.13-.66 1.79 1.04c-.26.53-.86.88-1.48.81h-.06c-.38 0-.74-.17-1.02-.47-.17-.2-.29-.45-.36-.72zm1.34 2.66c.09.01.17.01.26.01 1.07 0 2.08-.62 2.58-1.55l2.76 1.61-5.81 3.37-5.81-3.37 3.4-1.98c.42 1.09 1.47 1.9 2.62 1.91zm1.08 37.99h-2.58v-1.45h2.58v1.45zm0-1.74h-2.58v-.89h.01v-4.93h-.01v-1.45h.01v-4.92h-.01v-16.32h2.58v28.51zm0-28.8h-2.58v-1.93l1.21.7.08.04 1.29-.75v1.94zm2.15-11.24l4.67 2.71.04.02h1.49v2.25h-1.49l-8.14 4.72-8.1-4.7-.04-.02h-1.5v-2.25h1.49l5.52-3.2v1.48c.01.2.04.39.1.58l-3.89 2.27 6.34 3.67.07.04 6.41-3.72-3.37-1.96-1.11-.67-.01.02-1.85-1.07-.08-.04-1.17.68c0-.04-.01-.09 0-.13v-1.98l1.17-.68 1.98 1.15 1.47.83zm-.1-6.62c-.05.11-.12.21-.19.31l-.04.05-.01.01-1.51-.87c.02-.03.05-.04.07-.07.06-.09.1-.18.11-.26l1.79-.14c-.02.36-.1.69-.22.97zm-.27-2.37c.31.31.44.71.48 1.11l-1.8.14a.934.934 0 00-.25-.38l1.02-1.42c.19.18.38.35.55.55zm.97-1.99c-.28.2-.56.39-.83.59-.08.07-.18.13-.27.2v-2.2c.35-.25.72-.49 1.1-.74v2.15zm1.39-.93c-.38.24-.75.48-1.1.72v-2.13c.35-.23.72-.45 1.1-.68v2.09zm.3-.19v-2.09c.09-.05.16-.1.25-.15l.54-.31c.1-.06.21-.12.31-.18v2.05h.03c-.4.23-.78.45-1.13.68z"/><g><path fill="none" d="M172 160V32c0-6.6-5.4-12-12-12H32c-6.6 0-12 5.4-12 12v128c0 6.6 5.4 12 12 12h128c6.6 0 12-5.4 12-12z" opacity=".4"/><path fill="none" d="M0 0v192h192V0H0z"/><path fill="#DFDFDF" d="M160 20c6.6 0 12 5.4 12 12v128c0 6.6-5.4 12-12 12H32c-6.6 0-12-5.4-12-12V32c0-6.6 5.4-12 12-12h128m0-8H32c-11.03 0-20 8.97-20 20v128c0 11.03 8.97 20 20 20h128c11.03 0 20-8.97 20-20V32c0-11.03-8.97-20-20-20z"/><path fill="#FFF" fill-opacity=".2" d="M160 20H32c-6.6 0-12 5.4-12 12v1c0-6.6 5.4-12 12-12h128c6.6 0 12 5.4 12 12v-1c0-6.6-5.4-12-12-12z"/><path fill="#212121" fill-opacity=".1" d="M160 172H32c-6.6 0-12-5.4-12-12v-1c0 6.6 5.4 12 12 12h128c6.6 0 12-5.4 12-12v1c0 6.6-5.4 12-12 12z"/><radialGradient id="a" cx="23.768" cy="23.933" r="204.625" gradientUnits="userSpaceOnUse"><stop offset="0" stop-color="#fff" stop-opacity=".1"/><stop offset="1" stop-color="#fff" stop-opacity="0"/></radialGradient><path fill="url(#a)" d="M160 172H32c-6.6 0-12-5.4-12-12V32c0-6.6 5.4-12 12-12h128c6.6 0 12 5.4 12 12v128c0 6.6-5.4 12-12 12z"/></g></svg>