<svg xmlns="http://www.w3.org/2000/svg" width="192" height="192"><path fill="#E32118" d="M172 160V32c0-6.6-5.4-12-12-12H32c-6.6 0-12 5.4-12 12v128c0 6.6 5.4 12 12 12h128c6.6 0 12-5.4 12-12z"/><path fill="#FFF" d="M160 20H32c-6.6 0-12 5.4-12 12v89h152V32c0-6.6-5.4-12-12-12z"/><path fill="#3E9A00" d="M160 20H32c-6.6 0-12 5.4-12 12v39h152V32c0-6.6-5.4-12-12-12z"/><path fill="#0073CE" d="M23.04 24.06C21.16 26.18 20 28.96 20 32v128c0 3.04 1.16 5.82 3.04 7.94L77 96 23.04 24.06z"/><g stroke="#000"><path fill="#FFF" stroke-width=".912" d="M121.84 80.72h24.26v25.41c0 8.55-11.15 1.96-12.1 6.52-1.65-4.69-12.1 2.09-12.1-7.03 0-8.86-.06-24.9-.06-24.9z"/><path fill="#73452B" stroke-width=".19" d="M135.71 108.6s-.32.32-.89.06c-.57-.25-.63-16.28-.63-16.28 1.27-1.39 2.28-1.84 2.28-1.84l.76.63c-2.85 1.46-2.6 3.55-2.34 7.16.06 1.33.06 3.04.38 4.69.44 2.09 1.33 3.86 1.39 5.19.06.84-.95.39-.95.39z"/><path fill="#73452B" stroke-width=".19" d="M133.75 90.17h1.14c-.95 9.18-.13 14.63-.13 17.29 0 .89.51 1.2.44 1.2-1.14 1.27-1.71-.06-1.71-.06l.26-18.43z"/><path fill="#A36629" stroke-width=".19" d="M131.97 108.6c-1.08.51-1.2-.51-1.14-.63 2.34-4.75 3.36-15.2 1.2-16.34l.13-1.01c.82.25 1.58 1.33 1.58 1.33.32 11.72 0 16.53-.19 16.72-1.14 1.2-1.58-.19-1.65-.32"/><path fill="none" stroke-width=".19" d="M131.91 108.41c-.19-1.01 1.65-3.61 1.52-6.33M135.01 104.3c.57 1.58.82 2.98.7 4.31"/><path fill="#009A3B" stroke-width=".19" d="M137.48 85.87c.38-.44.38-.44 1.08-.44.13-.95 1.71-.95 1.84.25 1.27-.25 1.52.51 1.01 1.27 1.2-.32 2.28 0 1.96 1.39 2.15.57 1.33 2.09.38 2.41-.13.95-1.01 1.27-2.22.89-1.52 1.08-2.41.7-3.1-.38-1.71.25-1.84-.13-2.6-1.08-1.33.57-1.58.57-2.72-.13-.06.89-.38.63-.95.57.06 1.14-.38 1.65-1.39 1.27.76 1.58-1.2 2.28-2.15.95-.89.06-.95-.19-1.39-.51-.38 1.27-1.77 1.08-2.03.38-1.77-.25-1.58-1.2-.13-1.27.13-1.01 1.01-.82 1.58-.7.06-.63.44-.51.76-.38-.19-.44-.06-.7.51-.82-.82-1.08-.32-1.46.51-1.84-.44-1.01.32-.95.89-1.01-.06-1.08.25-1.27 1.39-1.39-.13-.38.06-.7.7-.7-.38-1.08.13-1.32 1.27-1.14.19-1.56 3.55-.82 3.29 1.33.94.13 1.26.32 1.51 1.08z"/><g fill="none" stroke-width=".19"><path d="M130.71 85.3c.25.13.57 0 .63.7.51-.89 1.14-.38 1.14.63M135.96 84.79c-.25.38-1.2.38-1.08 1.39-.32-.44-.95-.57-1.2-.13M137.48 85.87c0 .25-.06 1.01-.32 1.39M141.41 86.94c.06.06-.89 0-1.33.32M143.75 90.74c-.25-.13-.76-.44-1.14.06 0-.25 0-.95-.7-.95M141.54 91.63c0-.63-.13-.82-.25-1.01M139.45 90.74c-.51-.38-1.01.19-1.01.51M135.77 90.17c0-.25-.19-.76.25-.95M128.55 92.83c.13-.63.57-.63.51-.95-.06-.51-.63-.95-1.33-.25M129.06 91.88c.38-.13.76-.06.89.13M127.98 89.54c.25-.25.89-.19 1.27 0M129.25 88.02c.32 0 .89-.13 1.08.44.7-1.08 1.2-.95 1.33-.7M132.92 87.64c.51-.19 1.39.32 1.9 1.2.25-.7.63-.57 1.01-.63M138.24 88.84c.82-.38 1.33.38 1.58.7.38-.51.7-.51 1.08-.51M130.58 90.36c.19-.32.63-.38.95-.19-.06-.57.32-.82.57-.7"/></g></g><g fill="gold" stroke="#000" stroke-width=".665"><path d="M133.18 77.17l-1.39.06-.7 1.25-.76-1.19-1.39.06.63-1.25-.76-1.19 1.46-.06.63-1.25.76 1.19 1.39-.06-.63 1.25.76 1.19zM127.22 77.63l-1.39.34-.38 1.35-1.01-1.01-1.33.33.38-1.35-.95-1.03 1.33-.34.38-1.35 1.01 1.01 1.39-.33-.44 1.35 1.01 1.03zM121.46 78.81l-1.27.63-.06 1.41-1.2-.77-1.27.62.13-1.41-1.2-.78 1.27-.63.13-1.41 1.14.77 1.27-.62-.06 1.41 1.12.78zM135.01 77.17l1.39.06.63 1.25.76-1.19 1.39.06-.63-1.25.76-1.19-1.39-.06-.7-1.25-.76 1.19-1.39-.06.63 1.25-.69 1.19zM140.97 77.63l1.33.34.38 1.35 1.01-1.01 1.33.33-.38-1.35 1.01-1.03-1.39-.34-.38-1.35-1.01 1.01-1.33-.33.38 1.35-.95 1.03zM146.67 78.81l1.27.63.06 1.41 1.2-.77 1.27.62-.06-1.41 1.14-.78-1.27-.63-.06-1.41-1.2.77-1.27-.62.13 1.41-1.21.78z"/></g><g fill="#FFF" stroke="#000" stroke-width=".665"><path d="M148.38 105.63l1.58 2.28 1.46-2.15-1.01-1.84-2.03 1.71zM138.31 112.28l.13 2.28s.63 0 1.2-.19c.51-.19.95-.57.95-.57l-.06-1.2-2.22-.32zM129.82 112.28l-.13 2.22s-.57 0-1.14-.13c-.51-.13-.95-.44-.95-.44l-.63-1.52 2.85-.13zM119.62 105.63l-1.65 2.28-1.77-2.91 1.33-1.39 2.09 2.02z"/><path d="M127.54 116.84c0 2.15 13.05 2.15 13.05 0v-3.04c0 1.58-13.05 1.27-13.05 0v3.04z"/><path d="M115.89 109.81c1.14 5.83 11.65 5.95 11.65 5.95v-1.96c-.25-.76.19-1.01 1.9-1.27.7-.06.38-1.08.38-1.08s-4.56.82-7.79-.44c-4.37-1.77-5-5.19-5-5.19s-.32 2.66-1.14 3.99zM152.18 109.81c-1.08 5.83-11.59 5.95-11.59 5.95v-1.96c.19-.76-.25-1.01-1.96-1.27-.7-.06-.32-1.08-.32-1.08s4.56.82 7.79-.44c4.31-1.77 4.81-5.19 4.81-5.19s.44 2.66 1.27 3.99z"/><path d="M116.71 107.59c-2.91-1.58-.63-3.23-.38-7.92.44 2.85 3.67 4.05 3.29 5.89-1.33.06-1.96-1.96-2.6.25l-.31 1.78zM151.35 107.59c2.91-1.65.51-3.23.25-7.92-.44 2.85-3.61 4.05-3.23 5.89 1.27.06 1.9-1.96 2.53.25l.44 1.71.01.07h0z"/></g><path d="M118.48 109.74l.32.25-.7.76c-.28.3-.35.51-.15.69.24.23.41.15.66-.12l.76-.82.25.25-.76.89c-.41.48-.79.37-1.12.07-.28-.26-.44-.64-.03-1.11l.77-.86zM119.75 110.82l.32.19-.06 1.52.7-1.08.32.19-1.01 1.65-.38-.19.06-1.52-.7 1.08-.32-.19 1.07-1.65zM120.32 113.48l.89-1.77.32.19-.82 1.71-.39-.13zM121.71 111.96l-.7 1.84.7.25c.65.24.96-.05 1.16-.6.21-.56.12-.97-.53-1.24l-.63-.25zm.25.44c.66.23.7.48.52.93-.17.43-.33.59-.96.27l.44-1.2zM123.8 112.66l-1.14 1.71.44.13.25-.44.76.19.06.44.44.06-.44-2.03-.37-.06zm.13.44l.13.76-.51-.06.38-.7zM124.89 112.82l-.07 1.96.74.02c.69.01.89-.36.91-.94.02-.6-.2-.96-.91-1l-.67-.04zm.38.34c.69 0 .81.22.79.71-.02.46-.12.67-.82.57l.03-1.28zM131.53 115.57v2.03h.44v-.76s.38.02.7-.06c.25-.06.42-.22.43-.62.01-.39-.22-.59-.61-.59h-.96zm.44.32l.45.01c.37 0 .3.56.01.56h-.46v-.57zM133.81 115.57l-.82 2.03h.44l.19-.51h.82l.19.51h.44l-.82-2.03h-.44zm.19.44l.32.76h-.57l.25-.76zM135.08 117.22l1.08-1.33h-.95v-.32h1.52v.32l-1.14 1.33h1.14v.38h-1.65v-.38zM141.47 113.29l.38-.06.19 1.14c.07.4-.12.68-.41.79-.33.12-.75.01-.8-.54l.32-.06c.07.33.21.36.36.3.12-.04.18-.23.15-.43l-.19-1.14zM142.11 113.18l.37-.07.17.95c.07.41.2.58.47.53.33-.06.36-.24.29-.6l-.23-1.01.38-.06.25 1.05c.15.62-.17.86-.6.94-.38.07-.78-.02-.91-.63l-.19-1.1zM144.07 114.05l.32-.13c.16.28.4.26.59.18.26-.12.29-.34.16-.42-.18-.11-.63.05-.86-.04-.28-.1-.41-.26-.39-.51.02-.3.28-.46.56-.55.32-.1.63-.06.83.32l-.38.13c-.12-.21-.28-.2-.42-.13-.12.06-.3.16-.2.33.08.14.55.05.79.06.25.01.46.18.49.42.05.34-.08.52-.47.68-.5.19-.93-.02-1.02-.34zM145.78 112.47l-.51.25-.13-.32 1.39-.57.13.25-.51.25.57 1.39-.32.19-.62-1.44zM146.6 111.77l.32-.19.89 1.65-.32.19-.89-1.65zM148.76 111.9l.38-.13c.18.38-.09 1.06-.74 1.05-.96-.02-1.06-1.08-.91-1.43.25-.59.96-.57 1.28-.25l-.32.25c-.2-.26-.65-.1-.68.14-.05.39.12.75.47.92.28.14.73-.22.52-.55zM148.57 110.57l.32-.25 1.14 1.52-.32.25-1.14-1.52zM149.77 109.62l-.32.25.7 1.9.32-.32-.19-.38.57-.51.38.19.32-.25-1.78-.88zm.13.44l.63.32-.38.38-.25-.7z"/><g><path fill="none" d="M172 160V32c0-6.6-5.4-12-12-12H32c-6.6 0-12 5.4-12 12v128c0 6.6 5.4 12 12 12h128c6.6 0 12-5.4 12-12z" opacity=".4"/><path fill="none" d="M0 0v192h192V0H0z"/><path fill="#DFDFDF" d="M160 20c6.6 0 12 5.4 12 12v128c0 6.6-5.4 12-12 12H32c-6.6 0-12-5.4-12-12V32c0-6.6 5.4-12 12-12h128m0-8H32c-11.03 0-20 8.97-20 20v128c0 11.03 8.97 20 20 20h128c11.03 0 20-8.97 20-20V32c0-11.03-8.97-20-20-20z"/><path fill="#FFF" fill-opacity=".2" d="M160 20H32c-6.6 0-12 5.4-12 12v1c0-6.6 5.4-12 12-12h128c6.6 0 12 5.4 12 12v-1c0-6.6-5.4-12-12-12z"/><path fill="#212121" fill-opacity=".1" d="M160 172H32c-6.6 0-12-5.4-12-12v-1c0 6.6 5.4 12 12 12h128c6.6 0 12-5.4 12-12v1c0 6.6-5.4 12-12 12z"/><radialGradient id="a" cx="23.768" cy="23.933" r="204.625" gradientUnits="userSpaceOnUse"><stop offset="0" stop-color="#fff" stop-opacity=".1"/><stop offset="1" stop-color="#fff" stop-opacity="0"/></radialGradient><path fill="url(#a)" d="M160 172H32c-6.6 0-12-5.4-12-12V32c0-6.6 5.4-12 12-12h128c6.6 0 12 5.4 12 12v128c0 6.6-5.4 12-12 12z"/></g></svg>