<svg xmlns="http://www.w3.org/2000/svg" width="192" height="192"><path fill="#C62139" d="M172 160V32c0-6.6-5.4-12-12-12H32c-6.6 0-12 5.4-12 12v128c0 6.6 5.4 12 12 12h128c6.6 0 12-5.4 12-12z"/><path fill="#00297B" d="M172 32c0-1.78-.41-3.47-1.11-5H21.11c-.7 1.53-1.11 3.22-1.11 5v128c0 1.78.41 3.47 1.11 5h149.78c.71-1.53 1.11-3.22 1.11-5V32z"/><path fill="#C62139" d="M96.09 54.55s-27.73 18.9-27.73 41.19 27.73 41.72 27.73 41.72 27.55-17.83 27.55-41.72c0-23.9-27.55-41.19-27.55-41.19"/><path fill="#66AFEB" d="M119.46 103.1c.61-2.37.95-4.83.95-7.37 0-21.39-24.33-37.26-24.33-37.26S71.4 74.87 71.4 95.73c0 2.5.35 4.95.97 7.31l47.09.06"/><path fill="#007BDE" d="M95.89 133.35s19.08-12.64 23.57-30.31h-47.1c4.55 17.34 23.53 30.31 23.53 30.31"/><path fill="#9C8431" d="M120.3 98.23c-4.17 2.97-27.67 1.55-27.67 1.55l-1.31 3.33h28.14c.12-.46.22-.91.32-1.37l.52-3.51"/><path fill="#FFF100" d="M83.43 122.12c-2.08-2.32-4.14-4.94-5.96-7.79 5.83-.22 16.82 2.45 17.18 4.94.11.82-8.26-.33-11.22 2.85zm27.79-10.94c-2.5 1.31-8.11 2.73-10.61 2.02s-6.44 1.55-5.96 2.02c.79.79 6.56-.12 6.56 4.99 0 4.28-6.68 2.38-9.3 4.16a16.318 16.318 0 00-3.31 2.98c4.1 3.79 7.31 5.99 7.31 5.99s7.61-5.04 14.34-13.2l3.17-4.2c1.28-1.87 2.46-3.85 3.48-5.94-1.41.06-3.95.28-5.68 1.18z"/><path fill="#009270" d="M101.97 78.08l-.11-.75 1.39.09-.14-.76 1.39.45-.27-.71 1.61.76-.27-.67 1.25.71-.18-.76 1.21.62-.18-.62 1.16.85-.14-.76 1.66.71c-2.1-4.05-10.69-1.87-10.69-1.87.18-.27 2.73-1.16 2.73-1.16l-1.03-.54 1.61-.18-.8-.76 1.12-.22 1.43-.18-.98-.67 1.92-.14-.8-.49 1.61-.58-.81-.36 1.39-.71c-4.42.13-7.35 2.53-8.83 5.03.03-1.2.02-2.34-.07-2.63l-.45.32.13-1.87-.67.4-.13-2.23-.67.71-.18-2.18-.49.76-.49-2.14-.54.67-.49-1.38-.4.53-1.12-1.16.49 1.16-.67.14 1.52 1.52-1.21.04 1.48 1.16-.72.23 1.34 1.34-.72.35 1.39 1.38-.94.35 1.57 1.43-.9.05.94 1.2-.46.15c-1.25-1.53-4.42-5.05-7.01-4.87l.71.89-.36.27 1.21.67-.27.49 1.21.45-.45.36 1.07.62-.72.23 1.3.62-.16.56 1.12.27-.49.4 1.3 1.03.58.4-.24-.04h.01s-3.8-2.23-8.99-1.16-6.31 4.32-6.31 4.32l1.74-.8.04.71 1.57-.98.04.71L84 78.61l.22.8 1.21-1.07.09.58 1.97-1.25v.8l1.57-.71-.13.76 2.95-.53s-6.98 2.32-7.87 7.89l1.34-1.6.14.75.85-1.69.22.67.76-1.56.22.93 1.16-1.69.09.98 1.34-1.83v.89l1.43-1.56-.04 1.16s1.39-1.16 1.83-1.16l-1.65 2.14.54.18s-1.16.94-1.25 1.11c-.09.18.76 0 .76 0s-1.03 1.07-1.07 1.38c-.04.31.67 0 .67 0s-.94 1.2-1.07 1.65c-.14.45.49.09.49.09s-.58 1.43-.63 1.83c-.04.4.67-.09.67-.09l.4 2.45.72-2.94.45.67v-2.1l.4.35-.04-1.38.54.53-.28-1.67.58.66-.09-1.42.58.58v-1.87l.54.49.09-1.29.63.31s.09-1.56.81-1.52c.71.04 1.61.8 1.25 1.16l.63-.17-.13 1.51.58-.35-.09 1.11.49-.22-.18 1.42.58-.35.04 1.73.67-.49-.04 2.05.67-.53v1.69l.63-.44.67 1.65-.14-2.45.49.4-.9-1.74.67-.09-.72-1.16.67.05-.98-1.17.67-.13-1.48-1.07.81-.31-1.52-.98.58-.22-1.07-1.11 1.12.45.36-.71 1.34 1.07v-1.07l1.16 1.6.14-.98.9 1.25.18-.58.63 1.25.31-.93.63 1.34.18-.94.58 1.47.54-.58.27 1.52.53-.58.49 1.34.63-.49.54 1.52c-.03-.03 1.14-6.47-7.55-7.97z"/><path fill="#7B4800" d="M105.86 118.44c-1.55-.12-6.96-4.1-8.82-11.23-2.36-9.02-1.41-24.4-1.22-26.96-.04.01-.09.01-.14.01-.49 0-.88-.4-.88-.88 0-.35.2-.65.5-.79a.949.949 0 01-.56-.86c0-.52.42-.95.95-.95.4 0 .74.25.88.61.18-.19.44-.31.73-.31a1.007 1.007 0 01.54 1.86c0 .52-.42.94-.95.94-.15 0-.29-.04-.42-.1-.02.04-.04.08-.07.12l.34-.02c-.42 8.5-.03 20.69 1.13 25.2 1.97 7.66 7.7 10.62 9.06 11.35.78.4.49 2.12-1.07 2.01zm-12.87-10.23s.31 1.59-3.54 2.17v.67c.66-.08 1.07-.16 1.07-.16s.36 1.09-4.2 1.09c-4.56 0-4.36-1.11-4.36-1.11s.41.07 1.05.15v-.6c-3.9-.49-3.5-1.85-3.5-1.85s2.98.24 6.68.24c3.7 0 6.8-.6 6.8-.6zm-4.21 2.25c-.73.08-1.58.12-2.59.12-.94 0-1.75-.03-2.44-.09v.6c.77.08 1.71.15 2.63.15.87 0 1.71-.06 2.39-.13v-.65z"/><path d="M87.24 108.84h1.01V97.96h-1.01v10.88z"/><path fill="#FFF" d="M83.09 98.58s5.72 2.14 7.99 9.63c0 0-5.25-1.07-8.23.12h-1.67s2.86-4.16 1.91-9.75"/><path fill="#C62139" d="M81.77 93.95h2.15v3.58h-.72l-.11-.83c-.21.32-.39.54-.56.67-.28.23-.63.34-1.05.34-.68 0-1.24-.31-1.68-.92-.45-.61-.68-1.45-.68-2.52 0-1.08.23-1.95.69-2.6.46-.65 1.06-.98 1.82-.98.65 0 1.18.22 1.58.65.4.43.63.96.68 1.61h-1.06c-.08-.46-.28-.78-.6-.95-.18-.1-.37-.15-.59-.15-.42 0-.76.2-1.02.61-.27.4-.4 1.02-.4 1.83 0 .82.15 1.4.43 1.75.29.34.62.51.99.51.36 0 .66-.13.89-.4.23-.27.37-.62.43-1.06h-1.2v-1.14zM92 94.96c0 .46-.04.79-.12 1-.13.37-.42.56-.85.56-.44 0-.72-.19-.85-.56-.08-.21-.13-.55-.13-1v-4.1h-1.1v4.1c0 .71.08 1.26.25 1.65.32.72.93 1.08 1.82 1.08.9 0 1.5-.36 1.82-1.08.17-.4.25-.95.25-1.65v-4.1H92v4.1zm9.74-4.1l1.84 6.67h-1.17l-.33-1.37h-1.9l-.36 1.37h-1.13l1.85-6.67h1.2zm.04 4.15l-.65-2.62-.66 2.62h1.31zm9.54-4.15l-.93 5.24-.94-5.24h-1.57v6.66h1v-4.51-.55-.54l.97 5.59h1.05l.98-5.59v5.6h1v-6.66h-1.56z"/><g><path fill="none" d="M172 160V32c0-6.6-5.4-12-12-12H32c-6.6 0-12 5.4-12 12v128c0 6.6 5.4 12 12 12h128c6.6 0 12-5.4 12-12z" opacity=".4"/><path fill="none" d="M0 0v192h192V0H0z"/><path fill="#DFDFDF" d="M160 20c6.6 0 12 5.4 12 12v128c0 6.6-5.4 12-12 12H32c-6.6 0-12-5.4-12-12V32c0-6.6 5.4-12 12-12h128m0-8H32c-11.03 0-20 8.97-20 20v128c0 11.03 8.97 20 20 20h128c11.03 0 20-8.97 20-20V32c0-11.03-8.97-20-20-20z"/><path fill="#FFF" fill-opacity=".2" d="M160 20H32c-6.6 0-12 5.4-12 12v1c0-6.6 5.4-12 12-12h128c6.6 0 12 5.4 12 12v-1c0-6.6-5.4-12-12-12z"/><path fill="#212121" fill-opacity=".1" d="M160 172H32c-6.6 0-12-5.4-12-12v-1c0 6.6 5.4 12 12 12h128c6.6 0 12-5.4 12-12v1c0 6.6-5.4 12-12 12z"/><radialGradient id="a" cx="23.768" cy="23.933" r="204.625" gradientUnits="userSpaceOnUse"><stop offset="0" stop-color="#fff" stop-opacity=".1"/><stop offset="1" stop-color="#fff" stop-opacity="0"/></radialGradient><path fill="url(#a)" d="M160 172H32c-6.6 0-12-5.4-12-12V32c0-6.6 5.4-12 12-12h128c6.6 0 12 5.4 12 12v128c0 6.6-5.4 12-12 12z"/></g></svg>