<svg xmlns="http://www.w3.org/2000/svg" width="192" height="192"><path fill="#DE2910" d="M160 20H32c-6.6 0-12 5.4-12 12v128c0 6.6 5.4 12 12 12h128c6.6 0 12-5.4 12-12V32c0-6.6-5.4-12-12-12z"/><path fill="#FFF" d="M106.93 50.24c-4.65-.27-9.11.48-13.21 2.71-7.32 4.02-11.63 10.07-12.95 18.27-1.02 6.61.69 12.65 5.1 17.78 2.13 2.49 4.76 4.41 7.65 5.88-3.33-2.99-5.12-6.84-5.68-11.23-.56-4.39.38-8.51 2.76-12.25.19.06.35.22.51.38l-.09.29c-.97 1.68-1.76 3.42-2.16 5.29-1.03 4.4-.53 8.67 1.63 12.64.96 1.89 2.29 3.6 4 4.79-.13-.26-.14-.44-.29-.73-1.88-2.93-2.11-6.06-.73-9.29 1.19-2.66 3.14-4.44 5.76-5.68a10.22 10.22 0 002.93-2.19c1.86-2.13 3.02-4.69 3.42-7.51.27-2.44-.05-4.65-1.39-6.67-.76-1.2-1.31-2.43-1.5-3.76-.32-1.9-.02-3.79 1.05-5.44.69-1.14 1.73-2.06 2.9-2.73.16-.16.47-.16.57-.45-.18-.07-.18-.07-.28-.1zM94.46 70.25c-.47.79-1.04 1.55-1.54 2.44-.19-1.01-.42-1.93-.55-2.81-.86-.28-1.77-.37-2.79-.81.88-.45 1.67-.92 2.46-1.4 0-.63-.1-1.3-.1-1.93.06-.51.03-.73.09-.92.32 0 .35.22.51.38.48.47.95.94 1.52 1.45.85-.35 1.7-.7 2.65-1.02-.41.92-.81 1.84-1.19 2.66.6.72 1.11 1.42 1.78 2.27-1-.13-1.92-.22-2.84-.31zM81.8 100.06c-4.35-.81-7.99-2.95-10.82-6.37.12-.16.32-.27.51-.37l.24.18c1.3 1.44 2.72 2.72 4.38 3.67 3.88 2.32 8.09 3.15 12.54 2.3 2.1-.33 4.12-1.09 5.78-2.35-.28.04-.46 0-.78.05-3.37.89-6.42.16-9.07-2.14-2.17-1.95-3.27-4.35-3.65-7.22-.2-1.26-.6-2.41-1.19-3.46-1.46-2.42-3.55-4.3-6.11-5.54-2.24-1-4.44-1.37-6.77-.71-1.37.36-2.71.5-4.04.28-1.9-.27-3.62-1.14-4.86-2.66-.88-1.01-1.44-2.28-1.72-3.59-.1-.2-.01-.5-.25-.68l-.18.24c-1.67 4.35-2.32 8.82-1.45 13.4 1.59 8.2 6.04 14.15 13.44 17.91 5.99 2.99 12.25 3.21 18.49.57 3.02-1.27 5.65-3.19 7.93-5.49-3.86 2.27-8.07 2.79-12.42 1.98zm-13.36-6.11c-.16-.98-.37-1.87-.58-2.77-.6-.19-1.26-.3-1.87-.49-.46-.21-.68-.25-.85-.37.1-.3.32-.27.51-.37.6-.31 1.19-.62 1.84-1.01-.07-.92-.15-1.84-.16-2.84.75.67 1.5 1.34 2.17 1.95.87-.35 1.69-.63 2.7-1-.43.93-.79 1.77-1.16 2.62.61.69 1.16 1.46 1.86 2.21-1.02-.12-1.96-.19-2.85-.34-.52.73-.88 1.58-1.61 2.41zm31.86 14.54c-.18-3.27-1.1-6.39-2.49-9.32.83 4.4-.09 8.54-2.32 12.37s-5.47 6.53-9.64 8.05c-.11-.17-.14-.39-.17-.61.08-.06.17-.11.25-.17 1.79-.74 3.48-1.65 4.93-2.89 3.49-2.87 5.69-6.56 6.39-11.03.39-2.08.37-4.25-.27-6.24-.06.28-.16.44-.21.75-.29 3.47-2.01 6.1-5.07 7.83-2.56 1.39-5.2 1.61-8.03 1.01-1.25-.24-2.47-.25-3.66-.04-2.77.56-5.25 1.89-7.28 3.88-1.7 1.77-2.79 3.72-2.95 6.14-.12 1.42-.44 2.72-1.09 3.9-.9 1.7-2.29 3.02-4.15 3.68-1.24.49-2.63.59-3.96.41-.22.03-.47-.16-.72.01.11.17.11.17.17.25 3.53 3.04 7.52 5.15 12.13 5.88 8.25 1.26 15.36-.93 21.39-6.63 4.81-4.64 7.13-10.46 6.75-17.23zm-17.88 13.19c-.38.5-.71 1.09-1.09 1.59-.36.36-.47.56-.63.67-.25-.19-.14-.39-.17-.61-.09-.66-.18-1.33-.33-2.08-.89-.24-1.78-.48-2.73-.8.88-.48 1.76-.96 2.56-1.39-.04-.94-.02-1.8-.03-2.88.73.71 1.4 1.34 2.08 1.97.86-.34 1.77-.6 2.71-1-.46.92-.84 1.78-1.27 2.57.51.74 1.18 1.37 1.72 2.34-.99-.18-1.9-.28-2.82-.38zm41.25-14.23c-3.1-5.93-8.04-9.79-14.64-11.31-3.19-.75-6.45-.73-9.64-.21 4.46.44 8.18 2.48 11.22 5.7 3.05 3.21 4.73 7.08 5.02 11.51-.19.06-.41.03-.63 0l-.09-.29c-.21-1.93-.61-3.8-1.39-5.54-1.78-4.15-4.7-7.3-8.8-9.22-1.89-.96-3.98-1.54-6.06-1.49.25.13.37.28.66.41 3.25 1.25 5.29 3.64 6.09 7.06.62 2.85.09 5.44-1.28 7.99-.58 1.14-.93 2.3-1.06 3.5-.24 2.81.35 5.57 1.69 8.07 1.22 2.13 2.79 3.72 5.06 4.55 1.33.51 2.49 1.18 3.43 2.14 1.38 1.34 2.26 3.05 2.37 5.01.12 1.33-.17 2.69-.72 3.92-.03.22-.29.41-.19.69l.29-.09c3.9-2.54 7.05-5.78 9.04-10 3.52-7.58 3.41-15.01-.37-22.4zm-5.92 11.82c-.66-.1-1.33-.2-2.09-.27-.48.79-.96 1.58-1.53 2.39-.22-.98-.43-1.96-.62-2.85-.92-.23-1.74-.48-2.78-.78.89-.5 1.68-.97 2.48-1.44-.09-.92-.08-1.87-.2-2.88.75.7 1.48 1.31 2.11 1.94.86-.28 1.65-.75 2.73-1-.45.88-.8 1.73-1.15 2.59.38.51.85.99 1.22 1.49.25.44.41.6.47.79-.27.21-.42.05-.64.02zM136.7 80.5c-6.1-5.7-13.2-7.9-21.4-6.6-6.6 1.1-11.8 4.6-15.3 10.4-1.7 2.8-2.7 5.9-3.2 9.1 1.8-4.1 4.9-7 8.9-8.9 4-1.9 8.2-2.3 12.5-1.2 0 .2-.1.4-.2.6h-.3c-1.9-.4-3.8-.6-5.7-.4-4.5.4-8.4 2.2-11.5 5.5-1.5 1.5-2.7 3.3-3.3 5.3.21-.2.38-.27.6-.5 2.2-2.7 5.1-3.9 8.6-3.6 2.9.3 5.2 1.6 7.2 3.7.9.9 1.9 1.6 3 2.1 2.6 1.1 5.4 1.4 8.2.9 2.4-.5 4.4-1.5 5.9-3.4.9-1.1 1.9-2 3.1-2.6 1.7-.9 3.6-1.2 5.5-.7 1.3.3 2.5 1 3.5 1.9.2.1.3.4.6.4v-.3c-1.2-4.5-3.3-8.5-6.7-11.7zm-14 6.5c-.5.8-1 1.5-1.6 2.4-.2-1-.4-1.9-.6-2.8-.9-.2-1.8-.5-2.8-.7.9-.5 1.7-1 2.5-1.4 0-.9-.2-1.8-.1-2.9.7.7 1.4 1.3 2.1 1.9.6-.2 1.2-.5 1.8-.7.5-.1.7-.2.9-.2.1.3-.1.4-.2.6-.3.6-.6 1.2-.9 1.9.6.7 1.2 1.4 1.8 2.2-1-.1-2-.2-2.9-.3z"/><path fill="none" d="M172 160V32c0-6.6-5.4-12-12-12H32c-6.6 0-12 5.4-12 12v128c0 6.6 5.4 12 12 12h128c6.6 0 12-5.4 12-12z" opacity=".4"/><path fill="none" d="M0 0v192h192V0H0z"/><path fill="#DFDFDF" d="M160 20c6.6 0 12 5.4 12 12v128c0 6.6-5.4 12-12 12H32c-6.6 0-12-5.4-12-12V32c0-6.6 5.4-12 12-12h128m0-8H32c-11.03 0-20 8.97-20 20v128c0 11.03 8.97 20 20 20h128c11.03 0 20-8.97 20-20V32c0-11.03-8.97-20-20-20z"/><path fill="#FFF" fill-opacity=".2" d="M160 20H32c-6.6 0-12 5.4-12 12v1c0-6.6 5.4-12 12-12h128c6.6 0 12 5.4 12 12v-1c0-6.6-5.4-12-12-12z"/><path fill="#212121" fill-opacity=".1" d="M160 172H32c-6.6 0-12-5.4-12-12v-1c0 6.6 5.4 12 12 12h128c6.6 0 12-5.4 12-12v1c0 6.6-5.4 12-12 12z"/><radialGradient id="a" cx="23.768" cy="23.933" r="204.625" gradientUnits="userSpaceOnUse"><stop offset="0" stop-color="#fff" stop-opacity=".1"/><stop offset="1" stop-color="#fff" stop-opacity="0"/></radialGradient><path fill="url(#a)" d="M160 172H32c-6.6 0-12-5.4-12-12V32c0-6.6 5.4-12 12-12h128c6.6 0 12 5.4 12 12v128c0 6.6-5.4 12-12 12z"/></svg>