<svg xmlns="http://www.w3.org/2000/svg" width="192" height="192"><path fill="#0073CF" d="M172 160V32c0-6.6-5.4-12-12-12H32c-6.6 0-12 5.4-12 12v128c0 6.6 5.4 12 12 12h128c6.6 0 12-5.4 12-12z"/><path fill="#FFF" d="M20 71h152v50H20z"/><path fill="#0073CF" d="M104.03 93l-4.96 4 1.9 5.83-4.97-3.6-4.96 3.61 1.9-5.83-4.96-4h6.14l1.9-5.44L97.9 93h6.13zm31.12-9.51l-1.9 5.83 4.96-3.61 4.96 3.61-1.9-5.83 4.96-3.49h-6.14l-1.9-5.96-1.9 5.96h-6.14l5 3.49zm4.97 21.51l-1.9-5.62-1.9 5.62h-6.14l4.96 3.82-1.9 5.83 4.96-3.61 4.96 3.61-1.9-5.83 4.96-3.82h-6.1zM53.78 74.04L51.88 80h-6.14l4.96 3.49-1.9 5.83 4.96-3.61 4.96 3.61-1.9-5.83L61.81 80h-6.14l-1.89-5.96zM55.67 105l-1.9-5.62-1.9 5.62h-6.14l4.96 3.82-1.9 5.83 4.96-3.61 4.96 3.61-1.9-5.83 4.96-3.82h-6.1z"/><path fill="none" d="M172 160V32c0-6.6-5.4-12-12-12H32c-6.6 0-12 5.4-12 12v128c0 6.6 5.4 12 12 12h128c6.6 0 12-5.4 12-12z" opacity=".4"/><path fill="none" d="M0 0v192h192V0H0z"/><path fill="#DFDFDF" d="M160 20c6.6 0 12 5.4 12 12v128c0 6.6-5.4 12-12 12H32c-6.6 0-12-5.4-12-12V32c0-6.6 5.4-12 12-12h128m0-8H32c-11.03 0-20 8.97-20 20v128c0 11.03 8.97 20 20 20h128c11.03 0 20-8.97 20-20V32c0-11.03-8.97-20-20-20z"/><path fill="#FFF" fill-opacity=".2" d="M160 20H32c-6.6 0-12 5.4-12 12v1c0-6.6 5.4-12 12-12h128c6.6 0 12 5.4 12 12v-1c0-6.6-5.4-12-12-12z"/><path fill="#212121" fill-opacity=".1" d="M160 172H32c-6.6 0-12-5.4-12-12v-1c0 6.6 5.4 12 12 12h128c6.6 0 12-5.4 12-12v1c0 6.6-5.4 12-12 12z"/><radialGradient id="a" cx="23.768" cy="23.933" r="204.625" gradientUnits="userSpaceOnUse"><stop offset="0" stop-color="#fff" stop-opacity=".1"/><stop offset="1" stop-color="#fff" stop-opacity="0"/></radialGradient><path fill="url(#a)" d="M160 172H32c-6.6 0-12-5.4-12-12V32c0-6.6 5.4-12 12-12h128c6.6 0 12 5.4 12 12v128c0 6.6-5.4 12-12 12z"/></svg>