<svg xmlns="http://www.w3.org/2000/svg" width="192" height="192"><path fill="#171796" d="M172 160V32c0-6.6-5.4-12-12-12H32c-6.6 0-12 5.4-12 12v128c0 6.6 5.4 12 12 12h128c6.6 0 12-5.4 12-12z"/><path fill="#FFF" d="M160 20H32c-6.6 0-12 5.4-12 12v89h152V32c0-6.6-5.4-12-12-12z"/><path fill="red" d="M172 32c0-6.6-5.4-12-12-12H32c-6.6 0-12 5.4-12 12v39h46.46v34.77c0 16.25 13.3 29.55 29.55 29.55s29.55-13.3 29.55-29.55V71H172V32z"/><path fill="#FFF" d="M96.01 134.84c15.94 0 28.98-13.04 28.98-28.98V71.22H67.02v34.63c0 15.95 13.05 28.99 28.99 28.99z"/><path fill="red" d="M79.26 72.31v12.26H68.1V72.31h11.16zm0 12.26v12.25h11.15V84.57H79.26zM68.1 105.79c0 1.11.07 2.21.2 3.29h10.96V96.82H68.1v8.97zm22.31-8.97v12.26H79.26v12.25h11.15v11.76c1.18.24 2.39.41 3.62.49 1.3.08 2.6.08 3.9 0 1.23-.09 2.45-.25 3.63-.5v-11.76H90.41v-12.25h11.15V96.82H90.41zm22.31 24.51v-12.25h10.95c.13-1.08.2-2.19.2-3.3v-8.95h-11.14v12.25h-11.15v12.25h11.14zm0 6.71c2.47-1.87 4.63-4.13 6.37-6.7h-6.37v6.7zm-33.46 0v-6.71h-6.38c1.74 2.58 3.9 4.85 6.38 6.71zm33.46-43.47h-11.15v12.25h11.15V84.57zM90.41 72.31v12.26h11.15V72.31H90.41zm33.46 0h-11.14v12.26h11.14V72.31z"/><path fill="#FFF" d="M124.49 70.3l6.92-15.68-5.27-8.51-8.73 3.23-6.13-7.01-8.08 4.63-7.2-5.9-7.2 5.9-8.08-4.63-6.13 7.01-8.73-3.23-5.27 8.51L67.5 70.3c8.7-3.94 18.35-6.13 28.5-6.13a68.9 68.9 0 0128.49 6.13z"/><path fill="#0093DD" d="M74.79 50.03l-.01.01-8.66-3.21-4.84 7.82 1.86 4.22 4.7 10.67c3.5-1.54 7.16-2.81 10.94-3.77l-3.99-15.74zm-4.25 13.98c-2.04 0-3.81-1.45-4.2-3.46 0-.02.01-.04.03-.05h.02c.02 0 .03.01.04.02a4.22 4.22 0 003.66 2.14c2.32 0 4.21-1.89 4.21-4.21 0-.23-.02-.45-.06-.68 0-.02.01-.05.04-.05h.01c.02 0 .04.01.04.03.32.61.49 1.29.49 1.98 0 2.36-1.92 4.28-4.28 4.28zm32.62-16.33l-1.35 16.18a69.814 69.814 0 00-11.59 0l-1.34-16.18L96 41.84l7.14 5.85.02-.01zm21 21.87c-3.5-1.55-7.15-2.82-10.91-3.78l4-15.73 8.64-3.2 4.84 7.82-6.57 14.89z"/><path fill="#171796" d="M88.87 47.68l1.34 16.18c-3.91.32-7.73.97-11.44 1.91l-3.99-15.73 6.07-6.93 8.01 4.59.01-.02zm28.38 2.36l-.02.01-6.08-6.95-7.99 4.58-1.35 16.18c3.91.32 7.73.97 11.44 1.91l4-15.73z"/><path fill="#FFF" d="M115.79 55.78c4.33 1.1 8.52 2.56 12.54 4.34l-2.53 5.75a73.28 73.28 0 00-11.55-4l1.54-6.09z"/><path fill="red" d="M89.54 55.75l.34 4.09a73.12 73.12 0 00-12.1 2.02l-1.01-3.98c4.14-1.05 8.41-1.77 12.77-2.13zm-.66-8.05c-4.82.4-9.52 1.19-14.09 2.35l.99 3.9c4.35-1.11 8.84-1.86 13.43-2.24l-.33-4.01zm39.01 13.41l-1.63 3.7a74.54 74.54 0 00-11.73-4.06l1-3.93c4.26 1.1 8.39 2.53 12.36 4.29zm-5.74.31a.902.902 0 00-.09-.1l-.16-.13s-.01-.01-.01-.02c-.05-.09-.16-.17-.32-.23s-.38-.11-.62-.15c-.17-.03-.33-.03-.46.01-.1.03-.18.07-.25.13.23-.01.44.12.64.24s.46.11.69.13c.08-.04.1 0 .11.02.07.04.15.06.23.08.09.02.17.02.24.02z"/><path d="M113.95 55.14c-.01.06-.05.12-.09.14-.08.17-.23.22-.43.21-.02.12-.07.21-.15.26.09.28 0 .39-.2.38-.04.08-.11.13-.22.11a.39.39 0 01-.28.16c.01.07.04.11.09.18.14.21-.07.29-.26.3.05.14.05.28.04.42.19.12.22.24.04.36.13.23.08.4-.17.52 0 .13-.02.26-.1.33-.06.05-.14.06-.09.15.1.17.08.37-.07.38-.03 0-.06 0-.06.05 0 .02-.02.03-.04.05-.18.1-.34.2-.5.33-.02.02-.04.03-.07.01-.11.24-.32.49-.55.73-.04.18-.14.3-.31.37-.01.06-.05.09-.1.1.1.11.13.21.04.31-.11.12-.26.24-.41.28-.32.08-.52.07-.64-.06-.11-.11-.07-.19 0-.22-.2.02-.24-.09-.23-.23.01-.07.03-.06.1-.06.11 0 .2-.05.3-.09.04-.07.09-.12.15-.17.04-.22.18-.35.37-.42.15-.06.3-.21.44-.4.09-.15.18-.3.26-.45a.384.384 0 01-.08-.24.571.571 0 01-.18-.16c-.14-.01-.2-.07-.22-.16-.03 0-.07 0-.1-.01-.07.04-.14.08-.22.08-.11.11-.23.21-.35.29-.04.11-.12.16-.22.17-.28.03-.45.39-.61.53-.06.05-.1.13-.13.23-.01.19-.05.33-.15.33-.09 0-.11-.01-.11-.02-.04 0-.08 0-.12.01.08.08.09.19.02.28-.07.09-.17.12-.27.13-.2.01-.37 0-.52-.07-.14-.06-.16-.15-.16-.23-.1-.05-.13-.1-.11-.15.01-.06.07-.1.14-.08.06-.03.13-.05.19-.06.18-.2.37-.37.58-.45.06-.07.13-.14.22-.19.02-.18.14-.32.28-.45a.49.49 0 01.07-.19c-.01-.04 0-.06 0-.09-.06-.11-.09-.24-.05-.34-.02-.05-.02-.12-.02-.17-.34.2-.45.13-.48-.03-.12.1-.24.15-.32 0-.12.04-.24.08-.36.03-.08.03-.16.06-.25.06-.04.07-.09.15-.15.22 0 .15-.06.31-.16.46-.06.16-.13.33-.22.49 0 .05-.01.11-.03.16.03.19-.04.28-.14.33-.03.08-.07.15-.13.23 0 .02-.01.05-.01.08.04.11.05.22-.06.33-.09.06-.19.12-.28.16-.11.06-.22.03-.31-.01-.17-.06-.15-.12-.13-.18-.05.02-.11.02-.17 0l-.11-.08c-.04-.07-.05-.12.04-.17.11-.05.19-.08.27-.17.03-.07.07-.12.12-.13.05-.12.12-.21.2-.23.06-.15.13-.32.22-.47a.18.18 0 00.04-.14c0-.04 0-.08.04-.1.02-.02.05-.03.01-.05a.427.427 0 01.05-.37c.09-.13.19-.46.09-.61a.842.842 0 01-.02-.27c-.03 0-.06 0-.09-.02-.07-.04-.13 0-.19.08-.04.1-.08.19-.12.19-.04.26-.17.46-.3.51-.03.12-.05.24-.03.36.01.13 0 .22-.06.23-.07.02-.13.05-.17.16-.01.03-.02.06-.02.11.09.09.06.21-.02.3-.2.2-.44.17-.7.09-.19-.07-.23-.15-.22-.23-.27-.02-.21-.23.01-.29.24-.07.43-.22.59-.44.01-.26.07-.43.21-.46.01-.16.06-.3.13-.44.07-.12.11-.26.09-.42-.15-.09-.15-.19-.02-.29.04-.03.04-.05-.02-.08-.09-.01-.08-.1-.07-.18 0-.04-.03-.06-.07-.06-.2-.03-.15-.11-.06-.2.04-.04.06-.1.02-.12-.03-.02-.05-.09-.06-.15-.12-.09-.07-.19 0-.28-.07-.06-.1-.14-.11-.24-.23-.01-.31-.13-.19-.29.05-.07.12-.14.2-.2.05-.08.1-.17.08-.25-.07-.17.14-.29.32-.42a.326.326 0 01-.04-.13c-.1-.1-.08-.19.04-.27a.326.326 0 01-.04-.13c-.25.05-.25-.1-.13-.34-.14-.08-.1-.23.16-.46 0-.05.01-.09.03-.12-.12 0-.23.04-.32.1-.1.07-.2.06-.3.02-.03-.05-.08-.09-.13-.13-.07-.06-.08-.13-.07-.2-.29.02-.35-.2-.17-.33.1-.08.17-.16.2-.25.08-.2.25-.34.41-.48 0-.06.01-.12.03-.17a.505.505 0 00-.23-.09.351.351 0 00-.18-.2c-.05-.03-.07-.06-.04-.14-.16-.14-.12-.22-.08-.3.28-.07.55-.08.82.08.12.05.2.11.26.19.12-.1.25-.18.38-.26.18-.14.37-.25.57-.32.29-.15.57-.23.86-.26.3-.05.61-.05.91-.04.25.02.5.08.73.22.21.11.42.21.63.32.22.12.45.24.67.33.28.11.6.15.94.16.17.01.33.01.49-.04.13-.03.21.05.07.14-1.05.64-1.87.07-2.58-.19.26.17.48.35.68.54.27.26.57.52 1.09.76.32.15.67.26 1.12.26.15 0 .32 0 .49-.03.09-.01.13-.01.13.04 0 .03-.01.09-.06.13-.27.18-.53.23-.81.25-.54.03-1.12-.14-1.65-.43-.42-.23-.71-.51-1.05-.75-.34-.25-.63-.39-.94-.45-.31-.07-.64-.06-.92.03.08.02.16.06.2.11.14.09.33.12.6.15.14.02.1.11-.12.23a.56.56 0 01-.52.24c-.31.2-.42.08-.52-.05-.01.08-.04.17-.07.25.01.04.02.09 0 .14.05.08.07.15.06.23.01.04.02.09.07.12.06.06.11.13.11.21 0 .05.03.1.07.14.06.05.13.1.19.17.19.07.27.21.3.4.14.05.2.15.23.27.08.03.15.07.2.15.29 0 .57 0 .83.03.25.03.45.18.63.38.12.02.24.02.37 0 .13-.06.27-.1.42-.11.25-.02.49-.03.73.02.16.04.28.12.39.24.15.17.37.14.57.06.26-.11.48-.11.75.01.11-.04.23-.07.34-.05.1-.11.2-.13.31-.14.18-.04.31-.01.27.21zm12.84-3.58l-1.47-.51-.3-1.53-.01-.07-.05.05-1.18 1.02-1.48-.51-.07-.02.01.07.3 1.53-1.18 1.03-.05.05.07.02 1.47.51.3 1.53.01.07.05-.05 1.18-1.02 1.48.51.07.02-.01-.07-.3-1.53 1.18-1.03.05-.05-.07-.02zm-60.05 4.51l-.01.07.07-.02 1.46-.5 1.17 1.01.05.05.01-.07.3-1.52 1.46-.5.07-.02-.05-.05-1.17-1.02.29-1.52.01-.07-.07.02-1.46.5-1.17-1.02-.05-.05-.01.07-.3 1.52-1.46.5-.07.02.05.05 1.16 1.02-.28 1.53zm7.63 1.66c.32.61.49 1.31.49 2 0 2.38-1.94 4.32-4.32 4.32-2.06 0-3.85-1.47-4.24-3.49-.01-.04.02-.09.06-.1.01 0 .02-.01.03-.01.03 0 .06.02.08.05a4.163 4.163 0 007.79-2.04c0-.22-.02-.45-.05-.67v-.01c0-.05.04-.08.08-.09h.01c.02-.01.05.01.07.04zm-.08.04zm.48 1.96c0-.71-.18-1.38-.49-1.96.04.22.06.45.06.69a4.26 4.26 0 01-4.25 4.25c-1.58 0-2.97-.87-3.7-2.17.38 1.95 2.1 3.42 4.15 3.42 2.33 0 4.23-1.9 4.23-4.23zm23.25-1.79c.33-.36.45-.72.45-1.12 0-.08-.03-.11-.07-.06-.06.07-.13.1-.26.11-.17.01-.33.02-.49.1a.31.31 0 01-.02-.08c.03-.1.08-.2.11-.29.06-.04.08-.09.07-.15.2-.33.38-.65.59-.98.04-.06-.03-.12-.13-.06l-.13.08c-.09.06-.19.1-.33.11-.19.04-.31.13-.32.3-.22-.13-.42-.05-.61.23-.01-.18-.03-.34-.23-.32.06-.13.01-.22-.13-.26-.14-.19-.34-.35-.48-.54-.02-.03-.04-.04-.05-.03-.01 0-.03.01-.05.03-.14.19-.27.35-.41.54-.15.05-.18.14-.13.26-.2-.02-.22.14-.23.32-.19-.28-.39-.36-.61-.23-.01-.17-.14-.25-.33-.29a.647.647 0 01-.33-.11l-.13-.08c-.09-.07-.17 0-.13.06.2.33.4.65.6.98-.01.06 0 .11.07.15.04.1.07.2.11.3a.31.31 0 00-.02.08c-.17-.08-.33-.09-.5-.1-.13-.01-.22-.04-.27-.1-.04-.05-.07-.02-.07.06 0 .4.12.76.45 1.12-.17 0-.35.01-.52.02-.06 0-.07.03-.05.08.09.23.25.43.62.57-.16.08-.25.21-.27.39-.01.17-.06.29-.16.34-.05.02-.06.05-.02.08.19.14.42.14.67.08-.12.2-.17.41-.15.64.16.04.31.01.46-.04-.02.05-.03.13-.04.23-.01.09-.03.17-.08.26-.02.02-.05.06 0 .08.25.07.49.04.69-.04 0 .18 0 .37.06.55.01.04.05.08.09.02.12-.16.24-.3.4-.39.02.07.06.13.12.16.07.04.11.13.11.26 0 .02 0 .05.03.07.11.01.39-.29.44-.45.15.09.21.18.33.35.04.06.07.02.1-.02.05-.18.05-.36.05-.54.2.07.43.1.69.04.05-.01.03-.05 0-.08a.592.592 0 01-.08-.27c-.01-.1-.01-.17-.03-.22.15.05.3.08.46.04.02-.22-.04-.43-.16-.64.25.06.49.05.68-.08.04-.03.03-.06-.02-.08-.1-.05-.15-.17-.16-.34a.468.468 0 00-.27-.39c.36-.14.52-.35.62-.57.02-.05 0-.07-.05-.08-.19-.04-.37-.05-.55-.06zm-4.31-4.05c.04.06.08.02.1-.02.04-.18.04-.36.03-.54.2.07.44.09.69.01.05-.02.03-.05 0-.08a.682.682 0 01-.1-.27.699.699 0 00-.04-.21c.15.05.31.07.46.02.01-.22-.06-.43-.18-.63.25.05.49.04.68-.11.04-.03.02-.06-.02-.08-.1-.05-.16-.17-.17-.34a.484.484 0 00-.28-.38c.36-.15.51-.37.59-.6.01-.05 0-.07-.06-.08h-.53c.31-.37.43-.74.41-1.14 0-.08-.03-.11-.07-.06-.05.07-.13.11-.26.12-.17.02-.33.03-.49.11a.689.689 0 00-.03-.08c.03-.1.07-.2.1-.3.06-.04.07-.1.06-.16.19-.33.36-.67.55-1 .04-.06-.04-.12-.13-.05-.04.03-.08.05-.12.08a.65.65 0 01-.32.12c-.19.05-.31.14-.31.31-.22-.12-.42-.04-.6.25-.02-.18-.04-.34-.24-.32.05-.13 0-.22-.14-.26-.15-.18-.36-.34-.5-.52-.02-.03-.04-.03-.05-.03-.01 0-.03.01-.05.04-.13.19-.26.36-.39.56-.14.05-.18.14-.12.27-.2-.01-.21.15-.21.33-.2-.28-.41-.35-.62-.21-.01-.17-.15-.25-.34-.28-.14 0-.24-.04-.33-.1-.05-.03-.08-.04-.13-.07-.1-.06-.17 0-.13.06.21.32.43.64.64.95-.01.06.01.11.07.15.04.1.08.2.12.29-.01.03-.01.06-.02.09-.17-.07-.34-.08-.5-.08-.13 0-.22-.03-.27-.09-.04-.05-.07-.02-.07.06.01.4.15.76.49 1.1-.17.01-.35.02-.52.04-.06.01-.07.03-.05.08.1.22.27.42.64.55-.15.09-.24.22-.25.4 0 .17-.05.29-.15.35-.04.03-.06.05-.02.08.2.13.43.13.67.06-.11.21-.15.42-.12.64.16.04.31 0 .46-.06-.02.05-.03.13-.03.23 0 .09-.02.17-.07.26-.02.03-.05.06.01.08.25.06.49.02.68-.06.01.18.02.37.08.54.02.04.06.07.09.02.11-.16.23-.31.38-.4.03.07.06.12.12.16.07.04.12.12.12.25 0 .02 0 .05.03.07.11 0 .37-.3.42-.46.16.09.22.18.34.34zm7.47-3.16c.34-.35.48-.7.5-1.1 0-.08-.02-.11-.07-.06-.06.06-.14.1-.27.1-.17 0-.33.01-.5.08-.01-.03-.01-.06-.02-.09.04-.1.09-.19.13-.29.06-.04.08-.09.07-.15.21-.32.41-.64.62-.95.04-.06-.03-.12-.13-.06-.05.03-.08.04-.13.07-.09.06-.2.09-.33.1-.19.03-.32.11-.33.29-.21-.14-.42-.07-.62.21 0-.18-.02-.34-.21-.33.06-.12.02-.22-.12-.27-.13-.19-.33-.37-.46-.56-.02-.03-.04-.04-.05-.04-.01 0-.03.01-.05.03l-.43.52c-.15.04-.19.13-.14.26-.19-.03-.22.14-.24.32-.18-.29-.38-.38-.6-.25 0-.17-.13-.26-.32-.31a.614.614 0 01-.32-.12c-.04-.03-.08-.05-.12-.08-.09-.07-.17-.01-.13.05.19.33.38.67.56 1-.01.06 0 .11.06.16l.09.3c-.01.03-.02.06-.03.08-.16-.09-.33-.1-.49-.12a.398.398 0 01-.27-.11c-.04-.05-.07-.02-.07.06-.02.4.09.76.41 1.14h-.52c-.06 0-.07.03-.06.08.09.23.24.44.59.6-.16.08-.25.2-.28.38-.01.17-.07.28-.17.34-.05.02-.06.05-.02.08.18.15.42.16.67.11-.13.2-.19.41-.17.63.15.05.31.02.46-.02-.02.04-.04.13-.05.23-.01.09-.04.17-.09.25-.02.02-.05.06 0 .08.25.08.48.06.69-.01-.01.18-.01.37.04.55.01.04.05.08.09.02.12-.16.25-.29.41-.37.02.07.05.13.11.17.07.04.11.13.1.26 0 .02 0 .04.02.07.11.01.4-.27.46-.43.15.1.21.19.32.36.04.06.07.02.1-.02.05-.18.06-.36.07-.54.2.08.43.12.68.06.05-.01.03-.05.01-.08a.722.722 0 01-.07-.28c0-.1 0-.17-.02-.22.15.06.3.09.46.06.03-.22-.02-.44-.13-.64.25.07.49.07.68-.06.04-.03.03-.05-.01-.08-.1-.06-.15-.18-.15-.35a.5.5 0 00-.25-.4c.37-.13.54-.33.64-.55.02-.05.01-.07-.05-.08-.19-.05-.38-.07-.55-.08zm25.3 10.76c.13.15.1.29-.07.35-.1.21-.29.21-.58.11-.2.04-.42-.12-.62-.27-.28-.09-.53-.25-.79-.42-.13-.1-.26-.16-.39-.19-.1-.02-.19-.04-.25 0-.03.02-.03.03 0 .05.07.06.12.15.14.25.01.09 0 .2 0 .32.01.12.08.21.2.28.08.05.18.11.33.13.07.01.09.05.09.11.04.18.07.37.14.53.02.05.05.07.11.11.19.13.09.28-.08.32-.15.13-.28.22-.43.25-.12.04-.17-.01-.21-.07-.07 0-.11-.03-.14-.08-.15-.11-.02-.3.33-.22.01-.04.04-.05.07-.05a.482.482 0 01.01-.29c-.03-.02-.06-.05-.1-.06a.812.812 0 01-.34-.19c-.18-.17-.46-.31-.74-.46-.23-.01-.39-.11-.57-.2h-.24c-.07-.02-.13 0-.17.05-.07.09-.15.07-.25.06-.11-.01-.22 0-.33-.01-.05.01-.11.03-.17.03-.13-.01-.25-.01-.33.06-.07.07-.14.07-.21.04a.242.242 0 01-.11-.08c-.09-.02-.14-.04-.16-.07-.15-.04-.19-.08-.18-.12-.19-.05-.1-.2.02-.2.15-.01.28.02.43.04.12.03.27.01.37-.08.06-.06.09-.11.17-.15-.25-.02-.44-.06-.57-.15-.37-.23-.66-.29-.9-.09-.06.04-.11.05-.18.02a.373.373 0 00-.18-.01c-.13.03-.26.01-.4-.03-.19.05-.39.06-.58.02-.16.09-.28.1-.36.03-.07-.04-.14-.08-.2-.13-.1-.02-.15-.04-.15-.08-.13-.02-.15-.06-.15-.12-.06-.06-.03-.11.02-.15.1-.04.2-.06.32 0 .07.03.12.06.16.1.08-.01.14 0 .2.02.04-.07.16-.07.29-.06.07-.04.14-.07.24-.08 0-.02-.01-.03-.01-.05-.13-.03-.2-.13-.26-.23-.2 0-.35-.09-.49-.18a.553.553 0 01-.31-.08c-.08.01-.16.01-.24-.01a.82.82 0 01-.44 0c-.1.01-.18 0-.26-.01-.09.11-.2.12-.31.07a.464.464 0 00-.26-.16c-.08-.03-.11-.06-.13-.1-.1-.06-.08-.13.02-.17.08-.04.17-.04.31.03.05.02.1.03.16.03.11-.07.23-.05.36-.03.1-.04.21-.05.33-.05.05-.03.11-.05.18-.06.04-.03.04-.06.01-.09-.03-.04-.05-.07-.05-.11-.2-.11-.27-.29-.34-.46-.11-.03-.16-.07-.17-.11-.05-.01-.11-.01-.16-.02-.25.03-.32-.05-.41-.12a.283.283 0 01-.18-.14c-.03-.04-.06-.07-.08-.11-.07-.09-.05-.2.06-.2.07.01.15.01.21-.02.08-.04.2-.03.29-.03.11-.01.17-.07.28-.17v-.12c-.02-.04 0-.06.06-.06.14 0 .22.07.27.16.16.03.29.1.37.24.21 0 .36.08.37.16.01.06-.05.12-.15.19v.04c.06.05.09.1.11.15.12.05.23.11.34.2.3-.04.82.19 1.51.63.45.08.89.2 1.3.39.09 0 .18.01.26.01.75-.11 1.48-.03 2.15.49.26.03.48.11.71.2.16.07.33.09.5.11.27.03.55.09.82.22.29.09.58.18.76.4zm-4.33-.07a.902.902 0 00-.09-.1l-.16-.13s-.01-.01-.01-.02c-.05-.09-.16-.17-.32-.23s-.38-.11-.62-.15c-.17-.03-.33-.03-.46.01-.1.03-.18.07-.25.13.23-.01.44.12.64.24s.46.11.69.13c.08-.04.1 0 .11.02.07.04.15.06.23.08.09.02.17.02.24.02z"/><path fill="#F7DB17" d="M68.61 53.94l.28-1.42 1.37-.47-1.65 1.89zm.82 2.54l.28-1.42-1.09-.95.81 2.37zm.59-2.97l.28-1.42-1.65 1.89 1.37-.47zm-.28 1.51l1.37-.47-2.46-.48 1.09.95zm-.9-2.51l-1.09-.95.81 2.37.28-1.42zm-1.14-.93L67.42 53l1.09.95-.81-2.37zm.96 2.44l2.46.48-1.09-.95-1.37.47zm-1.27-.99l-1.37.47 2.46.48-1.09-.95zm1.08 1l-2.46-.48 1.09.95 1.37-.47zm-1.35.52l-.28 1.42 1.65-1.89-1.37.47zM66.88 56l1.37-.47.28-1.42L66.88 56zm1.41-.45l1.09.95-.81-2.37-.28 1.42zm26.26 1.17c0-.02-.02-.04-.04-.04s-.04.02-.04.04.02.04.04.04.04-.01.04-.04zm-3.66-7.98c.06-.03.14.01.18.1.05.08.04.18-.02.21-.01 0-.02.01-.02.01l.08.12c.57-.08 1.14-.13 1.71-.15.57-.02 1.13-.01 1.7.04l.08-.14c-.02.01-.05.01-.07 0-.06-.03-.07-.12-.03-.2.04-.09.12-.14.18-.11.03.01.05.04.05.08l.31-.57c-.15.1-.24.17-.43.21-.21.04-.3.12-.27.24.03.12-.04.1-.15.05-.24-.12-.4.07-.48.28-.05.14-.11.14-.13-.01-.01-.05 0-.1-.01-.15-.02-.17-.07-.21-.17-.16-.12.06-.13.02-.1-.04.02-.05.06-.1.04-.17-.01-.05-.05-.07-.12-.07-.14-.18-.36-.35-.51-.53-.13.19-.27.37-.4.56-.06.01-.11.03-.11.08-.01.07.04.12.07.16.03.06.02.1-.1.05-.1-.04-.14 0-.15.17v.16c0 .15-.07.15-.13.01-.09-.21-.28-.38-.51-.25-.11.06-.15.08-.14-.04.01-.13-.09-.2-.3-.22-.19-.02-.29-.08-.44-.17l.33.5a.22.22 0 01.06-.05zm3.36 7.33c-.03-.06-.08-.09-.12-.07-.04.02-.02.08.01.14s.07.1.11.08c.03-.02.03-.09 0-.15zm.41-7.42c-.04-.02-.09.02-.12.08s-.02.13.02.15c.03.01.06-.01.09-.05l.02-.03v-.01c.03-.06.03-.13-.01-.14zm2.9 8.29c-.51-.07-1.02-.08-1.53-.09-.51 0-1.03.03-1.54.08-.02 0-.01.02-.01.03 0 .02.03.03.09.02.48-.04.96-.07 1.45-.07.51 0 1.01.02 1.53.08.02.02.06-.05.01-.05zm.17-.49c-.57-.07-1.13-.1-1.7-.1s-1.13.03-1.7.09c-.02.01-.02.07.01.06.57-.05 1.13-.08 1.69-.08s1.11.03 1.67.1c.03 0 .05-.06.03-.07zm-.24.27c0 .02.02.04.04.04s.04-.02.04-.04-.02-.04-.04-.04-.04.02-.04.04zm1.74-7.15c-.51-.02-1.03-.01-1.55.03-.02 0-.01.02-.01.03 0 .02.03.03.09.02.48-.03.97-.03 1.45-.01.51.02 1.01.05 1.53.13.02.01.06-.06.02-.06-.51-.08-1.02-.12-1.53-.14zm1.46-.08c0 .02.02.04.04.05.02 0 .04-.02.05-.04 0-.02-.02-.04-.04-.05-.03 0-.05.02-.05.04zm-3.35-.9c.06-.03.14.02.18.11.04.09.02.18-.03.2-.01 0-.02.01-.02.01l.07.13c.58-.03 1.15-.04 1.72-.02.57.02 1.13.07 1.69.16l.09-.13c-.02.01-.05 0-.07-.01-.06-.03-.06-.12-.02-.21.05-.08.13-.13.18-.1.03.02.04.05.05.09l.36-.54c-.16.09-.25.15-.44.17-.21.02-.31.09-.28.22.02.12-.05.1-.15.03-.23-.14-.41.04-.5.25-.06.14-.12.13-.13-.01v-.15c-.01-.17-.06-.22-.16-.17-.12.05-.13.01-.1-.05.02-.04.07-.09.06-.16 0-.05-.05-.07-.11-.08-.13-.19-.34-.38-.47-.56-.14.18-.29.35-.44.53-.06 0-.11.02-.12.07-.02.07.03.12.05.17.03.06.01.1-.1.04-.09-.05-.14-.01-.16.16-.01.05-.01.1-.02.16-.01.15-.08.15-.13 0-.08-.21-.25-.4-.49-.28-.11.06-.16.07-.13-.05.02-.13-.07-.2-.28-.24-.19-.03-.28-.1-.43-.21l.29.52c.01-.02.03-.04.04-.05zm.42.79c0-.02-.02-.04-.04-.05-.02 0-.04.02-.05.04 0 .02.02.04.04.05.02.01.04-.01.05-.04zm3.11-.04c-.54-.08-1.08-.13-1.62-.15-.55-.02-1.1-.01-1.65.02l.04.12c.02-.02.05-.04.08-.04.05 0 .09.04.09.1s-.04.09-.1.09c-.01 0-.02 0-.03-.01l.02.07v.01c.51-.03 1.02-.04 1.53-.02s1.01.07 1.51.15l.03-.09c-.01.01-.03.01-.04.01-.05 0-.09-.04-.09-.1 0-.05.04-.09.1-.09.04 0 .07.03.08.06l.05-.13zm-5.61 6.7c-.01.05-.01.1-.01.16-.01.15-.07.15-.13.01-.08-.21-.26-.39-.5-.26-.11.06-.15.08-.14-.04.02-.13-.08-.2-.29-.23-.19-.03-.28-.09-.44-.19l.31.51c.01-.02.02-.03.04-.04.06-.03.14.02.18.1.04.08.03.18-.03.21-.01 0-.02.01-.02.01l.08.12c.58-.06 1.15-.09 1.72-.09.57 0 1.13.03 1.7.1l.08-.14c-.02.01-.05.01-.07 0-.06-.03-.07-.12-.03-.21.04-.09.12-.13.18-.1.03.01.05.05.05.09l.33-.55c-.15.1-.25.16-.44.19-.21.03-.31.1-.28.23.03.12-.04.1-.15.04-.24-.13-.41.05-.49.26-.05.14-.12.14-.13-.01 0-.05 0-.1-.01-.15-.02-.17-.07-.21-.16-.17-.12.06-.13.02-.1-.04.02-.05.06-.1.05-.17-.01-.05-.05-.07-.11-.07-.14-.18-.35-.36-.49-.55-.14.18-.28.36-.42.55-.06 0-.11.02-.11.07-.02.07.04.12.06.16.03.06.02.1-.1.04-.07-.05-.12-.01-.13.16zm2.4.52c-.54-.06-1.09-.09-1.63-.09-.55 0-1.09.03-1.65.08l.04.12c.02-.02.04-.04.08-.04.05 0 .09.04.09.09s-.04.09-.09.09h-.03l.02.07v.01c.51-.05 1.02-.08 1.53-.08s1.01.03 1.52.1l.02-.1c-.01.01-.03.01-.04.01-.05 0-.09-.04-.09-.09s.04-.09.09-.09c.04 0 .07.02.08.06l.06-.14zm3.28-7.33c-.56-.09-1.13-.14-1.69-.16-.57-.02-1.13-.01-1.7.02-.02.01-.02.07.01.06.57-.03 1.13-.04 1.69-.02s1.11.07 1.67.16c.02.01.04-.05.02-.06zM97.88 56c-.04-.02-.09.01-.12.07-.03.06-.02.13.01.15.03.02.06 0 .09-.04l.02-.03v-.01c.03-.05.04-.12 0-.14zm-.4-7.28c-.03-.06-.08-.09-.12-.08-.04.02-.02.08 0 .14.03.06.06.1.1.08.04-.02.04-.08.02-.14zm3.63.07c-.04-.02-.09.01-.12.07-.03.06-.03.13.01.15.03.02.06 0 .09-.04l.02-.03v-.01c.03-.06.04-.12 0-.14zm-2.59 9.26a.85.85 0 01-.14.09c-.06.04-.15.07-.27.1-.06.01-.12.04-.16.06a.4.4 0 00-.12.1c-.01.01-.02.02-.03 0s-.01-.02 0-.03c.04-.04.08-.08.13-.11s.11-.05.17-.07c.12-.03.2-.06.26-.09.04-.02.07-.04.1-.06h-.34c-.11.03-.22.07-.3.12-.08.05-.14.1-.14.17 0 .01 0 .02-.03.02-.02 0-.02-.01-.02-.03.01-.08.07-.15.17-.2.05-.03.11-.06.17-.08h-.08c-.09 0-.08-.05-.02-.08.07-.03.14-.11.19-.16.2-.25.31-.54.34-.85-.02.05-.05.11-.09.15-.04.05-.1.1-.17.12-.02.12-.07.22-.14.3-.07.08-.16.14-.28.17-.02.01-.04-.03-.02-.04.1-.08.17-.17.21-.26.05-.1.06-.2.05-.29 0-.01 0-.02.02-.03.02 0 .02.01.03.02.01.1-.01.21-.06.32-.03.06-.07.13-.13.19.05-.03.1-.07.14-.11.06-.08.11-.17.13-.29 0-.01.01-.02.02-.02.07-.02.12-.06.16-.11.04-.05.07-.11.09-.17-.11.05-.23.05-.34.06-.16.01-.28.05-.42.11-.01 0-.01 0-.02.01-.03.01-.06.05-.1.09-.04.04-.1.09-.16.14-.01.01-.02.01-.03 0-.01-.02-.01-.03 0-.03.06-.05.11-.09.15-.14.02-.02.04-.05.06-.07-.07-.01-.14-.02-.21-.02-.06.02-.12.04-.17.07a.45.45 0 00-.1.09c-.01.01-.01.02-.03.01-.02-.01-.01-.02-.01-.03.03-.04.07-.08.12-.11.02-.02.05-.03.08-.04-.08-.01-.16-.01-.24-.02-.02.01-.03.02-.05.04-.02.01-.03.03-.04.05-.01.01-.01.02-.03.01-.02-.01-.01-.02-.01-.03.01-.02.03-.04.05-.06l.01-.01c-.06 0-.12-.01-.18-.01l-.01.01c-.02.01-.03.03-.04.04-.01.02-.02.03-.03.05 0 .01-.01.02-.03.01-.02-.01-.02-.02-.01-.03l.03-.06c.01-.01.01-.02.02-.02-.09 0-.17-.01-.26-.01l-.01.01c-.02.01-.04.02-.05.04-.01.01-.03.03-.04.05-.01.01-.01.02-.03.01-.02-.01-.02-.02-.01-.03.01-.02.03-.04.04-.06.01-.01.01-.01.02-.01h-.54c.02-.01.02-.01.03-.01.02.02.03.04.04.06.01.01.01.02-.01.03-.02.01-.03 0-.03-.01-.01-.02-.02-.03-.04-.05a.218.218 0 00-.05-.04l-.01-.01c-.09 0-.17 0-.26.01.01.01.02.02.02.03l.03.06c0 .01.01.02-.01.03-.02.01-.03 0-.03-.01-.01-.02-.02-.03-.03-.05-.01-.02-.03-.03-.04-.04 0 0-.01 0-.01-.01-.06 0-.12.01-.18.01l.01.01c.02.02.03.04.05.06.01.01.01.02-.01.03-.02.01-.03 0-.03-.01-.01-.02-.03-.04-.04-.05s-.03-.03-.05-.04c-.08.01-.17.01-.25.02.03.01.06.03.09.05.05.03.09.07.12.11.01.01.01.02-.01.03-.02.01-.03 0-.03-.01a.219.219 0 00-.1-.09.982.982 0 00-.18-.08c-.07.01-.13.01-.2.02.02.02.04.05.06.08.04.04.09.09.15.14.01.01.02.01 0 .03-.01.02-.02.01-.03 0-.06-.05-.12-.1-.16-.14-.03-.03-.07-.08-.1-.11-.15-.07-.27-.1-.43-.11-.11-.01-.24-.01-.34-.06.03.06.06.12.09.17.04.05.09.09.16.11.01 0 .02.01.02.02.02.12.06.21.13.29.04.04.09.08.14.11a.586.586 0 01-.13-.19.61.61 0 01-.06-.32c0-.01 0-.02.03-.02.02 0 .02.01.02.03-.01.09.01.19.05.29.04.09.12.18.22.26.02.01 0 .05-.02.04a.563.563 0 01-.29-.17.696.696 0 01-.14-.3c-.07-.02-.12-.07-.17-.12-.04-.05-.06-.1-.09-.15.02.32.14.6.34.85.05.06.12.14.19.16.07.03.07.08-.02.08h-.08c.06.02.12.05.17.08.1.05.16.12.17.2 0 .01 0 .02-.02.03-.02 0-.02-.01-.03-.02 0-.06-.06-.12-.14-.17-.08-.05-.19-.09-.3-.12h-.34c.03.02.06.04.1.06.06.03.14.06.26.09.07.02.12.04.17.07.05.03.1.07.13.11.01.01.02.02 0 .03-.02.02-.03.01-.03 0a.4.4 0 00-.12-.1.442.442 0 00-.16-.06 1.025 1.025 0 01-.41-.19c.14.29.34.43.63.52.02.01.03.01.05.01h.01c.06.02.13.03.2.04.07.01.12.02.2.03.01 0 .02 0 .02.03 0 .02-.01.02-.03.02l-.2-.03a.585.585 0 00-.13-.02c-.02 0-.05.01-.08.01-.17.01-.32.17-.33.37v.01c.07-.06.13-.12.2-.16.09-.05.18-.08.27-.05.01 0 .02.01.02.03-.01.02-.02.02-.03.02-.08-.02-.16 0-.24.05-.08.05-.16.12-.24.19-.02.11-.06.21-.15.28.05.03.08.05.12.03.06-.03.13-.06.2-.08.07-.02.14-.04.21-.04.01 0 .02 0 .02.02s-.01.02-.02.02c-.07 0-.13.02-.2.04-.06.02-.11.04-.17.07.17.04.35 0 .5-.06.04-.02.08-.03.1-.03.04-.02.08-.04.13-.06.05-.02.1-.04.14-.04.01 0 .02 0 .03.02 0 .02-.01.02-.02.03-.08.01-.1.02-.17.06 0 .02-.05.04-.09.07-.03.02-.05.04-.07.05-.07.06-.11.14-.14.22-.02.05-.04.11-.05.17.04-.08.09-.16.15-.23a.86.86 0 01.26-.2c.01-.01.02-.01.03.01.01.02 0 .03-.01.03-.1.04-.18.11-.24.19-.07.08-.12.17-.16.26-.02.05-.01 0-.03.06.08-.09.16-.17.24-.23.1-.08.21-.12.31-.1.01 0 .02 0 .02.03 0 .02-.02.02-.03.02-.09-.02-.19.02-.28.09-.09.07-.18.17-.27.27.14.02.27-.02.41-.06.07-.02.14-.1.18-.11.01-.02.03-.03.04-.05.02-.03.05-.05.08-.08.01-.01.02-.02.03 0 .02.02.01.03 0 .03-.02.02-.05.04-.07.07-.02.03-.05.05-.07.08 0 .01-.01.01-.02.01a.55.55 0 00-.13.18c-.04.16-.02.28-.09.43.05-.03.1-.06.13-.1.04-.05.07-.1.1-.17.03-.08.07-.15.13-.2.06-.06.12-.1.2-.13.01 0 .02-.01.03.01.01.02 0 .03-.01.03a.36.36 0 00-.18.12.4.4 0 00-.11.19c-.03.08-.06.14-.11.19a.4.4 0 01-.12.1c.04 0 .06-.01.09-.01a.435.435 0 00.33-.24c0-.01.01-.02.03-.01.02.01.02.02.01.03a.37.37 0 01-.13.17c-.04.03-.09.06-.15.07.12 0 .23-.03.35-.08.05-.02.07-.13.1-.16.02-.04.05-.08.08-.12.04-.04.08-.08.12-.1.01 0 .02-.01.03.01.01.02 0 .03-.01.03-.04.02-.07.04-.1.08-.03.03-.05.07-.07.11.01.05-.04.17-.04.23-.01.15 0 .31.04.46.04-.05.08-.1.12-.14v-.01l.03-.25c.01-.08.01-.17 0-.25 0-.01 0-.02.02-.03.02 0 .03.01.03.02.01.08.01.17.01.26 0 .07-.01.14-.02.2.04-.04.04-.04.06-.08.03-.06.04-.12.05-.18.01-.06 0-.12-.01-.17 0-.01-.01-.02.02-.03.02-.01.03.01.03.02.01.06.02.12.01.19-.01.05-.02.1-.04.15.04-.03.09-.06.13-.09v-.17c0-.05.01-.1.01-.14 0-.02.01-.03.04-.02s.03.02.02.04c-.01.04-.01.08-.01.13v.18c0 .06.04.14.09.17.08.05.12.12.14.21a1.5 1.5 0 000-.3.618.618 0 00-.09-.28c-.01-.01-.01-.02.01-.03.02-.01.03 0 .03.01.05.08.08.18.09.29.01.11.01.23-.01.37.08-.06.29-.19.26-.45-.01-.02-.01-.04-.02-.06-.01-.01-.01-.02.01-.03.02-.01.03 0 .03.01.01.02.02.05.03.08 0 .02.01.04.01.06.01-.01.03-.03.04-.03.02.01.04.03.06.04a.592.592 0 01-.02-.32c0-.01.01-.02.03-.02s.02.02.02.03c-.01.05-.02.11-.01.17.01.06.02.12.05.18 0 .01.01.01 0 .02.02.02.04.03.05.05-.01-.06-.02-.13-.02-.19a.758.758 0 01.01-.26c0-.01 0-.02.03-.02s.02.02.02.03c-.01.08-.01.16 0 .25l.03.25v.01c.04.04.07.09.11.15.04-.15.05-.31.05-.46 0-.06-.05-.17-.05-.23a.444.444 0 00-.08-.11.235.235 0 00-.1-.08c-.01 0-.02-.01-.01-.03.01-.02.02-.02.03-.01.05.02.09.05.12.1.03.03.05.07.08.12.04.01.06.13.11.16.12.04.22.07.34.08a.348.348 0 01-.15-.07.37.37 0 01-.13-.17c0-.01-.01-.02.01-.03.02-.01.03 0 .03.01.03.06.07.12.12.15.06.05.22.09.3.1-.05-.03-.08-.06-.12-.1a.68.68 0 01-.11-.19c-.03-.07-.07-.13-.11-.19a.567.567 0 00-.18-.12c-.01 0-.02-.01-.01-.03.01-.02.02-.02.03-.01.07.03.14.07.2.13.05.06.1.12.13.2.03.07.06.13.1.17.04.04.08.07.13.1-.07-.16-.05-.28-.09-.43-.03-.1-.17-.21-.14-.24.03-.04.1.07.19.1.13.04.27.08.41.06-.09-.1-.18-.2-.27-.27-.09-.07-.18-.11-.26-.09-.01 0-.02 0-.03-.02 0-.02.01-.03.02-.03.1-.02.2.02.3.1.08.06.15.13.23.22-.01-.04 0-.01-.02-.06-.04-.09-.1-.18-.17-.26a.876.876 0 00-.24-.19c-.01-.01-.02-.01-.01-.03.01-.02.02-.02.03-.01.1.05.19.12.26.2.06.07.11.15.15.23a.845.845 0 00-.05-.17.586.586 0 00-.14-.22c-.05-.04-.16-.11-.16-.13-.02-.01-.02-.01-.05-.02-.05-.02-.09-.03-.12-.04-.01 0-.02 0-.02-.03 0-.02.01-.02.03-.02.04 0 .09.02.14.04.02.01.05.03.07.05.04 0 .1.04.16.06.15.06.33.09.5.06-.05-.02-.11-.05-.17-.07a.647.647 0 00-.2-.04c-.01 0-.02 0-.02-.02s.01-.02.02-.02c.07 0 .14.02.21.04.07.02.13.05.2.08.04.02.08-.01.12-.03a.393.393 0 01-.15-.28c-.08-.07-.16-.14-.24-.19-.08-.04-.16-.07-.24-.05-.01 0-.02.01-.03-.02-.01-.02.01-.03.02-.03.09-.02.19 0 .27.05.07.04.14.1.21.16v-.01c-.01-.2-.15-.36-.33-.37-.06 0-.14.02-.14-.02s.07-.03.18-.06c.24-.1.44-.23.58-.53zm-4.99-4.64a1.13 1.13 0 010-.26c0-.01 0-.02.03-.02s.02.01.02.03c-.01.08 0 .16 0 .25.01.08.02.17.04.25v.01c.04.04.07.09.12.14.04-.15.04-.31.03-.46 0-.06-.06-.17-.06-.22a.444.444 0 00-.08-.11c-.03-.04-.07-.06-.11-.08-.01 0-.02-.01-.01-.03.01-.02.02-.02.03-.01a.444.444 0 01.21.2c.04 0 .06.13.11.15.12.04.23.06.34.06a.339.339 0 01-.15-.06c-.06-.04-.1-.1-.14-.17 0-.01-.01-.02.01-.03s.03 0 .03.01c.03.06.07.11.12.15.07.05.22.08.3.08a.623.623 0 01-.12-.09.544.544 0 01-.11-.18.487.487 0 00-.3-.29c-.01 0-.02-.01-.02-.03.01-.02.02-.02.03-.02.07.02.14.07.2.12.06.05.1.12.13.2.03.07.06.12.1.17.04.04.08.07.14.1-.08-.15-.06-.27-.11-.43-.03-.1-.18-.2-.15-.23.03-.04.1.06.19.09.13.04.27.07.41.05a3.2 3.2 0 00-.28-.26c-.09-.06-.18-.1-.27-.08-.01 0-.02.01-.03-.02 0-.02.01-.03.02-.03.1-.02.2.02.3.09.09.06.16.13.24.21-.01-.03 0-.01-.02-.06-.05-.09-.1-.18-.17-.25a.763.763 0 00-.25-.18c-.01 0-.02-.01-.01-.03.01-.02.02-.02.03-.01.1.04.19.11.27.19.06.07.12.14.16.22a.492.492 0 00-.06-.17.623.623 0 00-.15-.21c-.05-.04-.16-.1-.16-.13-.02-.01-.03-.01-.05-.02a.346.346 0 00-.12-.03c-.01 0-.02 0-.02-.03 0-.02.01-.02.03-.02.04 0 .09.02.14.04.03.01.05.03.08.04.04 0 .11.03.16.05.16.05.34.08.5.04-.06-.02-.11-.04-.17-.06a.645.645 0 00-.2-.03c-.01 0-.02 0-.02-.02s.01-.02.02-.02c.07 0 .14.01.21.03.07.02.13.05.2.07.05.02.08-.01.12-.04a.445.445 0 01-.16-.28c-.08-.07-.16-.14-.24-.18-.08-.04-.16-.06-.24-.04-.01 0-.02.01-.03-.02-.01-.02 0-.03.02-.03.09-.03.19-.01.27.04.07.04.14.09.21.15v-.01c-.02-.2-.17-.35-.34-.36-.06 0-.14.02-.14-.02s.07-.04.17-.07c.29-.1.48-.24.61-.54-.04.03-.08.07-.14.1-.06.04-.15.07-.26.11-.06.02-.11.04-.16.07-.05.03-.09.07-.12.11-.01.01-.01.02-.03.01-.02-.01-.01-.02-.01-.03.03-.04.08-.08.13-.12a.51.51 0 01.17-.07c.12-.03.19-.07.25-.1a.36.36 0 00.1-.07c-.11 0-.23.01-.34.01-.11.04-.21.08-.3.13-.08.05-.14.11-.14.17 0 .01 0 .02-.02.02s-.02-.01-.02-.02c0-.08.07-.15.16-.21.05-.03.11-.06.17-.09h-.08c-.09 0-.09-.05-.02-.08a.49.49 0 00.18-.17c.19-.26.29-.55.31-.86-.02.05-.05.11-.08.15-.04.06-.09.1-.16.13-.02.12-.06.22-.12.3-.07.08-.16.14-.27.18-.02.01-.04-.02-.02-.04.1-.09.16-.18.2-.27.04-.1.05-.2.04-.29 0-.01 0-.02.02-.03.02 0 .03.01.03.02.01.1 0 .21-.05.32-.03.06-.07.13-.12.19.05-.03.1-.07.14-.12.06-.08.1-.18.12-.29 0-.01.01-.02.02-.02.07-.02.11-.06.15-.12.04-.05.06-.11.09-.17-.1.06-.23.06-.34.07-.16.02-.27.06-.41.13-.01 0-.01 0-.02.01-.03.02-.06.05-.1.1-.04.05-.09.1-.15.15-.01.01-.02.01-.03 0-.01-.02-.01-.03 0-.03.06-.05.11-.1.15-.14.02-.02.04-.05.06-.07-.07-.01-.14-.01-.21-.01-.06.02-.12.05-.16.08-.04.03-.08.06-.1.1-.01.01-.01.02-.03.01-.02-.01-.02-.02-.01-.03.02-.04.07-.08.11-.11.02-.02.05-.03.08-.04-.08 0-.16-.01-.24-.01-.02.01-.03.02-.04.04-.01.01-.03.03-.04.05-.01.01-.01.02-.03.01s-.01-.02-.01-.03c.01-.02.03-.04.05-.06l.01-.01h-.18l-.01.01c-.02.01-.03.03-.04.05-.01.02-.02.03-.03.05 0 .01-.01.02-.03.01-.02-.01-.02-.02-.01-.03l.03-.06c.01-.01.01-.02.02-.03h-.26l-.01.01c-.02.01-.03.03-.05.04-.01.01-.03.03-.03.05-.01.01-.01.02-.03.01-.02-.01-.02-.02-.01-.03a.21.21 0 01.04-.06c.01-.01.01-.01.02-.01-.09 0-.18 0-.27.01-.09 0-.18.01-.27.01.01.01.01.01.02.01.02.02.03.04.05.06.01.01.01.02-.01.03-.02.01-.03 0-.03-.01-.01-.02-.02-.03-.04-.05a.218.218 0 00-.05-.04s-.01 0-.01-.01c-.09 0-.17.01-.26.02.01.01.02.02.02.03.01.02.03.04.04.06 0 .01.01.02-.01.03s-.03 0-.03-.01c-.01-.02-.02-.03-.03-.05-.01-.02-.03-.03-.04-.04 0 0-.01 0-.01-.01-.06.01-.12.01-.18.02l.01.01c.02.02.04.03.05.06.01.01.01.02 0 .03-.02.01-.03 0-.03 0-.01-.02-.03-.03-.04-.05-.02-.01-.03-.03-.05-.03l-.25.03c.03.01.06.03.09.04.05.03.1.06.12.11.01.01.01.02-.01.03-.02.01-.03 0-.03-.01a.201.201 0 00-.11-.09c-.06-.03-.12-.05-.19-.07l-.2.03c.02.02.04.05.07.08.04.04.1.09.16.13.01.01.02.01.01.03-.01.02-.02.01-.03.01-.06-.05-.12-.09-.16-.13a.996.996 0 00-.11-.1c-.15-.06-.27-.09-.44-.09-.12-.01-.24 0-.35-.05.03.06.06.12.1.17.04.05.09.09.16.1.01 0 .02.01.02.02.03.12.07.21.14.28.04.04.09.08.15.11a1.1 1.1 0 01-.14-.18.586.586 0 01-.07-.31c0-.01 0-.02.02-.02s.02.01.02.03c0 .09.01.19.07.29.05.09.13.17.23.25.02.01 0 .05-.02.04a.55.55 0 01-.29-.16.668.668 0 01-.15-.29.298.298 0 01-.17-.12.462.462 0 01-.09-.15c.03.32.16.6.37.84.05.05.13.13.2.15.07.02.07.07-.01.08h-.08c.06.02.12.04.18.07.1.05.17.12.18.2 0 .01 0 .02-.02.03-.02 0-.03-.01-.03-.02-.01-.06-.07-.12-.15-.16-.09-.05-.2-.08-.31-.11-.12 0-.23.01-.34.02.03.02.06.04.1.06.06.03.14.06.26.08.07.01.13.03.18.06.05.03.1.07.14.11.01.01.02.02 0 .03-.02.02-.03.01-.03 0a.4.4 0 00-.12-.1c-.05-.03-.1-.04-.16-.06a.706.706 0 01-.27-.09.85.85 0 01-.14-.09c.15.29.35.42.65.49.02 0 .03.01.05.01h.01c.07.01.13.03.2.03.07.01.13.02.2.02.01 0 .02 0 .02.02s-.01.02-.02.02c-.07 0-.13-.01-.2-.02-.04-.01-.09-.01-.13-.02-.02.01-.05.01-.08.01-.17.02-.31.18-.31.38v.01c.06-.06.13-.12.2-.17.09-.05.18-.08.27-.06.01 0 .02.01.02.03-.01.02-.02.02-.03.02-.08-.02-.16.01-.24.06-.08.05-.16.12-.23.2-.01.11-.05.22-.14.29.05.02.08.05.12.03.06-.03.13-.06.19-.09.07-.03.14-.04.21-.05.01 0 .02 0 .03.02s-.01.02-.02.03c-.07.01-.13.02-.2.05-.06.02-.11.05-.16.07.17.03.34-.01.5-.08.04-.02.08-.03.1-.03.04-.02.08-.04.13-.06.05-.02.1-.04.13-.05.01 0 .02 0 .03.02 0 .02-.01.03-.02.03-.08.01-.09.02-.16.07 0 .02-.05.04-.09.08a.38.38 0 00-.06.05c-.07.07-.1.14-.13.22-.02.05-.03.11-.04.17.04-.08.08-.16.14-.23.07-.08.15-.16.25-.21.01-.01.02-.01.03.01.01.02 0 .03-.01.03-.1.05-.17.12-.24.2-.06.08-.11.17-.15.26-.02.05-.01 0-.03.07.08-.09.15-.17.23-.24.1-.08.21-.13.31-.11.01 0 .02 0 .02.03s-.01.02-.03.02a.366.366 0 00-.27.1c-.09.07-.18.17-.26.28.14.01.27-.03.4-.08.07-.03.13-.11.17-.12.01-.02.03-.04.04-.05.02-.03.05-.06.07-.08.01-.01.02-.02.03 0 .02.02.01.03 0 .03l-.07.07a.55.55 0 01-.07.09c0 .01-.01.01-.02.01-.04.05-.11.13-.12.18-.04.16-.01.28-.08.44.05-.03.09-.06.13-.11.04-.05.07-.1.09-.18.02-.08.07-.15.12-.21.05-.06.12-.11.19-.14.01 0 .02-.01.03.01.01.02 0 .03-.01.03-.06.03-.12.07-.17.12-.05.05-.08.12-.11.19a.49.49 0 01-.1.19c-.03.04-.07.07-.11.1.04 0 .06-.01.09-.01a.58.58 0 00.21-.1.38.38 0 00.11-.16c0-.01.01-.02.03-.01s.02.02.01.03c-.03.07-.07.13-.12.18-.04.03-.09.06-.14.08.12-.01.23-.04.35-.09.05-.02.06-.13.09-.16.02-.04.05-.09.07-.12.03-.04.07-.08.12-.1.01 0 .02-.01.03.01.01.02 0 .03-.01.03-.04.02-.07.05-.1.08s-.05.07-.07.11c.01.05-.03.17-.03.23 0 .15.01.31.06.46l.12-.15v-.01c.01-.08.02-.17.02-.25 0-.08 0-.17-.01-.25 0-.01 0-.02.02-.03.02 0 .03.01.03.02.01.08.02.17.01.25 0 .07-.01.14-.01.2.04-.04.04-.04.05-.08.03-.06.04-.12.04-.18s0-.12-.02-.17c0-.01-.01-.02.02-.03.02-.01.03.01.03.02.02.06.02.12.02.19 0 .05-.01.1-.03.15.04-.03.08-.06.13-.1-.01-.06-.01-.11-.01-.17 0-.05 0-.1.01-.14 0-.02 0-.03.03-.03s.03.02.03.04c-.01.04-.01.08-.01.13 0 .06 0 .12.01.18s.04.14.1.17c.08.04.12.12.15.2.01-.11 0-.21-.01-.3a.662.662 0 00-.1-.27c-.01-.01-.01-.02.01-.03.02-.01.03 0 .03.01.05.08.08.18.1.29.02.11.02.23 0 .37.07-.06.28-.2.25-.46-.01-.02-.01-.04-.02-.06-.01-.01-.01-.02.01-.03.02-.01.03 0 .03.01.01.02.02.05.03.08 0 .02.01.04.01.06.01-.01.03-.03.04-.03.02.01.04.03.06.04-.02-.04-.03-.09-.04-.13a.605.605 0 010-.19c0-.01 0-.02.03-.02.02 0 .02.02.02.03-.01.06-.01.11 0 .17.01.06.03.12.06.18 0 .01.01.01 0 .02.02.02.04.03.05.05-.15-.1-.16-.16-.16-.23zm-2.5-4.56c-.03-.06-.09-.09-.12-.07-.04.02-.02.08.01.14.03.06.07.09.11.07.03-.01.03-.08 0-.14zm10.22 2.18c-.06.01-.12.03-.16.06a.4.4 0 00-.12.1c-.01.01-.02.02-.03 0-.02-.02-.01-.02 0-.03a.526.526 0 01.32-.17c.12-.02.2-.05.26-.08.04-.02.07-.04.1-.06-.11-.01-.23-.01-.34-.02-.11.03-.22.06-.31.11-.08.04-.14.1-.15.16 0 .01 0 .02-.03.02-.02 0-.02-.01-.02-.03.01-.08.08-.15.18-.2.05-.03.11-.05.18-.07h-.08c-.09 0-.08-.05-.01-.08.07-.02.15-.1.19-.15.21-.24.33-.52.37-.83l-.09.15c-.04.05-.1.09-.17.12-.03.12-.08.22-.15.29a.56.56 0 01-.28.16c-.02.01-.04-.03-.02-.04.1-.08.17-.16.22-.25.05-.1.07-.2.07-.29 0-.01 0-.02.02-.03.02 0 .02.01.02.02.01.1-.02.21-.07.31-.03.06-.08.12-.14.18.06-.03.1-.06.14-.11.07-.07.11-.17.14-.28 0-.01.01-.02.02-.02.07-.02.12-.05.16-.1.04-.05.07-.1.1-.17-.11.05-.23.04-.34.05-.16.01-.28.04-.42.1-.01 0-.01 0-.02.01-.04.01-.06.05-.1.09-.04.04-.1.09-.16.13-.01.01-.02.01-.03-.01-.01-.02 0-.03.01-.03.06-.04.12-.09.16-.13.02-.02.04-.05.06-.07l-.21-.03c-.06.02-.12.04-.17.06-.05.02-.08.05-.11.09-.01.01-.01.02-.03.01-.02-.01-.01-.02-.01-.03.03-.04.07-.08.12-.11.03-.01.05-.03.08-.04l-.24-.03c-.02.01-.03.02-.05.03-.02.01-.03.03-.04.05-.01.01-.01.02-.03 0-.02-.01-.01-.02 0-.03.02-.02.03-.04.05-.06l.01-.01c-.06-.01-.12-.01-.18-.02l-.01.01c-.02.01-.03.03-.04.04s-.02.03-.03.05c0 .01-.01.02-.03.01-.02-.01-.02-.02-.01-.03a.21.21 0 01.04-.06c.01-.01.01-.02.02-.02-.09-.01-.17-.01-.26-.02l-.01.01c-.02.01-.04.02-.05.04-.01.01-.03.03-.04.05-.01.01-.01.02-.03.01-.02-.01-.01-.02-.01-.03.01-.02.03-.04.05-.06.01-.01.01-.01.02-.01-.09 0-.18-.01-.27-.01-.09 0-.18-.01-.27-.01l.02.02c.02.02.03.04.04.06.01.01.01.02-.01.03-.02.01-.03 0-.03-.01-.01-.02-.02-.03-.03-.05a.218.218 0 00-.05-.04l-.01-.01h-.26c.01.01.01.02.02.03l.03.06c0 .01.01.02-.01.03s-.03 0-.03-.01c-.01-.02-.02-.04-.03-.05-.01-.02-.02-.03-.04-.05 0 0-.01 0-.01-.01h-.18l.01.01c.02.02.03.04.05.06.01.01.01.02-.01.03-.02.01-.03 0-.03-.01-.01-.02-.03-.04-.04-.05s-.03-.03-.05-.04c-.08 0-.17 0-.25.01.03.01.06.03.09.05.05.03.09.07.11.11.01.01.01.02-.01.03-.02.01-.03 0-.03-.01a.318.318 0 00-.1-.1c-.05-.04-.12-.06-.18-.08-.07 0-.13.01-.2.01.02.03.04.05.06.08.04.05.09.09.15.14.01.01.02.01 0 .03s-.02.01-.03 0c-.06-.05-.11-.1-.15-.15-.03-.03-.07-.09-.1-.11a1.2 1.2 0 00-.43-.13c-.11-.01-.24-.02-.34-.07.02.06.05.13.09.18.04.05.09.09.15.12.01 0 .02.01.02.02.02.12.05.22.12.29.04.05.08.09.14.12a.997.997 0 01-.12-.19c-.05-.11-.06-.22-.05-.32 0-.01 0-.02.03-.02.02 0 .02.02.02.03-.01.09 0 .19.04.29.04.09.11.18.21.27.02.01 0 .05-.02.04a.678.678 0 01-.28-.18.677.677 0 01-.12-.3.344.344 0 01-.16-.13c-.03-.05-.06-.1-.08-.16.01.32.11.61.31.87.04.06.12.14.19.17s.07.08-.02.08h-.08c.06.03.12.05.17.09.09.06.16.13.16.21 0 .01 0 .02-.02.02s-.02-.01-.02-.02c0-.06-.06-.12-.14-.17-.08-.05-.19-.1-.3-.13-.12 0-.23-.01-.34-.01.03.02.06.05.1.07.06.04.14.07.25.1.07.02.12.04.17.07.05.03.09.07.13.12.01.01.01.02-.01.03-.02.01-.03.01-.03-.01a.426.426 0 00-.12-.11c-.04-.03-.1-.05-.16-.07a.806.806 0 01-.26-.11c-.06-.03-.1-.07-.13-.1.12.3.32.44.61.54.02.01.03.01.05.02h.01c.06.02.13.04.2.05.07.01.12.03.19.04.01 0 .02 0 .02.03 0 .02-.02.02-.03.02-.07-.01-.13-.02-.2-.04l-.13-.03c-.02 0-.05 0-.08.01-.17 0-.32.16-.34.36v.01c.07-.06.14-.11.21-.15.09-.05.18-.07.27-.04.01 0 .02.01.02.03-.01.02-.02.02-.03.02-.08-.02-.16 0-.24.04-.08.04-.16.11-.24.18-.02.11-.07.21-.16.28.04.03.08.05.12.04.07-.03.13-.05.2-.07.07-.02.14-.03.21-.03.01 0 .02 0 .02.02s-.01.02-.02.02c-.07 0-.13.01-.2.03-.06.02-.11.04-.17.06.16.04.34.01.5-.04.05-.01.08-.03.1-.03.04-.02.09-.04.13-.05.05-.02.1-.03.14-.04.01 0 .02 0 .03.02 0 .02-.01.02-.02.03-.08.01-.1.01-.17.05 0 .02-.05.04-.1.07-.03.02-.05.04-.07.05-.07.06-.11.13-.15.21-.02.05-.04.11-.06.17.04-.08.1-.15.16-.22.07-.08.16-.14.27-.19.01 0 .02-.01.03.01.01.02 0 .03-.01.03-.1.04-.18.1-.25.18-.07.07-.13.16-.17.25-.03.05-.01 0-.03.06.09-.09.17-.16.25-.22.1-.07.22-.11.32-.09.01 0 .02.01.02.03 0 .02-.02.02-.03.02-.09-.02-.19.02-.28.08-.09.07-.19.16-.28.26.14.02.28-.01.41-.05.07-.02.14-.1.18-.11.01-.02.03-.03.04-.05.03-.03.05-.05.08-.07.01-.01.02-.01.03 0 .02.02.01.03 0 .03-.03.02-.05.04-.07.07-.03.03-.05.05-.07.08 0 .01-.01.01-.02.01-.05.05-.12.12-.14.18-.05.16-.03.28-.11.43.05-.03.1-.06.14-.1.04-.04.07-.1.1-.17.03-.08.08-.14.13-.2.06-.06.13-.1.2-.12.01 0 .02-.01.03.02s0 .03-.02.03c-.07.02-.13.06-.18.11-.05.05-.09.11-.12.18-.03.08-.07.13-.11.18-.03.04-.07.07-.12.09.04 0 .06-.01.09 0 .06 0 .16-.04.21-.08.05-.04.09-.09.12-.15 0-.01.01-.02.03-.01s.02.02.01.03a.39.39 0 01-.29.23c.12 0 .23-.02.35-.06.05-.02.07-.12.1-.15.03-.04.05-.08.08-.12a.38.38 0 01.13-.09c.01 0 .02-.01.03.01.01.02 0 .03-.01.03a.21.21 0 00-.11.08c-.03.03-.05.07-.08.11.01.05-.04.17-.05.23-.01.15-.01.31.02.46.04-.05.08-.1.13-.14v-.01c.02-.08.03-.16.04-.25.01-.08.01-.17 0-.25 0-.01 0-.02.02-.03.02 0 .03.01.03.02.01.08 0 .17 0 .26l-.03.2c.04-.04.04-.04.06-.08.03-.06.05-.12.06-.18.01-.06.01-.12 0-.17 0-.01 0-.02.02-.03.02 0 .03.01.03.02.01.06.01.12 0 .19-.01.05-.02.1-.04.15.04-.03.09-.06.14-.09v-.17c0-.05.01-.1.02-.14 0-.01.01-.03.04-.02s.03.02.02.04c-.01.04-.01.08-.02.13v.18c0 .06.03.14.09.18.08.05.11.13.13.21.02-.11.02-.21.01-.3a.768.768 0 00-.07-.28c-.01-.01-.01-.02.01-.03.02-.01.03 0 .03.01.04.08.07.18.08.3.01.11 0 .23-.02.37.08-.06.29-.18.28-.44 0-.02-.01-.04-.02-.06 0-.01-.01-.02.01-.03.02-.01.03 0 .03.01.01.03.02.05.03.08 0 .02 0 .04.01.06.01 0 .03-.03.04-.03.02.01.04.03.06.04-.01-.05-.02-.09-.03-.13a.4.4 0 01.02-.19c0-.01.01-.02.03-.02.02.01.02.02.02.03-.02.05-.02.11-.02.17 0 .06.02.12.04.18 0 .01.01.01 0 .02l.05.05c-.01-.06-.01-.13-.01-.19 0-.09 0-.17.02-.26 0-.01 0-.02.03-.02.02 0 .02.02.02.03-.01.08-.02.16-.01.25 0 .08.01.17.02.25v.01c.04.05.07.09.11.15.05-.15.07-.3.07-.46 0-.06-.05-.17-.04-.23a.746.746 0 00-.07-.12c-.03-.04-.06-.07-.1-.08-.01 0-.02-.01-.01-.03.01-.02.02-.02.03-.01.05.02.09.06.12.1.03.03.05.08.07.12.04.01.05.14.1.16.11.05.22.08.34.09a.322.322 0 01-.14-.08.407.407 0 01-.12-.18c0-.01-.01-.02.01-.03.02-.01.03 0 .03.01.03.07.06.12.11.16.06.05.21.1.3.11-.04-.03-.08-.06-.11-.1a.674.674 0 01-.1-.19.453.453 0 00-.11-.19.382.382 0 00-.17-.12c-.01 0-.02-.01-.01-.03.01-.02.02-.02.03-.01.07.03.14.08.19.14.05.06.09.13.12.21a.473.473 0 00.22.29c-.07-.16-.04-.28-.08-.44-.02-.1-.17-.21-.14-.25.04-.04.1.07.18.1.13.05.26.09.4.08-.09-.11-.18-.21-.26-.28-.09-.07-.17-.11-.26-.1-.01 0-.02 0-.03-.02 0-.02.01-.03.02-.03.1-.01.2.03.3.11.08.07.15.14.22.23-.01-.04 0-.01-.02-.06-.04-.09-.09-.18-.16-.26a.677.677 0 00-.24-.2c-.01-.01-.02-.01-.01-.03.01-.02.02-.02.03-.01.1.05.18.12.25.21.06.07.1.15.14.24-.01-.06-.02-.12-.04-.17a.557.557 0 00-.13-.22c-.04-.04-.15-.11-.15-.14-.02-.01-.02-.01-.05-.02a.337.337 0 00-.12-.04c-.01 0-.02 0-.02-.03 0-.02.02-.02.03-.02.04.01.09.02.13.05.02.01.05.03.07.05.04 0 .1.04.15.06.15.06.33.11.5.08-.05-.03-.11-.05-.16-.07a1.17 1.17 0 00-.2-.05c-.01 0-.02 0-.02-.03 0-.02.01-.02.03-.02.07.01.14.02.21.05.07.03.13.06.19.09.04.02.08 0 .12-.03a.403.403 0 01-.14-.29c-.07-.07-.15-.15-.23-.2a.348.348 0 00-.24-.06c-.01 0-.02.01-.03-.02-.01-.02.01-.03.02-.03.09-.02.19.01.27.06.07.04.14.1.2.17v-.01c0-.2-.14-.37-.31-.38-.06-.01-.14.01-.14-.03s.07-.03.18-.06c.29-.08.5-.2.65-.49a.85.85 0 01-.14.09c-.18.02-.27.05-.39.07zm-6.73-1.93c-.57-.05-1.13-.06-1.7-.04-.57.02-1.13.07-1.7.15-.02.01-.01.07.01.06.56-.08 1.13-.13 1.69-.15.56-.02 1.11-.01 1.67.03.04.02.05-.05.03-.05zm-.18.33c.02 0 .04-.02.04-.05 0-.02-.02-.04-.05-.04-.02 0-.04.02-.04.05s.02.04.05.04zm.12-.22c-.55-.04-1.09-.05-1.63-.03-.55.02-1.09.07-1.64.14l.05.12c.02-.02.04-.04.07-.04.05 0 .09.04.1.09 0 .05-.04.09-.09.1h-.03l.03.07v.01c.51-.07 1.02-.12 1.53-.14.51-.02 1.01-.01 1.52.04l.02-.1c-.01.01-.03.01-.04.01-.05 0-.09-.04-.1-.09 0-.05.04-.09.09-.1.04 0 .07.02.09.05l.03-.13zm-1.62.36c-.51.02-1.03.07-1.54.14-.01.01-.01.03-.01.03 0 .02.03.03.09.02.48-.06.96-.11 1.45-.12.51-.02 1.01-.02 1.53.02.02.01.06-.07.01-.06-.5-.05-1.01-.05-1.53-.03zm-1.53-.12c-.02 0-.04.02-.04.05 0 .02.02.04.05.04.02 0 .04-.02.04-.05 0-.02-.02-.04-.05-.04zm13.64 1.83c.01 0 .01 0 0 0 .06 0 .09 0 .13.01.03.01.06.03.08.06.01.01.01.01 0 .02s-.02 0-.02 0c-.02-.02-.04-.03-.06-.04-.02-.01-.05-.01-.09-.01 0 .02-.03.03-.09.04-.02.04-.02.04.03.07.07.05.12.1.16.18.08.02.15.06.21.1 0-.08.01-.16.07-.21.07-.05.17-.07.32-.07.02-.02.04-.04.06-.05a.485.485 0 00-.23-.19c-.22-.13-.44-.14-.69-.08.03.01.05.02.07.03.03.01.05.03.07.05.01.01.01.01 0 .02s-.02.01-.02 0c-.02-.02-.04-.03-.06-.04l-.09-.03h-.01c-.02.06.02.11.06.15.04-.03.08-.02.1-.01zm8.82 3.7c-.15-.01-.24.02-.34.12.01.02.03.04.04.06 0 .01.01.01 0 .02s-.02 0-.02 0c-.01-.02-.03-.04-.04-.06a.762.762 0 00-.37.06c-.01-.01-.03-.01-.04-.02.03.04.05.07.06.1.02.05.03.09.03.14 0 .01 0 .02-.02.02s-.02-.01-.02-.02c0-.04-.01-.08-.03-.13a.805.805 0 00-.09-.14.843.843 0 00-.3-.06l.05.05.06.06c.01.01.01.01 0 .02s-.02.01-.02 0l-.06-.06-.06-.06-.01-.01c-.08.01-.17.03-.27.07-.06.03-.12.05-.18.06.04.04.08.09.11.15s.06.12.07.19c0 .01 0 .02-.01.02-.02 0-.02 0-.02-.01-.02-.07-.04-.13-.07-.18s-.07-.1-.11-.14l-.01-.01c-.06.01-.11.01-.17 0l.07.11c0 .01.01.01-.01.02s-.02 0-.02-.01l-.06-.13a.471.471 0 01-.15-.06c.02.06.03.12.04.19.01.09.02.18.02.29 0 .01 0 .02-.02.02s-.02-.01-.02-.02c0-.1-.01-.19-.02-.28-.01-.08-.03-.16-.05-.23-.02-.02-.05-.04-.07-.06a.489.489 0 00-.18-.14V55a.34.34 0 01-.07.15c-.01.01-.01.01-.02 0s-.01-.02 0-.02c.04-.04.05-.09.06-.13v-.1a.94.94 0 00-.33-.08c.03.04.06.08.09.13l.09.15c.05.04.07.08.09.14.01.05.02.1.02.16 0 .01 0 .02-.02.02s-.02-.01-.02-.02c0-.05 0-.1-.02-.15a.2.2 0 00-.08-.12c-.03-.05-.05-.1-.08-.15-.03-.05-.07-.1-.1-.14h-.12c.01.01.01.02.02.03.01.02.02.05.03.08 0 .01 0 .02-.02.02s-.02-.01-.02-.01c0-.02-.01-.05-.02-.06a.078.078 0 00-.04-.04c-.08 0-.16.01-.24.02.08.11.15.22.2.33.06.13.1.25.12.39 0 .01 0 .02-.01.02-.02 0-.02-.01-.02-.01-.02-.13-.06-.26-.11-.38s-.12-.23-.21-.34h-.01c-.06.01-.13.02-.19.04.03.02.05.03.07.05.03.02.05.05.07.07.01.01.01.01 0 .02s-.02 0-.02 0l-.07-.07-.09-.06c-.03.01-.07.02-.1.04-.02.01-.04.01-.05.02.06.04.11.08.16.13.06.06.12.13.17.2 0 .01.01.01 0 .02s-.02 0-.02 0a1.12 1.12 0 00-.17-.2c-.06-.05-.12-.1-.18-.14-.07.02-.14.02-.2.02.04.08.08.17.11.25.03.09.05.18.06.28 0 .01 0 .02-.02.02s-.02-.01-.02-.01a1.31 1.31 0 00-.06-.27 2.03 2.03 0 00-.11-.26c-.04 0-.08-.01-.13-.01l.06.24c.02.09.04.19.05.29 0 .01 0 .02-.01.02-.02 0-.02-.01-.02-.01-.01-.1-.03-.19-.05-.29-.02-.09-.04-.17-.07-.26-.12-.13-.25-.25-.41-.32.03.04.06.09.08.13.03.07.04.15.04.22 0 .01 0 .02-.02.02s-.02-.01-.02-.02a.545.545 0 00-.15-.38c-.04-.01-.07-.02-.11-.02-.11-.01-.21-.02-.32-.02.08.07.14.14.14.22 0 .01 0 .02-.02.02s-.02-.01-.02-.02c.01-.08-.07-.14-.16-.22h-.19c.03.04.06.07.09.11.03.05.06.1.07.14.01.07.02.14.06.19.03.05.08.09.14.12.01 0 .02.01.01.02-.01.02-.01.01-.02.01a.364.364 0 01-.16-.14.469.469 0 01-.06-.21.379.379 0 00-.06-.13c-.03-.04-.07-.08-.11-.13h-.21c.03.08.05.17.06.26.02.11.02.22.03.33 0 .01 0 .02-.02.02s-.02-.01-.02-.02c0-.11-.01-.22-.03-.32-.01-.09-.04-.18-.07-.26h-.02a.329.329 0 00-.15-.14v.02c-.01.02-.01.05-.03.07 0 .01-.01.01-.02 0s-.01-.02 0-.02c.01-.02.02-.04.02-.06v-.03c-.01 0-.02-.01-.03-.01-.03-.14-.07-.2-.18-.25 0 .04 0 .08-.01.12-.01.05-.03.1-.06.15 0 .01-.01.01-.02.01-.01-.01-.01-.02-.01-.02.03-.05.04-.09.05-.14.01-.04.01-.09.01-.13-.01 0-.01 0-.02-.01-.03-.2-.07-.31-.27-.39v.08c0 .04-.01.09-.03.14 0 .01-.01.02-.02.01-.02-.01-.01-.01-.01-.02.02-.04.02-.08.03-.13 0-.04 0-.08-.01-.12-.04-.05-.11-.1-.16-.15a.875.875 0 01-.15.48c0 .01-.01.01-.02.01-.01-.01-.01-.02-.01-.02.05-.08.09-.17.12-.26.02-.08.03-.16.03-.24-.02-.03-.04-.05-.06-.08v.01c-.01.02-.02.04-.02.05 0 .01-.01.02-.02.01s-.01-.01-.01-.02c.01-.02.02-.04.02-.05.01-.01.01-.03.02-.04v-.03a.237.237 0 00-.09-.15c-.01.02-.01.04-.02.06-.01.03-.03.06-.06.09-.01.01-.01.01-.02 0s-.01-.02 0-.02c.02-.03.04-.06.05-.08.01-.02.02-.05.03-.07a.218.218 0 01-.05-.08c-.01.02-.02.04-.03.05l-.06.06c-.01.01-.01.01-.02 0s0-.02 0-.02l.06-.06.03-.06c.01-.03.01-.01 0-.06.02-.09-.02-.15-.07-.23v-.01c-.03 0-.06.01-.1.03-.04.02-.09.05-.14.08-.01 0-.01.01-.02 0s0-.02 0-.02c.05-.04.1-.07.15-.09.05-.02.09-.03.13-.03.01-.02.01-.04 0-.07-.15.06-.27.08-.36.09-.1.01-.18-.01-.24-.04-.01 0-.01-.01-.01-.02.01-.02.01-.01.02-.01.06.03.13.04.23.03.09-.01.21-.03.36-.09.03-.06.05-.12.06-.18-.05.01-.11.01-.16.01h-.01c-.01 0-.02 0-.02-.02s.01-.02.02-.02h.01c.06 0 .11 0 .17-.02 0-.02.01-.04.01-.06.01-.07.08-.08.14-.02.05.05.09.1.13.12.09.04.19 0 .26-.05-.02-.01-.04-.01-.07-.02-.01 0-.02-.01-.01-.02.01-.02.01-.01.02-.01l.09.03.02-.02c.19.02.31-.02.43-.14-.11 0-.2 0-.28-.01a.639.639 0 01-.22-.06c-.01 0-.02-.01-.01-.02.01-.02.02-.01.02-.01.05.03.12.04.21.05.09.01.19.01.31.01.01-.01.02-.02.03-.04.05-.02.1-.04.14-.09-.22-.02-.42-.07-.62-.17a.389.389 0 00-.21-.11.7.7 0 00-.43.09l-.09-.09c-.05-.01-.1-.03-.15-.04-.07-.01-.14.01-.2 0-.01 0-.02 0-.01-.02 0-.02.01-.02.02-.01.07.01.14-.01.2 0s.12.04.19.04c.21-.08.39-.12.54-.12.18-.05.36-.07.55-.07l-.01-.01c-.02-.02-.01-.03 0-.04.1-.1.12-.19.09-.28-.03-.09-.12-.17-.25-.24-.13.02-.26-.02-.4-.01-.09.01-.18.03-.26.06.07.03.13.07.18.13.06.07.11.18.13.3 0 .02.01.03-.02.04-.03.01-.03-.01-.04-.02a.485.485 0 00-.12-.27c-.06-.08-.2-.12-.24-.14a2.4 2.4 0 00-.4.06c-.09.02-.17.06-.23.1.09-.02.19-.02.27.03.08.04.15.11.19.23.01.01.01.03-.02.04-.03.01-.03 0-.04-.02a.368.368 0 00-.16-.2c-.13-.06-.4-.01-.51.08-.07.05-.13.11-.2.19-.01.01-.02.03-.05 0-.03-.02-.02-.04 0-.05.07-.08.14-.15.21-.2.07-.05.14-.09.21-.11.08-.08.19-.13.31-.17.13-.03.27-.05.41-.06a.334.334 0 00-.16-.17c-.07-.03-.14-.03-.23-.03-.17.06-.33.15-.48.26h.04c.04 0 .08 0 .12.01.01.01.03.01.02.04-.01.04-.11.01-.14.01-.04 0-.08 0-.13.01h-.02c-.18.11-.31.23-.46.35l-.03.01c-.14-.01-.23.01-.28.06-.05.04-.05.1-.04.18-.02.08-.05.16-.06.25-.16.14-.33.27-.42.47-.02.06-.05.11-.09.15.03.01.06.01.08.03l.02.02c0-.03.01-.07.02-.1.01-.05.03-.09.05-.12 0-.01.01-.01.02 0s.01.02.01.02a.37.37 0 00-.05.11c-.01.05-.02.11-.02.16 0 .02-.03.02-.03 0 0-.03-.02-.05-.04-.06-.02-.02-.05-.02-.09-.03-.03.04-.07.07-.11.1-.03.03-.06.05-.07.09 0 .07.08.08.17.09.19.01.04.12.14.22.05.04.1.08.13.13a.2.2 0 00.17 0c.01-.13 0-.2.06-.2h.01c0-.02.01-.03.01-.05.01-.02.02-.05.04-.07.01-.01.01-.01.02 0s.01.02 0 .02c-.02.02-.03.04-.04.06-.01.02-.01.04-.01.05.01.02.01.06.01.13.11-.05.21-.07.32-.07.21-.24.3-.18.11 0l-.03.06a.53.53 0 00-.06.19c-.05.05-.31.26-.22.34.07-.01.11-.01.08.04-.03.07-.13.21-.1.29.01.03.05.03.1.02l.01-.01c.07-.06.14-.12.21-.19.07-.07.13-.16.18-.25.01-.01.01-.03.03-.02.02-.08.04-.15.07-.22.03-.08.06-.16.09-.23.01-.01.02-.01.03 0 .03.04.06.07.08.09.02.02.05.03.07.03.02 0 .05-.01.07-.02.03-.02.05-.05.08-.09 0-.01.01-.01.02 0s.01.02 0 .02c-.03.04-.06.07-.09.09-.03.02-.06.03-.09.03s-.06-.01-.09-.03c-.02-.02-.05-.04-.08-.08-.03.07-.06.14-.08.2-.03.08-.05.15-.07.23.02.01.01.03 0 .04-.05.1-.12.19-.19.27-.06.06-.12.12-.18.17.01.06.02.11.05.16.11-.1.22-.2.31-.3.09-.1.17-.21.24-.32 0-.01.01-.01.02-.01.01.01.01.02.01.02-.03.06-.07.11-.11.17.01.01 0 .02 0 .02-.01.01-.02.05-.02.1 0 .07 0 .15.01.21 0 .01 0 .02-.01.02-.02 0-.02-.01-.02-.01-.01-.06-.01-.15-.01-.22 0-.02 0-.03.01-.05-.02.03-.05.06-.08.09-.09.1-.2.2-.32.3 0 .01.01.01.01.02-.1.07-.18.1-.07.2.04-.03.08-.05.11-.08l.12-.09c.01 0 .01-.01.02 0s0 .02 0 .02l-.12.09c-.04.03-.08.06-.12.08 0 .05.01.08.03.11h.02c.08-.06.17-.12.25-.18.01-.01.01-.01.02 0s0 .02 0 .02l-.24.18c-.01.01-.02.02-.03.04-.08.06-.37.24-.34.36.07-.02.14-.04.2-.08a.7.7 0 00.2-.15c.01-.01.01-.01.02 0s.01.02 0 .02a.74.74 0 01-.21.15v.06c0 .01 0 .02-.02.02s-.02-.01-.02-.02v-.03-.02c-.06.03-.12.05-.18.06.02.12-.04.22-.1.32-.04.03-.32.26-.2.33.03.02.07.02.1.03.01-.02.05-.05.06-.05h.01c.04-.07.07-.13.11-.18.05-.07.1-.14.16-.19.01-.01.01-.01.02 0s.01.02 0 .02c-.05.05-.11.11-.15.18-.04.05-.07.11-.11.18.01.02.02.04.01.05.01.1.02.16.07.22.01 0 .01-.01.02-.01.02-.05.04-.09.08-.12.04-.04.09-.08.14-.11.04-.03.07-.07.1-.1s.05-.07.06-.1c0-.01.01-.02.02-.01.02.01.01.01.01.02-.02.04-.04.08-.06.11-.03.04-.06.07-.1.11a.71.71 0 00-.14.1c-.03.03-.05.07-.07.1.02.02.03.06.01.09-.07.1-.15.16-.02.24 0 .07.02.12.06.16.03.03.03.14-.05.22-.07.07-.02.05.05.06.01 0 .01 0 .02.01.03-.05.06-.09.09-.14.03-.04.07-.08.1-.11.05-.05.09-.1.12-.16.03-.05.04-.11.05-.16 0-.01 0-.02.02-.02s.02.01.02.02c0 .06-.02.12-.05.17-.03.06-.07.11-.12.17-.04.04-.07.07-.1.11-.03.04-.06.08-.08.13.08.05.06.14.07.23.02 0 .03.01.04.01.02-.03.03-.05.05-.08l.08-.12c0-.01.01-.01.02-.01.01.01.01.02.01.02l-.08.12c-.02.03-.03.05-.05.08.05.04.06.12-.01.18-.13.09-.09.12.03.2.01.11.02.2-.01.29v.01c0 .03.01.06.01.09l.01.09c0 .01 0 .02-.02.02s-.02-.01-.02-.02l-.01-.09v-.02c-.01.01-.01.03-.02.04-.08.18-.17.33-.19.54-.2.05-.17.25-.18.42-.16.21-.34.39-.6.47-.05.02-.16.04-.18.11 0 .02.08.07.13.04.14-.14.21-.06.05.08-.01.03 0 .06.03.08.15.13.51.17.67.07.12-.08.19-.16.08-.28.01-.17.07-.33.25-.37.02-.04.01-.11.01-.15-.02-.14.01-.27.04-.41.01-.02.02-.03.05-.04.07-.01.19-.2.23-.39.01-.04.02-.08.02-.12.01-.06.04-.08.07-.04.03-.04.03-.07.05-.11.07-.1.17-.18.28-.12-.03-.08-.05-.17-.06-.26-.01-.11 0-.22.04-.33 0-.02.01-.03.03-.03.03-.08.07-.16.1-.23.03-.08.07-.16.1-.23 0-.01.01-.02.02-.01s.01.01.01.02c-.03.08-.07.16-.1.23-.03.08-.07.16-.1.23.01.01.01.02.01.04-.03.09-.04.2-.03.3a.7.7 0 00.08.3c0 .01.01.02.01.02.05.03.05.04.05.11 0 .06.01.11.02.18.11.2 0 .53-.11.7a.34.34 0 00-.04.26c.06.06.02.13-.03.17v.05c.01.06-.02.12-.05.17-.09.16-.16.33-.23.49-.13.04-.15.11-.2.23-.07.02-.08.04-.11.11a.87.87 0 01-.28.19c-.09.04 0 .08.06.12.06.04.13-.05.18-.12.05-.08.1-.05.07.01-.04.07-.06.16-.07.21-.02.05.19.1.22.1.13.01.28-.12.38-.18.08-.08.07-.16.03-.26v-.01c-.05 0-.1 0-.15-.02a.636.636 0 01-.18-.06c-.01 0-.02-.01-.01-.02.01-.02.01-.01.02-.01.06.02.11.04.17.06.05.01.1.02.15.01l.01-.08c.07-.08.11-.16.15-.26.14-.07.14-.13.12-.28.03-.06.04-.1.04-.16.09-.16.17-.33.23-.51.11-.15.16-.28.15-.46.01-.07.03-.11.08-.1.04-.05.07-.1.1-.16h.02v-.01c.01-.04.02-.08.03-.1.01-.03.03-.05.05-.07.02-.05.03-.1.02-.14a.394.394 0 00-.05-.14c-.02-.02-.03-.04-.04-.06-.01-.02 0-.05.02-.07.01-.01.01-.01.02 0s.01.02 0 .02c-.01.01-.02.02-.01.04 0 .02.02.03.03.05.03.05.05.1.05.16.01.05 0 .11-.03.16V58c-.02.02-.03.04-.04.06-.01.03-.02.06-.03.1v.01c.08 0 .15-.02.22-.06.04-.03.08-.08.11-.14.03-.05.05-.11.06-.18 0-.01 0-.02.02-.01.02 0 .01.01.01.02a.623.623 0 01-.16.31c.12.04.22 0 .34-.03-.02-.16-.01-.28 0-.38.02-.1.05-.18.1-.23.01-.01.01-.01.02 0s.01.02 0 .02c-.04.05-.07.12-.09.22-.02.09-.02.21 0 .36h.01c.05.08.07.14.17.08.04-.02.07-.05.1-.08.01-.01.01-.02.02-.03.09-.1.19-.19.28-.28.09-.08.19-.15.28-.21.01 0 .01-.01.02.01.01.01 0 .02-.01.02-.09.06-.19.13-.28.21-.08.07-.16.15-.24.23 0 .01.01.04.01.08.01.11.03.18.19.12.09-.03.1-.04.18-.09.04-.02.07-.04.1-.05.05-.04.1-.08.15-.11l.15-.09c.01-.06.02-.12.04-.17.05-.14.13-.28.23-.4h.01c.09-.05.16-.1.21-.16.06-.06.1-.13.13-.21 0-.01.01-.01.02-.01.02.01.01.01.01.02-.03.08-.08.15-.14.22-.06.06-.13.12-.22.17-.1.12-.18.25-.23.39-.02.05-.03.1-.04.15 0 0 .01 0 .01.01.01.02 0 .02-.01.02h-.01c-.01.08-.01.17.01.26.07 0 .14-.04.21-.1.08-.06.15-.15.23-.23v-.01c.02-.06.04-.12.07-.16.03-.05.08-.08.13-.1.01 0 .02-.01.02.01.01.02 0 .02-.01.02-.05.02-.08.05-.11.09-.03.04-.05.09-.07.15v.35l.01-.01c.09-.07.19-.12.29-.16.01 0 .02.01.02.02-.02.11-.03.21-.01.31.02.09.06.17.14.25.03-.06.07-.11.11-.15.01-.02.03-.03.04-.04.03-.03.06-.06.1-.09.02-.02.05-.04.07-.07.02-.02.05-.04.07-.07.01-.01.01-.01.02 0s.01.02 0 .02c-.02.02-.05.04-.07.07-.02.02-.05.04-.07.07-.03.02-.06.05-.09.08v.14c.07.02.11.02.18.02.02.14.04.16.16.16v-.14c.01-.05.02-.11.04-.16 0-.01.01-.02.02-.01.02.01.01.01.01.02-.02.05-.03.1-.03.15a.33.33 0 000 .14h.01c.05.1.11.15.21.19.03-.05.05-.09.06-.14.02-.05.02-.1.02-.15 0-.01 0-.02.02-.02s.02.01.02.02c0 .05 0 .11-.02.16s-.04.11-.08.16l-.01.01c0 .06.01.1.03.14.02-.03.03-.06.05-.09a.47.47 0 01.09-.12c.01-.01.01-.01.02 0s.01.02 0 .02c-.03.03-.06.07-.08.11-.02.04-.04.08-.06.11.01.02.03.04.04.06-.19.33-.4.79-.78.94-.2.08-.28.18-.32.39-.07.06-.13.11-.17.19-.13.04-.24.11-.38.1 0 .09.03.13.12.13.17-.09.21-.1.22-.09.02.02-.02.14-.17.24-.02.01-.02.02-.01.04.12.19.43.12.6.08.12-.03.34-.17.4-.29.02-.06-.03-.13-.08-.19-.24.04-.19-.19.01-.1.07-.02.08-.02.1-.1.18-.07.26-.15.3-.35.19-.2.37-.41.51-.64.04-.04.06-.12.05-.17.03-.04.05-.09.06-.13.01-.05.02-.1.02-.14 0-.01 0-.02.02-.02s.02.01.02.02c0 .05-.01.1-.02.15-.01.04-.02.08-.04.12.01.03.02.05.04.04.16-.13.32-.22.5-.33.01-.07.06-.11.13-.11.03 0 .04-.01.05-.04.04-.1-.01-.17-.06-.26-.05-.13.04-.16.12-.22.08-.06.08-.23.08-.32 0-.02-.01-.03-.01-.05l-.03-.1c0-.01-.01-.02.01-.02.02-.01.02 0 .02.01l.03.11c0 .01.01.03.01.04.08-.04.16-.09.2-.18.03-.1-.03-.19-.07-.28l-.06.03c-.04.02-.08.04-.13.05-.01 0-.02.01-.02-.01-.01-.02 0-.02.01-.02.04-.02.08-.03.12-.05.03-.01.06-.03.09-.04.04-.02.07-.05.1-.08.06-.08-.1-.16-.15-.19v-.01c-.08-.07-.16-.14-.23-.21-.01-.01-.01-.01 0-.02s.02-.01.02 0c.07.07.14.13.22.2.01-.12.01-.24-.02-.36-.01-.04-.03-.08-.04-.12h-.01a.34.34 0 01-.14-.12.302.302 0 01-.05-.16c0-.01 0-.02.02-.02s.02.01.02.02c0 .05.02.1.04.14.03.04.07.08.13.11.07.03.2.02.28-.02.11-.06-.03-.19-.07-.26-.02-.05-.03-.11-.04-.17.01 0 .02 0 .03-.01-.01-.02-.03-.03-.04-.05-.02-.02-.04-.03-.06-.04-.01 0-.02-.01-.01-.02.01-.02.01-.01.02-.01.02.01.05.02.07.04.02.02.04.04.06.07.01 0 .02 0 .03-.01.11-.02.17-.08.23-.16l-.12-.12a.755.755 0 00-.14-.11c-.01-.01-.01-.01 0-.02s.02-.01.02 0c.05.04.09.08.14.12.04.04.09.08.12.13 0 0 .01.01 0 .02.1.01.12-.01.17-.1a.31.31 0 00-.06-.13c-.03-.04-.06-.08-.1-.12-.01-.01-.01-.01 0-.02s.02-.01.02 0c.04.04.08.08.1.13.03.04.05.09.06.14.05 0 .1 0 .14-.02.09-.05.01-.24-.01-.31-.01-.01-.02-.02-.03-.02-.02-.01-.04-.03-.06-.04-.01 0-.01-.01-.01-.02.01-.01.02-.01.02-.01.02.01.04.03.06.04.02.01.03.02.05.03l.02-.02c.06-.05.09-.12.11-.19.03-.11.04-.06.16-.08.14-.02.21-.04.29-.2.04-.02.06-.04.07-.09.07-.13.06-.17-.05-.18zm-4.38 3.99c.01-.05.01-.09.02-.14 0-.01 0-.02.02-.01.02 0 .01.01.01.02-.01.04-.02.09-.02.13 0 .04-.01.07 0 .11.02 0 .03-.01.05-.01.1-.02.13-.05.17-.15.02-.01.04-.02.05-.04-.11-.05 0-.14.08-.06.08-.07.17-.14.25-.22H110.07a.409.409 0 01-.16-.28c-.02-.09-.01-.19 0-.29-.09.04-.18.08-.26.14l-.03.03c0 .01 0 .02-.02.02-.06.06-.11.12-.15.21 0 .01-.01.02-.02.01s-.01-.01-.01-.02c.05-.09.1-.16.17-.22v-.34c-.07.08-.14.15-.21.21-.08.06-.15.1-.23.11 0 0 0 .01-.01.01-.02.03-.04.05-.06.08-.01.02-.02.05-.02.07 0 .01 0 .02-.02.02s-.02-.01-.02-.02c0-.03.01-.06.02-.09s.04-.06.06-.08a.71.71 0 01-.01-.25c-.04.02-.09.05-.13.08-.05.03-.09.07-.14.1v.05c-.01.08-.01.14.01.23-.05.12-.01.21.05.32 0 .05-.01.08 0 .13-.04.07-.06.14-.08.22-.15.14-.25.25-.28.45-.09.06-.17.13-.24.21-.24.1-.41.27-.59.45-.08.02-.15.04-.22.07-.01 0-.06-.02-.07 0-.01.02.01.04.04.05h.01c.05 0 .1 0 .15-.01.05-.01.1-.02.15-.05.02-.01.03-.02.05.01s0 .04-.01.05c-.06.03-.11.05-.17.06-.03.01-.07.01-.1.01 0 .07 0 .11.08.15.16.09.65.15.74-.06.02-.07 0-.12-.04-.15-.1-.06-.27-.03-.21-.1.1-.01.21-.01.32-.01.05-.04.08-.04.11 0h.08c.05 0 .06-.23.07-.28.03-.09.07-.18.14-.25.18-.19.32-.46.58-.54v-.14zm15.53-9.33l-1.1.95.28 1.43.82-2.38zm-1.15.96l-1.38-.47 1.66 1.91-.28-1.44zm1.47.48l-.28-1.43-.82 2.39 1.1-.96zm1.41.52l-1.38-.48-1.1.96 2.48-.48zm-1.09 1l1.1-.96-2.48.48 1.38.48zm-1.55-.53l-1.66-1.91.28 1.43 1.38.48zm-1.08 1.09l.28 1.43.82-2.39-1.1.96zm-1.41-.51l1.38.48 1.1-.96-2.48.48zm1.09-1.01l-1.1.96 2.48-.48-1.38-.48zm.65 2.97l1.1-.96-.28-1.43-.82 2.39zm1.15-.97l1.38.47-1.66-1.91.28 1.44zm-.24-1.47l1.66 1.91-.28-1.43-1.38-.48z"/><path d="M93.13 50.61c-.01.01-.02.02-.04 0s-.01-.03 0-.04c.11-.1.21-.18.31-.23.1-.06.19-.09.27-.09.01 0 .03 0 .03.03s-.01.03-.03.03c-.07 0-.15.03-.24.08s-.19.13-.3.22zm-.55-2.09c-.02 0-.03-.04-.01-.05a.26.26 0 00.11-.1.53.53 0 00.06-.19c0-.03.05-.03.05 0 .01.06.04.11.08.15.04.05.1.08.15.1.02.01.02.05 0 .05-.04.01-.08.03-.1.07-.04.05-.06.11-.07.17-.01.02-.04.02-.05 0a.258.258 0 00-.08-.13c-.03-.04-.08-.06-.14-.07zm.08-.03c.04.01.07.03.1.06.03.02.05.05.07.08.01-.04.03-.08.06-.11.02-.03.04-.05.07-.07a.313.313 0 01-.11-.09c-.02-.02-.04-.05-.06-.08-.01.04-.03.09-.05.12-.03.03-.05.06-.08.09zm.15.22zm-.51 1.7c.11.05.23.13.34.22.01.01.02.02.04 0s.01-.03 0-.04c-.11-.1-.24-.18-.35-.23-.12-.05-.22-.08-.31-.07-.01 0-.03 0-.02.03 0 .03.02.03.03.02.07-.01.16.02.27.07zm.41 2.05c.01-.03 0-.03-.01-.04l-.46-.23c-.01-.01-.03-.01-.04.01-.01.03 0 .03.01.04l.46.23c.02.01.03.01.04-.01zM92.16 51a.623.623 0 01-.12-.09.375.375 0 01-.07-.12.507.507 0 01-.02-.13c-.06-.03-.11-.05-.15-.08a.623.623 0 01-.12-.09c-.01-.01-.02-.02 0-.04s.03-.01.04 0c.03.03.07.06.12.09.05.03.1.06.16.08a.996.996 0 01.52.21c.01 0 .01.01.02.01s.01.01.02.01c.04.02.08.02.11.01a.15.15 0 00.09-.07c.03-.05.05-.11.06-.16.01-.06 0-.12 0-.18 0-.07-.01-.14-.03-.19-.02-.06-.05-.1-.08-.15-.01-.01-.02-.02 0-.04s.03-.01.04 0c.04.05.07.1.09.16.02.06.03.13.04.21.01.06.01.12 0 .19a.49.49 0 01-.07.19c-.03.05-.07.08-.12.09-.04.01-.08.01-.12 0 .02.07.04.15.01.23-.01.01-.02.02-.04.01-.03-.02-.07-.03-.1-.04-.03-.01-.06-.02-.1-.03a.75.75 0 01-.18-.08zm.16.01l.04.02c.03.01.07.02.1.04.02.01.05.02.07.03a.378.378 0 00-.04-.2c0-.01 0-.01-.01-.02-.03-.02-.06-.03-.09-.05 0 .01.02.02.02.04.01.07-.03.12-.09.14zm-.22-.13c0-.07.05-.13.11-.15-.07-.02-.13-.05-.2-.05 0 .04.01.07.02.1.01.04.03.07.06.1h.01c-.01 0 0 .01.01.01-.01 0-.01-.01-.01-.01zm3.08 7.29a.539.539 0 01-.07-.13.585.585 0 01-.02-.13l-.15-.09c-.05-.03-.09-.07-.12-.1-.01-.01-.02-.02 0-.04s.03-.01.04 0c.03.03.07.06.11.09.04.03.1.06.15.09.09.01.19.04.28.08.08.04.16.09.24.14.01.01.01.01.02.01s.01.01.02.01c.04.02.08.02.11.01.04-.01.07-.03.09-.06.04-.05.05-.1.06-.16.01-.06.01-.12 0-.18 0-.07-.01-.14-.03-.19a.36.36 0 00-.08-.15c-.01-.01-.02-.02.01-.04.02-.02.03-.01.04.01.04.05.07.1.09.17.02.06.03.13.03.21 0 .06 0 .12-.01.19a.4.4 0 01-.07.18c-.03.05-.08.07-.12.08-.04.01-.08.01-.12-.01.02.08.04.16 0 .23-.01.01-.02.02-.04.01-.03-.02-.06-.03-.1-.05-.03-.01-.06-.03-.1-.04-.07-.03-.13-.05-.18-.08-.01 0-.05-.03-.08-.06zm.27.11l.04.02c.03.01.07.03.1.04.02.01.05.02.07.03.01-.06-.01-.13-.03-.2 0-.01 0-.01-.01-.02-.03-.02-.06-.03-.08-.05 0 .01.02.02.02.04 0 .07-.05.11-.11.14zm-.28-.25c.01.04.03.07.05.1l.01.01-.01-.01c0-.07.05-.12.12-.14a.762.762 0 00-.2-.06c.02.04.02.07.03.1zm-2.66-6.64c-.01.01-.01.03.02.04.03.01.03 0 .04-.02.02-.06.05-.11.09-.15.04-.05.08-.09.12-.12.01-.01.02-.02 0-.04s-.03-.01-.04 0a.8.8 0 00-.13.13c-.04.04-.07.1-.1.16zm3.12 7.27c-.01.01-.01.03.01.04.03.01.03 0 .04-.01.03-.06.06-.11.09-.15l.12-.12c.01-.01.02-.02 0-.04s-.03-.01-.04 0a.8.8 0 00-.13.13c-.03.04-.06.09-.09.15zm-2.94-6.05c.01-.03 0-.03-.02-.04l-.39-.14c-.01 0-.03-.01-.04.02-.01.03 0 .03.02.04l.39.14c.02 0 .03.01.04-.02zm6.36-4.1c-.02 0-.03-.04 0-.05.05-.01.09-.05.12-.1.04-.05.06-.12.08-.19 0-.03.05-.02.05 0 .01.06.03.12.07.16.04.05.09.09.14.11.02.01.02.05-.01.05-.04.01-.08.03-.11.06-.04.05-.06.11-.08.16-.01.02-.05.02-.05 0a.21.21 0 00-.07-.13.267.267 0 00-.14-.07zm.08-.03a.36.36 0 01.16.15c.02-.04.04-.08.06-.11a.24.24 0 01.08-.06c-.04-.02-.07-.06-.1-.09a.405.405 0 01-.05-.09l-.06.12c-.03.03-.06.05-.09.08zm-.51 1.89c.11.06.22.15.32.25.01.01.02.02.04 0s.01-.03 0-.04c-.11-.1-.22-.19-.34-.26-.11-.06-.22-.1-.3-.09-.01 0-.03 0-.03.03s.01.03.03.03c.09-.01.18.02.28.08zm-2.38 7.5c-.01.01-.02.02 0 .04s.03.01.04 0c.11-.09.21-.17.31-.22.09-.05.17-.08.24-.07.01 0 .03 0 .03-.03s-.01-.03-.03-.03c-.08 0-.17.03-.27.08-.1.06-.2.13-.32.23zM96.03 56zm3.37-5.41c-.01.01-.02.02-.01.04.02.02.03.01.04.01.11-.09.22-.16.32-.2.09-.05.18-.07.24-.06.01 0 .03 0 .03-.03s-.01-.03-.03-.03a.495.495 0 00-.27.07c-.09.04-.2.11-.32.2zm-.14-1.88zm-5.18 1.65c.02.02.01.03 0 .04-.03.03-.07.07-.12.1-.04.03-.09.06-.14.09 0 .05 0 .09-.01.13a.31.31 0 01-.06.13c-.03.03-.06.07-.11.1s-.1.06-.17.09c-.03.01-.06.03-.09.04-.03.02-.06.03-.09.05-.01.01-.03 0-.04-.01-.04-.07-.02-.16 0-.23-.04.02-.08.02-.12.01a.258.258 0 01-.13-.08.476.476 0 01-.08-.18c-.01-.06-.01-.13-.01-.19 0-.08 0-.15.02-.21s.04-.12.08-.17c.01-.01.02-.02.04-.01.02.02.02.03.01.04-.03.05-.06.1-.07.15-.02.06-.02.12-.02.19 0 .06 0 .12.01.18s.03.11.07.16c.03.03.06.05.09.06.04.01.08 0 .11-.02.01 0 .01-.01.02-.02l.02-.02c.08-.06.15-.11.23-.15.09-.05.18-.08.27-.09a.56.56 0 00.15-.1c.04-.03.08-.06.11-.09 0 0 .01-.01.03.01zm-.59.61c-.06-.02-.12-.07-.12-.14 0-.01.01-.02.01-.03-.02.02-.05.03-.07.05 0 .01 0 .02-.01.02-.02.07-.04.14-.02.2.02-.01.05-.02.07-.04a.3.3 0 01.1-.04c.01-.01.02-.02.04-.02zm.28-.36c-.07.01-.13.04-.19.07.06.02.11.07.12.14 0 .01-.01.02-.01.02.01-.01.02-.01.02-.02.03-.03.04-.07.05-.11.01-.03.01-.06.01-.1zm1.69 7.06c.11.06.23.14.33.24.01.01.02.02.04 0s.01-.03 0-.04c-.11-.1-.23-.19-.35-.24a.541.541 0 00-.3-.08c-.01 0-.03 0-.03.03s.02.03.03.03c.08-.02.17.01.28.06zm.35-1.87c-.02 0-.03-.04-.01-.05a.28.28 0 00.12-.1c.03-.05.06-.12.07-.19 0-.03.05-.03.05 0 .01.06.04.11.07.16.04.05.09.08.14.1.02.01.02.05-.01.05a.19.19 0 00-.11.07c-.04.05-.06.11-.08.17-.01.02-.05.02-.05 0a.273.273 0 00-.07-.13c-.02-.05-.06-.07-.12-.08zm.08-.03c.04.01.07.04.1.06.03.02.05.05.06.08.02-.04.04-.08.06-.11.02-.03.04-.05.07-.06a.313.313 0 01-.11-.09c-.02-.03-.04-.05-.05-.09-.01.04-.03.08-.06.12-.01.03-.04.06-.07.09zm-.12 4.12c.01-.03 0-.03-.02-.04l-.39-.15c-.01-.01-.03-.01-.04.02-.01.03 0 .03.02.04l.39.15c.01 0 .03 0 .04-.02zm3.11-7.45c.01-.02 0-.03-.01-.04l-.44-.26c-.01-.01-.02-.01-.04.01-.01.02 0 .03.01.04l.44.26c.01.01.03.02.04-.01zm-.03.15c.01-.03 0-.03-.01-.04l-.38-.17c-.01-.01-.03-.01-.04.01-.01.03 0 .03.01.04l.38.17c.02.01.03.02.04-.01zm.37.17a.193.193 0 01-.14-.11v-.01l.01-.36c.07 0 .14-.01.21-.02.07-.02.13-.06.18-.1.04-.05.07-.11.06-.17 0-.04-.03-.08-.06-.1-.03-.03-.08-.04-.12-.04-.04 0-.08 0-.12.01-.02 0-.04.01-.06.01-.01 0-.03 0-.03.03s.02.03.03.03c.02 0 .04 0 .06-.01.04-.01.07-.01.11-.01.03 0 .07.01.09.03.02.01.03.03.03.06 0 .04-.01.09-.05.13-.03.04-.09.07-.15.09-.07.02-.15.02-.23.02-.08 0-.16-.02-.23-.04a.183.183 0 01-.11-.1.372.372 0 01.01-.21c0-.01.01-.03-.02-.03s-.03.01-.03.02c-.02.07-.03.17-.01.25.02.06.06.11.15.14.07.02.15.04.23.04l-.01.37c-.03.06-.08.09-.15.1-.07.01-.17 0-.27-.03-.01 0-.03-.01-.03.02-.01.03.01.03.02.03.11.03.21.05.29.04.07-.01.13-.04.16-.09.04.06.09.09.16.11.08.02.18.01.29-.01.01 0 .03-.01.02-.03-.01-.03-.02-.02-.03-.02-.09-.03-.19-.02-.26-.04zm-.46-1.4c-.01.01-.01.03.01.04.03.01.03 0 .04-.01.03-.06.06-.1.1-.15.04-.04.08-.08.13-.12.01-.01.02-.02.01-.04-.02-.02-.03-.01-.04-.01-.05.04-.09.08-.14.12-.04.06-.08.11-.11.17zm.57 1.21c-.01 0-.03.01-.02.04.01.03.02.02.04.02l.39-.14c.01 0 .03-.01.02-.04-.01-.03-.02-.02-.04-.02l-.39.14zm-.46.31c-.01 0-.03 0-.03.03s.01.03.03.03h.3c.01 0 .03 0 .03-.03s-.01-.03-.03-.03h-.3zm-1.67 4.81c.01-.01.02-.02.04 0s.01.03 0 .04c-.03.03-.07.07-.12.1-.04.03-.09.06-.15.09 0 .05-.01.09-.02.13-.01.05-.03.09-.07.13a.53.53 0 01-.11.09.75.75 0 01-.18.08c-.03.01-.06.02-.1.04-.03.01-.06.03-.1.05-.01.01-.03 0-.04-.01a.362.362 0 010-.23c-.04.01-.08.02-.12.01a.2.2 0 01-.12-.08.45.45 0 01-.07-.18c-.01-.06-.01-.13-.01-.19 0-.08.01-.15.03-.21.02-.06.05-.12.09-.17.01-.01.02-.02.04-.01.02.02.01.03.01.04a.53.53 0 00-.11.34v.18c.01.06.03.11.06.16.02.03.06.05.09.06.04.01.08 0 .11-.01.01 0 .01-.01.02-.01l.02-.02c.08-.06.16-.11.24-.14a.9.9 0 01.28-.08c.06-.03.11-.06.15-.09s.11-.08.14-.11zm-.58.59c-.06-.02-.12-.07-.12-.14 0-.01.01-.02.01-.03-.03.02-.05.03-.08.05 0 .01 0 .02-.01.02-.02.07-.04.14-.03.2.02-.01.05-.02.07-.03.03-.02.07-.03.1-.04.04-.02.05-.03.06-.03zm.3-.35c-.07.01-.13.03-.2.06.06.02.11.07.11.14 0 .01-.01.02-.01.02.01-.01.02-.01.03-.02a.19.19 0 00.05-.1c.01-.03.01-.06.02-.1zm1.41-7.08a.31.31 0 01-.06-.13c-.01-.04-.01-.09-.01-.13-.05-.03-.1-.06-.14-.09-.05-.03-.09-.07-.12-.1-.01-.01-.02-.02 0-.04s.03-.01.04 0c.03.03.06.06.11.1.04.03.09.06.15.1.09.01.18.05.27.09.08.04.15.09.23.15l.02.02c.01 0 .01.01.02.01.04.02.08.02.11.02.04-.01.07-.03.09-.06.04-.05.06-.1.07-.16.01-.06.01-.12.01-.18 0-.07 0-.14-.02-.19a.523.523 0 00-.07-.15c-.01-.01-.02-.02.01-.04.02-.02.03 0 .04.01.03.05.06.11.08.17.02.06.02.13.02.21 0 .06 0 .12-.01.19-.01.06-.04.13-.08.18-.03.04-.08.07-.13.08-.04.01-.08 0-.12-.01.02.08.03.16 0 .23-.01.01-.03.02-.04.01-.03-.02-.06-.03-.09-.05s-.06-.03-.09-.04a.872.872 0 01-.17-.09.435.435 0 01-.12-.11zm.27.12c.01.01.02.01.04.02.03.01.07.03.1.04.02.01.04.02.07.04.02-.06 0-.13-.02-.2 0-.01 0-.01-.01-.02-.03-.02-.05-.04-.08-.05 0 .01.02.03.02.04-.01.06-.06.11-.12.13zm-.27-.26c.01.04.02.08.05.11l.01.01v-.01c0-.07.06-.12.12-.14a.731.731 0 00-.19-.07c0 .04 0 .07.01.1zm-2.11 8.99c-.01.01-.02.01-.01.04.01.02.03.02.04.01l.45-.25c.01-.01.02-.01.01-.04-.01-.02-.03-.02-.04-.01l-.45.25zm.02.15c-.01.01-.03.01-.02.04.01.03.02.02.04.02l.39-.15c.01-.01.03-.01.02-.04-.01-.03-.02-.02-.04-.02l-.39.15zm3.07-7.43c-.01.01-.03.01-.01.04.01.03.03.02.04.01l.46-.23c.01-.01.03-.01.01-.04s-.03-.02-.04-.01l-.46.23zm-3.52 7.32c.01-.02 0-.03-.01-.04l-.45-.25c-.01-.01-.02-.01-.04.01s0 .03.01.04l.45.25c.01.01.03.01.04-.01zm-2.65-7.34c-.01.01-.02.01-.01.04.01.02.03.02.04.01l.44-.26c.01-.01.02-.01.01-.04-.01-.02-.03-.02-.04-.01l-.44.26zm3 7.64a.18.18 0 01-.14-.1v-.37c.07 0 .14-.01.21-.03.07-.02.13-.06.17-.11.04-.05.06-.11.05-.17-.01-.04-.03-.08-.06-.1a.284.284 0 00-.13-.04c-.04 0-.08.01-.12.01-.02 0-.04.01-.05.01-.01 0-.03 0-.02.03 0 .03.02.03.03.02.02 0 .04-.01.06-.01.04-.01.07-.01.11-.01.03 0 .07.01.1.03.02.01.03.03.04.06.01.04-.01.09-.04.13-.03.04-.08.07-.14.09-.07.02-.15.03-.23.03-.08 0-.16-.01-.23-.03-.06-.02-.1-.05-.11-.1a.303.303 0 010-.21c0-.01.01-.03-.02-.03-.03-.01-.03.01-.03.02-.02.07-.03.17 0 .25.02.06.07.11.15.13.07.02.15.03.23.03v.37c-.03.06-.08.1-.14.11a.88.88 0 01-.27-.02c-.01 0-.03-.01-.03.02-.01.03.01.03.02.03.11.03.21.04.29.02.07-.01.12-.04.16-.1.04.06.09.09.16.1.08.01.18 0 .29-.02.01 0 .03-.01.02-.03-.01-.03-.02-.02-.03-.02-.13.02-.22.03-.3.01zm-3.06-7.29a.215.215 0 01-.15-.1v-.01l-.01-.36c.07-.01.14-.02.2-.04.07-.02.13-.07.17-.12.04-.05.06-.12.05-.18-.01-.04-.03-.08-.06-.1a.277.277 0 00-.13-.03c-.04 0-.08.01-.12.02-.02 0-.04.01-.05.01-.01 0-.03 0-.02.03 0 .03.02.02.03.02.02 0 .04-.01.06-.01.04-.01.07-.02.11-.02.03 0 .07.01.1.02.02.01.03.03.04.06.01.04-.01.09-.04.13s-.08.08-.14.1c-.07.02-.15.04-.23.04-.08 0-.16 0-.23-.02a.155.155 0 01-.12-.1.38.38 0 01-.01-.21c0-.01.01-.03-.02-.03-.03-.01-.03.01-.03.02-.01.07-.02.17.01.25.03.06.07.11.16.13.07.02.15.02.23.02l.01.37c-.02.07-.07.1-.14.11-.07.02-.17.01-.27-.01-.01 0-.03-.01-.03.02-.01.03.01.03.02.03.11.02.21.03.29.01a.26.26 0 00.16-.11c.04.05.1.08.16.09.08.01.18 0 .29-.04.01 0 .03-.01.02-.03-.01-.03-.02-.02-.03-.02-.12.06-.21.07-.28.06zm.09-.2c-.01.01-.03.01-.01.04.01.03.02.02.04.01l.38-.17c.01-.01.03-.01.01-.04-.01-.03-.02-.02-.04-.01l-.38.17zm7.2-2.1c.01-.01.02-.02.04 0s.01.03 0 .04c-.03.03-.08.06-.12.09-.04.03-.09.05-.15.08 0 .05-.01.09-.02.13a.24.24 0 01-.07.12c-.03.03-.07.06-.12.09-.05.03-.11.05-.18.08-.03.01-.06.02-.1.03-.03.01-.06.03-.1.04-.01.01-.03 0-.04-.01-.03-.08-.01-.16.01-.23-.04.01-.08.01-.12 0a.178.178 0 01-.12-.09.438.438 0 01-.07-.19c-.01-.06 0-.13 0-.19 0-.08.02-.15.04-.21s.05-.12.09-.16c.01-.01.02-.02.04 0s.01.03 0 .04a.53.53 0 00-.11.34c-.01.06-.01.12 0 .18s.02.11.06.16c.02.03.05.06.09.07.04.01.08.01.11-.01.01 0 .01-.01.02-.01 0 0 .01-.01.02-.01.08-.05.16-.1.24-.13a.96.96 0 01.28-.07c.06-.03.11-.06.16-.08s.09-.07.12-.1zm-.6.56a.163.163 0 01-.11-.15c0-.01.01-.02.01-.03a.3.3 0 01-.08.04c0 .01-.01.02-.01.02-.02.07-.05.14-.04.2.02-.01.05-.02.07-.03.03-.01.07-.03.1-.04.03 0 .04 0 .06-.01zm.3-.33c-.07.01-.13.03-.2.05.06.03.11.08.11.15 0 .01-.01.01-.01.02.01-.01.02-.01.03-.02.03-.03.05-.06.06-.1.01-.03.01-.07.01-.1zm-3.18 7.49zm-4.15-5.27c-.01 0-.03 0-.03.03s.02.03.03.03l.3-.02c.01 0 .03 0 .03-.03s-.02-.03-.03-.03l-.3.02zm6.65-2.78zM95.8 60.18c-.01 0-.03 0-.03.03s.01.03.03.03l.3-.01c.01 0 .03 0 .03-.03s-.01-.03-.03-.03l-.3.01zm11.08-3.93c.01-.08.02-.16.01-.24 0-.01 0-.02-.02-.01-.02 0-.02.01-.01.02.01.08.01.16-.01.23-.01.08-.04.15-.07.23a.817.817 0 00.04.66c0 .01.01.02.02.01.02-.01.01-.01.01-.02a.722.722 0 01-.08-.32c-.01-.11.01-.22.05-.32.02-.09.05-.17.06-.24zm.73-1.04c.06.05.11.1.14.17.03.07.05.14.05.22 0 .02.03.02.03 0 .03-.09.04-.18.04-.27 0-.09-.02-.18-.06-.26 0-.01-.01-.02-.02-.01-.02.01-.01.01-.01.02.03.08.05.17.06.25 0 .05 0 .11-.01.16-.01-.05-.02-.1-.04-.14a.489.489 0 00-.14-.18c-.01-.01-.01-.01-.02 0s-.03.03-.02.04zm.15-.53c0 .01.01.01.02.01.01-.01.01-.02.01-.02a.849.849 0 01-.09-.22.647.647 0 01-.01-.24c0-.01 0-.02-.01-.02-.02 0-.02.01-.02.01-.01.09-.01.17.01.26.02.07.05.14.09.22zm.43.59a.43.43 0 000 .16c.01.05.02.1.05.14 0 .01.01.01.02.01.01-.01.01-.02 0-.02a.284.284 0 01-.04-.13c-.01-.05 0-.1 0-.15 0-.13 0-.23-.03-.33a.576.576 0 00-.13-.23c-.01-.01-.01-.01-.02 0s-.01.02 0 .02c.05.05.09.13.12.21.03.09.03.19.03.32zm-.37-3.25c.02.01.05.02.08.04.01.01.01.01.02 0s0-.02 0-.02a.405.405 0 00-.09-.05.139.139 0 00-.09 0c-.01 0-.02 0-.01.02 0 .02.01.01.02.01h.07zm-.23 2.94c0 .01 0 .02.02.02s.02-.01.02-.02c-.01-.11-.03-.21-.05-.3s-.06-.17-.11-.25c0-.01-.01-.01-.02-.01-.01.01-.01.02-.01.02.04.07.08.15.1.24.02.1.04.2.05.3zm-.22-.81c.02-.05.03-.1.02-.14 0-.01 0-.02-.02-.01-.02 0-.01.01-.01.02.01.04 0 .08-.01.12-.02.04-.05.08-.09.11-.06.04-.09.1-.11.17-.02.07-.01.15 0 .23 0 .01 0 .02.02.01.02 0 .02-.01.01-.02a.409.409 0 010-.22c.01-.06.04-.11.09-.15a.53.53 0 00.1-.12zm-.27 1.87c0-.01 0-.01-.02-.02-.02 0-.02.01-.02.02 0 .08.01.16.02.24.02.07.05.14.08.21 0 .01.01.01.02.01.01-.01.01-.02.01-.02-.04-.06-.06-.13-.08-.2 0-.08-.01-.15-.01-.24zm.07-3.89c0-.02.01-.04.03-.06.02-.02.04-.03.07-.04.01 0 .02 0 .01-.02s-.01-.01-.02-.01c-.04.01-.07.03-.08.05-.02.02-.03.05-.04.08 0 .01 0 .02.01.02.02 0 .02-.01.02-.02zm-.08-.1c.02-.05.06-.09.11-.12s.11-.04.19-.03c.01 0 .02 0 .02-.02s-.01-.02-.02-.02a.36.36 0 00-.21.03c-.05.03-.09.08-.12.14 0 .01-.01.02.01.02.02.02.02.01.02 0zm1.42 3.86c0 .01 0 .02.02.02s.02-.01.02-.02c0-.05 0-.09-.01-.13-.01-.04-.03-.08-.05-.13 0-.01-.01-.01-.02-.01-.02.01-.01.01-.01.02.02.04.03.08.04.12 0 .05.01.09.01.13zM107.38 54zm3.13 1.64c0 .01 0 .02.02.01.02 0 .01-.01.01-.02l-.01-.03-.03-.09c0-.01 0-.02-.02-.01-.02 0-.01.01-.01.02l.03.09.01.03zm.97-.11c0 .01-.01.02.01.02.01.01.02 0 .02-.01.01-.02.01-.04.01-.05 0-.02-.01-.03-.03-.05-.01-.01-.01-.01-.02 0s-.01.02 0 .02c.01.01.02.02.02.03s-.01.03-.01.04zm-.27.55c0 .01 0 .02.02.02s.02-.01.02-.02v-.04c0-.01 0-.03-.01-.04 0-.01 0-.02-.02-.01-.02 0-.01.01-.01.02s.01.02.01.03c-.01.01-.01.03-.01.04zm.71.43c-.02 0-.01.01-.01.02l.03.09c0 .01 0 .02.02.01.02 0 .01-.01.01-.02l-.03-.09c-.01-.01-.01-.01-.02-.01zm-3.1-1.13c.01.01.01.01.02 0s0-.02 0-.02a.34.34 0 01-.12-.12.266.266 0 01-.03-.12c0-.01 0-.02-.01-.02-.02 0-.02.01-.02.01-.01.05 0 .09.03.14.03.04.07.08.13.13zm-1.77-.29c.07.12.1.24.09.36-.01.12-.05.24-.1.36 0 .01-.01.02.01.02.02.01.02 0 .02-.01.05-.12.1-.25.1-.37a.607.607 0 00-.1-.38c-.03-.08-.06-.15-.06-.23 0-.08.03-.15.09-.23.01-.01.01-.01 0-.02s-.02 0-.02 0c-.07.09-.1.17-.1.25.01.09.03.17.07.25zm4.88 1.36a.602.602 0 010-.19.24.24 0 01.07-.12v-.25c0-.01 0-.02-.02-.02s-.02.01-.02.02v.12l.01.1c-.04.04-.07.08-.08.14-.02.05-.02.12 0 .2 0 .01 0 .02.02.01.03 0 .02 0 .02-.01zm-2.64-1.31c0 .01 0 .02.02.02s.02-.01.02-.02c0-.05 0-.1-.01-.15a.471.471 0 00-.06-.15c0-.01-.01-.01-.02-.01s-.01.02-.01.02c.03.05.04.09.05.14.01.05.01.1.01.15zm.19.2c.03-.04.06-.07.07-.11.02-.04.03-.07.03-.11 0-.01 0-.02-.02-.02s-.02.01-.02.02c0 .03-.01.06-.02.1-.02.03-.04.07-.07.1-.01.01-.01.01 0 .02.02.01.03.01.03 0zm.32.42c.03.04.05.08.06.12.01.04.01.08.01.12 0 .01 0 .02.02.02s.02-.01.02-.02c0-.04 0-.08-.01-.13a.279.279 0 00-.07-.13.207.207 0 01-.06-.1.36.36 0 01-.02-.11c0-.01 0-.02-.02-.02s-.02.01-.02.02c0 .04.01.08.02.12.02.04.04.08.07.11zm-.01.73c0 .01 0 .02.02.02s.02-.01.02-.02v-.07c0-.01 0-.02-.02-.02s-.02.01-.02.02v.07zm.35-.66c0-.02 0-.04.01-.06 0-.02 0-.04.01-.06 0-.01 0-.02-.02-.02s-.02.01-.02.02c0 .02 0 .04-.01.06 0 .02 0 .04-.01.06 0 .01 0 .02.01.02.03-.01.03-.01.03-.02zm-3.82-1.38c.01-.01.01-.01 0-.02s-.02 0-.02 0c-.11.16-.16.3-.17.41-.01.12.02.21.07.3a.727.727 0 01-.01.5c0 .01-.01.02.01.02.02.01.02 0 .02-.01a.783.783 0 00.01-.52.54.54 0 01-.06-.29c-.01-.1.04-.23.15-.39zm-.62-2.38c.1-.08.2-.12.31-.13.1-.01.19.01.3.06-.12.1-.22.15-.31.17a.29.29 0 01-.24-.05c-.01-.01-.02-.01-.03.01-.01.02 0 .02.01.03.08.06.17.08.28.06.1-.02.22-.09.35-.2h.24c.01 0 .02 0 .02-.02s-.01-.02-.02-.02h-.25a.648.648 0 00-.35-.07c-.11.01-.22.06-.33.14-.01.01-.02.01 0 .03 0 0 .01 0 .02-.01zm-.03-.03zm.05-.21l.03-.06c.01-.02.03-.03.05-.05.01-.01.01-.01 0-.02s-.02-.01-.02 0c-.02.02-.04.03-.06.05s-.03.04-.04.07c0 .01-.01.02.01.02s.03 0 .03-.01zm.51-.07a.21.21 0 01.04-.06c.02-.01.04-.02.07-.02.01 0 .02 0 .02-.02s-.01-.02-.02-.02a.14.14 0 00-.09.03c-.03.02-.04.05-.05.08 0 .01 0 .02.01.02s.02 0 .02-.01zm-.31.03c0-.01.01-.02.03-.04.02-.01.03-.02.06-.03.01 0 .02-.01.01-.02-.01-.02-.01-.01-.02-.01-.03.01-.05.03-.07.04-.02.02-.03.03-.04.05 0 .01-.01.02.01.02s.02 0 .02-.01zm.64.69c-.01 0-.01.01-.01.02.01.01.01.01.02.01.06-.03.11-.07.15-.1.04-.04.07-.07.1-.11 0-.01.01-.01 0-.02s-.02 0-.02 0c-.03.03-.06.07-.09.1-.04.03-.09.06-.15.1zm-.89 1.27c0 .01-.01.02.01.02.02.01.02 0 .02-.01.01-.03.02-.05.04-.07a.18.18 0 01.07-.05c.01 0 .02-.01.01-.02s-.01-.01-.02-.01c-.03.02-.06.04-.08.06s-.04.05-.05.08zm.32-1.77c-.05 0-.08.04-.08.08s.04.08.08.08c.05 0 .08-.04.08-.08.01-.05-.03-.08-.08-.08zm-.01.61c.01-.03.03-.06.05-.09 0-.01.01-.01-.01-.02-.01-.01-.02 0-.02.01-.02.03-.04.06-.05.1-.01.04-.02.07-.02.12 0 .01 0 .02.02.02s.02-.01.02-.02c-.01-.06 0-.09.01-.12zm-.05 2.51c.01.05 0 .09-.01.14s-.03.09-.05.14c0 .01-.01.01.01.02.01.01.02 0 .02-.01l.06-.15c.01-.05.01-.1.01-.15 0-.01 0-.02-.02-.01-.03 0-.02.01-.02.02zm-.01-2.18l-.03.03c-.01.01-.01.01 0 .02s.02 0 .02 0l.03-.03c.01-.01.01-.01 0-.02s-.01-.01-.02 0zm.33.08zm.4.76c-.01.07-.02.15-.07.2-.04.03-.06.07-.08.11-.02.04-.02.09-.03.13 0 .01 0 .02.01.02.02 0 .02-.01.02-.01.01-.04.01-.08.03-.12.01-.04.04-.07.07-.1.06-.05.07-.14.08-.22v-.04c0-.01 0-.02-.01-.02-.02 0-.02.01-.02.01.01.01 0 .02 0 .04zm0 .57c-.13.12-.2.26-.2.41 0 .15.05.31.17.48 0 .01.01.01.02.01.01-.01.01-.02 0-.02a.854.854 0 01-.16-.47c0-.14.06-.26.19-.38.03.04.04.08.06.13.01.06.02.13.02.2 0 .01 0 .02.02.02s.02-.01.02-.02c0-.08 0-.15-.02-.21a.348.348 0 00-.07-.15s0-.01-.01-.01a.52.52 0 01.06-.23c.03-.06.08-.1.14-.13.01 0 .02-.01.01-.02-.01-.02-.01-.01-.02-.01-.07.03-.12.08-.15.14-.06.07-.08.15-.08.26zm.26 1.01v-.02c-.01-.08-.01-.16-.02-.24v-.05-.02c0-.01 0-.02-.02-.02s-.02.01-.02.02v.34c0 .01 0 .02.02.02h.02c.02-.02.02-.02.02-.03zm-.04-1.61c0 .01-.01.02.01.02.02.01.02 0 .02-.01a.522.522 0 00-.01-.42c0-.01-.01-.01-.02-.01-.01.01-.01.01-.01.02.03.07.05.13.05.2 0 .06-.02.13-.04.2zm.06.54c-.02-.02-.02-.04-.03-.07v-.07c0-.01 0-.02-.01-.02-.02 0-.02.01-.02.01v.08c0 .03.02.05.03.08.01.01.01.01.02 0 .02.01.01 0 .01-.01zm-1.31-1.34v-.02c.01-.06.01-.11.02-.17 0-.01 0-.02-.02-.02s-.02.01-.02.02c-.01.06-.01.11-.02.17v.02c0 .01 0 .02.02.02s.02-.01.02-.02zm.75 1.02c.02 0 .02 0 .02-.01.02-.08.05-.14.09-.21.04-.06.08-.12.13-.18.05-.07.09-.15.11-.22.02-.08.02-.17.01-.25 0-.01 0-.02-.02-.01-.02 0-.02.01-.01.02a.58.58 0 01-.11.45c-.04.06-.09.11-.13.18-.04.06-.07.13-.1.21 0 .01-.01.01.01.02zm-.06-1.31v.05c0 .01 0 .02.02.02s.02-.01.02-.02v-.05c0-.01 0-.02-.02-.02s-.02.01-.02.02zm.02-.35c-.03.01-.07.01-.1.01s-.07-.01-.1-.02c-.01 0-.02-.01-.02.01-.01.02 0 .02.01.02.04.01.07.02.11.02.04 0 .07 0 .11-.01.01 0 .02 0 .01-.02 0-.01-.01-.01-.02-.01zm.09.75c.01 0 .02 0 .01-.02 0-.02-.01-.01-.02-.01-.02.01-.05.01-.08.01s-.05-.01-.08-.02c-.01 0-.01-.01-.02.01-.01.01 0 .02.01.02.03.01.06.02.09.02s.06 0 .09-.01zm.95 1.6c.01-.01.01-.01 0-.02s-.02 0-.02 0a.37.37 0 00-.08.18c-.01.07-.01.14 0 .21 0 .01 0 .02.02.01.02 0 .02-.01.01-.02a.67.67 0 010-.2c.01-.06.03-.11.07-.16zm3.44 2.3c-.03-.11-.06-.22-.05-.32 0-.1.04-.2.11-.29.03-.04.06-.09.07-.14l.03-.14c0-.01 0-.02-.01-.02-.02 0-.02.01-.02.01-.01.04-.01.09-.03.13-.02.04-.04.09-.07.13-.08.1-.11.2-.11.31 0 .09.01.19.04.28a.775.775 0 01-.2-.21c-.05-.08-.07-.17-.05-.25.01-.08.02-.15.01-.22a.697.697 0 00-.07-.22c0-.01-.01-.02-.02-.01-.02.01-.01.02-.01.02a.6.6 0 01.07.2c.01.07 0 .14-.01.21-.02.1 0 .19.06.28.05.09.14.17.25.25 0 .03.02.02.01 0zm.15.25c-.02 0-.02 0-.02.01-.02.07-.05.15-.07.22-.02.07-.05.15-.07.22 0 .01-.01.02.01.02.02.01.02 0 .02-.01.02-.07.05-.15.07-.22.02-.07.05-.15.07-.22 0-.01.01-.01-.01-.02zm-.71.7c-.01.02-.02.04-.02.07-.01.02-.02.04-.02.07 0 .01-.01.02.01.02.02.01.02 0 .02-.01.01-.02.02-.04.02-.07.01-.02.02-.04.02-.07 0-.01.01-.02-.01-.02s-.02 0-.02.01zm.11-.66c-.04-.06-.07-.08-.06-.11 0-.01.01-.02-.01-.02s-.02 0-.02.01c-.02.05.01.08.06.15a.527.527 0 01.11.28c0 .06-.01.13-.02.19a.606.606 0 00-.11-.21c-.07-.08-.16-.16-.26-.23-.01 0-.01-.01-.02 0s0 .02 0 .02c.1.07.19.14.25.22.06.08.11.17.12.27 0 .02.03.02.03 0 .02-.09.04-.19.03-.28a.42.42 0 00-.08-.26c0-.01-.01-.02-.02-.03zm.54.96l-.03.12c0 .01 0 .02.01.02.02 0 .02 0 .02-.01l.03-.12.03-.12c0-.01 0-.02-.01-.02-.02 0-.02 0-.02.01l-.03.12zm-.08 1.67c-.03.05-.07.09-.11.13-.05.04-.09.08-.15.11-.01 0-.01.01 0 .02s.02.01.02 0c.05-.04.11-.07.15-.11.05-.04.09-.09.12-.14 0-.01.01-.01 0-.02-.02 0-.03.01-.03.01zm.18-.51c-.01.04-.02.08-.05.12-.03.04-.07.07-.13.1-.01 0-.02.01-.01.02.01.02.01.01.02.01.06-.03.11-.07.14-.11.03-.04.05-.09.06-.13 0-.01 0-.02-.01-.02-.02 0-.02.01-.02.01zm-.38-1.27c-.01.01-.01.02 0 .02l.03.03c.01.01.01.01.02 0s.01-.02 0-.02l-.03-.03c0-.01 0-.01-.02 0zm.06-.91c-.01-.01-.02-.03-.04-.04-.01-.01-.02-.03-.04-.04-.01-.01-.01-.01-.02 0s-.01.02 0 .02c.01.01.02.03.04.04.01.01.02.03.04.04.01.01.01.01.02 0s0-.01 0-.02zm.5 1.33c-.01-.02-.01-.04 0-.05 0-.01.01-.01-.01-.02s-.02 0-.02.01a.11.11 0 000 .08c0 .01.01.02.02.01.01-.02.01-.03.01-.03zm-1.91-2.31v.08c0 .01 0 .02.02.02s.02-.01.02-.02v-.08c0-.01 0-.02-.02-.02-.02.01-.02.02-.02.02zm.09-.26c0 .01 0 .02.02.02s.02-.01.01-.02c-.01-.1-.04-.2-.07-.28-.04-.09-.09-.17-.14-.25-.01-.01-.03-.01-.03.01-.01.06-.01.12-.03.17s-.04.11-.07.17v.01c0 .12-.02.21-.04.27-.02.06-.06.1-.1.12 0-.08-.01-.16-.03-.24a.683.683 0 00-.18-.32c-.01-.01-.01-.01-.02 0s-.01.02 0 .02c.09.09.15.19.18.31s.03.25.02.38c0 .01 0 .02.01.02.02 0 .02-.01.02-.01 0-.04.01-.08.01-.12h.01c.05-.02.09-.06.12-.14.03-.07.04-.16.04-.28.04-.06.06-.12.07-.17.01-.04.02-.09.02-.13.04.07.08.14.11.21.04.06.06.15.07.25zm-.67-.36c0 .01 0 .01 0 0zm.54 2.81c-.02.05-.03.09-.03.14 0 .05 0 .09.01.14 0 .01 0 .02.02.01.02 0 .01-.01.01-.02-.01-.04-.01-.09-.01-.13 0-.04.01-.09.03-.13 0-.01.01-.02-.01-.02s-.01 0-.02.01zm.96-1.59c0 .01.01.02.01.04s.01.03.01.06c0 .01 0 .02.02.01.02 0 .01-.01.01-.02 0-.02-.01-.04-.01-.06 0-.02-.01-.03-.01-.05.03-.02.06-.05.09-.08s.06-.07.1-.12c0-.01.01-.01 0-.02s-.02 0-.02 0c-.03.04-.06.08-.09.11s-.06.06-.09.08c-.04.03-.09.06-.13.08-.02.01-.05.02-.08.03a.94.94 0 00.12-.18c.04-.08.06-.16.06-.23 0-.01 0-.02-.02-.02s-.02.01-.02.02c0 .07-.02.15-.06.22-.04.07-.09.15-.15.22-.01.01 0 .03.02.03.04-.02.09-.03.13-.05.03-.02.07-.04.11-.07zm-1.17.32c-.01.04-.01.09-.02.13-.01.04-.01.09-.02.13 0 .01 0 .02.01.02.02 0 .02-.01.02-.01.01-.04.01-.09.02-.13.01-.04.01-.09.02-.13 0-.01 0-.02-.01-.02-.02-.01-.02 0-.02.01zm.87-.63c-.05.06-.11.11-.17.16-.06.05-.13.09-.2.13-.07.02-.12.05-.16.1-.02.02-.04.05-.06.07.01-.06.03-.11.06-.16.04-.08.08-.14.15-.2.07-.08.11-.17.13-.27.02-.1.01-.2-.04-.31 0-.01-.01-.02-.02-.01s-.01.01-.01.02c.04.1.05.2.04.29-.02.09-.06.17-.12.25-.07.06-.12.13-.16.21s-.06.17-.08.26c0 .02.02.02.03.01.03-.05.06-.1.1-.14.04-.04.09-.07.15-.09.07-.04.14-.08.2-.13s.12-.1.18-.16c.01-.01.01-.01 0-.02-.01-.02-.01-.01-.02-.01zm-.16 1.96c-.02.03-.04.05-.05.08-.01.03-.02.06-.02.09 0 .01 0 .02.01.02.02 0 .02-.01.02-.01 0-.03.01-.05.02-.08.01-.02.02-.05.04-.07.01-.01.01-.01 0-.02-.01-.02-.02-.02-.02-.01zm.49-.01l-.02.02c-.04.05-.08.1-.11.16l-.01.01c.05-.01.09-.03.14-.06v-.07-.06zm1.01.95c-.02.03-.04.06-.06.1 0 .01-.01.01 0 .02s.02 0 .02 0c.02-.03.04-.06.06-.1 0-.01.01-.01 0-.02-.01-.02-.02-.01-.02 0zm.67-2.48c0-.01 0-.02-.02-.01-.02 0-.02.01-.01.02.01.06.01.12 0 .18s-.04.12-.08.18v.01c-.02.06-.03.11-.04.17 0-.15-.03-.31-.13-.46 0-.01-.01-.01-.02 0s-.01.02 0 .02c.13.19.12.38.12.58v.04c0 .02.03.02.03 0v-.02c.02-.11.04-.21.07-.31.04-.06.07-.13.09-.19 0-.08 0-.14-.01-.21zm.17-1.39c-.01-.01-.01-.01-.02 0s-.01.02 0 .02c.04.04.06.09.08.14.01.06.02.12.01.19 0 .01 0 .02.01.02.02 0 .02-.01.02-.02.01-.07.01-.14-.01-.2a.597.597 0 00-.09-.15zm-.15 2.68c.02-.05.04-.11.04-.17 0-.06 0-.12-.01-.18 0-.01 0-.02-.02-.01-.02 0-.02.01-.01.02.01.06.02.12.01.17 0 .05-.01.11-.04.16-.02.07-.02.13-.01.2s.04.13.07.2c0 .01.01.02.02.01s.01-.01.01-.02a.697.697 0 01-.06-.19.25.25 0 010-.19zm.15-2.68zm1.51-.3c-.01-.02-.03-.04-.04-.05-.01-.01-.01-.01-.02 0s-.01.02 0 .02c.01.01.03.03.04.05.01.02.02.04.02.05 0 .01.01.02.02.01.02 0 .01-.01.01-.02l-.03-.06zm-.59.14c0 .01-.01.02-.01.03s-.01.02-.01.03c0 .01-.01.02.01.02s.02 0 .02-.01.01-.02.01-.03c0-.01.01-.02.01-.03 0-.01.01-.02-.01-.02-.02-.01-.02 0-.02.01zm-.36 0c-.01 0-.02-.01-.02.01-.01.01 0 .02.01.02.03.01.05.03.07.04s.03.04.04.06c0 .01.01.01.02.01.01-.01.01-.01.01-.02-.01-.03-.03-.05-.05-.07-.02-.02-.04-.04-.08-.05zm-.58 1.99c-.01.03-.02.06-.02.09-.01.03-.02.06-.02.09 0 .01 0 .02.01.02.02 0 .02 0 .02-.01.01-.03.02-.06.02-.09.01-.03.02-.06.02-.09 0-.01 0-.02-.01-.02-.01-.01-.02 0-.02.01zm-.62 1.51c-.01-.01-.02-.01-.02 0-.02.02-.03.04-.05.06-.01.02-.03.05-.03.08 0 .01-.01.02.01.02s.02 0 .02-.01c.01-.03.02-.05.03-.07.01-.02.03-.04.04-.06.01 0 .01-.01 0-.02zm.18-1.87zm-.22 1.16c-.01.01-.02.02-.02.03 0-.06-.01-.12-.02-.18-.01-.09-.03-.17-.06-.26 0-.01 0-.02-.02-.01-.02 0-.01.01-.01.02l.06.25c.02.08.02.17.02.26 0 .02.03.02.03 0a.19.19 0 01.05-.1c.02-.03.06-.06.1-.08.01 0 .01-.01.01-.02-.01-.01-.02-.01-.02-.01-.05.04-.09.07-.12.1zm-.14 1.25zm.11-2.05v-.04c0-.01 0-.02-.02-.02s-.02.01-.02.02v.08c0 .01 0 .02.02.02s.02-.01.02-.02v-.04zm.37 1.55c-.01.05-.03.09-.04.14-.02.05-.04.09-.06.14 0 .01-.01.01.01.02.01.01.02 0 .02-.01.03-.05.05-.09.07-.14.02-.05.03-.09.04-.14 0-.01 0-.02-.01-.02-.02 0-.03.01-.03.01zm-.09-.6c.02 0 .02-.01.02-.01.01-.06.01-.12.01-.18s-.01-.13-.03-.19c0-.01 0-.02-.02-.01-.02 0-.01.01-.01.02l.03.19c0 .06 0 .12-.01.18 0-.01 0-.01.01 0zm.05-2.09c.01 0 .02 0 .02-.01 0-.11-.03-.21-.09-.29a1.03 1.03 0 00-.24-.22c-.01 0-.01-.01-.02 0s0 .02 0 .02c.09.06.17.13.23.21.05.07.08.15.08.25-.06-.02-.11-.05-.17-.07-.01-.01-.02.01-.02.02.04.24.03.43-.02.58-.05.13-.13.22-.25.28.02-.08.04-.16.04-.24.01-.09 0-.18-.01-.27 0-.01 0-.02-.02-.01-.02 0-.02.01-.01.02.01.09.02.18.01.26-.01.09-.02.18-.05.27 0 .01.01.03.02.02.14-.06.24-.16.3-.31.05-.14.06-.33.02-.56.07 0 .13.03.18.05zm-6.34-4.96a.262.262 0 00-.09-.05c-.01 0-.02-.01-.02.01-.01.02 0 .02.01.02.03.01.06.03.08.05.02.02.04.05.05.08 0 .01.01.02.02.01s.01-.01.01-.02a.289.289 0 00-.06-.1zm.68 6.29v.06c0 .01 0 .02.02.02s.02-.01.02-.02v-.06c0-.01 0-.02-.02-.02s-.02.01-.02.02zm.14-.5c0-.01.01-.02-.01-.02-.02-.01-.02 0-.02.01-.03.06-.03.11-.02.17.01.05.03.11.07.16 0 .01.01.01.02.01.01-.01.01-.02.01-.02a.471.471 0 01-.06-.15.219.219 0 01.01-.16zm-.03-2.53c.06-.07.1-.13.12-.2.02-.07.02-.14 0-.21 0-.01 0-.02-.02-.01-.02 0-.01.01-.01.02.02.06.02.13 0 .19s-.06.12-.11.19c-.06.05-.1.12-.13.2-.02.08-.03.16-.04.24 0 .01 0 .02.02.02s.02-.01.02-.02c0-.08.01-.16.04-.23.01-.07.05-.14.11-.19zm-.18 1.07c-.01.13-.04.23-.1.32-.06.09-.14.16-.24.21-.01 0-.01.01-.01.02.01.01.02.01.02.01.1-.06.19-.13.25-.22s.1-.2.11-.34c0-.01 0-.02-.02-.02-.01 0-.01.01-.01.02zm.77.24c0-.01 0-.02-.02-.02s-.02.01-.02.02c0 .05-.01.1-.02.15-.02.05-.04.1-.08.14-.01.01-.01.01 0 .02s.02 0 .02 0c.04-.05.07-.1.09-.15.02-.05.03-.1.03-.16zm-.17 3.6c-.02.04-.04.07-.06.1a.27.27 0 01-.07.08c-.01.01-.01.01 0 .02s.02.01.02 0a.55.55 0 00.07-.09c.02-.03.05-.07.07-.11 0-.01.01-.01-.01-.02-.01 0-.01.01-.02.02zm-.62-2.98c0-.01.01-.02-.01-.02-.02-.01-.02 0-.02.01-.02.04-.02.08-.02.12 0 .04.02.08.04.12 0 .01.01.01.02.01.01-.01.01-.02.01-.02-.02-.04-.04-.07-.04-.11 0-.03 0-.07.02-.11zm.55-.71c.04-.08.05-.18.04-.3 0-.01 0-.02-.02-.02s-.02.01-.02.02c.01.12 0 .21-.04.29-.03.08-.09.14-.14.2-.09.09-.16.2-.18.35-.02.14 0 .32.09.55 0 .01.01.02.02.01.02-.01.01-.01.01-.02-.09-.22-.11-.39-.09-.53.02-.14.09-.24.17-.33.07-.07.12-.14.16-.22zm.02.6v.1c0 .01 0 .02.02.02s.02-.01.02-.02v-.1c0-.01 0-.02-.02-.02-.02.01-.02.01-.02.02zm-.78-2.75c.01 0 .02-.01.01-.02-.01-.02-.01-.01-.02-.01a.36.36 0 00-.1.07c-.03.03-.05.06-.08.09-.01.01-.01.01 0 .02s.02 0 .02 0c.02-.03.05-.06.08-.09l.09-.06zm-.56 5.65a.444.444 0 01-.11-.08c-.01-.01-.01-.01-.02 0s-.01.02 0 .02c.04.03.08.07.12.09.05.02.1.04.15.04.01 0 .02 0 .02-.02s-.01-.02-.02-.02a.29.29 0 01-.14-.03zm.31-7.23l.06-.06c.01-.01.01-.01 0-.02s-.02-.01-.02 0c-.02.02-.05.04-.07.06-.02.02-.04.05-.06.07 0 .01-.01.01 0 .02s.02 0 .02 0l.07-.07zm-.18.31c0-.01 0-.02-.02-.02s-.02.01-.02.02v.1c0 .01 0 .02.02.02s.02-.01.02-.02v-.1zm.13.29c-.02 0-.02.01-.02.02v.11c0 .01 0 .02.02.02s.02-.01.02-.02v-.11c-.01-.02-.01-.02-.02-.02zm.4 4.51c.01-.03.02-.06.02-.09v-.1c0-.01 0-.02-.02-.01-.02 0-.02.01-.01.02 0 .03.01.06 0 .09 0 .03-.01.05-.02.07-.02.04-.02.07-.02.11.01.03.02.07.05.1.01.01.01.01.02 0s.01-.02 0-.02c-.02-.03-.04-.06-.04-.09.01-.02.01-.05.02-.08zm3.11-.5c-.02 0-.02.01-.02.01-.01.06-.02.12-.05.18-.02.06-.06.11-.1.17-.06.07-.1.14-.11.22a.6.6 0 00.02.23c0 .01 0 .02.02.01.02 0 .01-.01.01-.02a.55.55 0 01-.02-.22c.01-.07.04-.14.1-.2.05-.06.08-.12.11-.18s.04-.12.05-.19c0 0 .01-.01-.01-.01zm-2.24 2.23c-.01.05-.01.1-.02.15 0 .01 0 .02.01.02.02 0 .02-.01.02-.01.01-.05.01-.1.02-.15 0-.01 0-.02-.01-.02-.02 0-.02 0-.02.01zm-1.13-6.63c-.01-.01-.02-.01-.02 0l-.05.05-.05.05c-.01.01-.01.01 0 .02s.02.01.02 0l.05-.05.05-.05s.01-.01 0-.02zm-.1 6.66c0-.01 0-.02-.02-.02s-.02.01-.02.02v.1c0 .01 0 .02.02.02s.02-.01.02-.02v-.1zm3.01.95zm-.12-2.4c0-.01 0-.02-.02-.01-.02 0-.01.01-.01.02.01.03.01.07.02.1 0 .01 0 .02.02.01.02 0 .02-.01.01-.02-.01-.04-.02-.07-.02-.1zm.09 2.39c-.01.01-.01.02-.02.03-.01.01-.02.02-.04.02-.01 0-.02.01-.01.02.01.02.01.01.02.01.02-.01.04-.02.05-.03.01-.01.03-.03.03-.04 0-.01.01-.01-.01-.02-.02 0-.02 0-.02.01zm-.04-3.16c.04-.07.06-.14.08-.21.01-.07.01-.14 0-.21 0-.01 0-.02-.02-.01-.02 0-.01.01-.01.02.01.06.01.13 0 .19-.01.07-.04.13-.07.2-.03.06-.05.12-.08.18 0 .01-.01.02.01.02.02.01.02 0 .02-.01.02-.05.05-.11.07-.17zm.39-.26c0-.01 0-.02-.02-.01-.02 0-.02.01-.01.02.01.06 0 .11-.02.17-.02.06-.06.12-.12.17-.06.05-.1.1-.13.16s-.06.11-.08.17c0 .01-.01.02.01.02.02.01.02 0 .02-.01.02-.06.05-.11.08-.17.03-.05.07-.11.13-.15.05-.06.1-.12.12-.18a.4.4 0 00.02-.19zm-.04 3.23c0 .01-.01.01-.02.02s-.02.01-.03.02c-.01 0-.01.01-.01.02.01.01.02.01.02.01.01-.01.03-.02.03-.03.01-.01.01-.02.02-.03 0-.01.01-.01-.01-.02.01-.01.01 0 0 .01zm-.44-3.55a.851.851 0 00-.21-.38c-.01-.01-.01-.01-.02 0s-.01.02 0 .02c.1.12.17.24.2.36.03.13.03.26-.01.4 0 .01 0 .02.01.02.02 0 .02 0 .02-.01.04-.14.05-.28.01-.41zm.48.32zm-.75-.05c-.03.07-.07.14-.11.21-.04.07-.1.14-.16.21-.04.04-.07.09-.1.14-.02.03-.03.06-.05.09 0-.02-.01-.05-.02-.07-.02-.05-.04-.11-.07-.16a.393.393 0 01-.08-.25c0-.08.04-.16.1-.25.04-.06.06-.13.08-.19.02-.06.03-.13.03-.19 0-.01 0-.02-.02-.02s-.02.01-.02.02c0 .06-.01.12-.03.19s-.04.12-.08.19a.5.5 0 00-.1.26c0 .09.02.18.08.27.03.05.05.1.07.15s.02.1.02.15c0 .02.03.02.03.01.02-.06.04-.11.07-.16.03-.05.06-.09.1-.13.06-.07.11-.14.16-.21.05-.07.08-.14.11-.21 0-.01.01-.02-.01-.02.01-.05.01-.04 0-.03zm-1.03 1.31c0 .07-.02.13-.05.19-.03.05-.06.1-.11.15 0-.04-.01-.08-.01-.11a.442.442 0 00-.05-.15.625.625 0 01-.1-.2c-.02-.07-.02-.14-.02-.22 0-.01 0-.02-.02-.02s-.02.01-.02.02c0 .08.01.15.02.23.02.07.05.15.1.21.02.05.04.09.04.14.01.05.01.1.02.14 0 .01.02.02.03.01.06-.06.11-.12.14-.19.03-.07.05-.13.05-.2 0-.01 0-.02-.02-.02v.02zm1.21 2.28c-.02-.01-.02 0-.02.01-.01.01-.02.03-.03.04-.01.02-.03.03-.05.04-.01.01-.01.01 0 .02s.02.01.02 0c.02-.02.04-.03.05-.05.01-.02.02-.03.03-.05.01 0 .02-.01 0-.01zm-1-3.02c-.02 0-.01.01-.01.02.01.04.01.09 0 .14 0 .04-.01.08-.02.11 0 0 0-.01-.01-.01a.41.41 0 00-.15-.2c-.07-.04-.09-.12-.1-.22 0-.1.02-.21.05-.32 0-.01 0-.02-.01-.02s-.02 0-.02.01c-.03.11-.06.23-.06.33s.03.19.11.24c.07.05.1.12.13.19.01.02.02.04.02.05.01.01.03.01.03 0 .02-.05.03-.11.04-.16.01-.05.01-.1 0-.15.01-.01.01-.02 0-.01zm-.45 1.47c-.02.04-.03.08-.04.12-.01.04-.02.08-.02.12 0 .01 0 .02.01.02.02 0 .02-.01.02-.02 0-.04.01-.08.02-.12.01-.04.02-.08.04-.12 0-.01.01-.02-.01-.02-.01 0-.01.01-.02.02zm.28-1.09c0-.01-.01-.01-.02-.01-.01.01-.01.01-.01.02l.03.06.03.06c0 .01.01.01.02.01.01-.01.01-.01.01-.02l-.03-.06-.03-.06zm-.33 1.33zm1.27-1.86c.02.12 0 .22-.05.31-.04.09-.12.17-.2.24-.01.01-.01.01 0 .02s.02.01.02 0c.09-.07.17-.15.21-.25.05-.09.07-.2.05-.33 0-.01 0-.02-.02-.01-.01 0-.01.01-.01.02zm-.64-1.33c0-.01-.01-.01-.02 0s-.01.02 0 .02c.06.08.09.16.09.24.01.08-.01.17-.06.26 0 .01-.01.01.01.02.01.01.02 0 .02-.01.05-.1.07-.19.06-.28a.528.528 0 00-.1-.25z"/><path fill="red" d="M111.46 51.64c.01-.04.01-.07-.01-.11.19.01.37 0 .52-.02-.17.12-.38.2-.6.24.05-.04.08-.07.09-.11zm-.52.11l-.01.01c.04 0 .09.01.13.01.09 0 .17 0 .25-.01-.02-.02-.01-.03.01-.04.05-.03.08-.06.09-.09.01-.03 0-.05-.02-.08 0 0 0-.01-.01-.01-.13-.01-.25-.02-.37-.04.02.04.02.08.02.11-.01.05-.04.09-.09.14zm-3.25-1.22zm.19.38h.03c.18-.02.35-.02.51.01.15.02.3.06.45.11.01 0 .01.01.02.01s.02.01.03.01c.01 0 .02.01.02.01.16.07.32.15.49.21.05.02.1.04.16.06.44.17.85.39 1.32.44 0 0-.01 0-.01-.01-.02-.02-.01-.03 0-.04.04-.04.06-.08.07-.12.01-.04 0-.08-.03-.11-.15-.03-.3-.07-.42-.11-.04-.02-.09-.03-.13-.05.01.04 0 .07-.01.11-.02.05-.08.1-.16.14-.01.01-.03.01-.04-.01-.01-.03 0-.03.01-.04.07-.03.11-.07.13-.11.02-.04.01-.08-.01-.12-.12-.06-.24-.13-.37-.19.01.05 0 .1-.03.14-.03.05-.09.09-.18.12-.01.01-.03.01-.04-.02-.01-.03 0-.03.02-.04.07-.03.12-.06.15-.1.03-.04.03-.08.02-.13v-.01s-.01 0-.01-.01c-.18-.1-.37-.18-.55-.28.01.04.02.07.01.11a.43.43 0 01-.11.21c-.01.01-.02.02-.04 0s-.01-.03 0-.04c.05-.06.09-.12.09-.17.01-.05-.01-.1-.05-.15l-.01-.01a1.53 1.53 0 00-.67-.19h-.06c.03.03.06.06.08.09.04.08.06.17.04.29 0 .02 0 .03-.03.03s-.03-.02-.03-.03c.02-.1 0-.19-.03-.25s-.09-.1-.16-.13c-.22-.01-.43 0-.65.03.07.04.12.08.15.13.03.03.04.12.03.21zm-.65.06a1.31 1.31 0 01.58-.07c.01-.08 0-.15-.03-.2a.439.439 0 00-.21-.15c-.22.04-.44.1-.66.19a.39.39 0 01.32.23zm-.31-.23zm2.67 1.13c.06-.04.1-.12.1-.25-.11-.08-.21-.16-.32-.23-.08-.08-.2-.15-.33-.21.03.1.04.18.02.26-.03.1-.1.18-.21.24-.01.01-.03.02-.04-.01-.01-.03 0-.03.01-.04.1-.06.16-.12.18-.21.02-.08.01-.17-.04-.28-.2-.08-.41-.13-.57-.16-.12-.02-.22-.02-.33-.02.1.07.17.15.2.23.04.11.01.22-.11.34l-.01.01c.34.01.67.11.96.27.06.03.12.07.18.11 0-.03.02-.03.03-.03.12.03.21.02.28-.02zm.52.1a3.27 3.27 0 00-.35-.3c-.01.13-.06.21-.13.26-.08.05-.18.05-.29.05.2.14.4.3.59.45 0-.03.02-.02.03-.02.09.01.16.01.21-.01.04-.01.07-.03.09-.05.02-.02.03-.05.04-.08 0-.03 0-.08-.01-.12l-.18-.18zm.82.82c.06-.02.1-.06.09-.13v-.02c-.08-.04-.16-.09-.24-.14-.15-.09-.29-.2-.43-.31v.07c-.01.05-.02.09-.05.12-.03.03-.07.05-.12.07a.48.48 0 01-.21.01c.14.11.28.21.43.3.06.04.13.07.19.11 0-.02.02-.02.03-.03.13-.01.24-.03.31-.05zm.4.31c.07-.03.13-.07.16-.11.02-.04.02-.08 0-.13-.14-.05-.27-.11-.4-.17 0 .08-.04.13-.13.17-.07.03-.18.04-.29.05.2.1.42.19.65.25-.02-.05 0-.05.01-.06zm.59.13zm-.02-.05c.08-.03.12-.07.15-.1.02-.03.03-.05.03-.08a2.11 2.11 0 01-.51-.12c.01.05.01.1-.02.14-.03.06-.1.1-.18.14.18.05.37.07.56.08-.01.01-.03.01-.04-.02-.02-.03-.01-.04.01-.04zm.91-.19c-.23.03-.46.03-.67.01 0 .04-.01.08-.04.11-.03.04-.09.08-.18.12.35.01.68-.04.97-.23.06-.04-.06-.01-.08-.01zm-2.59 7.66c-.14-.05-.3-.06-.46-.05-.03.03-.06.07-.09.12-.13.04-.24.11-.38.1 0 .09.03.13.12.13.17-.09.21-.1.22-.09.02.02-.02.14-.17.24-.02.01-.02.02-.01.04.12.19.43.12.6.08.12-.03.34-.17.4-.29.02-.05-.03-.13-.08-.19-.12.01-.17-.05-.15-.09zm-4.8-1.37l-.2-.02-.12-.07-.13-.11c-.1.08-.21.14-.33.18-.05.02-.16.04-.18.11 0 .02.08.07.13.04.14-.14.21-.06.05.08-.01.03 0 .06.03.08.15.13.51.17.67.07.12-.08.19-.16.08-.28-.01-.02 0-.05 0-.08zm2.67.9c.01 0 .02 0 .04-.01-.09-.03-.24-.06-.39-.07l-.03.03c-.08.02-.15.04-.22.07-.01 0-.06-.02-.07 0-.01.02.01.04.04.05h.01c.05 0 .1 0 .15-.01.05-.01.1-.02.15-.05.02-.01.03-.02.05.01.02.03 0 .04-.01.05-.06.03-.11.05-.17.06-.03.01-.07.01-.1.01 0 .07 0 .11.08.15.16.09.65.15.74-.06.02-.07 0-.12-.04-.15-.12-.03-.3-.01-.23-.08zm-1.69.03c-.05 0-.1 0-.15-.02a.636.636 0 01-.18-.06c-.01 0-.01-.01-.01-.02s.01-.01.01-.01l-.22-.05c-.03.02-.04.04-.06.09a.87.87 0 01-.28.19c-.09.04 0 .08.06.12.06.04.13-.05.18-.12.05-.08.1-.05.07.01-.04.07-.06.16-.07.21-.02.05.19.1.22.1.13.01.28-.12.38-.18.1-.08.08-.16.05-.26zm1.71-8.66c-.03-.03-.02-.04-.01-.05.1-.1.12-.19.09-.28-.03-.09-.12-.17-.25-.24-.13.02-.26-.02-.4-.01-.09.01-.18.03-.26.06.07.03.13.07.18.13.06.07.11.18.13.3 0 .02.01.03-.02.04-.03.01-.03-.01-.04-.02a.485.485 0 00-.12-.27c-.06-.08-.2-.12-.24-.14a2.4 2.4 0 00-.4.06c-.09.02-.17.06-.23.1.09-.02.19-.02.27.03.08.04.15.11.19.23.01.01.01.03-.02.04-.03.01-.03 0-.04-.02a.368.368 0 00-.16-.2c-.13-.06-.4-.01-.51.08-.07.05-.13.11-.2.19-.01.01-.01.02-.02.02.24.02.49.03.68.11h.1c.06.01.12.04.19.04.21-.08.39-.12.54-.12.18-.06.37-.08.55-.08zm-2.09-.02c.07-.08.14-.15.21-.2.07-.05.14-.09.21-.11.08-.08.19-.13.32-.17.13-.03.27-.05.41-.06a.334.334 0 00-.16-.17c-.07-.03-.15-.03-.23-.03-.17.06-.33.15-.48.26h.04c.04 0 .08 0 .12.01.02.01.03.01.02.04-.01.04-.11.01-.14.01-.04 0-.08 0-.13.01h-.02c-.16.1-.28.2-.4.3.1.03.17.07.22.12 0 .01.01 0 .01-.01z"/><g><path fill="none" d="M172 160V32c0-6.6-5.4-12-12-12H32c-6.6 0-12 5.4-12 12v128c0 6.6 5.4 12 12 12h128c6.6 0 12-5.4 12-12z" opacity=".4"/><path fill="none" d="M0 0v192h192V0H0z"/><path fill="#DFDFDF" d="M160 20c6.6 0 12 5.4 12 12v128c0 6.6-5.4 12-12 12H32c-6.6 0-12-5.4-12-12V32c0-6.6 5.4-12 12-12h128m0-8H32c-11.03 0-20 8.97-20 20v128c0 11.03 8.97 20 20 20h128c11.03 0 20-8.97 20-20V32c0-11.03-8.97-20-20-20z"/><path fill="#FFF" fill-opacity=".2" d="M160 20H32c-6.6 0-12 5.4-12 12v1c0-6.6 5.4-12 12-12h128c6.6 0 12 5.4 12 12v-1c0-6.6-5.4-12-12-12z"/><path fill="#212121" fill-opacity=".1" d="M160 172H32c-6.6 0-12-5.4-12-12v-1c0 6.6 5.4 12 12 12h128c6.6 0 12-5.4 12-12v1c0 6.6-5.4 12-12 12z"/><radialGradient id="a" cx="23.768" cy="23.933" r="204.625" gradientUnits="userSpaceOnUse"><stop offset="0" stop-color="#fff" stop-opacity=".1"/><stop offset="1" stop-color="#fff" stop-opacity="0"/></radialGradient><path fill="url(#a)" d="M160 172H32c-6.6 0-12-5.4-12-12V32c0-6.6 5.4-12 12-12h128c6.6 0 12 5.4 12 12v128c0 6.6-5.4 12-12 12z"/></g></svg>