<svg xmlns="http://www.w3.org/2000/svg" width="192" height="192"><path fill="#D21034" d="M160 20H32c-6.6 0-12 5.4-12 12v128c0 6.6 5.4 12 12 12h128c6.6 0 12-5.4 12-12V32c0-6.6-5.4-12-12-12z"/><path fill="#00209F" d="M160 20H32c-6.6 0-12 5.4-12 12v64h152V32c0-6.6-5.4-12-12-12z"/><path fill="#FFF" d="M62.12 69h67.75v53.94H62.12z"/><path fill="#016A16" d="M115.59 115.21c-.06 0-.11.02-.17.03.1-.06.18-.14.23-.24.02.09.05.17.11.24-.05-.01-.11-.03-.17-.03zm-44.28-.32c0 .1.09.18.19.18.11 0 .19-.08.19-.18 0-.1-.09-.18-.19-.18-.11-.01-.19.08-.19.18zm44.98.57c-.02 0-.04.01-.06.01-.06 0-.11-.02-.17-.03.07.09.12.19.12.31.01-.11.05-.2.11-.29zm-40.05-.45a.45.45 0 01-.11.23c.05-.02.11-.03.17-.03.06 0 .11.02.17.03a.512.512 0 01-.23-.23zm40.57-.06c-.01.1-.05.19-.11.27.02 0 .04-.01.06-.01.07 0 .13.02.19.04a.64.64 0 01-.14-.3zm-40.97.49c-.05.02-.11.03-.17.03-.02 0-.04-.01-.06-.01.06.08.1.18.11.29 0-.12.05-.22.12-.31zm-.9-.19c.06-.02.12-.04.19-.04.02 0 .04.01.06.01a.644.644 0 01-.11-.27c-.01.11-.06.22-.14.3zm55 .53V123H62.06v-7.58l.03-.02c.76-.53 1.55-1.04 2.21-1.08.74-.05 1.05-.12 1.81-.31.31-.08.7-.17 1.22-.29 1.02-.23 1.49-.55 1.98-.89.38-.26.77-.53 1.42-.77l.11.45.06-.02.06-.02-.11-.46c.17-.06.37-.12.58-.18l.24.52.12-.06-.23-.5c.12-.03.25-.06.39-.09l.39.35.02.02.98-.15-.1-.09c-.01-.01-.17-.15-.39-.34l.1-.03.58.31.06-.11-.46-.24c.23-.06.48-.13.73-.2l.7.3.03-.06.03-.06-.55-.24c.42-.12.87-.26 1.33-.4.65 1.87 2.48 3.22 4.64 3.22 2.19 0 4.04-1.39 4.67-3.3l.28.05.63 1.13.63.18 1.13 1.69.04.06.56-.42-.7-1.03 1.76.49v1.01c-.07.1-.21.15-.37.2-.13.05-.27.1-.37.18-.1.09-.14.21-.11.32.04.16.22.38.88.54l.7.02h.02c.68-.15 1.06-.36 1.08-.58.01-.09-.04-.22-.32-.33l-.08-.03c-.25-.09-.55-.2-.68-.33l.02-.72.29.01 2.45.68v.11c0 .07.02.14.06.21.01.01.01.03.02.04.04.06.09.12.16.18.02.01.04.03.06.04.03.02.06.05.09.07l.1.06v-.01c.17.1.39.18.63.26l.05.01c.02 0 .04.01.05.01.26.07.55.13.88.18h.01c.38.05.79.08 1.23.08.15 0 .3-.01.44-.01v.01h.07c.02 0 .05-.01.07-.01.27-.02.54-.04.78-.08l.06-.01c.46-.07.86-.18 1.18-.32v.01l.09-.04c.01-.01.02-.01.03-.02.05-.02.08-.05.12-.07.07-.04.13-.08.18-.11.03-.02.05-.04.08-.06.05-.05.1-.1.13-.15.01-.02.03-.03.04-.05a.42.42 0 00.06-.21v-.08l2.56-.71.29-.01.02.72c-.13.13-.43.24-.68.33l-.08.03c-.28.1-.33.23-.32.33.02.23.4.43 1.08.58h.01l.72-.03c.65-.16.83-.38.87-.54.03-.11-.01-.23-.11-.32s-.23-.13-.37-.18c-.15-.05-.3-.11-.37-.2v-1.01l1.77-.49-.67.98-.03.05.56.42 1.17-1.74.61-.17.03-.01.63-1.13.28-.05c.63 1.91 2.48 3.3 4.67 3.3 2.16 0 4-1.36 4.64-3.24.44.16.87.31 1.27.44l-.51.22.03.06.03.06.64-.28c.25.08.49.15.72.22l-.38.21.06.11.5-.27.12.03c-.19.17-.32.28-.33.29l-.09.09.98.15.35-.32c.15.03.28.07.41.1l-.2.43.12.06.21-.45c.22.07.42.13.59.2l-.09.37.06.02.06.02.08-.35c.5.21.84.44 1.17.67.49.34.96.66 1.98.89.77.17 1.33.34 1.8.5.01.22-.01.43-.07.62l.11.06c.09-.11.34-.38.53-.45.08.46.18 1.17.13 1.42l-4.62-1.95.04-.08c.08-.11.1-.24.04-.35-.06-.12-.19-.19-.34-.19-.14 0-.28.07-.4.21l-.08.12c-.34-.13-.76-.27-1.05-.27-.25 0-.33.11-.35.2-.09.3.2.61.84.91l-.09.13c-.14.25-.1.41-.05.5.06.11.19.17.34.17.18 0 .36-.09.49-.26l.12-.21 4.9 2.05c-.1.17-.31.62-.06.92l.02.02.91-.02-.01-.07c-.12-.96 1.01-1.22 1.06-1.23l.08-.02-.04-.07c-.1-.19-.24-.37-.4-.57-.24-.3-.5-.64-.66-1.09.08.03.17.06.26.09.58.2 1.34.48 2.16.92l.05.05zm-16.13-.13c0 .32.27.58.59.58.33 0 .59-.26.59-.58 0-.16-.07-.3-.17-.4.09.05.19.09.3.09.06 0 .11-.02.17-.03-.17.1-.29.28-.29.48 0 .32.27.58.59.58.32 0 .57-.24.59-.54.02.3.27.54.59.54.33 0 .59-.26.59-.58 0-.16-.07-.3-.17-.4.06.02.12.04.19.04.04 0 .08-.02.12-.02a.57.57 0 00-.14.35c0 .32.27.58.59.58s.59-.26.59-.58-.27-.58-.59-.58c-.04 0-.08.02-.12.02.08-.1.14-.22.14-.35 0-.32-.27-.58-.59-.58-.31 0-.56.23-.58.53a.572.572 0 00-.57-.47c-.24 0-.43.14-.53.33a.625.625 0 00-.1-.22c.03 0 .06.02.09.02.25 0 .46-.15.55-.35.09.2.3.34.54.34.33 0 .59-.26.59-.58 0-.32-.27-.58-.59-.58-.25 0-.46.15-.55.35-.09-.2-.3-.34-.54-.34-.33 0-.59.26-.59.58 0 .13.05.23.12.33-.03 0-.06-.02-.09-.02-.33 0-.59.26-.59.58 0 .16.07.3.17.4a.62.62 0 00-.3-.09.57.57 0 00-.6.57zm-2.82-.61c0 .32.27.58.59.58.33 0 .59-.26.59-.58s-.27-.58-.59-.58c-.33 0-.59.26-.59.58zm-1.83-.63c0 .32.27.58.59.58.33 0 .59-.26.59-.58s-.27-.58-.59-.58c-.32 0-.59.26-.59.58zm-.76.38c-.33 0-.59.26-.59.58 0 .32.27.58.59.58.33 0 .59-.26.59-.58.01-.32-.26-.58-.59-.58zm-3.02.21c.19.17.47.27.81.27.87 0 1.88-.61 2.06-1.62v-.04c-.04-.14-.24-.14-.31-.14-.18 0-.43.04-.66.09-.22.04-.43.08-.57.08-.1 0-.12-.02-.12-.02-.07-.07-.06-.17-.05-.24.04-.19.2-.39.38-.48l.77-.01v-.07c0-.03 0-.62-.22-.84a.274.274 0 00-.32-.06l-.44.37c-1.26.25-1.62.9-1.72 1.26-.18.59.08 1.17.39 1.45zm-8.11.97c0 .15.15.2.27.23.11.03.18.06.18.11 0 .03-.02.05-.11.08s-.22.08-.22.25c0 .14.17.22.33.22.13 0 .24-.05.31-.14.08.08.2.13.34.13.18 0 .39-.08.49-.23.11.1.26.15.42.15.18 0 .34-.08.46-.22.2.13.42.15.56.03.16.15.36.23.57.23.28 0 .54-.14.67-.38l.14.01c.19.24.41.29.56.29.25 0 .46-.13.57-.27.25.17.48.26.69.26.25 0 .45-.12.6-.24.19.2.42.32.65.32.23 0 .42-.12.51-.31.22.12.57.17.73.09.07-.04.11-.1.11-.17 0-.16-.16-.2-.29-.24-.11-.03-.18-.05-.18-.1s.08-.08.21-.12c.15-.04.34-.09.34-.28 0-.06-.03-.21-.3-.21-.25 0-.6.12-.74.29-.15-.12-.29-.18-.43-.18-.15 0-.27.07-.39.15-.04.02-.08.05-.12.07-.39-.54-.91-.6-1.44-.15-.12-.11-.3-.17-.51-.17-.3 0-.59.12-.75.3-.41-.37-.83-.37-1.21-.02-.08-.1-.17-.13-.23-.13-.08 0-.16.04-.24.11a.646.646 0 00-.53-.25c-.23 0-.47.09-.64.25a.364.364 0 00-.25-.1c-.16 0-.31.1-.48.21-.02.01-.04.03-.06.04a.537.537 0 00-.33-.12.21.21 0 00-.26.21zm-10.11-.43c-.13 0-.27.06-.43.18-.14-.17-.49-.29-.74-.29-.27 0-.3.14-.3.21 0 .19.19.24.34.28.13.03.21.06.21.12 0 .04-.07.07-.18.1-.13.04-.29.08-.29.24 0 .13.13.22.34.22.17 0 .37-.05.51-.13.09.2.28.31.51.31.23 0 .47-.12.65-.32.15.12.35.24.6.24.21 0 .44-.08.69-.26.11.14.33.27.57.27.15 0 .38-.05.56-.29l.14-.01c.13.23.38.38.67.38.21 0 .42-.08.58-.23.13.12.36.11.55-.03.12.14.28.22.46.22.15 0 .3-.06.42-.15.09.15.3.23.49.23.14 0 .26-.04.34-.13.06.09.17.14.31.14.16 0 .33-.08.33-.22 0-.17-.13-.22-.22-.25s-.11-.04-.11-.08c0-.05.07-.07.18-.11.12-.04.27-.08.27-.23 0-.14-.12-.23-.3-.23-.12 0-.24.04-.33.12l-.06-.04c-.18-.11-.33-.21-.49-.21-.09 0-.17.03-.25.1a.984.984 0 00-.64-.25c-.22 0-.41.09-.53.25-.08-.07-.16-.11-.24-.11-.06 0-.15.03-.23.13-.38-.35-.81-.35-1.21.02-.16-.18-.46-.3-.75-.3-.21 0-.39.06-.51.17-.53-.45-1.05-.4-1.44.15a.746.746 0 01-.12-.07.591.591 0 00-.35-.14zm-3.5-1.91v.02c.18 1.01 1.19 1.62 2.06 1.62.33 0 .62-.09.81-.27.31-.28.57-.85.4-1.44-.1-.36-.46-1.01-1.72-1.26l-.42-.36-.02-.01c-.12-.05-.24-.03-.32.06-.22.22-.22.82-.22.84v.07l.77.01c.18.09.34.29.38.48.02.07.02.17-.05.24 0 0-.02.02-.12.02-.14 0-.35-.04-.57-.08-.24-.04-.48-.09-.66-.09-.07 0-.26 0-.31.14l-.01.01zm-.76 1.74c0 .32.27.58.6.58.33 0 .59-.26.59-.58 0-.32-.27-.58-.59-.58-.33 0-.6.26-.6.58zm-1.35-.96c0 .32.27.58.6.58.33 0 .59-.26.59-.58s-.27-.58-.59-.58c-.34 0-.6.26-.6.58zm-1.83.63c0 .32.27.58.59.58.33 0 .6-.26.6-.58s-.27-.58-.6-.58c-.32 0-.59.26-.59.58zm-6.38.71c0 .32.27.58.6.58.33 0 .59-.26.59-.58 0-.14-.06-.25-.14-.35.04.01.08.02.12.02.07 0 .13-.02.19-.04-.1.1-.17.25-.17.4 0 .32.27.58.6.58.31 0 .57-.24.59-.54.02.3.27.54.59.54.33 0 .6-.26.6-.58 0-.21-.12-.38-.29-.48.05.02.11.03.17.03.11 0 .21-.04.3-.09-.1.1-.17.24-.17.4 0 .32.27.58.59.58.33 0 .6-.26.6-.58s-.27-.58-.6-.58a.62.62 0 00-.3.09c.1-.1.17-.24.17-.4 0-.32-.27-.58-.59-.58-.03 0-.06.01-.09.02.07-.09.12-.2.12-.33 0-.32-.27-.58-.6-.58-.24 0-.44.14-.54.34a.588.588 0 00-.55-.35c-.33 0-.6.26-.6.58 0 .32.27.58.6.58.24 0 .44-.14.54-.34.09.21.3.35.55.35.03 0 .06-.01.09-.02-.05.06-.08.14-.1.22-.1-.19-.3-.33-.53-.33-.29 0-.52.2-.57.47a.585.585 0 00-.58-.52c-.33 0-.59.26-.59.58 0 .14.06.25.14.35-.04-.01-.08-.02-.12-.02-.35 0-.62.26-.62.58zm-1.58 2.7c-.86 0-1.79-.04-2.75-.13l-.04.12 1.99 1.11-2.22.79.22.05c.98.23 2.03.35 3.11.35 3.65 0 6.96-1.33 8.41-2.01v.27l.04.02c.06.02 5.66 2.06 15.43 2.06 9.81 0 15.37-2.04 15.43-2.06l.04-.02v-.64h.79c2.06 1.35 4.78 2.09 7.67 2.09 1.18 0 2.36-.13 3.39-.37l.22-.05-2.32-.79 1.86-1.01-.03-.13c-.69.02-1.34.03-1.93.03-4.61 0-5.9-.61-7.15-1.2-.85-.4-1.72-.81-3.61-1.02-.54-.05-1.02.18-1.2.45h-.06l-.01.17c0 .01-.01.03-.01.04 0 .02 0 .03.01.05l-.02.7c-2.31.55-6.48 1.22-13.06 1.22-6.74 0-10.97-.71-13.24-1.27l-.03-.93-.11.01c-.08-.26-.43-.5-.97-.45-.63.05-1.23.35-1.98.72-1.54.79-3.63 1.83-7.87 1.83zm-1.33-4.72h-.04a.54.54 0 00-.39.24c-.12.2-.14.5-.04.81-.97.27-1.88.59-2.77.89-.83.29-1.62.56-2.42.78.05-.26.48-.81.79-1.15.16.12.3.47.35.6l.13-.02c.06-1.08 1.13-1.82 1.14-1.83l.14-.1-.17-.02c-.67-.09-2.71.68-2.97 1.04l-.09.12.15-.02s.35-.04.6-.04c.08 0 .13 0 .17.01-.31.34-1.48 1.65-1.55 2.1v.02l.01.02c.23.51 2.29.87 2.83.96-.12.13-.43.37-.7.56l-.12.09.14.03c.14.03.29.05.45.05 1.01 0 2.29-.61 2.73-1.03l.1-.1-.14-.01c-.01 0-1.23-.11-2.16-.87l-.1.08c.05.12.15.43.1.61-.51-.15-1.25-.4-1.5-.57.23-.07.82-.22 1.5-.4 1.12-.3 2.64-.7 3.61-.98.09.29.36.76.74.76.05 0 .1-.01.14-.02.27-.09.25-.52.16-.92.08.04.17.06.26.06.34 0 .61-.26.61-.59 0-.33-.28-.59-.61-.59-.2 0-.38.09-.49.24-.12-.41-.3-.81-.59-.81zm24.29-28.87v.08l.1.15h.14l.01-.04-.25-.19zm2.2.21l-.02.02h.03l-.01-.02zm-2.28 1.98l-1.28-1.32c.39-.73.47-1.74.55-2.81.11-1.41.23-3.01 1.11-4.2l-.11-.08c-.9 1.22-1.03 2.84-1.14 4.27-.08 1.04-.16 2.02-.52 2.72l-.05.05c-.19.2-.12 1.31-.07 1.88-.58-.98-.61-1.2-.48-2.68l.02-.2-.64.71a2.96 2.96 0 01.68-1.99l-.09-.09-.65.57c.31-.73 1.29-1.74 1.3-1.75l-.07-.11-1.33.59c.23-1.25 1.51-1.73 1.53-1.74l-.03-.13-.69.07 1.02-.76-.54-.16.92-1.74-.12-.06-.55 1.04-.59.21-.02.01-.01.01c-.12.14-.13.41-.12.59l-.42-.41-.04.09c-.22.51-.26.86-.12 1.05.05.06.11.1.16.12-.36.33-.32.53-.23.85l-.47-.36.09.92-.32-.02-.1 1.09-.26-.82-.08.07c-.15.13-.29.87-.36 1.32-.04-.15-.08-.28-.11-.39-.13-.46-.19-.68-.34-.71-.17-.03-.34.18-.81.77l-.04.05c0-1.51 2.12-4.72 4.57-5.65l-.05-.12c-1 .38-1.95 1.15-2.73 2.02l-.28-.25-.03.03c-.22.12-.38.56-.45.81l-.29-.64-.12.02-.05.79-.28-.64-.31.85-.06-.76-.08.02c-.26.07-.73 1.22-.88 1.6-.07-.12-.19-.47-.27-.79l-.05-.19-.37.85-.17-.59-.13.01-.12.66c-.17-.21-.32-.31-.46-.29-.11.01-.2.09-.29.24l-.05-.43-.13-.02-.27.69-.24-.75-.07.03c-.01 0-.25.1-.66.32 1.59-2.01 6.63-3.9 8.45-3.9h.05v-.13h-.05c-.31 0-.71.06-1.17.15l-.67-.01.04-.52-.71.65-.26-.57-.64.75-.18-.63-.81.92c-.36-.17-.88.08-1.05.17l-.43-.72-.45 1.05-.46-.37-.96 1.25-.13-1.16-.13-.01-.59 1.78-.37-1.01-.13.01-.16 1.32-.49-.98-.06.08c-.17.2-.6.7-.84.89.27-1.92 1.1-2.28 2.58-2.94.53-.24 1.13-.5 1.81-.88.01 0 1.06-.3 2.42-.38 1.26-.07 3.05.04 4.44.97l.07-.11c-1.42-.95-3.24-1.06-4.52-.99-1.15.07-2.07.29-2.36.36l.09-.44-1.23.52.2-.98-1.42 1.55.03-.87-1.02.83.39-.87-.1-.08-1.29.99.08-.89-.13.15c-.01.01-.73.82-1.48.7 1.17-1.91 4.51-2.03 6.42-1.93 3.26.17 6.41 1.15 6.71 1.83l.12-.05c-.18-.41-1.15-.85-2.46-1.22-.77-.54-1.98-1.16-2.94-1.08 0-.02.01-.04.01-.05.02-.1.05-.26-.1-.37l-.03-.02-.76.35c.04-.22.14-.7.35-.94l.11-.12-.16.01c-.1.01-.32.16-.67.4-.14.1-.33.23-.46.31.1-.15.26-.37.4-.49l.09-.07-.11-.04c-.17-.07-1.21.39-1.75.64.14-.21.36-.52.48-.68l.1-.13-.16.03c-.11.02-.23.07-.38.13-.28.11-.66.26-1.06.24 4.42-3.13 8.9.4 10.51 1.93l-.07 1.77v.03l.83.7.09-2.6c5.05-4.78 9.09-2.75 10.41-1.83-.4.03-.78-.12-1.06-.24-.15-.06-.28-.11-.38-.13l-.16-.03.1.13c.13.16.34.48.48.68-.54-.25-1.57-.71-1.75-.64l-.11.04.09.07c.14.12.3.33.4.49-.13-.08-.31-.21-.45-.3-.35-.24-.56-.39-.67-.4l-.16-.01.11.12c.21.24.31.72.35.94l-.76-.35-.03.02c-.15.11-.12.27-.1.37 0 .02.01.04.01.06-.97-.08-2.18.54-2.95 1.08-1.31.36-2.28.81-2.45 1.21l.12.05c.3-.68 3.45-1.66 6.7-1.83 1.91-.1 5.25.02 6.42 1.93-.76.12-1.47-.69-1.48-.7l-.13-.15.08.89-1.29-.99-.1.08.39.87-1.02-.83.03.87-1.42-1.55.2.98-1.23-.52.09.44c-.28-.07-1.2-.3-2.36-.36-1.28-.07-3.1.04-4.51.99l.07.11c1.39-.93 3.17-1.04 4.43-.97 1.36.08 2.41.38 2.41.38.69.39 1.29.65 1.82.89 1.48.66 2.31 1.03 2.58 2.94-.24-.19-.67-.69-.84-.89l-.06-.08-.49.98-.16-1.32-.13-.01-.37 1.01-.59-1.78-.13.01-.13 1.16-.92-1.2-.04-.05-.46.37-.45-1.05-.43.72c-.17-.09-.68-.34-1.05-.17l-.8-.92-.18.63-.64-.75-.26.57-.71-.65.04.52-.67.01c-.46-.1-.86-.15-1.16-.15h-.05v.13h.05c1.83 0 6.86 1.89 8.45 3.9-.4-.21-.64-.31-.66-.32l-.07-.03-.24.75-.27-.69-.13.02-.05.43c-.09-.15-.18-.23-.29-.24h-.03c-.13 0-.27.09-.43.29l-.12-.66-.13-.01-.17.59-.37-.85.05.18c-.08.31-.19.66-.27.79-.15-.39-.62-1.53-.88-1.6l-.08-.02-.06.76-.31-.85-.28.64-.05-.79-.12-.02-.29.64c-.08-.25-.23-.69-.45-.81l-.04-.02-.28.25c-.78-.87-1.72-1.64-2.73-2.02l-.05.12c2.45.94 4.57 4.14 4.57 5.65l-.04-.05c-.44-.54-.62-.77-.78-.77h-.03c-.15.03-.21.24-.34.71-.03.11-.07.24-.11.39-.07-.44-.21-1.18-.36-1.32l-.08-.07-.26.82-.1-1.09-.32.02.09-.92-.47.36c.09-.33.13-.53-.23-.85.06-.02.12-.05.16-.12.14-.19.1-.54-.12-1.05l-.04-.09-.42.41c.01-.18 0-.44-.12-.59l-.01-.01-.61-.21-.55-1.04-.12.06.92 1.74-.54.16 1.02.76-.69-.07-.03.13c.01 0 1.3.49 1.53 1.74l-1.33-.59-.07.11c.01.01.99 1.02 1.3 1.75l-.65-.57-.09.09c.01.01.72.8.68 1.99l-.64-.71.02.2c.14 1.48.1 1.7-.48 2.68.05-.57.12-1.68-.07-1.88l-.05-.05c-.36-.7-.44-1.68-.52-2.72-.11-1.43-.23-3.05-1.14-4.27l-.1.08c.88 1.19 1 2.79 1.11 4.2.08 1.07.16 2.08.55 2.81l-1.34 1.39.79-2.08-.12-.06c-.21.32-.75 1.01-1.19 1.26l-.04-.22 1-1.53-.1-.09-.91.74 1.28-1.91-1.3.4c.26-.36.83-1.23.77-1.84l-.01-.15-.82.89c.1-.36.24-.98.17-1.23l-.02-.06-.33.07.85-.98-.66-.13.07-.68-.44-.14.02-.7h-.13l-.03.8.44.14-.07.69.28.05.02.35-.69.8.59-.12c.03.31-.17 1.08-.26 1.36l.11.06.33-.36.03.6c-.22.36-.43.64-.43.64l-.13.16.59-.18.04.84-.34.46-.01-.04H95.3l-.55-.82.03-.54.85.26-.13-.16c-.01-.01-.42-.54-.67-1.1l.02-.41.58.63.11-.06c-.09-.29-.29-1.06-.26-1.36l.59.12-.93-1.07v-.03l.53-.1-.07-.69.44-.14-.03-.8h-.13l.02.7-.44.14.07.68-.66.13.85.98-.33-.07-.02.06c-.07.25.07.87.17 1.23l-.82-.89-.01.15c-.06.61.51 1.48.77 1.84l-1.3-.4 1.16 1.74h-.1l-.7-.57-.1.09.62.95-.08.36h.11l-.04.19c-.35-.31-.69-.77-.85-1l-.12.06.74 1.96.02.03zm3.56-9.52v.13h.22l.04-.13h-.26zm-4.5.14v-.13h-.26l.04.13h.22zM87.58 103c.06.05.12.09.17.15l.02-.04v-.02c0-.33-.39-.62-.93-.73l-.02.25c.36.06.64.21.76.39zm-2.63.08s0 .01 0 0l.03.06c.05-.05.11-.1.17-.14.12-.18.39-.32.73-.39l-.02-.25c-.53.11-.91.4-.91.72zm2.65 1.33v-.32c-.29.22-.73.36-1.24.36s-.95-.14-1.24-.36v.32c0 .54.21 1.02.52 1.31l.31.03.02-.16h.83l-.03.24.13.01c.42-.25.7-.8.7-1.43zm-.83-2.78h-.85l.2 2.11c.08.01.16.02.25.02s.17-.01.26-.02l.14-2.11zm1.01 1.87c0-.02 0-.05-.01-.07-.27.31-.8.51-1.41.51-.6 0-1.14-.2-1.4-.51 0 .03-.01.05-.01.08 0 .42.65.78 1.41.78.77-.01 1.42-.37 1.42-.79z"/><path fill="#503200" d="M81.51 104.78l-1.52-2.26.32-.17 1.82 2.68c-.2-.1-.41-.19-.62-.25zm3.41 4.33c0 .05.01.11.01.16 0 .18-.01.36-.03.53l2.55 3.8.35-.26-2.88-4.23zm-15.58-.07c.01-.01.02-.03.03-.04.04-.04.09-.08.15-.13l-3.53-2.92c-.02-.02-.08-.07-.13-.07-.03 0-.05.01-.08.04-.02.02-.03.05-.03.08 0 .06.06.12.08.14l3.51 2.9zm42.25-6.7l-1.82 2.68c.2-.09.41-.18.62-.24l1.52-2.26-.32-.18zm-4.58 7.47c-.02-.18-.03-.35-.03-.53 0-.06.01-.11.01-.16l-2.88 4.23.35.26 2.55-3.8zm15.52-.81c.01.01.02.03.03.04l3.51-2.9c.01-.01.13-.12.04-.21a.09.09 0 00-.08-.04c-.05 0-.11.05-.12.06l-3.54 2.93c.07.04.12.08.16.12z"/><path fill="#0A328C" d="M81.95 88.78c.22.07.44.13.67.16l6.11 6.78c-.34.08-.59.24-.75.49-.53.82.03 2.35.41 3.27l-8.16-6.12c-.03-.8.04-2.65 1.08-4.18.19-.25.35-.44.42-.48.06.03.14.05.22.08zm.58-1.93c-.22.11-.42.25-.56.37l.03.02c.01 0 .74.47 1.45.47.4 0 .72-.15.94-.43l.06.04c-.39-.42-.81-.63-1.25-.63a1.471 1.471 0 00-.67.16zm-3.55 3.38l.06-.05 2.16-2.01-.02-.28-.23.16-.11.08-2.24 1.61.48.83.05-.02c.03-.01.09-.05.16-.11l-.31-.21zm-2.49 2.02c-.07-.02-.14-.04-.21-.07-.07.07-.21.33-.36.67-.35 1.92.19 4.53.38 5.36l8.58 4.57c.13-.23.4-.42.76-.54-.23-.82-.33-1.7.02-2.33.17-.31.44-.53.8-.66l-8.73-6.81c-.08.02-.16.03-.24.03-.32-.01-.65-.11-1-.22zm-2.67 2.21l.03-.01-.03-.01v.02zm3.25-4.22c-.33.14-.61.37-.81.57l.03.01c.01 0 .67.32 1.33.32.47 0 .81-.17 1.02-.5-.32-.35-.67-.53-1.04-.53-.14 0-.27.03-.4.07-.04.02-.09.04-.13.06zm-1.41 1.71l-.08-.37-.02.02-.09.1-1.78 1.87.12.78 1.85-2.4zm9.31 11.99l-4.7-2.61.47.78-.31.17 1.94 2.85c.18.09.35.2.51.32l1.64.17c0-.37.06-.71.21-.98.07-.13.17-.24.28-.34v-.31a.176.176 0 01-.04-.05zm-12.23-6.08c-.05.09-.14.38-.22.75 0 1.19.49 2.3.74 2.52l.02.02v.03c.01.28-.02.52-.04.76-.06.63-.13 1.27.33 2.55l1.49.15.02-.36.66.43 2.34.24c.6-.25 1.26-.4 1.96-.4.45 0 .88.06 1.29.17l-1.44-2.15-.25.13-.82-1.38a.743.743 0 01-.09-.57c.03-.09.08-.16.14-.22l-4.72-2.63c-.15.07-.31.1-.5.1-.3.03-.61-.05-.91-.14zm2.89 9.36l-.18-.02-.03.25-.54-.07.01-.24-.41-.04c.22.42.49.8.78 1.12.09-.35.21-.69.37-1zm-2.44-11.35c-.24.21-.42.45-.55.65h.01s.32.07.72.07c.53 0 1.23-.13 1.59-.73l.05.02c-.3-.27-.61-.41-.93-.41-.3 0-.57.13-.8.31-.02.03-.06.06-.09.09zm-2.52 4.64l.04-.07 1.46-2.8-.11-.27-.09.11-.09.11-1.66 2.12.48.94.06-.05.05-.05-.14-.04zm39.51-11.8c-.08.02-.16.05-.23.07-.22.07-.44.13-.67.16l-6.11 6.78c.34.08.59.24.75.49.53.82-.03 2.34-.41 3.27l8.16-6.12c.03-.8-.04-2.65-1.08-4.18-.18-.24-.34-.43-.41-.47zm-1.74-1c.71 0 1.45-.46 1.45-.47l.03-.02c-.14-.13-.33-.27-.56-.37l-.12-.06c-.17-.07-.36-.11-.56-.11-.44 0-.86.21-1.25.63l.06-.04c.23.3.55.44.95.44zm2.5.34l-.23-.16-.02.28 2.22 2.06-.31.22c.08.06.14.1.16.11l.05.02.48-.83-2.25-1.61-.1-.09zm4.47 4.2c-.35.11-.68.21-.99.21-.08 0-.16-.01-.24-.03l-8.73 6.81c.36.13.63.35.8.66.42.76.18 1.91-.14 2.85.11.09.2.22.25.37l9.25-4.92c.19-.83.73-3.44.38-5.36-.15-.33-.3-.6-.36-.67-.08.03-.15.05-.22.08zm2.67 2.21v-.03l-.03.01.03.02zm-1.74-2.85l-.02-.02-.08.37 1.86 2.4.12-.78-1.78-1.87-.1-.1zm-2.06-.46c.65 0 1.32-.32 1.33-.32l.03-.01a2.353 2.353 0 00-.94-.62c-.13-.04-.26-.07-.4-.07-.37 0-.72.18-1.04.53.21.32.55.49 1.02.49zm-6.89 14.46l1.64-.17c.16-.11.33-.22.51-.32l1.94-2.85-.31-.17.47-.78-4.59 2.56c.2.3.34.65.36 1.03.01.1-.01.19-.04.27.01.14.02.28.02.43zm9.62 1.53l.01.24-.54.07-.03-.25-.18.02c.16.32.29.65.37 1 .3-.32.56-.69.79-1.12l-.42.04zm1.24-9.11c-.19 0-.35-.04-.5-.1l-4.72 2.63c.06.06.12.13.14.22.05.17.02.37-.08.57l-.82 1.38-.25-.13-1.44 2.15c.41-.11.84-.17 1.29-.17.7 0 1.36.14 1.96.4l2.34-.24.66-.43.02.36 1.49-.15c.46-1.28.39-1.93.33-2.55-.02-.24-.05-.49-.04-.76v-.03l.02-.02c.25-.22.73-1.33.74-2.52-.08-.37-.17-.66-.22-.76-.31.07-.63.15-.92.15zm.27-1.43c.4 0 .72-.07.72-.07h.01c-.13-.2-.31-.44-.55-.65a.444.444 0 00-.11-.08c-.23-.18-.5-.31-.8-.31-.31 0-.62.14-.93.41l.05-.02c.38.59 1.08.72 1.61.72zm1.41.87l-.09-.11-.11.27 1.5 2.87-.08.02-.07.02.05.05.06.05.48-.94-1.66-2.12-.08-.11zm-24.7-26.01l.04.01c.42.14.75.19 1.04.23.53.07.92.13 1.4.75.03.04.04.09.06.14 0-.89.09-1.11.14-1.26.03-.07.05-.13.04-.23-.03-.85-1.52-1.27-2.35-1.27-.19 0-.45.02-.55.14-.04.04-.05.09-.04.14.03.2.16.26.25.3.15.07.3.13-.15 1.16l-.01.01.03-.03.1-.09zm1.92 2.57c-.16-.19-.3-.36-.41-.5-.09-.11-.16-.2-.23-.28l-.03.81c.14.02.28.04.42.04.09 0 .18 0 .27-.01h.04l.02-.03-.04.03-.04-.06zm-1.47-.93c-.01 0-.01.01-.03.01-.19 0-.52-.12-1.08-.38l-.03-.01v.03c.09.38.7.79 1.11 1.02l.03-.67zm-2.36 35.51l-.11.8c.42.21 1.07.37 1.88.44l-.08-.62c-.87-.1-1.6-.3-1.69-.62zm2.75.65l-.11.62c.5 0 .95-.04 1.35-.11l-.03-.62c-.37.07-.79.1-1.21.11zm-.42-1.43l-.11-.64c-.18.01-.35.02-.51.04-.04.01-.09.01-.13.02-.24.03-.47.08-.68.14l-.01.61c.42-.1.93-.16 1.44-.17zm2.82.65l.6-.18c-.02-.03-.04-.07-.06-.1-.07-.09-.16-.18-.26-.26-.04-.03-.07-.06-.12-.09-.09-.06-.19-.11-.29-.17l-.04.58c.09.06.15.14.17.22zm-.38.46l.01.66c.42-.13.71-.29.87-.45l-.47-.58c-.02.14-.17.26-.41.37zm-5.3-.79c-.01.01-.02.03-.03.04l.55.3c.03-.11.13-.21.3-.3l-.08-.57c-.1.05-.19.1-.28.16-.04.02-.08.05-.12.07-.13.09-.25.19-.34.3zm3.66-.95l-.13.64c.48.02.95.08 1.33.17l.07-.58c-.27-.08-.58-.15-.91-.19-.04-.01-.08-.01-.13-.02-.07-.01-.15-.02-.23-.02zm-1.79 6.71v.94c.37.05.78.08 1.23.08.15 0 .3-.01.44-.01l-.01-.94h.06c.02 0 .04-.01.06-.01-.18.01-.36.02-.56.02-.43 0-.85-.03-1.22-.08zm2.65-.03l.01.94c.48-.08.88-.19 1.18-.32v-.93l.04-.02c.02-.01.03-.02.04-.02-.31.15-.75.28-1.28.36l.01-.01zm-4.37-.52c.03.02.06.05.09.07l.03.02-.02.92c.16.1.37.19.63.27l.01-.94.08.02.13.03c-.01 0-.01 0-.02-.01-.4-.09-.73-.23-.93-.38zm-.03-.02a.805.805 0 01-.16-.16c.04.05.1.1.16.16zm-.22-.34c0 .05.02.11.06.16-.03-.06-.06-.11-.06-.17v.01zm5.93.5c.09-.05.17-.09.24-.14-.07.04-.15.09-.24.14zm-4.49.31c.06.01.13.02.2.04-.07-.01-.13-.02-.2-.04zm4.84-.57c-.03.03-.05.07-.1.1.07-.05.12-.11.16-.17-.01.02-.04.05-.06.07zm.08-.09a.3.3 0 00.04-.08l.01-.04v-.05c0 .06-.02.11-.05.17z"/><path fill="#D20014" d="M88.58 99.64c-.34-.81-1.03-2.53-.5-3.36.15-.24.41-.38.75-.45l5.57 6.19.12 1.38v.13h.01l.06.61-6.01-4.5zM81.3 89.19c.19-.25.35-.44.42-.48.08.02.16.05.23.07.22.07.44.13.67.16.07.01.13.03.2.03h.01a1.263 1.263 0 00.66-.2c.37-.24.7-.7 1.02-1.43l-.05-.03-.06-.04c-.23.29-.54.43-.94.43-.71 0-1.45-.46-1.45-.47l-.03-.02h-.01l-.78.65v.01l.02.28-2.16 2.01-.06.05.31.22.94.66.02-.1c.03-.2.18-.5.37-.82.2-.34.45-.7.67-.98zm13.45 16.54l-1.19-.93c-.04 0-.07.01-.11.01l.03.21-.06.01.47 2.42c.08-.03.15-.06.23-.08l.11-.03v.05c.21-.06.44-.1.68-.14-.05-.38-.1-.9-.16-1.52zm-7.11-2.44c0 .01 0 0 0 0zm-1.87-1.79h1.13l-.05.68c.64.12 1.09.47 1.09.9 0 .07-.03.14-.05.21.03.07.05.14.05.21 0 .18-.08.34-.22.48v.32l5.29 2.82-.32-1.99-.09.01-.02-.19c-.36.14-.59.41-.78.64-.16.2-.29.35-.45.35-.03 0-.07-.01-.1-.02l-.03-.01-.01-.04c-.07-.41-.26-.7-.43-.96-.33-.5-.6-.9.32-1.74l.05-.05.04.06c.56.7.95.79 1.27.82l-.01-.05-5.9-4.61c-.37.12-.64.33-.8.63-.32.59-.23 1.44-.01 2.23.03-.01.06-.01.09-.02l-.06-.68zm-9.86-8.65c.16-.34.3-.6.36-.67.07.02.14.04.21.07.35.11.68.21.99.21.08 0 .16-.01.24-.03.05-.01.1-.03.15-.05.15-.06.29-.16.41-.31.03-.03.05-.07.08-.11.2-.3.35-.73.45-1.33l-.12-.04c-.01.02-.03.04-.04.06-.21.33-.55.5-1.02.5-.65 0-1.32-.32-1.33-.32l-.03-.01-.02-.01-.67.76v.01l.08.37-1.86 2.4-.04.05.05.02.03.01 1.45.62-.01-.11c-.04-.34.17-1.02.42-1.63.08-.15.15-.31.22-.46zm13.29 13.82c.08-.09.19-.15.31-.19l-.26-.15-.05.34zm-2.09-.8l1.21.12.03-.17-.85-.47c-.09.21-.23.39-.39.52zm3.49 1.35c0 .44-.37.8-.83.8-.3 0-.58-.16-.72-.41l-.23 1.49-1.02-.15.09-.52-1.12-.11 1.38 2.35.88.27v-.52-.13c-.01-.34-.03-.62.32-.76l-.01-1.19h.77l-.01.92c.37.02.96.27.99 1.17v1.13l1.5.46v-2.79h-.01l-.02-1.11-1.96-1.09c-.02.08 0 .13 0 .19zm-5.6-2.76c-.06.07-.12.15-.17.23-.14.26-.19.58-.19.93l.81.08c-.27-.31-.44-.75-.45-1.24zm-12.48-5.85c.08-.37.17-.66.22-.75.3.09.62.17.91.17.19 0 .35-.04.5-.1.05-.02.09-.05.13-.08.14-.09.26-.21.36-.37.02-.03.04-.08.06-.11.19-.34.31-.82.39-1.45l-.07-.02-.05-.02c-.36.6-1.06.73-1.59.73-.4 0-.72-.07-.72-.07h-.01l-.03-.01-.53.82-.02.03.11.27-1.46 2.8-.04.07.14.04 1.49.44-.02-.11c-.07-.35.01-1.08.13-1.74.02-.2.06-.37.1-.54zm30.55-2.77l-5.75 6.39c-.06.7-.13 1.4-.19 2.06l6.19-4.65c.34-.81 1.03-2.53.5-3.35-.16-.24-.41-.39-.75-.45zm5.46-7c.17.09.35.13.54.13h.01c.07 0 .13-.02.2-.03.22-.03.45-.09.67-.16.08-.03.16-.05.23-.07.07.04.23.23.42.48.22.29.47.65.68 1 .19.32.34.62.37.82l.02.1.94-.66.31-.22-2.22-2.06.02-.28v-.01l-.78-.65h-.01l-.03.02c-.01 0-.74.47-1.45.47-.4 0-.72-.15-.95-.43l-.06.04-.05.03c.32.73.65 1.19 1.02 1.43.04.01.08.03.12.05zm-3.92 15.11c-.27 0-.46-.16-.53-.45-.03-.12.01-.25.11-.38.19-.24.59-.45.87-.46l.79-.02c.05 0 .11.02.16.04.31-.91.53-2 .14-2.71-.17-.3-.44-.51-.8-.63l-5.9 4.61-.01.05c.32-.04.72-.12 1.28-.82l.04-.06.05.05c.92.84.66 1.24.32 1.74-.17.26-.36.55-.43.96l-.01.04-.03.01c-.03.01-.07.02-.1.02-.16 0-.29-.15-.45-.35-.19-.23-.43-.5-.78-.64l-.02.19-.09-.01-.32 1.99 5.93-3.16c0-.02.01-.04.01-.06-.03.01-.05.04-.08.04-.06.01-.11.01-.15.01zm-6.88 3.41l.1.03c.07.02.12.05.18.08l.48-2.44-.05-.01.03-.21c-.04 0-.07-.01-.11-.01l-1.38 1.08c-.06.55-.11 1.02-.15 1.36.33.04.63.1.91.19l-.01-.07zm15.89-15.29c.12.15.26.25.41.31.05.02.1.04.15.05.08.02.16.03.24.03.31 0 .64-.1.99-.21.07-.02.14-.04.21-.07.07.07.21.34.36.67.07.15.14.3.21.47.25.6.46 1.28.42 1.62l-.01.11 1.45-.62.03-.01.05-.02-.04-.05-1.86-2.4.08-.37v-.02l-.67-.76-.02.01-.03.01c-.01 0-.67.32-1.33.32-.47 0-.81-.17-1.02-.5-.01-.02-.03-.03-.04-.06l-.12.04c.1.59.25 1.03.45 1.33.04.05.07.09.09.12zm-10.92 14.6l-.05-.34-.26.15c.11.04.22.1.31.19zm.87-.67l1-.1c.08-.24.23-.49.3-.59-.02-.06-.03-.12-.05-.19l-1.28.71.03.17zm-4.34 2.87h.01v3.21l1.6-.5v-1.13c.02-.89.61-1.15.99-1.17l-.01-.92h.77v.07l-.01 1.13c.34.14.33.41.32.76v.64l.88-.27 1.38-2.35-1.12.11.09.52-1.02.15-.23-1.49c-.15.24-.42.41-.72.41-.46 0-.83-.36-.83-.8 0-.06.02-.11.03-.16l-2.19 1.22.1-.03-.04.6zm7.45-3.19l.57-.06c0-.09-.01-.17-.01-.25-.01.01-.01.02-.02.04-.14.14-.34.22-.54.27zm10.58-8.2c.1.16.22.28.36.37.04.03.09.05.13.08.15.07.31.1.5.1.3 0 .61-.08.91-.17.05.09.14.39.22.76.04.16.07.34.11.53.12.66.2 1.39.13 1.74l-.02.11 1.49-.44.07-.02.08-.02-1.5-2.87.11-.27-.55-.84-.03.01h-.01s-.32.07-.72.07c-.53 0-1.23-.13-1.59-.73l-.05.02-.07.02c.07.64.2 1.11.39 1.45 0 .02.02.07.04.1zM94.57 72.72c.56.26.89.38 1.08.38.01 0 .02-.01.03-.01.06 0 .1-.02.13-.04s.06-.05.08-.07c.05-.05.08-.08.21-.06.09.02.18.07.28.17.04.04.08.09.13.14.07.08.14.17.23.28.11.14.25.31.41.5l.04.04.04-.03c.42-.25.72-.95.54-1.45-.02-.05-.03-.1-.06-.14-.49-.62-.87-.67-1.4-.75a5.39 5.39 0 01-1.04-.23l-.04-.01-.09.09-.03.03c-.27.28-.68.73-.57 1.1l.01.02.02.04zm-28.8 33.54c-.37.08-1 .28-1.07.65-.04.23.09.53.22.79.07.15.14.31.15.39-.09.07-.63.16-1.07.24-1.03.18-1.49.28-1.53.44-.01.03-.01.08.05.13.12.09.67.13 1.13.13.47 0 2.01-.05 2.33-.66.08-.15-.07-.38-.19-.59-.04-.06-.09-.15-.11-.19.18-.05.71-.08 1.47-.08h.16l-1.54-1.25zm58.83 1.27h.16c.76 0 1.29.03 1.47.08-.02.04-.07.13-.11.19-.13.2-.27.44-.19.59.32.61 1.86.66 2.33.66.46 0 1.02-.04 1.13-.13.06-.05.06-.1.05-.13-.04-.17-.5-.26-1.53-.44-.44-.08-.98-.17-1.07-.24 0-.08.08-.24.15-.39.12-.26.26-.56.22-.79-.07-.37-.7-.57-1.07-.65l-1.54 1.25zm-30.36 4.81l-1.06-2.8-.48-.22v.73l1.2 3.7c.01 0 .01 0 .02.01.07.02.15.04.22.05.06.01.13.02.2.04l.17.03.98-2.9 1.06 2.98c.21-.01.41-.03.62-.06l.75-2.72 1.06 2.06c.02-.02.05-.04.06-.07 0-.01.01-.02.01-.02.03-.06.05-.11.05-.17v-1.15l-1.02-2.08-.05.01c-.18.05-.37.09-.57.13l-.65 2.43-.92-2.29h-.03c-.2 0-.42-.01-.68-.03l-.94 2.34zm12-9.16c-.07-.22-.25-.41-.4-.41l-.78.02c-.24.01-.6.2-.77.41-.05.07-.11.17-.08.27.07.27.24.39.52.34.05-.01.16-.11.25-.18.14-.12.25-.22.35-.23.11 0 .25.08.39.17.12.07.26.16.33.16.02 0 .02-.01.03-.01.23-.17.2-.41.16-.54z"/><path fill="#F1B517" d="M94.13 99.53l-1.78-7.35.18-.01-.18-.75.68-.02 1.09 4.59v.19c-.01.54-.02 1.03-.01 1.44.01.6.06 1.36.11 2.2l-.09-.29zm.13.78l-3.3-9.28-.58.04.43 1.07h-.47l2.46 6.62 1.46 1.55zm-2.4-2.57l-2.72-5.32-.51.11.54.97h-.24l1.02 2.2 1.91 2.04zm-9.03-8.77h-.01l11.56 12.85c-.04-.44-.07-.88-.1-1.3l-10.9-11.68c-.18.09-.36.13-.55.13zm-2.21-2.34l.08.09c.13-.12.28-.24.45-.36l-.11-.12.03-.63-2.38-1.51 1.06 2.38.87.15zm1.32-.63c-.88.48-1.38.99-1.79 1.47l.8.57.23-.16v-.01l.78-.65h.01c.14-.13.33-.27.56-.37l-.59-.85zm-4.08 6.38l14.63 11.42c.07-.19.29-.37.49-.37.15 0 .26.09.32.25l.05.39c.39 0 .83-.02.83-.02h.03l.42.57-.03-.3-16.33-12.25c-.12.15-.25.25-.41.31zm15.88 12.4l.98.77c-.03-.27-.05-.55-.08-.85l-.07.01s-.41.03-.83.07zM75.17 90.36l.09.08c.11-.14.24-.29.38-.43l-.13-.1-.09-.62-2.61-1.09 1.47 2.16h.89zm1.19-.84c-.78.62-1.18 1.21-1.49 1.75l.69.33.02-.02v-.01l.67-.76.02.01c.2-.21.48-.44.81-.57l-.72-.73zm8.73 13.77zm2.47 1.95l.82.46v-.03l.95.06-.06.46.44.24c.02 0 .04-.01.06-.01.33 0 .61.19.75.46l2.28 1.27c.09-.11.21-.21.35-.3l-.09-.57-5.32-2.83c-.02.28-.08.55-.18.79zm-2.78-1.74c0-.07.02-.14.04-.21a.537.537 0 01-.02-.4l-10.17-5.41c-.1.16-.22.28-.36.37l4.7 2.61c.01-.01.02-.02.03-.02.36-.19.66-.13.84.19l.29.48 4.69 2.61a.85.85 0 01-.04-.22zm-13.43-7.21l.11.06c.09-.16.19-.32.3-.48l-.15-.08-.19-.6-2.76-.68 1.8 1.91.89-.13zm1.84-.42l-.8-.59c-.67.73-.97 1.37-1.19 1.95l.78.24.09-.11.02-.03.53-.82.03.01c.12-.2.3-.44.54-.65zm24.38.97c.01.29.02.57.02.81 0 .73-.05 1.69-.12 2.73l.3-.85 1.78-7.36-.18-.01.18-.75-.68-.02-1.3 5.45zm.06 3.47l1.46-1.56 2.46-6.62h-.47l.43-1.07-.58-.04-3.3 9.29zm2.41-2.57l1.91-2.04 1.02-2.2h-.24l.54-.97-.51-.11-2.72 5.32zm8.49-8.9L97.45 100.7c-.03.43-.07.87-.11 1.31l11.74-13.04h-.01c-.2 0-.37-.04-.54-.13zm2.67-2.12l.08-.09.87-.16 1.06-2.38-2.38 1.51.03.63-.11.12c.16.13.31.25.45.37zm.54.76c-.4-.48-.91-.99-1.79-1.47l-.58.85c.22.11.42.25.56.37h.01l.78.65v.01l.23.16.79-.57zm1.88 4.59l-16.52 12.4c-.04.44-.09.85-.13 1.23l1.17-.92c-.41-.04-.83-.07-.83-.07l-.12-.01.47-.64h.03l.83.02.05-.38c.06-.17.18-.26.32-.26.2 0 .43.18.49.37l14.63-11.42c-.13-.07-.27-.17-.39-.32zm2.64-2.06c.14.15.27.29.38.43l.1-.08.89-.01 1.47-2.16-2.61 1.09-.09.62-.14.11zm.77 1.26c-.31-.54-.72-1.13-1.49-1.75l-.71.72c.33.14.61.37.81.57l.02-.01.67.76v.02l.02.02.68-.33zM99.01 108.2l2.37-1.32c.13-.27.42-.46.75-.46.02 0 .04.01.06.01l.44-.24-.07-.46.95-.06v.03l1.27-.71c-.05-.3-.04-.6 0-.87l-5.94 3.16-.11.66c.12.08.21.17.28.26zm18.25-10.72l-10.87 5.78c.2.12.4.3.56.52l4.81-2.68.29-.48c.19-.31.48-.38.84-.19.01.01.02.02.03.02l4.7-2.61c-.14-.08-.26-.2-.36-.36zm2.88-1.61c.11.17.22.33.3.48l.11-.06.88.12 1.8-1.91-2.76.68-.19.6-.14.09zm.56 1.36c-.22-.58-.52-1.22-1.19-1.95l-.8.59c.23.21.42.45.55.65l.03-.01.55.84.09.11.77-.23zm-23.29-1.01h-3.16c-.01.52-.01 1 0 1.4v.02h3.21c0-.4-.02-.89-.05-1.42zm-.1-1.66c-.04-.48-.08-.96-.12-1.42h-2.82c-.02.46-.05.94-.07 1.42h3.01zm-.26-2.95v.14h-2.6c-.02.39-.05.82-.07 1.27h2.8c-.1-1.15-.2-2.17-.26-2.7h-2.38c-.02.3-.05.75-.08 1.3h2.59zm-2.8 4.48h3.16c-.02-.45-.06-.92-.09-1.4H94.3c-.02.48-.04.96-.05 1.4zm.4 7.32h2.43c.04-.46.09-.94.13-1.41h-2.67v-.14h2.69c.04-.48.08-.95.11-1.41h-2.92v-.13h2.93c.03-.45.06-.87.08-1.28h-3.11c.07 1.32.2 2.9.33 4.37zm.28 2.88v.02c-.08-.75-.17-1.72-.27-2.76h2.4c-.1 1-.19 1.94-.28 2.68h-1.86v.06h.01zm-.12-1.33h2.11v-.13h-2.11v.13zm.73 2.23l-.01-.09.17-.01c.2-.01.4-.01.68.01l.09.01-.02.08c.08.01.15.01.23.02.03-.23.06-.53.1-.87h-1.84c.03.34.07.64.09.88.17-.01.34-.03.51-.03zm-1.29-9.42c.01.34.03.73.05 1.15h3.12c.02-.42.03-.81.03-1.15h-3.2zm2.84-7.6l-.24-1.4h-2.1l-.33 1.4h2.67zm-.12-1.53l-.35-1.42h-1.64l-.37 1.42h2.36zm-.5-2.86h-1.42l-.28 1.31h1.95l-.25-1.31zm.08-.13l-.1-.56h-1.37l-.12.56h1.59zm-.45-12.71c-.13-.02-.17 0-.21.06-.02.02-.04.05-.08.07l-.17 4.37.58.49.16-4.81c-.1-.11-.19-.17-.28-.18zM85.77 101.5l.06.68.02.17.02.25.11 1.12c.04.01.09.01.13.01l-.2-2.11h.85l-.14 2.11c.04 0 .09-.01.13-.01l.08-1.13.02-.25.01-.17.05-.68h-1.14zm-.07 10.27l.43.12-1.27-1.89a3.9 3.9 0 01-.13.57l.33.06.64 1.14zm3.33-.67l-.96-.3-.01-.02-1.44-2.46-.11-.01-.02.13-.92.03.04-.25-.83-.08c.06.24.11.48.13.73l2.25 3.31 1.88.52-.01-1.6zm3.53 1.82v-.72l-1.5-.46v.5c-.01.36-.3.78-.52.89l2.02.56v-.77zm-17.09-5.85l.23.02a4.94 4.94 0 012.14-2.03l-2.08-.21-.29 2.22zm-.57-.06l.14-2.23-1.87-.19-.35 2.21 2.08.21zm8.19-1.41c.79.61 1.37 1.44 1.65 2.4l.89.09.31-2.2-2.85-.29zm3.68.37l-.25 2.21 1.4.14.39-2.19-1.54-.16zm-13.67-1.78l-.6-.23-.4 3.09h.55l.45-2.86zm1.91 3.07l.29.03.33-2.49-.45-.29-.17 2.75zm10.71 1.08l.65-.02.3-2.59h-.57l-.38 2.61zm2.24.51l.76.11.24-1.61h.13c.07.31.35.54.68.54.39 0 .7-.3.7-.67 0-.37-.31-.67-.7-.67-.28 0-.51.17-.61.45l-.13-.03.16-1.12-.69-.04-.54 3.04zm-7.93 4.09c2.09 0 3.8-1.64 3.8-3.66s-1.7-3.66-3.8-3.66c-2.09 0-3.8 1.64-3.8 3.66s1.71 3.66 3.8 3.66zm3.64-.71l-.65-.51c-.72.82-1.8 1.35-3 1.35-.87 0-1.68-.28-2.33-.75l-.56.6c.8.59 1.8.95 2.89.95 1.47 0 2.78-.64 3.65-1.64zm-6.63.62l.56-.6c-.91-.7-1.49-1.77-1.49-2.97 0-.88.31-1.69.83-2.33l-.66-.49c-.63.78-1.01 1.76-1.01 2.82 0 1.44.69 2.72 1.77 3.57zm2.99-8.17c-1.47 0-2.79.65-3.67 1.67l.66.49c.72-.83 1.8-1.36 3.01-1.36.9 0 1.73.3 2.4.79l.57-.59c-.81-.62-1.85-1-2.97-1zm4.76 4.6c0-1.4-.66-2.66-1.69-3.5l-.57.58c.87.7 1.43 1.75 1.43 2.92 0 .89-.32 1.7-.85 2.35l.64.51a4.48 4.48 0 001.04-2.86zm8.75-1.66l-.01-.04.06-.03c.05-.02.12-.04.17-.06l-.48-2.45-.45.06.43 2.67c.09-.05.17-.1.28-.15zm-3.55 2.29c-.13 0-.46.3-.47.56v.71c.03.3.25 1.1.6 1.15.07.01.17-.05.25-.16.08-.1.13-.23.13-.33l-.01-1.45c0-.11-.06-.2-.12-.26-.12-.14-.3-.22-.38-.22v-.07.07zm-.3 3.08l-.03.9.02.02c.14.16.46.28.75.39l.08.03c.16.06.24.13.24.19-.01.12-.27.31-.97.46l-.68-.02c-.64-.16-.76-.36-.78-.44-.02-.09.04-.16.07-.19.08-.07.2-.11.32-.16.17-.06.36-.13.44-.27l.01-.02-.01-3.44v-.13c-.02-.38-.01-.55.27-.64l.04-.01-.01-1.15h.5l-.01.93h.1c.09 0 .87.03.89 1.04v1.77c-.01.37-.35.79-.48.79l-.76-.05zm.41-.53h.04c.11 0 .24-.07.34-.21.1-.13.16-.28.16-.41l-.01-1.45a.52.52 0 00-.15-.35c-.13-.14-.34-.26-.48-.27h-.01c-.2 0-.58.36-.6.69v.72c.02.2.22 1.2.71 1.28zm-20.99-2.89l.73.03 2.57 2.35.65-.1c-.42-.36-1.99-1.73-2.87-2.49l-.02-.01-.18-.67c-.13.09-.41.29-.53.4-.11.12-.27.36-.35.49zm13.92 5.8c0 .25.21.45.46.45.26 0 .46-.2.46-.45s-.21-.45-.46-.45-.46.2-.46.45zm-1.35-.96c0 .25.21.45.46.45.26 0 .46-.2.46-.45s-.21-.45-.46-.45-.46.2-.46.45zm-1.36 1.07c.26 0 .46-.2.46-.45s-.21-.45-.46-.45c-.26 0-.46.2-.46.45-.01.25.2.45.46.45zm-2.36.17c0-.25-.21-.45-.46-.45-.26 0-.46.2-.46.45s.21.45.46.45c.25-.01.46-.21.46-.45zm-1.19.14c0-.25-.21-.45-.46-.45-.26 0-.46.2-.46.45s.21.45.46.45c.25-.01.46-.21.46-.45zm-1.64-.45c-.26 0-.46.2-.46.45s.21.45.46.45a.45.45 0 100-.9zm-1.66.41c0 .25.21.45.46.45.26 0 .46-.2.46-.45s-.21-.45-.46-.45-.46.21-.46.45zm1.04-.46c.26 0 .46-.2.46-.45s-.21-.45-.46-.45c-.26 0-.46.2-.46.45s.21.45.46.45zm1.16.05c.26 0 .46-.2.46-.45s-.21-.45-.46-.45c-.26 0-.46.2-.46.45s.21.45.46.45zm1.1-.14c.26 0 .46-.2.46-.45s-.21-.45-.46-.45c-.26 0-.46.2-.46.45s.21.45.46.45zm-.09-1.33c0-.25-.21-.45-.46-.45-.26 0-.46.2-.46.45s.21.45.46.45.46-.2.46-.45zm-1.55-.47c-.26 0-.46.2-.46.45s.21.45.46.45c.26 0 .46-.2.46-.45 0-.24-.2-.45-.46-.45zm14.54 2.89c.15 0 .27-.1.27-.22s-.12-.22-.27-.22-.27.1-.27.22.12.22.27.22zm1.35 0c.15 0 .27-.08.27-.16s-.13-.16-.27-.16c-.15 0-.27.07-.27.16s.12.16.27.16zm.8-.05c.07 0 .13-.05.13-.1 0-.06-.06-.1-.13-.1s-.13.05-.13.1.06.1.13.1zm.79.03c.13 0 .23-.09.23-.19s-.1-.19-.23-.19-.23.09-.23.19.1.19.23.19zm-5.42 0c.14 0 .25-.06.25-.12s-.11-.12-.25-.12-.25.06-.25.12.11.12.25.12zm-.43-.4c.15-.13.28-.2.4-.2.11 0 .21.06.32.13.06.03.12.07.18.1l.05.02.03-.05c.36-.54.82-.58 1.32-.13l.05.04.04-.05c.1-.11.26-.17.46-.17.29 0 .57.12.69.3l.04.06.05-.05c.39-.39.77-.39 1.14-.01l.06.06.04-.08c.03-.06.09-.13.16-.13.06 0 .13.05.2.13l.06.08.05-.09c.12-.21.32-.26.46-.26.22 0 .45.1.59.25l.05.05.05-.05c.17-.19.36-.08.61.09l.14.09.04-.03a.43.43 0 01.28-.11c.08 0 .16.03.16.1 0 .05-.07.07-.18.11-.12.04-.27.08-.27.23 0 .13.11.17.19.2.1.03.13.05.13.12 0 .04-.09.09-.2.09-.05 0-.2-.01-.23-.15l-.04-.16-.08.15c-.07.14-.23.15-.3.15-.19 0-.37-.1-.4-.23l-.03-.13-.09.11c-.09.11-.24.18-.39.18-.16 0-.3-.08-.4-.22l-.04-.06-.05.04c-.18.14-.38.16-.47.04l-.05-.07-.06.06a.73.73 0 01-.53.24c-.25 0-.47-.13-.57-.34l-.02-.04-.28.01-.02.03c-.16.22-.35.26-.48.26-.23 0-.43-.14-.5-.26l-.04-.06-.06.04c-.25.18-.47.27-.67.27-.19 0-.36-.08-.57-.25l-.05-.04-.04.05c-.17.2-.38.32-.6.32a.42.42 0 01-.42-.3l-.03-.09-.07.05c-.12.09-.33.15-.5.15-.1 0-.21-.02-.21-.09 0-.06.08-.08.19-.11.12-.03.27-.08.27-.22 0-.16-.17-.2-.31-.24-.15-.04-.24-.07-.24-.15 0-.07.1-.08.17-.08.25 0 .6.15.66.28l.04.08.12-.06zm6.49.33c0 .17.13.3.28.3.16 0 .28-.14.28-.3 0-.17-.13-.3-.28-.3-.15 0-.28.14-.28.3zm-1-.12c0 .18.16.32.36.32s.36-.14.36-.32-.16-.32-.36-.32-.36.14-.36.32zm-.68.06c0 .13.12.23.26.23s.26-.1.26-.23-.12-.23-.26-.23c-.15 0-.26.1-.26.23zm-.95-.01c0 .16.18.29.4.29.23 0 .4-.13.4-.29s-.18-.29-.4-.29c-.23 0-.4.13-.4.29zm-1.35-.06c0 .19.18.35.4.35s.4-.16.4-.35-.18-.35-.4-.35-.4.16-.4.35zm-1.28-.08c0 .16.19.29.44.29s.44-.13.44-.29-.19-.29-.44-.29-.44.13-.44.29zm-1.18.16c0 .14.17.25.38.25s.38-.11.38-.25-.17-.25-.38-.25-.38.1-.38.25zm1.62 0c.18 0 .31-.08.31-.16s-.13-.16-.31-.16-.31.08-.31.16.12.16.31.16zm5.1.23c.08 0 .15-.08.15-.17 0-.09-.07-.17-.15-.17-.08 0-.15.08-.15.17 0 .09.07.17.15.17zm13.31-5.75l.33-.06c-.05-.19-.1-.38-.13-.57l-1.27 1.89.43-.12.64-1.14zm.16-1.77c.02-.25.07-.49.13-.73l-.83.08.04.25-.92-.03-.02-.13-.11.01-1.45 2.48-.02.01-.94.29-.01 1.6 1.88-.52 2.25-3.31zm-5.64 4.26c-.22-.11-.51-.53-.52-.88v-.5l-1.6.5v1.48l2.12-.6zm14.84-6.03l.23-.02-.29-2.22-2.08.21c.92.45 1.67 1.16 2.14 2.03zm.66-2.31l.14 2.23 2.08-.21-.35-2.21-1.87.19zm-10.89 1.21l.3 2.1.89-.09c.28-.96.86-1.8 1.65-2.4l-2.72.28c-.03.03-.07.07-.12.11zm-2.37.14l.39 2.19 1.4-.14-.21-1.83c-.12.03-.25.05-.37.05h-.02c-.13 0-.2-.06-.23-.12-.04-.07-.04-.16-.02-.26l-.94.11zm15.65.93h.55l-.4-3.09-.6.23.45 2.86zm-2.54-2.54l-.45.29.33 2.49.29-.03-.17-2.75zm-11.18 3.8l.65.02-.32-2.26c-.16.1-.35.18-.56.24l.23 2zm-4.1-1.1c0 .37.31.67.7.67.33 0 .62-.23.69-.54h.13l.24 1.61.76-.11-.54-3.05-.69.04.16 1.12-.13.03c-.1-.28-.33-.45-.61-.45-.4.01-.71.31-.71.68zm12.77 5.11c-.65.47-1.46.75-2.33.75-1.2 0-2.28-.52-3-1.35l-.65.51c.87 1 2.18 1.64 3.64 1.64 1.09 0 2.09-.36 2.89-.95l-.55-.6zm-6.06-.2l.64-.51a3.69 3.69 0 01-.85-2.34c0-1.17.56-2.23 1.43-2.92l-.57-.58c-1.03.84-1.69 2.1-1.69 3.5 0 1.08.39 2.07 1.04 2.85zm8.49-2.85c0-1.06-.38-2.04-1.01-2.82l-.65.49c.52.64.83 1.45.83 2.33 0 1.2-.58 2.27-1.49 2.97l.56.6c1.07-.85 1.76-2.13 1.76-3.57zm-4.76-4.6c-1.12 0-2.15.38-2.97 1.01l.57.59c.66-.5 1.49-.79 2.4-.79 1.21 0 2.29.53 3.01 1.36l.66-.49a4.814 4.814 0 00-3.67-1.68zm0 .94c-2.09 0-3.8 1.64-3.8 3.66s1.7 3.66 3.8 3.66c2.1 0 3.8-1.64 3.8-3.66s-1.71-3.66-3.8-3.66zm-13.24 2.23l.44-2.74-.45-.06-.49 2.48c.05.02.11.04.16.07l.05.02-.01.07c.11.04.21.1.3.16zm4.1 6.01v.02l.01.02c.09.15.27.21.44.27.13.04.25.09.32.16.04.03.1.1.07.19-.02.08-.13.28-.76.44l-.69.02c-.7-.15-.96-.35-.97-.46 0-.07.08-.14.24-.19l.08-.03c.28-.1.61-.22.75-.39l.02-.02-.03-.9-.75.03c-.13 0-.47-.42-.49-.78v-1.77c.03-1.01.8-1.04.89-1.04h.1l-.01-.93h.5l-.01 1.15.04.01c.28.1.29.27.27.64v.13l-.02 3.43zm-.97-1.4h.04c.5-.08.69-1.08.71-1.28v-.72c-.01-.32-.4-.68-.6-.68h-.01c-.13.01-.34.13-.48.27-.1.11-.16.23-.15.35l-.01 1.46c0 .27.27.6.5.6zm.15-2.55c-.08 0-.26.09-.39.23-.05.06-.12.15-.12.25l-.01 1.46c0 .23.22.49.37.49h.02c.35-.06.57-.85.6-1.16v-.71c-.01-.26-.34-.56-.47-.56v-.07.07zm16.94 1.95l.65.1 2.57-2.35h.02l.7-.03c-.08-.13-.24-.37-.35-.48-.12-.11-.39-.31-.53-.4l-.18.67-.02.01c-.87.75-2.44 2.12-2.86 2.48zm-10.45 3.96c.26 0 .46-.2.46-.45s-.21-.45-.46-.45c-.26 0-.46.2-.46.45s.21.45.46.45zm.89-1.41c0 .25.21.45.46.45.26 0 .46-.2.46-.45s-.21-.45-.46-.45-.46.2-.46.45zm1.83.63c0 .25.21.45.46.45.26 0 .46-.2.46-.45s-.21-.45-.46-.45-.46.2-.46.45zm3.28 1.05c.26 0 .46-.2.46-.45s-.21-.45-.46-.45c-.26 0-.46.2-.46.45s.21.45.46.45zm1.66-.3c0-.25-.21-.45-.46-.45-.26 0-.46.2-.46.45s.21.45.46.45c.25-.01.46-.21.46-.45zm.71-.45c-.26 0-.46.2-.46.45s.21.45.46.45a.45.45 0 100-.9zm.73.41c0 .25.21.45.46.45.26 0 .46-.2.46-.45s-.21-.45-.46-.45-.46.21-.46.45zm-.12-.46c.26 0 .46-.2.46-.45s-.21-.45-.46-.45c-.26 0-.46.2-.46.45s.21.45.46.45zm-1.62-.39c0 .25.21.45.46.45.26 0 .46-.2.46-.45s-.21-.45-.46-.45-.46.2-.46.45zm-1.1-.14c0 .25.21.45.46.45.26 0 .46-.2.46-.45s-.21-.45-.46-.45-.46.2-.46.45zm1.02-.44c.26 0 .46-.2.46-.45s-.21-.45-.46-.45c-.26 0-.46.2-.46.45s.21.45.46.45zm.62-.47c0 .25.21.45.46.45.26 0 .46-.2.46-.45s-.21-.45-.46-.45-.46.21-.46.45zm-14.33 2.22c0 .12.12.22.27.22s.27-.1.27-.22-.12-.22-.27-.22-.27.1-.27.22zm2.74.2c.14 0 .25-.06.25-.12s-.11-.12-.25-.12-.25.06-.25.12.11.12.25.12zm-6.34.11c.08 0 .15-.08.15-.17 0-.09-.07-.17-.15-.17-.08 0-.15.08-.15.17 0 .09.06.17.15.17zm-.97-.41c0-.08.09-.1.17-.1.1 0 .2.04.28.11l.04.03.04-.03c.03-.02.07-.04.1-.06.25-.16.44-.27.61-.08l.05.05.05-.05a.84.84 0 01.59-.25c.15 0 .34.04.46.26l.05.09.06-.08c.06-.08.14-.13.2-.13.07 0 .13.07.16.13l.04.08.06-.06c.36-.37.75-.37 1.14.01l.06.05.04-.06c.13-.18.41-.3.69-.3.2 0 .36.06.46.17l.04.05.05-.04c.5-.45.96-.41 1.32.13l.03.05.05-.02c.06-.03.12-.06.18-.1.11-.06.21-.13.32-.13.12 0 .25.07.4.2l.07.06.04-.08c.06-.13.41-.28.66-.28.06 0 .17.01.17.08 0 .08-.09.11-.24.15-.14.04-.31.08-.31.24 0 .15.15.19.27.22.12.03.19.06.19.11 0 .01 0 .03-.04.06a.38.38 0 01-.16.03c-.17 0-.38-.06-.5-.15l-.07-.05-.03.09c-.06.19-.21.3-.42.3s-.43-.12-.6-.32l-.04-.05-.05.04c-.21.18-.38.25-.57.25-.2 0-.42-.09-.67-.27l-.06-.04-.04.06c-.07.13-.27.26-.5.26a.6.6 0 01-.48-.26l-.02-.03-.28-.01-.02.04c-.1.21-.32.34-.57.34-.2 0-.39-.08-.53-.24l-.06-.06-.05.07c-.05.07-.12.09-.17.09-.09 0-.2-.04-.3-.12l-.05-.04-.04.06c-.1.14-.24.22-.4.22-.15 0-.3-.07-.39-.18l-.09-.11-.03.13c-.03.13-.2.23-.4.23-.07 0-.23-.01-.3-.15l-.08-.15-.04.16c-.04.14-.19.15-.23.15-.11 0-.2-.05-.2-.09 0-.07.04-.09.13-.12.08-.03.19-.07.19-.2 0-.15-.15-.2-.27-.23-.1-.06-.16-.08-.16-.13zm6.94.18c0 .14.16.25.38.25.21 0 .38-.11.38-.25s-.16-.25-.38-.25c-.22-.01-.38.1-.38.25zm-1.31-.16c0 .16.19.29.44.29s.44-.13.44-.29-.19-.29-.44-.29-.44.13-.44.29zm-1.19.08c0 .19.18.35.4.35s.4-.16.4-.35-.18-.35-.4-.35-.4.16-.4.35zm-1.37.06c0 .16.18.29.4.29.23 0 .4-.13.4-.29s-.18-.29-.4-.29c-.22 0-.4.13-.4.29zm-.65.01c0 .13.12.23.26.23s.26-.1.26-.23-.11-.23-.26-.23c-.15 0-.26.1-.26.23zm-.89-.06c0 .18.16.32.36.32.2 0 .36-.14.36-.32s-.16-.32-.36-.32c-.2 0-.36.14-.36.32zm-.84.12c0 .17.13.3.28.3.16 0 .28-.14.28-.3 0-.17-.13-.3-.28-.3-.16 0-.28.14-.28.3zm5.38-.05c.18 0 .31-.08.31-.16s-.13-.16-.31-.16-.31.08-.31.16.13.16.31.16zm-4.18.12c.13 0 .23-.09.23-.19s-.1-.19-.23-.19-.23.09-.23.19.1.19.23.19zm.79-.03c.07 0 .13-.05.13-.1 0-.06-.06-.1-.13-.1s-.13.05-.13.1.06.1.13.1zm.8.05c.15 0 .27-.07.27-.16s-.13-.16-.27-.16c-.15 0-.27.07-.27.16s.12.16.27.16zm-6.38-2.41c.04.01.07.01.1.02l.05.01a9.184 9.184 0 001.79.06c.03 0 .06-.01.09-.01l-1.06-2.98-.97 2.9zm2.97-3.99c-.02 0-.04.01-.06.01l-.09.02v-.02c-.42.07-.88.1-1.38.11v.02h-.04l.92 2.29.65-2.43zm1.63-.58l-.05-.06c-.19.19-.52.36-.95.49v.02h-.01l1.02 2.08v-2.53zm-5.21 4.44l-1.2-3.7v2.93c0 .06.02.11.06.17 0 .01.01.01.01.02.04.06.09.11.16.16.01.01.02.01.03.02.19.16.52.3.94.4zm4.02-2.57l-.75 2.72c.02 0 .05 0 .07-.01l.06-.01c.53-.08.97-.21 1.28-.36.02-.01.03-.02.04-.02.09-.05.17-.09.24-.14.01 0 .01-.01.02-.01.04-.03.07-.07.1-.1l-1.06-2.07zm-4.72-1.64l-.01.01 1.06 2.8.94-2.35h-.07v-.02c-.8-.07-1.47-.22-1.92-.44zm3.99 5.3l-.01-.81c-.23.03-.47.06-.71.07l.01.81h.05c.22-.02.45-.04.66-.07zm-2.65-.82c-.25-.04-.49-.09-.71-.14l-.01.8c.02 0 .03.01.05.01.21.06.43.1.67.14v-.81zm-1.6-.5c-.1-.07-.18-.13-.24-.21v.61c0 .06.02.12.06.18.04.06.1.12.17.18l.01-.76zm5.96.75c.06-.05.1-.1.14-.14.01-.01.01-.02.02-.03.03-.06.06-.11.06-.17v-.62c-.1.12-.26.24-.48.34v.79c.09-.05.16-.09.23-.14l.03-.03zm-3.64-4.43c.2.01.38.02.54.02l.14-.76h-.77l.09.74zm2.22-.11c.16-.03.31-.06.46-.1l-.01-.71-.49.13.04.68zm-3.76-2.05l.07.52.26-.08.01-.56c-.12.03-.23.07-.34.12zm2.56-.41c-.21-.01-.38-.02-.55-.01l.11.68.3-.01.14-.66zm1.9.44c-.1-.04-.2-.09-.31-.13l-.07.57.33.12.05-.56zm-4.98.86l-.53-.29.02.9.4.18.11-.79zm5.9.51l.02-.66-.45.13.43.53zm7.27-5.95s0 .01.01.01c.03.09.03.18.02.27.44.28.84.86.87 1.51.01.16-.04.28-.14.39-.27.29-.86.3-.98.3h-.09l-.01.05c-.05.27-.69.58-1.26.6h-.02c-.08 0-.1-.03-.11-.05-.08-.15.16-.62.33-.88l.01-.01.45-.02c.02.12.08.29.2.31h.01c.12 0 .22-.18.27-.29l.83-.02v-.13l-.91.02-.02.04c-.05.13-.13.24-.16.25-.03-.01-.08-.14-.09-.25l-.01-.06-.59.02c-.16-.5-.09-1.05 0-1.41-.06.05-.11.09-.16.11-.03.01-.05.04-.08.04-.05.01-.09.01-.14.01-.27 0-.46-.16-.53-.45-.03-.12.01-.25.11-.38.19-.24.59-.45.87-.46l.79-.02c.05 0 .11.02.16.04.04.02.07.05.11.08.12.1.21.23.26.38zm-.12.05c-.07-.22-.25-.41-.4-.41l-.78.02c-.24.01-.6.2-.77.41-.05.07-.11.17-.08.27.07.27.24.39.52.34.05-.01.16-.11.25-.18.14-.12.25-.22.35-.23.11 0 .25.08.39.17.12.07.26.16.33.16.02 0 .02-.01.03-.01.23-.17.2-.41.16-.54zm-35.2 11.56c.07-.19.25-.32.45-.32.27 0 .48.21.48.46s-.22.46-.48.46c-.12 0-.23-.04-.32-.12l-.16-.14.05.2c.14.52.12.86-.04.92-.35.12-.67-.42-.73-.7l-.01-.07-.07.02c-.96.28-2.53.69-3.67 1-1.64.44-1.64.44-1.65.49l-.01.03.01.02c.17.26 1.54.66 1.7.71l.05.01.02-.05c.08-.16.04-.4-.01-.57.74.53 1.58.7 1.92.75-.5.4-1.62.9-2.53.9-.09 0-.18-.01-.27-.02.24-.18.64-.49.68-.61l.02-.07-.07-.01c-.72-.11-2.6-.48-2.82-.88.09-.41 1.17-1.64 1.58-2.09l.05-.05-.06-.04c-.03-.02-.1-.05-.32-.05-.13 0-.29.01-.41.02.48-.31 1.83-.83 2.52-.87-.28.23-.87.79-1.02 1.56-.08-.17-.2-.39-.36-.46l-.04-.02-.03.03c-.1.1-.93 1.02-.86 1.38l.01.07.07-.02c.82-.23 1.64-.51 2.51-.81.91-.31 1.84-.63 2.83-.91l.07-.02-.02-.07c-.1-.29-.1-.58.01-.76.07-.11.16-.17.3-.18.19-.03.39.3.51.88l.05.23.07-.23zm.14.15c0 .17.14.31.32.31s.32-.14.32-.31c0-.17-.14-.31-.32-.31s-.32.13-.32.31zm49.77-.53l.41-.62c-.32-.12-.72-.25-.97-.25-.2 0-.22.08-.23.1-.05.17.07.44.79.77zm5.25.28c.14-.14.33-.3.51-.32l.06-.01.01.06c.03.14.25 1.35.11 1.62l-.03.05-.06-.02-4.7-1.99-.36.67 5.03 2.11-.05.07s-.34.5-.13.81l.7-.01c-.06-.86.81-1.2 1.09-1.28-.09-.15-.21-.31-.34-.47-.31-.39-.7-.87-.81-1.62l-.01-.06.05-.02c.01 0 .03-.01.05-.01.17 0 .66.16.92.25-.38-.54-1.98-2.07-2.67-2.39.23.43.77 1.64.63 2.56zm-4.09-.87c.06-.08.07-.15.03-.22a.248.248 0 00-.22-.12c-.1 0-.21.06-.3.16l-.72 1.09c-.08.15-.1.28-.05.37.04.07.13.11.23.11.14 0 .28-.07.38-.2l.65-1.19z"/><path fill="#FFF" d="M92.37 92.05l-.59.04-.55-4.8 1.14 4.76zm-3.71-4.96L89.75 92h.88l-1.97-4.91zm-2.27 1.65l1.69 4.63h.87l-2.56-4.63zm13.73 3.35l.55-4.8-1.15 4.76.6.04zm2.03-.09l1.08-4.91-1.95 4.91h.87zm1.67 1.36l1.69-4.62-2.56 4.62h.87zm-18.19 8.88c.04-.01.08-.03.12-.04.03-.01.06-.01.09-.02l.02.17c-.52.12-.9.4-.9.73v.01l.03.05c.05-.05.11-.1.17-.14.12-.18.39-.32.73-.39l.11 1.12c.04.01.09.01.13.01.08.01.16.02.25.02s.17-.01.26-.02c.04 0 .09-.01.13-.01l.08-1.13c.35.07.63.21.75.39.06.05.12.09.17.15l.02-.04v-.02c0-.33-.39-.62-.93-.73l.01-.17c.64.12 1.09.47 1.09.9 0 .07-.03.14-.05.21.03.07.05.14.05.21 0 .18-.08.34-.22.48V104.44c0 .29-.07.55-.17.79-.02.04-.03.08-.05.12-.1.2-.24.38-.4.51l-.2-.02c.4-.27.68-.81.68-1.44v-.32c-.29.22-.73.36-1.24.36s-.95-.14-1.24-.36v.32c0 .54.21 1.02.52 1.31l-.19-.02c-.27-.31-.44-.75-.45-1.25v-.48a.138.138 0 01-.03-.04.79.79 0 01-.14-.23.522.522 0 01-.04-.21c0-.07.02-.14.04-.21a.537.537 0 01-.02-.4c.01-.04.04-.08.06-.12.13-.21.4-.4.76-.51zm2.15 1.26c0-.02 0-.05-.01-.07-.27.31-.8.51-1.41.51-.6 0-1.14-.2-1.4-.51 0 .03-.01.05-.01.08 0 .42.65.78 1.41.78.77-.01 1.42-.37 1.42-.79zm-2.69-.21zm2.55 0c0 .01 0 0 0 0zm-8.72-2.02l.75 1.27.88-.48-.82-1.37c-.09-.16-.21-.23-.36-.23-.09 0-.2.03-.32.09-.11.06-.19.14-.22.25-.02.14 0 .31.09.47zm13.57 2.86c-.33-.04-.76-.11-1.35-.82-.78.73-.57 1.05-.25 1.52.17.26.37.55.44.97h.02c.1 0 .22-.14.35-.3.2-.24.46-.53.87-.68l-.08-.69zm1.95.46l-.29-.4c-.11 0-.46.01-.79.01l.06.47c.36-.02.82-.06 1.02-.08zm-1.26-.88c-.04-.09-.1-.15-.19-.15-.18 0-.39.2-.39.34l.13 1.09.6-.08-.15-1.2zm-8.82 9.05l.55.01.18-.4-.39-.33c-.07-.03-.12-.02-.17.03-.13.14-.17.5-.17.69zm1.36 2.37c.3 0 .55-.08.72-.23.28-.26.52-.78.37-1.31-.16-.57-.73-.98-1.59-1.16l-.16.35c.21.1.4.34.45.57.03.14 0 .27-.08.36-.04.04-.11.07-.22.07-.15 0-.37-.04-.6-.08-.23-.04-.47-.08-.64-.08-.11 0-.16.02-.18.04.18.92 1.12 1.47 1.93 1.47zm25.62-13.07l.88.48.76-1.27c.09-.16.11-.33.07-.46-.03-.11-.11-.19-.22-.25-.3-.16-.52-.12-.67.14l-.82 1.36zm-11.93 2.07l-.08.68c.41.15.67.45.87.68.14.17.26.32.37.3.08-.41.27-.71.45-.97.31-.47.53-.79-.25-1.52-.6.72-1.03.79-1.36.83zm-.94.55l.06-.47c-.32 0-.68-.01-.79-.01l-.29.4c.21.01.66.05 1.02.08zm.71.31l.13-1.09c0-.12-.21-.33-.39-.33-.09 0-.16.05-.2.16l-.14 1.18.6.08zm7.81 7.77l.55-.01c-.01-.19-.05-.55-.18-.69-.05-.05-.1-.06-.17-.03l-.39.33.19.4zm-.81 2.37c.81 0 1.75-.56 1.92-1.49-.02-.02-.07-.04-.18-.04-.17 0-.41.04-.64.08-.23.04-.44.08-.6.08-.11 0-.18-.02-.22-.07-.08-.09-.11-.21-.08-.36.05-.23.24-.46.45-.57l-.16-.35c-.86.18-1.43.59-1.59 1.16-.15.53.09 1.05.37 1.31.18.17.43.25.73.25zm-12.87-6.64l.02.01-.02.11c.09.32.82.53 1.69.61l-.03-.28h1.15l-.06.32c.42-.01.84-.04 1.21-.1l-.01-.24.82-.22v.24c.24-.1.39-.23.4-.38l-.05-.07.04-.01a.372.372 0 00-.18-.22l-.02.24-.66-.23.03-.26c-.38-.09-.85-.15-1.33-.17l-.05.26-.57.01-.05-.28c-.51.01-1.02.07-1.44.16v.24l-.57.18-.03-.22c-.15.09-.26.19-.29.3zm-11.56 8.46c-.12 0-.25-.02-.39-.03.31.1.71.22 1.22.34l-.02-.63c-.09.17-.33.32-.81.32zm-.15-.9c-.61.05-1.19.34-1.93.71-1.54.77-3.64 1.83-7.91 1.83-.78 0-1.6-.04-2.46-.11l1.85 1.04-.02.04.01.08-1.93.69c.91.2 1.87.3 2.87.3 3.67 0 7-1.36 8.41-2.02v-1.98l-.01-.03.13.04c.44.13.83.2 1.14.2.53 0 .72-.18.72-.34 0-.25-.34-.49-.87-.45zm27.64.82c-.03-.02-.05-.03-.08-.05l-.02.48c.62-.15 1.1-.29 1.45-.4-.63.11-1.1.1-1.35-.03zm-.08-.29c0 .07.05.13.13.17.12.06.3.09.54.09.37 0 .87-.08 1.46-.22l.12-.03h.01v1.63h.83l.02.01c2.04 1.34 4.74 2.08 7.62 2.08 1.09 0 2.17-.11 3.13-.32l-2.17-.74 1.88-1.03c-.59.02-1.15.02-1.67.02-4.64 0-5.94-.62-7.21-1.21-.87-.41-1.7-.8-3.56-1-.05-.01-.1-.01-.15-.01-.56.02-.98.35-.98.56zm-14.51 2.62c-.02.11-.06.22-.1.33l-.21.5.6.01-.18-.48c-.05-.15-.09-.27-.11-.36zm12-.45c.02-.05.03-.11.02-.16a.269.269 0 00-.13-.18c-.07-.04-.17-.05-.3-.03l-.55.1.11.56.5-.09c.11-.02.19-.04.24-.08.04-.03.08-.07.11-.12zm-1.71.15a.51.51 0 00-.25-.21c-.1-.04-.21-.06-.33-.04-.17.02-.3.1-.4.22-.1.13-.14.32-.1.57.03.21.11.36.24.46.13.1.28.14.46.12.18-.02.31-.1.41-.24.1-.13.13-.31.1-.53a1.11 1.11 0 00-.13-.35zm6.35-2.11v2.11c-.53.19-6 2.03-15.34 2.03-9.3 0-14.8-1.85-15.34-2.03v-2.11c.68.27 5.16 1.9 15.34 1.9 10.22 0 14.67-1.62 15.34-1.9zm-28.78 2.27l-.84-.23.43-1.46-.23-.06-.49 1.65 1.07.29.06-.19zm.81-1.37l-.24-.06-.08.28-.03.32.13.03.14-.3.08-.27zm2.27.48l-.23-.05-.21.97c-.04.21-.11.35-.2.41-.09.06-.22.07-.39.04a.447.447 0 01-.24-.11.287.287 0 01-.11-.19c-.01-.07 0-.19.03-.33l.21-.97-.23-.05-.21.97c-.04.18-.05.32-.02.44.02.11.08.21.17.28.09.07.22.13.38.16.17.03.31.03.43-.01a.51.51 0 00.27-.2c.06-.09.11-.22.14-.39l.21-.97zm1.7.28l-.22-.04-.23 1.33-.7-1.48-.24-.04-.29 1.7.22.04.23-1.33.7 1.48.24.04.29-1.7zm.63.08l-.23-.03-.24 1.7.23.03.24-1.7zm1.83.61c-.05-.14-.14-.26-.26-.35s-.27-.14-.43-.16a.836.836 0 00-.64.17c-.18.14-.28.36-.32.64-.02.15 0 .3.05.44s.14.26.26.35c.12.09.27.15.43.17.15.02.3 0 .44-.06s.26-.15.34-.28c.09-.13.14-.28.16-.45a.75.75 0 00-.03-.47zm1.8-.25l-.23-.02-.11 1.35-.82-1.42-.24-.02-.15 1.71.23.02.11-1.35.82 1.42.24.02.15-1.71zm2.23.11l-1.2-.05-.08 1.72.24.01.04-.78.84.04.01-.2-.84-.04.02-.53.97.04V119zm1.7 1.75l-.69-1.73-.25-.01-.72 1.71.25.01.21-.52.74.01.2.52.26.01zm.47-1.72h-.24v1.72h.24v-1.72zm1.08.19l.59-.01v-.2l-1.41.02v.2l.59-.01.02 1.52h.24l-.03-1.52zm2.65 1.43l-.01-.2-.88.04-.07-1.51-.24.01.08 1.72 1.12-.06zm1.75-.11l-.85-1.66-.25.02-.56 1.76.25-.02.16-.53.74-.05.25.51.26-.03zm.95-1.62l.96-.1-.02-.2-1.19.13.2 1.71.23-.02-.09-.78.83-.09-.02-.2-.83.09-.07-.54zm2.92.3c-.03-.17-.08-.32-.17-.44a.725.725 0 00-.35-.27.877.877 0 00-.46-.05c-.25.03-.44.14-.57.32-.13.18-.18.41-.14.7.02.15.08.29.16.41.09.12.2.22.34.28.14.06.3.08.46.05.15-.02.29-.08.41-.16.12-.09.21-.21.26-.35.08-.16.09-.32.06-.49zm1.98.53l-.39-.41c-.08-.08-.16-.14-.23-.19a.912.912 0 00-.16-.06c.16-.05.28-.13.34-.22.07-.1.09-.2.06-.32a.545.545 0 00-.12-.24.41.41 0 00-.23-.13.923.923 0 00-.36.02l-.78.14.32 1.69.23-.04-.14-.75.27-.05c.06-.01.1-.02.13-.01.04 0 .08.01.11.03.04.02.09.05.14.09.05.05.12.11.21.2l.3.31.3-.06zm1.56-.9l-.24-.01c0 .15-.03.27-.11.36a.51.51 0 01-.3.18c-.11.02-.21.02-.31-.01s-.19-.1-.26-.19a.977.977 0 01-.15-.36.92.92 0 01-.02-.33c.01-.11.06-.21.13-.29.08-.08.18-.14.31-.17.12-.03.22-.02.31.02s.17.12.24.23l.21-.1a.706.706 0 00-.33-.31.74.74 0 00-.47-.03.93.93 0 00-.4.19.77.77 0 00-.23.36c-.04.15-.04.3 0 .48.04.16.1.3.2.43.09.13.21.21.34.26.13.05.3.05.48.01s.32-.12.43-.24c.11-.13.17-.28.17-.48zm-.06-1.19l.48 1.66 1.28-.34-.06-.2-1.05.28-.16-.56.95-.26-.06-.19-.95.26-.15-.51 1.01-.27-.06-.2-1.23.33zm-8.4 1.73l-.16.52.6-.04-.22-.46c-.07-.14-.12-.26-.15-.35-.01.11-.04.22-.07.33zm-11.03-.44a.564.564 0 00-.31-.12.596.596 0 00-.45.12c-.13.1-.21.27-.24.53-.02.21.01.37.11.51.1.13.24.21.41.23.18.02.33-.02.46-.13s.21-.27.23-.49c.02-.14.01-.26-.03-.37a.547.547 0 00-.18-.28z"/><path d="M80.95 88.05l-.8-.57c.4-.48.91-.99 1.79-1.47l.58.85.12-.06-.66-.96-.05.03c-.25.14-.48.28-.68.42l-.08-.09.03-.65-2.81-1.78 1.26 2.84.89.16.05.06c-.23.21-.42.43-.59.64l-.04.05.87.63.12-.1zm.12-2.44l-.03.63.11.12c-.17.12-.31.24-.45.36l-.08-.09-.87-.16-1.06-2.38 2.38 1.52zm-5.51 6l-.69-.33c.31-.54.71-1.12 1.49-1.75l.71.72c.04-.02.09-.04.13-.05l-.83-.84-.05.04c-.23.18-.42.35-.59.53l-.09-.08-.09-.64-3.09-1.29 1.75 2.58.91.01.06.05c-.19.25-.33.49-.47.73l-.03.06.78.38.1-.12zm-.13-2.33l.09.62.13.1c-.14.15-.27.29-.38.43l-.09-.08-.89-.01-1.47-2.16 2.61 1.1zm-.73 8.09l1.43.76c-.2-.87-.62-3.01-.43-4.8.07-.17.14-.33.21-.47-.35 1.92.19 4.53.38 5.36l8.58 4.57-.06.12-10.17-5.41c.02-.05.04-.1.06-.13zm-2.73.1l-.78-.24c.22-.58.52-1.22 1.19-1.95l.8.59c.03-.03.07-.06.11-.08l-.92-.68-.04.04c-.19.21-.36.41-.5.61l-.11-.06-.19-.62-3.26-.81 2.13 2.26.02.02.9-.13.08.04c-.14.27-.26.54-.35.78l-.02.06.86.26.08-.09zm-.54-2.29l.19.6.15.08c-.11.17-.22.33-.3.48l-.11-.06-.88.12-1.8-1.91 2.75.69zm37.94-8.33l.58-.85c.88.48 1.38.99 1.79 1.47l-.8.57.11.08.87-.63-.04-.05a6.76 6.76 0 00-.59-.64l.05-.06.89-.16 1.26-2.84-2.77 1.76-.03.02.03.65-.08.09c-.2-.14-.42-.28-.68-.42l-.05-.03-.66.96c.04.04.08.06.12.08zm1.46-1.24l2.38-1.51-1.06 2.38-.87.16-.08.09c-.13-.12-.28-.24-.45-.36l.11-.12-.03-.64zm4 4.63l.71-.72c.78.62 1.18 1.21 1.49 1.75l-.69.34.09.1.78-.38-.03-.06a7.96 7.96 0 00-.47-.72l.07-.05.91-.01 1.75-2.58-3.05 1.27-.03.01-.09.64-.09.08c-.17-.17-.37-.35-.59-.53l-.05-.04-.83.84c.03.02.07.04.12.06zm4.25-2.05l-1.47 2.16-.89.01-.1.08c-.11-.14-.24-.29-.38-.43l.13-.11.09-.62 2.62-1.09zm-.37 7.68l.8-.59c.67.73.97 1.37 1.19 1.95l-.78.24.09.11.86-.26-.02-.06c-.09-.25-.21-.51-.35-.79l.07-.04.9.13 2.15-2.29-3.22.8-.04.01-.19.62-.11.06c-.14-.2-.3-.4-.5-.61l-.04-.04-.92.68c.04.02.08.05.11.08zm4.52-1.37l-1.8 1.91-.88-.12-.11.06a6.3 6.3 0 00-.3-.48l.15-.08.19-.6 2.75-.69zM93.7 77.67h-.22l-.04-.13h.26v.13zm4.5-.14h.26l-.04.13h-.22v-.13zm-3.39 27.43v-.13h2.11v.13h-2.11zM80.03 114c2.19 0 4.04-1.39 4.67-3.3l.28.05.63 1.13.63.18 1.13 1.69.04.06.56-.42-.7-1.03 1.76.49v1.01c-.07.1-.21.15-.37.2-.13.05-.27.1-.37.18-.1.09-.14.21-.11.32.04.16.22.38.88.54l.7.02h.02c.68-.15 1.06-.36 1.08-.58.01-.09-.04-.22-.32-.33l-.08-.03c-.25-.09-.55-.2-.68-.33l.02-.72.29.01 2.45.68v.11c0 .07.02.14.06.21.01.01.01.03.02.04.04.06.09.12.16.18.02.01.04.03.06.04.03.02.06.05.09.07l.1.06v-.01c.17.1.39.18.63.26l.05.01c.02 0 .04.01.05.01.26.07.55.13.88.18h.01c.38.05.79.08 1.23.08.15 0 .3-.01.44-.01v.01h.07c.02 0 .05-.01.07-.01.27-.02.54-.04.78-.08l.06-.01c.46-.07.86-.18 1.18-.32v.01l.09-.04c.01-.01.02-.01.03-.02.05-.02.08-.05.12-.07.07-.04.13-.08.18-.11.03-.02.05-.04.08-.06.05-.05.1-.1.13-.15.01-.02.03-.03.04-.05a.42.42 0 00.06-.21v-.08l2.56-.71.29-.01.02.72c-.13.13-.43.24-.68.33l-.08.03c-.28.1-.33.23-.32.33.02.23.4.43 1.08.58h.01l.72-.03c.65-.16.83-.38.87-.54.03-.11-.01-.23-.11-.32s-.23-.13-.37-.18c-.15-.05-.3-.11-.37-.2v-1.01l1.77-.49-.67.98-.03.05.56.42 1.17-1.74.61-.17.03-.01.63-1.13.28-.05c.63 1.91 2.48 3.3 4.67 3.3 2.16 0 4-1.36 4.64-3.24.16-.47.25-.97.25-1.48 0-.31-.03-.61-.09-.9.35-.36.65-.8.9-1.29l1.53-.15.03.2.01.05h.81l-.44-3.4-.86.33.06.35-.23.02c.45-1.27.38-1.92.32-2.55-.02-.24-.05-.46-.04-.72.23-.23.62-1.08.73-2.07-.03-.18-.07-.36-.11-.53 0 1.19-.49 2.3-.74 2.52l-.02.02v.03c-.01.28.02.52.04.76.06.62.13 1.27-.33 2.55l-1.49.15-.02-.36-.66.43-2.34.24c-.6-.26-1.26-.4-1.96-.4-.45 0-.88.06-1.29.17l1.44-2.15.25.13.82-1.38c.1-.19.14-.4.08-.57a.555.555 0 00-.14-.22l4.72-2.63c-.05-.02-.09-.05-.13-.08l-4.7 2.61c-.01-.01-.02-.02-.03-.02-.37-.19-.66-.12-.84.19l-.29.48-4.81 2.68c-.17-.22-.36-.4-.56-.52l10.87-5.78c-.02-.03-.04-.08-.06-.11l-1.43.76c.2-.87.62-3.01.43-4.8-.07-.17-.14-.33-.21-.47.35 1.92-.19 4.53-.38 5.36l-9.25 4.92s0 .01.01.01c.03.09.03.18.02.27.44.28.84.86.87 1.51.01.16-.04.28-.14.39-.27.29-.86.3-.98.3h-.09l-.01.05c-.05.27-.69.58-1.26.6h-.02c-.08 0-.1-.03-.11-.05-.08-.15.16-.62.33-.88l.01-.01.45-.02c.02.12.08.29.2.31h.01c.12 0 .22-.18.27-.29l.83-.02v-.13l-.91.02-.02.04c-.05.13-.13.24-.16.25-.03-.01-.08-.14-.09-.25l-.01-.06-.59.02c-.16-.5-.09-1.05 0-1.41-.06.05-.11.09-.16.11 0 .02-.01.04-.01.06l-5.93 3.16.32-1.99.09.01.02-.19c.36.14.59.41.78.64.16.2.29.35.45.35.03 0 .07-.01.1-.02l.03-.01.01-.04c.07-.41.26-.7.43-.96.33-.5.6-.9-.32-1.74l-.05-.05-.04.06c-.56.71-.95.79-1.28.82l.01-.05 5.9-4.61c.37.12.64.33.8.63.39.71.17 1.8-.14 2.71.04.02.07.05.11.08.32-.95.56-2.09.14-2.85-.17-.31-.44-.53-.8-.66l8.73-6.81c-.05-.01-.1-.03-.15-.05L99.41 103.8c-.07-.19-.29-.37-.49-.37-.15 0-.26.09-.32.26l-.05.38c-.39 0-.83-.02-.83-.02h-.03l-.47.64.12.01s.41.04.83.07l-1.17.92c.04-.38.08-.79.13-1.23l16.52-12.4c-.03-.03-.05-.07-.08-.11l-1.74 1.3c.01-.67-.04-1.88-.53-3.08-.21-.35-.46-.71-.68-1 1.04 1.53 1.1 3.38 1.08 4.18l-8.16 6.12c.38-.93.93-2.45.41-3.27-.16-.25-.41-.42-.75-.49l6.11-6.78c-.07.01-.13.03-.2.03L97.37 102c.04-.44.07-.88.11-1.31l11.08-11.86a.746.746 0 01-.12-.07l-6.18 6.62.89-1.9h.8l2.02-5.5-.12-.05-2.48 4.47-.65-.14-2.97 5.82-.4.43 2.38-6.38h.56l1.28-5.79-.12-.04-1.85 4.64-.72-.04-2.65 7.46 1.49-6.16.56.04.69-5.99-.13-.02-1.22 5.07-.82-.02-1.21 5.1c-.1-2.12-.39-5-.5-6.06h.2l-.27-1.53h.15l-.39-1.55h.12l-.16-.87c.36-.18.74-.6.99-.92L97 87.38l.11.07 1.55-1.61c.1.3.04 1.35-.03 2l.12.04c.7-1.17.79-1.36.66-2.81l.58.65.01-.15c.07-.78-.17-1.4-.39-1.79l.58.51-.04-.2c-.13-.57-.83-1.4-1.19-1.8l1.25.55-.01-.11c-.04-.34-.16-.63-.31-.87l.33-.26-.08.77.35-.02.12 1.29.13.01.29-.9c.11.28.23.97.3 1.42l.13.01c.08-.26.15-.49.2-.67.09-.33.17-.6.24-.61h.01c.1 0 .34.31.68.72l.25.31.02-.15c.08-.7-.38-1.85-1.17-2.98l.33-.73.06.79.12.02.26-.59.31.83.13-.02.06-.86c.18.2.5.89.75 1.54l.01.03.03.01c.02 0 .05.01.08-.01.11-.07.24-.46.31-.72l.36.83.19-.67.12.68.09-.12c.18-.25.32-.37.43-.35.1.01.19.14.29.37l.13-.02.04-.4.31.78.31-.97c.12.06.42.19.83.42l.09-.09c-1.12-1.72-4.64-3.3-7.04-3.91h.29l-.03-.32.59.54.25-.55.66.78.18-.63.68.78.04.04.05-.03c.36-.22 1.01.17 1.02.18l.06.03.37-.61.42.98.49-.4 1.07 1.4.13-1.19.62 1.85.4-1.11.17 1.48.6-1.19c.19.23.71.83.94.92l.1.04-.01-.11c-.26-2.11-1.17-2.51-2.68-3.18-.51-.23-1.1-.49-1.77-.86l-.05-.28 1.23.52-.16-.76 1.34 1.46-.04-.94 1.01.82.1-.08-.4-.88 1.32 1.01-.07-.8c.27.25.9.75 1.56.59l.08-.02-.04-.07c-1.16-2.04-4.62-2.18-6.58-2.08-1.36.07-2.77.29-3.96.59.69-.43 1.6-.85 2.37-.85.05 0 .11 0 .16.01.05 0 .09-.01.11-.04.04-.05.03-.11.01-.18-.02-.09-.03-.16.02-.21l.91.42-.01-.12c0-.03-.07-.55-.26-.92.12.08.28.19.41.28.47.33.62.42.71.39l.07-.03-.04-.07c-.01-.02-.19-.32-.39-.55.33.09 1.04.4 1.7.71l.21.1-.13-.2c-.01-.02-.29-.44-.5-.73.05.02.11.04.17.07.34.13.8.32 1.29.22l.15-.03-.12-.09c-1.18-.87-5.35-3.26-10.61 1.65l.04-1.35.03-.81c-.04-.05-.09-.1-.13-.14l-.16 4.81-.58-.49.17-4.37c-.03.02-.08.03-.13.04l-.03.67-.07 1.75c-5.32-5.05-9.54-2.64-10.73-1.77l-.12.09.15.03c.5.1.96-.09 1.29-.22.06-.03.12-.05.18-.07-.21.29-.49.71-.5.73l-.13.2.21-.1c.65-.31 1.37-.61 1.7-.71-.2.22-.38.53-.39.55l-.04.07.07.03c.09.03.24-.06.71-.39.13-.09.29-.2.41-.28-.2.37-.26.9-.26.92l-.01.12.91-.42c.05.05.04.12.02.21-.01.07-.03.13.01.18.02.03.06.04.11.04.8-.07 1.79.38 2.53.85-1.19-.29-2.6-.52-3.96-.59-1.96-.1-5.43.03-6.58 2.08l-.04.07.08.02c.67.17 1.3-.33 1.56-.59l-.07.8 1.32-1.01-.4.88.1.08 1.01-.82-.04.94 1.34-1.46-.16.76 1.23-.52-.05.27c-.67.37-1.25.63-1.77.86-1.51.67-2.42 1.07-2.68 3.18l-.01.11.1-.04c.22-.09.75-.69.94-.92l.6 1.19.17-1.48.4 1.11.62-1.85.13 1.19 1.07-1.4.49.4.42-.98.37.61.06-.03c.01 0 .66-.39 1.02-.18l-.03.04.72-.82.18.63.66-.78.25.55.59-.54-.03.32h.29c-2.4.61-5.92 2.2-7.04 3.91l.09.09c.41-.23.71-.37.83-.42l.31.97.31-.78.04.4.13.02c.09-.24.19-.36.29-.37.1-.02.25.11.43.35l.09.12.12-.68.19.67.36-.83c.07.26.2.66.31.72.03.02.06.02.08.01l.03-.01.01-.03c.25-.65.57-1.34.75-1.54l.06.86.13.02.31-.83.26.59.13-.02.05-.79.33.73c-.78 1.13-1.25 2.28-1.16 2.98l.02.15.25-.31c.34-.42.58-.72.68-.72h.01c.07.02.14.28.24.61.05.18.11.41.2.67l.13-.01c.06-.45.18-1.14.3-1.42l.29.9.13-.01.12-1.29.35.02-.08-.77.33.25c-.15.24-.27.53-.31.87l-.01.11 1.25-.55c-.36.4-1.06 1.23-1.19 1.8l-.04.2.58-.51c-.22.39-.46 1.01-.39 1.79l.01.15.58-.65c-.13 1.45-.04 1.64.66 2.81l.12-.04c-.07-.65-.13-1.71-.03-2l1.33 1.38v.02h.03l.16.17-.36 1.38h.18l-.36 1.53h.15c-.05.77-.16 2.53-.23 4.26h-.05v.13h.05l-.03.79-.99-4.17-.01-.05-.82.02-1.22-5.07-.13.02.68 5.93.01.06.56-.04 1.49 6.16-2.63-7.41-.02-.05-.72.04-1.85-4.64-.12.04 1.27 5.74.01.05h.56l2.37 6.38-.39-.42-2.95-5.77-.02-.04-.65.14-2.48-4.47-.12.05 2.02 5.5h.8l.88 1.89-6.18-6.61c-.04.02-.08.05-.12.07l10.9 11.68c.03.43.07.86.1 1.3L82.82 88.97c-.07 0-.13-.02-.2-.03l6.11 6.78c-.34.08-.59.24-.75.49-.53.82.03 2.35.41 3.27l-8.16-6.12c-.03-.8.04-2.65 1.08-4.18-.22.28-.47.65-.68 1-.49 1.21-.55 2.42-.53 3.08l-1.74-1.3c-.02.04-.05.07-.08.11l16.34 12.26.03.3-.42-.57h-.03l-.83.02-.05-.39c-.06-.16-.17-.25-.32-.25-.2 0-.42.18-.49.37L77.86 92.38c-.05.02-.09.04-.15.05l8.73 6.81c-.36.13-.63.35-.8.66-.34.63-.24 1.51-.02 2.33.04-.01.08-.03.12-.04-.22-.79-.32-1.64.01-2.23.17-.3.44-.51.8-.63l5.9 4.61.01.05c-.32-.04-.72-.12-1.27-.82l-.04-.06-.05.05c-.92.84-.66 1.24-.32 1.74.17.26.36.55.43.96l.01.04.03.01c.03.01.07.02.1.02.16 0 .29-.15.45-.35.19-.23.43-.5.78-.64l.02.19.09-.01.32 1.99-5.29-2.82v.14l5.32 2.83.09.57c.04-.02.08-.05.12-.07l-.43-2.67.45-.06.48 2.45c-.06.02-.12.04-.17.06l-.06.03.01.04.08.57.03.22.57-.18v-.24l.01-.61v-.05l-.11.03c-.08.02-.15.06-.23.08l-.47-2.42.06-.01-.03-.21c.04 0 .07-.01.11-.01l1.19.93c.06.62.12 1.14.16 1.52.04-.01.09-.01.13-.02-.02-.24-.06-.53-.09-.88h1.84c-.04.34-.07.63-.1.87.04 0 .09.01.13.02.04-.34.09-.81.15-1.36l1.38-1.08c.04 0 .07.01.11.01l-.03.21.05.01-.48 2.44c-.06-.02-.12-.05-.18-.08l-.1-.03-.01.07-.05.59-.03.26.66.23.02-.24.04-.58.01-.07-.05-.02c-.05-.02-.11-.04-.16-.07l.49-2.48.45.06-.44 2.74.12.09.11-.66 5.94-3.16c-.04.26-.05.56 0 .87l-1.27.71v-.03l-.95.06.07.46-.44.24c-.02 0-.04-.01-.06-.01-.33 0-.61.19-.75.46l-2.37 1.32c.02.03.04.06.06.1l-.6.18-.04.01.05.07.47.58c-.16.17-.45.33-.87.45l-.01-.66v-.24l-.82.22.01.24.03.62c-.4.06-.85.1-1.35.11l.11-.62.06-.32h-1.15l.03.28.08.62c-.81-.07-1.47-.23-1.88-.44l.11-.8.02-.11-.02-.01-.55-.3c.01-.01.02-.03.03-.04l-2.28-1.27a.833.833 0 00-.75-.46c-.02 0-.04.01-.06.01l-.44-.24.06-.46-.95-.06v.03l-.82-.46c-.02.04-.03.08-.05.12l.85.47-.04.2-1.21-.12-.2-.02-.13-.01.03-.24h-.83l-.02.16-.31-.03-.19-.02-.81-.08c0-.35.05-.67.19-.93.05-.09.1-.16.17-.23V104.31c-.11.1-.21.21-.28.34-.15.27-.21.61-.21.98l-1.64-.17c-.16-.11-.33-.22-.51-.32l-1.94-2.85.31-.17-.47-.78 4.7 2.61a.79.79 0 01-.14-.23l-4.69-2.61-.29-.48c-.19-.31-.48-.38-.84-.19-.01.01-.02.02-.03.02l-4.7-2.61c-.04.03-.09.05-.13.08l4.72 2.63c-.06.06-.12.13-.14.22-.05.17-.02.37.09.57l.82 1.38.25-.13 1.44 2.15c-.41-.11-.84-.17-1.29-.17-.7 0-1.36.14-1.96.4l-2.34-.24-.66-.43-.02.36-1.49-.15c-.46-1.28-.39-1.93-.33-2.55.02-.24.05-.49.04-.76v-.03l-.02-.02c-.25-.22-.73-1.33-.74-2.52-.04.16-.07.34-.11.53.11.99.5 1.84.73 2.07 0 .26-.02.48-.04.72-.07.63-.13 1.29.32 2.55l-.23-.02.05-.3.01-.05-.86-.32-.43 3.33-.01.07h.81l.04-.26 1.53.15c.25.49.56.93.9 1.29-.06.29-.09.59-.09.9 0 .52.09 1.03.26 1.5.64 1.85 2.47 3.2 4.62 3.2zm-7.93-6.94l.4-3.09.6.23-.45 2.86h-.55zm1.07-2.47l1.87.19-.14 2.23-2.08-.21.35-2.21zm2.02-.07l.45.29-.33 2.49-.29-.03.17-2.75zm3.88-3.97a.71.71 0 01.32-.09c.14 0 .26.08.36.23l.82 1.37-.88.48-.75-1.27c-.09-.16-.12-.33-.07-.46.01-.11.08-.2.2-.26zm1.24 1.79l1.82 2.68c-.2-.09-.41-.18-.62-.24l-1.52-2.26.32-.18zm2.69 3.35l-.57.59a3.95 3.95 0 00-2.4-.79c-1.21 0-2.29.53-3.01 1.36l-.66-.49a4.807 4.807 0 013.67-1.67 4.77 4.77 0 012.97 1zm2.94.2l-.31 2.2-.89-.09c-.28-.96-.86-1.8-1.65-2.4l2.85.29zm.73-.16l-.3 2.59-.65.02.37-2.61h.58zm2.52.12l-.16 1.12.13.03c.1-.28.33-.45.61-.45.39 0 .7.3.7.67 0 .37-.31.67-.7.67-.33 0-.62-.23-.68-.54h-.13l-.24 1.61-.76-.11.54-3.05.69.05zm.01.82l.05-.34.26.15a.84.84 0 00-.31.19zm5.96 2.43h.77l-.14.76c-.16 0-.34-.01-.54-.02l-.09-.74zm2.28-.06l.49-.13.01.71c-.15.04-.3.07-.46.1l-.04-.68zm4.69-2.49c.28 0 .51.17.61.45l.13-.03-.16-1.12.69-.04.54 3.05-.76.11-.24-1.61h-.13a.7.7 0 01-.69.54c-.39 0-.7-.3-.7-.67a.7.7 0 01.71-.68zm.57.12a.705.705 0 00-.31-.19l.26-.15.05.34zm2.18-1.37c-.07.1-.22.36-.3.59l-1 .1-.03-.17 1.28-.71c.01.07.02.13.05.19zm-.33.99c.03.05.09.12.23.12h.02c.12-.01.24-.02.37-.05l.21 1.83-1.4.14-.39-2.19.94-.1c-.01.09-.01.18.02.25zm2.49-2.4l4.59-2.56-.47.78.31.17-1.94 2.85c-.18.09-.35.2-.51.32l-1.64.17c0-.15-.01-.29-.03-.42.03-.08.04-.17.04-.27-.02-.39-.16-.75-.35-1.04zm5.79-3.34c.11.06.19.14.22.25.04.13.01.3-.07.46l-.76 1.27-.88-.48.82-1.37c.16-.24.37-.29.67-.13zm5.97 3.64l.6-.23.4 3.09h-.55l-.45-2.86zm.28 2.61l-2.08.21-.14-2.23 1.87-.19.35 2.21zm-10.86 5.43l.65-.51c.72.82 1.8 1.35 3 1.35.87 0 1.68-.28 2.33-.75l.56.6c-.8.59-1.8.95-2.89.95-1.46 0-2.77-.64-3.65-1.64zm-4.12 1.12l2.88-4.23c0 .06-.01.11-.01.16 0 .18.01.36.03.53l-2.55 3.8-.35-.26zm-1.36.54c.09.15.27.21.44.27.13.04.25.09.32.16.04.03.1.1.07.19-.02.08-.13.28-.76.44l-.69.02c-.7-.15-.96-.35-.97-.46 0-.07.08-.14.24-.19l.08-.03c.28-.1.61-.22.75-.39l.02-.02-.03-.9-.75.03c-.13 0-.47-.42-.49-.78v-1.77c.03-1.01.8-1.04.89-1.04h.1l-.01-.93h.5l-.01 1.15.04.01c.28.1.29.27.27.64v.13l-.01 3.42v.05zm-13.08 0l.02.02c.14.16.46.28.75.39l.08.03c.16.06.24.13.24.19-.01.12-.27.31-.97.46l-.68-.02c-.64-.16-.76-.36-.78-.44-.02-.09.04-.16.07-.19.08-.07.2-.11.32-.16.17-.06.36-.13.44-.27l.01-.02-.01-3.44v-.13c-.02-.38-.01-.55.27-.64l.04-.01-.01-1.15h.5l-.01.93h.1c.09 0 .87.03.89 1.04v1.77c-.01.37-.35.79-.48.79l-.76-.03-.03.88zm-2.22-.28l-2.55-3.8c.02-.18.03-.35.03-.53 0-.06-.01-.11-.01-.16l2.88 4.23-.35.26zm-10.43-6.68zm18.1 3.06h.07c.26.02.48.03.68.03h.07V110c.5 0 .96-.04 1.38-.11v.02l.09-.02c.02 0 .04-.01.06-.01.2-.03.39-.08.57-.13l.05-.01h.01v-.02c.43-.13.77-.3.95-.49l.05.06V113.02l-.01.04c-.01.03-.03.05-.04.08 0 .01-.01.02-.01.02-.04.06-.09.11-.16.17-.01 0-.01.01-.02.01-.07.05-.15.1-.24.14-.02.01-.03.02-.04.02-.02.01-.03.02-.04.02l-.04.02v.93c-.3.13-.7.25-1.18.32l-.01-.94h-.01l-.06.01c-.02 0-.05 0-.07.01-.2.03-.41.05-.62.06-.03 0-.06.01-.09.01-.02 0-.04.01-.06.01h-.06l.01.94c-.14.01-.29.01-.44.01-.45 0-.86-.03-1.23-.08v-.94l-.05-.01c-.04-.01-.07-.01-.1-.02-.06-.01-.12-.02-.17-.03a1.18 1.18 0 01-.2-.04c-.08-.02-.15-.04-.22-.05l-.13-.03-.08-.02-.01.94c-.26-.08-.47-.17-.63-.27l.02-.92-.03-.02c-.04-.02-.06-.04-.09-.07-.01-.01-.02-.01-.03-.02a.805.805 0 01-.16-.16c0-.01-.01-.01-.01-.02a.442.442 0 01-.06-.16v-3.67l.48.22h.01v-.01c.46.22 1.13.37 1.92.43l-.02.04zm3.52 3.66c.21-.1.37-.22.48-.34v.62c0 .06-.02.11-.06.17-.01.01-.01.02-.02.03-.03.05-.08.1-.14.14l-.03.03c-.06.05-.14.09-.23.14v-.79zm-2.17.46c.24-.01.48-.04.71-.07l.01.81c-.22.03-.44.05-.67.07h-.05v-.81zm-2.64.57l.01-.8c.22.06.45.1.71.14v.81c-.24-.04-.46-.08-.67-.14-.02 0-.04-.01-.05-.01zm-1.07-.57a.323.323 0 01-.06-.18v-.61c.06.07.14.14.24.21l-.01.77a.931.931 0 01-.17-.19zm-16.52-4.83c0-2.02 1.7-3.66 3.8-3.66 2.09 0 3.8 1.64 3.8 3.66s-1.7 3.66-3.8 3.66c-2.09 0-3.8-1.64-3.8-3.66zm.91 3.64l.56-.6c.65.47 1.46.75 2.33.75 1.2 0 2.28-.52 3-1.35l.65.51c-.87 1-2.18 1.64-3.64 1.64-1.1 0-2.09-.35-2.9-.95zm5.97-1.3c.53-.65.85-1.46.85-2.35 0-1.17-.56-2.23-1.43-2.92l.57-.58c1.03.84 1.69 2.1 1.69 3.5 0 1.08-.39 2.07-1.04 2.85l-.64-.5zm1.75-1.62l1.27 1.89-.43-.12-.63-1.14-.33-.06c.05-.18.09-.37.12-.57zm.04-1.14c-.02-.25-.07-.49-.13-.73l.83.08-.04.25.92-.03.02-.13.11.01 1.44 2.46.01.02.96.3.01 1.6-1.88-.52-2.25-3.31zm6.16 3.37v-.5l1.5.46v1.48l-2.02-.56c.22-.1.51-.52.52-.88zm8.18.79v-.79l1.6-.5v.5c.01.36.3.78.52.88l-2.12.59V113.02zm3.63-1.92l.94-.29.02-.01 1.45-2.48.11-.01.02.13.92.03-.04-.25.83-.08c-.06.24-.11.48-.13.73l-2.25 3.31-1.88.52.01-1.6zm12.01-4.17zm-5.4-.55zm6.19 2.9c0 2.02-1.7 3.66-3.8 3.66-2.09 0-3.8-1.64-3.8-3.66s1.7-3.66 3.8-3.66c2.09 0 3.8 1.64 3.8 3.66zm-8.63.72c.03.19.07.38.13.57l-.33.06-.63 1.14-.43.12 1.26-1.89zm.06-.72c0-1.4.66-2.66 1.69-3.5l.57.58c-.87.7-1.43 1.75-1.43 2.92 0 .89.32 1.7.85 2.34l-.64.51a4.433 4.433 0 01-1.04-2.85zm7.76 3.57l-.56-.6c.91-.7 1.49-1.77 1.49-2.97 0-.88-.31-1.69-.83-2.33l.65-.49c.63.78 1.01 1.76 1.01 2.82.01 1.44-.68 2.72-1.76 3.57zm1.4-5.63l.18-.02.03.25.54-.07-.01-.24.41-.04c-.22.42-.49.8-.79 1.12-.07-.35-.2-.69-.36-1zm.62.04l-.29.03-.33-2.49.45-.29.17 2.75zm-.45-.19l-.23.02a4.94 4.94 0 00-2.14-2.03l2.08-.21.29 2.22zm-.89-.72l-.66.49c-.72-.83-1.8-1.36-3.01-1.36-.9 0-1.73.3-2.4.79l-.57-.59c.82-.63 1.85-1.01 2.97-1.01 1.47.01 2.79.66 3.67 1.68zm-5.77-1.33l1.82-2.68.32.17-1.52 2.26c-.22.07-.42.16-.62.25zm-2.52.6l-.57.06c.19-.05.4-.13.54-.27.01-.01.01-.02.02-.04.01.08.02.16.01.25zm1.56-.02c-.79.61-1.37 1.44-1.65 2.4l-.89.09-.3-2.1c.05-.04.09-.08.12-.12l2.72-.27zm-2.63 2.74l-.65-.02-.23-2c.21-.06.4-.14.56-.24l.32 2.26zm-7.07.09l-.02.66-.43-.52.45-.14zm-6.03.93l-.4-.18-.02-.9.53.29-.11.79zm-.53-.09l.01 2.79-1.5-.46v-1.13c-.02-.89-.61-1.15-.99-1.17l.01-.92h-.77l.01 1.19c-.34.14-.33.41-.32.76v.65l-.88-.27-1.38-2.35 1.12.11-.09.52 1.02.15.23-1.49c.14.24.42.41.72.41.46 0 .83-.36.83-.8 0-.06-.02-.11-.03-.16l1.96 1.09.05 1.08zm-4.63-.95l-1.4-.14.25-2.21 1.53.16-.38 2.19zm-12.22-1.23l-.23-.02.29-2.22 2.08.21c-.92.45-1.67 1.16-2.14 2.03zm-.81.05l-.01.24.54.07.03-.25.18.02c-.16.32-.28.65-.37 1a5.18 5.18 0 01-.78-1.12l.41.04zm1.39-.68l.66.49c-.52.64-.83 1.45-.83 2.33 0 1.2.58 2.27 1.49 2.97l-.56.6c-1.08-.84-1.77-2.13-1.77-3.57 0-1.07.38-2.04 1.01-2.82zm7.53 5.79zm14.91-8.52c.04-.11.11-.16.2-.16.18 0 .39.2.39.33l-.13 1.09-.6-.08.14-1.18zm-1.27.86l.29-.4c.11 0 .46.01.79.01l-.06.47c-.36-.02-.81-.06-1.02-.08zm3.56.24c-.17.26-.37.55-.45.97-.11.02-.23-.13-.37-.3-.2-.24-.46-.53-.87-.68l.08-.68c.33-.04.76-.1 1.35-.82.79.72.58 1.04.26 1.51zm-12.43-5.19c-.34-.81-1.03-2.53-.5-3.36.15-.24.41-.38.75-.45l5.57 6.19.12 1.38v.13h.01l.06.61-6.01-4.5zM90.62 92h-.88l-1.08-4.91L90.62 92zm.19.13l-.43-1.07.58-.04 3.3 9.28-1.45-1.56-2.46-6.62h.46zm1.56-.08l-.59.04-.55-4.8 1.14 4.76zm.16.12l-.18-.75.68-.02 1.09 4.59v.19c-.01.54-.02 1.03-.01 1.44.01.6.06 1.36.11 2.2l-.1-.29-1.78-7.35.19-.01zm2.22-3.4h2.1l.24 1.4h-2.67l.33-1.4zm-.84-5.85c.11-1.41.23-3.01 1.11-4.2l-.11-.08c-.9 1.22-1.03 2.84-1.14 4.27-.08 1.04-.16 2.02-.52 2.72l-.05.05c-.19.2-.12 1.31-.07 1.88-.58-.98-.61-1.2-.48-2.68l.02-.2-.64.71a2.96 2.96 0 01.68-1.99l-.09-.09-.65.57c.31-.73 1.29-1.74 1.3-1.75l-.07-.11-1.33.59c.23-1.25 1.51-1.73 1.53-1.74l-.03-.13-.69.07 1.02-.76-.54-.16.92-1.74-.12-.06-.55 1.04-.59.21-.02.01-.01.01c-.12.14-.13.41-.12.59l-.42-.41-.04.09c-.22.51-.26.86-.12 1.05.05.06.11.1.16.12-.36.33-.32.53-.23.85l-.47-.36.09.92-.32-.02-.1 1.09-.26-.82-.08.07c-.15.13-.29.87-.36 1.32-.04-.15-.08-.28-.11-.39-.13-.46-.19-.68-.34-.71-.17-.03-.34.18-.81.77l-.04.05c0-1.51 2.12-4.72 4.57-5.65l-.05-.12c-1 .38-1.95 1.15-2.73 2.02l-.28-.25-.03.03c-.22.12-.38.56-.45.81l-.29-.64-.12.02-.05.79-.28-.64-.31.85-.06-.76-.08.02c-.26.07-.73 1.22-.88 1.6-.07-.12-.19-.47-.27-.79l-.05-.19-.37.85-.17-.59-.13.01-.12.66c-.17-.21-.32-.31-.46-.29-.11.01-.2.09-.29.24l-.05-.43-.13-.02-.27.69-.24-.75-.07.03c-.01 0-.25.1-.66.32 1.59-2.01 6.63-3.9 8.45-3.9h.05v-.13h-.05c-.31 0-.71.06-1.17.15l-.67-.01.04-.52-.71.65-.26-.57-.64.75-.18-.63-.81.92c-.36-.17-.88.08-1.05.17l-.43-.72-.45 1.05-.46-.37-.96 1.25-.13-1.16-.13-.01-.59 1.78-.37-1.01-.13.01-.16 1.32-.49-.98-.06.08c-.17.2-.6.7-.84.89.27-1.92 1.1-2.28 2.58-2.94.53-.24 1.13-.5 1.81-.88.01 0 1.06-.3 2.42-.38 1.26-.07 3.05.04 4.44.97l.07-.11c-1.42-.95-3.24-1.06-4.52-.99-1.15.07-2.07.29-2.36.36l.09-.44-1.23.52.2-.98-1.42 1.55.03-.87-1.02.83.39-.87-.1-.08-1.29.99.08-.89-.13.15c-.01.01-.73.82-1.48.7 1.17-1.91 4.51-2.03 6.42-1.93 3.26.17 6.41 1.15 6.71 1.83l.12-.05c-.18-.41-1.15-.85-2.46-1.22-.77-.54-1.98-1.16-2.94-1.08 0-.02.01-.04.01-.05.02-.1.05-.26-.1-.37l-.03-.02-.76.35c.04-.22.14-.7.35-.94l.11-.12-.16.01c-.1.01-.32.16-.67.4-.14.1-.33.23-.46.31.1-.15.26-.37.4-.49l.09-.07-.11-.04c-.17-.07-1.21.39-1.75.64.14-.21.36-.52.48-.68l.1-.13-.16.03c-.11.02-.23.07-.38.13-.28.11-.66.26-1.06.24 4.42-3.13 8.9.4 10.51 1.93l-.07 1.77v.03l.83.7.09-2.6c5.05-4.78 9.09-2.75 10.41-1.83-.4.03-.78-.12-1.06-.24-.15-.06-.28-.11-.38-.13l-.16-.03.1.13c.13.16.34.48.48.68-.54-.25-1.57-.71-1.75-.64l-.11.04.09.07c.14.12.3.33.4.49-.13-.08-.31-.21-.45-.3-.35-.24-.56-.39-.67-.4l-.16-.01.11.12c.21.24.31.72.35.94l-.76-.35-.03.02c-.15.11-.12.27-.1.37 0 .02.01.04.01.06-.97-.08-2.18.54-2.95 1.08-1.31.36-2.28.81-2.45 1.21l.12.05c.3-.68 3.45-1.66 6.7-1.83 1.91-.1 5.25.02 6.42 1.93-.76.12-1.47-.69-1.48-.7l-.13-.15.08.89-1.29-.99-.1.08.39.87-1.02-.83.03.87-1.42-1.55.2.98-1.23-.52.09.44c-.28-.07-1.2-.3-2.36-.36-1.28-.07-3.1.04-4.51.99l.07.11c1.39-.93 3.17-1.04 4.43-.97 1.36.08 2.41.38 2.41.38.69.39 1.29.65 1.82.89 1.48.66 2.31 1.03 2.58 2.94-.24-.19-.67-.69-.84-.89l-.06-.08-.49.98-.16-1.32-.13-.01-.37 1.01-.59-1.78-.13.01-.13 1.16-.92-1.2-.04-.05-.46.37-.45-1.05-.43.72c-.17-.09-.68-.34-1.05-.17l-.8-.92-.18.63-.64-.75-.26.57-.71-.65.04.52-.67.01c-.46-.1-.86-.15-1.16-.15h-.05v.13h.05c1.83 0 6.86 1.89 8.45 3.9-.4-.21-.64-.31-.66-.32l-.07-.03-.24.75-.27-.69-.13.02-.05.43c-.09-.15-.18-.23-.29-.24h-.03c-.13 0-.27.09-.43.29l-.12-.66-.13-.01-.17.59-.37-.85.05.18c-.08.31-.19.66-.27.79-.15-.39-.62-1.53-.88-1.6l-.08-.02-.06.76-.31-.85-.28.64-.05-.79-.12-.02-.29.64c-.08-.25-.23-.69-.45-.81l-.04-.02-.28.25c-.78-.87-1.72-1.64-2.73-2.02l-.05.12c2.45.94 4.57 4.14 4.57 5.65l-.04-.05c-.44-.54-.62-.77-.78-.77h-.03c-.15.03-.21.24-.34.71-.03.11-.07.24-.11.39-.07-.44-.21-1.18-.36-1.32l-.08-.07-.26.82-.1-1.09-.32.02.09-.92-.47.36c.09-.33.13-.53-.23-.85.06-.02.12-.05.16-.12.14-.19.1-.54-.12-1.05l-.04-.09-.42.41c.01-.18 0-.44-.12-.59l-.01-.01-.61-.21-.55-1.04-.12.06.92 1.74-.54.16 1.02.76-.69-.07-.03.13c.01 0 1.3.49 1.53 1.74l-1.33-.59-.07.11c.01.01.99 1.02 1.3 1.75l-.65-.57-.09.09c.01.01.72.8.68 1.99l-.64-.71.02.2c.14 1.48.1 1.7-.48 2.68.05-.57.12-1.68-.07-1.88l-.05-.05c-.36-.7-.44-1.68-.52-2.72-.11-1.43-.23-3.05-1.14-4.27l-.1.08c.88 1.19 1 2.79 1.11 4.2.08 1.07.16 2.08.55 2.81l-1.34 1.39.79-2.08-.12-.06c-.21.32-.75 1.01-1.19 1.26l-.04-.22 1-1.53-.1-.09-.91.74 1.28-1.91-1.3.4c.26-.36.83-1.23.77-1.84l-.01-.15-.82.89c.1-.36.24-.98.17-1.23l-.02-.06-.33.07.85-.98-.66-.13.07-.68-.44-.14.02-.7h-.13l-.03.8.44.14-.07.69.28.05.28.05-.26.3-.69.8.59-.12c.03.31-.17 1.08-.26 1.36l.11.06.33-.36.46-.5c-.03.35-.23.76-.43 1.1-.22.36-.43.64-.43.64l-.13.16.59-.18.75-.23-.71 1.06-.34.47-.01-.04H95.3l-.55-.82-.46-.69.49.15.85.26-.13-.16c-.01-.01-.42-.54-.67-1.1-.1-.22-.18-.45-.19-.65l.21.24.58.63.11-.06c-.09-.29-.29-1.06-.26-1.36l.59.12-.93-1.07-.03-.03.03-.01.53-.1-.07-.69.44-.14-.03-.8h-.13l.02.7-.44.14.07.68-.66.13.85.98-.33-.07-.02.06c-.07.25.07.87.17 1.23l-.82-.89-.01.15c-.06.61.51 1.48.77 1.84l-1.3-.4 1.16 1.74h-.1l-.7-.57-.1.09.62.95-.08.36h.11l-.04.19c-.35-.31-.69-.77-.85-1l-.12.06.74 1.96-.01.06-1.28-1.32c.42-.75.5-1.76.58-2.83zm-1.76-1.27c-.08-.29-.11-.44.09-.66l.78-.08c-.25.14-.59.39-.87.76.01 0 .01-.01 0-.02zm.25-.95c-.01 0-.13.01-.21-.09-.06-.08-.12-.29.1-.84l.56.54-.03-.2c-.02-.13-.05-.5.06-.65l.45-.15-.35.67.44.13-1.13.84c.05-.05.1-.09.16-.15l.18-.14-.23.04zm7.34.98c-.27-.36-.62-.61-.87-.76l.78.08c.2.22.17.37.09.66v.02zm-.13-1.91c.22.54.16.76.1.84-.07.1-.2.09-.21.09l-.23-.03.18.15c.07.05.12.1.16.15l-1.12-.84.44-.13-.35-.67.44.15c.11.15.08.52.06.65l-.03.2.56-.56zm-2.9 7.33h-1.95l.28-1.31h1.42l.25 1.31zm-1.75-2.04l-.01.04-.03.16-.1-.16-.1-.15-.12-.18.12.1.24.19zm.12.03h1.37l.1.56h-1.59l.12-.56zm1.55.69l-.03.04-.01-.04h.04zm.06-.09l-.07-.38.27-.22.02-.02.38-.31-.6.93zm-1.99 1.06l-.5-1.31c.17.22.4.48.64.68l-.14.63zm.27.48h1.64l.35 1.42H94.6l.37-1.42zm1.95 3.07c.06.53.16 1.55.26 2.7h-2.8c.02-.45.05-.88.07-1.27h2.6v-.14h-2.6c.03-.55.06-1 .08-1.3h2.39zm2.61 1.75l1.15-4.76-.55 4.8-.6-.04zm-.16.12l.18.01-1.78 7.36-.3.85c.07-1.04.12-2.01.12-2.73 0-.24-.01-.52-.02-.81l1.29-5.44.68.02-.17.74zm1.91-.17l1.96-4.91-1.09 4.91h-.87zm-.2.13h.47l-2.46 6.62-1.46 1.56 3.3-9.29.58.04-.43 1.07zm-3.73 8.26zm.08-1.47H94.3c-.02-.42-.04-.81-.05-1.15h3.21c0 .34-.01.73-.03 1.15zm.04-1.22zm-.01 1.29zm0-1.35h-3.21v-.02c-.01-.4-.01-.88 0-1.4h3.16c.03.53.05 1.02.05 1.42zm-.27-4.5c.04.46.08.94.12 1.42h-3c.02-.48.04-.96.07-1.42h2.81zm.13 1.55c.04.48.07.95.09 1.4h-3.16c.01-.44.03-.92.05-1.4h3.02zm-3.01 4.36h3.11c-.02.4-.05.83-.08 1.28h-2.93v.13h2.92c-.03.46-.07.93-.11 1.41h-2.69v.13h2.67c-.04.47-.08.95-.13 1.41h-2.43c-.12-1.47-.25-3.05-.33-4.36zm9.01.59l-6.19 4.65c.07-.66.13-1.36.19-2.06l5.75-6.39c.34.06.59.21.75.45.53.82-.16 2.54-.5 3.35zm-.37-6.28l2.56-4.62-1.69 4.62h-.87zm-.22.13h.24l-1.02 2.2-1.91 2.04 2.72-5.32.51.11-.54.97zm-1.77-13.56l.21-.19c.19.16.35.68.4.88l.04.15a7.27 7.27 0 00-.65-.84zm-10.64.69c.05-.2.21-.72.4-.88l.21.19c-.23.27-.45.55-.65.83l.04-.14zm-1.37 12.74h-.87l-1.69-4.63 2.56 4.63zm.22.13l-.54-.97.51-.11 2.72 5.32-1.91-2.04-1.02-2.2h.24zm5.47 11.21c.03.3.06.58.08.85l-.98-.77c.41-.04.83-.07.83-.07l.07-.01zm-1.32.21l-.6.08-.13-1.09c0-.13.21-.34.39-.34.09 0 .16.05.19.15l.15 1.2zm-1.62.59c-.14.16-.25.3-.35.3h-.02c-.08-.41-.27-.71-.44-.97-.31-.47-.53-.79.25-1.52.58.72 1.02.78 1.35.82l.08.68c-.41.15-.67.45-.87.69zm1.67-1.3c.32 0 .68-.01.79-.01l.29.4c-.21.02-.66.06-1.02.09l-.06-.48zm.68 3.91l-.26.08-.07-.52c.11-.05.22-.09.34-.13l-.01.57zm.62-4.57h2.4c-.1 1-.19 1.94-.28 2.68h-1.86v.08c-.07-.75-.17-1.72-.26-2.76zm2.14 2.75zm1.32 1.98l-.33-.12.07-.57c.11.04.21.08.31.13l-.05.56zm3.2-1.21c-.01.05-.03.1-.03.16 0 .44.37.8.83.8.3 0 .58-.16.72-.41l.23 1.49 1.02-.15-.09-.52 1.12-.11-1.38 2.35-.88.27v-.51-.13c.01-.34.03-.62-.32-.76l.01-1.13v-.07h-.77l.01.92c-.37.02-.96.27-.99 1.17v1.13l-1.6.5v-3.21h-.01l.02-.62-.1.03 2.21-1.2zm-11.23 5.4h.04c.11 0 .24-.07.34-.21.1-.13.16-.28.16-.41l-.01-1.45a.52.52 0 00-.15-.35c-.13-.14-.34-.26-.48-.27h-.01c-.2 0-.58.36-.6.69v.72c.02.2.22 1.2.71 1.28zm-.11-2.55c.08 0 .26.09.38.23.06.06.12.15.12.26l.01 1.45c0 .1-.05.23-.13.33s-.18.16-.25.16c-.35-.06-.57-.85-.6-1.15v-.71c.01-.27.34-.57.47-.57v-.07.07zm-4.27 5.35c.33 0 .62-.09.81-.27.31-.28.57-.85.4-1.44-.1-.36-.46-1.01-1.72-1.26l-.42-.36-.02-.01c-.12-.05-.24-.03-.32.06-.22.22-.22.82-.22.84v.07l.77.01c.18.09.34.29.38.48.02.07.02.17-.05.24 0 0-.02.02-.12.02-.14 0-.35-.04-.57-.08-.24-.04-.48-.09-.66-.09-.07 0-.26 0-.31.14v.04c.17 1.01 1.18 1.61 2.05 1.61zm-1.75-1.65c.17 0 .41.04.64.08.23.04.44.08.6.08.11 0 .18-.02.22-.07.08-.09.11-.21.08-.36a.917.917 0 00-.45-.57l.16-.35c.86.18 1.43.59 1.59 1.16.15.53-.08 1.05-.37 1.31-.16.15-.42.23-.72.23-.81 0-1.75-.56-1.93-1.49.02-.01.07-.02.18-.02zm.74-1.57l.39.33-.18.4-.55-.01c.01-.19.05-.55.18-.69.03-.05.09-.05.16-.03zm.46.32zm-14.33.16l.06-.02.06-.02-.11-.46-.4-1.67.49.45.49 1.04.24.52.12-.06-.23-.5-.36-.78.75.69.39.35.02.02.98-.15-.1-.09c-.01-.01-.17-.15-.39-.34l-.24-.21.34.18.58.31.06-.11-.46-.24-.97-.52c-.32-.28-.66-.58-.97-.84l2.68 1.16.7.3.03-.06.03-.06-.55-.24-3.21-1.39c-.29-.26-.52-.45-.58-.5l-.21-.81-.08.05c-.01.01-.19.13-.36.26l-3.55-2.94c-.01-.01-.1-.1-.22-.1-.06 0-.12.03-.17.08-.05.05-.07.11-.07.17.01.12.11.22.12.23l.03.03 1.53 1.26 1.95 1.61c-.15.19-.31.45-.31.46l-.06.09.9.04.51.46.44 1.87.1.48zm-5.02-6.38a.304.304 0 01-.08-.14c0-.03.01-.05.03-.08a.09.09 0 01.08-.04c.05 0 .11.05.13.07l3.53 2.92c-.06.05-.11.09-.15.13-.01.01-.02.03-.03.04l-3.51-2.9zm3.64 2.95c.12-.11.39-.31.53-.4l.18.67.02.01c.88.76 2.45 2.12 2.87 2.49l-.65.1-2.57-2.35-.73-.03c.08-.14.24-.38.35-.49zm14.04 6.86c.33 0 .59-.26.59-.58 0-.32-.27-.58-.59-.58-.33 0-.6.26-.6.58 0 .32.27.58.6.58zm.46-.58c0 .25-.21.45-.46.45a.45.45 0 01-.46-.45c0-.25.21-.45.46-.45s.46.2.46.45zm-1.82-.38c.33 0 .59-.26.59-.58s-.27-.58-.59-.58c-.33 0-.6.26-.6.58s.27.58.6.58zm.47-.58c0 .25-.21.45-.46.45-.26 0-.46-.2-.46-.45s.21-.45.46-.45.46.2.46.45zm-2.29 1.2c.33 0 .6-.26.6-.58s-.27-.58-.6-.58c-.33 0-.59.26-.59.58s.26.58.59.58zm0-1.02c.26 0 .46.2.46.45s-.21.45-.46.45a.45.45 0 01-.46-.45c-.01-.25.2-.45.46-.45zm-6.38 1.74c.33 0 .59-.26.59-.58 0-.14-.06-.25-.14-.35.04.01.08.02.12.02.07 0 .13-.02.19-.04-.1.1-.17.25-.17.4 0 .32.27.58.6.58.31 0 .57-.24.59-.54.02.3.27.54.59.54.33 0 .6-.26.6-.58 0-.21-.12-.38-.29-.48.05.02.11.03.17.03.11 0 .21-.04.3-.09-.1.1-.17.24-.17.4 0 .32.27.58.59.58.33 0 .6-.26.6-.58s-.27-.58-.6-.58a.62.62 0 00-.3.09c.1-.1.17-.24.17-.4 0-.32-.27-.58-.59-.58-.03 0-.06.01-.09.02.07-.09.12-.2.12-.33 0-.32-.27-.58-.6-.58-.24 0-.44.14-.54.34a.588.588 0 00-.55-.35c-.33 0-.6.26-.6.58 0 .32.27.58.6.58.24 0 .44-.14.54-.34.09.21.3.35.55.35.03 0 .06-.01.09-.02-.05.06-.08.14-.1.22-.1-.19-.3-.33-.53-.33-.29 0-.52.2-.57.47a.585.585 0 00-.58-.52c-.33 0-.59.26-.59.58 0 .14.06.25.14.35-.04-.01-.08-.02-.12-.02-.33 0-.6.26-.6.58s.25.58.58.58zm.46-.58c0 .25-.21.45-.46.45a.45.45 0 01-.46-.45c0-.25.21-.45.46-.45s.46.21.46.45zm-.35-.9c0-.25.21-.45.46-.45.26 0 .46.2.46.45s-.21.45-.46.45c-.25-.01-.46-.21-.46-.45zm1.62-.4c.26 0 .46.2.46.45s-.21.45-.46.45a.45.45 0 01-.46-.45c0-.25.21-.45.46-.45zm.17 1.34c0-.25.21-.45.46-.45.26 0 .46.2.46.45s-.21.45-.46.45c-.25-.01-.46-.21-.46-.45zm-.71.44a.45.45 0 01-.46-.45c0-.25.21-.45.46-.45a.45.45 0 110 .9zm.54-.76c.06 0 .11-.02.17-.03-.07.09-.11.19-.12.31a.606.606 0 00-.11-.29c.02 0 .04.01.06.01zm-.54-.26c-.07 0-.13.02-.19.04.08-.08.13-.18.15-.29.01.1.05.19.11.27-.03-.01-.05-.02-.07-.02zm1.17 0c-.06 0-.11.02-.17.03.05-.07.09-.15.11-.23.05.1.13.18.23.23-.05-.01-.11-.03-.17-.03zm-.55-1.34c0-.25.21-.45.46-.45.26 0 .46.2.46.45s-.21.45-.46.45-.46-.2-.46-.45zm1.02.44c.26 0 .46.2.46.45s-.21.45-.46.45a.45.45 0 01-.46-.45c0-.25.21-.45.46-.45zm.26 1.34c0-.25.21-.45.46-.45.26 0 .46.2.46.45s-.21.45-.46.45c-.25-.01-.46-.21-.46-.45zm-1.9-1.35a.45.45 0 01-.46-.45c0-.25.21-.45.46-.45a.45.45 0 110 .9zM86 115.44c-.27 0-.3.14-.3.21 0 .19.19.24.34.28.13.03.21.06.21.12 0 .04-.07.07-.18.1-.13.04-.29.08-.29.24 0 .13.13.22.34.22.17 0 .37-.05.51-.13.09.2.28.31.51.31.23 0 .47-.12.65-.32.15.12.35.24.6.24.21 0 .44-.08.69-.26.11.14.33.27.57.27.15 0 .38-.05.56-.29l.14-.01c.13.23.38.38.67.38.21 0 .42-.08.58-.23.13.12.36.11.55-.03.12.14.28.22.46.22.15 0 .3-.06.42-.15.09.15.3.23.49.23.14 0 .26-.04.34-.13.06.09.17.14.31.14.16 0 .33-.08.33-.22 0-.17-.13-.22-.22-.25s-.11-.04-.11-.08c0-.05.07-.07.18-.11.12-.04.27-.08.27-.23 0-.14-.12-.23-.3-.23-.12 0-.24.04-.33.12l-.06-.04c-.18-.11-.33-.21-.49-.21-.09 0-.17.03-.25.1a.984.984 0 00-.64-.25c-.22 0-.41.09-.53.25-.08-.07-.16-.11-.24-.11-.06 0-.15.03-.23.13-.38-.35-.81-.35-1.21.02-.16-.18-.46-.3-.75-.3-.21 0-.39.06-.51.17-.53-.45-1.05-.4-1.44.15a.746.746 0 01-.12-.07c-.12-.07-.24-.15-.39-.15-.13 0-.27.06-.43.18-.11-.16-.46-.28-.7-.28zm1.48.36c.06.03.12.07.18.1l.05.02.03-.05c.36-.54.82-.58 1.32-.13l.05.04.04-.05c.1-.11.26-.17.46-.17.29 0 .57.12.69.3l.04.06.05-.05c.39-.39.77-.39 1.14-.01l.06.06.04-.08c.03-.06.09-.13.16-.13.06 0 .13.05.2.13l.06.08.05-.09c.12-.21.32-.26.46-.26.22 0 .45.1.59.25l.05.05.05-.05c.17-.19.36-.08.61.09l.14.09.04-.03a.43.43 0 01.28-.11c.08 0 .16.03.16.1 0 .05-.07.07-.18.11-.12.04-.27.08-.27.23 0 .13.11.17.19.2.1.03.13.05.13.12 0 .04-.09.09-.2.09-.05 0-.2-.01-.23-.15l-.04-.16-.08.15c-.07.14-.23.15-.3.15-.19 0-.37-.1-.4-.23l-.03-.13-.09.11c-.09.11-.24.18-.39.18-.16 0-.3-.08-.4-.22l-.04-.06-.05.04c-.18.14-.38.16-.47.04l-.05-.07-.06.06a.73.73 0 01-.53.24c-.25 0-.47-.13-.57-.34l-.02-.04-.28.01-.02.03c-.16.22-.35.26-.48.26-.23 0-.43-.14-.5-.26l-.04-.06-.06.04c-.25.18-.47.27-.67.27-.19 0-.36-.08-.57-.25l-.05-.04-.04.05c-.17.2-.38.32-.6.32a.42.42 0 01-.42-.3l-.03-.09-.07.05c-.12.09-.33.15-.5.15-.1 0-.21-.02-.21-.09 0-.06.08-.08.19-.11.12-.03.27-.08.27-.22 0-.16-.17-.2-.31-.24-.15-.04-.24-.07-.24-.15 0-.07.1-.08.17-.08.25 0 .6.15.66.28l.04.08.07-.06c.15-.13.28-.2.4-.2.16 0 .26.06.37.13zm.95.48c.25 0 .44-.13.44-.29s-.19-.29-.44-.29-.44.13-.44.29.19.29.44.29zm0-.45c.18 0 .31.08.31.16s-.13.16-.31.16-.31-.08-.31-.16.12-.16.31-.16zm-1.24.57c.21 0 .38-.11.38-.25s-.17-.25-.38-.25-.38.11-.38.25.17.25.38.25zm0-.38c.14 0 .25.06.25.12s-.11.12-.25.12-.25-.06-.25-.12.11-.12.25-.12zm4.63.35c.14 0 .26-.1.26-.23s-.12-.23-.26-.23-.26.1-.26.23.12.23.26.23zm0-.33c.07 0 .13.05.13.1s-.06.1-.13.1-.13-.04-.13-.1.06-.1.13-.1zm.79.36c.2 0 .36-.14.36-.32s-.16-.32-.36-.32-.36.14-.36.32.16.32.36.32zm0-.51c.13 0 .23.09.23.19s-.1.19-.23.19-.23-.09-.23-.19.1-.19.23-.19zm-2.94.53c.22 0 .4-.16.4-.35s-.18-.35-.4-.35-.4.16-.4.35.18.35.4.35zm0-.57c.15 0 .27.1.27.22s-.12.22-.27.22-.27-.1-.27-.22.12-.22.27-.22zm1.35.57c.23 0 .4-.13.4-.29s-.18-.29-.4-.29c-.23 0-.4.13-.4.29s.17.29.4.29zm0-.45c.15 0 .27.08.27.16s-.13.16-.27.16c-.15 0-.27-.07-.27-.16s.12-.16.27-.16zm2.51.54c.16 0 .28-.14.28-.3 0-.17-.13-.3-.28-.3-.16 0-.28.14-.28.3 0 .16.13.3.28.3zm0-.48c.08 0 .15.08.15.17 0 .1-.07.17-.15.17-.08 0-.15-.08-.15-.17 0-.09.07-.17.15-.17zm8.98-4.85v-.72c-.01-.32-.4-.68-.6-.68h-.01c-.13.01-.34.13-.48.27-.1.11-.16.23-.15.35l-.01 1.46c0 .29.26.62.5.62h.04c.49-.1.69-1.1.71-1.3zm-.6-1.27c.13 0 .46.3.47.56v.71c-.03.31-.25 1.1-.6 1.16h-.02c-.15 0-.37-.26-.37-.49l.01-1.46c0-.1.06-.2.12-.25.13-.15.31-.23.39-.23v-.07.07zm4.27 5.35c.87 0 1.88-.61 2.06-1.62v-.04c-.04-.14-.24-.14-.31-.14-.18 0-.43.04-.66.09-.22.04-.43.08-.57.08-.1 0-.12-.02-.12-.02-.07-.07-.06-.17-.05-.24.04-.19.2-.39.38-.48l.77-.01v-.07c0-.03 0-.62-.22-.84a.274.274 0 00-.32-.06l-.44.37c-1.26.25-1.62.9-1.72 1.26-.16.59.09 1.16.4 1.44.18.19.47.28.8.28zm-1.08-1.67c.16-.57.73-.98 1.59-1.16l.16.35c-.21.1-.4.34-.45.57-.03.14 0 .27.08.36.04.04.11.07.22.07.15 0 .37-.04.6-.08.23-.04.47-.08.64-.08.11 0 .16.02.18.04-.18.93-1.11 1.49-1.92 1.49-.3 0-.55-.08-.72-.23-.3-.28-.53-.79-.38-1.33zm1.63-1.23zm.63-.29c.13.13.17.49.18.69l-.55.01-.18-.4.39-.33c.06-.02.11-.02.16.03zm9.92-.65l.03.06.03.06.64-.28 2.74-1.19c-.31.27-.65.57-.97.84l-1.05.56-.38.21.06.11.5-.27.42-.23c-.11.1-.21.18-.3.26-.19.17-.32.28-.33.29l-.09.09.98.15.35-.32.8-.74-.4.84-.2.43.12.06.21-.45.52-1.11.49-.45-.42 1.76-.09.37.06.02.06.02.08-.35.47-1.97.51-.46.9-.04-.06-.09c-.01-.01-.16-.27-.31-.46l1.95-1.61 1.53-1.26.04-.03c.08-.07.19-.25.05-.4a.246.246 0 00-.17-.08c-.12 0-.21.09-.21.1l-3.56 2.94c-.17-.13-.35-.25-.37-.26l-.08-.05-.21.81c-.06.06-.29.25-.58.5l-3.26 1.41-.5.21zm4.46-2.06l.18-.67c.13.09.41.29.53.4.11.1.27.35.35.48l-.7.03h-.02l-2.57 2.35-.65-.1c.42-.36 1.99-1.73 2.87-2.49h.01zm4.3-3.48c.03 0 .05.01.08.04.08.09-.03.2-.04.21l-3.51 2.9c-.01-.01-.02-.03-.03-.04-.04-.04-.09-.08-.15-.13l3.54-2.93c.01 0 .06-.05.11-.05zm-18.23 9.49c0 .32.27.58.59.58.33 0 .59-.26.59-.58 0-.32-.27-.58-.59-.58-.33 0-.59.26-.59.58zm.59-.45c.26 0 .46.2.46.45s-.21.45-.46.45a.45.45 0 01-.46-.45c0-.25.21-.45.46-.45zm1.36.07c.33 0 .59-.26.59-.58s-.27-.58-.59-.58c-.33 0-.59.26-.59.58s.26.58.59.58zm.46-.58c0 .25-.21.45-.46.45-.26 0-.46-.2-.46-.45s.21-.45.46-.45.46.2.46.45zm1.36 1.2c.33 0 .59-.26.59-.58s-.27-.58-.59-.58c-.33 0-.59.26-.59.58s.26.58.59.58zm.47-.57c0 .25-.21.45-.46.45a.45.45 0 01-.46-.45c0-.25.21-.45.46-.45s.46.2.46.45zm2.35 1.18c.33 0 .59-.26.59-.58 0-.16-.07-.3-.17-.4.09.05.19.09.3.09.06 0 .11-.02.17-.03-.17.1-.29.28-.29.48 0 .32.27.58.59.58.32 0 .57-.24.59-.54.02.3.27.54.59.54.33 0 .59-.26.59-.58 0-.16-.07-.3-.17-.4.06.02.12.04.19.04.04 0 .08-.02.12-.02a.57.57 0 00-.14.35c0 .32.27.58.59.58s.59-.26.59-.58-.27-.58-.59-.58c-.04 0-.08.02-.12.02.08-.1.14-.22.14-.35 0-.32-.27-.58-.59-.58-.31 0-.56.23-.58.53a.572.572 0 00-.57-.47c-.24 0-.43.14-.53.33a.625.625 0 00-.1-.22c.03 0 .06.02.09.02.25 0 .46-.15.55-.35.09.2.3.34.54.34.33 0 .59-.26.59-.58 0-.32-.27-.58-.59-.58-.25 0-.46.15-.55.35-.09-.2-.3-.34-.54-.34-.33 0-.59.26-.59.58 0 .13.05.23.12.33-.03 0-.06-.02-.09-.02-.33 0-.59.26-.59.58 0 .16.07.3.17.4a.62.62 0 00-.3-.09c-.33 0-.59.26-.59.58s.25.57.58.57zm0-1.02c.26 0 .46.2.46.45s-.21.45-.46.45c-.26 0-.46-.2-.46-.45s.21-.45.46-.45zm1.28-1.78c.26 0 .46.2.46.45s-.21.45-.46.45c-.26 0-.46-.2-.46-.45s.21-.45.46-.45zm-.09 1.34c0 .25-.21.45-.46.45a.45.45 0 01-.46-.45c0-.25.21-.45.46-.45s.46.2.46.45zm.06.25c.02.09.05.17.11.24a.467.467 0 00-.17-.03c-.06 0-.11.02-.17.03.1-.06.18-.14.23-.24zm1.04-.11c0 .25-.21.45-.46.45a.45.45 0 01-.46-.45c0-.25.21-.45.46-.45s.46.2.46.45zm.69-.5c.26 0 .46.2.46.45s-.21.45-.46.45a.45.45 0 01-.46-.45c0-.25.21-.45.46-.45zm-.61 1.83a.45.45 0 01-.46-.45c0-.25.21-.45.46-.45a.45.45 0 110 .9zm-1.64-.44c0-.25.21-.45.46-.45.26 0 .46.2.46.45s-.21.45-.46.45c-.25-.01-.46-.21-.46-.45zm1.1-.32c.02 0 .04-.01.06-.01a.57.57 0 00-.11.29.564.564 0 00-.12-.31c.05.02.11.03.17.03zm.47-.25c.06-.08.1-.17.11-.27.02.11.07.22.15.3-.06-.02-.12-.04-.19-.04-.02 0-.04.01-.07.01zm1.73.53c0 .25-.21.45-.46.45a.45.45 0 01-.46-.45c0-.25.21-.45.46-.45s.46.21.46.45zm-1.2-1.9c0 .25-.21.45-.46.45a.45.45 0 01-.46-.45c0-.25.21-.45.46-.45.26 0 .46.21.46.45zm-19.69 2.35c.11.03.18.06.18.11 0 .03-.02.05-.11.08s-.22.08-.22.25c0 .14.17.22.33.22.13 0 .24-.05.31-.14.08.08.2.13.34.13.18 0 .39-.08.49-.23.11.1.26.15.42.15.18 0 .34-.08.46-.22.2.13.42.15.56.03.16.15.36.23.57.23.28 0 .54-.14.67-.38l.14.01c.19.24.41.29.56.29.25 0 .46-.13.57-.27.25.17.48.26.69.26.25 0 .45-.12.6-.24.19.2.42.32.65.32.23 0 .42-.12.51-.31.22.12.57.17.73.09.07-.04.11-.1.11-.17 0-.16-.16-.2-.29-.24-.11-.03-.18-.05-.18-.1s.08-.08.21-.12c.15-.04.34-.09.34-.28 0-.06-.03-.21-.3-.21-.25 0-.6.12-.74.29-.15-.12-.29-.18-.43-.18-.15 0-.27.07-.39.15-.04.02-.08.05-.12.07-.39-.54-.91-.6-1.44-.15-.12-.11-.3-.17-.51-.17-.3 0-.59.12-.75.3-.41-.37-.83-.37-1.21-.02-.08-.1-.17-.13-.23-.13-.08 0-.16.04-.24.11a.646.646 0 00-.53-.25c-.23 0-.47.09-.64.25a.364.364 0 00-.25-.1c-.16 0-.31.1-.48.21-.02.01-.04.03-.06.04a.537.537 0 00-.33-.12c-.17 0-.3.1-.3.23.04.13.19.17.31.21zm.02-.34c.1 0 .2.04.28.11l.04.03.04-.03c.03-.02.07-.04.1-.06.25-.16.44-.27.61-.08l.05.05.05-.05a.84.84 0 01.59-.25c.15 0 .34.04.46.26l.05.09.06-.08c.06-.08.14-.13.2-.13.07 0 .13.07.16.13l.04.08.06-.06c.36-.37.75-.37 1.14.01l.06.05.04-.06c.13-.18.41-.3.69-.3.2 0 .36.06.46.17l.04.05.05-.04c.5-.45.96-.41 1.32.13l.03.05.05-.02c.06-.03.12-.06.18-.1.11-.06.21-.13.32-.13.12 0 .25.07.4.2l.07.06.04-.08c.06-.13.41-.28.66-.28.06 0 .17.01.17.08 0 .08-.09.11-.24.15-.14.04-.31.08-.31.24 0 .15.15.19.27.22.12.03.19.06.19.11 0 .01 0 .03-.04.06a.38.38 0 01-.16.03c-.17 0-.38-.06-.5-.15l-.07-.05-.03.09c-.06.19-.21.3-.42.3s-.43-.12-.6-.32l-.04-.05-.05.04c-.21.18-.38.25-.57.25-.2 0-.42-.09-.67-.27l-.06-.04-.04.06c-.07.13-.27.26-.5.26a.6.6 0 01-.48-.26l-.02-.03-.28-.01-.02.04c-.1.21-.32.34-.57.34-.2 0-.39-.08-.53-.24l-.06-.06-.05.07c-.05.07-.12.09-.17.09-.09 0-.2-.04-.3-.12l-.05-.04-.04.06c-.1.14-.24.22-.4.22-.15 0-.3-.07-.39-.18l-.09-.11-.03.13c-.03.13-.2.23-.4.23-.07 0-.23-.01-.3-.15l-.08-.15-.04.16c-.04.14-.19.15-.23.15-.11 0-.2-.05-.2-.09 0-.07.04-.09.13-.12.08-.03.19-.07.19-.2 0-.15-.15-.2-.27-.23-.11-.03-.18-.06-.18-.11.03-.09.12-.12.19-.12zm2.52.51c.14 0 .26-.1.26-.23s-.11-.23-.26-.23c-.14 0-.26.1-.26.23s.11.23.26.23zm0-.33c.07 0 .13.05.13.1s-.06.1-.13.1-.13-.05-.13-.1c0-.06.06-.1.13-.1zm-.79.36c.2 0 .36-.14.36-.32s-.16-.32-.36-.32c-.2 0-.36.14-.36.32s.16.32.36.32zm0-.51c.13 0 .23.09.23.19s-.1.19-.23.19-.23-.09-.23-.19.1-.19.23-.19zm-.92.62c.16 0 .28-.14.28-.3 0-.17-.13-.3-.28-.3-.16 0-.28.14-.28.3 0 .16.12.3.28.3zm0-.48c.08 0 .15.08.15.17 0 .1-.07.17-.15.17-.08 0-.15-.08-.15-.17 0-.09.06-.17.15-.17zm3.86.39c.22 0 .4-.16.4-.35s-.18-.35-.4-.35-.4.16-.4.35.18.35.4.35zm.27-.35c0 .12-.12.22-.27.22s-.27-.1-.27-.22.12-.22.27-.22.27.1.27.22zm-1.62.35c.23 0 .4-.13.4-.29s-.18-.29-.4-.29c-.23 0-.4.13-.4.29s.17.29.4.29zm0-.45c.15 0 .27.07.27.16s-.13.16-.27.16c-.15 0-.27-.07-.27-.16s.12-.16.27-.16zm2.59.31c.25 0 .44-.13.44-.29s-.19-.29-.44-.29-.44.13-.44.29.2.29.44.29zm0-.45c.18 0 .31.08.31.16s-.13.16-.31.16-.31-.08-.31-.16.13-.16.31-.16zm1.24.57c.21 0 .38-.11.38-.25s-.16-.25-.38-.25c-.21 0-.38.11-.38.25s.17.25.38.25zm0-.38c.14 0 .25.06.25.12s-.11.12-.25.12-.25-.06-.25-.12.11-.12.25-.12zm-8.26-8.82l.02-.08-.09-.01c-.28-.02-.47-.02-.68-.01l-.17.01.01.09.11.64.05.28.57-.01.05-.26.13-.65zm-.32.74l-.3.01-.11-.68c.17-.01.33 0 .55.01l-.14.66zm-25.7 5.79h-.04a.54.54 0 00-.39.24c-.12.2-.14.5-.04.81-.97.27-1.88.59-2.77.89-.83.29-1.62.56-2.42.78.05-.26.48-.81.79-1.15.16.12.3.47.35.6l.13-.02c.06-1.08 1.13-1.82 1.14-1.83l.14-.1-.17-.02c-.67-.09-2.71.68-2.97 1.04l-.09.12.15-.02s.35-.04.6-.04c.08 0 .13 0 .17.01-.31.34-1.48 1.65-1.55 2.1v.02l.01.02c.23.51 2.29.87 2.83.96-.12.13-.43.37-.7.56l-.12.09.14.03c.14.03.29.05.45.05 1.01 0 2.29-.61 2.73-1.03l.1-.1-.14-.01c-.01 0-1.23-.11-2.16-.87l-.1.08c.05.12.15.43.1.61-.51-.15-1.25-.4-1.5-.57.23-.07.82-.22 1.5-.4 1.12-.3 2.64-.7 3.61-.98.09.29.36.76.74.76.05 0 .1-.01.14-.02.27-.09.25-.52.16-.92.08.04.17.06.26.06.34 0 .61-.26.61-.59 0-.33-.28-.59-.61-.59-.2 0-.38.09-.49.24-.12-.41-.3-.81-.59-.81zm1.07.69c.27 0 .48.21.48.46s-.22.46-.48.46c-.12 0-.23-.04-.32-.12l-.16-.14.05.2c.14.52.12.86-.04.92-.35.12-.67-.42-.73-.7l-.01-.07-.07.02c-.96.28-2.53.69-3.67 1-1.64.44-1.64.44-1.65.49l-.01.03.01.02c.17.26 1.54.66 1.7.71l.05.01.02-.05c.08-.16.04-.4-.01-.57.74.53 1.58.7 1.92.75-.5.4-1.62.9-2.53.9-.09 0-.18-.01-.27-.02.24-.18.64-.49.68-.61l.02-.07-.07-.01c-.72-.11-2.6-.48-2.82-.88.09-.41 1.17-1.64 1.58-2.09l.05-.05-.06-.04c-.03-.02-.1-.05-.32-.05-.13 0-.29.01-.41.02.48-.31 1.83-.83 2.52-.87-.28.23-.87.79-1.02 1.56-.08-.17-.2-.39-.36-.46l-.04-.02-.03.03c-.1.1-.93 1.02-.86 1.38l.01.07.07-.02c.82-.23 1.64-.51 2.51-.81.91-.31 1.84-.63 2.83-.91l.07-.02-.02-.07c-.1-.29-.1-.58.01-.76.07-.11.16-.17.3-.18.19-.03.39.3.51.88l.05.23.08-.22c.05-.2.23-.33.44-.33zm0 .78c.18 0 .32-.14.32-.31 0-.17-.14-.31-.32-.31s-.32.14-.32.31c0 .17.14.31.32.31zm.19-.31c0 .1-.09.18-.19.18-.11 0-.19-.08-.19-.18 0-.1.09-.18.19-.18.1-.01.19.08.19.18zm54.33-.04l.11.06c.09-.11.34-.38.53-.45.08.46.18 1.17.13 1.42l-4.62-1.95.04-.08c.08-.11.1-.24.04-.35-.06-.12-.19-.19-.34-.19-.14 0-.28.07-.4.21l-.08.12c-.34-.13-.76-.27-1.05-.27-.25 0-.33.11-.35.2-.09.3.2.61.84.91l-.09.13c-.14.25-.1.41-.05.5.06.11.19.17.34.17.18 0 .36-.09.49-.26l.12-.21 4.9 2.05c-.1.17-.31.62-.06.92l.02.02.91-.02-.01-.07c-.12-.96 1.01-1.22 1.06-1.23l.08-.02-.04-.07c-.1-.19-.24-.37-.4-.57-.24-.3-.5-.64-.66-1.09-.04-.12-.08-.25-.11-.39.22.03.78.22 1 .29l.12.04-.04-.12c-.12-.41-2.3-2.52-2.99-2.66l-.14-.03.07.12c.01.01.64 1.22.68 2.22.03.25.01.46-.05.65zm2.24-.37c-.26-.09-.75-.25-.92-.25-.02 0-.04 0-.05.01l-.05.02.01.06c.11.74.49 1.23.81 1.62.13.16.25.32.34.47-.27.08-1.14.42-1.09 1.28l-.7.01c-.21-.31.13-.81.13-.81l.05-.07-5.03-2.11.36-.67 4.7 1.99.06.02.03-.05c.14-.27-.08-1.49-.11-1.62l-.01-.06-.06.01c-.17.02-.37.18-.51.32.13-.91-.4-2.13-.61-2.54.67.3 2.27 1.83 2.65 2.37zm-6.8.48c-.09.12-.24.2-.38.2-.1 0-.19-.04-.23-.11-.05-.09-.03-.22.05-.37l.72-1.09c.09-.1.19-.16.3-.16.1 0 .18.05.22.12.03.07.02.14-.03.22l-.65 1.19zm-1.3-1.36c.01-.03.03-.1.23-.1.26 0 .65.13.97.25l-.41.62c-.72-.34-.84-.61-.79-.77zm-51.15 4.72l-.04.12 1.99 1.11-2.22.79.22.05c.98.23 2.03.35 3.11.35 3.65 0 6.96-1.33 8.41-2.01v.27l.04.02c.06.02 5.66 2.06 15.43 2.06 9.81 0 15.37-2.04 15.43-2.06l.04-.02v-.64h.79c2.06 1.35 4.78 2.09 7.67 2.09 1.18 0 2.36-.13 3.39-.37l.22-.05-2.32-.79 1.86-1.01-.03-.13c-.69.02-1.34.03-1.93.03-4.61 0-5.9-.61-7.15-1.2-.85-.4-1.72-.81-3.61-1.02-.54-.05-1.02.18-1.2.45h-.06l-.01.17c0 .01-.01.03-.01.04 0 .02 0 .03.01.05l-.02.7c-2.31.55-6.48 1.22-13.06 1.22-6.74 0-10.97-.71-13.24-1.27l-.03-.93-.11.01c-.08-.26-.43-.5-.97-.45-.63.05-1.23.35-1.98.72-1.53.76-3.62 1.81-7.85 1.81-.88.02-1.81-.02-2.77-.11zm13.57-1.06c-.51-.13-.91-.24-1.22-.34.14.02.27.03.39.03.48 0 .72-.15.81-.32l.02.63zm27.56-1.22c.05 0 .1 0 .15.01 1.86.2 2.69.59 3.56 1 1.26.59 2.57 1.21 7.21 1.21.52 0 1.08-.01 1.67-.02l-1.88 1.03 2.17.74c-.97.21-2.04.32-3.13.32-2.87 0-5.58-.74-7.62-2.08l-.02-.01h-.83v-1.63h-.01l-.12.03c-.6.15-1.09.22-1.46.22-.23 0-.42-.03-.54-.09-.09-.04-.13-.1-.13-.17 0-.23.42-.56.98-.56zm-.98.78c.02.02.05.04.08.05.25.13.72.13 1.36.03-.35.11-.83.25-1.45.4l.01-.48zm2.13-.03v2.11c-.53.19-6 2.03-15.34 2.03-9.3 0-14.8-1.85-15.34-2.03v-2.11c.68.27 5.16 1.9 15.34 1.9 10.22 0 14.67-1.62 15.34-1.9zm-28.82-.31c0 .16-.19.34-.72.34-.31 0-.7-.07-1.14-.2l-.13-.04.01.03v1.98c-1.41.67-4.74 2.02-8.41 2.02-.99 0-1.96-.1-2.87-.3l1.93-.69-.01-.08.02-.04-1.85-1.04c.86.07 1.69.11 2.46.11 4.27 0 6.38-1.05 7.91-1.83.74-.37 1.32-.66 1.93-.71.53-.02.87.22.87.45zm10.11 2.47l1.2.05-.01.2-.97-.04-.02.53.84.04-.01.2-.84-.04-.04.78-.24-.01.09-1.71zm17.44-1.63l.06.2-1.01.27.15.51.95-.26.06.19-.95.26.16.56 1.05-.28.06.2-1.28.34-.48-1.66 1.23-.33zm-18.7 1.55l.23.02-.15 1.71-.24-.02-.82-1.42-.11 1.35-.23-.02.15-1.71.24.02.82 1.42.11-1.35zm-4.25-.46l.22.04-.29 1.7-.24-.04-.7-1.48-.23 1.33-.22-.04.29-1.7.24.04.7 1.48.23-1.33zm2.42.39a.897.897 0 00-.43-.16.836.836 0 00-.64.17c-.18.14-.28.36-.32.64-.02.15 0 .3.05.44s.14.26.26.35c.12.09.27.15.43.17.15.02.3 0 .44-.06s.26-.15.34-.28c.09-.13.14-.28.16-.45.02-.17 0-.33-.05-.47a.575.575 0 00-.24-.35zm-.16 1.28c-.13.11-.28.15-.46.13a.556.556 0 01-.41-.23c-.1-.13-.14-.3-.11-.51.03-.26.11-.43.24-.53.13-.1.28-.14.45-.12.12.01.22.05.31.12s.15.16.19.26c.04.11.05.23.03.37-.03.24-.11.4-.24.51zm-3.97-1.95l.23.05-.21.97c-.04.17-.08.3-.14.39a.51.51 0 01-.27.2.77.77 0 01-.43.01.89.89 0 01-.38-.16.459.459 0 01-.17-.28c-.02-.11-.02-.26.02-.44l.21-.97.23.05-.21.97c-.03.15-.04.26-.03.33.01.07.05.14.11.19.06.05.14.09.24.11.17.03.3.02.39-.04.09-.06.15-.2.2-.41l.21-.97zm8.45 2.59zm-10.73-3.08l.24.06-.07.28-.14.3-.13-.03.03-.32.07-.29zm-1.42 1.19l.84.23-.06.2-1.07-.29.49-1.65.23.06-.43 1.45zm6.02-.33l.23.03-.24 1.7-.23-.03.24-1.7zm17.45.28a.725.725 0 00-.35-.27.877.877 0 00-.46-.05c-.25.03-.44.14-.57.32-.13.18-.18.41-.14.7.02.15.08.29.16.41.09.12.2.22.34.28.14.06.3.08.46.05.15-.02.29-.08.41-.16.12-.09.21-.21.26-.35.05-.15.07-.31.04-.48 0-.18-.06-.33-.15-.45zm-.16 1c-.1.13-.23.21-.41.24a.632.632 0 01-.46-.12c-.13-.1-.21-.26-.24-.46-.04-.26-.01-.45.1-.57.1-.13.24-.2.4-.22.12-.02.23 0 .33.04s.18.11.25.21c.06.1.11.21.13.35.03.22-.01.4-.1.53zm-1.63-.96l-.96.1.06.53.83-.09.02.2-.83.09.09.78-.23.02-.2-1.71 1.19-.13.03.21zm3.31.33a.912.912 0 00-.16-.06c.16-.05.28-.13.34-.22.07-.1.09-.2.06-.32a.545.545 0 00-.12-.24.41.41 0 00-.23-.13.923.923 0 00-.36.02l-.78.14.32 1.69.23-.04-.14-.75.27-.05c.06-.01.1-.02.13-.01.04 0 .08.01.11.03.04.02.09.05.14.09.05.05.12.11.21.2l.3.31.29-.05-.39-.41a.692.692 0 00-.22-.2zm-.36-.2l-.5.09-.11-.56.55-.1c.13-.02.23-.01.3.03.07.04.11.1.13.18.01.05 0 .11-.02.16s-.06.09-.12.13c-.05.02-.13.05-.23.07zm2.31-.1l.24.01a.78.78 0 01-.16.47c-.1.12-.24.2-.43.24-.19.04-.35.04-.48-.01a.779.779 0 01-.34-.26c-.09-.13-.16-.27-.2-.43a.974.974 0 010-.48c.04-.15.11-.27.23-.36.11-.1.24-.16.4-.19.17-.04.33-.03.47.03.14.06.25.16.33.31l-.21.1c-.07-.11-.15-.19-.24-.23s-.19-.05-.31-.02c-.13.03-.24.08-.31.17-.08.08-.12.18-.13.29a.92.92 0 00.02.33c.03.14.08.26.15.36.07.1.15.16.26.19.1.03.21.04.31.01a.51.51 0 00.3-.18c.07-.09.1-.2.1-.35zm-12.89.18h.24v1.72h-.24v-1.72zm-1.18-.01l-.72 1.71.25.01.21-.52.74.01.2.52.27.01-.69-1.73-.26-.01zm-.19 1l.21-.5c.04-.11.08-.22.1-.33l.12.36.18.48-.61-.01zm5.98-1.13l-.56 1.76.25-.02.16-.53.74-.05.25.51.27-.02-.85-1.66-.26.01zm.51.98l-.6.04.16-.52c.03-.11.06-.22.07-.33.03.09.09.21.15.35l.22.46zm-3.21-.65l-.59.01.02 1.52h-.24l-.02-1.52-.59.01v-.2l1.41-.02.01.2zm2.05 1.23l.01.2-1.11.05-.08-1.72.24-.01.07 1.51.87-.03z"/><g><path fill="none" d="M172 160V32c0-6.6-5.4-12-12-12H32c-6.6 0-12 5.4-12 12v128c0 6.6 5.4 12 12 12h128c6.6 0 12-5.4 12-12z" opacity=".4"/><path fill="none" d="M0 0v192h192V0H0z"/><path fill="#DFDFDF" d="M160 20c6.6 0 12 5.4 12 12v128c0 6.6-5.4 12-12 12H32c-6.6 0-12-5.4-12-12V32c0-6.6 5.4-12 12-12h128m0-8H32c-11.03 0-20 8.97-20 20v128c0 11.03 8.97 20 20 20h128c11.03 0 20-8.97 20-20V32c0-11.03-8.97-20-20-20z"/><path fill="#FFF" fill-opacity=".2" d="M160 20H32c-6.6 0-12 5.4-12 12v1c0-6.6 5.4-12 12-12h128c6.6 0 12 5.4 12 12v-1c0-6.6-5.4-12-12-12z"/><path fill="#212121" fill-opacity=".1" d="M160 172H32c-6.6 0-12-5.4-12-12v-1c0 6.6 5.4 12 12 12h128c6.6 0 12-5.4 12-12v1c0 6.6-5.4 12-12 12z"/><radialGradient id="a" cx="23.768" cy="23.933" r="204.625" gradientUnits="userSpaceOnUse"><stop offset="0" stop-color="#fff" stop-opacity=".1"/><stop offset="1" stop-color="#fff" stop-opacity="0"/></radialGradient><path fill="url(#a)" d="M160 172H32c-6.6 0-12-5.4-12-12V32c0-6.6 5.4-12 12-12h128c6.6 0 12 5.4 12 12v128c0 6.6-5.4 12-12 12z"/></g></svg>