<?xml version="1.0" encoding="utf-8"?>
<!-- Generator: Adobe Illustrator 23.0.3, SVG Export Plug-In . SVG Version: 6.00 Build 0)  -->
<svg version="1.1" id="Layer_1" xmlns="http://www.w3.org/2000/svg" xmlns:xlink="http://www.w3.org/1999/xlink" x="0px" y="0px"
	 viewBox="0 0 192 192" style="enable-background:new 0 0 192 192;" xml:space="preserve">
<style type="text/css">
	.st0{fill:#FFFFFF;}
	.st1{fill:#CF142B;}
	.st2{fill:none;}
	.st3{fill:#DFDFDF;}
	.st4{fill:#FFFFFF;fill-opacity:0.2;}
	.st5{fill:#212121;fill-opacity:0.1;}
	.st6{fill:url(#SVGID_1_);}
	.st7{fill:#F9DD16;stroke:#000000;}
	.st8{fill:#FFFFFF;stroke:#000000;stroke-width:1.3;}
	.st9{fill:#F9DD16;}
	.st10{fill:none;stroke:#000000;stroke-width:1.13;}
	.st11{fill:none;stroke:#000000;}
	.st12{fill:#F9DD16;stroke:#000000;stroke-width:1.3;}
</style>
<path class="st0" d="M160,20H32c-6.6,0-12,5.4-12,12v36h152V32C172,25.4,166.6,20,160,20z"/>
<path class="st1" d="M160,20H32c-6.6,0-12,5.4-12,12v92v36c0,6.6,5.4,12,12,12h128c6.6,0,12-5.4,12-12v-36V32
	C172,25.4,166.6,20,160,20z"/>
<g>
	<path class="st2" d="M172,160V32c0-6.6-5.4-12-12-12H32c-6.6,0-12,5.4-12,12v128c0,6.6,5.4,12,12,12h128
		C166.6,172,172,166.6,172,160z"/>
	<path class="st2" d="M0,0v192h192V0H0z"/>
	<path class="st3" d="M160,20c6.6,0,12,5.4,12,12v128c0,6.6-5.4,12-12,12H32c-6.6,0-12-5.4-12-12V32c0-6.6,5.4-12,12-12H160 M160,12
		H32c-11,0-20,9-20,20v128c0,11,9,20,20,20h128c11,0,20-9,20-20V32C180,21,171,12,160,12z"/>
	<path class="st4" d="M160,20H32c-6.6,0-12,5.4-12,12v1c0-6.6,5.4-12,12-12h128c6.6,0,12,5.4,12,12v-1C172,25.4,166.6,20,160,20z"/>
	<path class="st5" d="M160,172H32c-6.6,0-12-5.4-12-12v-1c0,6.6,5.4,12,12,12h128c6.6,0,12-5.4,12-12v1C172,166.6,166.6,172,160,172
		z"/>
	
		<radialGradient id="SVGID_1_" cx="23.768" cy="167.957" r="204.625" gradientTransform="matrix(1 0 0 -1 0 191.89)" gradientUnits="userSpaceOnUse">
		<stop  offset="0" style="stop-color:#FFFFFF;stop-opacity:0.1"/>
		<stop  offset="1" style="stop-color:#FFFFFF;stop-opacity:0"/>
	</radialGradient>
	<path class="st6" d="M160,172H32c-6.6,0-12-5.4-12-12V32c0-6.6,5.4-12,12-12h128c6.6,0,12,5.4,12,12v128
		C172,166.6,166.6,172,160,172z"/>
</g>
<g>
	<g id="leg">
		<path class="st7" d="M48.1,73.9c0.1,0.1,1.9,1.2,1.9,1.1c0-0.1,4.5-1.1,4.5-1c0,0.1-2.5,3-2.4,3.1c0.1,0.1,2.6,3,2.7,3.1
			c0.1,0-4.7-0.4-4.7-0.4l-3.2,2.5L46.2,79c0,0-4-1.4-4-1.4c-0.1,0,3.4-1.2,3.4-1.2l1-2.7C46.6,73.7,47.9,74,48.1,73.9L48.1,73.9z"
			/>
		<path class="st8" d="M106.2,80.4c0-2.8-5.5-15.4-6.4-17.3c-1.7-2.1-3.5-5.4-4.2-8.3c-0.5-2.9-2-5.2-4.2-6c-2.5-1.3-5-0.8-7.4-0.6
			c-1.2,0.2-2.2,0.9-2.7,1.8c-1.3,1.8-2,1.7-2.9,2.5C71.1,53.6,64.2,57.4,59,60c-2.8,1.9-5.1,3.1-6.2,3.3c-3,0-5.1-1.4-6.2-2.1
			c-3.4-3.1-6.7-6.1-10.1-9.2c-2.9-2.2-3.6,1-3.1,1.4c1,2.1-1.1,3.4,6.9,10.9c1,2.1,2,4.1,3,6.2c0,0-0.2,1.7,0,1.8
			c1.5,3.5,3.8,2.6,4.9,1.6c0.8-0.7,1.6-1.4,2.4-2.2c0,0,4.7-1.5,4.8-1.6c5,0.8,18-1.7,20.2-2.7c1.9-1.1,2.1-0.2,3.7-1.5
			c1.4-0.9,0.6-0.2,3.2-2.6c0.8-0.7,1.4,0.4,1.6,1.2c0.1,7.3,1,12,1.7,19.3l11,5.6L106.2,80.4z"/>
		<path class="st9" d="M42.7,58.1c0.1,0.1-1.8,6.3-1.8,6.3s-1.8-1.8-1.8-1.8l1.2-6.6L42.7,58.1z"/>
		<g>
			<path class="st10" d="M42.8,57.9c-0.1,0.4-0.5,2.3-0.6,2.8c-0.1,0.6-0.3,1.1-0.4,1.7c-0.2,0.6-0.3,1-0.5,1.7
				c-0.1,0.5-0.2,1.1-0.3,1.6 M39.8,55c0,0.1,0.2,0.6,0.2,1c-0.1,0.4-0.2,1.8-0.3,2.2c-0.1,0.5-0.2,1-0.3,1.6
				c-0.1,0.6-0.2,0.9-0.4,1.5c0,0.5-0.1,1-0.2,1.5"/>
			<path class="st11" d="M71.9,54.4c2.4,2.6,3.1,6.9,2.7,9.2"/>
			<path class="st11" d="M62.8,69.9C62.8,69.9,62.8,69.8,62.8,69.9c-0.1,0.2,0,0-0.2-0.5c-0.3-0.3-0.5-1.7,0-2.5
				c0.2-0.4,0.4-1,0.6-1.4c0.1-0.1,0.2-0.2,0.3-0.3"/>
			<path class="st11" d="M46,61.1C46,61.1,46,61.1,46,61.1c0,0-0.2,0.3-0.2,0.4c-0.2,0.4-0.5,0.8-0.7,1.2c-0.2,0.4-0.5,0.8-0.8,1.2
				c-0.3,0.4-0.5,0.9-0.8,1.3c-0.3,0.5-0.6,0.8-0.8,1.3c-0.2,0.4-0.4,0.6-0.6,1l0.6-1c-0.2,0.4-0.4,0.6-0.6,1"/>
			<path class="st11" d="M37.5,53.1c0,0.1,0.2,0.6,0.2,1c-0.1,0.4-0.1,1.6-0.2,2.1c-0.1,0.5-0.2,1-0.2,1.4c-0.1,0.5-0.2,0.9-0.3,1.4
				c0,0.5-0.1,0.9-0.2,1.4"/>
			<path class="st11" d="M47.7,68.1c-0.6-0.6-0.9-0.4-1.2-0.4c-0.4,0.1-1.1,0.4-1.8,1.1c-0.3,0.3-0.5,0.5-0.8,0.8
				c-0.2,0.2-0.3,0.3-0.5,0.5"/>
			<path class="st11" d="M89.1,48.6C89.1,48.6,89.1,48.6,89.1,48.6c0.1-0.2,0,0,0.1,0.6c0.2,0.4,0.2,0.7,0.4,1.1"/>
			<path class="st11" d="M80.6,50.8c0,0.1-0.1,6,0.1,6.8c0.1,0.5,0.2,0.9,0.3,1.5c0,0.4,0.1,0.6,0.1,1c0.2,0.4,0.2,0.8,0.4,1.1
				c0.1,0.4,0.4,0.4,0.6,0.8c0.3,0.3,0.7,0.7,0.9,1"/>
			<path class="st11" d="M76.4,67.1c-0.2-0.1-0.7-0.4-1.1-0.6c-0.5-0.3-1.6-1.6-1.6-2.5"/>
			<path class="st11" d="M80.9,58.7c0,0-0.6,0.6-1.6,1.6c-1.3,1.2-4.7,3.2-5.1,3.3c-0.4,0.2-0.9,0.6-1.3,0.7
				c-0.5,0.2-0.9,0.2-1.3,0.4c-0.5,0.1-1,0.2-1.4,0.2c-1.2,0.5-7.6,0.3-7.9,0.3c-0.3,0-0.8,0-1.1-0.1c-0.3,0.1-0.7,0-1.1,0.1
				c-0.5,0-0.8,0.1-1.2,0.1c-0.3,0.2-0.9,0.4-1.2,0.6c-0.5,0.2-0.8,0.5-1.2,0.6c-0.4,0.3-5.3,3.2-5.6,3.3c-0.5,0.2-2.4,0.8-2.9-0.5
				c-0.1-0.5-0.4-1.1-0.4-1.4c-0.2-0.5-0.1-1,0-1.4c0.4-2.2,1.2-3.1,1.4-3.5c0.1-0.1,0.1-0.3,0.2-0.4"/>
			<path class="st11" d="M95.3,54.3C95.3,54.3,95.3,54.3,95.3,54.3c0.1-0.1,0,0-0.3,0.4c-0.3,0.3-0.7,0.7-1,0.9
				c-0.3,0.3-0.6,0.7-0.8,0.8c-0.3,0.3-0.6,0.5-1,0.6c-0.5,0.2-0.8,0.3-1.2,0.6c-0.5,0.3-0.9,0.6-1.4,0.8c-0.3,0.4-0.6,0.6-0.9,1.1
				c-0.3,0.4-0.5,0.8-0.8,1.3c-0.2,0.4-0.4,0.8-0.6,1.1l0.6-1.1c-0.2,0.4-0.4,0.8-0.6,1.1"/>
			<path class="st11" d="M91.2,85.7c0-0.1,0.1-0.1,0.1-0.2c-0.2,0.3-0.1,0.2,0-0.3c0-0.6,0.1-1.4,0.2-1.9c0.1-0.6,0.2-1.2,0.2-1.8
				c0-0.7,0-1.3-0.1-1.9c0-0.6-0.1-1.2-0.1-1.8c0-0.6-0.1-1.1-0.2-1.7c0-0.4,0-1-0.1-1.5c0.1-0.4-0.1-0.8-0.1-1.1
				c-0.2-0.6-0.2-1-0.4-1.7c-0.1-0.4-0.2-0.8-0.4-1.3c-0.1-0.5-0.3-1.1-0.4-1.6c-0.1-0.3-0.3-0.7-0.4-1.1c-0.2-0.3-0.4-0.8-0.4-1.2
				c-0.2-0.3-0.3-0.8-0.5-1.2c-0.2-0.4-0.3-0.8-0.4-1.2c-0.2-0.4-0.4-0.8-0.5-1.3c-0.2-0.2-0.2-0.3-0.3-0.5"/>
		</g>
		<path class="st7" d="M90.1,51.2c-0.6,1.3-2,3.1-2,3.2c0,0-1.4,2.7-1.4,2.7c-0.6,1.5-0.2,2.1,0,2.5c0.5,1,0.6,1.5,1,2.2
			c0.2,0.9-1.5,1.2-1.5,1.3c-3.4,1.2-5.1-2.1-5.1-2.2c-0.5-1.7-0.4-2,0.6-2.3c1.2-0.3,1.7-0.3,2.2-0.7c1.1-0.8,1.9-3.3,1.9-3.4
			c0,0,0.2-1.4,0.2-1.4c0.1-0.7-0.2-1.3,0.1-2.3c0.4-1,0.7-1.3,1.8-1.4C89.4,49.2,90.5,50.1,90.1,51.2L90.1,51.2z"/>
	</g>
	<g transform="rotate(120,300,150)">
		<g>
			<path class="st7" d="M134.5,55.1c-0.2,0.1-2,1-1.9,1.1c0,0.1-1.3,4.5-1.4,4.4c0-0.1-1.4-3.7-1.5-3.6c-0.1,0.1-3.9,0.7-4,0.8
				c-0.1,0,2.7-3.9,2.7-3.9l-0.6-4l3.2,1c0,0,3.2-2.7,3.3-2.8c0.1,0-0.7,3.5-0.7,3.5l1.8,2.2C135.4,53.9,134.5,54.9,134.5,55.1
				L134.5,55.1z"/>
			<path class="st8" d="M99.8,102.2c2.4,1.4,16.1,3,18.2,3.1c2.7-0.4,6.4-0.3,9.3,0.5c2.8,1,5.5,0.8,7.3-0.7
				c2.4-1.5,3.2-3.9,4.2-6.1c0.4-1.1,0.3-2.3-0.2-3.3c-0.9-2-0.5-2.6-0.7-3.7c2.7-6.9,2.9-14.8,3.3-20.6c-0.3-3.4-0.1-6,0.3-7
				c1.5-2.6,3.8-3.7,4.9-4.3c4.3-1.4,8.6-2.8,13-4.1c3.3-1.4,1-3.6,0.3-3.4c-2.3-0.2-2.3-2.7-12.9,0.5c-2.3-0.2-4.6-0.3-6.9-0.5
				c0,0-1.4-1-1.5-0.9c-3.7-0.5-4.1,2-3.8,3.4c0.2,1,0.5,2.1,0.7,3.1c0,0-1.1,4.8-1,5c-3.2,4-7.5,16.5-7.7,18.9c0,2.2-0.9,1.9-0.5,4
				c0.1,1.7-0.2,0.6,0.6,4.1c0.2,1-1.1,1-1.8,0.8c-6.4-3.5-10.9-5.1-17.6-8.2l-10.4,6.7L99.8,102.2z"/>
			<path class="st9" d="M150.8,58.4c-0.1,0-4.6-4.7-4.6-4.7s2.4-0.6,2.4-0.6l5.1,4.3L150.8,58.4z"/>
			<g>
				<path class="st10" d="M151,58.5c-0.3-0.3-1.8-1.5-2.1-2c-0.4-0.4-0.9-0.8-1.3-1.2c-0.5-0.5-0.8-0.7-1.2-1.2
					c-0.4-0.3-0.8-0.7-1.2-1.1 M155,57.4c-0.1,0-0.7-0.2-1-0.3c-0.3-0.2-1.4-1-1.8-1.4c-0.4-0.4-0.8-0.7-1.2-1
					c-0.4-0.4-0.7-0.6-1.1-1.1c-0.4-0.3-0.8-0.6-1.1-0.9"/>
				<path class="st11" d="M139.5,85.5c-3.4,0.7-7.5-0.8-9.3-2.3"/>
				<path class="st11" d="M130.6,69.9C130.6,69.9,130.6,69.9,130.6,69.9c-0.1-0.2,0,0,0.6,0.1c0.4-0.1,1.7,0.5,2.2,1.2
					c0.3,0.3,0.7,0.9,0.9,1.2c0.1,0.1,0.1,0.3,0.1,0.4"/>
				<path class="st11" d="M146.7,59.7C146.6,59.7,146.6,59.7,146.7,59.7c0,0-0.2-0.3-0.2-0.4c-0.3-0.4-0.4-0.9-0.7-1.2
					c-0.2-0.4-0.4-0.8-0.6-1.2c-0.2-0.4-0.5-0.9-0.7-1.3c-0.3-0.5-0.4-0.9-0.7-1.4c-0.2-0.4-0.3-0.6-0.6-1.1l0.6,1.1
					c-0.2-0.4-0.3-0.6-0.6-1.1"/>
				<path class="st11" d="M157.8,56.3c-0.1,0-0.6-0.1-0.9-0.3c-0.3-0.2-1.4-0.9-1.7-1.2c-0.4-0.3-0.7-0.6-1.1-0.9
					c-0.4-0.4-0.7-0.6-1.1-1c-0.4-0.2-0.7-0.5-1.1-0.8"/>
				<path class="st11" d="M139.7,57.7c0.8-0.2,0.8-0.6,1-0.9c0.1-0.4,0.2-1.2-0.1-2.1c-0.1-0.4-0.2-0.7-0.3-1.1
					c-0.1-0.3-0.1-0.4-0.2-0.6"/>
				<path class="st11" d="M135.9,103.3C135.9,103.3,135.9,103.3,135.9,103.3c0.1,0.2,0,0-0.6-0.2c-0.4-0.1-0.7-0.2-1.1-0.3"/>
				<path class="st11" d="M138.2,94.8c0-0.1-5.1-3.1-5.9-3.3c-0.5-0.2-0.9-0.3-1.4-0.5c-0.3-0.2-0.6-0.3-0.9-0.4
					c-0.4,0-0.8-0.2-1.1-0.1c-0.4-0.1-0.6,0.2-1,0.1c-0.4,0.1-1,0.2-1.3,0.3"/>
				<path class="st11" d="M126.2,83.1c0.1-0.1,0.7-0.3,1.1-0.6c0.4-0.3,2.2-0.6,3-0.1"/>
				<path class="st11" d="M131.3,91.1c0,0-0.2-0.8-0.6-2.2c-0.4-1.7-0.4-5.7-0.3-6.1c0-0.4-0.1-1.1,0.1-1.4c0.1-0.5,0.2-0.9,0.4-1.3
					c0.2-0.5,0.3-0.9,0.5-1.3c0.1-1.3,3.5-6.7,3.7-7c0.2-0.3,0.4-0.7,0.6-0.9c0.1-0.3,0.3-0.6,0.5-1c0.3-0.4,0.3-0.7,0.5-1.1
					c0-0.4,0.1-0.9,0.1-1.4c0.1-0.5,0-0.9,0-1.3c-0.1-0.5-0.1-6.2-0.1-6.5c0.1-0.6,0.5-2.5,1.9-2.2c0.5,0.2,1.1,0.2,1.4,0.4
					c0.5,0.1,0.9,0.4,1.3,0.7c1.7,1.5,2.1,2.6,2.4,2.9c0.1,0.1,0.2,0.3,0.2,0.4"/>
				<path class="st11" d="M127.9,105.8C127.9,105.8,127.8,105.8,127.9,105.8c0.1,0.1,0,0-0.2-0.4c-0.1-0.4-0.2-1-0.3-1.3
					c-0.1-0.4-0.3-0.8-0.3-1.1c-0.2-0.4-0.1-0.7-0.1-1.2c0.1-0.5,0.1-0.9,0.1-1.4c0-0.6,0-1,0-1.6c-0.2-0.5-0.2-0.9-0.5-1.3
					c-0.2-0.4-0.4-0.8-0.7-1.3c-0.2-0.4-0.5-0.7-0.7-1.1l0.7,1.1c-0.2-0.4-0.5-0.7-0.7-1.1"/>
				<path class="st11" d="M102.8,86.5c0,0.1,0.1,0.1,0.1,0.2c-0.2-0.3-0.1-0.2,0.2,0.2c0.5,0.3,1.1,0.8,1.6,1.1
					c0.4,0.4,0.9,0.8,1.4,1.1c0.6,0.3,1.1,0.6,1.7,0.9c0.5,0.3,1.1,0.5,1.6,0.8c0.5,0.3,1,0.5,1.5,0.7c0.4,0.2,0.9,0.5,1.4,0.6
					c0.3,0.3,0.7,0.3,1,0.4c0.6,0.2,1,0.3,1.6,0.5c0.4,0.1,0.8,0.2,1.3,0.4c0.5,0.2,1.2,0.3,1.6,0.4c0.3,0,0.8,0.1,1.1,0.3
					c0.4,0,0.9,0.1,1.2,0.2c0.3,0,0.8,0.1,1.3,0.2c0.4,0,0.8,0.2,1.2,0.2c0.5,0.1,0.9,0.1,1.4,0.2c0.2-0.1,0.4,0,0.5,0"/>
			</g>
			<path class="st7" d="M133.2,102.8c-0.8-1.1-1.7-3.3-1.7-3.3c0,0-1.7-2.5-1.7-2.5c-1-1.3-1.7-1.2-2.2-1.2c-1.1,0-1.6-0.2-2.4-0.2
				c-0.9-0.3-0.3-1.9-0.3-1.9c0.7-3.5,4.3-3.4,4.5-3.3c1.7,0.5,1.9,0.6,1.7,1.7c-0.4,1.2-0.6,1.6-0.5,2.3c0.2,1.4,1.9,3.3,2,3.3
				c0,0,1.1,0.9,1.1,0.9c0.5,0.4,1.2,0.4,2,1.3c0.7,0.9,0.8,1.3,0.3,2.2C135.3,103.3,133.9,103.7,133.2,102.8L133.2,102.8z"/>
		</g>
	</g>
	<g transform="rotate(240,300,150)">
		<g>
			<path class="st7" d="M107.6,139.3c0.1-0.2,0.1-2.2,0-2.2c-0.1,0-3.2-3.4-3.2-3.4c0.1,0,3.9,0.7,3.9,0.5c0-0.1,1.3-3.8,1.3-3.8
				c0-0.1,2,4.3,2,4.3l3.8,1.5l-2.5,2.3c0,0,0.8,4.1,0.8,4.2c0,0.1-2.7-2.4-2.7-2.4l-2.9,0.5C108.2,140.7,107.7,139.5,107.6,139.3
				L107.6,139.3z"/>
			<path class="st8" d="M84.1,85.7c-2.4,1.4-10.6,12.4-11.8,14.2c-1,2.5-3,5.7-5.1,7.8c-2.3,1.9-3.5,4.4-3,6.6
				c0.1,2.9,1.8,4.7,3.2,6.7c0.8,0.9,1.8,1.4,2.9,1.5c2.2,0.2,2.5,0.9,3.6,1.2c4.6,5.8,11.3,9.8,16.2,13.1c3.1,1.4,5.2,2.9,6,3.8
				c1.5,2.6,1.4,5.1,1.2,6.4c-1,4.4-1.9,8.9-2.9,13.3c-0.4,3.6,2.6,2.7,2.8,1.9c1.3-1.9,3.5-0.7,6-11.4c1.3-1.9,2.6-3.8,3.9-5.7
				c0,0,1.6-0.7,1.5-0.9c2.3-3,0.4-4.6-1-5c-1-0.3-2-0.6-3.1-1c0,0-3.6-3.3-3.8-3.3c-1.9-4.7-10.5-14.8-12.5-16.1
				c-1.9-1.1-1.2-1.7-3.2-2.5c-1.5-0.7-0.5-0.5-3.8-1.5c-1-0.3-0.3-1.4,0.3-2c6.3-3.8,9.9-6.9,15.9-11.2l-0.6-12.3L84.1,85.7z"/>
			<path class="st9" d="M96.6,151.9c0-0.1,6.4-1.6,6.4-1.6s-0.6,2.4-0.7,2.4l-6.3,2.2L96.6,151.9z"/>
			<g>
				<path class="st10" d="M96.3,151.9c0.4-0.1,2.2-0.8,2.8-0.9c0.6-0.2,1.1-0.3,1.7-0.5c0.6-0.2,1-0.3,1.7-0.4
					c0.5-0.2,1-0.4,1.6-0.5 M95.3,155.9c0.1-0.1,0.5-0.5,0.8-0.7c0.4-0.1,1.6-0.7,2.1-0.8c0.5-0.2,1-0.3,1.5-0.5
					c0.6-0.2,0.9-0.3,1.5-0.4c0.5-0.2,0.9-0.4,1.4-0.5"/>
				<path class="st11" d="M78.8,128.5c1.1-3.3,4.4-6.1,6.7-6.9"/>
				<path class="st11" d="M96.7,128.6C96.7,128.6,96.7,128.6,96.7,128.6c0.2,0,0,0-0.3,0.5c-0.1,0.4-1.3,1.3-2.2,1.3
					c-0.4,0.1-1.1,0.1-1.5,0.2c-0.1,0-0.3-0.1-0.4-0.1"/>
				<path class="st11" d="M97.5,147.6C97.5,147.6,97.5,147.6,97.5,147.6c0,0,0.3,0,0.5,0c0.5,0,1,0,1.4,0c0.5,0,0.9,0.1,1.4,0.1
					c0.5,0,1,0,1.5,0c0.5,0,1,0.1,1.5,0.1c0.5,0,0.7,0.1,1.2,0l-1.2,0c0.5,0,0.7,0.1,1.2,0"/>
				<path class="st11" d="M94.9,158.9c0-0.1,0.4-0.5,0.7-0.7c0.3-0.1,1.5-0.7,1.9-0.8c0.5-0.2,0.9-0.3,1.4-0.5
					c0.5-0.2,0.8-0.3,1.4-0.4c0.4-0.2,0.8-0.4,1.3-0.5"/>
				<path class="st11" d="M102.8,142.5c-0.2,0.8,0.1,0.9,0.3,1.3c0.3,0.3,0.9,0.8,1.9,1c0.4,0.1,0.7,0.2,1.1,0.3
					c0.3,0,0.4,0.1,0.7,0.2"/>
				<path class="st11" d="M65.1,116.4C65.1,116.4,65.2,116.4,65.1,116.4c-0.2,0,0,0,0.4-0.4c0.3-0.3,0.5-0.5,0.8-0.9"/>
				<path class="st11" d="M71.3,122.7c0.1,0,5.2-2.9,5.8-3.5c0.4-0.3,0.7-0.6,1.1-1c0.3-0.2,0.5-0.4,0.8-0.6
					c0.2-0.4,0.5-0.6,0.7-0.9c0.3-0.3,0.2-0.6,0.4-0.9c0.1-0.4,0.3-0.9,0.4-1.3"/>
				<path class="st11" d="M87.5,118.2c0,0.2,0,0.8,0,1.2c0,0.5-0.6,2.1-1.4,2.7"/>
				<path class="st11" d="M78,118.5c0,0,0.8,0.2,2.2,0.6c1.6,0.5,5.1,2.5,5.5,2.8c0.4,0.3,1,0.5,1.2,0.8c0.4,0.3,0.7,0.7,1,1
					c0.4,0.4,0.7,0.7,0.9,1.1c1.1,0.8,4.1,6.4,4.2,6.7c0.2,0.3,0.4,0.7,0.5,1c0.2,0.2,0.4,0.6,0.6,0.9c0.2,0.4,0.4,0.6,0.7,1
					c0.3,0.2,0.7,0.6,1.1,0.8c0.4,0.3,0.8,0.5,1.1,0.7c0.4,0.2,5.4,3,5.7,3.2c0.5,0.3,1.9,1.7,1,2.7c-0.4,0.4-0.7,0.8-1.1,1
					c-0.3,0.4-0.8,0.5-1.2,0.7c-2.2,0.7-3.3,0.6-3.7,0.6c-0.2,0-0.3,0-0.5,0"/>
				<path class="st11" d="M66.9,108.2C67,108.2,67,108.2,66.9,108.2c-0.2,0,0,0,0.5,0.1c0.4,0.1,0.9,0.3,1.3,0.4
					c0.4,0.1,0.9,0.1,1.1,0.3c0.4,0.1,0.7,0.3,1,0.5c0.4,0.3,0.7,0.5,1.1,0.8c0.5,0.3,0.9,0.5,1.4,0.8c0.5,0.1,0.9,0.2,1.4,0.2
					c0.5,0,0.9,0,1.5,0c0.4,0,0.9,0,1.3-0.1l-1.3,0.1c0.4,0,0.9,0,1.3-0.1"/>
				<path class="st11" d="M96.2,96.1c-0.1,0-0.1,0-0.2,0c0.3,0,0.2,0-0.3,0.1c-0.5,0.3-1.2,0.5-1.7,0.8c-0.5,0.2-1.1,0.4-1.6,0.7
					c-0.6,0.4-1.1,0.7-1.6,1.1c-0.5,0.3-1,0.7-1.5,1c-0.5,0.3-0.9,0.6-1.3,1c-0.4,0.2-0.9,0.5-1.3,0.9c-0.4,0.2-0.7,0.4-0.9,0.7
					c-0.5,0.5-0.8,0.7-1.2,1.2c-0.3,0.3-0.6,0.6-1,1c-0.4,0.3-0.8,0.8-1.1,1.2c-0.2,0.3-0.5,0.6-0.8,0.9c-0.2,0.3-0.5,0.7-0.8,1
					c-0.2,0.3-0.5,0.7-0.8,1c-0.2,0.3-0.6,0.6-0.8,1c-0.3,0.4-0.5,0.7-0.9,1.1c-0.1,0.2-0.2,0.3-0.3,0.5"/>
			</g>
			<path class="st7" d="M66.9,114.3c1.4-0.2,3.7,0.2,3.7,0.2c0,0,3-0.2,3-0.2c1.6-0.2,1.9-0.9,2.2-1.3c0.6-0.9,1-1.3,1.4-2
				c0.7-0.6,1.8,0.7,1.8,0.7c2.7,2.3,0.7,5.4,0.6,5.5c-1.2,1.2-1.5,1.3-2.3,0.6c-0.8-0.9-1.1-1.3-1.7-1.6c-1.3-0.5-3.8,0-3.9,0
				c0,0-1.3,0.6-1.3,0.6c-0.6,0.3-1,0.8-2.1,1.1c-1.1,0.1-1.5,0-2.1-0.8C65.5,115.9,65.8,114.5,66.9,114.3L66.9,114.3z"/>
		</g>
	</g>
	<path class="st12" d="M99.7,102.2c-1.2-0.6-2.1-0.7-2.5-0.4c-0.7-3.8-1.3-7.6-2.1-11.3c-7.2-3-8.7-3.7-11-4.7
		c1.1-0.7,1.6-1.4,1.6-1.9c3.6,1.3,7.2,2.7,10.9,3.8c6.2-4.7,7.5-5.7,9.6-7.2c0.1,1.3,0.4,2.1,0.9,2.4c-2.9,2.5-5.9,4.9-8.7,7.5
		C99.3,98,99.5,99.6,99.7,102.2L99.7,102.2z"/>
</g>
</svg>
