<svg xmlns="http://www.w3.org/2000/svg" id="Icon" viewBox="0 0 192 192"><defs><radialGradient id="radial-gradient" cx="23.77" cy="23.93" r="204.62" gradientUnits="userSpaceOnUse"><stop offset="0" stop-color="#fff" stop-opacity=".1"/><stop offset="1" stop-color="#fff" stop-opacity="0"/></radialGradient><style>.cls-6{fill:none}</style></defs><g id="Flag"><rect x="20" y="20" width="152" height="152" rx="12" ry="12" fill="#f93"/><path fill="#fff" d="M20 68.45h152V124H20z"/><path d="M32 172h128c6.6 0 12-7.2 12-16v-32H20v32c0 8.8 5.4 16 12 16z" fill="#128807"/><path id="Emblem" d="M96 76a20 20 0 1020 20 20 20 0 00-20-20zm16.49 25.88a.87.87 0 00-.67 1.61 17.48 17.48 0 01-1.42 2.45.87.87 0 00-1.06 1.38q-.46.54-1 1t-1 1a.87.87 0 00-1.38 1.06 17.48 17.48 0 01-2.45 1.42.87.87 0 00-1.61.67 17.37 17.37 0 01-2.74.73.87.87 0 00-1.73.23q-.7.06-1.42.06t-1.42-.06a.87.87 0 00-1.73-.23 17.37 17.37 0 01-2.74-.73.87.87 0 00-1.61-.67 17.48 17.48 0 01-2.45-1.42.87.87 0 00-1.38-1.06q-.54-.46-1-1t-1-1a.87.87 0 00-1.06-1.38 17.48 17.48 0 01-1.42-2.45.87.87 0 00-.67-1.61 17.37 17.37 0 01-.73-2.74.87.87 0 00-.23-1.73q-.06-.7-.06-1.42t.06-1.42a.87.87 0 00.23-1.73 17.37 17.37 0 01.73-2.74.87.87 0 00.67-1.61 17.48 17.48 0 011.42-2.45.87.87 0 001.06-1.38q.46-.54 1-1t1-1a.87.87 0 001.38-1.06 17.48 17.48 0 012.45-1.42.87.87 0 001.61-.67 17.37 17.37 0 012.74-.73.87.87 0 001.73-.23q.7-.06 1.42-.06t1.42.06a.87.87 0 001.73.23 17.37 17.37 0 012.74.73.87.87 0 001.61.67 17.48 17.48 0 012.45 1.42.87.87 0 001.38 1.06q.54.46 1 1t1 1a.87.87 0 001.06 1.38 17.48 17.48 0 011.42 2.45.87.87 0 00.67 1.61 17.37 17.37 0 01.73 2.74.87.87 0 00.23 1.73q.06.7.06 1.42t-.06 1.42a.87.87 0 00-.23 1.73 17.37 17.37 0 01-.73 2.74zm-11.11-1.36l7 7.85-7.85-7-2.19-2.77a3.51 3.51 0 01-.44.34l2.12 2.83 4.73 9.39-5.75-8.8-1.39-3.25a3.47 3.47 0 01-.51.21l1.31 3.28 2.14 10.3-3.3-10-.5-3.49a3.51 3.51 0 01-.55.07l.4 3.52-.6 10.5-.6-10.5.42-3.51a3.51 3.51 0 01-.55-.07l-.5 3.49-3.3 10 2.14-10.3 1.31-3.28a3.47 3.47 0 01-.51-.21L93 102.36l-5.77 8.79 4.77-9.39 2.12-2.83a3.51 3.51 0 01-.44-.34l-2.18 2.78-7.85 7 7-7.85 2.78-2.18a3.51 3.51 0 01-.34-.44l-2.85 2.1-9.39 4.73L89.64 99l3.25-1.39a3.47 3.47 0 01-.21-.51l-3.28 1.31-10.3 2.14 10-3.3 3.49-.5a3.51 3.51 0 01-.07-.55l-3.52.4-10.5-.6 10.5-.6 3.51.42a3.51 3.51 0 01.07-.55l-3.49-.5-10-3.3 10.3 2.14 3.28 1.31a3.47 3.47 0 01.21-.51L89.64 93l-8.79-5.77L90.24 92l2.83 2.12a3.51 3.51 0 01.34-.44l-2.78-2.18-7-7.85 7.85 7 2.18 2.78a3.51 3.51 0 01.44-.34L92 90.24l-4.73-9.39L93 89.64l1.39 3.25a3.47 3.47 0 01.51-.21l-1.31-3.28-2.12-10.3 3.3 10 .5 3.49a3.51 3.51 0 01.55-.07L95.4 89l.6-10.5.6 10.5-.42 3.51a3.51 3.51 0 01.55.07l.5-3.49 3.3-10-2.14 10.3-1.31 3.28a3.47 3.47 0 01.51.21L99 89.64l5.77-8.79-4.77 9.39-2.1 2.82a3.51 3.51 0 01.44.34l2.18-2.78 7.85-7-7 7.85-2.77 2.19a3.51 3.51 0 01.34.44l2.82-2.1 9.39-4.73-8.79 5.73-3.25 1.39a3.47 3.47 0 01.21.51l3.28-1.31 10.3-2.14-10 3.3-3.49.5a3.51 3.51 0 01.07.55l3.52-.4 10.5.6-10.5.6-3.51-.42a3.51 3.51 0 01-.07.55l3.49.5 10 3.3-10.3-2.14-3.28-1.31a3.47 3.47 0 01-.21.51l3.24 1.41 8.79 5.77-9.39-4.77-2.82-2.1a3.51 3.51 0 01-.34.44z" fill="#008"/></g><g id="Material"><rect class="cls-6" x="20" y="20" width="152" height="152" rx="12" ry="12" id="Icon_Frame" data-name="Icon Frame" opacity=".4"/><path id="Canvas_Frame" data-name="Canvas Frame" class="cls-6" d="M0 0v192h192V0z"/><path id="Stroke" d="M160 20a12 12 0 0112 12v128a12 12 0 01-12 12H32a12 12 0 01-12-12V32a12 12 0 0112-12h128m0-8H32a20 20 0 00-20 20v128a20 20 0 0020 20h128a20 20 0 0020-20V32a20 20 0 00-20-20z" fill="#dfdfdf"/><path id="Top_Edge" data-name="Top Edge" d="M160 20H32a12 12 0 00-12 12v1a12 12 0 0112-12h128a12 12 0 0112 12v-1a12 12 0 00-12-12z" fill-opacity=".2" fill="#fff"/><path id="Bottom_Edge" data-name="Bottom Edge" d="M160 172H32a12 12 0 01-12-12v-1a12 12 0 0012 12h128a12 12 0 0012-12v1a12 12 0 01-12 12z" fill="#212121" fill-opacity=".1"/><rect x="20" y="20" width="152" height="152" rx="12" ry="12" fill="url(#radial-gradient)" id="Finish"/></g></svg>