<svg xmlns="http://www.w3.org/2000/svg" width="192" height="192"><path fill="#FFF" d="M160 20H32c-6.6 0-12 5.4-12 12v128c0 6.6 5.4 12 12 12h128c6.6 0 12-5.4 12-12V32c0-6.6-5.4-12-12-12z"/><path fill="#CE1126" d="M160 20H32c-6.6 0-12 5.4-12 12v38h152V32c0-6.6-5.4-12-12-12z"/><path d="M172 160v-39H20v39c0 6.6 5.4 12 12 12h128c6.6 0 12-5.4 12-12z"/><path fill="#007A3D" d="M117.71 86.08c-.17-.24-.07-.25.65-.06 1.29.35 2.12.21 2.94-.48l.73-.61.85.43c.47.24.97.4 1.11.36.37-.1 1.14-1.08 1.11-1.42-.03-.42.33-.32.5.15.34.9-.16 1.94-1.03 2.17-.43.11-.83.07-1.48-.16-.8-.28-.93-.27-1.33.03-.9.69-2.15.75-3.27.17-.32-.16-.67-.42-.78-.58zm4.44-3.18c.08-1.19-.04-1.54-.55-1.7-.29-.09-.4-.03-.51.29-.12.37.25 1.87.57 2.27.29.36.43.11.49-.86zM90.96 93.31c-1.87 1.07-4.65 1.22-4.65 4.16-4.06.19-8.85.33-13.18.24 1.46-1.86 9.46-9.66 11.65-11.85.39-.22.92-.13 1.35-.32-.63-.33-2.02-2.13-1.92-2.86-3.51 3.41-7.53 7.03-8.1 7.61-5.72 5.72-5.62 5.65-6.46 6.49 0 1.11.02 2.65.02 3.39h19.77c.98 0-.22-3.42 1.04-3.42 1.32 0 .88 2.67.88 4.34-8.43 0-17.34.06-25.6.06v-5.32c-2.12 1.8-2.34 1.96-3.67 2.45 1.03.2 1.1 1.78.98 3.12-3.47.09-8.15.52-6.85-3.43-1.85 1.24-2.13 1.41-3.95 2.07 1.1 2 2.8 4.18 2.24 7.71-.67 1.61-2.55 2.01-3.67 3.18 3.61.9 6.2-1.29 6.85-4.16h36.96c0-2.96-.01-7.07-.01-9.79-.31-2.28-2.72-2.16-3.68-3.67zm49.02 6.85c-.9.57-1.3 1.64-3.18 1.22V86.45c.16-.74.79-1.01.98-1.71-1.69-.43-2.78-1.46-4.16-2.2v24.23h8.08c.04-1.88-1.48-4.22-1.72-6.61zm-9.19-16.76v23.33c-5.96 0-17.08.01-18.55.01-.27-4.84-.32-9.86 5.32-8.78v-1.98c-.17-.34-.48.08-.55-.36.9-.9 1.2-1.13 3.63-3.25 0 2.56.04 8.6.04 8.6h2.14l.02-10.45s2.94-2.48 2.94-2.58v13.03h2.12c0-4.96-.07-10-.07-14.61.86-.85 2.54-2.09 2.96-2.96zm-13.22 17.04c-.23-.83-2.01-.51-1.69.42.4.59 1.75.58 1.69-.42zm-55.4 7.95a1.129 1.129 0 100 2.26c.63 0 1.13-.51 1.13-1.13.01-.63-.5-1.13-1.13-1.13zm38.15-6.98V86.48c.16-.74.78-1.01.98-1.71-1.69-.43-2.78-1.46-4.16-2.2v24.23h8.08c.05-1.88-1.47-4.22-1.71-6.61-.91.56-1.31 1.63-3.19 1.22z"/><path fill="none" d="M172 160V32c0-6.6-5.4-12-12-12H32c-6.6 0-12 5.4-12 12v128c0 6.6 5.4 12 12 12h128c6.6 0 12-5.4 12-12z" opacity=".4"/><path fill="none" d="M0 0v192h192V0H0z"/><path fill="#DFDFDF" d="M160 20c6.6 0 12 5.4 12 12v128c0 6.6-5.4 12-12 12H32c-6.6 0-12-5.4-12-12V32c0-6.6 5.4-12 12-12h128m0-8H32c-11.03 0-20 8.97-20 20v128c0 11.03 8.97 20 20 20h128c11.03 0 20-8.97 20-20V32c0-11.03-8.97-20-20-20z"/><path fill="#FFF" fill-opacity=".2" d="M160 20H32c-6.6 0-12 5.4-12 12v1c0-6.6 5.4-12 12-12h128c6.6 0 12 5.4 12 12v-1c0-6.6-5.4-12-12-12z"/><path fill="#212121" fill-opacity=".1" d="M160 172H32c-6.6 0-12-5.4-12-12v-1c0 6.6 5.4 12 12 12h128c6.6 0 12-5.4 12-12v1c0 6.6-5.4 12-12 12z"/><radialGradient id="a" cx="23.768" cy="23.933" r="204.625" gradientUnits="userSpaceOnUse"><stop offset="0" stop-color="#fff" stop-opacity=".1"/><stop offset="1" stop-color="#fff" stop-opacity="0"/></radialGradient><path fill="url(#a)" d="M160 172H32c-6.6 0-12-5.4-12-12V32c0-6.6 5.4-12 12-12h128c6.6 0 12 5.4 12 12v128c0 6.6-5.4 12-12 12z"/></svg>