<svg xmlns="http://www.w3.org/2000/svg" width="192" height="192"><path fill="#DA0000" d="M160 20H32c-6.6 0-12 5.4-12 12v128c0 6.6 5.4 12 12 12h128c6.6 0 12-5.4 12-12V32c0-6.6-5.4-12-12-12z"/><path fill="#FFF" d="M160 20H32c-6.6 0-12 5.4-12 12v104h152V32c0-6.6-5.4-12-12-12z"/><path fill="#239F40" d="M160 20H32c-6.6 0-12 5.4-12 12v24h152V32c0-6.6-5.4-12-12-12z"/><path fill="#FFF" d="M154.53 52.27h-1.33v-5.33h8.8v3.73h6.13v-2.4h-4v-1.33h5.33V52h-8.8v-3.73h-6.13v4zm-79.73 95.2h-2.4v-7.73h-1.33v7.73h-2.4v-7.73h-1.33v4h-7.47v5.07h5.33v-1.33h-4v-2.4h6.13v3.73h8.8v-9.07H74.8v7.73zm-15.2-10.8h16.8v-1.33H59.6v1.33zM44.67 148.8h1.87v-1.33h-1.87v1.33zm7.46-3.73h4v2.4H50v-3.73h-8.8v5.33h1.33v-4h6.13v3.73h8.8v-5.07h-5.33v1.34zm7.47-88.4h16.8v-1.33H59.6v1.33zM82 148.8h1.87v-1.33H82v1.33zm7.47-3.73h4v2.4h-6.13v-3.73h-8.8v5.33h1.33v-4H86v3.73h8.8v-5.07h-5.33v1.34zm13.06-5.07H78.27v1.33h24.27V140zM27.87 50.67h-4v-2.4H30V52h8.8v-9.07h-1.33v7.73h-2.4v-7.73h-1.33v7.73h-2.4v-7.73H30v4h-7.47V52h5.33v-1.33zm29.86 84.66h-16.8v1.33h16.8v-1.33zm-20.26 12.14h-2.4v-7.73h-1.33v7.73h-2.4v-7.73H30v4h-7.47v5.07h5.33v-1.33h-4v-2.4H30v3.73h8.8v-9.07h-1.33v7.73zm-15.2-10.8h16.8v-1.33h-16.8v1.33zm0-80h16.8v-1.33h-16.8v1.33zM65.2 140H40.93v1.33H65.2V140zm69.07-83.33h16.8v-1.33h-16.8v1.33zM158.53 52v-1.33h-1.87V52h1.87zm-24.26 84.67h16.8v-1.33h-16.8v1.33zm18.66 0h16.8v-1.33h-16.8v1.33zm-95.2-81.34h-16.8v1.33h16.8v-1.33zm95.2 1.34h16.8v-1.33h-16.8v1.33zm18.67-1.34v1.33h.4v-1.33h-.4zm-52.27 93.47h1.87v-1.33h-1.87v1.33zm20.54-8.8H115.6v1.33h24.27V140zM96.93 56.67h16.8v-1.33h-16.8v1.33zm0 80h16.8v-1.33h-16.8v1.33zm29.87 8.4h4v2.4h-6.13v-3.73h-8.8v5.33h1.33v-4h6.13v3.73h8.8v-5.07h-5.33v1.34zm-14.67 2.4h-2.4v-7.73h-1.33v7.73H106v-7.73h-1.33v4H97.2v5.07h5.33v-1.33h-4v-2.4h6.13v3.73h8.8v-9.07h-1.33v7.73zm37.34 0h-2.4v-7.73h-1.33v7.73h-2.4v-7.73H142v4h-7.47v5.07h5.33v-1.33h-4v-2.4H142v3.73h8.8v-9.07h-1.33v7.73zM57.47 52v-5.07h-5.33v1.33h4v2.4H50v-3.73h-8.8v5.33h1.33v-4h6.13V52h8.81zm82.4-8.8H115.6v1.33h24.27V43.2zm13.06 98.13H172V140h-19.07v1.33zm18.94 7.47h.13v-5.07h-.13v5.07zm-.27-12.13h.4v-1.33h-.4v1.33zM134.53 52h5.33v-1.33h-4v-2.4H142V52h8.8v-9.07h-1.33v7.73h-2.4v-7.73h-1.33v7.73h-2.4v-7.73H142v4h-7.47V52zm22.14 96.8h1.87v-1.33h-1.87v1.33zm-2.14-3.73h6.13v3.73h8.8v-5.07h-5.33v1.33h4v2.4H162v-3.73h-8.8v5.33h1.33v-3.99zm-134.4-1.34H20v5.07h.13v-5.07zm7.74-3.73H20v1.33h7.87V140zm125.06-95.47H172V43.2h-19.07v1.33zm-132.8 2.4H20V52h.13v-5.07zm7.74-3.73H20v1.33h7.87V43.2zm-7.47 92.13H20v1.33h.4v-1.33zm0-80H20v1.33h.4v-1.33zM171.87 52h.13v-5.07h-.13V52zm-76.8 83.33h-16.8v1.33h16.8v-1.33zm0-80h-16.8v1.33h16.8v-1.33zM59.87 52h5.33v-1.33h-4v-2.4h6.13V52h8.8v-9.07H74.8v7.73h-2.4v-7.73h-1.33v7.73h-2.4v-7.73h-1.33v4h-7.47V52zm5.33-8.8H40.93v1.33H65.2V43.2zM46.53 52v-1.33h-1.87V52h1.87zm37.34 0v-1.33H82V52h1.87zm37.33 0v-1.33h-1.87V52h1.87zm11.2 83.33h-16.8v1.33h16.8v-1.33zm0-80h-16.8v1.33h16.8v-1.33zm-.27-3.33v-5.07h-5.33v1.33h4v2.4h-6.13v-3.73h-8.8v5.33h1.33v-4h6.13V52h8.8zM97.2 52h5.33v-1.33h-4v-2.4h6.13V52h8.8v-9.07h-1.33v7.73h-2.4v-7.73h-1.33v7.73H106v-7.73h-1.33v4H97.2V52zm-2.4 0v-5.07h-5.33v1.33h4v2.4h-6.13v-3.73h-8.8v5.33h1.33v-4H86V52h8.8zm7.73-8.8H78.27v1.33h24.27V43.2z"/><path fill="#DA0000" d="M100.7 119.3a29.94 29.94 0 0011.74 1.79 27.18 27.18 0 01-14.07.75l-.04.94L96 126l-2.33-3.21-.04-.94c-4.53.95-9.35.78-14.07-.75 4.02.19 8.01-.43 11.74-1.79-6.11-3.2-11.03-8.7-13.33-15.78-3.41-10.49-.19-22 8.17-29.19-9.09 13.44-5.81 31.6 7.22 41.06L92.45 93V75.36c1.41-.68 2.63-1.7 3.54-2.97a9.348 9.348 0 003.54 2.97v17.63l-.91 22.4c13.03-9.46 16.31-27.61 7.22-41.06 8.36 7.19 11.59 18.71 8.17 29.19-2.28 7.09-7.2 12.58-13.31 15.78zm22.23-34.77a22.981 22.981 0 00-14.27-10.77c13.24 9.95 15.91 28.77 5.95 42.01-.02.02-.03.05-.05.07 10.95-6.33 14.7-20.35 8.37-31.31zM83.35 73.77a22.885 22.885 0 00-14.27 10.77c-6.33 10.96-2.59 24.98 8.37 31.31-.02-.02-.03-.05-.05-.07-9.96-13.25-7.29-32.05 5.95-42.01zm6.62-1.66A4.33 4.33 0 0096 71.06a4.327 4.327 0 006.03 1.05 4.336 4.336 0 001.53-5.15A4.091 4.091 0 0196 68.25a4.091 4.091 0 01-7.56-1.29c-.75 1.87-.11 4 1.53 5.15z"/><path fill="none" d="M172 160V32c0-6.6-5.4-12-12-12H32c-6.6 0-12 5.4-12 12v128c0 6.6 5.4 12 12 12h128c6.6 0 12-5.4 12-12z" opacity=".4"/><path fill="none" d="M0 0v192h192V0H0z"/><path fill="#DFDFDF" d="M160 20c6.6 0 12 5.4 12 12v128c0 6.6-5.4 12-12 12H32c-6.6 0-12-5.4-12-12V32c0-6.6 5.4-12 12-12h128m0-8H32c-11.03 0-20 8.97-20 20v128c0 11.03 8.97 20 20 20h128c11.03 0 20-8.97 20-20V32c0-11.03-8.97-20-20-20z"/><path fill="#FFF" fill-opacity=".2" d="M160 20H32c-6.6 0-12 5.4-12 12v1c0-6.6 5.4-12 12-12h128c6.6 0 12 5.4 12 12v-1c0-6.6-5.4-12-12-12z"/><path fill="#212121" fill-opacity=".1" d="M160 172H32c-6.6 0-12-5.4-12-12v-1c0 6.6 5.4 12 12 12h128c6.6 0 12-5.4 12-12v1c0 6.6-5.4 12-12 12z"/><radialGradient id="a" cx="23.768" cy="23.933" r="204.625" gradientUnits="userSpaceOnUse"><stop offset="0" stop-color="#fff" stop-opacity=".1"/><stop offset="1" stop-color="#fff" stop-opacity="0"/></radialGradient><path fill="url(#a)" d="M160 172H32c-6.6 0-12-5.4-12-12V32c0-6.6 5.4-12 12-12h128c6.6 0 12 5.4 12 12v128c0 6.6-5.4 12-12 12z"/></svg>