<svg xmlns="http://www.w3.org/2000/svg" width="192" height="192"><path fill="#FFF" d="M20 64h152v63.1H20z"/><path d="M160 20H32c-6.6 0-12 5.4-12 12v32h152V32c0-6.6-5.4-12-12-12z"/><path fill="#060" d="M20 160c0 6.6 5.4 12 12 12h128c6.6 0 12-5.4 12-12v-32.9H20V160z"/><path fill="#B00" d="M20 72.17h152V119H20z"/><path d="M121.72 58.39c4.11-7.12 5.91-13.48 6.7-17.57l.34-1.79-1.38 1.19c-3.15 2.72-7.76 7.46-11.87 14.58-1.47 2.54-2.99 5.17-2.36 8.02L96 92.55 78.84 62.82c.63-2.84-.89-5.47-2.36-8.02-4.11-7.12-8.72-11.86-11.87-14.58l-1.38-1.2.35 1.8c.79 4.09 2.59 10.45 6.7 17.57 1.47 2.54 2.99 5.17 5.76 6.05l18.09 31.34-26.79 46.4-.32.55 2.8 1.62L96 99.01l26.17 45.34 2.8-1.62-27.11-46.95 18.09-31.34c2.78-.88 4.3-3.51 5.77-6.05z"/><path fill="#FFF" d="M115.54 63.9c2.69-.72 4.16-3.28 5.64-5.83.98-1.7 4.92-8.52 6.62-17.37-6.82 5.9-10.75 12.72-11.73 14.42-1.47 2.55-2.95 5.11-2.23 7.8L96 93.81 78.17 62.92c.72-2.69-.76-5.24-2.23-7.8-.98-1.7-4.92-8.52-11.73-14.42 1.71 8.85 5.64 15.67 6.62 17.37 1.48 2.55 2.95 5.11 5.64 5.83l18.4 31.88L67.9 142.5l1.7.98L96 97.74l26.41 45.74 1.7-.99-26.97-46.71 18.4-31.88z"/><path fill="#B00" d="M112.93 68.17c-.29-.59-.6-1.19-.93-1.81-.02-.05-.05-.09-.07-.14-.02-.04-.05-.09-.07-.14C107.6 58.14 100.6 48.57 96 48.57s-11.6 9.57-15.85 17.52c-.02.05-.05.09-.07.14-.02.05-.05.09-.07.14-.33.61-.64 1.22-.93 1.81-.02.05-.05.1-.07.14l-.07.14c-.66 1.35-1.21 2.61-1.62 3.72 2.95 7.87 4.92 15.74 4.92 23.61s-1.97 15.74-4.92 23.6c.42 1.11.97 2.37 1.62 3.72.02.05.05.1.07.14s.05.09.07.14c.29.59.6 1.19.93 1.81.02.05.05.09.07.14.02.04.05.09.07.14C84.41 133.43 91.4 143 96.01 143s11.6-9.57 15.85-17.52c.02-.05.05-.09.07-.14.02-.05.05-.09.07-.14.33-.61.64-1.22.93-1.81.02-.05.05-.1.07-.14l.07-.14c.66-1.35 1.21-2.61 1.62-3.72-2.95-7.87-4.92-15.74-4.92-23.6s1.97-15.74 4.92-23.6c-.42-1.11-.97-2.37-1.62-3.72-.02-.05-.05-.1-.07-.14-.03-.07-.05-.12-.07-.16zM96.98 48.72s3.93 7.87 3.93 20.65-3.93 20.65-3.93 20.65v-41.3zm-1.96 0v41.31s-3.93-7.87-3.93-20.65 3.93-20.66 3.93-20.66zm0 94.12s-3.93-7.87-3.93-20.65 3.93-20.65 3.93-20.65v41.3zm1.96 0v-41.31s3.93 7.87 3.93 20.65-3.93 20.66-3.93 20.66zm2.95-47.06c0 1.25-.26 2.41-.7 3.37-.02.05-.04.1-.07.14s-.05.09-.07.14c-.31.59-.69 1.08-1.12 1.46-.03.03-.07.06-.1.09l-.11.08c-.53.4-1.13.62-1.76.62s-1.23-.22-1.76-.62l-.11-.08c-.03-.03-.07-.06-.1-.09-.43-.38-.82-.87-1.12-1.46-.02-.05-.05-.09-.07-.14-.02-.05-.05-.1-.07-.14-.44-.96-.7-2.11-.7-3.37 0-1.25.26-2.41.7-3.37.02-.05.04-.1.07-.14s.05-.09.07-.14c.31-.59.69-1.08 1.12-1.46.03-.03.07-.06.1-.09s.07-.05.11-.08c.53-.4 1.13-.62 1.76-.62s1.23.22 1.76.62l.11.08c.03.03.07.06.1.09.43.38.82.87 1.12 1.46.02.05.05.09.07.14.02.05.05.1.07.14.44.96.7 2.12.7 3.37z"/><path d="M114.69 119.38c2.95-7.87 4.92-15.74 4.92-23.61s-1.97-15.74-4.92-23.6c-2.95 7.87-4.92 15.74-4.92 23.6s1.97 15.74 4.92 23.61zM77.31 72.17c-2.95 7.87-4.92 15.74-4.92 23.61s1.97 15.74 4.92 23.6c2.95-7.87 4.92-15.74 4.92-23.6s-1.97-15.74-4.92-23.61z"/><path fill="#FFF" d="M99.09 92.13c-.31-.59-.69-1.08-1.12-1.46-.03-.03-.07-.06-.1-.09s-.07-.05-.11-.08c-.53-.4-1.13-.62-1.76-.62s-1.23.22-1.76.62l-.11.08c-.03.03-.07.06-.1.09-.43.38-.82.87-1.12 1.46-.02.05-.05.09-.07.14s-.05.1-.07.14c-.44.96-.7 2.11-.7 3.37 0 1.25.26 2.41.7 3.37.02.05.04.1.07.14s.05.09.07.14c.31.59.69 1.08 1.12 1.46.03.03.07.06.1.09l.11.08c.53.4 1.13.62 1.76.62s1.23-.22 1.76-.62l.11-.08c.03-.03.07-.06.1-.09.43-.38.82-.87 1.12-1.46.02-.05.05-.09.07-.14.02-.05.05-.1.07-.14.44-.96.7-2.11.7-3.37s-.26-2.41-.7-3.37c-.02-.05-.04-.1-.07-.14-.02-.05-.05-.09-.07-.14zm-2.11 50.71s3.93-7.87 3.93-20.65-3.93-20.65-3.93-20.65v41.3zm-1.96-94.12s-3.93 7.87-3.93 20.65 3.93 20.65 3.93 20.65v-41.3zm0 94.12v-41.31s-3.93 7.87-3.93 20.65 3.93 20.66 3.93 20.66zm1.96-94.12v41.31s3.93-7.87 3.93-20.65-3.93-20.66-3.93-20.66z"/><g><path fill="none" d="M160 20H32c-6.6 0-12 5.4-12 12v128c0 6.6 5.4 12 12 12h128c6.6 0 12-5.4 12-12V32c0-6.6-5.4-12-12-12z"/><path fill="none" d="M0 0v192h192V0H0z"/><path fill="#DFDFDF" d="M160 20c6.6 0 12 5.4 12 12v128c0 6.6-5.4 12-12 12H32c-6.6 0-12-5.4-12-12V32c0-6.6 5.4-12 12-12h128m0-8H32c-11.03 0-20 8.97-20 20v128c0 11.03 8.97 20 20 20h128c11.03 0 20-8.97 20-20V32c0-11.03-8.97-20-20-20z"/><path fill="#FFF" fill-opacity=".2" d="M160 20H32c-6.6 0-12 5.4-12 12v1c0-6.6 5.4-12 12-12h128c6.6 0 12 5.4 12 12v-1c0-6.6-5.4-12-12-12z"/><path fill="#212121" fill-opacity=".1" d="M160 172H32c-6.6 0-12-5.4-12-12v-1c0 6.6 5.4 12 12 12h128c6.6 0 12-5.4 12-12v1c0 6.6-5.4 12-12 12z"/><radialGradient id="a" cx="23.768" cy="23.933" r="204.625" gradientUnits="userSpaceOnUse"><stop offset="0" stop-color="#fff" stop-opacity=".1"/><stop offset="1" stop-color="#fff" stop-opacity="0"/></radialGradient><path fill="url(#a)" d="M160 172H32c-6.6 0-12-5.4-12-12V32c0-6.6 5.4-12 12-12h128c6.6 0 12 5.4 12 12v128c0 6.6-5.4 12-12 12z"/></g></svg>