<svg xmlns="http://www.w3.org/2000/svg" width="192" height="192"><path fill="#E8112D" d="M172 160V32c0-6.6-5.4-12-12-12H32c-6.6 0-12 5.4-12 12v128c0 6.6 5.4 12 12 12h128c6.6 0 12-5.4 12-12z"/><path fill="#FFEF00" d="M96 123.36c.71 0 1.41-.04 2.1-.09l.03.09c1.42 5.57-3.65 12.16-2.13 18.24-4.56-4.05 0-12.67-2.13-18.24l-.03-.09c.71.05 1.43.09 2.16.09zM68.73 93.84l-.09.03C63.07 96 54.45 91.44 50.4 96c6.08-1.52 12.67 3.55 18.24 2.13l.09-.03c-.05-.69-.09-1.39-.09-2.1 0-.73.04-1.45.09-2.16zm29.43-25.11l-.03-.09C96 63.07 100.56 54.45 96 50.4c1.52 6.08-3.55 12.67-2.13 18.24l.03.09c.69-.05 1.39-.09 2.1-.09.73 0 1.45.04 2.16.09zm25.2 25.14l-.09.03c.05.69.09 1.39.09 2.1 0 .73-.04 1.45-.09 2.16l.09-.03c5.57-2.13 14.19 2.43 18.24-2.13-6.08 1.52-12.67-3.55-18.24-2.13zm-37.84 27.41v.09c.3 5.96-6.7 12.74-3.61 18 .43-6.25 7.29-10.95 7.66-16.69v-.09c-1.39-.33-2.75-.77-4.05-1.31zM70.64 85.52c-5.96.3-12.74-6.7-18-3.61 6.25.43 10.95 7.29 16.69 7.66h.09c.34-1.4.78-2.75 1.32-4.05h-.1zm35.84-14.88c-.3-5.96 6.7-12.74 3.61-18-.43 6.25-7.29 10.95-7.66 16.69v.09c1.4.34 2.75.78 4.05 1.32v-.1zm14.88 35.84c5.96-.3 12.74 6.7 18 3.61-6.25-.43-10.95-7.29-16.69-7.66h-.09c-.34 1.4-.78 2.75-1.32 4.05h.1zm-43.16 10.4c-1.55 5.76-10.31 10.05-9 16.01 2.34-5.81 10.31-8.16 12.44-13.51.01-.03.02-.05.03-.08-1.22-.75-2.36-1.59-3.44-2.52-.01.04-.02.07-.03.1zm-2.99-38.66l-.09-.03c-5.76-1.55-10.05-10.31-16.01-9 5.81 2.34 8.16 10.31 13.51 12.44.03.01.05.02.08.03.74-1.21 1.59-2.36 2.51-3.44zm38.59-3.1c1.55-5.76 10.31-10.05 9-16.01-2.34 5.81-10.31 8.16-12.44 13.51-.01.03-.02.05-.03.08 1.22.75 2.36 1.59 3.44 2.52.01-.04.02-.07.03-.1zm2.99 38.66l.09.03c5.76 1.55 10.05 10.31 16.01 9-5.81-2.34-8.16-10.31-13.51-12.44-.03-.01-.05-.02-.08-.03-.74 1.21-1.59 2.36-2.51 3.44zm-44.13-3.49c-.02.03-.03.05-.05.07-3.26 5-12.91 6.37-13.51 12.44 4.03-4.8 12.33-4.58 16.01-9 .02-.02.04-.05.06-.07-.92-1.08-1.76-2.23-2.51-3.44zm8.98-37.68c-5-3.26-6.37-12.91-12.44-13.51 4.8 4.03 4.58 12.33 9 16.01.02.02.05.04.07.06 1.08-.92 2.23-1.76 3.45-2.51-.03-.01-.05-.03-.08-.05zm37.7 9.1c.02-.03.03-.05.05-.07 3.26-5 12.91-6.37 13.51-12.44-4.03 4.8-12.33 4.58-16.01 9-.02.02-.04.05-.06.07.92 1.08 1.76 2.23 2.51 3.44zm-8.98 37.68c5 3.26 6.37 12.91 12.44 13.51-4.8-4.03-4.58-12.33-9-16.01-.02-.02-.05-.04-.07-.06-1.08.92-2.23 1.76-3.45 2.51.03.01.05.03.08.05zm-41.04-16.96c-4.64 3.75-14.24 2.07-16.69 7.66 5.31-3.32 13.14-.54 18-3.61.02-.01.04-.03.07-.05-.54-1.3-.98-2.66-1.31-4.06-.02.02-.04.04-.07.06zm20.25-33.11c-3.75-4.64-2.07-14.24-7.66-16.69 3.32 5.31.54 13.14 3.61 18 .01.02.03.04.05.07 1.3-.54 2.66-.98 4.06-1.31a.435.435 0 01-.06-.07zm33.11 20.25c4.64-3.75 14.24-2.07 16.69-7.66-5.31 3.32-13.14.54-18 3.61-.02.01-.04.03-.07.05.54 1.3.98 2.66 1.31 4.06.02-.02.04-.04.07-.06zm-20.31 33.04c.02.02.04.05.06.07 3.75 4.64 2.07 14.24 7.66 16.69-3.32-5.31-.54-13.14-3.61-18-.01-.02-.03-.04-.05-.07-1.3.53-2.66.97-4.06 1.31zm-12.75.08c1.23 5.84-4.62 13.63-.75 18.35-.55-6.24 5.48-11.96 4.96-17.68 0-.03-.01-.06-.01-.09a26.58 26.58 0 01-4.21-.67c0 .03 0 .06.01.09zM69.31 89.62c-5.84 1.23-13.63-4.62-18.35-.75 6.24-.55 11.96 5.48 17.68 4.96.03 0 .06-.01.09-.01.11-1.44.34-2.84.67-4.21-.03 0-.06 0-.09.01zm33.07-20.31c-1.23-5.84 4.62-13.63.75-18.35.55 6.24-5.48 11.96-4.96 17.68 0 .03.01.06.01.09 1.44.11 2.84.34 4.21.67 0-.03 0-.06-.01-.09zm20.31 33.07c5.84-1.23 13.63 4.62 18.35.75-6.24.55-11.96-5.48-17.68-4.96-.03 0-.06.01-.09.01a26.58 26.58 0 01-.67 4.21c.03 0 .06 0 .09-.01zm-41 16.94c0 .03-.01.06-.01.09-.63 5.93-8.61 11.54-6.38 17.22 1.41-6.11 8.91-9.68 10.18-15.29.01-.03.01-.05.02-.08-1.33-.54-2.6-1.2-3.81-1.94zm-9.1-37.64c-5.93-.63-11.54-8.61-17.22-6.38 6.11 1.41 9.68 8.91 15.29 10.18.03.01.05.01.08.02.55-1.32 1.2-2.59 1.94-3.8-.03-.01-.06-.01-.09-.02zm37.73-9.09c.63-5.93 8.61-11.54 6.38-17.22-1.41 6.11-8.91 9.68-10.18 15.29-.01.03-.01.05-.02.08 1.32.55 2.59 1.2 3.8 1.94.01-.03.01-.06.02-.09zm9.09 37.73c5.93.63 11.54 8.61 17.22 6.38-6.11-1.41-9.68-8.91-15.29-10.18-.03-.01-.05-.01-.08-.02-.55 1.32-1.2 2.59-1.94 3.8.03.01.06.01.09.02zm-44.22 3.43c-.01.03-.03.06-.04.09-2.44 5.45-11.75 8.31-11.39 14.4 3.22-5.37 11.46-6.45 14.4-11.39a.3.3 0 00.04-.08c-1.08-.93-2.08-1.93-3.01-3.02zm3.06-38.56c-.03-.01-.06-.03-.09-.04-5.45-2.44-8.31-11.75-14.4-11.39 5.37 3.22 6.45 11.46 11.39 14.4a.3.3 0 00.08.04c.93-1.08 1.93-2.08 3.02-3.01zm38.56 3.06c.01-.03.03-.06.04-.09 2.44-5.45 11.75-8.31 11.39-14.4-3.22 5.37-11.46 6.45-14.4 11.39a.3.3 0 00-.04.08c1.08.93 2.08 1.93 3.01 3.02zm-3.06 38.56c.03.01.06.03.09.04 5.45 2.44 8.31 11.75 14.4 11.39-5.37-3.22-6.45-11.46-11.39-14.4a.3.3 0 00-.08-.04c-.93 1.08-1.93 2.08-3.02 3.01zm-43.09-10.28c-4 4.43-13.74 4.27-15.29 10.18 4.73-4.11 12.9-2.59 17.22-6.38l.06-.06c-.74-1.21-1.39-2.48-1.93-3.8a.17.17 0 00-.06.06zm14.81-35.87c-4.43-4-4.27-13.74-10.18-15.29 4.11 4.73 2.59 12.9 6.38 17.22l.06.06c1.21-.74 2.48-1.39 3.8-1.93a.17.17 0 00-.06-.06zm35.87 14.81c4-4.43 13.74-4.27 15.29-10.18-4.73 4.11-12.9 2.59-17.22 6.38l-.06.06c.74 1.21 1.39 2.48 1.93 3.8a.17.17 0 00.06-.06zm-14.88 35.81l.06.06c4.43 4 4.27 13.74 10.18 15.29-4.11-4.73-2.59-12.9-6.38-17.22l-.06-.06c-1.21.74-2.48 1.39-3.8 1.93zm-37.82-23.1c-5.17 2.97-14.39-.18-17.68 4.96 5.77-2.45 13.07 1.52 18.35-.75a.3.3 0 00.08-.04 26.75 26.75 0 01-.66-4.21c-.03.01-.06.02-.09.04zm25.18-29.54c-2.97-5.17.18-14.39-4.96-17.68 2.45 5.77-1.52 13.07.75 18.35a.3.3 0 00.04.08c1.37-.33 2.78-.55 4.21-.66-.01-.03-.02-.06-.04-.09zm29.54 25.18c5.17-2.97 14.39.18 17.68-4.96-5.77 2.45-13.07-1.52-18.35.75a.3.3 0 00-.08.04c.33 1.37.55 2.78.66 4.21.03-.01.06-.02.09-.04zm-25.18 29.54c2.97 5.17-.18 14.39 4.96 17.68-2.45-5.77 1.52-13.07-.75-18.35a.3.3 0 00-.04-.08c-1.37.33-2.78.55-4.21.66.01.03.02.06.04.09zm7.39-38.54c5.44 4.53 9.6 10.54 11.87 17.42.88-2.42 1.36-5.04 1.36-7.76 0-4.52-1.32-8.74-3.6-12.28-3.39.37-6.63 1.28-9.63 2.62zm-14.94 2.29c-.52-.33-1.05-.65-1.59-.96-6.15 5.19-10.58 12.37-12.28 20.55.54.85 1.13 1.66 1.78 2.43 1.25-8.77 5.68-16.51 12.09-22.02zm12.33-.96c-.54.3-1.07.62-1.59.96 6.41 5.51 10.84 13.25 12.1 22.02.64-.77 1.24-1.58 1.78-2.43a36.698 36.698 0 00-12.29-20.55zm-3.77 2.5c-.46.35-.9.71-1.34 1.09 6.4 5.97 10.47 14.41 10.66 23.81.71-.46 1.39-.96 2.04-1.5-.59-9.29-4.86-17.57-11.36-23.4zm.64-4.88c-.55.29-1.09.59-1.62.9.45.31.9.63 1.34.96.53-.32 1.06-.63 1.61-.92-.44-.32-.88-.63-1.33-.94zm-7.38 1.87c.44-.33.88-.65 1.34-.96-.53-.32-1.07-.62-1.62-.9-.45.3-.89.62-1.33.94.55.29 1.09.59 1.61.92zM73.2 94.48c0 2.73.48 5.34 1.36 7.76a38.356 38.356 0 0111.87-17.42 32.018 32.018 0 00-9.63-2.63c-2.28 3.55-3.6 7.77-3.6 12.29zM96 83.28c.53-.31 1.07-.61 1.62-.89-.53-.31-1.07-.6-1.62-.88-.55.28-1.09.58-1.62.88.55.29 1.09.59 1.62.89zm0 8.16c-5.84 5.84-9.44 13.9-9.44 22.8 0 .33.01.67.02 1 2.87 1.31 6.06 2.04 9.43 2.04s6.55-.73 9.43-2.04c.01-.33.02-.66.02-1-.02-8.9-3.62-16.97-9.46-22.8zm-4.33-10.29c.53-.31 1.07-.6 1.61-.89a36.58 36.58 0 00-12.53-2.73c-.35.32-.69.64-1.02.98 4.21.19 8.23 1.11 11.94 2.64zM96 88.13c.44-.35.89-.7 1.34-1.03-.44-.34-.89-.67-1.34-1-.46.32-.9.65-1.34 1 .45.33.9.68 1.34 1.03zm6.5-5.62c.44.3.87.61 1.3.92a33.04 33.04 0 0110.48-2.58c-.23-.31-.48-.62-.72-.92-3.9.25-7.62 1.15-11.06 2.58zm-2.17-1.36c3.71-1.53 7.73-2.45 11.94-2.64-.33-.34-.67-.66-1.02-.98a36.58 36.58 0 00-12.53 2.73c.54.29 1.08.58 1.61.89zm-6.18 8.58c-.44-.37-.88-.74-1.34-1.09-6.5 5.84-10.77 14.11-11.36 23.39.65.54 1.33 1.04 2.04 1.5.19-9.39 4.26-17.83 10.66-23.8zM82.64 76.01c4.72.19 9.23 1.23 13.36 2.97 4.13-1.75 8.64-2.79 13.36-2.97-3.75-2.72-8.37-4.33-13.36-4.33s-9.6 1.61-13.36 4.33zm5.55 7.43c.43-.32.86-.63 1.3-.92a34.265 34.265 0 00-11.05-2.58c-.25.3-.49.61-.72.92 3.69.29 7.22 1.18 10.47 2.58z"/><path fill="none" d="M160 20H32c-6.6 0-12 5.4-12 12v128c0 6.6 5.4 12 12 12h128c6.6 0 12-5.4 12-12V32c0-6.6-5.4-12-12-12z"/><path fill="none" d="M0 0v192h192V0H0z"/><path fill="#DFDFDF" d="M160 20c6.6 0 12 5.4 12 12v128c0 6.6-5.4 12-12 12H32c-6.6 0-12-5.4-12-12V32c0-6.6 5.4-12 12-12h128m0-8H32c-11.03 0-20 8.97-20 20v128c0 11.03 8.97 20 20 20h128c11.03 0 20-8.97 20-20V32c0-11.03-8.97-20-20-20z"/><path fill="#FFF" fill-opacity=".2" d="M160 20H32c-6.6 0-12 5.4-12 12v1c0-6.6 5.4-12 12-12h128c6.6 0 12 5.4 12 12v-1c0-6.6-5.4-12-12-12z"/><path fill="#212121" fill-opacity=".1" d="M160 172H32c-6.6 0-12-5.4-12-12v-1c0 6.6 5.4 12 12 12h128c6.6 0 12-5.4 12-12v1c0 6.6-5.4 12-12 12z"/><radialGradient id="a" cx="23.768" cy="23.933" r="204.625" gradientUnits="userSpaceOnUse"><stop offset="0" stop-color="#fff" stop-opacity=".1"/><stop offset="1" stop-color="#fff" stop-opacity="0"/></radialGradient><path fill="url(#a)" d="M160 172H32c-6.6 0-12-5.4-12-12V32c0-6.6 5.4-12 12-12h128c6.6 0 12 5.4 12 12v128c0 6.6-5.4 12-12 12z"/></svg>