<svg xmlns="http://www.w3.org/2000/svg" width="192" height="192"><path fill="#032EA1" d="M172 160V32c0-6.6-5.4-12-12-12H32c-6.6 0-12 5.4-12 12v128c0 6.6 5.4 12 12 12h128c6.6 0 12-5.4 12-12z"/><path fill="#E00025" d="M20 58h152v76H20z"/><path fill="#FFF" d="M144.75 123.11h-2.46v-4.75h-2.46v-4.06h-2.44v-3.06h-1.46v-2.37h-2.16c-.56-.36-1.17-1.04-1.38-1.79l-.04-.13h-.03v-7.56c.25-.92 1.03-1.73 1.59-1.89l.13-.04v-7.63h-.18c-.57 0-.97.37-1.23.72v-2.32l-.07-.05c-.32-.25-.7-.26-1.15-.04l-.1.05v.67h-1.25v-3.41h-.18c-.3 0-.45.31-.62.66-.22.44-.46.95-.99.95-.15 0-.19-.06-.2-.09-.09-.16-.02-.52.17-.85.25-.44.68-1.18.17-2.54l-.18-.48-.16.48c-.19.55-.54.8-.69.83 0-.02 0-.04.01-.07.08-.3.21-.52.33-.74.29-.5.57-.98.13-2.15l-.24-.65-.11.69c-.1.66-.35.89-.49.87-.03-.04-.05-.14 0-.3.05-.2.12-.37.19-.54.22-.55.41-1.03-.08-2.03l-.22-.46-.12.5c-.15.65-.31.85-.36.91-.03-.06-.06-.19-.06-.42v-.11c0-1.23 0-2.62-1.61-3.18-.05-.34-.23-1.21-.86-1.21s-.81.87-.86 1.21c-1.61.56-1.61 1.95-1.61 3.18v.11c0 .23-.03.36-.06.42-.06-.07-.21-.28-.36-.91l-.12-.5-.22.46c-.48 1-.3 1.48-.08 2.03.07.17.13.34.19.54.04.16.03.27-.03.32-.1 0-.36-.22-.46-.89l-.11-.69-.24.65c-.44 1.17-.16 1.64.13 2.15.13.22.25.44.33.74.01.03.01.06.01.07-.14-.03-.5-.28-.69-.83l-.16-.48-.18.48c-.51 1.36-.09 2.1.17 2.54.19.33.27.69.17.85-.01.02-.05.09-.2.09-.53 0-.78-.5-.99-.95-.17-.36-.32-.66-.62-.66h-.18v5.99h-1.51v-.29l-.08-.05c-.24-.17-.64-.18-.96-.03l-.11.05v.34h-9.27l.02-5.52-.25.1c-.92.36-1.09 1.19-1.1 1.26v.8h-.83c-.02 0-.39-.04-.39-.77 0-.51.11-1.36.81-1.36l.23.01v-2.3l-.21.03c-.01 0-1.06.16-1.64 1.11v-.55h-.18c-.77 0-.83.93-.83 2.58h-.17v-1.92c.01-.49.27-.73.54-.99.25-.24.52-.48.53-.89.01-.05.13-1.22-.19-1.79l-.22-.38-.11.43c-.21.79-.49 1-.62 1-.1 0-.19-.14-.19-.32 0-.39.28-.81.82-1.64.13-.2.28-.42.44-.67.32-.49.15-1.92-.3-2.46l-.27-.33-.05.42c-.15 1.17-.31 1.57-.64 1.57-.09 0-.37 0-.37-.6 0-.41.17-.7.38-1.03.13-.21.26-.43.36-.7.3-.82.12-1.72-.44-2.24l-.24-.23-.06.33c-.04.24-.07.44-.1.62-.11.72-.15.83-.35.84-.14-.05-.23-.13-.27-.24-.16-.42.35-1.25.54-1.56l.07-.12.02-.05c.22-.8-.36-1.46-.38-1.48l-.21-.24-.1.3c-.22.67-.33.91-.44.91-.04 0-.09-.01-.13-.02a.193.193 0 01-.15-.15c-.05-.18.05-.53.39-.86.41-.4.38-1.02-.06-1.5l-.18-.19-.12.23c-.16.32-.37.46-.5.46-.02 0-.05 0-.07-.02-.02-.02-.02-.07-.01-.12l.37-1.83h-.44l.15-1.2h-.56l.13-1h-.96l.09-1.01h-.85c-.01-.3-.07-.97-.42-1.35a.869.869 0 00-.62-.27c-.24 0-.44.09-.61.27-.36.37-.42 1.05-.42 1.35h-.88l.09 1.01h-.96l.13 1h-.56l.15 1.2h-.43l.33 1.86c-.01.05-.03.12-.09.12-.08 0-.26-.1-.45-.46l-.12-.23-.18.19c-.44.48-.46 1.1-.05 1.5.33.33.44.68.39.86-.02.08-.07.13-.15.15-.04.01-.09.02-.13.02-.11 0-.22-.24-.44-.91l-.11-.36-.21.31c-.07.1-.65.99-.35 1.51l.07.12c.19.31.7 1.14.54 1.56-.04.11-.13.19-.27.24-.2-.01-.24-.12-.35-.84-.03-.18-.06-.39-.1-.62l-.06-.33-.24.22c-.56.52-.73 1.42-.44 2.24.1.27.23.49.36.7.2.33.38.62.38 1.03 0 .6-.28.6-.37.6-.33 0-.49-.4-.64-1.57l-.05-.42-.27.33c-.44.55-.61 1.97-.3 2.46.16.25.31.47.44.67.55.83.82 1.24.82 1.64 0 .18-.08.33-.19.33-.13 0-.41-.21-.62-1l-.11-.43-.22.38c-.33.57-.2 1.74-.2 1.77.02.43.28.67.53.91.27.25.53.49.54.98v1.92h-.16c0-1.77-.03-2.58-.89-2.58h-.18v.54c-.57-.94-1.61-1.1-1.63-1.1l-.21-.03v2.3l.23-.01c.71 0 .81.85.81 1.36 0 .73-.38.77-.39.77H86.3v-.8l-.01-.05c-.01-.03-.24-.85-1.16-1.21l-.25-.1v5.52h-8.95v-.34l-.11-.05c-.31-.15-.72-.14-.96.03l-.08.05v.29h-1.51v-5.99h-.18c-.3 0-.45.31-.62.66-.22.44-.46.95-.99.95-.15 0-.19-.06-.2-.09-.09-.16-.02-.52.17-.85.33-.57.64-1.28.17-2.54l-.18-.48-.16.48c-.19.55-.54.8-.69.83 0-.02 0-.04.01-.07.08-.3.21-.52.33-.74.29-.5.57-.98.13-2.15l-.24-.65-.11.69c-.1.66-.36.89-.49.87-.03-.04-.05-.14 0-.3.05-.2.12-.37.19-.54.22-.55.41-1.03-.08-2.03l-.22-.46-.11.52c-.15.65-.31.85-.36.91-.03-.06-.06-.19-.06-.42v-.11c0-1.23 0-2.62-1.61-3.18-.05-.34-.23-1.21-.86-1.21s-.81.87-.86 1.21c-1.61.56-1.61 1.95-1.61 3.18v.11c0 .23-.03.36-.06.42-.06-.07-.21-.28-.36-.91l-.12-.5-.22.46c-.48 1-.3 1.48-.08 2.03.07.17.13.34.19.54.04.16.03.27-.03.32-.1 0-.36-.22-.46-.89l-.11-.69-.24.65c-.44 1.17-.16 1.64.13 2.15.12.22.25.44.33.74.01.03.01.06.01.07-.14-.03-.5-.28-.69-.83l-.16-.48-.18.48c-.47 1.26-.16 1.97.17 2.54.19.33.26.69.17.85-.01.02-.05.09-.2.09-.53 0-.78-.5-.99-.95-.17-.36-.32-.66-.62-.66h-.18v3.41h-1.25v-.67l-.1-.05c-.44-.22-.83-.21-1.15.04l-.07.05v2.32c-.26-.35-.67-.72-1.24-.72h-.18v7.63l.13.04c.56.16 1.35.97 1.59 1.89v7.71c-.21.74-.82 1.41-1.37 1.77h-2.25v2.37H53.6v3.06h-2.44v4.06H48.7v4.75h-2.46v5.12h98.5v-5.13z"/><path d="M144.75 123.11h-2.46v-4.75h-2.46v-4.06h-2.44v-3.06h-1.46v-2.37h-2.16c-.56-.36-1.17-1.04-1.38-1.79l-.04-.13h-.03v-7.56c.25-.92 1.03-1.73 1.59-1.89l.13-.04v-7.63h-.18c-.57 0-.97.37-1.23.72v-2.32l-.07-.05c-.32-.25-.7-.26-1.15-.04l-.1.05v.67h-1.25v-3.41h-.18c-.3 0-.45.31-.62.66-.22.44-.46.95-.99.95-.15 0-.19-.06-.2-.09-.09-.16-.02-.52.17-.85.25-.44.68-1.18.17-2.54l-.18-.48-.16.48c-.19.55-.54.8-.69.83 0-.02 0-.04.01-.07.08-.3.21-.52.33-.74.29-.5.57-.98.13-2.15l-.24-.65-.11.69c-.1.66-.35.89-.49.87-.03-.04-.05-.14 0-.3.05-.2.12-.37.19-.54.22-.55.41-1.03-.08-2.03l-.22-.46-.12.5c-.15.65-.31.85-.36.91-.03-.06-.06-.19-.06-.42v-.11c0-1.23 0-2.62-1.61-3.18-.05-.34-.23-1.21-.86-1.21s-.81.87-.86 1.21c-1.61.56-1.61 1.95-1.61 3.18v.11c0 .23-.03.36-.06.42-.06-.07-.21-.28-.36-.91l-.12-.5-.22.46c-.48 1-.3 1.48-.08 2.03.07.17.13.34.19.54.04.16.03.27-.03.32-.1 0-.36-.22-.46-.89l-.11-.69-.24.65c-.44 1.17-.16 1.64.13 2.15.13.22.25.44.33.74.01.03.01.06.01.07-.14-.03-.5-.28-.69-.83l-.16-.48-.18.48c-.51 1.36-.09 2.1.17 2.54.19.33.27.69.17.85-.01.02-.05.09-.2.09-.53 0-.78-.5-.99-.95-.17-.36-.32-.66-.62-.66h-.18v5.99h-1.51v-.29l-.08-.05c-.24-.17-.64-.18-.96-.03l-.11.05v.34h-9.27l.02-5.52-.25.1c-.92.36-1.09 1.19-1.1 1.26v.8h-.83c-.02 0-.39-.04-.39-.77 0-.51.11-1.36.81-1.36l.23.01v-2.3l-.21.03c-.01 0-1.06.16-1.64 1.11v-.55h-.18c-.77 0-.83.93-.83 2.58h-.17v-1.92c.01-.49.27-.73.54-.99.25-.24.52-.48.53-.89.01-.05.13-1.22-.19-1.79l-.22-.38-.11.43c-.21.79-.49 1-.62 1-.1 0-.19-.14-.19-.32 0-.39.28-.81.82-1.64.13-.2.28-.42.44-.67.32-.49.15-1.92-.3-2.46l-.27-.33-.05.42c-.15 1.17-.31 1.57-.64 1.57-.09 0-.37 0-.37-.6 0-.41.17-.7.38-1.03.13-.21.26-.43.36-.7.3-.82.12-1.72-.44-2.24l-.24-.23-.06.33c-.04.24-.07.44-.1.62-.11.72-.15.83-.35.84-.14-.05-.23-.13-.27-.24-.16-.42.35-1.25.54-1.56l.07-.12.02-.05c.22-.8-.36-1.46-.38-1.48l-.21-.24-.1.3c-.22.67-.33.91-.44.91-.04 0-.09-.01-.13-.02a.193.193 0 01-.15-.15c-.05-.18.05-.53.39-.86.41-.4.38-1.02-.06-1.5l-.18-.19-.12.23c-.16.32-.37.46-.5.46-.02 0-.05 0-.07-.02-.02-.02-.02-.07-.01-.12l.37-1.83h-.44l.15-1.2h-.56l.13-1h-.96l.09-1.01h-.85c-.01-.3-.07-.97-.42-1.35a.869.869 0 00-.62-.27c-.24 0-.44.09-.61.27-.36.37-.42 1.05-.42 1.35h-.88l.09 1.01h-.96l.13 1h-.56l.15 1.2h-.43l.33 1.86c-.01.05-.03.12-.09.12-.08 0-.26-.1-.45-.46l-.12-.23-.18.19c-.44.48-.46 1.1-.05 1.5.33.33.44.68.39.86-.02.08-.07.13-.15.15-.04.01-.09.02-.13.02-.11 0-.22-.24-.44-.91l-.11-.36-.21.31c-.07.1-.65.99-.35 1.51l.07.12c.19.31.7 1.14.54 1.56-.04.11-.13.19-.27.24-.2-.01-.24-.12-.35-.84-.03-.18-.06-.39-.1-.62l-.06-.33-.24.22c-.56.52-.73 1.42-.44 2.24.1.27.23.49.36.7.2.33.38.62.38 1.03 0 .6-.28.6-.37.6-.33 0-.49-.4-.64-1.57l-.05-.42-.27.33c-.44.55-.61 1.97-.3 2.46.16.25.31.47.44.67.55.83.82 1.24.82 1.64 0 .18-.08.33-.19.33-.13 0-.41-.21-.62-1l-.11-.43-.22.38c-.33.57-.2 1.74-.2 1.77.02.43.28.67.53.91.27.25.53.49.54.98v1.92h-.16c0-1.77-.03-2.58-.89-2.58h-.18v.54c-.57-.94-1.61-1.1-1.63-1.1l-.21-.03v2.3l.23-.01c.71 0 .81.85.81 1.36 0 .73-.38.77-.39.77H86.3v-.8l-.01-.05c-.01-.03-.24-.85-1.16-1.21l-.25-.1v5.52h-8.95v-.34l-.11-.05c-.31-.15-.72-.14-.96.03l-.08.05v.29h-1.51v-5.99h-.18c-.3 0-.45.31-.62.66-.22.44-.46.95-.99.95-.15 0-.19-.06-.2-.09-.09-.16-.02-.52.17-.85.33-.57.64-1.28.17-2.54l-.18-.48-.16.48c-.19.55-.54.8-.69.83 0-.02 0-.04.01-.07.08-.3.21-.52.33-.74.29-.5.57-.98.13-2.15l-.24-.65-.11.69c-.1.66-.36.89-.49.87-.03-.04-.05-.14 0-.3.05-.2.12-.37.19-.54.22-.55.41-1.03-.08-2.03l-.22-.46-.11.52c-.15.65-.31.85-.36.91-.03-.06-.06-.19-.06-.42v-.11c0-1.23 0-2.62-1.61-3.18-.05-.34-.23-1.21-.86-1.21s-.81.87-.86 1.21c-1.61.56-1.61 1.95-1.61 3.18v.11c0 .23-.03.36-.06.42-.06-.07-.21-.28-.36-.91l-.12-.5-.22.46c-.48 1-.3 1.48-.08 2.03.07.17.13.34.19.54.04.16.03.27-.03.32-.1 0-.36-.22-.46-.89l-.11-.69-.24.65c-.44 1.17-.16 1.64.13 2.15.12.22.25.44.33.74.01.03.01.06.01.07-.14-.03-.5-.28-.69-.83l-.16-.48-.18.48c-.47 1.26-.16 1.97.17 2.54.19.33.26.69.17.85-.01.02-.05.09-.2.09-.53 0-.78-.5-.99-.95-.17-.36-.32-.66-.62-.66h-.18v3.41h-1.25v-.67l-.1-.05c-.44-.22-.83-.21-1.15.04l-.07.05v2.32c-.26-.35-.67-.72-1.24-.72h-.18v7.63l.13.04c.56.16 1.35.97 1.59 1.89v7.71c-.21.74-.82 1.41-1.37 1.77h-2.25v2.37H53.6v3.06h-2.44v4.06H48.7v4.75h-2.46v5.12h17.53v.01h6.48v-.01h21.9v.01h6.48v-.01h22.06v.01h6.48v-.01h17.58v-5.13zm-98.14.37h17.17v4.39H46.61v-4.39zm7.36-11.88h9.82v2.69h-9.82v-2.69zm4.4-20.32v5.62h.54l.37.67v9.38h-.24v-7.58l-.01-.05c-.26-1-1.07-1.86-1.72-2.12v-6.98c.64.13 1 .93 1.06 1.06zm1.32-2.05h1.25v.83h-1.25v-.83zm1.73-2.95c.24.49.56 1.15 1.32 1.15.23 0 .42-.1.52-.27.19-.34.04-.85-.17-1.21-.21-.36-.5-.87-.28-1.79.25.41.6.64.85.64.11 0 .21-.04.27-.13.08-.1.09-.24.05-.41-.09-.34-.24-.6-.37-.82-.21-.36-.38-.66-.28-1.24.27.6.75.68.96.41.11-.15.14-.37.07-.62-.06-.22-.13-.41-.2-.58-.16-.41-.28-.72-.12-1.26.16.46.36.69.58.69.12 0 .41-.08.41-.81v-.11c0-1.24 0-2.42 1.47-2.87l.12-.04.01-.12c.03-.33.19-1 .51-1s.48.67.51 1l.01.12.12.04c1.47.45 1.47 1.63 1.47 2.87v.11c0 .73.29.81.41.81.22 0 .41-.23.58-.69.16.54.03.85-.12 1.26-.07.17-.14.36-.2.58-.07.25-.04.47.07.62.21.28.68.2.96-.41.1.58-.07.88-.28 1.24-.13.23-.28.48-.37.82-.05.17-.03.31.05.41.06.08.16.13.27.13.25 0 .6-.24.85-.64.23.92-.07 1.44-.28 1.8-.21.37-.37.88-.17 1.21.1.17.28.27.52.27.76 0 1.08-.67 1.32-1.15.03-.07.07-.15.11-.22v10.4h-2v-1.68l-.25.1c-.4.16-.76.34-1.06.53a6.47 6.47 0 00-.13-.41c.39-.41 1.3-1.4 1.53-1.91l.02-2.34-.21.03c-.08.01-.15.03-.23.05.24-.37.42-.73.43-.99v-2.26l-.21.03c-.59.08-1.12.45-1.54 1.06-.09-.33-.19-.64-.29-.92.36-.34 1.07-1.06 1.13-1.57v-1.52l-.2.02c-.4.05-.81.15-1.15.51-.01-.02-.01-.03-.02-.04l.83-1.01v-1.5l-.2.02c-.33.04-.55.15-.78.41-.03-.07-.07-.14-.1-.2l.32-.69.02-1.24-.2.02c-.2.02-.35.08-.5.2-.01-.03-.04-.06-.05-.09l.75-.63v-1.03l-.2.02c-.2.02-.35.08-.5.2-.2-.4-.52-.72-.95-.94l-.08-.04-.15.02c-.43.22-.76.54-.95.93a.894.894 0 00-.5-.19l-.2-.02v1.03l.74.63c-.01.03-.03.05-.05.08-.14-.12-.29-.17-.5-.19l-.2-.02v1.17l.33.75c-.04.06-.07.12-.1.19-.22-.24-.44-.35-.78-.38l-.2-.02v1.5l.83 1.01c-.01.01-.01.03-.02.04-.34-.36-.75-.46-1.15-.51l-.2-.02v1.52l.01.05c.12.47.79 1.18 1.13 1.51-.11.29-.21.59-.3.93-.42-.61-.95-.98-1.54-1.06l-.21-.03v2.29c.04.25.23.6.47.97a1.31 1.31 0 00-.27-.06l-.21-.03v2.31l.02.04c.26.46 1.01 1.31 1.42 1.77-.06.17-.12.33-.17.51-.3-.18-.64-.36-1.03-.51l-.25-.1v1.68h-1.78l-.06-.21V86.05c.07.08.11.16.14.23zm14.16 5.08v2.25c-.14.07-.27.14-.41.22v-2.47c.11-.05.26-.04.41 0zm9.67-4.86c.48.29.65.73.68.83v4.63h.03v3.95h2.7c.01 0 .01.01.02.01.37.19.72.37.97.62h-4.41V86.5zm1.08 1.97h.75v5.06h-.75v-5.06zm1.68-1.14c0-1.01-.39-1.64-1.04-1.71v-1.5c.45.13 1.48.59 1.48 2.15v7.22h-1v-5.07c.21-.08.56-.33.56-1.09zm1.14-.3v.18H90.6v.95l.18.18h.31c.61.8.82 1.92.88 2.97-.16-.14-.35-.26-.58-.35l-.25.17v1.35h-.02c-.22-.37-1.11-1.73-2.32-2.24v-3.98c0-.05-.01-.1-.01-.15v-1.45c.34.16.36.81.36 2.37zm.23-3.35c-.23-.21-.41-.38-.42-.67-.02-.2-.05-.66 0-1.06.29.64.63.72.78.72.04 0 .08 0 .11-.01h1.66v1.06l.18.18h.34c.51.29.79.8.93 1.74-.17.35-.3.7-.36 1.01-.4-.46-.97-.96-1.78-1.17l-.23.18v1.18h-.56v-1.93c-.01-.63-.36-.96-.65-1.23zm-.37-5.75c.13.77.35 1.3.92 1.3.03 0 .07 0 .12-.01h1.8v.87l.18.18h.88l.75 1.04c-.21.32-.37.64-.47.93-.31-.41-.82-.72-1.44-.88l-.23.18v.8h-1.3c.05-.11.08-.23.08-.37 0-.5-.3-.95-.89-1.84-.13-.2-.28-.42-.44-.67-.16-.23-.13-.97.04-1.53zm1-3.07c.01.07.02.15.03.21.11.72.17 1.15.74 1.15l.06-.01h1.95v.45l1.07.94c-.21.35-.39.7-.49 1.01-.29-.39-.74-.7-1.3-.85l-.23.18v.99h-1.33c.09-.14.16-.35.16-.65 0-.51-.22-.87-.43-1.22-.12-.2-.25-.4-.33-.64-.21-.55-.16-1.13.1-1.56zm.84-1.88c.19.55.35.78.65.78.02 0 .05 0 .07-.01h1.54v.01l1.33.91c-.06.18-.12.37-.17.58-.26-.37-.69-.49-1.06-.59-.06-.02-.13-.04-.19-.05l-.23-.07v1.38h-1.52c.03-.05.06-.1.08-.16.22-.59-.32-1.46-.57-1.88l-.07-.11c-.09-.19.01-.52.14-.79zm.72-1.67c.19.27.41.42.63.42.02 0 .04-.01.06-.01h1.51v.44l.72.37c-.02.06-.05.1-.07.16-.23-.25-.6-.33-.92-.4l-.39-.09v1.24h-1.03c.02-.04.04-.09.05-.14.09-.35-.1-.83-.48-1.21-.21-.21-.23-.5-.08-.78zm5.41-4.78l-.05.61h-2.94l-.05-.61h3.04zm.86 1.01l-.08.61h-4.59l-.08-.61h4.75zm.42 1l-.1.82h-5.39l-.1-.82h5.59zm.26 1.2l-.28 1.4c-.02.1-.01.19.01.27h-1.01v-.94l-.35.1c-.2.06-.44.12-.61.3-.11-.26-.25-.38-.44-.51-.06-.05-.13-.1-.21-.17l-.12-.11-.12.11c-.08.07-.14.12-.21.17-.19.14-.33.26-.44.51-.17-.18-.42-.25-.61-.3l-.35-.1v.94h-1.16c.02-.05.03-.1.04-.16v-.03l-.26-1.48h6.12zm.75 2.35c-.39.38-.58.86-.49 1.21.01.05.03.09.05.14h-.93V72.2l-.39.09c-.32.07-.69.15-.92.4a.774.774 0 00-.07-.16l.72-.37v-.44h1.4c.01 0 .02.01.03.01.01 0 .02 0 .04-.01h.07v-.02c.21-.04.41-.17.57-.4.16.29.13.58-.08.79zm.93 1.68l-.06.09c-.26.42-.79 1.29-.57 1.88.02.06.05.11.08.16h-1.42v-1.38l-.23.07c-.06.02-.13.04-.19.05-.37.1-.8.22-1.06.59-.05-.21-.11-.4-.17-.58l1.33-.92v-.01h1.45c.02 0 .05.01.07.01.31 0 .46-.24.66-.8.09.23.18.52.11.84zm.71 1.09c.26.43.3 1.01.1 1.55-.09.24-.21.44-.33.64-.21.35-.43.7-.43 1.22 0 .3.06.51.16.65h-1.38v-.99l-.23-.18c-.57.16-1.02.45-1.31.87-.09-.28-.24-.61-.43-.95l1.16-1.02v-.45h1.86l.05.01c.56 0 .63-.43.74-1.15.02-.05.03-.12.04-.2zm1.04 4.62c-.16.25-.31.47-.44.67-.59.89-.89 1.33-.89 1.84 0 .14.03.27.08.37h-1.35v-.8l-.23-.18c-.64.16-1.13.47-1.45.9-.1-.29-.26-.61-.47-.95l.75-1.04h.88l.18-.18v-.87h1.85c.04.01.08.01.12.01.03 0 .05-.01.08-.01h.06v-.01c.46-.09.65-.59.78-1.28.19.54.21 1.28.05 1.53zm.01 2.48c.05.4.03.86 0 1.07-.01.28-.19.44-.42.65-.29.27-.64.6-.66 1.25v1.92h-.61v-1.18l-.23-.18c-.66.17-1.26.56-1.78 1.16a4.17 4.17 0 00-.36-1.02c.14-.93.42-1.44.93-1.73h.34l.18-.18v-1.06h1.7c.04.01.07.01.11.01.17 0 .51-.08.8-.71zm-.18 5.07c0-1.52.07-2.15.28-2.33v5.55c-1.22.51-2.1 1.87-2.33 2.24h-.01v-1.35l-.25-.17c-.2.08-.36.18-.51.29.07-1.04.28-2.13.88-2.92h.24l.18-.18v-.95h1.51v-.18zm2.13-2.91v1.5c-.65.07-1.04.7-1.04 1.71 0 .76.35 1.01.57 1.09v5.07h-1V86.27c-.01-1.55 1.02-2.02 1.47-2.15zm.91 3.98v-.77c0-.02.11-.52.62-.83l-.03 7.95v2.08h-4.31c.19-.19.45-.35.71-.51.06-.04.12-.08.18-.11h2.82V90.11l.01-2.01zm11.02 3.25v2.47c-.13-.07-.27-.15-.41-.22v-2.25c.14-.03.3-.04.41 0zm2.36-5.07c.24.49.56 1.15 1.32 1.15.23 0 .42-.1.52-.27.19-.34.04-.85-.17-1.21-.21-.36-.5-.87-.28-1.8.25.41.6.64.85.64.11 0 .21-.04.27-.13.08-.1.09-.24.05-.41-.09-.34-.24-.6-.37-.82-.21-.36-.38-.66-.28-1.24.27.6.75.68.96.41.11-.15.14-.37.07-.62-.06-.22-.13-.41-.2-.58-.16-.41-.28-.72-.12-1.26.16.46.36.69.58.69.12 0 .41-.08.41-.81v-.11c0-1.24 0-2.42 1.47-2.87l.12-.04.01-.12c.03-.33.19-1 .51-1s.48.67.51 1l.01.12.12.04c1.44.46 1.44 1.64 1.44 2.88v.11c0 .22.03.39.08.53.09.25.25.28.34.28.22 0 .41-.23.58-.69.16.54.03.85-.12 1.26-.07.17-.14.36-.2.58-.07.25-.04.47.07.62.21.28.68.2.96-.41.1.58-.07.88-.28 1.24-.13.23-.28.48-.37.82-.05.17-.03.31.05.41.06.08.16.13.27.13.25 0 .6-.24.85-.64.23.92-.07 1.44-.28 1.8-.21.37-.37.88-.17 1.21.1.17.28.27.52.27.76 0 1.08-.67 1.32-1.15.03-.06.07-.15.11-.22v10.19c-.02.07-.04.13-.06.21h-1.78v-1.68l-.25.1c-.38.15-.73.32-1.02.51-.05-.17-.11-.34-.17-.51.41-.46 1.16-1.31 1.42-1.77l.02-.04v-2.31l-.21.03c-.09.01-.18.03-.27.06.24-.38.44-.74.48-1V87.6l-.21.03c-.59.08-1.12.45-1.54 1.06-.09-.34-.19-.64-.3-.93.34-.34 1-1.04 1.13-1.51l.01-1.57-.2.02c-.4.05-.81.15-1.15.51-.01-.01-.01-.03-.02-.04l.83-1.01v-1.5l-.2.02c-.34.04-.56.14-.78.38a1.14 1.14 0 00-.1-.19l.31-.67.02-1.24-.2.02c-.21.02-.36.07-.5.19-.01-.03-.03-.05-.05-.08l.74-.63v-1.03l-.2.02c-.21.02-.36.07-.5.19-.2-.39-.52-.71-.95-.93l-.08-.04-.08.04c-.42.22-.75.54-.95.94a.835.835 0 00-.5-.2l-.2-.02v1.03l.75.63c-.02.03-.04.06-.05.09a.835.835 0 00-.5-.2l-.2-.02v1.17l.34.76c-.04.06-.07.13-.11.2-.23-.26-.45-.37-.78-.41l-.2-.02v1.5l.83 1.01c-.01.01-.01.03-.02.04-.34-.36-.75-.46-1.15-.51l-.2-.02v1.55c.06.49.77 1.21 1.13 1.55-.11.29-.21.59-.29.92-.42-.61-.95-.98-1.54-1.06l-.21-.03v2.27c.01.25.19.61.43.98-.07-.02-.15-.03-.22-.05l-.21-.03v2.26l.02.07c.23.51 1.14 1.49 1.53 1.91-.05.13-.09.27-.13.41a6.98 6.98 0 00-1.06-.53l-.25-.1v1.68h-2v-10.4c0 .05.04.13.07.2zm15.49 3.94v6.98c-.65.26-1.46 1.13-1.72 2.12l-.01 7.63h-.24v-9.38l.37-.67h.54v-5.62c.09-.18.45-.93 1.06-1.06zm3.34 24.08h-9.86v-2.69h9.86v2.69zm4.9 8.81h-14.75v-4.39h14.75v4.39zM63.5 95.31c.82.36 1.42.82 1.65 1.25l.23.44.11-.48c.3-1.3.77-1.9 1.49-2.69.72.78 1.29 1.39 1.59 2.69l.11.48.23-.44c.23-.44.83-.9 1.65-1.25v2.11H63.5v-2.11zm3.51-2.89c1.41.99 1.92 1.94 2.28 3.2-.18.14-.34.28-.47.43-.35-1.14-.92-1.76-1.58-2.47l-.26-.28-.13.15c-.76.82-1.27 1.44-1.6 2.61-.14-.16-.31-.31-.51-.46.35-1.26.87-2.2 2.27-3.18zm.07-8.56c.79.49 1.17.79 1.42 1.76l.11.4.22-.35c.24-.38.53-.53.91-.6v1.08c-.04.29-.5.83-.91 1.23-.4-.91-.92-1.58-1.64-2.1l-.11-.08-.11.08c-.72.52-1.24 1.19-1.64 2.09-.35-.36-.82-.89-.92-1.22v-1.08c.37.07.66.22.9.6l.22.35.11-.4c.27-.98.65-1.27 1.44-1.76zm-.79-3.11l-.57-.48v-.43c.08.04.15.1.25.22l.21.28.1-.34c.13-.4.4-.72.8-.95.39.22.67.56.8.96l.11.33.21-.28c.1-.13.17-.2.25-.23v.43l-.57.48h-.03c-.18-.22-.41-.41-.68-.55l-.08-.04-.08.04c-.28.14-.5.33-.69.55h-.03zm-.01.78c.13-.41.4-.73.8-.96.39.23.67.56.8.98l.11.34.21-.28c.1-.13.17-.2.25-.24v.69l-.22.48c-.22-.22-.5-.38-.79-.54-.08-.05-.17-.1-.26-.15l-.09-.05-.09.05c-.11.06-.21.12-.31.17-.28.15-.53.3-.75.51l-.22-.47v-.7c.08.04.15.1.25.23l.21.28.1-.34zm.58.8c.07-.04.15-.08.22-.13.06.03.12.07.18.1.55.31.91.52 1.09 1.18l.11.39.22-.33c.19-.29.33-.42.52-.49v.94l-.63.77c-.3-.57-.74-.87-1.39-1.28l-.1-.06-.1.06c-.66.41-1.09.7-1.39 1.28l-.63-.77v-.95c.19.05.33.17.52.46l.22.33.11-.39c.18-.63.52-.82 1.05-1.11zm.22 3.32c.97.75 1.55 1.81 1.94 3.52l.11.48.23-.43c.35-.65.79-1.07 1.3-1.21v1.82c-.01.27-.35.8-.75 1.34-.23.17-.44.4-.64.67-.4-1.48-1-2.39-2.08-3.18l-.11-.08-.11.08c-1.08.79-1.69 1.7-2.08 3.18a2.86 2.86 0 00-.57-.62c-.39-.53-.77-1.09-.82-1.38V88c.5.15.95.56 1.3 1.21l.23.43.11-.48c.39-1.7.97-2.77 1.94-3.51zm-2.28 6.74l.23.43.11-.48c.36-1.58.91-2.53 1.94-3.31 1.03.79 1.58 1.73 1.94 3.31l.11.48.23-.43c.35-.65.79-1.07 1.3-1.21v1.79c-.2.4-.87 1.16-1.33 1.64-.38-.89-1-1.74-2.22-2.57l-.1-.07-.1.07c-1.17.79-1.79 1.6-2.17 2.45-.4-.45-.99-1.14-1.23-1.53v-1.78c.5.14.94.56 1.29 1.21zm10.78 1.63v2.48h-2.24c.3-1.3 1.21-1.94 2.24-2.48zm15.29-1.26l.05.09h.23v.59h-2.33v-2.79c1.18.59 2.04 2.1 2.05 2.11zm.09-6.85c.78.28 1.3.87 1.63 1.31l.33-.11c0-1.19 1.41-3.18 2.52-3.88 1.12.71 2.52 2.66 2.52 3.88l.33.11c.48-.66 1.02-1.09 1.63-1.31v2.07H96.8c-.42-.62-.87-1.09-1.27-1.32h-.19c-.39.23-.84.7-1.27 1.32h-3.11v-2.07zm.92-4.11c.61.21 1.06.59 1.22 1.05l.36-.06c-.02-.67.92-2.05 1.99-2.97 1.04.81 1.98 2.33 1.98 2.97l.35.07c.19-.5.61-.86 1.22-1.06v1.74h-2.61c-.29-.28-.58-.52-.86-.68h-.18c-.27.16-.57.39-.86.68h-2.61V81.8zm.32-3.62c.54.21.94.59 1.08 1.04l.36-.06c-.02-.67.83-2.04 1.8-2.96.94.82 1.79 2.32 1.79 2.96l.35.06c.17-.49.55-.85 1.08-1.05v1.73h-2.57c-.18-.17-.36-.34-.55-.48l-.22.01c-.17.14-.35.3-.52.47h-2.6v-1.72zm.95-3.16c.53.14.94.27.99.97l.36.01c.18-1.13.47-1.83 1.01-2.36.53.53.83 1.23 1.01 2.36l.36-.02c.05-.7.46-.83.99-.97v1.48l-.99.87c-.36-.57-.82-1.14-1.32-1.53l-.24.01c-.44.39-.89.92-1.26 1.45l-.9-.79v-1.48zm.33-1.46v-.9c.48.1.77.2.81.61l.36.02c.15-.75.4-1.21.85-1.57.45.35.7.81.85 1.57l.36-.02c.04-.41.33-.5.81-.61v.9l-1.11.76c-.2-.43-.46-.77-.79-1.06l-.12-.11-.12.11c-.34.3-.59.64-.79 1.06l-1.11-.76zm.66-2.61c.29.09.44.18.46.52l.36.02c.09-.58.21-.67.43-.83.04-.03.07-.05.11-.09.04.03.08.06.11.09.22.16.34.25.43.83l.36-.02c.02-.34.17-.43.46-.52v.98l-.5.26c-.18-.34-.43-.62-.76-.85l-.1-.07-.1.07c-.33.23-.57.5-.76.85l-.5-.26v-.98zm2.31 9.33h1.07l-.51.71c-.17-.24-.36-.48-.56-.71zm-1.99 0c-.21.23-.41.48-.59.72l-.52-.72h1.11zm2.28 3.62h1.51c-.3.31-.49.73-.61 1.22a8.35 8.35 0 00-.9-1.22zm-2.6 0c-.33.37-.64.8-.9 1.23-.12-.5-.31-.92-.61-1.23h1.51zm4.45 7.75c-.12.16-.23.33-.31.5-.11-1.4-.62-2.76-1.24-3.8h2.37c-.62.95-.78 2.19-.82 3.3zm-4.75-3.3c-.63 1.04-1.15 2.41-1.25 3.79-.07-.13-.15-.26-.24-.39-.03-1.14-.19-2.43-.82-3.4h2.31zm-1.37 4.38c.05.1.09.2.14.29l.35-.09c-.13-2.42 1.36-5.13 2.49-5.89 1.09.74 2.59 3.37 2.49 5.89l.35.09c.04-.08.08-.17.12-.26.21-.48.45-1.01.97-1.32v2.1h-2.31c-.42-.67-.97-1.23-1.52-1.55l-.09-.05-.09.05c-.55.32-1.09.88-1.52 1.55h-2.32v-2.1c.49.3.73.82.94 1.29zm7.54.03c.01-.02.87-1.53 2.06-2.11v2.79h-2.34v-.59H99.96l.05-.09zm17.67 3.73h-2.24v-2.48c1.02.55 1.93 1.19 2.24 2.48zm6.25-12.63c.79.49 1.17.79 1.42 1.76l.11.4.22-.35c.24-.38.53-.53.9-.6v1.08c-.1.33-.57.86-.92 1.22-.4-.9-.92-1.57-1.64-2.09l-.11-.08-.11.08c-.72.52-1.24 1.19-1.64 2.1-.41-.4-.88-.93-.91-1.2v-1.11c.37.07.66.22.9.6l.22.35.11-.4c.28-.98.66-1.27 1.45-1.76zm-.79-3.11l-.57-.48v-.43c.08.04.15.11.25.24l.21.28.11-.33c.13-.41.41-.74.8-.96.4.23.67.54.8.95l.11.33.21-.28c.09-.12.16-.19.25-.22v.43l-.57.48h-.02a2.1 2.1 0 00-.69-.55l-.08-.04-.08.04c-.27.14-.5.33-.68.55h-.05zm-.01.79c.13-.41.41-.75.8-.98.4.23.67.55.8.96l.11.34.21-.28c.09-.12.16-.19.25-.23v.7l-.22.47c-.21-.21-.47-.35-.75-.51-.1-.05-.2-.11-.31-.18l-.09-.05-.09.05c-.09.05-.18.1-.26.15-.29.17-.56.32-.79.54l-.22-.48v-.69c.08.04.15.11.25.24l.21.28.1-.33zm.62.77c.06-.03.12-.07.18-.1.08.04.15.09.22.13.52.29.87.48 1.05 1.12l.11.39.22-.33c.19-.29.33-.41.52-.46v.95l-.63.77c-.3-.57-.74-.87-1.39-1.28l-.1-.06-.1.06c-.66.41-1.09.7-1.39 1.27l-.63-.77v-.94c.19.06.33.2.52.49l.22.33.11-.39c.18-.67.55-.87 1.09-1.18zm.18 3.34c.97.75 1.55 1.81 1.94 3.52l.11.48.23-.43c.35-.65.79-1.07 1.3-1.21v1.8c-.05.3-.43.88-.82 1.41-.2.17-.4.37-.57.62-.39-1.48-1-2.39-2.08-3.18l-.11-.08-.11.08c-1.08.79-1.69 1.7-2.08 3.18-.19-.28-.41-.5-.64-.68-.4-.53-.74-1.06-.75-1.33V88c.5.15.95.56 1.3 1.21l.23.43.11-.48c.39-1.7.97-2.77 1.94-3.51zm-2.28 6.74l.23.43.11-.48c.36-1.58.91-2.53 1.94-3.31 1.03.79 1.58 1.73 1.94 3.31l.11.48.23-.43c.35-.65.79-1.07 1.3-1.21v1.78c-.24.39-.83 1.08-1.23 1.53-.38-.85-1-1.65-2.17-2.45l-.1-.07-.1.07c-1.22.83-1.84 1.67-2.22 2.57-.46-.49-1.13-1.25-1.33-1.64v-1.79c.5.14.94.56 1.29 1.21zm2.35.03c1.4.98 1.92 1.93 2.27 3.17-.2.15-.37.3-.5.46-.34-1.17-.85-1.79-1.61-2.61l-.13-.15-.26.28c-.66.71-1.24 1.33-1.58 2.47-.13-.15-.29-.29-.47-.43.36-1.25.87-2.21 2.28-3.19zm-1.9 4.14l.23.44.11-.48c.3-1.3.87-1.91 1.59-2.69.72.79 1.18 1.39 1.49 2.69l.11.48.23-.44c.23-.44.83-.9 1.65-1.25v2.11H120.45v-2.11c.82.36 1.43.82 1.65 1.25zm3.33 14.66h-2.99v-1.96h2.99v1.96zm-2.99 14.62h2.99v2h-2.99v-2zm0-.37v-2.01h2.99v2.01h-2.99zm0-2.37v-2.01h2.99v2.01h-2.99zm0-2.38v-2.01h2.99v2.01h-2.99zm0-2.37v-2.01h2.99v2.01h-2.99zm0-2.38v-2.01h2.99v2.01h-2.99zm0-2.37v-2.01h2.99v2.01h-2.99zm-23.8 9.51v-4.39h22.06v4.39H98.64zm0-4.78v-3.67h22.06v3.67H98.64zm0-4.03v-2.69h22.06v2.69H98.64zm0-3.08v-1.98h22.06v1.98H98.64zm-4.7 14.62h2.99v2h-2.99v-2zm2.99-.36h-2.99v-2.01h2.99v2.01zm0-2.38h-2.99v-2.01h2.99v2.01zm0-2.38h-2.99v-2.01h2.99v2.01zm0-2.37h-2.99v-2.01h2.99v2.01zm0-2.38h-2.99v-2.01h2.99v2.01zm0-2.38h-2.99v-2.01h2.99v2.01zm0-2.37h-2.99v-1.96h2.99v1.96zm-26.67 11.89v-4.39h21.9v4.39h-21.9zm0-4.78v-3.67h21.9v3.67h-21.9zm0-4.03v-2.69h21.9v2.69h-21.9zm0-3.08v-1.98h21.9v1.98h-21.9zm-4.74 14.62h2.99v2h-2.99v-2zm0-.37v-2.01h2.99v2.01h-2.99zm0-2.37v-2.01h2.99v2.01h-2.99zm0-2.38v-2.01h2.99v2.01h-2.99zm0-2.37v-2.01h2.99v2.01h-2.99zm0-2.38v-2.01h2.99v2.01h-2.99zm0-2.37v-2.01h2.99v2.01h-2.99zm0-2.38v-1.96h2.99v1.96h-2.99zm24.83-17.19c-.16-.04-.32-.09-.48-.13h1.97v.69c-.32-.25-.87-.4-1.49-.56zm8.7.52v-.65h1.97c-.16.04-.33.09-.5.13-.59.15-1.14.29-1.47.52zM63.14 96.9v.52h-.04l.04.06v.31h.22l.81 1.15v8.01h-1.21v-9.03l-1.09-1.01h1.27zm7.78.89v-.34l.02-.03h-.02v-.52h1.26l-1.09 1.01v9.03h-1.21v-8.01l.81-1.15h.23zm19.01-.89c0 .01.01.02.02.03v3.71H89l-.18.18v6.12h-2.24v-9.02l-.78-1.02h4.13zm.01 10.01h-.76v-5.9h.76v5.9zm2.2-11.64c.54.16.65.38.84.77.03.07.07.14.11.22l.34-.1c-.1-1.47.94-3.12 2.01-3.82 1.07.69 2.12 2.35 2.01 3.82l.34.1c.04-.07.07-.14.1-.2.2-.4.3-.62.84-.79v2.15h-6.6v-2.15zm1.47-1.37c-.26.5-.45 1.04-.52 1.58-.16-.24-.4-.43-.89-.57V93.9h1.41zm5.08 1.01c-.49.14-.73.34-.9.58-.07-.55-.26-1.09-.52-1.59h1.42v1.01zm-.62 12.04h-.75v-9.16h1.13l-.38.56v8.6zm29.8-9.16v-.31l.04-.06h-.04v-.52h1.27l-1.09 1.01v9.03h-1.21v-8.01l.81-1.15h.22zm-34.32 9.53v1.55H91.8c.5-.4.95-.96.99-1.55h.76zm8.15-.41h-.83v-5.9h.83v5.9zm3.08-9h11.14v1.57h-11.26v-1.43l.12-.14zm-18.57.15v1.43H75.09v-1.57H86.1l.11.14zm10.74-.27v9.16h-3.03v-9.16h3.03zm18.97 9.12h-.63v-5.9h.63v5.9zm2.55 0h-1v-5.9h1v5.9zm-13.8.41h11.24c-.04.63-.5 1.24-.98 1.55h-8.75c-.67-.33-1.44-.96-1.51-1.55zm11.61 0h3.27c-.06.6-.7 1.22-1.27 1.55h-2.77c.42-.4.74-.96.77-1.55zm3.63 0h1.21c-.06.6-.7 1.22-1.27 1.55h-.93c.5-.4.95-.96.99-1.55zm1.58 0h.61v1.55H120.5c.5-.4.95-.96.99-1.55zm.98 0h3.05v1.55h-3.05v-1.55zm3.04-.37h-3.05v-9.16h3.05v9.16zm-12.95-.04v-5.9h1v5.9h-1zm-2.85 0v-5.9h1v5.9h-1zm-2.85 0v-5.9h1v5.9h-1zm-2.55.41c.05.59.57 1.15 1.15 1.55h-2.83c-.69-.34-1.67-.97-1.76-1.55h3.44zm-10.39 1.54v-1.55h3.03v1.55h-3.03zm-3.99-1.54c-.07.58-.84 1.21-1.47 1.55h-2.79c.48-.4.86-.96.89-1.55h3.37zm-21.39 0v1.55H65.5v-1.55h3.04zm.37 1.54v-1.55h.61c.04.59.49 1.15.99 1.55h-1.6zm.98-1.54h1.21c.04.59.49 1.15.99 1.55h-.93c-.57-.33-1.21-.96-1.27-1.55zm1.57 0h3.27c.03.59.35 1.15.77 1.55h-2.77c-.57-.33-1.21-.96-1.27-1.55zm11.53-.41v-5.9h1v5.9h-1zm-2.85 0v-5.9h1v5.9h-1zm-2.85 0v-5.9h1v5.9h-1zm-1.68-5.9v5.9h-.53v-5.9h.53zm-.51 6.31h11.1c-.05.63-.59 1.24-1.17 1.55h-8.95c-.49-.31-.94-.93-.98-1.55zm10.56-.41v-5.9h.55v5.9h-.55zm-.18-6.26l-.18.18v6.12h-.94v-6.12l-.18-.18h-1.36l-.18.18v6.12H81.5v-6.12l-.18-.18h-1.36l-.18.18v6.12h-1.12v-6.12l-.18-.18h-1.36l-.18.18v6.12H76v-6.12l-.18-.18h-.71v-.8h11.12v.8h-.75zm-12.94 6.26v-5.9h1v5.9h-1zm-4 .04H65.5v-9.16h3.05v9.16zm57.34 1.91v-1.55h.61c.04.59.49 1.15.99 1.55h-1.6zm.6-10.04v8.13h-.6v-9.16h1.33l-.73 1.03zm-4.38-1.03v9.16h-.6v-8.13l-.73-1.03h1.33zm-2.54.28v8.88h-.72v-6.12l-.18-.18h-1.36l-.18.18v6.12h-.82v-9.49l-.45-.55h2.46l1.25 1.16zm-3.64 1.78v.8h-.82l-.18.18v6.12h-1v-6.12l-.18-.18h-1.36l-.18.18v6.12h-1.12v-6.12l-.18-.18h-1.36l-.18.18v6.12h-1.12v-6.12l-.18-.18h-1.36l-.18.18v6.12h-.86v-6.12l-.18-.18h-.79v-.8h11.23zm-10.65 1.16v5.9h-.61v-5.9h.61zm-3.38 7.86h-2.17c-.57-.33-1.21-.96-1.27-1.55h2.06c.06.62.77 1.18 1.38 1.55zm-2.81 0h-1.75v-1.55h.76c.03.59.48 1.15.99 1.55zm-7.93 0h-2c.57-.4 1.1-.97 1.15-1.55h2.12c-.06.59-.7 1.22-1.27 1.55zM74.8 96.9h.37l-.45.55v9.49h-.82v-6.12l-.18-.18h-1.36l-.18.18v6.12h-.72v-8.88l1.26-1.17h2.08zm-5.29 1.92v8.13h-.6v-9.16h1.33l-.73 1.03zm-4.38-1.03v9.16h-.6v-8.13l-.73-1.03h1.33zm-.61 9.53h.61v1.55h-1.6c.5-.4.95-.96.99-1.55zm62.34 0h1.2c.04.59.49 1.15.99 1.55h-.93c-.56-.33-1.2-.96-1.26-1.55zm-6.77-9.87v.34h.24l.81 1.15v8.01h-1.21v-9.03l-1.09-1.01h1.26v.52h-.02l.01.02zm-4.64-.45l.44.55h-10.83l.44-.55h9.95zm-21.9.79v9.16h-.75v-8.6l-.38-.56h1.13zM85.41 97l.41.55h-10.7l.44-.55h9.85zm-21.26 10.32c-.06.6-.7 1.22-1.27 1.55h-.93c.5-.4.95-.96.99-1.55h1.21zm65.01-.41v-5.9h1v5.9h-1zm-24.86-8.98v9.02h-2.24v-6.12l-.18-.18h-1.02v-3.73c0-.01 0-.01.01-.02h4.24l-.81 1.03zm-43.45 8.98v-5.9h1v5.9h-1zm68.85 1.96c-.57-.33-1.21-.96-1.27-1.55h2.94c.04.59.49 1.15.99 1.55h-2.66zm1.66-1.92h-.84v-6.12l-.18-.18h-1.36l-.18.18v6.12h-.38v-8.88l1.26-1.17h2l-.32.57v9.48zm.89-10.41H130c.31-1.29 1.22-1.93 2.24-2.48v2.48zm-.93-2.36c-.49.33-.93.72-1.25 1.24v-4.98h1.25v3.74zm-16.25-.76v.55h-9.28v-1.3h9.28v.75zm0 .91v.6h-9.28v-.6h9.28zm0 .96v1.34h-9.28l.08-.1h-.08v-1.24h9.28zm-14.57 1.56l-.01 10.1h-2.06v-8.49l.45-.67h.21v-.31l.04-.05h-.03v-1.51h2.22c-.37.24-.72.53-.82.93zm-8.73-.94v1.51h-.04l.04.06v.3h.2l.45.67v8.49H90.3V96.89l-.01-.07c-.17-.42-.49-.69-.87-.92h2.35zm-6.88.72h-8.95v-1.34h8.95v1.34zm-8.95-1.7v-.6h8.95v.6h-8.95zm0-.96v-1.3h8.95v1.3h-8.95zm-15 1.45c-.32-.52-.76-.91-1.25-1.24v-3.74h1.25v4.98zm.07 1.12h-2.24v-2.48c1.02.54 1.93 1.19 2.24 2.48zm.32.36l1.26 1.17v8.88h-.38v-6.12l-.18-.18h-1.36l-.18.18v6.12h-.84v-9.48l-.32-.57h2zm-1.69 10.42h2.94c-.06.6-.7 1.22-1.27 1.55h-2.67c.51-.4.96-.96 1-1.55zm44.82-11.77H99.1v-.45l.01-.03c0-.31.8-.51 1.51-.69.53-.13 1.07-.27 1.52-.48h2.32v1.65zM88.77 93.9c.45.21.98.35 1.49.49.69.18 1.48.39 1.48.68l.04.12v.36h-5.44V93.9h2.43zm-24.59 15.36h.95v18.58h-.95v-18.58zm4.73 18.58v-18.58h.95v18.58h-.95zm23.64-18.58h.99v18.58h-.99v-18.58zm4.78 18.58v-18.58h.91v18.58h-.91zm23.77-18.58h.95v18.58h-.95v-18.58zm4.73 18.58v-18.58h.95v18.58h-.95zm13.64-9.51h-12.3v-3.67h12.3v3.67zm-3.89-7.11h-8.4v-1.98h8.4v1.98zm-2.57-2.35c-.56-.33-1.2-.95-1.27-1.54l.36.02c.21.61.63 1.14 1.07 1.53h-.16zm-.73-20.45v5.21c-.2.1-.4.21-.59.32v-5.53c.23-.09.42-.09.59 0zm-.96 1.64h-1.25v-.83h1.25v.83zm-13.6 5.51c-.35-.68-.89-1.15-1.51-1.53v-2.2h1.51v3.73zm-2.65-3.26h-9.27v-.49h9.27v.49zm-10.61 1.22h-.66v-5.06h.66v5.06zm-19.57-1.22h-8.95v-.49h8.95v.49zm-10.09-.47v2.2c-.62.39-1.16.85-1.51 1.53v-3.74h1.51zm-15.48 2.11c-.19-.11-.39-.22-.59-.32v-5.21c.17-.1.36-.1.59 0v5.53zm-.34 13.39l.28-.01c-.07.59-.7 1.22-1.27 1.54h-.09c.45-.38.87-.92 1.08-1.53zm4.8 1.89v1.98h-8.36v-1.98h8.36zm0 5.43v3.67H51.53v-3.67h12.25zm0 4.06v4.39H49.07v-4.39h14.71zm6.48 4.76h21.9v4.39h-21.9v-4.39zm28.38 0h22.06v4.39H98.64v-4.39zm28.54 0h17.21v4.39h-17.21v-4.39zM95.46 64.91c.14 0 .25.05.35.15.24.25.31.75.32 1.06h-1.34c.01-.31.09-.81.32-1.06.1-.09.21-.15.35-.15z"/><path fill="none" d="M172 160V32c0-6.6-5.4-12-12-12H32c-6.6 0-12 5.4-12 12v128c0 6.6 5.4 12 12 12h128c6.6 0 12-5.4 12-12z" opacity=".4"/><path fill="none" d="M0 0v192h192V0H0z"/><path fill="#DFDFDF" d="M160 20c6.6 0 12 5.4 12 12v128c0 6.6-5.4 12-12 12H32c-6.6 0-12-5.4-12-12V32c0-6.6 5.4-12 12-12h128m0-8H32c-11.03 0-20 8.97-20 20v128c0 11.03 8.97 20 20 20h128c11.03 0 20-8.97 20-20V32c0-11.03-8.97-20-20-20z"/><path fill="#FFF" fill-opacity=".2" d="M160 20H32c-6.6 0-12 5.4-12 12v1c0-6.6 5.4-12 12-12h128c6.6 0 12 5.4 12 12v-1c0-6.6-5.4-12-12-12z"/><path fill="#212121" fill-opacity=".1" d="M160 172H32c-6.6 0-12-5.4-12-12v-1c0 6.6 5.4 12 12 12h128c6.6 0 12-5.4 12-12v1c0 6.6-5.4 12-12 12z"/><radialGradient id="a" cx="23.768" cy="23.933" r="204.625" gradientUnits="userSpaceOnUse"><stop offset="0" stop-color="#fff" stop-opacity=".1"/><stop offset="1" stop-color="#fff" stop-opacity="0"/></radialGradient><path fill="url(#a)" d="M160 172H32c-6.6 0-12-5.4-12-12V32c0-6.6 5.4-12 12-12h128c6.6 0 12 5.4 12 12v128c0 6.6-5.4 12-12 12z"/></svg>