<svg xmlns="http://www.w3.org/2000/svg" width="192" height="192"><path fill="#FFF" d="M172 160V32c0-6.6-5.4-12-12-12H32c-6.6 0-12 5.4-12 12v128c0 6.6 5.4 12 12 12h128c6.6 0 12-5.4 12-12z"/><path d="M36 74.57l-4.29-2.86L48.86 46l4.29 2.86L36 74.57zm6.43 4.29l17.14-25.71-4.29-2.86L38.14 76l4.29 2.86zm2.14 1.43l4.29 2.86L66 57.43l-4.29-2.86-17.14 25.72zm95.72 46.78l-7.86 11.79 4.29 2.86 7.86-11.79-4.29-2.86zM153.86 116l-4.29-2.86-7.86 11.79 4.29 2.86 7.86-11.79zm-5.72 13.21l4.29 2.86 7.86-11.79-4.29-2.86-7.86 11.79zm-9.28 13.93l4.29 2.86 7.86-11.79-4.29-2.86-7.86 11.79zm-5-20.35L126 134.57l4.29 2.86 7.86-11.79-4.29-2.85zm5.71.71l7.86-11.79-4.29-2.86-7.86 11.79 4.29 2.86zM46 127.79l4.29-2.86-7.86-11.79-4.29 2.86L46 127.79zm1.43 2.14l7.86 11.79 4.29-2.86-7.86-11.79-4.29 2.86zm-2.86-18.22l17.14 25.71 4.29-2.86-17.14-25.71-4.29 2.86zm-12.86 8.58L48.86 146l4.29-2.86L36 117.43l-4.29 2.86zm106.43-53.93l-7.86-11.79-4.28 2.86 7.86 11.79 4.28-2.86zm9.29 13.93l-7.86-11.79-4.29 2.86 7.86 11.79 4.29-2.86zm6.43-4.29l-17.14-25.71-4.29 2.86 17.14 25.71 4.29-2.86zm2.14-1.43l4.29-2.86-7.86-11.79-4.29 2.86L156 74.57zm-5-16.78L143.14 46l-4.29 2.86 7.86 11.79 4.29-2.86z"/><circle fill="#C60C30" cx="96" cy="96" r="30.9"/><path fill="#003478" d="M121.71 113.14c4.73-7.1 2.82-16.69-4.29-21.43C110.33 86.98 100.73 88.9 96 96s-14.33 9.02-21.43 4.29c-7.1-4.73-9.02-14.33-4.29-21.43-9.47 14.2-5.63 33.39 8.57 42.86 14.21 9.46 33.4 5.62 42.86-8.58z"/><path fill="none" d="M172 160V32c0-6.6-5.4-12-12-12H32c-6.6 0-12 5.4-12 12v128c0 6.6 5.4 12 12 12h128c6.6 0 12-5.4 12-12z" opacity=".4"/><path fill="none" d="M0 0v192h192V0H0z"/><path fill="#DFDFDF" d="M160 20c6.6 0 12 5.4 12 12v128c0 6.6-5.4 12-12 12H32c-6.6 0-12-5.4-12-12V32c0-6.6 5.4-12 12-12h128m0-8H32c-11.03 0-20 8.97-20 20v128c0 11.03 8.97 20 20 20h128c11.03 0 20-8.97 20-20V32c0-11.03-8.97-20-20-20z"/><path fill="#FFF" fill-opacity=".2" d="M160 20H32c-6.6 0-12 5.4-12 12v1c0-6.6 5.4-12 12-12h128c6.6 0 12 5.4 12 12v-1c0-6.6-5.4-12-12-12z"/><path fill="#212121" fill-opacity=".1" d="M160 172H32c-6.6 0-12-5.4-12-12v-1c0 6.6 5.4 12 12 12h128c6.6 0 12-5.4 12-12v1c0 6.6-5.4 12-12 12z"/><radialGradient id="a" cx="23.768" cy="23.933" r="204.625" gradientUnits="userSpaceOnUse"><stop offset="0" stop-color="#fff" stop-opacity=".1"/><stop offset="1" stop-color="#fff" stop-opacity="0"/></radialGradient><path fill="url(#a)" d="M160 172H32c-6.6 0-12-5.4-12-12V32c0-6.6 5.4-12 12-12h128c6.6 0 12 5.4 12 12v128c0 6.6-5.4 12-12 12z"/></svg>