<svg xmlns="http://www.w3.org/2000/svg" width="192" height="192"><path fill="#00247D" d="M172 160V32c0-6.6-5.4-12-12-12H32c-6.6 0-12 5.4-12 12v128c0 6.6 5.4 12 12 12h128c6.6 0 12-5.4 12-12z"/><path fill="#FFF" d="M157.65 120.24c-.17-.06-.35-.09-.53-.09-1.3 0-2.06 1.59-2.26 2.08-.08.18-.16.39-.26.61-.3.25-.6.44-.89.58.3-.49.59-.99.87-1.52 1.11-2.12-.3-3.28-1.24-3.79l-.06-.03c-.81-.35-1.91-1.2-2.61-1.89l-.19-.19c-.44-.49-1.26-1.04-2.17-1.04-.08 0-.16.01-.24.02.44-1.94.67-4.1.67-6.48V94.42c0-.4-.32-.72-.72-.72h-3.96c.13-.44.14-.88.01-1.28.08-.19.12-.46.05-.79-.18-1.23-.67-1.92-1.09-2.42.26-.06.52-.18.74-.4a1.949 1.949 0 00.25-.34c.1-.14.28-.41.37-.48.02-.01.04-.02.07-.04.58-.38.48-.87.44-1.01-.1-.34-.41-.56-.79-.56-.09 0-.19.01-.29.04-.08.02-.15.04-.22.05-.14-.12-.34-.22-.64-.28-.08-.02-.18-.13-.26-.21-.03-.03-.06-.07-.09-.09-.12-.12-.24-.24-.36-.35-.04-.03-.07-.07-.11-.1-.03-.03-.07-.06-.1-.09-.05-.04-.09-.09-.14-.13-.03-.03-.06-.06-.1-.08-.05-.04-.1-.09-.15-.13-.03-.03-.07-.05-.1-.08l-.15-.12c-.03-.03-.07-.05-.11-.08-.05-.04-.1-.08-.15-.11-.04-.03-.08-.05-.11-.08-.05-.03-.1-.07-.15-.1-.04-.03-.08-.05-.13-.08-.03-.02-.05-.03-.08-.05 1.28-.71 2.64-1.33 3.41-1.62.3-.11.49-.42.47-.74a.734.734 0 00-.58-.65c-.52-.1-1.09-.1-1.65-.03.68-.68 1.32-1.31 1.8-1.77a.74.74 0 00.12-.9.719.719 0 00-.85-.31c-.39.13-.77.28-1.14.46.35-.39.69-.75 1.01-1.07a.728.728 0 00-.78-1.19c-.9.35-1.69.8-2.38 1.28.17-.24.34-.45.48-.6.25-.25.28-.64.08-.93a.72.72 0 00-.9-.24c-.29.13-.57.28-.84.45.02-.04.04-.09.06-.13.15-.32.05-.69-.23-.9a.725.725 0 00-.92.06c-.07.06-.13.12-.19.19a.73.73 0 00-.42-.23c-.17-.03-.35-.03-.53 0a.714.714 0 00-.84-.42c-.34.09-.67.28-.95.51-.03-.05-.05-.09-.08-.13a.72.72 0 00-.73-.31.73.73 0 00-.58.54c-.03.1-.08.23-.14.36-.1.22-.22.49-.27.81-.27 0-.52.06-.75.16-.59-.65-1.22-1.12-1.91-1.4a.732.732 0 00-.84.22c-.2.25-.21.6-.03.86.07.11.15.22.22.33a.73.73 0 00-.8.07c-.27.22-.34.59-.18.9.04.07.08.16.13.24-.61-.28-1.22-.48-1.83-.57a.719.719 0 00-.8.47c-.12.33.02.7.32.87.25.14.53.34.84.58-.29-.06-.57-.1-.86-.12a.734.734 0 00-.75.52c-.09.33.06.68.36.84.04.02.08.05.12.07-.18.08-.33.23-.4.43-.11.32.02.68.31.86.52.31 1.52 1.05 2.48 1.8-.26.03-.52.11-.74.2a.76.76 0 01-.36-.25c-.44-.57-1.3-.95-2.13-.95-.52 0-.98.15-1.32.44-.05.01-.13.03-.19.04-.07.01-.15.03-.24.05-.35.03-.69.22-.93.5-.31.37-.42.89-.3 1.44a.732.732 0 00.76.58c.34.69 1.29 1.3 2.14 1.23.32 0 .57.07.72.19.01.02.01.05.02.07 0 .01.01.02.01.03.01.03.02.07.03.11-.37.4-.6.95-.61 1.5-.01.44.12 1.08.76 1.67.02.01.03.03.05.04.07.06.17.13.28.2-.16.09-.31.19-.45.28-.45.29-.76.81-.83 1.4-.04.36.01.7.14 1.01h-4.62c-.4 0-.72.32-.72.72v14.08c0 2.38.23 4.53.67 6.48-.07-.01-.13-.01-.2-.01-.86 0-1.71.54-2.21 1.04-.05.05-.09.09-.13.14-.01.01-.02.01-.03.02l-.09.09c-.56.59-1.69 1.46-2.56 1.83l-.06.03c-.94.5-2.35 1.67-1.24 3.79.27.51.55 1 .84 1.47a4.96 4.96 0 01-.79-.53c-.09-.22-.18-.43-.26-.61-.2-.49-.97-2.08-2.26-2.08-.18 0-.36.03-.53.09-1.02.37-1.35 1.17-.96 2.38.33 1.63.85 3.75 1.51 4.78.45 1.01 2.06 2.04 4.29 2.04 1.17 0 2.33-.28 3.49-.85 4.58 3.88 10.2 5.4 14.81 5.4 4.6 0 10.2-1.52 14.77-5.41 1.14.57 2.31.86 3.48.86 2.18 0 3.83-1.03 4.33-2.02.55-.92 1.01-2.77 1.31-3.99.08-.34.16-.64.2-.79.01-.02.01-.03.01-.05l.01-.03c.16-.61.43-1.83-.95-2.34zm-31.88 5.97c-.64-.38-1.25-.8-1.83-1.28.4-.56.78-1.18 1.15-1.87 2.31 2.44 5.25 4.07 8.03 5.32-2.78-.17-5.19-.88-7.35-2.17zm17.49 0c-2.16 1.28-4.57 2-7.34 2.17 2.76-1.25 5.69-2.88 7.99-5.32.38.69.77 1.31 1.18 1.87-.58.48-1.19.91-1.83 1.28z"/><path fill="#FCEA83" d="M116.74 124.53c-.1.01-.2.02-.3.02-.77 0-1.55-.3-2.33-.89.31.71.69 1.6 1.09 2.58l.12.3-.28-.16c-.48-.29-.97-.44-1.4-.44-.4 0-.73.13-.9.37-.14.2-.17.45-.08.73.25.64 1.54 1.59 3.55 1.59 1.14 0 2.28-.3 3.4-.9-1.02-.95-1.99-2.01-2.87-3.2zm6.2.35c.67-.85 1.27-1.86 1.85-3.08l-.04-.04c-.88-1.08-1.61-2.29-2.19-3.63-.06 1.34-.97 2.83-2.16 4a19.76 19.76 0 002.54 2.75zm25.66-2.72c-.3-.31-.59-.64-.86-1l-.03-.03c-.73-.92-1.25-2.03-1.27-3.07a15.54 15.54 0 01-2.2 3.7c-.02.02-.03.04-.05.06.61 1.22 1.22 2.23 1.88 3.07.91-.79 1.75-1.7 2.53-2.73zm6.78 3.76c-.42 0-.9.15-1.38.44l-.28.16.12-.3c.4-.98.78-1.86 1.09-2.58-.78.59-1.57.89-2.35.89-.12 0-.24-.01-.35-.02a21.38 21.38 0 01-2.86 3.17c1.11.61 2.25.92 3.39.92 1.17 0 3.12-.5 3.6-1.59.07-.29.03-.55-.12-.75-.17-.21-.48-.34-.86-.34zm-12.27 3.53c-.22-.43-.51-.72-.72-.65-.22.07-.22.51 0 .94.22.51.51.79.72.72.22-.15.22-.58 0-1.01zm-1.59.21c-.07-.22-.22-.36-.36-.29-.07 0-.14.07-.07.14l.22.72c.36-.13.28-.35.21-.57zm10.04-8.3s.14.22.43.51l.22-.36-.65-.15zm-17.33 9.24h-.14c-.07 0-.07 0-.07.07l-.07 1.52.07.07c.07 0 .07 0 .14.07.22 0 .43-.22.43-.87 0-.64-.22-.86-.36-.86zm-7.3-1.73c-.29-.14-.58.22-.72.65-.22.43-.22.87 0 1.01.22.07.51-.22.72-.72.15-.44.22-.87 0-.94zm4.41 1.44h-.14c-.07-.07-.07 0-.14.07l-.22 1.44c-.07.07 0 .14 0 .14h.14c.14 0 .43-.14.58-.79.07-.57-.08-.86-.22-.86zm22.51-8.79c.62-1.18.34-2-.89-2.67-.65-.28-1.43-.82-2.09-1.37.01.02.01.03.02.05.01.03.02.05.03.08 0 .01.01.02.01.03.28.76 0 1.47-.57 2.33v.01c-.29.57-.65 1.09-1.01 1.59l-.12.17-.01-.02c-3.64 5.07-8.46 7.55-14.69 7.55-6.23 0-11.05-2.47-14.69-7.55l-.01.02-.12-.17c-.36-.5-.73-1.01-1.02-1.6 0 0 0-.01-.01-.01-.51-.76-.79-1.41-.65-2.08.02-.13.06-.27.12-.4-.64.54-1.46 1.09-2.15 1.39-1.23.66-1.5 1.48-.89 2.67 4.5 8.58 12.97 11.64 19.4 11.64 6.4-.02 14.84-3.07 19.34-11.66zm-2.15-1.61c0-.14.14-.22.22-.29 0-.07 0-.07-.07-.14v-.07l.58.29h-.07c-.36-.07-.58.07-.58.22-.07.07-.07.22.14.29.22.07.29 0 .51-.14.22-.14.43-.29.72-.14.43.22.36.58.29.72-.07.07-.14.22-.22.29v.13l-.58-.29c.36.07.65 0 .72-.22.07-.14-.07-.29-.14-.36-.14-.07-.29 0-.51.14-.22.22-.43.29-.72.14-.29-.13-.43-.35-.29-.57zm-.57 1.01s.14.07 1.66.36c.14 0 .22.07.36-.07l-.36.65h-.07c.07-.14.14-.22-.07-.29-.07 0-.22-.07-.29-.07l-.22.51.14.14c.14.22.22.14.29 0l.07.07-.22.36h-.07c0-.07 0-.22-.07-.29l-1.16-1.3.01-.07zm-.44.8l.51.36-.07.07a.515.515 0 00-.65 0c0 .07-.07.14-.07.22-.07 0-.07.07.07.14.07.07.51.36.51.36.07-.07.22-.22-.07-.51v-.07l.72.58c-.43-.22-.51 0-.58.07l.51.36c.14.07.22.07.22.07 0-.07.07-.14.14-.22.07-.14.14-.36-.14-.65l.07-.07.36.43-.72 1.08h-.07c.07-.14.07-.22-.07-.36l-1.08-.79c-.14-.07-.22 0-.29.07h-.07l.77-1.14zm-1.15 1.59c.07-.07.22-.14.29-.22.07 0 .07 0 0-.14l.51.36h-.07c-.36-.14-.58-.07-.65.07-.07.07-.07.22.07.29.14.14.29.14.58 0 .14-.07.43-.14.65.07.36.36.22.65.14.79-.07.07-.22.14-.29.22-.07 0-.07 0-.07.07v.07l-.51-.43h.07c.29.14.58.22.72 0 .14-.14 0-.29-.07-.36-.14-.14-.29-.14-.51 0-.22.07-.51.07-.72-.07-.29-.29-.29-.51-.14-.72zm-33.15-1.3l-.36-.65.07-.07c.07.07.14.14.29.07l.58-.29-.22-.51-.58.29c-.14.07-.14.22-.14.29h-.07l-.29-.65h.07c0 .07.07.14.22.07l1.23-.65c.14-.07.14-.14.07-.22l.07-.07.36.72h-.07c-.07-.07-.14-.14-.29-.07l-.51.29.22.43.58-.22c.14-.07.07-.22.07-.29h.07l.29.65c-.07-.07-.14-.14-.29-.07l-1.23.65c-.14.07-.14.14-.07.22l-.07.08zm.87 1.37l-.72-1.16h.07c.07.07.14.14.29.07l1.08-.79c.14-.07.14-.14.07-.29h.07l.72 1.08-.51.36v-.07c.29-.22.29-.51.22-.58-.07-.07-.14-.14-.14-.22-.07 0-.07-.07-.22.07-.07.07-.51.36-.51.36.07.07.14.29.51.07h.07l-.79.58v-.07c.36-.29.22-.51.14-.58l-.51.36c-.14.07-.14.14-.14.22.07 0 .07.07.14.14.07.14.29.29.65.14l.07.07-.56.24zm1.95 2.24v.07l-.51-.58c.07 0 .22.07.29 0l.51-.51-.36-.36-.51.43c-.07.07-.07.22 0 .29h-.07l-.51-.51.07-.07c.07.07.14.14.29 0l.94-.94c.14-.07.14-.14.07-.29l.51.58c-.07-.07-.22-.07-.29 0l-.43.43.36.36.43-.36c.14-.14.07-.22 0-.29l.07-.07.51.58h-.07c-.07 0-.14-.07-.29.07l-.94.87c-.14.15-.14.23-.07.3zm1.3 1.3l-.58-.51.07-.07c.07.14.22.14.29 0 0-.07.07-.22.07-.29l-.22-.22.07-.07.22.22.29-.65s-.22.07-.58.29l.07.14-.07.07-.14-.14c-.07.07-.14.07-.22.14-.22.14-.14.22-.07.29v.07l-.36-.36h.07l.29-.07 1.44-.79.07.07s-.07.07-.72 1.52c.01.14-.06.21.01.36zm3.61.43c-.07-.07-.22-.07-.29.07l-.72 1.16c-.14.07-.07.14 0 .22v.07l-.65-.43h.07c.07 0 .14 0 .22-.07l.36-.58-.43-.29-.36.51c-.07.14 0 .22.07.29l-.07.07-.58-.43v-.07c.14.07.22.07.29-.07l.79-1.08c.07-.14 0-.21-.07-.28l-.3.35h-.07c.22-.22.14-.51 0-.58v-.07l-.94 1.23c-.14.07-.07.22 0 .29h-.07l-.58-.43.07-.07c.07.07.14.07.29 0l.94-1.23-.07-.07c-.14-.07-.36-.07-.58.14v-.07l.29-.36 1.08.79.58.43v.07c-.14-.07-.22-.07-.29.07l-.36.51.43.29.36-.51c.07-.14 0-.22-.07-.29l.07-.07.58.43.01.06zm1.15 2.24l-.07-.07c.22-.43-.07-.51-.14-.51l-.29.58c-.07.14 0 .22.07.22v.07l-.72-.36.07-.07c.07.07.22.07.29-.07l.58-1.23c.07-.14 0-.22-.07-.29l1.23.58-.29.58-.07-.07c.22-.29 0-.58-.07-.65-.07 0-.14-.07-.22-.07-.07 0-.07 0-.14.14-.07.07-.29.51-.29.51.07.07.22.22.51-.14h.07l-.45.85zm.87.94c-.43-.14-.51-.65-.29-1.16.22-.51.65-.79 1.08-.58.43.22.51.72.29 1.16-.21.51-.57.8-1.08.58zm1.59.65c-.29-.07-.51-.43-.36-.79l.36-.94c.07-.14 0-.22-.07-.29v-.07l.65.29v.07c-.07-.07-.22-.07-.22.07l-.36.94c-.07.29-.07.58.14.65.22.07.43-.07.58-.43l.29-.87c.07-.14 0-.22-.07-.29l.36.07v.07c-.07 0-.14 0-.22.14l-.29.87c-.14.36-.36.65-.79.51zm2.09.65l-.58-1.73-.36 1.16c0 .22.07.22.14.29v.07l-.43-.14v-.07c.07.07.22 0 .22-.14l.36-1.3-.07-.22c0-.04 0-.05-.01-.06l-.06-.01c.04 0 .05 0 .06.01l.44.06.43 1.37.22-.87c.07-.14 0-.22-.07-.29l.43.07-.07.07c-.07 0-.14 0-.22.14l-.36 1.59h-.07zm1.09.22l-.72-.14h.07c.07 0 .14-.07.22-.22l.22-1.3c.07-.22-.07-.22-.14-.29v-.07s.43.07.72.14c.36.07.65.36.51 1.08l-.22-.07.22.07c-.16.8-.52.87-.88.8zm2.02-1.16l-.07.94h-.07c0-.43-.22-.43-.29-.43l-.07.65c0 .14 0 .14.07.14l.14.07c.22 0 .43-.07.58-.51h.07l-.14.58-1.37-.14c.14 0 .22-.07.29-.22l.14-1.37c0-.14-.14-.22-.22-.22v-.07l1.3.14-.07.58c0-.36-.22-.51-.36-.51-.07-.07-.14-.07-.22-.07-.07 0-.07 0-.07.22 0 .07-.07.58-.07.58.07 0 .28.07.43-.36zm1.95.58c-.07.79-.43.94-.79.94h-.65v-.07c.07 0 .14-.07.14-.22l.07-1.37c0-.14-.14-.22-.22-.22v-.07s.43 0 .72.07c.37 0 .73.22.73.94zm2.02.79l-.79.07c.07-.07.22-.14.22-.29l-.14-1.37c-.07-.14-.14-.14-.29-.14v-.07l.79-.07c-.07.07-.22.14-.14.29l.14 1.37c0 .14.07.14.22.14l-.01.07zm1.23-1.59c0-.29-.22-.36-.43-.36h-.07l.29 1.52c0 .14.07.22.22.22v.07l-.72.07v-.07c.07 0 .14-.07.14-.22l-.29-1.52h-.07c-.14.07-.29.22-.22.51h-.07l-.07-.51 1.3-.22.07.51h-.08zm2.09.94c-.29.07-.65-.07-.72-.51l-.29-.94c-.07-.14-.14-.14-.22-.14l-.07-.07.72-.22v.07c-.07.07-.14.14-.07.29l.22.94c.07.29.29.43.51.43.22-.07.29-.36.22-.72l-.29-.87c0-.14-.14-.14-.22-.14v-.07l.36-.14v.07c-.07.07-.07.07-.07.22l.29.94c.06.28.06.72-.37.86zm1.3-.72c.07.14.22.14.29.07v.07l-.65.29-.07-.07c.14-.07.14-.14.14-.29l-.51-1.23c-.07-.22-.14-.14-.29-.14v-.07l.72-.29c.29-.07.58 0 .72.29.07.36-.07.58-.36.72-.07 0-.14.07-.14.07l.15.58zm1.59-.43c-.43.22-.87-.07-1.08-.58-.22-.43-.07-.94.36-1.16.43-.14.87.14 1.08.58.22.51.07 1.01-.36 1.16zm1.95-.94l-1.59-.87.58 1.08c.07.14.22.14.29.07v.07l-.36.22v-.07c.07-.07.07-.14 0-.29l-.58-1.16-.22-.14h-.14l.43-.29 1.3.72-.43-.79c-.07-.14-.22-.14-.29-.14v-.07l.36-.14c-.07.07-.14.14 0 .29l.72 1.44-.07.07zm1.95-1.3l-.58.43v-.07c0-.07.07-.14 0-.29l-.87-1.23h-.07c-.14.07-.22.36 0 .58l-.07.07-.29-.51 1.08-.72.29.43c-.22-.22-.43-.22-.58-.14l-.07.07.87 1.23c.07.14.22.14.29.07v.08zm1.08-.8l-.07-.07c.07-.07.14-.14.07-.29l-.43-.51-.43.36.43.51c.07.07.22.07.29 0v.07l-.58.51v-.07c.07-.07.07-.14 0-.29l-.87-1.08c-.07-.14-.14-.07-.29-.07l.58-.51v.07c0 .07-.07.14 0 .29l.36.43.43-.29-.36-.51c-.07-.14-.22-.07-.29-.07l.58-.51v.07c-.07.07-.07.14 0 .29l.87 1.08c.07.07.14.07.22 0l.07.07-.58.52zm.8-.65l-.07-.07c.07-.07.14-.14 0-.29l-.94-1.01c-.07-.07-.22-.07-.29 0v-.07l.94-.87.43.43h-.07c-.22-.29-.51-.14-.65-.07 0 .07-.07.07-.14.14 0 0 0 .07.07.22l.43.43c.07-.07.29-.22 0-.58h.07l.58.65v.07c-.36-.36-.51-.14-.58-.07l.43.43c.07.14.14.14.14.14l.22-.22c.07-.07.14-.29 0-.72h.07l.29.51-.93.95z"/><path fill="#DB161C" d="M119.76 121.28c.23-.48.63-.73.95-.73.21 0 .38.11.48.29.75-1 1.31-2.29 1.08-3.4-.08-.21-.16-.42-.23-.63-.14-.26-.34-.5-.6-.71-.22-.2-.47-.29-.76-.29-.61 0-1.26.43-1.62.79-1.21 1.21-1.03 2.02-.2 3.26.26.51.58.97.9 1.42zm26.99-3.98c-.3 1.12.2 2.46 1.02 3.55.1-.19.28-.3.51-.3.33 0 .77.25 1 .73.32-.44.63-.91.89-1.41.84-1.26 1.01-2.06-.27-3.27-.35-.4-.97-.79-1.58-.79-.3 0-.57.1-.81.29-.27.24-.47.5-.61.79-.05.14-.1.27-.15.41zm-33.11 8.41c.39 0 .81.11 1.24.32-.37-.89-.71-1.68-.99-2.34-.19-.43-.35-.82-.48-1.14-.3-.73-.88-1.57-1.5-1.57-.08 0-.16.01-.24.04-.67.24-.67.69-.44 1.38.23 1.14.66 3.04 1.18 4.15.02-.14.07-.27.16-.39.21-.28.6-.45 1.07-.45zm43.73-4.68a.672.672 0 00-.24-.04c-.62 0-1.2.85-1.5 1.57-.13.32-.3.7-.48 1.14-.28.65-.62 1.45-.99 2.34.42-.21.84-.32 1.22-.32.45 0 .82.16 1.04.44.09.12.15.26.18.41.4-.92.76-2.38.99-3.32.09-.37.16-.65.21-.83l.01-.03c.15-.65.25-1.11-.44-1.36z"/><path fill="#059334" d="M140.02 90.04c.24.5.38.89.45 1.26.05.21.31.43.68.43.05 0 .09 0 .14-.01h.02c.54 0 1.14.23 1.44.46.09.05.2.09.3.09.07 0 .15-.01.21-.09s.08-.22.04-.4c-.17-1.18-.67-1.76-1.07-2.23-.2-.23-.37-.44-.49-.68-.33.42-.92.83-1.72 1.17zm2.85-2.44c-.23.18-.47.44-.78.83.11.01.21.01.3.01.39 0 .63-.07.79-.22.05-.07.1-.14.16-.22.2-.29.42-.62.67-.74.01-.01.02-.01.03-.02-.01 0-.02 0-.03.01-.09.02-.17.04-.25.06-.16.05-.34.09-.58.1-.04.04-.09.07-.15.11-.06.02-.11.05-.16.08zm-15.14-1.16h.03c.1.03.23-.03.32-.14.11-.13.15-.29.12-.46-.07-.34-.13-.61-.2-.88-.4-.07-.75-.27-1-.59-.28-.37-.91-.63-1.48-.63-.35 0-.64.1-.82.28l-.02.01c-.15.1-.27.29-.38.47-.03.05-.06.1-.1.15l-.18-.12c.03-.05.06-.09.09-.15.04-.06.08-.13.13-.19-.03.01-.05.01-.08.02-.09.02-.17.03-.24.05l-.03.01c-.15 0-.31.08-.41.21-.09.11-.18.3-.15.59a.46.46 0 01.35.02c.04.02.07.03.11.04v-.1h.22v.17c.02.05.02.11.01.17 0 .03-.01.07-.01.1 0 .2.36.59.8.79l.01-.02c.23.11.68-.15.94-.54l.18.12c-.15.23-.38.44-.62.56h.08c.05 0 .1 0 .15.01v-.01c.46 0 .7-.36.91-.67.15-.23.3-.45.52-.48l.04.21c-.13.02-.24.19-.37.39-.15.22-.32.48-.58.63.01 0 .02.01.03.01v-.01c.26.12.52-.17.85-.58.26-.32.5-.63.79-.59l-.03.21c-.16-.02-.38.25-.59.51-.19.24-.39.49-.62.61.07.04.13.08.19.13.01.01.03.01.05.01.09 0 .24-.07.39-.14.21-.08.41-.18.6-.18zm-2.89-1.26a.563.563 0 01-.14-.36c.07.07.29 0 .36 0 .29 0 .36.43.51.43-.3 0-.66.15-.73-.07zm1.16-.11c-.16 0-.41-.08-.58-.25-.2-.2-.29-.16-.42-.1-.07.03-.14.06-.23.06v-.22c.04 0 .09-.02.14-.04.15-.07.35-.16.66.15.12.12.31.18.43.18v.22zm6.24 5.18c-.59-.22-1.1-.5-1.55-.87-.68-.53-1.2-.81-1.57-1-.63-.29-.88-.84-.87-1.39-.14.17-.33.29-.6.24-.38 0-.59.03-.63.09v.01c0 .01 0 .01.01.02.11.11.2.21.2.34-.01.13-.12.25-.29.39-.23.19-.47.57-.48 1.03-.01.38.16.74.49 1.04.35.27 1.32.9 2.69.9.88.01 1.76-.26 2.6-.8zm-.58-5.36c0-.25.05-.7.16-1.02-.1.2-.16.55-.16.95v.07zm-2.96 2.05c-.07.18-.06.37.03.55.14.3.46.54.69.62l.02.01.11.06c.35.21.83.49 1.42.95 1.19.89 2.73 1.28 5.13 1.28 2.59 0 4.64-.87 5.26-1.69.71-.78 1.09-1.17 1.55-1.4.15-.09.17-.16.17-.18 0-.02-.06-.09-.28-.13-.33-.07-.54-.28-.69-.44-.16.22-.41.44-.63.63-.12.1-.23.2-.32.29l-.09.09-.07-.1c-.68-.88-2.31-2.2-3.49-2.64l-.11-.04.05-.11c.04-.07.05-.18.06-.33l-.04-.03c-.11.37-.34.89-.48 1.17l-.02.05-.05.01c-.23.05-.62.15-.93.24-.17.05-.33.09-.43.12l-.07.02-.04-.05c-.42-.49-.85-.99-1.33-1.2l-.11-.05.05-.1c.12-.23.13-.58.13-.85h-.06c.02.25-.06.54-.13.78-.01.05-.03.1-.04.15l-.01.03-.02.02c-.24.24-.83.53-1.27.68l-.06.02-.05-.05c-.13-.13-.54-.33-.79-.33h-.11v-.06l-.12-.01c-.1-.01-.2-.01-.31-.01-.69 0-1.49.18-1.86.43l-.17.11v-.68l-.04.02-.05-.02a.488.488 0 00-.19-.04c-.23 0-.53.11-.71.2l.09.21c.29.66.54 1.27.41 1.8zm8.46-1.36c.03-.1.08-.21.12-.31.04-.09.09-.21.09-.24v-.17l.15.08c1.15.54 2.73 1.65 3.37 2.56l.06.09-.09.06c-.6.43-1.85.93-1.9.95l-.1.04-.04-.09c-.35-.77-1.2-2.19-1.65-2.87l-.03-.04.02-.06zm-1.74.61v-.09l.09-.02c.23-.05.62-.15.93-.24.17-.05.33-.09.43-.12l.08-.02.04.07c.35.56 1.22 2.08 1.59 2.83l.06.12-.13.03c-.77.19-2.07.52-2.96.52-.09 0-.17 0-.25-.01l-.11-.01.02-.11c.14-1.01.21-2.43.21-2.95zm-2.68-.6c.37-.15.87-.44 1.2-.71l.07-.05.07.05c.27.2.87.72 1.1 1.03l.02.03v.04c0 .6-.18 2.23-.27 3.01l-.03.27h-.1c-.63 0-1.57-.16-2.08-.45l-.06-.03v-.07c.08-1.14.14-2.32 0-3l-.02-.09.1-.03zm-3.66.91c.06-.12.13-.6.13-.82v-.06l.05-.03c.37-.23 1.08-.46 1.84-.46.52 0 .98.11 1.37.32l.05.03.01.06c.07.72 0 2.53-.07 2.99l-.03.18-.14-.11c-1.02-.79-2.47-1.73-3.14-1.93l-.12-.04.05-.13z"/><path fill="#00493D" d="M116.54 121.72l1.23-.65c.14-.07.22 0 .29.07l-.29-.65h-.07c0 .07.07.22-.07.29l-.58.22-.22-.43.51-.29c.14-.07.22 0 .29.07h.07l-.36-.72-.07.07c.07.07.07.14-.07.22l-1.23.65c-.14.07-.22 0-.22-.07h-.07l.29.65h.07c0-.07 0-.22.14-.29l.58-.29.22.51-.58.29c-.14.07-.22 0-.29-.07l-.07.07.36.65.07-.07c-.08-.09-.08-.16.07-.23zm.57 1.23c-.07-.07-.07-.14-.14-.14 0-.07 0-.14.14-.22l.51-.36c.07.07.22.29-.14.58v.07l.79-.58h-.07c-.36.22-.43 0-.51-.07 0 0 .43-.29.51-.36.14-.14.14-.07.22-.07 0 .07.07.14.14.22.07.07.07.36-.22.58v.07l.51-.36-.72-1.08h-.07c.07.14.07.22-.07.29l-1.08.79c-.14.07-.22 0-.29-.07h-.07l.72 1.16.58-.22-.07-.07c-.38.13-.59-.02-.67-.16zm3.11 1.51c.14-.14.22-.07.29-.07h.07l-.51-.58-.07.07c.07.07.14.14 0 .29l-.43.36-.36-.36.43-.43c.07-.07.22-.07.29 0l-.51-.58c.07.14.07.22-.07.29l-.94.94c-.14.14-.22.07-.29 0l-.07.07.51.51h.07c-.07-.07-.07-.22 0-.29l.51-.43.36.36-.51.51c-.07.07-.22 0-.29 0l.51.58v-.07c-.07-.07-.07-.14.07-.29l.94-.88zm1.01.58l-.07-.07-1.44.79-.29.07h-.07l.36.36v-.07c-.07-.07-.14-.14.07-.29.07-.07.14-.07.22-.14l.14.14.07-.07-.07-.14c.36-.22.58-.29.58-.29l-.29.65-.22-.22-.07.07.22.22c0 .07-.07.22-.07.29-.07.14-.22.14-.29 0l-.07.07.58.51c-.07-.14 0-.22 0-.36.64-1.45.71-1.52.71-1.52zm2.24 1.88c.07.07.14.14.07.29l-.36.51-.43-.29.36-.51c.07-.14.14-.14.29-.07v-.07l-.58-.43-1.08-.79-.29.36v.07c.22-.22.43-.22.58-.14l.07.07-.94 1.23c-.14.07-.22.07-.29 0l-.07.07.58.43h.07c-.07-.07-.14-.22 0-.29l.94-1.23v.07c.14.07.22.36 0 .58h.07l.3-.35c.07.07.14.14.07.28l-.79 1.08c-.07.14-.14.14-.29.07v.07l.58.43.07-.07c-.07-.07-.14-.14-.07-.29l.36-.51.43.29-.36.58c-.07.07-.14.07-.22.07h-.07l.65.43v-.07c-.07-.07-.14-.14 0-.22l.72-1.16c.07-.14.22-.14.29-.07v-.07l-.58-.43-.08.08zm1.66 1.95s.22-.43.29-.51c.07-.14.07-.14.14-.14s.14.07.22.07c.07.07.29.36.07.65l.07.07.29-.58-1.23-.58c.07.07.14.14.07.29l-.58 1.23c-.07.14-.22.14-.29.07l-.07.07.72.36v-.07c-.07 0-.14-.07-.07-.22l.29-.58c.07 0 .36.07.14.51l.07.07.43-.87h-.07c-.27.37-.42.23-.49.16zm1.8-.07c-.43-.22-.87.07-1.08.58-.22.51-.14 1.01.29 1.16.51.22.87-.07 1.08-.58.22-.44.15-.95-.29-1.16zm0 1.01c-.22.51-.51.79-.72.72-.22-.14-.22-.58 0-1.01.14-.43.43-.79.72-.65.22.07.15.5 0 .94zm2.1-.15v-.07l-.36-.07c.07.07.14.14.07.29l-.29.87c-.14.36-.36.51-.58.43-.22-.07-.22-.36-.14-.65l.36-.94c0-.14.14-.14.22-.07v-.07l-.65-.29v.07c.07.07.14.14.07.29l-.36.94c-.14.36.07.72.36.79.43.14.65-.14.79-.51l.29-.87c.07-.14.15-.14.22-.14zm1.44.44l.07-.07-.43-.07c.07.07.14.14.07.29l-.22.87-.43-1.37-.44-.06c.01.01.01.03.01.06l.07.22-.36 1.3c0 .14-.14.22-.22.14v.07l.43.14v-.07c-.07-.07-.14-.07-.14-.29l.36-1.16.58 1.73h.07l.36-1.59c.08-.14.15-.14.22-.14zm1.09 1.08c-.14.65-.43.79-.58.79h-.14s-.07-.07 0-.14l.22-1.44c.07-.07.07-.14.14-.07h.14c.14-.01.29.28.22.86l.22.07c.14-.72-.14-1.01-.51-1.08-.29-.07-.72-.14-.72-.14v.07c.07.07.22.07.14.29l-.22 1.3c-.07.14-.14.22-.22.22h-.07l.72.14c.36.07.72 0 .87-.79l-.21-.08zm1.08-.72c.07 0 .14 0 .22.07.14 0 .36.14.36.51l.07-.58-1.3-.14v.07c.07 0 .22.07.22.22l-.14 1.37c-.07.14-.14.22-.29.22l1.37.14.14-.58h-.07c-.14.43-.36.51-.58.51l-.14-.07c-.07 0-.07 0-.07-.14l.07-.65c.07 0 .29 0 .29.43h.07l.07-.94c-.14.43-.36.36-.43.36 0 0 .07-.51.07-.58 0-.22 0-.22.07-.22zm1.52.07c-.29-.07-.72-.07-.72-.07v.07c.07 0 .22.07.22.22l-.07 1.37c0 .14-.07.22-.14.22v.07h.65c.36 0 .72-.14.79-.94-.01-.72-.37-.94-.73-.94zm0 1.8c-.07-.07-.07-.07-.14-.07l-.07-.07.07-1.52c0-.07 0-.07.07-.07h.14c.14 0 .36.22.36.87s-.22.86-.43.86zm2.52-.28l-.14-1.37c-.07-.14.07-.22.14-.29l-.79.07v.07c.14 0 .22 0 .29.14l.14 1.37c0 .14-.14.22-.22.29l.79-.07v-.07c-.13 0-.21 0-.21-.14zm.15-1.67l.07.51h.07c-.07-.29.07-.43.22-.51h.07l.29 1.52c0 .14-.07.22-.14.22v.07l.72-.07v-.07c-.14 0-.22-.07-.22-.22l-.29-1.52h.07c.22 0 .43.07.43.36h.07l-.07-.51-1.29.22zm3.46-.57c0-.14 0-.14.07-.22v-.07l-.36.14v.07c.07 0 .22 0 .22.14l.29.87c.07.36 0 .65-.22.72-.22 0-.43-.14-.51-.43l-.22-.94c-.07-.14 0-.22.07-.29v-.07l-.72.22.07.07c.07 0 .14 0 .22.14l.29.94c.07.43.43.58.72.51.43-.14.43-.58.36-.87l-.28-.93zm1.59-.29c-.14-.29-.43-.36-.72-.29l-.72.29v.07c.14 0 .22-.07.29.14l.51 1.23c0 .14 0 .22-.14.29l.07.07.65-.29v-.07c-.07.07-.22.07-.29-.07l-.14-.58s.07-.07.14-.07c.28-.14.42-.36.35-.72zm-.58.72l-.22-.72c-.07-.07 0-.14.07-.14.14-.07.29.07.36.29.08.21.16.43-.21.57zm1.09-1.52c-.43.22-.58.72-.36 1.16.22.51.65.79 1.08.58-.22.07-.51-.22-.72-.72-.22-.43-.22-.87 0-.94.22-.07.51.22.72.65.22.43.22.87 0 1.01.43-.14.58-.65.36-1.16-.22-.43-.65-.72-1.08-.58zm2.02-1.01l-.36.14v.07c.07 0 .22 0 .29.14l.43.79-1.3-.72-.43.29h.14l.22.14.58 1.16c.07.14.07.22 0 .29v.07l.36-.22v-.07c-.07.07-.22.07-.29-.07l-.58-1.08 1.59.87.07-.07-.72-1.44c-.14-.14-.07-.22 0-.29zm2.31.36l-.87-1.23.07-.07c.14-.07.36-.07.58.14l-.29-.43-1.08.72.29.51.07-.07c-.22-.22-.14-.51 0-.58h.07l.87 1.23c.07.14 0 .22 0 .29v.07l.58-.43v-.07c-.07.07-.22.07-.29-.08zm1.66-1.22l-.87-1.08c-.07-.14-.07-.22 0-.29v-.07l-.58.51c.07 0 .22-.07.29.07l.36.51-.43.29-.36-.43c-.07-.14 0-.22 0-.29V126l-.58.51c.14 0 .22-.07.29.07l.87 1.08c.07.14.07.22 0 .29v.05l.58-.51v-.07c-.07.07-.22.07-.29 0l-.43-.51.43-.36.43.51c.07.14 0 .22-.07.29l.07.07.58-.51-.07-.07c-.07.08-.15.08-.22.01zm1.08-1.52c.14.43.07.65 0 .72l-.22.22s-.07 0-.14-.14l-.43-.43c.07-.07.22-.29.58.07v-.07l-.58-.65h-.07c.29.36.07.51 0 .58l-.43-.43c-.07-.14-.07-.22-.07-.22.07-.07.14-.07.14-.14.14-.07.43-.22.65.07h.07l-.43-.43-.94.87v.07c.07-.07.22-.07.29 0l.94 1.01c.14.14.07.22 0 .29l.07.07.94-.94-.29-.51-.08-.01zm.94-1.23c.22-.14.36-.14.51 0 .07.07.22.22.07.36-.14.22-.43.14-.72 0h-.07l.51.43v-.07c0-.07 0-.07.07-.07.07-.07.22-.14.29-.22.07-.14.22-.43-.14-.79-.22-.22-.51-.14-.65-.07-.29.14-.43.14-.58 0-.14-.07-.14-.22-.07-.29.07-.14.29-.22.65-.07h.07l-.51-.36c.07.14.07.14 0 .14-.07.07-.22.14-.29.22-.14.22-.14.43.14.72.22.14.51.14.72.07zm-.14-1.3l1.08.79c.14.14.14.22.07.36h.07l.72-1.08-.36-.43-.07.07c.29.29.22.51.14.65-.07.07-.14.14-.14.22 0 0-.07 0-.22-.07l-.51-.36c.07-.07.14-.29.58-.07l-.72-.58v.07c.29.29.14.43.07.51 0 0-.43-.29-.51-.36-.14-.07-.14-.14-.07-.14 0-.07.07-.14.07-.22.07-.07.36-.22.65 0l.07-.07-.51-.36-.79 1.16h.07c.09-.09.16-.16.31-.09zm2.09-.21h.07l.22-.36-.07-.07c-.07.14-.14.22-.29 0l-.14-.14.22-.51c.07 0 .22.07.29.07.22.07.14.14.07.29h.07l.36-.65c-.14.14-.22.07-.36.07-1.52-.29-1.66-.36-1.66-.36v.07l1.16 1.3c.06.07.06.21.06.29zm-.79-1.23l.65.14-.22.36c-.29-.29-.43-.5-.43-.5zm.43-.87c.29.14.51.07.72-.14.22-.14.36-.22.51-.14.07.07.22.22.14.36-.07.22-.36.29-.72.22l.58.29V120.93c.07-.07.14-.22.22-.29.07-.14.14-.51-.29-.72-.29-.14-.51 0-.72.14s-.29.22-.51.14c-.22-.07-.22-.22-.14-.29 0-.14.22-.29.58-.22h.07l-.58-.29v.07c.07.07.07.07.07.14-.07.07-.22.14-.22.29-.14.23 0 .45.29.59zm-14.26-36.07c0 .08-.01.18-.04.27 1.16.47 2.7 1.7 3.41 2.57.07-.07.16-.14.24-.21.22-.19.47-.41.62-.62-1.4-1.4-2.48-2.11-4.23-2.01zm-2.16 1.29c.1-.03.22-.06.36-.1.3-.08.66-.18.9-.24.16-.32.38-.85.46-1.17-.4-.36-1.31-.62-2.15-.62-.28 0-.52.03-.72.09 0 .26-.01.6-.11.88.46.24.86.7 1.26 1.16zm-3.69-.92c.28.04.61.2.78.34.39-.14.9-.39 1.11-.58l.03-.12c.07-.25.15-.55.11-.76-.21-.09-.48-.14-.78-.14-.43 0-.83.11-1.06.28-.11.24-.17.69-.19.98zm-.43-.09c.01-.36.07-.68.16-.89-.74-.13-1.5.17-2.18.84v.42c.44-.22 1.16-.37 1.81-.37h.21zm9.2 2.84c-.63-.84-2.02-1.82-3.1-2.35-.02.04-.04.1-.07.16-.03.08-.07.17-.1.25.45.68 1.23 1.99 1.6 2.76.43-.18 1.21-.53 1.67-.82zm-2.32 1.03c-.38-.74-1.13-2.05-1.48-2.62-.09.03-.22.06-.35.1-.28.08-.62.17-.86.23-.01.56-.07 1.82-.2 2.77h.12c.81 0 2-.28 2.77-.48zm-3.62.47l.01-.08c.09-.76.26-2.33.27-2.95-.2-.26-.68-.68-.97-.91-.32.24-.75.5-1.11.65.12.7.07 1.77-.01 2.9.44.24 1.23.38 1.81.39zm-2.39-3.43c-.35-.17-.76-.26-1.22-.26-.68 0-1.32.2-1.67.4-.01.2-.05.54-.11.74.76.28 2.14 1.2 2.95 1.82.06-.62.1-2.05.05-2.7z"/><path d="M157.44 120.82a.866.866 0 00-.32-.06c-.73 0-1.35.88-1.7 1.71-.09.23-.21.49-.33.77-.03.02-.05.03-.07.05-.82.68-1.64 1.03-2.45 1.03-.07 0-.14-.01-.21-.01.6-.83 1.16-1.72 1.66-2.69.67-1.28.35-2.25-.99-2.97-.92-.39-2.08-1.31-2.8-2.02-.06-.06-.12-.13-.19-.19-.38-.43-1.06-.86-1.73-.86-.28 0-.54.07-.78.22l-.02-.03c-.13.1-.25.2-.37.31.65-2.21.97-4.73.97-7.58V94.32h-5.21c.21-.12.36-.29.43-.49.23-.46.26-.93.09-1.33-.02-.05-.05-.09-.07-.13.02-.02.04-.03.05-.05.11-.13.13-.33.08-.57-.18-1.24-.7-1.84-1.12-2.33-.22-.26-.41-.48-.5-.74.01-.01.02-.03.03-.04.18.01.33.02.46.02.45 0 .74-.09.94-.29l.01-.01c.05-.07.11-.15.17-.24.17-.26.39-.57.6-.68.16-.1.23-.22.2-.32-.01-.04-.05-.12-.2-.12-.04 0-.1.01-.15.02-.09.02-.18.04-.26.07-.12.03-.24.07-.39.08v-.07c-.02-.1-.12-.24-.46-.3-.27-.05-.46-.25-.59-.4l-.02-.02-.06-.06c-1-1-1.86-1.68-2.92-1.98 1.67-1.06 3.78-2 4.59-2.3l.16-.06-.17-.03c-1.07-.2-2.43.08-3.72.56 1.23-1.25 2.64-2.66 3.52-3.51l-.05-.08c-1.99.66-3.81 2.1-4.92 3.13 1.11-1.52 2.8-3.54 4.1-4.85l-.05-.08c-.81.32-2.84 1.12-5.06 3.89.58-1.55 1.69-3.57 2.44-4.32l-.05-.08c-1.06.49-1.92 1.15-2.62 2.04.3-.98.63-1.96.95-2.62l-.08-.06c-.5.48-.95.93-1.37 1.41-.28.04-.57.1-.82.21.12-.18.2-.38.28-.57.17-.4.31-.75.73-.83v-.1c-.05-.01-.1-.01-.15-.01-.39 0-.89.23-1.32.59.04-.11.07-.22.1-.33.07-.28.14-.51.3-.59l-.03-.09c-.54.13-1.12.74-1.39 1.13-.04-.37-.23-.84-.36-1.03l-.06-.09-.03.11c-.04.16-.11.31-.18.47-.17.39-.35.8-.15 1.34-.29-.09-.51-.13-.71-.13-.35 0-.64.13-.9.39-.62-.81-1.3-1.37-2.04-1.67l-.15-.06.09.13c.68 1 1.47 2.27 2.13 3.91-.96-1.29-1.75-1.86-2.33-2.27-.17-.12-.32-.23-.45-.34l-.07.06c.15.29.36.69.59 1.14.21.42.45.88.69 1.35-1.23-1.02-2.46-1.64-3.69-1.84l-.03.09c.9.52 2.21 1.66 3.31 3.04-1.25-.72-2.48-1.24-3.71-1.33l-.03.09c1.03.54 2.39 1.58 3.54 2.66-1.27-.79-2.42-1.25-3.44-1.38l-.03.09c.7.42 2.13 1.5 3.3 2.44-.02.01-.04.03-.06.04-.02.01-.04.03-.06.04l-.1.07c-.02.01-.04.03-.06.04-.03.03-.07.05-.1.08-.02.02-.04.03-.06.05-.03.03-.06.05-.09.08l-.06.06-.08.08-.08.04a.86.86 0 00-.24-.04c-.3 0-.65.13-.85.25-.37-.05-.69-.23-.92-.52-.33-.42-1-.71-1.65-.71-.41 0-.74.12-.96.34-.12.08-.28.11-.42.14-.08.02-.17.03-.25.06-.21.01-.42.11-.56.29-.19.23-.25.56-.18.93l.03.17.14-.1c.12-.09.18-.08.28-.04.05.02.12.05.2.06v.04h.01c0 .02-.01.05-.01.07 0 .4.77 1.12 1.52 1.12.04 0 .08 0 .1-.01.54 0 .96.14 1.22.4.04.04.07.07.08.09.01.03.03.08.03.12.01.03.01.07.03.12.01.03.02.05.03.08.01.02.01.04.02.06l.01.02.02.02c.08.08.15.15.15.19 0 .03-.04.09-.21.23-.27.23-.55.66-.56 1.2-.01.45.19.86.56 1.21.23.18.71.5 1.37.72-.05.05-.08.11-.1.17-.52.02-.95.24-1.48.59-.3.19-.51.54-.55.95-.05.44.09.87.39 1.17.17.16.35.29.52.39h-6.11v14.19c0 2.84.32 5.34.97 7.54-.1-.09-.2-.17-.28-.25l-.05.05c-.23-.17-.49-.25-.79-.25-.68 0-1.36.44-1.77.86-.05.05-.1.1-.14.15-.03.03-.06.06-.08.09-.6.64-1.83 1.58-2.78 1.98-1.33.72-1.65 1.69-.98 2.96.51.97 1.07 1.86 1.66 2.69-.05 0-.1.01-.15.01-.79 0-1.61-.35-2.43-1.03a.218.218 0 00-.08-.05c-.12-.29-.23-.54-.33-.77-.34-.82-.97-1.71-1.7-1.71-.11 0-.21.02-.32.06-.88.32-.79.98-.57 1.64.26 1.31.8 3.66 1.46 4.65.33.85 1.81 1.72 3.75 1.72 1.19 0 2.38-.32 3.55-.95.01-.01.02-.01.03-.02 4.51 3.97 10.13 5.52 14.72 5.52 4.58 0 10.19-1.55 14.68-5.54.02.01.04.03.07.04 1.15.63 2.32.95 3.5.95 1.89 0 3.41-.87 3.79-1.71.5-.84.95-2.64 1.24-3.83.09-.36.16-.65.21-.83l.01-.04c.19-.65.33-1.3-.54-1.62zm-9.93-4.72c.23-.19.51-.29.81-.29.61 0 1.23.4 1.58.79 1.28 1.2 1.1 2.01.27 3.27-.26.51-.57.97-.89 1.41-.23-.47-.67-.73-1-.73-.23 0-.41.11-.51.3-.82-1.09-1.31-2.43-1.02-3.55.05-.14.1-.27.15-.41.14-.29.34-.56.61-.79zm-24.95 2.03c.58 1.34 1.31 2.55 2.19 3.63l.04.04c-.58 1.21-1.18 2.22-1.85 3.08-.9-.8-1.75-1.72-2.54-2.75 1.19-1.17 2.1-2.66 2.16-4zm-2.29 3.82c-.12-.16-.24-.32-.35-.48.18-.45.53-.7.8-.7.17 0 .29.11.33.3-.26.33-.53.63-.78.88zm4.67.03c2.61 3.08 6.27 4.93 9.53 6.33l.04.02.04-.02c3.25-1.4 6.89-3.24 9.49-6.32.6 1.2 1.21 2.2 1.87 3.04-3.11 2.69-6.88 4.01-11.4 4.01-4.53 0-8.3-1.33-11.42-4.02.67-.84 1.27-1.84 1.85-3.04zm19.26-.16c.02-.02.03-.04.05-.06.89-1.1 1.62-2.33 2.2-3.7.02 1.04.54 2.16 1.27 3.07l.03.03c.27.35.56.69.86 1-.79 1.02-1.62 1.93-2.52 2.73-.67-.85-1.29-1.85-1.89-3.07zm3.72-.77c.06-.23.22-.28.35-.28.28 0 .66.25.84.7-.13.18-.25.35-.38.52-.28-.29-.56-.61-.81-.94zm-4.77-27.31c-.18.5-.78.55-1.03.55-.34 0-.7-.09-.89-.24-.39-.31-.46-1.03-.52-1.65a8.02 8.02 0 00-.07-.59c.14.08.32.14.52.14.05 0 .11 0 .16-.01.49 0 1.03.21 1.31.42.13.08.29.13.42.13.05 0 .09-.01.13-.02.02.04.05.08.06.12.19.43.06.85-.09 1.15zm-10.36-3.18l.46-.03c.27.06.55.1.85.14a.7.7 0 01.31.4l.15.45c.07.19.13.39.2.58.15.41.33.82.61 1.07-.31.1-.91.19-1.48.19-.48 0-.86-.06-1.08-.18a1.07 1.07 0 01-.22-.15c-.3-.31-.5-.79-.65-1.17l-.09-.21c-.16-.34-.27-.57-.42-.73.16-.07.32-.14.48-.23.24-.06.52-.1.88-.13zm-.35-.18c.02-.01.04-.03.06-.04.03.01.05.02.08.02-.05.01-.09.01-.14.02zm7.84 1.08c.13.15.17.54.21.96l.06.55c.03.31.08.61.22.88-.54.1-1.72.05-2.14-.37l-.01-.01a.864.864 0 01-.14-.13v-.01l-.06-.07-.09-.12c-.07-.1-.12-.22-.17-.34-.1-.25-.15-.54-.21-.84-.06-.31-.12-.63-.24-.92-.02-.04-.04-.07-.06-.11.13-.05.29-.07.51-.07.21 0 .48.02.81.04.74.06 1.07.12 1.27.4v.02l-.05.04.09.1zM139 90.7c-.78-.06-1.19-.07-1.48.06l-.07-.07c.89-.11 1.69-.31 2.37-.58.15.31.26.58.33.82-.26-.15-.63-.19-1.15-.23zm-1.48.44c.11.27.16.58.22.87.09.46.17.94.45 1.3-.13.06-.44.11-.9.11-.59 0-1.32-.1-1.63-.33-.43-.27-.64-.94-.82-1.52-.11-.36-.21-.67-.35-.87.5.05 1.03.07 1.63.07.36 0 .7-.02 1.04-.05.15.11.27.25.36.42zm-5.85.58c.03.06.05.13.09.2.18.45.42 1.03.83 1.36-.1.02-.19.05-.28.07-.62.15-1.03.24-1.4.24-.33 0-.62-.08-.96-.28-.65-.36-1.34-1.21-1.47-1.53-.02-.06-.03-.12-.05-.17-.03-.13-.06-.26-.16-.35.02-.06.07-.11.16-.15.35.09.75.16 1.19.16.54 0 1.07-.1 1.6-.29.16.13.27.35.45.74zm-.76 2.1c.39 0 .83-.1 1.44-.25.16-.04.34-.08.53-.12l.03-.01c.3.1.7.13 1 .13.64 0 1.38-.11 1.68-.25.38.24 1.11.33 1.69.33.25 0 .78-.02 1.04-.16.05.05.11.1.17.15.44.44 1.42.47 1.71.47.28 0 .54-.03.71-.07.05.07.11.13.18.18.05.03.1.06.16.09H129.4c.2-.07.4-.16.59-.24.24-.1.48-.2.68-.27.09.01.16.02.24.02zm11.32-4.27c.4.46.9 1.04 1.07 2.23.04.18.03.32-.04.4a.28.28 0 01-.21.09c-.1 0-.21-.03-.3-.09-.29-.22-.9-.46-1.44-.46h-.02c-.05.01-.09.01-.14.01-.37 0-.63-.22-.68-.43-.07-.37-.21-.76-.45-1.26.8-.34 1.39-.75 1.72-1.17.11.24.29.45.49.68zm1.52-2.25c.08-.02.16-.04.25-.06.01 0 .02 0 .03-.01-.01.01-.02.01-.03.02-.25.12-.47.45-.67.74-.06.08-.11.16-.16.22-.16.15-.4.22-.79.22-.09 0-.19 0-.3-.01.31-.39.55-.65.78-.83l.15-.09c.06-.04.11-.07.15-.11.26 0 .43-.05.59-.09zm-1.79-.88c-.15.21-.4.43-.62.62-.09.07-.17.15-.24.21-.71-.88-2.25-2.1-3.41-2.57.03-.09.04-.19.04-.27 1.75-.09 2.83.62 4.23 2.01zm-7.44-6.44c-.12.11-.23.27-.32.46-.14-.17-.31-.29-.48-.29-.15 0-.31.08-.45.2.04-.27.13-.5.26-.69.18-.09.36-.14.53-.18.13-.03.26-.06.37-.12-.05.21 0 .42.09.62zm.62.79c-.03-.3.03-.56.09-.79.15.1.28.28.37.49-.06.11-.1.24-.13.36-.09.11-.17.25-.23.4a.562.562 0 00-.36-.14c-.1 0-.2.03-.3.09-.06-.23-.17-.46-.31-.66.08-.18.18-.34.29-.45.1.2.24.39.38.58.04.05.07.1.11.15l.11.15-.02-.18zm.19-1.16c.02-.04.04-.08.07-.11.04-.06.09-.11.13-.15.11.06.2.13.29.2.14.11.29.23.5.31-.24 0-.48.21-.66.5-.1-.2-.24-.38-.4-.48.03-.09.05-.18.07-.27zm0-.35c.04.01.07.03.11.04-.03.03-.06.06-.09.1 0-.05-.01-.09-.02-.14zm1.79 1.79a.401.401 0 00-.15-.03c-.05 0-.11.01-.16.04-.17-.35-.44-.62-.71-.62-.15 0-.32.08-.47.22.16-.39.43-.7.69-.7.41 0 .72.62.8 1.09zm-.51-1.12s0 .01 0 0c0 .01 0 .01 0 0 0 .01 0 .01 0 0zm-.93 2.42c-.11.12-.2.29-.28.47-.16-.29-.39-.5-.67-.5-.22 0-.44.16-.61.4l-.06-.15v-.06c0-.67.4-1.32.82-1.32.43 0 .74.68.8 1.16zm-.36-1.05c.17-.44.5-.77.79-.77.23 0 .46.25.62.57-.24.17-.45.56-.51 1h-.03c-.14-.03-.28.04-.42.16-.06-.32-.22-.72-.45-.96zm.8.89c.02 0 .03 0 .06.01.09 0 .18.05.25.13.23.26.33.82.28 1.18 0 .04-.01.08-.02.12a.185.185 0 00-.07-.02c-.01 0-.02-.01-.03-.01-.04-.01-.09-.03-.13-.04-.01 0-.02-.01-.03-.01-.05-.01-.09-.03-.14-.04-.01 0-.01 0-.02-.01l-.15-.03h-.01c-.16-.03-.33-.06-.49-.08-.03-.16-.08-.32-.15-.46.14-.41.41-.74.65-.74zm.38.08a.493.493 0 00-.19-.14c.07-.53.37-1.01.66-1.01.32 0 .67.74.67 1.25a.3.3 0 00-.08-.04c-.02-.01-.04-.01-.06-.01-.24 0-.51.31-.7.74-.04-.3-.13-.61-.3-.79zm-2.78-2.02c.32 0 .65.54.77 1-.28.23-.5.68-.52 1.16-.11-.16-.24-.27-.39-.3-.1-.48-.34-1.02-.65-1.02h-.01c.16-.45.5-.84.8-.84zm-.79.94c.23 0 .46.47.55.92-.23.02-.45.26-.59.59-.16-.19-.33-.31-.48-.31-.02 0-.05 0-.07.01-.03.01-.06.02-.08.04.02-.71.37-1.25.67-1.25zm-.57 1.29c.01 0 .03-.01.05-.01.12 0 .28.11.44.32-.06.17-.1.35-.11.54h-.03c-.03.01-.07.01-.1.02-.02 0-.04.01-.07.02-.03.01-.06.01-.09.02-.02.01-.04.01-.06.02-.03.01-.06.02-.08.03l-.06.03c-.03.01-.05.02-.07.03-.02.01-.03.02-.05.02-.03-.35.01-.74.12-.93.03-.06.07-.09.11-.11zm.78 1.04c.3 0 .57.05.78.14.03.21-.05.52-.11.76l-.03.12c-.21.19-.72.45-1.11.58-.17-.13-.5-.3-.78-.34.01-.29.08-.74.19-.99.22-.16.62-.27 1.06-.27zm.71-.11l-.13-.03a.292.292 0 00-.09-.02.875.875 0 00-.16-.02c-.03 0-.05-.01-.08-.01-.08-.01-.17-.01-.25-.01-.06 0-.12 0-.18.01-.02 0-.04 0-.05.01-.02 0-.04 0-.06.01.04-.58.36-1.13.67-1.13.24 0 .44.28.56.62-.12.15-.19.35-.23.57zm.88-1c.39 0 .68.5.78.97-.13-.01-.26-.02-.38-.02-.08 0-.16 0-.24.01-.02 0-.03 0-.05.01a.88.88 0 00-.17.02c-.03 0-.05.01-.07.01-.05.01-.09.01-.13.02-.03.01-.05.01-.08.02l-.1.03h-.25c-.03-.01-.06-.03-.09-.04.09-.55.43-1.03.78-1.03zm-.32 1.26c.2-.06.45-.09.72-.09.85 0 1.75.26 2.15.62-.08.32-.3.85-.46 1.17-.24.05-.6.15-.9.24-.14.04-.27.07-.36.1-.39-.46-.8-.92-1.27-1.16.11-.27.12-.62.12-.88zm2.86.25c-.03-.02-.05-.03-.08-.05-.01-.01-.02-.02-.04-.02-.03-.02-.06-.03-.09-.05-.01-.01-.03-.01-.04-.02-.03-.02-.07-.03-.1-.05-.01-.01-.03-.01-.04-.02-.03-.01-.07-.03-.11-.04.01-.05.02-.09.02-.14.01-.07.01-.16.01-.24.17-.52.47-.88.68-.88h.04c.04.01.08.05.12.11.15.25.18.87.06 1.28-.02.14-.05.27-.1.38l-.15-.1c-.02-.02-.04-.03-.06-.05l-.03-.03a.304.304 0 00-.07-.05c.01-.01 0-.02-.02-.03zm6.38-1.9c-.92.36-2.93 1.28-4.51 2.3a4.57 4.57 0 00-.36-.07c.82-.58 2.11-1.31 2.76-1.55l-.03-.09c-.74.27-2.09 1.06-2.86 1.62-.06-.01-.11-.01-.17-.02.4-.42.92-.95 1.49-1.53 1.25-.49 2.6-.81 3.68-.66zm-.23-2.93c-1.39 1.34-3.84 3.83-5.08 5.11-.1-.01-.2-.01-.31-.01-.1 0-.21.01-.31.01.04-.11.08-.24.09-.38.07-.25.09-.57.06-.85.74-.77 2.99-2.95 5.55-3.88zm-.87-1.79c-1.4 1.43-3.18 3.59-4.23 5.09-.18.18-.34.33-.46.46a1 1 0 00-.12-.38v-.1c0-.05 0-.1-.01-.16.71-.92 1.73-2.14 2.24-2.7l-.07-.07c-.49.55-1.48 1.71-2.19 2.63-.04-.22-.13-.45-.24-.65.84-1.12 2.47-3.02 5.08-4.12zm-2.68-.49c-.79.92-1.88 2.96-2.39 4.44a.55.55 0 01-.07.09 1.04 1.04 0 00-.19-.22c-.02-.18-.08-.39-.17-.59.37-.66.77-1.34 1.03-1.68l-.08-.06c-.26.33-.65.98-1.01 1.63-.09-.17-.19-.32-.32-.42.01-.02.02-.04.03-.05.06.01.12.01.19.01h.18l-.15-.09c-.04-.02-.08-.06-.11-.09.75-1.35 1.74-2.31 3.06-2.97zm-1.68-.59c-.31.72-.63 1.69-.93 2.66-.19.26-.36.53-.53.83-.07-.08-.13-.17-.19-.26-.13-.19-.27-.38-.44-.47.15-.02.36-.04.55-.04.34 0 .42.05.43.07l.08-.06c-.14-.28-.57-.54-.87-.59v-.01c.03-.03.07-.07.1-.11.28-.3.67-.7.96-.82l-.03-.09-.13.02c-.04.01-.07.01-.11.01.34-.38.71-.75 1.11-1.14zm-5.05 1.34c.21 0 .46.05.78.16l.11.04-.05-.1c-.25-.55-.07-.96.11-1.36.05-.12.11-.25.15-.38.14.26.3.73.3 1.03 0 .19 0 .64-.07.77l.09.04c.08-.15.08-.57.08-.8.18-.3.7-.89 1.2-1.12-.08.13-.13.31-.18.49-.05.18-.1.36-.18.52-.16.16-.44.68-.44 1.11h.1c0-.41.28-.91.42-1.05.39-.39.88-.66 1.28-.71-.27.16-.4.47-.54.79-.1.25-.21.5-.38.72-.19.13-.44.35-.52.67l.09.02c.04-.17.14-.32.25-.43l.02.02c.08-.06.15-.13.21-.21.29-.2.72-.27 1.1-.32-.26.18-.54.48-.77.71l-.18.18-.08.08h.12c.22 0 .61.19.81.42-.08-.02-.2-.03-.34-.03-.28 0-.64.04-.78.09l.02.09c.23 0 .4.24.58.48.09.13.18.26.28.35-.43-.03-.65-.21-.87-.38-.17-.14-.35-.28-.63-.34l-.11-.02.06.1c.1.17.04.38-.03.65-.06.22-.13.47-.13.75 0-.01-.01-.01-.01-.02-.33-.46-.65-.89-.46-1.32l.07-.17-.15.11c-.12.09-.27.13-.45.17-.2.05-.42.1-.64.24.13-.25.4-.52.58-.69l.06-.06-.07-.03a.696.696 0 00-.16-.02c-.24 0-.62.1-.99.21.18-.36.49-.51.92-.45l.11.01-.06-.09c-.28-.42-.81-.64-1.43-.61.22-.2.49-.31.8-.31zm.16 2.04c-.09-.18-.18-.36-.27-.52.3-.08.57-.15.76-.15h.05c-.18.18-.42.43-.54.67zm-.95-1.6c.03 0 .07-.01.1-.01.5 0 .92.17 1.17.48-.33-.02-.58.08-.76.3-.17-.27-.34-.53-.51-.77zm-2.03-1.66c.66.31 1.28.84 1.85 1.59l-.08.09.12-.01h.03c.19.26.38.54.56.85-.05.07-.09.15-.13.24l-.04.09.1-.03.21-.06c.11.19.21.4.32.61 0 .01-.01.03-.01.04l-.04.15.1-.08c.01.01.01.02.02.03-.08.17-.13.36-.15.56v.05c-.04.05-.08.1-.12.16-.24-.6-.47-1.2-.65-1.67l-.09.03c.18.49.43 1.11.67 1.73-.05.09-.09.18-.13.28-.12-.18-.23-.35-.34-.51-.68-1.74-1.49-3.08-2.2-4.14zm-.22 2.38c-.19-.36-.35-.69-.49-.95.09.07.18.13.28.2.69.49 1.69 1.21 2.92 3.13-.13.04-.25.15-.36.31-.25-.52-.55-1.01-.71-1.25l-.08.05c.16.25.47.76.73 1.3-.14.26-.23.62-.23.99v.04c0 .01-.01.01-.01.02-.66-1.11-1.44-2.64-2.05-3.84zm-2.84-.3c1.18.25 2.37.89 3.56 1.92.43.83.88 1.66 1.28 2.34-.08.23-.11.58-.07.9-.01.01-.02.02-.04.03-.01.01-.03.02-.04.03h-.02c-.09-.1-.18-.21-.28-.31-1.07-2.1-3.06-4.07-4.39-4.91zm-.45 1.78c1.2.14 2.42.69 3.65 1.41.36.47.69.96.97 1.46-.52-.52-1.12-1-1.57-1.26l-.05.08c.55.32 1.24.91 1.79 1.49.04.07.07.15.11.22-.02 0-.04-.01-.06-.01-.03 0-.05-.01-.08-.01s-.05-.01-.08-.01h-.32c-.03 0-.05.01-.08.01s-.06 0-.09.01c-1.22-1.29-2.91-2.67-4.19-3.39zm5.01 3.67c-.11.32-.16.77-.16 1.02v-.07c0-.39.06-.74.16-.95zm-4.95-2.29c1.05.19 2.25.72 3.57 1.59.15.14.29.29.42.43-.02 0-.03.01-.05.01-.03.01-.05.01-.08.02s-.05.01-.08.02l-.11.03c-.03.01-.07.02-.11.04-.01.01-.03.01-.04.01-.22-.15-.4-.28-.55-.4l-.06.07c.14.11.31.24.51.37-.01 0-.01.01-.02.01-.03.02-.07.03-.1.05l-.06.03c-.03.02-.07.04-.1.06H130c-1.07-.86-2.37-1.85-3.13-2.34zm2.56 3.07c.68-.67 1.45-.97 2.18-.84-.09.21-.15.53-.16.89-.07 0-.14-.01-.22-.01-.65 0-1.37.15-1.81.37l.01-.41zm-.5.09c.08 0 .14.01.19.04l.05.02.04-.02v.68l.17-.11c.37-.24 1.16-.43 1.86-.43.11 0 .21 0 .31.01l.12.01V85h.11c.25 0 .66.2.79.33l.05.05.06-.02c.44-.15 1.03-.44 1.27-.68l.02-.02.01-.03c.01-.05.02-.09.04-.15.07-.24.14-.54.13-.78h.06c0 .27-.02.62-.13.85l-.05.1.11.05c.48.21.91.71 1.33 1.2l.04.05.07-.02c.1-.03.26-.07.43-.12.31-.09.7-.2.93-.24l.05-.01.02-.05c.14-.28.37-.8.48-1.17l.04.03c0 .15-.02.26-.06.33l-.05.11.11.04c1.18.44 2.81 1.76 3.49 2.64l.07.1.09-.09c.09-.09.2-.19.32-.29.22-.19.46-.41.63-.63.15.16.36.38.69.44.22.04.28.1.28.13 0 .02-.02.09-.17.18-.46.23-.84.62-1.55 1.4-.61.82-2.67 1.69-5.26 1.69-2.4 0-3.94-.38-5.13-1.28-.59-.46-1.07-.75-1.42-.95l-.11-.06-.02-.01c-.23-.08-.54-.32-.69-.62a.665.665 0 01-.03-.55c.13-.53-.12-1.14-.39-1.79l-.09-.21c.16-.11.46-.21.69-.21zm-2.18 2.02c-.02 0-.04 0-.05-.01-.06-.05-.12-.09-.19-.13.23-.12.43-.38.62-.61.21-.26.42-.53.59-.51l.03-.21c-.28-.04-.53.26-.79.59-.33.41-.58.69-.85.58v.01c-.01 0-.02-.01-.03-.01.26-.15.43-.41.58-.63.13-.2.25-.37.37-.39l-.04-.21c-.22.04-.36.25-.52.48-.21.31-.45.67-.91.67v.01c-.05 0-.1-.01-.15-.01h-.08c.23-.12.46-.32.62-.56l-.18-.12c-.26.39-.72.65-.94.54l-.01.02c-.44-.2-.8-.59-.8-.79 0-.03.01-.07.01-.1.01-.06.01-.12-.01-.17v-.17h-.22v.1a.487.487 0 01-.11-.04c-.09-.04-.21-.08-.35-.02-.03-.3.07-.49.15-.59.11-.13.26-.21.41-.21l.03-.01c.07-.02.15-.04.24-.05.03-.01.05-.01.08-.02-.04.07-.09.13-.13.19l-.09.15.18.12c.03-.05.06-.1.1-.15.11-.18.23-.37.38-.47l.02-.01c.18-.18.47-.28.82-.28.57 0 1.19.27 1.48.63.26.32.6.52 1 .59.07.27.13.54.2.88a.59.59 0 01-.12.46c-.09.11-.22.17-.32.14h-.03c-.19 0-.39.09-.58.18-.16.07-.31.14-.41.14zm.19 3.39c-.33-.3-.49-.66-.49-1.04.01-.46.26-.84.48-1.03.17-.14.29-.25.29-.39.01-.13-.08-.22-.2-.34 0-.01 0-.01-.01-.02v-.01c.04-.06.25-.09.63-.09.28.04.46-.07.6-.24-.01.55.24 1.1.87 1.39.37.19.89.47 1.57 1 .45.36.96.65 1.55.87-.85.54-1.72.81-2.61.81-1.36 0-2.34-.64-2.68-.91zm-.36 3.62c-.25-.25-.37-.61-.33-.99.04-.34.21-.64.46-.79.51-.34.93-.56 1.42-.56.05.04.07.13.1.24.01.06.03.13.05.2.16.39.9 1.27 1.56 1.64.16.09.31.16.45.21l-.38.16c-.32.14-.65.28-.99.37-.12.03-.22.05-.33.07h-1.14c-.28-.09-.57-.27-.87-.55zm-4.78 21.44c-.26-1.04-.45-2.14-.58-3.31-.11-1.07-.17-2.2-.17-3.39V94.53h26.86v13.98c0 1.19-.06 2.32-.17 3.39-.12 1.17-.31 2.27-.57 3.3-.44 1.77-1.09 3.35-1.93 4.76-.35.58-.74 1.14-1.16 1.67-.61.76-1.29 1.44-2.01 2.06-2.3 1.98-5.05 3.33-7.56 4.41-2.51-1.08-5.27-2.43-7.57-4.41-.73-.62-1.41-1.31-2.03-2.07-.43-.53-.82-1.09-1.18-1.68-.84-1.4-1.49-2.97-1.93-4.73zm-2.73 1.39c.37-.37 1.01-.79 1.62-.79.29 0 .54.1.76.29.26.22.46.46.6.71.07.21.15.42.23.63.23 1.12-.33 2.4-1.08 3.4a.519.519 0 00-.48-.29c-.32 0-.73.25-.95.73-.32-.44-.63-.91-.89-1.42-.84-1.25-1.02-2.05.19-3.26zm-6.66 9.96c-.52-1.11-.96-3.01-1.18-4.15-.23-.69-.23-1.14.44-1.38.08-.03.16-.04.24-.04.62 0 1.2.85 1.5 1.57.13.32.3.7.48 1.14.28.65.62 1.45.99 2.34-.43-.21-.85-.32-1.24-.32-.47 0-.86.17-1.07.46-.09.1-.14.24-.16.38zm3.81 2.05c-2.01 0-3.31-.94-3.55-1.59-.09-.28-.07-.53.08-.73.17-.24.5-.37.9-.37.43 0 .91.15 1.4.44l.28.16-.12-.3c-.4-.98-.78-1.86-1.09-2.58.78.59 1.56.89 2.33.89.1 0 .2-.01.3-.02.88 1.2 1.85 2.26 2.88 3.18-1.13.62-2.28.92-3.41.92zm18.3 4.55c-6.43 0-14.91-3.06-19.4-11.64-.62-1.18-.34-2 .89-2.67.69-.3 1.5-.85 2.15-1.39-.06.13-.1.27-.12.4-.14.68.14 1.32.65 2.08 0 0 0 .01.01.01.29.58.66 1.1 1.02 1.6l.12.17.01-.02c3.64 5.07 8.46 7.55 14.69 7.55s11.05-2.48 14.69-7.55l.01.02.12-.17c.36-.5.73-1.01 1.01-1.59v-.01c.57-.86.86-1.57.57-2.33 0-.01-.01-.02-.01-.03-.01-.03-.02-.05-.03-.08-.01-.02-.01-.03-.02-.05.66.55 1.44 1.09 2.09 1.37 1.24.67 1.51 1.49.89 2.67-4.51 8.61-12.95 11.66-19.34 11.66zm21.85-6.13c-.48 1.08-2.43 1.59-3.6 1.59-1.14 0-2.28-.31-3.39-.92 1.02-.93 1.98-1.98 2.86-3.17.12.01.23.02.35.02.78 0 1.56-.3 2.35-.89-.31.71-.69 1.6-1.09 2.58l-.12.3.28-.16c.48-.29.96-.44 1.38-.44.38 0 .69.13.87.36.14.18.18.44.11.73zm1.44-4.65l-.01.03c-.05.17-.12.46-.21.83-.23.93-.59 2.4-.99 3.32a1.01 1.01 0 00-.18-.41c-.22-.28-.59-.44-1.04-.44-.38 0-.8.11-1.22.32.37-.89.71-1.68.99-2.34.19-.43.35-.82.48-1.14.3-.73.88-1.57 1.5-1.57.08 0 .16.01.24.04.69.26.59.72.44 1.36zm-19.86-38.4c.68-.88 2.04-2.13 2.67-2.66l-.06-.07c-.63.54-1.99 1.79-2.68 2.68l.07.05zm.87 4.57l.04.09.1-.04c.05-.02 1.3-.52 1.9-.95l.09-.06-.06-.09c-.64-.92-2.21-2.03-3.37-2.56l-.15-.08v.17c0 .03-.05.15-.09.24-.04.1-.09.21-.12.31l-.02.05.03.04c.45.69 1.3 2.11 1.65 2.88zm-1.34-3.2c.03-.07.05-.12.07-.16 1.08.52 2.47 1.51 3.1 2.35-.45.3-1.23.65-1.67.83-.37-.78-1.15-2.09-1.6-2.76.03-.09.07-.18.1-.26zm-2.18 3.91c.08.01.16.01.25.01.89 0 2.19-.32 2.96-.52l.13-.03-.06-.12c-.37-.75-1.24-2.27-1.59-2.83l-.04-.07-.08.02c-.1.03-.26.07-.43.12-.31.09-.7.2-.93.24l-.09.02v.09c0 .52-.07 1.94-.22 2.95l-.02.11.12.01zm.34-2.98c.24-.05.58-.15.86-.23.13-.04.26-.07.35-.1.35.57 1.1 1.88 1.48 2.62-.77.19-1.96.48-2.78.48h-.12c.13-.95.2-2.21.21-2.77zm-2.96 2.43v.07l.06.03c.51.29 1.45.45 2.08.45h.1l.03-.27c.09-.78.27-2.41.27-3.01v-.04l-.02-.03c-.23-.31-.83-.83-1.1-1.03l-.07-.05-.07.05c-.33.27-.83.56-1.2.71l-.08.03.02.09c.11.68.05 1.86-.02 3zm.23-2.96c.35-.15.79-.41 1.11-.65.3.23.77.66.97.91-.01.62-.18 2.19-.27 2.95l-.01.08c-.58-.01-1.36-.16-1.81-.39.07-1.13.12-2.2.01-2.9zm-.63 2.84l.14.11.03-.18c.08-.46.15-2.27.07-2.99l-.01-.06-.05-.03c-.39-.21-.86-.32-1.37-.32-.76 0-1.47.23-1.84.46l-.05.03v.06c0 .21-.07.7-.13.82l-.06.11.12.04c.68.22 2.13 1.16 3.15 1.95zm-2.86-2.84c.36-.2.99-.4 1.67-.4.46 0 .87.09 1.22.26.05.65.01 2.08-.05 2.69-.82-.62-2.19-1.54-2.95-1.82.06-.2.11-.53.11-.73zm-4.36-.93c-.07 0-.29.07-.36 0 0 .14.07.29.14.36.07.22.43.07.72.07-.14 0-.21-.43-.5-.43zm-.15-.3a.43.43 0 01-.14.04v.22c.09 0 .16-.03.23-.06.13-.06.22-.1.42.1.17.17.42.25.58.25v-.22c-.12 0-.31-.06-.43-.18-.31-.3-.51-.21-.66-.15zm8.16 18.06h.01v-.01c.07-.06.2-.13.27-.06l.26.26v-.06c.02.01.04.01.07.01.05 0 .1-.01.16-.04l-.1-.19c-.06.03-.08.02-.13-.02 0-.03.01-.06.02-.09-.08.12-.28.05-.28-.09 0-.01-.01-.01-.01-.02-.02 0-.04-.01-.07-.01-.15 0-.3.1-.36.17l-.02.03c-.02.03-.03.06-.04.09.09-.01.16 0 .22.03zm-9.46.44c.02.01.04.02.05.03 0-.01.01-.01.01-.02.01-.02.02-.04.03-.07.06-.01.11 0 .17.01.04 0 .08.01.13.01.09 0 .18-.02.26-.1l-.15-.15c-.04.04-.1.04-.21.03a1.13 1.13 0 00-.26 0 .326.326 0 01-.12-.21c0-.04 0-.07.01-.11-.06-.01-.14-.03-.19-.11-.03.08-.05.16-.04.24.01.13.08.26.19.35 0 .01-.01.01-.01.02-.01.03-.03.05-.03.09.05-.02.1-.02.16-.01zm-.24-5.61c.01-.02.01-.05.02-.07.03-.07.09-.12.16-.14.06.01.23.07.34.18l.15-.15a.95.95 0 00-.49-.25c-.11-.02-.18-.08-.21-.16-.01-.02-.01-.04-.01-.05-.09.01-.16-.05-.21-.13-.02.08-.02.16.01.24.03.09.08.17.16.22-.04.04-.08.09-.1.15-.05.11-.07.25-.04.39.01-.01.02-.02.03-.04.04-.15.11-.2.19-.19zm.28-1.02h.02c.02 0 .05.01.07.04l.01.02c.03.03.06.08.09.13.04.06.08.12.12.16.09.09.11.1.22.1v-.22h-.02l-.03-.03c-.05-.12-.06-.39-.06-.57.01-.04.03-.07.06-.09-.08-.05-.13-.11-.09-.15.01-.02.02-.05.03-.07-.08.05-.16.12-.2.25l-.01.03v.24a.28.28 0 00-.2-.08c-.05 0-.09.01-.13.03.06.07.1.13.12.21zm.46 7.47a.27.27 0 01-.09-.11c-.01-.03 0-.05.02-.08l.06-.06c.17-.09.38-.24.46-.4l-.19-.1c-.05.1-.22.23-.37.3-.05.01-.08.03-.11.06a.51.51 0 01-.17-.07c-.03.06-.09.1-.2.11.07.07.17.13.27.16-.01.04-.01.08 0 .12.02.1.09.19.19.26.01-.03.03-.06.04-.1.03-.04.05-.07.09-.09zm19.25-.18v-.02-.02a.18.18 0 00.05-.07l-.07-.06h.09c0-.02.01-.04.01-.07.02-.12.05-.28-.04-.37l-.16.15c.01.03-.01.14-.01.18 0 .02-.01.04-.01.06-.02.02-.03.04-.05.05a.3.3 0 01-.11.06c0 .08-.03.17-.09.23.06 0 .11-.01.16-.03.02.06.05.11.1.16 0-.02.01-.05.01-.07.01-.06.06-.14.12-.18zm.72-.04c-.02-.01-.05-.02-.07-.03 0-.17.01-.23.07-.41l-.21-.07c-.05.14-.07.23-.07.32l-.12-.09.12.35c.02.06 0 .11-.02.14.05.1.03.21-.05.29.09-.02.17-.08.22-.15.02-.03.03-.05.05-.08-.02-.12.02-.22.08-.27zm-10.18.08v-.01c-.01-.06 0-.12.03-.16.09-.02.17-.1.23-.17l-.15-.15c-.04.04-.11.11-.14.11v.09l-.06-.07c-.06.04-.12.07-.17.08-.05.1-.21.15-.34.15.11.07.24.09.38.06a.578.578 0 00.06.23c.02-.09.09-.14.16-.16zm-10.13-1.46c.06 0 .12-.01.16-.01.04.03.07.05.1.06.03.02.06.03.08.05l.02.01c.31.21.62.31.97.31.17 0 .35-.02.55-.07.08 0 .15-.02.2-.04.05-.02.09-.03.15-.03l.03-.01c.37-.13 1.07-.41 1.59-.77-.04.16-.1.32-.16.35l.1.19c.41-.21.72-.45.92-.73v.01c.24-.08.45-.16.65-.34v.05c-.01.19-.02.38-.11.47l.13.17c.1-.06.22-.14.34-.25l.02.04c.21-.11.5-.36.73-.68a.52.52 0 01-.07.23l.17.14c.23-.23.37-.4.46-.58v.11l.18-.18c.03-.03.07-.07.1-.11v.25l.17-.13c.18-.14.28-.3.34-.47.23-.17.36-.38.43-.65l.03.04c.22-.16.32-.3.37-.56.15.12.38.22.72.22v-.05h.36c.8 0 1.69-.17 2.55-.33.85-.16 1.72-.32 2.51-.32.85 0 1.51.16 2.1.3.45.11.84.2 1.22.2.55 0 1.05-.4 1.05-.83 0-.46-.64-.69-1.91-.69-.91 0-1.6.12-2.27.23-.6.1-1.17.2-1.85.2-2.35 0-2.42-.94-2.42-1.05 0-.28.3-.76 1.41-.76.28 0 .67-.04.87-.25l.02-.03c.03-.06.2-.36.68-.6.21-.12.54-.13.89-.14.31-.01.63-.01.89-.1-.13.21-.4.45-.65.55l.07.2c.28-.08.55-.13.78-.13.28 0 .49.06.62.19-.08-.02-.17-.02-.26-.02-.32 0-.61.09-.69.12-.15.04-.26.07-.37.11-.11.04-.21.07-.34.1h-.56v.22h.58v-.11l.03.1c.08-.02.16.07.26.17.09.09.19.2.32.27-.39.19-.98.17-1.58-.07l-.09-.03c-.27-.09-.76-.26-1.1-.26-1.04 0-1.26.29-1.26.54 0 .48.55.69 1.84.69.59 0 1.07-.07 1.58-.15.62-.1 1.32-.21 2.39-.21h.2l-.11-.17c-.04-.06-.04-.13-.04-.21 0-.08 0-.17-.04-.27.57.04 1.23.23 1.48.66l.2-.07c-.03-.21.05-.43.12-.63.07-.19.14-.38.13-.57.32.13.57.46.62.74l.21-.02c0-.05.03-.07.1-.13.05-.03.1-.08.14-.14.3.21.47.61.41.97l.2.07c.08-.14.16-.19.25-.24.06-.04.13-.08.19-.15.01.32-.09.8-.39 1.01l-.06.03.11.18c.02-.01.04-.02.05-.03.35-.2.8-.19 1.12.04-.19.02-.33.1-.45.16-.06.03-.11.06-.16.07l-.02.01c-.74.43-1.94.72-3 .72-.11 0-.23 0-.34-.01-.59-.04-.91-.11-1.19-.18-.26-.06-.48-.11-.84-.11l-.02.21c.15.02.38.17.63.33.43.27.96.61 1.48.61.51 0 .88 0 1.12-.08.17-.06.5 0 .77.13.19.19.55.38.85.39-.06.14-.16.23-.31.28l-.22.07.2.12c.15.09.17.15.21.25.03.07.06.15.14.25-.09.03-.17.05-.26.03l-.11.18c.09.09.13.19.18.3.03.07.06.13.1.2-.06.01-.13 0-.16-.02l-.13.16c.09.12.09.25.09.39 0 .15 0 .32.14.42.04.06.03.12.01.15-.02.04-.05.06-.08.08.08.04.11.11.1.19.08-.04.14-.1.18-.18a.37.37 0 00-.04-.39l-.03-.03c-.05-.04-.06-.11-.06-.25 0-.09 0-.2-.03-.31.07 0 .13-.01.18-.02.03-.01.05-.01.07-.01h.36l-.3-.2c-.09-.06-.13-.16-.19-.28-.02-.05-.05-.11-.08-.17a.75.75 0 00.16-.05c.05-.02.09-.03.13-.03h.31l-.24-.19c-.15-.12-.18-.21-.22-.3a.614.614 0 00-.15-.25c.16-.1.27-.27.33-.5l.04-.17-.17.04c-.03.01-.06.01-.1.01-.25 0-.57-.17-.74-.34l-.03-.02c-.33-.16-.72-.23-.95-.15-.2.07-.56.07-1.05.07-.46 0-.96-.32-1.37-.58-.05-.03-.09-.06-.13-.08.06.01.13.03.19.04.27.06.61.14 1.22.18.11.01.23.01.35.01 1.09 0 2.33-.3 3.1-.74.06-.02.12-.05.18-.08a.932.932 0 01.62-.13l.29.05-.19-.23a1.249 1.249 0 00-1.18-.43c.23-.41.24-.97.12-1.21l-.12-.23-.08.25c-.07.2-.14.25-.25.31-.03.02-.07.05-.11.07-.04-.4-.28-.78-.64-.96l-.16-.08v.17c0 .05-.03.07-.1.13-.02.01-.04.03-.05.04-.15-.33-.48-.65-.87-.71l-.18-.03.06.17c.06.19-.01.39-.09.62-.05.13-.1.27-.12.42-.4-.39-1.11-.53-1.71-.53h-.32l.26.19c.12.09.12.17.12.29 0 .05 0 .11.01.17-.99.01-1.67.11-2.27.21-.52.08-.97.15-1.55.15-1.09 0-1.63-.15-1.63-.47 0-.2.4-.32 1.05-.32.3 0 .77.16 1.02.25l.09.03c.35.14.71.22 1.03.22.38 0 .71-.11.95-.31l.23-.19h-.3c-.18 0-.31-.13-.43-.27-.04-.04-.07-.08-.11-.11.02-.01.05-.01.07-.02.11-.04.21-.07.36-.11.08-.03.35-.11.63-.11.18 0 .32.03.43.1l.22.13-.06-.25c-.09-.37-.43-.58-.95-.58-.09 0-.19.01-.28.02.21-.2.37-.44.37-.64v-.21l-.17.12c-.24.17-.63.18-1.02.19-.36.01-.73.02-.99.16-.4.2-.65.48-.76.68-.12.11-.38.17-.71.17-1.28 0-1.63.61-1.63.97 0 .21.13 1.26 2.64 1.26.7 0 1.27-.1 1.88-.2.66-.11 1.34-.23 2.23-.23 1.06 0 1.7.17 1.7.47 0 .28-.36.61-.83.61-.36 0-.74-.09-1.17-.2-.6-.14-1.27-.31-2.15-.31-.8 0-1.69.17-2.55.33-.85.16-1.72.32-2.51.32h-.47c-.11-.08-.14-.16-.2-.3-.03-.06-.06-.13-.1-.22-.02-.04 0-.17.01-.26.01-.1.03-.19.02-.27.03-.02.07-.05.11-.08a.99.99 0 01.17-.11l.03-.01.02-.02c.17-.26.38-.63.23-.9-.06-.22-.27-.33-.55-.3.01-.01.01-.03.01-.04.03-.09.06-.18.15-.26l.18-.18h-.26c-.12 0-.23 0-.32.01.08-.16.14-.35.14-.55v-.36l-.2.3c-.1.15-.34.21-.52.23.01-.13.03-.3.11-.39l.18-.18h-.26c-.39 0-.85.15-1.1.41a.638.638 0 00-.08-.14c-.07-.12-.15-.26-.1-.32l.19-.29-.32.13c-.24.09-.58.3-.8.54-.02-.09-.06-.19-.09-.27-.02-.04-.03-.09-.05-.13l-.21.03c0 .05-.08.16-.15.25-.12.16-.25.35-.29.57a.742.742 0 00-.25-.05c-.21 0-.38.09-.46.26-.16.32.04.71.28.97 0 .01 0 .01.01.02-.22.04-.38.26-.44.62-.07.14-.13.34-.15.49-.2.21-.32.46-.36.72-.65-.12-1.43-.71-1.9-1.45l-.01-.02c-.07-.07-.18-.24-.08-.35.2-.16.25-.39.22-.56a.49.49 0 00-.12-.25c-.01.07-.07.13-.15.15.03.03.05.08.06.13.02.11-.01.26-.14.36l-.01.01c-.19.19-.11.47.06.65.51.79 1.32 1.4 2.02 1.54-.14.22-.2.45-.24.59-.23.29-.32.63-.22 1.14-.02.07-.04.15-.06.23-.1-.01-.22-.02-.32-.04-.05-.01-.09-.01-.14-.02.01-.01.01-.03.02-.04.03-.09.1-.25.15-.27l-.07-.2c-.25.05-.56.02-.81-.03.04-.09.07-.19.09-.29.01-.06.03-.13.05-.19l.08-.25-.23.12c-.01 0-.02.01-.07.01s-.12-.01-.19-.02c-.1-.01-.22-.03-.33-.02.05-.16.12-.31.24-.35l-.06-.21c-.18.05-.41.03-.67-.05.05-.04.09-.08.13-.11.07-.07.15-.13.2-.13v-.22c-.37 0-.54-.12-.71-.26.03-.01.05-.02.07-.04.07-.04.14-.07.21-.07l.03-.21c-.13-.04-.33-.22-.38-.37-.01-.03-.01-.05-.01-.07h.07v-.22h-.14v.09l-.08-.06c-.03.03-.05.06-.08.09-.05.07-.11.14-.18.18-.01.01-.04.02-.08.02-.06 0-.15-.02-.25-.07-.04.06-.1.11-.18.14.14.09.29.14.43.14.07 0 .13-.01.18-.04.05-.03.1-.06.14-.1.05.12.16.24.27.33-.01.01-.03.01-.04.02-.09.05-.16.08-.24.06l-.08.2c.07.04.14.09.21.14.13.1.28.21.51.27l-.01.01c-.1.09-.19.17-.3.17l-.04.21c.28.11.53.17.75.18-.06.11-.1.23-.14.34l-.08.25.19-.05c.11-.03.28-.01.43.01.07.01.13.02.19.02 0 .02-.01.03-.01.05-.03.13-.06.25-.13.33l-.13.13.19.05c.23.06.51.11.8.1l-.06.15c-.02.05-.05.12-.06.14l-.18.18h.26c.06 0 .17.01.28.03.11.01.23.03.34.04v.47l.2-.3c.1-.15.3-.28.52-.39-.01.08-.02.16-.05.26-.49.41-1.31.75-1.73.89-.08 0-.14.02-.2.04-.05.02-.09.03-.15.03h-.02c-.3.06-.69-.25-.82-.45-.11-.22-.29-.36-.48-.37.02.04.02.08.02.13.03.03.03.07.01.1.09.03.19.12.26.25.09.13.25.29.45.41-.28-.01-.54-.09-.8-.26a.38.38 0 00-.13-.08c-.02-.01-.03-.02-.05-.03 0-.07.02-.13.04-.18a.41.41 0 01-.17-.13c-.04.07-.07.15-.08.25-.07 0-.12.01-.18.01.03.03.05.06.07.09.01.15.01.19 0 .22zm5.69-6.74c.02-.03.05-.06.07-.09.05.14.09.28.06.38 0 .01-.01.02-.01.03l.21.06c0-.01.01-.02.01-.03.07-.2.39-.46.7-.62.02.1.08.21.14.3.06.1.13.22.11.28l.2.07c.1-.26.49-.44.86-.5-.06.16-.06.35-.06.46v.11h.11c.15 0 .38-.03.57-.13a.97.97 0 01-.21.38l.15.15c.04-.03.16-.04.29-.04-.03.05-.05.11-.06.15-.03.1-.06.17-.14.22l.11.19c.11-.05.22-.08.32-.08.14 0 .22.05.25.16l.01.03c.08.11.01.33-.2.65-.06.03-.12.08-.17.11-.04.03-.1.07-.11.08h-.08v-.02c.01-.1.14-.26.29-.36l-.09-.19c-.2.07-.33.07-.47.07h-.08l-.02.07c-.07.21-.22.37-.39.41-.11.03-.21-.01-.3-.09l-.13-.13-.05.19c-.06.25-.37.54-.58.5-.18-.09-.26-.21-.24-.36.05.01.09.02.13.02.06 0 .12-.01.17-.04.11-.06.18-.17.23-.36v-.03c0-.05.02-.1.04-.15.11.06.27.11.46.11.12 0 .24-.02.37-.07l-.07-.21c-.1.02-.17-.03-.2-.09-.03-.07-.01-.15.07-.21.04.01.08.02.12.04.06.03.12.05.19.05.04 0 .07-.01.11-.03l-.1-.19c-.02.01-.06-.01-.12-.03a.515.515 0 00-.36-.05c-.02 0-.05.01-.09.01-.01 0-.02 0-.04.01v-.16c-.24 0-.4.16-.4.4 0 .04-.04.11-.08.18-.06.11-.13.24-.14.38-.03.11-.07.18-.12.21-.04.02-.09.02-.16 0-.16-.1-.16-.11-.16-.26 0-.09.06-.16.15-.25l.09-.09h.01c.06-.07.11-.16.12-.28.01-.03.03-.07.05-.1.02-.05.06-.14.09-.18.01-.01.02-.01.03-.02l.34-.2h-.39a.21.21 0 00-.11.04c-.1.05-.22.06-.33.05v-.02c-.02 0-.04.01-.07.01l-.09-.03a.453.453 0 01-.25-.32l-.21.04c.03.17.12.32.26.42-.05.03-.09.07-.12.11-.08.11-.1.23-.06.35.04.11.11.19.22.22.04.01.08.02.13.02-.04.06-.07.14-.07.23 0 .19.02.26.12.35-.09.08-.18.13-.28.14-.21.01-.38-.13-.43-.18-.01-.02-.01-.06-.01-.12l.03-.15h-.01c.02-.13.06-.31.15-.56l-.21-.07c-.02.05-.03.1-.05.15-.02-.02-.03-.04-.05-.07-.08-.15-.07-.38.01-.59l-.19-.08-.02-.13c-.06-.23.09-.44.23-.63zm1.96 1.69c.01.02.02.04.03.05a.735.735 0 01-.3-.08c.04-.08.08-.15.08-.23v-.01c.05.01.11.01.17 0-.03.09-.02.18.02.27zm-1.26-.21c-.04-.01-.07-.04-.09-.09a.17.17 0 01.03-.16c.05-.06.12-.11.21-.13.08.02.17.02.26.01-.02.04-.03.08-.05.11l-.01.02v.03c0 .05-.02.1-.05.14-.11.08-.22.1-.3.07zm-1.61-.24c-.1-.17-.14-.35-.07-.49.06-.11.17-.14.26-.14.12 0 .24.05.28.09l.15.15c-.04.14-.05.29-.03.42l-.09-.19c-.09-.19-.17-.35-.31-.35v.22h-.02c.01.01.03.03.05.06-.04.01-.09.04-.12.08a.36.36 0 00-.1.15zm-1.28 4.46c.08-.44.29-.76.74-1.15l-.14-.16c-.26.22-.45.43-.58.64 0-.51.29-.78.85-1.12l-.11-.19c-.13.08-.25.16-.36.24.04-.09.09-.17.14-.25h.02v-.03a.98.98 0 01.37-.28l-.09-.2c-.09.04-.17.09-.24.14.05-.16.14-.31.27-.45.04-.01.07-.03.1-.04.02-.01.05-.02.06-.02v-.22c-.03 0-.06.01-.08.01.02-.09.06-.19.1-.27a.36.36 0 01.12-.08c.06-.04.12-.08.16-.12l-.15-.15s-.01 0-.01.01c.05-.1.12-.15.2-.15.04 0 .08.01.12.03l.13-.17c-.04-.04-.11-.11-.11-.14v-.05l-.02-.02c-.05-.08-.02-.2.04-.26.05-.05.09-.03.1-.02l.28.19c.01.03.02.06.04.09.04.09.1.15.18.19-.04.18-.06.3-.07.4-.02.12-.03.25-.04.38-.02.2-.04.39-.07.5-.06.12-.13.38-.03.6.01.03.03.05.05.08a.7.7 0 00.17-.13c-.01-.01-.02-.02-.02-.04-.07-.15-.01-.34.03-.42l.01-.01c.04-.13.06-.33.08-.56v-.03c.11.08.28.17.48.16.02-.04.04-.08.05-.12.14 0 .29-.07.36-.22-.07.22 0 .43.29.58-.02.03-.03.06-.05.1l.02.01c.03.01.07.01.11.01.03 0 .07 0 .1-.01-.21.55-.41.74-.69.78-.06.08-.11.15-.17.21.02 0 .05.01.07.01.46 0 .77-.27 1.06-1.13.13-.1.24-.24.31-.37.11.06.24.08.38.05.22-.05.41-.23.52-.48h.09a.55.55 0 00-.11.25c-.01.09.02.17.08.23.01.01.04.04.09.05.01.01.03.01.04.01 0 .05-.01.12-.02.17-.02.15-.04.29.01.39.04.08.07.15.09.2.03.08.07.16.11.22-.21-.08-.29-.2-.29-.26v-.22h-.22c0 .48-.04.65-.17.8.02-.15.03-.32.03-.51h-.22c0 .48-.04.81-.22 1.06v-.12h-.22c0 .26-.04.45-.14.6v-.1h-.03c.02-.06.03-.13.03-.22h-.22c0 .16-.05.27-.13.36a.408.408 0 01-.02-.07l-.21-.02c-.04.22-.11.38-.26.57v-.09c.01-.11.01-.21.03-.29l-.2-.08c-.11.26-.28.5-.46.69.04-.1.08-.21.09-.34l-.21-.03c-.04.29-.16.53-.38.73.01-.08.01-.16.02-.24 0-.11.01-.23.03-.32.08-.11.16-.23.25-.39l-.19-.11c-.07.12-.13.22-.19.31l-.03-.01a.3.3 0 00-.04.1c-.17.22-.34.33-.53.41.06-.14.11-.29.12-.45l-.21-.02c-.05.42-.3.79-.76 1.09.03-.1.05-.2.08-.31l.02-.1c.07-.2.07-.34.07-.48.18-.13.41-.34.57-.66l-.19-.1c-.15.3-.37.5-.54.6-.16.13-.36.23-.52.35zm-2.7-5.3c.05.06.09.15.09.24 0 .16.04.29.08.44.02.05.03.11.05.17-.05.05-.06.09-.06.17h.22v-.02c.01-.01.02-.02.04-.05l-.06-.06.1-.01c0-.02.02-.08.03-.11.02-.06.04-.13.04-.18 0-.04 0-.09.12-.1a.364.364 0 01-.05-.21c-.13.02-.22.07-.26.17a.78.78 0 01-.03-.22c0-.18-.09-.37-.24-.47a.31.31 0 01-.07.24zm8.86 7.24c.01 0 .01 0 0 0 .01-.01.02-.03.03-.04h.11c.11 0 .2-.09.22-.1l-.15-.15c-.02.02-.04.03-.06.04-.16-.06-.35-.01-.45-.05-.01-.01-.01-.02-.02-.03-.04.06-.13.09-.22.06.02.05.06.09.1.13l.03.02c.07.03.14.04.21.05-.02.05-.04.11-.04.17.08-.06.17-.1.24-.1zm-3.3-3.22c.13-.02.24-.08.31-.14.3-.02.52-.23.62-.45.13-.06.19-.24.25-.4.01-.02.01-.04.02-.06.02 0 .04 0 .05-.01.1-.03.19-.13.24-.28.07.01.14 0 .2-.03.12-.05.21-.15.26-.29l-.21-.07c-.02.07-.07.13-.14.15-.05.02-.11.02-.15 0l-.12-.06-.03.13c-.04.16-.09.21-.12.23l-.1-.1-.07.13c-.02.05-.04.11-.07.17-.03.08-.09.26-.13.28h-.08l-.02.07c-.06.18-.24.36-.48.36h-.05l-.03.03a.45.45 0 01-.28.11h-.11v.11c0 .03-.05.15-.11.21l.15.15c.1-.04.17-.14.2-.24zm-1.47-.67c-.01-.04-.03-.1-.03-.13.06-.12.13-.32.09-.49.08-.09.12-.21.13-.27.02-.1.03-.21.01-.29.13-.08.27-.22.27-.34l-.22-.01c-.01.04-.11.14-.23.2l-.1.05.05.1c.02.04.03.13 0 .24-.03.12-.07.18-.1.19l-.1.05.05.1c.04.08.01.24-.07.41l-.01.02v.03c0 .05.01.11.04.21.01.05.03.13.03.15h.13c.01-.04.04-.07.07-.1.01-.04.01-.08-.01-.12zm3.58 1.87h-.22c0 .02-.03.11-.11.11v.22c.21-.01.33-.2.33-.33zm.51-.15h-.22c0 .1-.12.29-.18.36l.15.15c.08-.08.25-.32.25-.51zm.5-.14h-.22c0 .11 0 .29-.08.34l.1.19c.2-.1.2-.37.2-.53zm9.43 2.53h.04v-.07l-.07.02a.266.266 0 01-.03-.12c.01-.06.05-.12.11-.17.08-.04.14-.08.19-.11.01-.01.02-.01.03-.02.05-.02.1-.04.15-.09.16-.09.26-.26.26-.45 0-.3-.27-.91-1.12-.91-.05 0-.1 0-.15.01-.11.01-.23.01-.36.01-1.07 0-2.52-.26-3.26-.5a.252.252 0 00-.12-.07c-.03-.02-.06-.03-.08-.05l-.19-.18v.09c-.39-.19-.61-.4-.81-.58-.3-.27-.53-.49-1.11-.44l.02.22c.42-.03.6.08.83.28-.16.08-.33.2-.43.33-.06-.03-.13-.06-.2-.09l.03-.03-.21-.05c-.13-.03-.28-.05-.44-.05-.17 0-.43.02-.65.13-.16.08-.31.17-.47.25-1.14.61-2.33 1.24-3.18 1.24-.11 0-.22-.01-.32-.04-.02-.22.1-.48.44-.6l-.07-.21c-.48.16-.65.57-.58.91 0 .11.03.21.08.31-.2-.01-.45-.04-.53-.17l-.1-.15-.08.17c-.06.11-.16.35-.14.61a5.86 5.86 0 00-.59-.23l-.11.18c.05.05.04.15.03.26 0 .02 0 .05-.01.07-.25-.16-.54-.19-.67-.05-.09.09-.27.15-.43.14l.03-.15c.02-.09.03-.17.06-.23l-.19-.1c-.04.09-.06.18-.08.28-.02.08-.03.16-.06.22-.09.14-.22.25-.38.33-.01-.15-.03-.28-.1-.35l-.12-.12-.06.17c-.05.15-.19.35-.37.49-.01-.12-.03-.26-.08-.36l-.21.05c0 .1-.16.21-.31.3-.02.01-.04.03-.06.04.01-.1.01-.19.01-.27v-.36l-.2.3c-.12.18-.27.31-.44.39.03-.1.03-.2-.02-.31l-.13-.26-.07.28c-.04.17-.29.3-.57.3-.02 0-.03 0-.05-.01.02-.04.05-.09.08-.13.03-.05.07-.1.09-.16l-.19-.1c-.02.04-.05.09-.08.13a.94.94 0 00-.12.22l-.03-.01v.13c0 .03-.08.13-.23.13.02.06.01.14-.03.21h.02c.2 0 .36-.1.42-.22.21.02.45-.02.64-.13-.01.01-.01.02-.02.03l-.1.2.22-.04c.22-.04.41-.14.58-.3-.01.07-.03.15-.05.23l.1.03.1.03c.02-.06.15-.14.25-.2.09-.06.18-.12.26-.19.01.07.01.15.01.21v.17l.16-.08c.21-.1.38-.27.49-.44v.28l.14-.05c.24-.08.44-.22.59-.41.24.05.53-.04.68-.19.02-.02.05-.03.09-.03.14 0 .34.1.48.24l.18-.11a.738.738 0 01-.01-.26c.01-.06.01-.12.01-.18.2.07.45.17.54.26l.17-.13c-.09-.18-.04-.41.01-.56.22.14.56.14.76.14h.17l-.08-.16c-.04-.08-.08-.17-.11-.24.09.01.18.02.28.02.91 0 2.12-.64 3.29-1.26.16-.08.31-.17.47-.25.18-.09.46-.13.72-.1-.2.2-.48.54-.4.85.05.2.23.35.54.44-.45.34-.88.56-1.13.56h-.02c-.15.03-.27.04-.36.04-.13 0-.19-.03-.26-.14l-.01-.02c-.18-.18-.36-.22-.47-.22-.04 0-.07 0-.11.01.05.06.02.17-.04.24h.01c.13-.07.3-.03.45.12.11.16.24.23.43.23.1 0 .22-.02.38-.04.4-.01 1-.39 1.43-.75l.18-.15-.23-.04c-.24-.04-.54-.13-.59-.33-.05-.21.18-.52.44-.74.03.01.07.03.1.04.09.04.21.09.24.12l.11.11.07-.13c.05-.1.29-.29.48-.37.2.18.46.4.89.6-.02.08-.06.15-.12.24-.08.11-.16.24-.16.42 0 .4.17.68.51.84-.14.14-.36.11-.46-.04l-.2-.3v.36c0 .07-.05.13-.11.21-.04.05-.08.1-.11.17-.02-.04-.05-.07-.07-.12 0-.13 0-.24.06-.36l-.19-.1c-.08.16-.08.31-.08.46-.15.33-.48.56-.73.6.07-.1.11-.23.15-.4l-.21-.05c-.06.23-.11.35-.19.41h-.01l-.05.04c-.13.1-.28.16-.42.16-.11 0-.21-.04-.28-.1.17-.09.31-.22.49-.4l-.15-.15c-.18.18-.3.3-.45.37l-.01-.02-.1.07c-.17.11-.41.12-.51.01l-.18-.18v.26c0 .06-.01.07-.05.11-.05.05-.12.12-.16.29v.03c0 .01-.05.04-.11.06.02.08.01.16-.02.22.17-.02.33-.11.34-.26.03-.11.07-.14.1-.18.02-.03.05-.05.07-.09.16.07.37.05.54-.03.11.14.29.22.49.22.17 0 .35-.06.5-.17.3.09.8-.12 1.07-.55 0 .01.01.01.01.02.03.05.07.1.1.17l.21-.05c0-.12.07-.21.14-.31.03-.05.07-.09.09-.14.08.06.18.09.28.09.11 0 .32-.04.48-.31l.07-.12-.13-.04c-.35-.12-.5-.33-.5-.69 0-.11.06-.2.13-.3.05-.07.1-.15.13-.24.02.01.04.02.06.04l.02.02.02.01c.77.26 2.24.52 3.35.52.13 0 .26 0 .37-.01.86-.07 1.04.53 1.04.69 0 .12-.06.21-.16.26-.05.02-.09.05-.12.07h-.01c-.06 0-.13-.03-.2-.07a.397.397 0 00-.2-.04c-.2 0-.52.08-.6.32-.02.06-.02.13-.01.2.05-.06.13-.1.21-.1 0-.01 0-.02.01-.03.03-.1.24-.17.4-.17.05 0 .09.01.1.02l.06.03c-.13.09-.21.2-.22.33-.01.06 0 .12.03.18h-.01c-.04 0-.07-.01-.1-.01-.02.07-.06.14-.12.19.09.04.2.05.31.03.05-.09.1-.16.19-.2zm-5.85-2.24c-.07.22-.07.29.29.29-.14.22.29.29.22.58.22-.22.22-.51.14-.72-.07-.22-.43-.36-.22-.58-.22.14-.43 0-.65.22-.14.14.07.21.22.21z"/><path fill="#CF142B" d="M127.73 104.89c1.73-1.37 3.25-1.01 4.26 0 .79.87 1.81 1.44 2.53 1.44.65 0 1.66-.58 2.53-1.44.94-1.01 2.53-1.37 4.19 0 1.66 1.37 2.67.79 3.54 0 .85-.78 1.56-1.07 3.14-1.08v-9.28h-26.86v9.28c1.58.01 2.29.31 3.14 1.08.86.8 1.87 1.38 3.53 0zm-4.05-.65c.12.06.24-.03.32-.19a.434.434 0 01-.19-.26.244.244 0 010-.12.67.67 0 01-.27-.16h-.07c-.22-.07-.43.07-.51.29 0-.31.16-.73.48-.79l.03-.09c0-.01.01-.01.01-.02a.557.557 0 01-.19-.35c-.01-.08.01-.16.04-.24-.01-.01-.01-.02-.02-.03-.07-.14-.36-.22-.51-.14.32-.25.69-.28.87-.09.06-.01.11-.01.18-.01.01-.11.04-.19.08-.25a.18.18 0 01-.05-.07c0-.14-.22-.29-.36-.29.25-.13.67-.09.77.16.19.01.37.15.48.37.13.19.52.51.82.45h.02c.05 0 .1-.01.15-.03.05-.02.12-.04.2-.04.42-.14 1.24-.48 1.73-.89.03-.1.05-.19.05-.26-.21.11-.42.23-.52.39l-.2.3v-.47c-.11-.01-.23-.02-.34-.04-.11-.02-.22-.03-.28-.03h-.26l.18-.18c.01-.02.04-.09.06-.14l.06-.15c-.29.01-.57-.05-.8-.1l-.19-.05.13-.13c.08-.08.1-.19.13-.33 0-.02.01-.03.01-.05-.06 0-.12-.01-.19-.02-.15-.02-.32-.03-.43-.01l-.19.05.08-.25c.04-.11.08-.24.14-.34-.22-.01-.47-.07-.75-.18l.04-.21c.11 0 .2-.08.3-.17l.01-.01c-.23-.06-.38-.17-.51-.27-.07-.05-.14-.1-.21-.14l.08-.2c.08.03.15-.01.24-.06.01-.01.02-.01.04-.02a1.06 1.06 0 01-.27-.33c-.04.04-.08.07-.14.1-.05.03-.11.04-.18.04-.14 0-.29-.05-.43-.14-.01 0-.01.01-.02.01-.14.07-.51.07-.72-.29.14.07.34.13.48-.1a.728.728 0 01.04-.39.56.56 0 01.1-.15.503.503 0 01-.16-.22.647.647 0 01-.01-.24c-.01-.02-.02-.04-.03-.05-.07-.14-.29-.14-.51-.07.22-.36.65-.43.87-.36.02.01.04.03.06.04.04-.02.09-.03.13-.03.08 0 .15.03.2.08v-.24l.01-.03c.05-.13.12-.21.2-.25.04-.14.01-.3-.17-.36.51 0 .65.07.72.29.01.01.01.02.01.03.15.1.24.29.24.47 0 .08.01.15.03.22.04-.09.13-.15.26-.17 0-.14.01-.3-.18-.41.36-.07.58.07.65.29.08.11.11.2.1.28.06.06.1.15.12.25.03.17-.02.4-.22.56-.1.11 0 .28.08.35l.01.02c.47.74 1.25 1.33 1.9 1.45.03-.25.16-.51.36-.72.01-.16.08-.35.15-.49.06-.36.22-.58.44-.62 0-.01 0-.01-.01-.02-.25-.26-.44-.64-.28-.97.08-.16.25-.26.46-.26.09 0 .18.02.25.05.03-.22.17-.41.29-.57.07-.09.15-.2.15-.25l.21-.03c.01.04.03.08.05.13.03.09.07.18.09.27.22-.24.57-.45.8-.54l.32-.13-.19.29c-.04.06.04.2.1.32.03.05.05.09.08.14.26-.26.71-.41 1.1-.41h.26l-.18.18c-.08.08-.11.25-.11.39.19-.02.42-.09.52-.23l.2-.3v.36c0 .2-.06.39-.14.55.09-.01.2-.01.32-.01h.26l-.18.18c-.09.09-.12.17-.15.26-.01.01-.01.03-.01.04.28-.03.49.08.55.3.16.26-.05.64-.23.9l-.02.02-.03.01a.99.99 0 00-.17.11c-.04.03-.08.06-.11.08.01.08-.01.18-.02.27-.01.09-.03.22-.01.26.04.08.07.15.1.22.06.14.09.22.2.3h.47c.78 0 1.66-.16 2.51-.32.86-.16 1.74-.33 2.55-.33.88 0 1.55.16 2.15.31.44.11.81.2 1.17.2.47 0 .83-.33.83-.61 0-.29-.63-.47-1.7-.47-.9 0-1.58.12-2.23.23-.61.1-1.18.2-1.88.2-2.51 0-2.64-1.05-2.64-1.26 0-.36.34-.97 1.63-.97.33 0 .58-.06.71-.17.11-.2.36-.48.76-.68.26-.15.63-.15.99-.16.38-.01.78-.02 1.02-.19l.17-.12v.21c0 .2-.16.44-.37.64.1-.01.19-.02.28-.02.52 0 .86.2.95.58l.06.25-.22-.13a.806.806 0 00-.43-.1c-.28 0-.55.08-.63.11-.15.04-.25.07-.36.11-.02.01-.05.01-.07.02l.11.11c.12.13.25.27.43.27h.3l-.23.19c-.24.2-.57.31-.95.31-.32 0-.68-.07-1.03-.22l-.09-.03c-.25-.09-.73-.25-1.02-.25-.65 0-1.05.12-1.05.32 0 .32.53.47 1.63.47.58 0 1.03-.07 1.55-.15.6-.09 1.27-.2 2.27-.21-.01-.06-.01-.12-.01-.17 0-.12.01-.2-.12-.29l-.26-.19h.32c.59 0 1.3.14 1.71.53.03-.15.08-.29.12-.42.08-.23.15-.43.09-.62l-.06-.17.18.03c.39.07.72.38.87.71.02-.02.04-.03.05-.04.07-.05.1-.08.1-.13v-.17l.16.08c.36.18.6.56.64.96.04-.03.08-.05.11-.07.1-.07.18-.11.25-.31l.08-.25.12.23c.12.24.11.8-.12 1.21.08-.01.15-.02.23-.02.37 0 .71.16.95.45l.19.23-.29-.05c-.05-.01-.1-.01-.15-.01-.2 0-.34.07-.47.14-.06.03-.12.06-.18.08-.77.44-2.01.74-3.1.74-.12 0-.24 0-.35-.01-.61-.04-.95-.12-1.22-.18-.07-.02-.13-.03-.19-.04.04.03.09.05.13.08.41.26.91.58 1.37.58.49 0 .85 0 1.05-.07.23-.08.62-.01.95.15l.03.02c.17.17.49.34.74.34.03 0 .07 0 .1-.01l.17-.04-.04.17c-.06.23-.17.4-.33.5.09.09.12.17.15.25.03.09.06.17.22.3l.24.19h-.31c-.03 0-.08.02-.13.03-.05.02-.1.04-.16.05.03.06.06.11.08.17.05.12.1.21.19.28l.3.2h-.36c-.01 0-.04.01-.07.01-.05.01-.11.02-.18.02.03.11.03.22.03.31 0 .15.01.22.06.25l.03.03c.09.12.11.26.04.39-.04.08-.1.14-.18.18 0 .02-.01.05-.02.07-.07.07.07.29.14.29-.29.07-.43 0-.51-.14-.03-.04-.04-.09-.05-.13-.01.03-.03.06-.05.08-.05.08-.13.13-.22.15l-.04.04c-.07.07-.14.22-.14.36-.19-.13-.33-.37-.3-.58a.47.47 0 01-.1-.16c-.05.02-.11.02-.16.03-.04.04-.09.07-.15.07-.14.07-.22.29-.22.43-.15-.21-.2-.52-.1-.74-.11.01-.22 0-.31-.03-.03.02-.05.04-.09.05-.14 0-.29.22-.29.36-.14-.29-.07-.65 0-.79.01-.02.02-.03.03-.05a.444.444 0 01.01-.2c.08-.23.4-.32.6-.32.08 0 .15.01.2.04.07.04.14.07.2.07h.01c.04-.02.08-.05.12-.07.1-.05.16-.15.16-.26 0-.15-.18-.75-1.04-.69-.11.01-.24.01-.37.01-1.12 0-2.58-.27-3.35-.52l-.02-.01-.02-.02c-.02-.02-.04-.03-.06-.04a.92.92 0 01-.13.24c-.07.1-.13.19-.13.3 0 .36.15.58.5.69l.13.04-.07.12c-.16.27-.37.31-.48.31-.1 0-.2-.03-.28-.09-.03.05-.06.09-.09.14-.07.1-.14.19-.14.31l-.21.05c-.03-.07-.07-.12-.1-.17 0-.01-.01-.01-.01-.02-.28.43-.77.64-1.07.55-.16.11-.33.17-.5.17-.2 0-.38-.08-.49-.22a.73.73 0 01-.54.03c-.02.04-.05.07-.07.09-.04.04-.08.08-.1.18-.01.15-.17.24-.34.26-.01.03-.03.06-.05.08-.14.07-.29.14-.43.29.07-.07.07-.29.07-.51 0-.03 0-.05.01-.08a.578.578 0 01-.05-.14c-.01-.03-.01-.06-.01-.09-.14.03-.27.01-.38-.06h-.01c-.14-.07-.29 0-.36.14 0-.19.12-.37.26-.48.01-.06.02-.12.04-.17-.07 0-.14-.01-.21-.05l-.03-.02a.567.567 0 01-.1-.13c-.01 0-.03-.01-.04-.01-.14 0-.43.14-.51.22.06-.22.28-.49.52-.53.01-.03.02-.06.04-.09l.02-.03c.06-.06.21-.17.36-.17.02 0 .05 0 .07.01-.07-.14-.22-.27-.42-.2.29-.22.65-.07.79 0 .04-.01.07-.01.11-.01.11 0 .29.04.47.22l.01.02c.07.11.13.14.26.14.09 0 .21-.02.36-.04h.02c.25 0 .68-.21 1.13-.56-.31-.09-.49-.24-.54-.44-.08-.32.19-.65.4-.85-.27-.03-.54.01-.72.1-.15.08-.31.16-.47.25-1.17.62-2.37 1.26-3.29 1.26-.1 0-.19-.01-.28-.02.03.08.07.16.11.24l.08.16h-.17c-.2 0-.54 0-.76-.14-.05.15-.11.38-.01.56l-.17.13c-.09-.09-.34-.19-.54-.26 0 .06 0 .12-.01.18-.01.09-.02.19.01.26l-.18.11c-.14-.14-.35-.24-.48-.24-.04 0-.07.01-.09.03-.16.16-.45.24-.68.19-.15.19-.35.33-.59.41l-.14.05v-.15-.13c-.11.17-.28.34-.49.44l-.16.08v-.17c0-.06 0-.13-.01-.21-.08.07-.17.13-.26.19-.1.06-.23.14-.25.2l-.1-.03-.1-.03c.03-.08.04-.15.05-.23-.16.15-.35.25-.58.3l-.22.04.1-.2c.01-.01.01-.02.02-.03-.19.11-.43.15-.64.13-.06.12-.22.22-.42.22h-.02c-.03.06-.07.12-.14.16-.12-.01-.48.06-.63-.23z"/><path fill="#0B50A0" d="M133.58 110.24l-2.63 1.91c.17.06.35.15.54.26.43.22 2.09 1.16 3.03 1.16.87 0 2.6-.94 3.03-1.16.19-.11.36-.19.54-.26l-2.63-1.91h4.47l.62-1.9c-1.19-.55-2.38-.96-3.57.46-.43.51-1.44 1.23-2.46 1.23-1.08 0-2.02-.72-2.46-1.23-1.24-1.41-2.4-1.01-3.57-.46l.62 1.9h4.47zm11.84-1.59c-.9.78-1.9.76-3.12.4l.38 1.19h4.47l-3.61 2.62.14.43c.58-.02 1.14-.16 1.6-.53 1.09-.88 1.73-.87 2.46-.87.11-1.07.17-2.2.17-3.39v-.89c-.94-.16-1.45.13-2.49 1.04zm-21.74 4.12c.47.38 1.06.52 1.67.53l.14-.43-3.61-2.62h4.47l.39-1.19c-1.24.36-2.29.38-3.19-.4-.98-.91-1.48-1.21-2.49-1.03v.89c0 1.19.06 2.32.17 3.39.75-.02 1.33-.06 2.45.86zm21.88 3.1c-.27.16-.58.29-.93.37l.28.86-1.06-.77c-.57 0-1.21-.13-1.91-.46-.61-.3-1.14-.54-1.66-.66l-2.6 1.89.52-1.6c-.05.03-.1.05-.16.08-.85.48-1.79.84-2.65 1l.5 1.53h4.47l-1.04.76c.77.12 1.6.4 2.34.76 1.45.62 2.24.65 3.57.33.85-1.41 1.49-2.99 1.93-4.76-.83-.14-1.18.39-1.6.67zm-18.19 3.75c.74-.35 1.57-.64 2.34-.76l-1.04-.76h4.47l.5-1.53c-.87-.16-1.8-.52-2.65-1-.05-.03-.11-.05-.16-.08l.52 1.6-2.61-1.89c-.53.12-1.08.36-1.73.66-.65.33-1.27.46-1.83.46l-1.05.77.28-.85c-.35-.08-.67-.21-.93-.38-.42-.28-.78-.84-1.67-.66.44 1.76 1.09 3.34 1.94 4.74 1.35.33 2.15.32 3.62-.32zm10.26 3.83l.49 1.52-1.48-1.07c-.83.34-1.35.42-2.13.42-.78 0-1.3-.09-2.13-.42l-1.48 1.07.49-1.52c-1.26-.63-2.68-.48-3.17-.14-.46.33-.8.24-1.29.38 2.31 1.98 5.06 3.33 7.57 4.41 2.51-1.08 5.26-2.43 7.56-4.41-.48-.14-.82-.05-1.27-.38-.48-.35-1.89-.49-3.16.14z"/><path fill="#073163" d="M143.18 92.46c-.04.01-.09.02-.13.02a.74.74 0 01-.42-.13c-.27-.2-.82-.42-1.31-.42-.05.01-.11.01-.16.01a.96.96 0 01-.52-.14c.03.17.05.38.07.59.06.63.13 1.34.52 1.65.2.14.55.24.89.24.25 0 .85-.05 1.03-.55.15-.29.27-.72.09-1.16a1.09 1.09 0 01-.06-.11zm-6.03-1.73c-.34.03-.68.05-1.04.05-.59 0-1.13-.02-1.63-.07.14.2.24.52.35.87.18.58.39 1.25.82 1.52.31.23 1.03.33 1.63.33.46 0 .77-.06.9-.11-.27-.37-.36-.84-.45-1.3-.06-.3-.11-.61-.22-.87a.925.925 0 00-.36-.42zm-5.92.26c-.53.19-1.06.29-1.6.29-.44 0-.84-.06-1.19-.16-.09.04-.14.09-.16.15.09.08.13.22.16.35.01.06.03.11.05.17.13.32.82 1.17 1.47 1.53.34.2.63.28.96.28.36 0 .77-.1 1.4-.24.09-.02.19-.04.28-.07-.4-.33-.64-.92-.83-1.36-.03-.07-.06-.14-.09-.2-.19-.4-.3-.62-.45-.74zm-2.54 8.39c-.03.03-.06.07-.07.1-.07.17.04.36.27.36.48.09.81.01 1.13-.35.06-.06.11-.13.17-.21.14-.2.29-.46.46-.79.02-.03.03-.06.05-.1-.29-.14-.36-.36-.29-.58a.41.41 0 01-.36.22c-.02.04-.04.08-.05.12-.17.36-.36.69-.57.89-.06.05-.11.1-.17.13-.09.05-.19.08-.28.08-.14.03-.23.07-.29.13zm-5.35-2.61c.06 0 .12-.03.2-.11.09-.09.12-.19.11-.27a.304.304 0 00-.11-.19c-.02-.02-.04-.03-.06-.04-.22-.07-.65 0-.87.36.22-.07.43-.07.51.07.01.02.02.04.03.05.04.08.11.14.19.13zm.8-.83c.07.04.17.07.27.07.06 0 .12-.04.17-.1.05-.07.08-.15.06-.23 0-.01-.01-.02-.01-.03-.07-.22-.22-.29-.72-.29.18.06.21.23.17.36-.01.02-.02.05-.03.07-.04.04 0 .1.09.15zm1.21.58c.09.02.17.02.24 0 .09-.02.14-.08.15-.15.01-.08-.02-.17-.1-.28-.07-.22-.29-.36-.65-.29.19.11.18.27.18.41 0 .08 0 .15.05.21.02.04.06.07.13.1zm-1.76 1.36c.05-.09.06-.2.02-.28-.07-.11-.16-.18-.24-.19-.08-.01-.16.04-.19.19-.01.02-.02.03-.03.04-.14.24-.34.17-.48.1.22.36.58.36.72.29.01 0 .01-.01.02-.01.08-.03.14-.08.18-.14zm-.06 4.55h.08c.05-.05.13-.1.16-.17.01-.03.01-.07-.01-.11a.218.218 0 00-.07-.09c-.18-.19-.56-.16-.87.09.14-.07.43 0 .51.14.01.01.01.02.02.03.05.08.12.11.18.11zm.6-.51c.02.01.05.01.06.01a.44.44 0 00.16-.12c.02-.03.02-.07-.01-.1 0-.05-.01-.09-.02-.13-.1-.25-.52-.29-.77-.16.14 0 .36.14.36.29.01.03.03.05.05.07.04.08.11.12.17.14zm-.39 1.49c.01-.03.02-.06.02-.1.06-.13.02-.2-.09-.26-.02-.01-.03-.02-.05-.03a.484.484 0 00-.17 0c-.32.06-.48.48-.48.79.07-.22.29-.36.51-.29h.07c.1-.01.16-.05.19-.11zm.73.82c.03-.07.04-.15.03-.21a.176.176 0 00-.09-.13c-.05-.05-.2-.06-.29-.02-.04.02-.07.05-.07.09-.01.03-.03.07-.04.1-.08.16-.2.25-.32.19.14.29.51.22.65.14.06-.05.1-.1.13-.16zm9.17-1.85c0-.01.01-.01.01-.01.01-.01.02-.03.04-.04.05-.07.09-.18.04-.24-.14-.07-.51-.22-.79 0 .21-.07.35.06.42.2 0 .01.01.01.01.02-.01.12.19.19.27.07zm-.52.45c.02-.03.03-.06.03-.1.07-.07.07-.14-.06-.14h-.01c-.07-.03-.14-.04-.21-.03-.23.04-.46.31-.52.53.07-.07.36-.22.51-.22.01.01.03.01.04.01.09.04.17.01.22-.05zm.51.61c.01-.02.02-.04.02-.06 0-.14-.07-.21-.21-.22h-.01c-.08 0-.16.04-.24.1-.14.11-.26.29-.26.48.07-.14.22-.22.36-.14h.01c.12-.01.29-.06.33-.16zm.53.43a.239.239 0 00-.07-.13c-.05-.03-.12-.03-.18-.02-.08.02-.15.07-.17.16-.01.02-.01.05-.01.08 0 .22 0 .43-.07.51.14-.14.29-.22.43-.29.02-.02.04-.05.05-.08.02-.07.04-.16.02-.23zm8.15-.51c.02-.1 0-.2-.07-.27a.265.265 0 00-.19-.08c-.08 0-.16.04-.21.1-.01.01-.02.03-.03.05-.07.14-.14.51 0 .79 0-.14.14-.36.29-.36.03-.01.06-.03.09-.05.06-.04.1-.11.12-.18zm.73.09c-.12-.12-.25-.09-.32-.08h-.04c-.08.04-.14.11-.18.2-.09.22-.05.53.1.74 0-.14.07-.36.22-.43.07 0 .12-.03.15-.07.06-.06.09-.15.09-.23a.2.2 0 00-.02-.13zm.74.39a.355.355 0 00-.24-.18.168.168 0 00-.18.02c-.06.04-.11.12-.11.2-.01.02-.01.05-.01.07-.03.21.11.45.3.58 0-.14.07-.29.14-.36.02-.01.03-.03.04-.04.1-.08.11-.19.06-.29zm.55-.22a.29.29 0 00-.14-.03.16.16 0 00-.11.05c-.06.05-.1.15-.08.26.01.04.02.09.05.13.07.14.22.22.51.14-.07 0-.22-.22-.14-.29.01-.02.02-.05.02-.07.01-.08-.03-.15-.11-.19z"/><path fill="#F9D050" d="M130.01 83.92c.03-.02.07-.04.1-.06l.06-.03c.03-.02.07-.03.1-.05.01 0 .01-.01.02-.01-.2-.13-.37-.25-.51-.37l.06-.07c.15.12.34.25.55.4.01-.01.03-.01.04-.01.03-.01.07-.03.11-.04l.11-.03c.03-.01.05-.01.08-.02s.05-.01.08-.02c.02 0 .03-.01.05-.01-.13-.14-.28-.29-.42-.43-1.32-.87-2.52-1.4-3.57-1.59.76.49 2.07 1.48 3.14 2.34 0 .01 0 .01 0 0zm.97-.33c0-.01 0 0 0 0 .03 0 .06-.01.09-.01s.05-.01.08-.01h.32c.03 0 .05.01.08.01s.05.01.08.01c.02 0 .04.01.06.01-.03-.07-.07-.15-.11-.22-.55-.58-1.24-1.17-1.79-1.49l.05-.08c.45.26 1.05.74 1.57 1.26-.28-.5-.61-1-.97-1.46-1.23-.73-2.44-1.27-3.65-1.41 1.3.72 2.99 2.1 4.19 3.39zm6.35-6.26l.03.09c-.29.11-.68.52-.96.82-.04.04-.07.07-.1.11v.01c.3.05.74.32.87.59l-.09.05c-.02-.02-.09-.07-.43-.07-.19 0-.4.02-.55.04.17.09.31.28.44.47.06.09.13.18.19.26.17-.29.34-.57.53-.83.29-.96.61-1.94.93-2.66-.4.39-.77.76-1.11 1.15.04-.01.07-.01.11-.01l.14-.02zm-.72 2.6zm.32-.06l.15.09h-.18c-.07 0-.13 0-.19-.01-.01.02-.02.04-.03.05.13.1.24.26.32.42.36-.65.75-1.3 1.01-1.63l.08.06c-.26.34-.67 1.02-1.03 1.68.09.2.14.41.17.59.07.06.13.13.19.22a.55.55 0 01.07-.09c.51-1.48 1.59-3.52 2.39-4.44-1.32.66-2.31 1.61-3.06 2.96.03.04.06.07.11.1zm.78 2.2c.7-.91 1.69-2.08 2.19-2.63l.07.07c-.5.56-1.53 1.77-2.24 2.7.01.06.01.11.01.16v.1c.05.09.09.22.12.38.12-.13.28-.28.46-.46 1.05-1.5 2.83-3.66 4.23-5.09-2.61 1.1-4.24 3-5.08 4.12.11.2.2.43.24.65zm.76 2.14c.06.01.12.01.17.02.77-.56 2.13-1.35 2.86-1.62l.03.09c-.65.24-1.94.97-2.76 1.55.12.02.24.04.36.07 1.58-1.02 3.59-1.93 4.51-2.3-1.07-.15-2.42.17-3.69.66-.56.58-1.08 1.11-1.48 1.53zm-.6-1.24c.03.28.01.6-.06.85-.01.14-.05.26-.09.38.11-.01.21-.01.31-.01.11 0 .21 0 .31.01 1.23-1.28 3.68-3.77 5.08-5.11-2.56.93-4.81 3.11-5.55 3.88zm2.68-1.73l.06.07c-.62.54-1.98 1.78-2.67 2.66l-.08-.06c.7-.88 2.06-2.13 2.69-2.67zm-7.7-.24c.04-.1.08-.19.13-.28-.25-.63-.49-1.25-.67-1.73l.09-.03c.18.47.41 1.06.65 1.67.04-.06.08-.11.12-.16v-.05c.02-.2.07-.39.15-.56-.01-.01-.01-.02-.02-.03l-.1.08.04-.15c0-.01.01-.03.01-.04-.1-.21-.21-.42-.32-.61l-.21.06-.1.03.04-.09c.04-.09.08-.17.13-.24-.18-.31-.37-.59-.56-.85h-.03l-.12.01.08-.09c-.57-.75-1.19-1.28-1.85-1.59.71 1.06 1.52 2.4 2.19 4.15.12.15.23.32.35.5zm-.91 2.63h.02c.01-.01.03-.02.04-.03.01-.01.02-.02.04-.03-.03-.31-.01-.66.07-.9-.4-.68-.85-1.51-1.28-2.34-1.19-1.03-2.38-1.67-3.56-1.92 1.33.85 3.32 2.81 4.4 4.9.09.11.18.22.27.32zm.22-1.08v-.04c0-.37.09-.72.23-.99-.26-.53-.56-1.05-.73-1.3l.08-.05c.16.24.45.73.71 1.25.1-.16.22-.27.36-.31-1.22-1.92-2.22-2.64-2.92-3.13-.1-.07-.19-.14-.28-.2.14.26.3.58.49.95.61 1.19 1.4 2.73 2.05 3.85 0-.02 0-.03.01-.03zm3.27-3.25c-.03-.02-.07-.03-.11-.04.01.05.02.09.02.14.04-.03.06-.07.09-.1zm-1.37.18c-.17.04-.35.09-.53.18-.12.19-.22.42-.26.69.14-.13.3-.2.45-.2.17 0 .34.12.48.29.08-.18.19-.34.32-.46-.09-.2-.14-.41-.09-.61-.11.05-.24.08-.37.11zm1.6.89c.17-.3.42-.5.66-.5-.21-.08-.35-.19-.5-.31-.09-.07-.19-.15-.29-.2-.05.04-.09.09-.13.15-.02.04-.05.07-.07.11-.02.09-.04.18-.07.27.16.09.3.27.4.48zm-.72.28c-.14-.19-.28-.38-.38-.58-.12.11-.22.27-.29.45.14.19.24.43.31.66.1-.06.2-.09.3-.09.13 0 .26.05.36.14.06-.15.14-.28.23-.4.03-.13.08-.25.13-.36-.09-.21-.22-.39-.37-.49-.06.23-.12.49-.09.79l.02.18-.11-.15c-.03-.05-.07-.1-.11-.15zm-2.01.44c.32 0 .56.54.65 1.02.15.03.28.14.39.3.03-.48.24-.93.52-1.16-.12-.46-.45-1-.77-1-.3 0-.64.39-.79.84-.01 0 0 0 0 0zm2.7-.43c.15-.14.32-.22.47-.22.27 0 .53.27.71.62a.47.47 0 01.16-.04c.05 0 .1.01.15.03-.08-.47-.39-1.09-.8-1.09-.26 0-.53.31-.69.7zm.56 1.44h.03c.06-.44.27-.83.51-1-.16-.32-.39-.57-.62-.57-.28 0-.62.32-.79.77.23.24.39.64.45.96.13-.12.28-.19.42-.16zm-1.31-.91c-.41 0-.82.66-.82 1.32v.06l.06.15c.17-.24.38-.4.61-.4.28 0 .51.21.67.5.07-.18.17-.34.28-.47-.06-.48-.37-1.16-.8-1.16zm-2.62 1.24a.3.3 0 01.08-.04c.02-.01.05-.01.07-.01.15 0 .32.12.48.31.14-.33.36-.57.59-.59-.09-.44-.32-.92-.55-.92-.3.01-.65.55-.67 1.25zm5.24-.12c.02 0 .04 0 .06.01.03.01.06.02.08.04 0-.5-.36-1.25-.67-1.25-.29 0-.59.48-.66 1.01.07.03.13.07.19.14.16.19.26.49.3.79.19-.43.46-.74.7-.74zm-.12 1.69l.03.03c.02.02.04.03.06.05l.15.1c.05-.11.08-.24.1-.38.12-.41.09-1.03-.06-1.28-.04-.06-.08-.1-.12-.11h-.04c-.21 0-.51.36-.68.88 0 .09 0 .17-.01.24-.01.05-.01.1-.02.14.04.01.07.03.11.04.01.01.03.01.04.02.03.02.07.03.1.05.01.01.03.01.04.02.03.02.06.03.09.05.01.01.03.02.04.02.03.02.06.03.08.05.01.01.02.02.04.03 0 .02.03.04.05.05zm-1.27-.53h.01l.15.03c.01 0 .01 0 .02.01.05.01.09.02.14.04.01 0 .02.01.03.01.04.01.09.03.13.04.01 0 .02.01.03.01.02.01.05.02.07.02.01-.04.01-.08.02-.12.05-.36-.05-.92-.28-1.18-.08-.09-.16-.13-.25-.13-.03 0-.04-.01-.06-.01-.24 0-.51.33-.66.74.07.15.12.31.15.46.17.02.33.05.5.08zm-3.99.05c.01-.01.03-.02.05-.02.02-.01.05-.02.07-.03l.06-.03c.03-.01.06-.02.08-.03.02-.01.04-.01.06-.02.03-.01.06-.02.09-.02.02-.01.04-.01.07-.02.03-.01.07-.01.1-.02h.03c.01-.19.05-.37.11-.54-.16-.2-.32-.32-.44-.32-.02 0-.03 0-.05.01-.04.01-.08.05-.12.11-.1.19-.14.58-.11.93zm1.39-1.32c-.31 0-.63.55-.67 1.13.02 0 .04 0 .06-.01.02 0 .04 0 .05-.01.06 0 .12-.01.18-.01.09 0 .17 0 .25.01.03 0 .05.01.08.01.05.01.11.01.16.02.03.01.06.01.09.02l.13.03c.04-.22.11-.42.21-.6-.11-.31-.3-.59-.54-.59zm.77 1.28l.1-.03c.03-.01.05-.01.08-.02.04-.01.09-.02.13-.02.03 0 .05-.01.07-.01.06-.01.11-.01.17-.02.02 0 .03 0 .05-.01.08-.01.16-.01.24-.01.12 0 .25.01.38.02-.1-.47-.39-.97-.78-.97-.35 0-.7.48-.79 1.03.03.01.07.02.09.04h.26zm-.52-4.97l.06.09-.11-.01c-.43-.05-.74.1-.92.45.38-.11.75-.21.99-.21.07 0 .12.01.16.02l.07.03-.06.06c-.18.17-.45.45-.58.69.21-.14.44-.19.64-.24.18-.04.34-.08.45-.17l.15-.11-.07.17c-.18.43.13.86.46 1.32 0 .01.01.01.01.02 0-.28.07-.53.13-.75.07-.27.13-.48.03-.65l-.06-.1.11.02c.28.06.46.2.63.34.21.17.44.34.87.38-.1-.1-.19-.23-.28-.35-.18-.25-.35-.48-.58-.48l-.02-.09c.14-.05.5-.09.78-.09.14 0 .25.01.34.03-.2-.23-.58-.42-.81-.42h-.12l.08-.08.18-.18c.22-.23.51-.53.77-.71-.38.05-.81.13-1.1.32-.06.08-.14.15-.21.21l-.02-.02c-.11.11-.21.25-.25.43l-.09-.02c.08-.32.32-.54.52-.67.18-.22.28-.47.38-.72.13-.32.26-.63.54-.79-.4.05-.89.32-1.28.71-.14.14-.42.64-.42 1.05h-.1c0-.43.28-.95.44-1.11.08-.16.13-.34.18-.52.05-.18.1-.36.18-.49-.5.23-1.02.82-1.2 1.12 0 .23 0 .65-.08.8l-.09-.04c.07-.13.07-.58.07-.77 0-.3-.16-.78-.3-1.03-.04.13-.1.26-.15.38-.18.4-.36.81-.11 1.36l.05.1-.11-.04c-.32-.11-.57-.16-.78-.16-.32 0-.58.11-.81.34.63-.06 1.17.16 1.44.58zm-9.03 25.37v-.13l.03.01a.94.94 0 01.12-.22c.03-.05.06-.09.08-.13l.19.1c-.03.05-.06.11-.09.16s-.06.09-.08.13c.02 0 .03.01.05.01.28 0 .53-.13.57-.3l.07-.28.13.26c.05.11.05.21.02.31.17-.08.32-.21.44-.39l.2-.3v.36c0 .07 0 .17-.01.27.02-.01.04-.03.06-.04.14-.09.31-.19.31-.3l.21-.05c.05.11.07.24.08.36.18-.14.32-.34.37-.49l.06-.17.12.12c.07.07.09.2.1.35.15-.08.28-.19.38-.33.03-.06.04-.14.06-.22.02-.1.04-.19.08-.28l.19.1a.7.7 0 00-.06.23l-.03.15c.15.01.34-.05.43-.14.14-.14.42-.1.67.05 0-.03 0-.05.01-.07.01-.11.02-.21-.03-.26l.11-.18c.15.05.4.13.59.23-.01-.25.09-.49.14-.61l.08-.17.1.15c.08.13.34.16.53.17-.04-.1-.08-.2-.08-.31-.07-.33.1-.75.58-.91l.07.21c-.35.12-.47.38-.44.6.1.02.2.04.32.04.86 0 2.04-.63 3.18-1.24.16-.08.32-.17.47-.25.22-.11.47-.13.65-.13.15 0 .31.02.44.05l.21.05-.03.03c.07.03.14.06.2.09.1-.12.28-.25.43-.33-.23-.2-.41-.31-.83-.28l-.02-.22c.58-.04.81.17 1.11.44.2.18.42.39.81.58v-.09l.19.18c.02.02.05.04.08.05.03.02.07.04.12.07.74.24 2.19.5 3.26.5.13 0 .25 0 .36-.01.05 0 .1-.01.15-.01.85 0 1.12.61 1.12.91 0 .19-.1.36-.26.45-.05.04-.1.07-.15.09-.01.01-.02.01-.03.02-.06.04-.11.08-.19.11-.06.04-.11.1-.11.17 0 .04.01.08.03.12l.07-.02v.07c.08-.01.2-.05.32.08.02.04.03.09.03.13.04-.01.08-.03.11-.06.01-.02.03-.03.05-.05 0-.02.01-.04.01-.06.01-.05.03-.15.01-.18l.16-.15c.09.09.06.25.04.37-.01.03-.01.05-.01.07h-.09l.07.06c-.02.02-.03.05-.05.07v.04c.05-.03.12-.05.18-.02.12.03.2.1.24.18.02-.03.04-.08.02-.14l-.12-.35.12.09c.01-.09.03-.18.07-.32l.21.07c-.06.18-.07.25-.07.41.02.01.05.02.07.03a.16.16 0 01.11-.05c.06 0 .1.01.14.03.04-.02.06-.05.08-.08s.03-.09-.01-.15c-.14-.11-.14-.27-.14-.42 0-.13 0-.27-.09-.39l.13-.16c.04.02.1.02.16.02-.04-.06-.07-.13-.1-.2-.05-.11-.1-.21-.18-.3l.11-.18c.09.03.17.01.26-.03-.08-.1-.11-.18-.14-.25-.03-.09-.06-.16-.21-.25l-.2-.12.22-.07c.15-.05.25-.14.31-.28-.3-.01-.65-.21-.85-.39-.27-.13-.6-.19-.77-.13-.23.08-.6.08-1.12.08-.52 0-1.05-.34-1.48-.61-.25-.16-.48-.31-.63-.33l.02-.21c.36 0 .58.05.84.11.28.07.6.14 1.19.18.11.01.22.01.34.01 1.06 0 2.26-.29 3-.72l.02-.01c.05-.02.1-.04.16-.07.12-.06.26-.13.45-.16a1.054 1.054 0 00-1.17-.01l-.11-.18.06-.03c.3-.21.41-.69.39-1.01-.06.07-.13.11-.19.15-.09.05-.17.1-.25.24l-.2-.07c.06-.37-.11-.76-.41-.97-.04.06-.1.1-.14.14-.07.05-.1.08-.1.13l-.21.02c-.06-.28-.31-.61-.62-.74.01.2-.06.39-.13.57-.07.21-.15.42-.12.63l-.2.07c-.25-.43-.91-.62-1.48-.66.04.1.04.19.04.27 0 .08 0 .15.04.21l.11.17h-.2c-1.06 0-1.77.11-2.39.21-.51.08-.99.15-1.58.15-1.29 0-1.84-.21-1.84-.69 0-.25.22-.54 1.26-.54.34 0 .83.17 1.1.26l.09.03c.6.24 1.19.26 1.58.07-.13-.07-.23-.18-.32-.27-.09-.1-.17-.19-.26-.17l-.03-.1v.11h-.58v-.22h.56c.13-.03.24-.07.34-.1.11-.04.22-.07.37-.11.08-.03.38-.12.69-.12.09 0 .18.01.26.02-.13-.12-.33-.19-.62-.19-.23 0-.5.04-.78.13l-.07-.2c.25-.1.52-.34.65-.55-.26.09-.58.1-.89.1-.35.01-.68.01-.89.14-.48.24-.65.55-.68.6l-.02.03c-.21.21-.59.25-.87.25-1.11 0-1.41.48-1.41.76 0 .11.07 1.05 2.42 1.05.68 0 1.25-.1 1.85-.2.67-.11 1.36-.23 2.27-.23 1.27 0 1.91.23 1.91.69 0 .43-.5.83-1.05.83-.39 0-.77-.09-1.22-.2-.58-.14-1.25-.3-2.1-.3-.78 0-1.66.16-2.51.32-.86.16-1.74.33-2.55.33h-.36v.07c-.34 0-.58-.1-.72-.22-.05.26-.15.4-.37.56l-.03-.04c-.07.27-.2.48-.43.65-.06.17-.16.33-.34.47l-.17.13v-.25c-.03.04-.07.07-.1.11l-.18.18v-.11c-.09.18-.24.35-.46.58l-.17-.14a.52.52 0 00.07-.23c-.23.32-.51.57-.73.68l-.02-.04c-.11.1-.23.19-.34.25l-.13-.17c.09-.09.1-.28.11-.47v-.05c-.2.17-.41.26-.65.34v-.01c-.2.28-.51.52-.92.73l-.1-.19c.06-.03.11-.19.16-.35-.52.36-1.22.64-1.59.77l-.03.01c-.05 0-.1.01-.15.03-.06.02-.12.04-.2.04-.19.05-.37.07-.55.07-.35 0-.66-.1-.97-.31l-.02-.01a.218.218 0 00-.08-.05.374.374 0 01-.1-.06c-.05 0-.11 0-.16.01-.02.07-.11.12-.16.17h-.08c-.01.04-.02.07-.01.11.01.08.05.15.12.21.09-.02.18-.01.26 0 .11.01.17.01.21-.03l.15.15c-.08.08-.17.1-.26.1-.04 0-.09 0-.13-.01-.06-.01-.12-.01-.17-.01-.01.02-.02.05-.03.07 0 0-.01.01-.01.02.11.06.15.13.09.26 0 .04-.01.07-.02.1.05.03.11.06.17.07.03-.03.06-.06.11-.06.15-.08.32-.2.37-.3l.19.1c-.08.16-.3.31-.46.4l-.06.06c-.02.02-.03.05-.02.08.01.04.04.08.09.11.09-.04.24-.03.29.02.05.02.08.07.09.13.14-.05.22-.15.22-.18zm8.31-3.03h.22c0 .16 0 .43-.2.53l-.1-.19c.08-.05.08-.23.08-.34zm-.51.14h.22c0 .18-.16.43-.25.51l-.15-.15c.06-.06.18-.25.18-.36zm-.61.26c.08 0 .11-.09.11-.11h.22c0 .14-.12.32-.32.32l-.01-.21zm-7.73.68c-.02 0-.04 0-.06-.01-.02.05-.04.11-.04.18.01.01.03.02.05.03.04.02.08.04.13.08.26.17.51.26.8.26-.2-.12-.36-.28-.45-.41-.07-.13-.16-.22-.26-.25-.04.05-.09.08-.17.12zm1.16-5.41c-.07-.03-.11-.06-.13-.1-.12.01-.12.06-.12.1 0 .05-.02.11-.04.18-.01.03-.03.09-.03.11l-.1.01.06.06c-.02.02-.04.03-.04.05v.02h-.22c0-.09.01-.12.06-.17-.02-.06-.03-.12-.05-.17-.05-.16-.08-.28-.08-.44a.34.34 0 00-.09-.24.22.22 0 01-.17.1c-.1 0-.2-.03-.27-.07-.02.02-.04.05-.06.09 0 .18 0 .45.06.57l.03.03h.02v.22c-.11 0-.13-.02-.22-.1-.04-.04-.08-.1-.12-.16-.03-.05-.07-.1-.09-.13l-.01-.02c-.03-.04-.05-.04-.07-.04h-.02c.01.08-.01.17-.11.27-.07.07-.14.1-.2.11 0 .02 0 .04.01.05.03.09.1.14.21.16.11.01.34.09.49.25l-.15.15a.741.741 0 00-.34-.18c-.07.02-.13.07-.16.14-.01.02-.01.04-.02.07.08.01.17.08.24.19.04.08.03.19-.02.28.1.05.19.07.25.07.04 0 .07-.01.08-.02.08-.04.13-.11.18-.18.03-.03.05-.07.08-.09l.08.06v-.09h.14v.22h-.07c0 .02 0 .04.01.07.05.15.25.33.38.37l-.03.21c-.07 0-.13.03-.21.07-.02.01-.05.02-.07.04.17.13.34.26.71.26v.22c-.06 0-.13.06-.2.13-.04.04-.08.08-.13.11.26.07.49.09.67.05l.06.21c-.12.04-.19.19-.24.35.11 0 .23.01.33.02.07.01.14.02.19.02.05 0 .06-.01.07-.01l.23-.12-.08.25c-.02.06-.04.13-.05.19-.02.1-.05.19-.09.29.25.05.56.09.81.03l.07.2c-.05.03-.12.19-.15.27-.01.01-.01.03-.02.04.04.01.09.01.14.02.11.01.23.03.32.04.01-.08.03-.16.06-.23-.09-.51-.01-.86.22-1.14.03-.14.1-.37.24-.59-.71-.14-1.52-.75-2.02-1.54-.18-.18-.25-.46-.06-.65l.01-.01c.13-.1.16-.25.14-.36a.262.262 0 00-.06-.13c-.07-.03-.15-.02-.24-.04zm3 3.78l.19.1c-.16.32-.39.53-.57.66 0 .13-.01.28-.07.48l-.02.1c-.03.11-.05.21-.08.31.46-.3.71-.67.76-1.09l.21.02c-.02.16-.06.31-.12.45.19-.08.36-.19.53-.41.01-.03.02-.07.04-.1l.03.01c.06-.09.13-.19.19-.31l.19.11c-.09.15-.17.28-.25.39-.02.1-.03.21-.03.32 0 .08-.01.16-.02.24.22-.2.34-.43.38-.73l.21.03c-.02.13-.05.24-.09.34.18-.19.36-.43.46-.69l.2.08c-.02.07-.03.18-.03.29v.09c.15-.19.22-.35.26-.57l.21.02c0 .01.01.04.02.07.07-.09.13-.2.13-.36h.22c0 .08-.01.15-.03.22h.03v.1c.1-.15.14-.34.14-.6h.22v.12c.18-.24.22-.58.22-1.06h.22c0 .19-.01.35-.03.51.13-.14.17-.32.17-.8h.22v.22c0 .06.08.18.29.26a.906.906 0 01-.11-.22c-.03-.06-.05-.13-.09-.2-.05-.1-.03-.24-.01-.39.01-.05.02-.12.02-.17-.01 0-.03 0-.04-.01a.305.305 0 01-.09-.05.274.274 0 01-.08-.23.55.55 0 01.11-.25h-.09c-.1.25-.3.43-.52.48-.13.03-.26.01-.38-.05-.07.14-.18.27-.31.37-.29.87-.6 1.13-1.06 1.13-.02 0-.05 0-.07-.01-.32.36-.65.44-1.13.35-.22 0-.34-.2-.27-.36h-.13c0-.02-.02-.11-.03-.15-.02-.1-.04-.16-.04-.21v-.05l.01-.02c.09-.17.11-.33.07-.41l-.05-.1.1-.05c.02-.01.07-.07.1-.19.03-.11.02-.2 0-.24l-.05-.1.1-.05c.12-.06.22-.17.23-.2l.22.01c0 .12-.14.26-.27.34.01.08.01.19-.01.29-.01.06-.05.19-.13.27.04.17-.03.37-.09.49.01.03.02.09.03.13.01.04.02.07.02.1.06-.05.15-.1.27-.11.1 0 .19-.03.28-.08-.02-.03-.04-.05-.05-.08-.1-.22-.03-.48.03-.6.03-.11.05-.3.07-.5.01-.13.02-.26.04-.38 0-.09.02-.22.07-.4a.55.55 0 01-.18-.19c-.01-.03-.03-.06-.04-.09l-.28-.19c-.02-.01-.05-.03-.1.02-.06.06-.09.18-.04.26l.02.02v.05c0 .03.08.1.11.14l-.13.17a.301.301 0 00-.12-.03c-.08 0-.15.06-.2.15 0 0 .01 0 .01-.01l.15.15c-.04.04-.1.08-.16.12-.04.03-.09.06-.12.08-.04.08-.07.18-.1.27.03-.01.05-.01.08-.01v.22c-.01 0-.04.02-.06.02-.03.01-.06.03-.1.04-.13.13-.22.29-.27.45.07-.05.15-.1.24-.14l.09.2c-.16.07-.28.16-.37.28v.03h-.02c-.06.08-.1.16-.14.25.11-.08.23-.16.36-.24l.11.19c-.56.34-.85.61-.85 1.12.13-.22.32-.42.58-.64l.14.16c-.46.39-.66.71-.74 1.15.16-.12.35-.22.54-.32.15-.11.37-.3.52-.6zm1.58-.46v-.11h.11c.11 0 .23-.06.28-.11l.03-.03h.05c.23 0 .42-.18.48-.36l.02-.07h.08c.03-.02.1-.19.13-.28.02-.06.04-.12.07-.17l.07-.13.1.1c.02-.01.08-.07.12-.23l.03-.13.12.06c.04.02.1.02.15 0 .06-.03.11-.08.14-.15l.21.07c-.04.13-.14.24-.26.29-.07.03-.14.04-.2.03-.06.15-.14.25-.24.28-.02.01-.04.01-.05.01-.01.02-.01.04-.02.06-.06.17-.12.35-.25.4-.09.22-.31.43-.62.45-.08.06-.19.12-.31.14-.03.1-.1.2-.16.26l-.15-.15c.02-.08.07-.2.07-.23zm3.71 2.54a.2.2 0 00-.02.09c.05.04.07.05.13.02l.1.19c-.06.03-.11.04-.16.04-.03 0-.05-.01-.07-.01v.06l-.26-.26c-.07-.07-.2 0-.27.06v.01c.13.01.13.07.06.14 0 .04-.01.07-.03.1.01.01.01.02.02.03.11.04.29-.01.45.05a.21.21 0 00.06-.04l.15.15c-.02.02-.11.1-.22.1h-.11c-.01.01-.02.02-.03.04.14 0 .21.07.21.22 0 .02-.01.04-.02.06.06-.01.11-.04.17-.08l.06.07v-.09c.03 0 .1-.08.14-.11l.15.15c-.07.07-.14.14-.23.17-.03.04-.04.09-.03.16v.01c.06-.01.12-.01.18.02.04.04.06.08.07.13.06-.01.1-.04.11-.06v-.03c.04-.17.11-.24.16-.29.04-.04.05-.05.05-.11v-.26l.18.18c.1.1.35.1.51-.01l.1-.07.01.02c.15-.07.27-.19.45-.37l.15.15c-.18.18-.32.31-.49.4.07.07.17.1.28.1.14 0 .29-.06.42-.16l.05-.04h.01c.08-.06.13-.18.19-.41l.21.05c-.04.17-.09.3-.15.4.25-.04.58-.27.73-.6 0-.14 0-.3.08-.46l.19.1c-.06.11-.06.23-.06.36.02.04.05.08.07.12a.99.99 0 01.11-.17c.06-.08.11-.15.11-.21v-.36l.2.3c.1.15.32.18.46.04-.34-.16-.51-.44-.51-.84 0-.18.09-.31.16-.42.05-.08.1-.15.12-.24-.43-.2-.69-.42-.89-.6-.2.08-.43.26-.48.37l-.07.13-.11-.11c-.03-.03-.15-.08-.24-.12-.03-.01-.07-.03-.1-.04-.26.22-.5.53-.44.74.05.19.35.28.59.33l.23.04-.18.15c-.43.36-1.03.74-1.43.75-.16.03-.28.04-.38.04-.2 0-.32-.07-.43-.23-.15-.14-.31-.18-.45-.12h-.01c-.01.02-.02.03-.04.04.04.03.03.04.03.04zm2.97-1.46c.22-.22.43-.07.65-.22-.22.22.14.36.22.58.07.22.07.51-.14.72.07-.29-.36-.36-.22-.58-.36 0-.36-.07-.29-.29-.15.01-.36-.06-.22-.21zm5.7 2.44c.03.01.06.01.1.01h.01a.566.566 0 01-.03-.18c.01-.13.09-.25.22-.33l-.06-.03a.215.215 0 00-.1-.02c-.16 0-.36.07-.4.17 0 .01 0 .02-.01.03.07 0 .13.02.19.08.08.07.1.17.08.27zm-11.08-6.42v.01c0 .08-.03.15-.08.23.05.03.16.07.3.08-.01-.02-.02-.03-.03-.05a.363.363 0 01-.02-.27c-.06.01-.11.01-.17 0zm-1.73 1.05v.03c-.02.23-.04.43-.08.56l-.01.01c-.04.08-.1.27-.03.42.01.01.02.03.02.04.21-.2.4-.53.57-.89-.19 0-.36-.09-.47-.17zm1.37.51c-.03.01-.07.01-.1.01-.04 0-.07 0-.11-.01l-.02-.01c-.17.33-.31.58-.46.79.28-.04.48-.23.69-.78zm-.36-1.72l.01-.02c.02-.03.03-.07.05-.11-.09.01-.17.01-.26-.01-.09.02-.17.06-.21.13-.03.03-.05.09-.03.16.01.04.04.07.09.09.08.03.2 0 .3-.05.03-.04.05-.09.05-.14v-.05zm-1.74-.24c-.02-.03-.03-.05-.05-.06h.02v-.22c.14 0 .22.16.31.35l.09.19c-.02-.13-.01-.28.03-.42l-.15-.15c-.05-.05-.16-.09-.28-.09-.09 0-.21.02-.26.14-.07.14-.03.32.07.49.02-.06.05-.11.09-.15.04-.04.08-.07.13-.08zm.46-.27l.19.08c-.08.2-.09.44-.01.59.01.03.03.05.05.07.01-.05.03-.1.05-.15l.21.07c-.08.25-.13.43-.15.56h.01l-.03.15c0 .07 0 .1.01.12.05.05.22.19.43.18.1 0 .2-.05.28-.14-.1-.08-.12-.15-.12-.35 0-.09.03-.16.07-.23-.04 0-.09-.01-.13-.02a.344.344 0 01-.22-.22.373.373 0 01.06-.35c.03-.05.08-.08.12-.11a.625.625 0 01-.26-.42l.21-.04c.02.15.11.26.25.32l.09.03c.02 0 .04-.01.07-.01v.02c.11.01.22 0 .33-.05.03-.03.06-.04.11-.04h.39l-.34.2c-.01.01-.02.01-.03.02-.03.04-.06.12-.09.18-.02.03-.03.07-.05.1-.01.12-.06.21-.12.28h-.01l-.09.09c-.09.09-.15.15-.15.25 0 .15 0 .16.16.26.07.02.12.02.16 0 .05-.03.09-.1.12-.21 0-.14.07-.27.14-.38.04-.07.08-.14.08-.18 0-.24.16-.4.4-.4v.16c.01 0 .03 0 .04-.01.03-.01.07-.01.09-.01.15-.04.27.01.36.05.06.03.1.04.12.03l.1.19c-.06.05-.09.05-.13.05-.07 0-.14-.03-.19-.05-.04-.02-.08-.04-.12-.04-.07.06-.1.14-.07.21.03.06.11.12.2.09l.07.21c-.12.05-.25.07-.37.07-.19 0-.36-.05-.46-.11a.48.48 0 00-.04.15v.03c-.05.18-.12.3-.23.36-.05.03-.11.04-.17.04-.04 0-.08-.01-.13-.02-.02.15.06.27.24.36.21.04.52-.25.58-.5l.05-.19.13.13c.09.09.19.12.3.09.17-.04.32-.2.39-.41l.02-.07h.08c.14 0 .27 0 .47-.07l.09.19c-.15.1-.28.26-.29.36v.02h.08c.01-.01.07-.05.11-.08a.99.99 0 01.17-.11c.21-.32.28-.54.2-.65l-.01-.03c-.03-.1-.11-.16-.25-.16-.1 0-.21.03-.32.08l-.11-.19c.08-.06.11-.13.14-.22l.06-.15c-.13 0-.26.01-.29.04l-.15-.15a.86.86 0 00.21-.38c-.19.1-.43.13-.57.13h-.11v-.11c0-.11 0-.29.06-.46-.37.05-.76.24-.86.5l-.2-.07c.02-.05-.05-.18-.11-.28-.05-.1-.11-.2-.14-.3-.31.16-.63.43-.7.62 0 0 0 .01-.01.03l-.21-.06c0-.01.01-.02.01-.03.03-.1-.01-.24-.06-.38a.55.55 0 01-.07.09c-.13.19-.28.4-.25.62l.06.12zm1.72 15.88l2.63-1.91h-4.47l-.62-1.9-.77-2.36-1 3.07-.39 1.19h-4.47l3.61 2.62-.14.43-.96 2.96-.28.85 1.05-.77 2.56-1.85 1.01.73 2.61 1.89-.52-1.6-.86-2.64 1.01-.71zm4.51-1.91l2.63 1.91.98.71-.86 2.64-.52 1.6 2.6-1.89 1.01-.73 2.55 1.85 1.06.77-.28-.86-.96-2.95-.14-.43 3.61-2.62h-4.47l-.38-1.19-1-3.08-.77 2.36-.62 1.9-4.44.01zm-4.06 13.21l-.49 1.52 1.48-1.07 2.13-1.54 2.13 1.54 1.48 1.07-.49-1.52-.88-2.71 2.57-1.86 1.04-.76h-4.47l-.5-1.53-.89-2.73-.89 2.73-.5 1.53h-4.47l1.04.76 2.57 1.86-.86 2.71z"/><path fill="#024919" d="M132.35 110.6h-3.56l-1.06-3.32-1.09 3.32h-3.53l2.84 2.1-1.11 3.39 2.87-2.1 2.84 2.1-1.08-3.38 2.88-2.11zm7.18 2.1l-1.11 3.39 2.87-2.1 2.84 2.1-1.08-3.38 2.89-2.11h-3.56l-1.06-3.32-1.09 3.32h-3.53l2.83 2.1zm-7.9 11.26l2.87-2.09 2.84 2.09-1.08-3.38 2.89-2.11h-3.56l-1.06-3.32-1.09 3.32h-3.53l2.84 2.1-1.12 3.39z"/><g><path fill="#00247D" d="M96 20H32c-6.6 0-12 5.4-12 12v64h76V20z"/><path fill="#FFF" d="M96 20H79L32.7 43.15V20H32c-6.6 0-12 5.4-12 12v64h12.7V72.85L79 96h17v-8.5L62.4 70.7H96V45.3H62.4L96 28.5V20z"/><path fill="#CC142B" d="M45.4 70.7h11.3L96 90.35V96L45.4 70.7zM96 20H84.69L34.02 45.3H45.4L96 20zM27.6 65.6H96V50.4H27.6V20.85C23.16 22.62 20 26.95 20 32v64h7.6V65.6z"/></g><g><path fill="none" d="M172 160V32c0-6.6-5.4-12-12-12H32c-6.6 0-12 5.4-12 12v128c0 6.6 5.4 12 12 12h128c6.6 0 12-5.4 12-12z" opacity=".4"/><path fill="none" d="M0 0v192h192V0H0z"/><path fill="#DFDFDF" d="M160 20c6.6 0 12 5.4 12 12v128c0 6.6-5.4 12-12 12H32c-6.6 0-12-5.4-12-12V32c0-6.6 5.4-12 12-12h128m0-8H32c-11.03 0-20 8.97-20 20v128c0 11.03 8.97 20 20 20h128c11.03 0 20-8.97 20-20V32c0-11.03-8.97-20-20-20z"/><path fill="#FFF" fill-opacity=".2" d="M160 20H32c-6.6 0-12 5.4-12 12v1c0-6.6 5.4-12 12-12h128c6.6 0 12 5.4 12 12v-1c0-6.6-5.4-12-12-12z"/><path fill="#212121" fill-opacity=".1" d="M160 172H32c-6.6 0-12-5.4-12-12v-1c0 6.6 5.4 12 12 12h128c6.6 0 12-5.4 12-12v1c0 6.6-5.4 12-12 12z"/><radialGradient id="a" cx="23.768" cy="23.933" r="204.625" gradientUnits="userSpaceOnUse"><stop offset="0" stop-color="#fff" stop-opacity=".1"/><stop offset="1" stop-color="#fff" stop-opacity="0"/></radialGradient><path fill="url(#a)" d="M160 172H32c-6.6 0-12-5.4-12-12V32c0-6.6 5.4-12 12-12h128c6.6 0 12 5.4 12 12v128c0 6.6-5.4 12-12 12z"/></g></svg>