<svg xmlns="http://www.w3.org/2000/svg" width="192" height="192"><path fill="#00AFCA" d="M172 160V32c0-6.6-5.4-12-12-12H32c-6.6 0-12 5.4-12 12v128c0 6.6 5.4 12 12 12h128c6.6 0 12-5.4 12-12z"/><path fill="#FEC50C" d="M112.46 104.29c-11.3 0-20.45-9.16-20.45-20.45s9.16-20.45 20.45-20.45 20.45 9.16 20.45 20.45-9.16 20.45-20.45 20.45zm0-43.69c1.22-.02 1.67-.78 1.67-1.69 0-1.22-1.67-7.01-1.67-7.01s-1.67 5.79-1.67 7.01c-.01.91.45 1.69 1.67 1.69zm24.92 21.57c-.91 0-1.69.46-1.69 1.67.02 1.22.78 1.67 1.69 1.67 1.22 0 7.01-1.67 7.01-1.67s-5.79-1.67-7.01-1.67zm-26.6 26.6c0 1.22 1.67 7.01 1.67 7.01s1.67-5.79 1.67-7.01c0-.91-.46-1.69-1.67-1.69-1.21.02-1.67.78-1.67 1.69zM89.21 83.84c-.02-1.22-.78-1.67-1.69-1.67-1.22 0-7.01 1.67-7.01 1.67s5.79 1.67 7.01 1.67c.92 0 1.69-.45 1.69-1.67zm32.14-21.47c1.13.45 1.84-.08 2.19-.92.47-1.12 1.14-7.11 1.14-7.11s-3.76 4.71-4.23 5.83c-.35.84-.22 1.73.9 2.2zm14.78 29.46c-.84-.35-1.73-.22-2.2.9-.45 1.13.08 1.84.92 2.19 1.12.47 7.11 1.14 7.11 1.14s-4.71-3.76-5.83-4.23zm-32.57 13.48c-1.13-.45-1.84.08-2.19.92-.47 1.12-1.14 7.11-1.14 7.11s3.76-4.71 4.23-5.83c.35-.84.23-1.73-.9-2.2zM90.98 74.95c.45-1.13-.08-1.84-.92-2.19-1.12-.47-7.11-1.14-7.11-1.14s4.71 3.76 5.83 4.23c.85.34 1.74.22 2.2-.9zm37.91-7.54c.87.85 1.73.63 2.38-.01.86-.86 3.77-6.14 3.77-6.14s-5.28 2.91-6.14 3.77c-.64.65-.87 1.52-.01 2.38zm2.37 32.87c-.64-.64-1.52-.87-2.38-.01-.85.87-.63 1.73.01 2.38.86.86 6.14 3.77 6.14 3.77s-2.91-5.28-3.77-6.14zm-35.24-.01c-.87-.85-1.73-.63-2.38.01-.86.86-3.77 6.14-3.77 6.14s5.28-2.91 6.14-3.77c.65-.65.87-1.52.01-2.38zm0-32.86c.85-.87.63-1.73-.01-2.38-.86-.86-6.14-3.77-6.14-3.77s2.91 5.28 3.77 6.14c.65.64 1.52.87 2.38.01zm37.91 7.54c.48 1.12 1.36 1.25 2.2.9 1.12-.47 5.83-4.23 5.83-4.23s-5.99.67-7.11 1.14c-.85.34-1.39 1.06-.92 2.19zm-9.25 38.39s-.67-5.99-1.14-7.11c-.35-.84-1.07-1.38-2.19-.92-1.12.48-1.25 1.36-.9 2.2.47 1.12 4.23 5.83 4.23 5.83zm-33.7-20.61c-.48-1.12-1.36-1.25-2.2-.9-1.12.47-5.83 4.23-5.83 4.23s5.99-.67 7.11-1.14c.85-.34 1.39-1.06.92-2.19zm12.58-30.36c1.12-.48 1.25-1.36.9-2.2-.47-1.12-4.23-5.83-4.23-5.83s.67 5.99 1.14 7.11c.35.84 1.07 1.38 2.19.92zm13.43-1.32c1.2.22 1.79-.43 1.97-1.33.24-1.19-.27-7.2-.27-7.2s-2.77 5.35-3.01 6.55c-.18.89.12 1.74 1.31 1.98zm20.24 26.01c-.89-.18-1.74.12-1.98 1.31-.22 1.2.43 1.79 1.33 1.97 1.19.24 7.2-.27 7.2-.27s-5.36-2.77-6.55-3.01zm-31.28 20.9c-.24 1.19.27 7.2.27 7.2s2.77-5.35 3.01-6.55c.18-.89-.12-1.74-1.31-1.98-1.19-.22-1.79.44-1.97 1.33zM89.66 79.31c.22-1.2-.43-1.79-1.33-1.97-1.19-.24-7.2.27-7.2.27s5.35 2.77 6.55 3.01c.89.17 1.74-.12 1.98-1.31zm35.71-14.79c1.02.66 1.82.28 2.33-.47.68-1.01 2.5-6.76 2.5-6.76s-4.61 3.89-5.28 4.9c-.51.75-.56 1.65.45 2.33zm8.74 31.78c-.76-.51-1.66-.56-2.33.45-.66 1.02-.28 1.82.47 2.33 1.01.68 6.76 2.5 6.76 2.5s-3.89-4.61-4.9-5.28zM100 105.5c.51-.76.56-1.66-.45-2.33-1.02-.66-1.82-.28-2.33.47-.68 1.01-2.5 6.76-2.5 6.76s4.6-3.89 5.28-4.9zm-9.2-34.12c.76.51 1.66.56 2.33-.45.66-1.02.28-1.82-.47-2.33-1.01-.68-6.76-2.5-6.76-2.5s3.89 4.61 4.9 5.28zm40.98-.45c.69 1 1.57.96 2.33.45 1.01-.68 4.9-5.28 4.9-5.28s-5.74 1.83-6.76 2.5c-.75.51-1.15 1.32-.47 2.33zm-1.58 39.46s-1.83-5.74-2.5-6.76c-.51-.76-1.32-1.15-2.33-.47-1 .69-.96 1.57-.45 2.33.67 1.02 5.28 4.9 5.28 4.9zM93.13 96.75c-.69-1-1.57-.96-2.33-.45-1.01.68-4.9 5.28-4.9 5.28s5.74-1.83 6.76-2.5c.76-.51 1.15-1.32.47-2.33zm6.41-32.23c1-.69.96-1.57.45-2.33-.68-1.01-5.28-4.9-5.28-4.9s1.83 5.74 2.5 6.76c.51.75 1.32 1.14 2.33.47zm37.04 12.82c-.89.18-1.57.78-1.33 1.97.25 1.19 1.09 1.49 1.98 1.31 1.19-.24 6.55-3.01 6.55-3.01s-6.01-.51-7.2-.27zm-19.59 29.29c-1.19.25-1.49 1.09-1.31 1.98.24 1.19 3.01 6.55 3.01 6.55s.51-6.01.27-7.2c-.18-.89-.78-1.56-1.97-1.33zM89.66 88.37c-.25-1.19-1.09-1.49-1.98-1.31-1.19.24-6.55 3.01-6.55 3.01s6.01.51 7.2.27c.9-.17 1.57-.77 1.33-1.97zm18.26-27.32c1.19-.25 1.49-1.09 1.31-1.98-.24-1.19-3.01-6.55-3.01-6.55s-.51 6.01-.27 7.2c.18.89.78 1.56 1.97 1.33zm5.75 70.75c.72.02 1.45.18 2.17.06.17-.05.44-.06.54-.16-.32-.19-.7-.19-1.06-.24h-2.9c-.81-.08-1.65-.09-2.41-.4-.2-.08-.39-.27-.58-.07-.29.1-.6.17-.9.19-.53.04-1.06-.07-1.56-.27.35-.49.78-.92 1.17-1.38-.31-.05-.62-.12-.93-.19.55-.38 1.06-.81 1.6-1.22-.55.03-1.08.1-1.6.27-.71.1-1.4.34-2.11.46l-.28.05-.48.05c.03.13.05.26.05.4s-.02.27-.05.38c-.03.11-.13.24-.2.32-.1.11-.21.21-.33.27-.12.06-.26.09-.4.1-.14.01-.28 0-.41-.05-.14-.05-.26-.13-.38-.23-.14.04-.29.06-.43.08-.14.02-.27.02-.4 0a7.17 7.17 0 01-.43-.14c-.14-.06-.27-.13-.4-.21-.52.3-1.09.59-1.41 1.12-.18.24-.21.52-.25.81-.03.35.07.73.22 1.06.06.1.1-.35.27-.41.29-.24.65-.41 1.01-.51.31-.16.27.01.14.25-.03.13-.2.61.03.36 1.03-.46 2.17-.55 3.28-.63 1.61-.17 3.23-.2 4.84-.22 1.54.03 3.06.05 4.58.1zm46.14-32.68c.12-1.02-1.49-1.13-1.9-.33-2.12 2.05-4.04 4.46-6.76 5.74 2.6-2.51 4.75-5.49 6.63-8.57.4-.92 1.48-2.02.9-3.04-.95-.78-2.13-.07-2.62.87-1.65 2.15-2.9 4.67-5.02 6.42 1.86-3.54 3.78-7.32 3.83-11.41-.01-.84-.17-2.08-1.32-1.92-.91.16-.69 1.52-1.06 2.2-.82 2.79-1.21 5.82-2.9 8.26.38-2.27 1.04-4.64.53-6.93-.24-1.02-1.89-.58-1.68.43-1.98 10.01-8.69 18.77-17.48 23.83-4.02 2.28-8.52 3.74-13.09 4.41-1.23.27-2.56.11-3.73.53-2.85 2.18-4.57 5.84-8.18 6.98-1.62.8-3.72.97-4.88 2.47-.1.19-.12.41-.12.63.78.72 1.35 0 2.05-.39-.06.06-.1.15-.1.25 0 .2.16.36.36.36.2 0 .36-.16.36-.36 0-.2-.16-.36-.36-.36-.02 0-.05.01-.07.01.01 0 .01-.01.02-.01 2.69-.92 5.04-2.54 7.35-4.16 1.4-1.16 2.62-2.66 4.5-3.04 3.67-1.11 7.57-.98 11.26-2 2.81-3.84 7.57-5.21 11.57-7.42.9-.28 1.24-1.02 1.53-1.83 1.52-2.41 3.6-4.54 6.06-5.99 1.16-.63 2.55-1 3.86-.71-.09 1.57-.99 2.96-2.08 4.04.89-.02 1.65-.58 2.55-.55.31 1.61-1.43 2.45-2.35 3.45.51.12 2.49.27 1.41.78-1.37.95-2.93 1.6-4.2 2.71 1.17.21 1.3.46.11.88-.64.43-1.88.59-2 1.43.88.54-.41 1.08-.9 1.25-.95.22-1.95.63-.69 1.35-.48.72-1.5.87-2.33.8.25.82.62 1.73-.44 2.09-2.37 1.8-5.16 3.1-8.15 3.4 3.73.29 7.57-.41 10.76-2.43.42-.5 2.63-1.03 1.39-1.45-.58-.24-1.83-.51-1.91-.95 1.73-1.06 3.9-.69 5.76-1.32.05-.6-1.41-.43-1.96-.57-1.3-.11-1.22-.44.03-.56 1.58-.42 3.38-.5 4.71-1.53-1.09-.5-2.45-.06-3.61-.47 1.96-.86 4.28-.94 6.04-2.24.8-.89-1.03-.61-1.56-.59-1.09.19-1.59-.33-.35-.78 2.11-1.55 4.78-2.56 6.26-4.82.35-.5.83-2.02-.29-1.48-1.47.49-2.77 2.14-4.44 1.63 3.3-2.53 6.44-5.44 8.7-8.99zm-32.67 29.25c-.83.09-1.67-.05-1.58.93-.16.77-1.79.51-1.34 1.17.51.84-.92 1.35-1.52 1.71-3.67 1.38-7.68.51-11.49.98-2.22.19-4.85 1.03-5.48 3.45 1.62.43 2.98-.94 4.26-1.72.39.21-.24 1.62.36 2.11 1.25-.1 2.06-1.46 2.78-2.39.61.7-.29 1.76.27 2.39 1.44.14 2.04-1.56 3.08-2.24.69-.12-.29 1.53.26 1.97.99.42 2.02-.29 2.34-1.25.47-1.36.89-.35 1.07.5.58.97 1.7.06 2.12-.59.51-1.31 1.01-.16 1.69.39 1.42.22 1.87-1.45 2.74-2.2-.07.83.83 1.89 1.57 1.06.61-.57.68-1.76 1.33-2.12.92.35 1.76 1.52 2.86.86.66-.48.55-1.43.71-2.16-.23-1.37.93.52 1.69.39 1.61.56 3.6-.71 3.33-2.51-3.68-.11-7.34-.89-11.05-.73zm-51.72-25.94c.75.67.47-.64 1.08-.79.64.48 1.32.91 1.89 1.48 3 2.58 4.76 6.3 7.84 8.81 1.44 1.23 3.24 1.83 5.03 2.32 1.96 1.17 3.39 3.03 5.15 4.47 1.67 1.54 4.01 1.74 6.17 1.85 2.61.12 5.59.06 7.65 1.94.68-.86 1-1.97 1.53-2.94-.6-.04-1.21-.06-1.81-.11-6.68-.39-13.23-2.65-18.74-6.44-6.7-4.62-11.84-11.51-14.13-19.34-.4-1.16-.49-2.49-.94-3.57-.55-.45-1.38-.22-1.47.52-.38 2.26.19 4.56.59 6.78-1.78-2.65-2.17-5.9-3.06-8.9-.3-.55-.15-1.71-1.06-1.57-1.07-.03-1.12 1.17-1.17 1.96.05 4.09 2 7.82 3.83 11.37-2.15-1.81-3.42-4.4-5.14-6.57-.44-.75-1.32-1.35-2.19-.91-.88.31-.39 1.35-.1 1.93 1.64 3.21 3.87 6.08 6.22 8.81.19.35 1.61 1.3.71.86-2.54-1.34-4.38-3.63-6.42-5.59-.41-.77-1.99-.62-1.86.38 1.87 2.99 4.45 5.48 7.12 7.76.33.47 1.63 1 1.39 1.33-1.83.29-3.06-1.57-4.77-1.8-.59.13.14 1.15.38 1.53 2.19 2.34 5.28 3.52 8.16 4.78-1.01.43-2.15.09-3.21.09-.42.11-1.88-.42-1.53.24 1.55 1.74 4.13 1.16 6.11 1.98-.48.41-1.15.49-1.76.6-.48.2-1.66.04-1.73.5 1.13.77 2.59.62 3.87.96 1.27.08.71.34-.19.55-.48.21-1.34.23-1.57.63 1.49.93 3.33 1.04 5.03 1.38-.81.35-1.72.45-2.51.86 1.79.66 3.55 1.4 5.3 2.17 3.37 1.5 6.95 2.6 10.66 2.81-1.27-.24-2.52-.62-3.75-1.04-3.09-1.05-6.21-2.13-9.03-3.79.63-.49 1.39-.78 2-1.29-1.22-.04-2.44-.43-3.51-1.02-1.15-.41.2-.93.63-1.37-.09-.43-1.18-.49-1.67-.74-.77.02-1-.93-.39-1.33.88-.44-.4-.7-.78-.86-.67-.36.13-1.18-.2-1.61-1.57-.25-2.86-1.25-4.07-2.23.22-.23 1.37-.18 1.95-.28-1.21-.88-2.28-1.99-3.11-3.23.31-.23 1.42-.04 2.05-.1-.13-1.55-1.05-2.93-1.96-4.14.07-.41 1.08-.38 1.49-.09zm-28.94-33.4c2.45.27 3.76 1.91 3.76 4 0 1.3-.24 2.11-.84 3.36 0 0-4.83 10.05-6.71 13.93-.23.48-.31 1.04-.31 1.84 0 1.25 1.21 2.27 2.48 2.3 1.16.03 2.42-1.08 2.42-2.34 0-1.53-.8-2.22-1.61-2.22-1.01 0-1.41.41-1.41 1.12 0 .49.24.7.58.7.86 0 .62-1.16.62-1.16.43.09.78.53.58 1.08.31.07.61.23.84.5-.23.22-.5.4-.84.46.2.67-.07.99-.65 1.13.12-.26.12-.49.08-.72-.92.26-2.33-.15-2.33-1.74 0-1.58 1.09-2.9 3.14-2.57-.49-.23-.74-.71-.79-1.24.37.15.79.17.79.17-.24-.42-.57-.79-.56-1.62.38.17.73.49 1.22.29-.76-1.5.17-3.57 2.56-4.06-.87 1.03-1.3 2.13-1.3 3.23 0 3.57.99 4.17.99 6.65 0 1.03-.52 2.13-1.56 2.89.68.19 1.12.53 1.37.99-.25.46-.69.8-1.37.99 1.03.76 1.56 1.87 1.56 2.89 0 2.48-.99 3.08-.99 6.65 0 1.1.43 2.21 1.3 3.23-2.39-.49-3.33-2.56-2.56-4.06-.49-.2-.84.12-1.22.29-.01-.83.32-1.19.56-1.62 0 0-.41.02-.79.17.05-.53.3-1.01.79-1.24-2.05.33-3.14-1-3.14-2.57 0-1.59 1.41-2 2.33-1.74.04-.22.04-.46-.08-.72.58.14.85.46.65 1.13.34.06.61.23.84.46-.23.26-.52.43-.84.5.2.55-.15.98-.58 1.08 0 0 .24-1.16-.62-1.16-.34 0-.58.21-.58.7 0 .71.4 1.12 1.41 1.12.82 0 1.61-.68 1.61-2.22 0-1.26-1.26-2.37-2.42-2.34-1.27.03-2.48 1.05-2.48 2.3 0 .81.08 1.36.31 1.84 1.88 3.89 6.71 13.93 6.71 13.93.6 1.24.84 2.06.84 3.36 0 2.09-1.3 3.73-3.76 4 2.45.27 3.76 1.91 3.76 4 0 1.3-.24 2.11-.84 3.36 0 0-4.83 10.05-6.71 13.93-.23.48-.31 1.04-.31 1.84 0 1.25 1.21 2.27 2.48 2.3 1.16.03 2.42-1.08 2.42-2.34 0-1.53-.8-2.22-1.61-2.22-1.01 0-1.41.41-1.41 1.12 0 .49.24.7.58.7.86 0 .62-1.16.62-1.16.43.09.78.53.58 1.08.31.07.61.23.84.5-.23.22-.5.4-.84.46.2.67-.07.99-.65 1.13.12-.26.12-.49.08-.72-.92.26-2.33-.15-2.33-1.74 0-1.58 1.09-2.9 3.14-2.57-.49-.23-.74-.71-.79-1.24.37.15.79.17.79.17-.24-.42-.57-.79-.56-1.62.38.17.73.49 1.22.29-.76-1.5.17-3.57 2.56-4.06-.87 1.03-1.3 2.13-1.3 3.23 0 3.57.99 4.17.99 6.65 0 1.03-.52 2.13-1.56 2.89.68.19 1.12.53 1.37.99-.48.65-.8.84-1.61.89.91.47 1.83 1.49 1.83 3.08 0 2.45-1.01 3.46-1.01 6.23 0 1.53 1.26 3.49 1.26 3.49-2.22-.22-3.33-2.28-2.7-3.93-.35-.05-.68.03-.95.29-.16-.46.09-.99.44-1.44-.28-.15-.48-.06-.92.03.04-.47.32-.97 1.01-1.44-2 .52-3.23-.87-3.23-2.33 0-1.1.77-1.89 1.53-1.89.24 0 .6.1.8.25.14-.3.07-.71-.08-1.01.55.15.9.47.65 1.16.42.04.76.18.99.46-.23.3-.59.47-.99.46.31.64-.04 1-.54 1.29 0 0 .32-1.29-.5-1.29-.37 0-.7.12-.7.66 0 .47.41 1.12 1.36 1.08.95-.04 1.72-.66 1.72-2.17 0-1.4-1.13-2.1-2.62-2.14-1.34-.04-2.36.69-2.36 2.07 0 1.84 2.66 6.05 2.66 7.69 0 1.23-1.11 1.92-2.19 1.92-.68 0-1.3-.32-1.77-.66-.47.33-1.09.66-1.77.66-1.08 0-2.19-.69-2.19-1.92 0-1.64 2.66-5.84 2.66-7.69 0-1.39-1.01-2.11-2.36-2.07-1.49.04-2.62.74-2.62 2.14 0 1.52.77 2.13 1.72 2.17.95.04 1.36-.61 1.36-1.08 0-.54-.33-.66-.7-.66-.82 0-.5 1.29-.5 1.29-.5-.29-.85-.65-.54-1.29-.41.01-.76-.16-.99-.46.23-.27.57-.42.99-.46-.25-.68.1-1.01.65-1.16-.15.3-.22.71-.08 1.01.2-.15.56-.25.8-.25.75 0 1.53.79 1.53 1.89 0 1.46-1.23 2.85-3.23 2.33.69.47.97.97 1.01 1.44-.44-.09-.64-.18-.92-.03.34.46.6.99.44 1.44-.28-.26-.6-.34-.95-.29.63 1.65-.48 3.7-2.7 3.93 0 0 1.26-1.95 1.26-3.49 0-2.77-1.01-3.78-1.01-6.23 0-1.59.92-2.61 1.83-3.08-.81-.05-1.13-.24-1.61-.89.25-.46.69-.8 1.37-.99-1.03-.76-1.56-1.87-1.56-2.89 0-2.48.99-3.08.99-6.65 0-1.1-.43-2.21-1.3-3.23 2.39.49 3.33 2.56 2.56 4.06.49.2.84-.12 1.22-.29.01.83-.32 1.19-.56 1.62 0 0 .41-.02.79-.17-.05.53-.3 1.01-.79 1.24 2.05-.33 3.14 1 3.14 2.57 0 1.59-1.41 2-2.33 1.74-.04.22-.04.46.08.72-.58-.14-.85-.46-.65-1.13-.34-.06-.61-.23-.84-.46.23-.26.52-.43.84-.5-.2-.55.15-.98.58-1.08 0 0-.24 1.16.62 1.16.34 0 .58-.21.58-.7 0-.71-.4-1.12-1.41-1.12-.82 0-1.61.68-1.61 2.22 0 1.26 1.26 2.37 2.42 2.34 1.27-.03 2.48-1.05 2.48-2.3 0-.81-.08-1.36-.31-1.84-1.88-3.89-6.71-13.93-6.71-13.93-.6-1.24-.84-2.06-.84-3.36 0-2.09 1.3-3.73 3.76-4-2.45-.27-3.76-1.91-3.76-4 0-1.3.24-2.11.84-3.36 0 0 4.83-10.05 6.71-13.93.23-.48.31-1.04.31-1.84 0-1.25-1.21-2.27-2.48-2.3-1.16-.03-2.42 1.08-2.42 2.34 0 1.53.8 2.22 1.61 2.22 1.01 0 1.41-.41 1.41-1.12 0-.49-.24-.7-.58-.7-.86 0-.62 1.16-.62 1.16a.791.791 0 01-.58-1.08c-.31-.07-.61-.23-.84-.5.23-.22.5-.4.84-.46-.2-.67.07-.99.65-1.13-.12.26-.12.49-.08.72.92-.26 2.33.15 2.33 1.74 0 1.58-1.09 2.9-3.14 2.57.49.23.74.71.79 1.24-.37-.15-.79-.17-.79-.17.24.42.57.79.56 1.62-.38-.17-.73-.49-1.22-.29.76 1.5-.17 3.57-2.56 4.06.87-1.03 1.3-2.13 1.3-3.23 0-3.57-.99-4.17-.99-6.65 0-1.03.52-2.13 1.56-2.89-.68-.19-1.12-.53-1.37-.99.25-.46.69-.8 1.37-.99-1.03-.76-1.56-1.87-1.56-2.89 0-2.48.99-3.08.99-6.65 0-1.1-.43-2.21-1.3-3.23 2.39.49 3.33 2.56 2.56 4.06.49.2.84-.12 1.22-.29.01.83-.32 1.19-.56 1.62 0 0 .41-.02.79-.17-.05.53-.3 1.01-.79 1.24 2.05-.33 3.14 1 3.14 2.57 0 1.59-1.41 2-2.33 1.74-.04.22-.04.46.08.72-.58-.14-.85-.46-.65-1.13-.34-.06-.61-.23-.84-.46.23-.26.52-.43.84-.5-.2-.55.15-.98.58-1.08 0 0-.24 1.16.62 1.16.34 0 .58-.21.58-.7 0-.71-.4-1.12-1.41-1.12-.82 0-1.61.68-1.61 2.22 0 1.26 1.26 2.37 2.42 2.34 1.27-.03 2.48-1.05 2.48-2.3 0-.81-.08-1.36-.31-1.84-1.88-3.89-6.71-13.93-6.71-13.93-.6-1.24-.84-2.06-.84-3.36 0-2.09 1.3-3.73 3.76-4-2.45-.27-3.76-1.91-3.76-4 0-1.3.24-2.11.84-3.36 0 0 4.83-10.05 6.71-13.93.23-.48.31-1.04.31-1.84 0-1.25-1.21-2.27-2.48-2.3-1.16-.03-2.42 1.08-2.42 2.34 0 1.53.8 2.22 1.61 2.22 1.01 0 1.41-.41 1.41-1.12 0-.49-.24-.7-.58-.7-.86 0-.62 1.16-.62 1.16a.791.791 0 01-.58-1.08c-.31-.07-.61-.23-.84-.5.23-.22.5-.4.84-.46-.2-.67.07-.99.65-1.13-.12.26-.12.49-.08.72.92-.26 2.33.15 2.33 1.74 0 1.58-1.09 2.9-3.14 2.57.49.23.74.71.79 1.24-.37-.15-.79-.17-.79-.17.24.42.57.79.56 1.62-.38-.17-.73-.49-1.22-.29.76 1.5-.17 3.57-2.56 4.06.87-1.03 1.3-2.13 1.3-3.23 0-3.57-.99-4.17-.99-6.65 0-1.03.52-2.13 1.56-2.89-.68-.19-1.12-.53-1.37-.99.48-.65.8-.84 1.61-.89-.84-.48-1.77-1.5-1.77-3.09 0-2.45 1.01-3.46 1.01-6.23 0-1.53-1.26-3.49-1.26-3.49 2.22.22 3.33 2.28 2.7 3.93.35.05.68-.03.95-.29.16.46-.09.99-.44 1.44.28.15.48.06.92-.03-.04.47-.32.97-1.01 1.44 2-.52 3.23.87 3.23 2.33 0 1.1-.77 1.89-1.53 1.89-.24 0-.6-.1-.8-.25-.14.3-.07.71.08 1.01-.55-.15-.9-.47-.65-1.16-.42-.04-.76-.18-.99-.46.23-.3.59-.47.99-.46-.31-.64.04-1 .54-1.29 0 0-.32 1.29.5 1.29.37 0 .7-.12.7-.66 0-.47-.41-1.12-1.36-1.08s-1.72.66-1.72 2.17c0 1.4 1.13 2.1 2.62 2.14 1.34.04 2.36-.69 2.36-2.07 0-1.84-2.66-6.05-2.66-7.69 0-1.23 1.11-1.92 2.19-1.92.68 0 1.3.32 1.77.66.47-.33 1.09-.66 1.77-.66 1.08 0 2.19.69 2.19 1.92 0 1.64-2.66 5.84-2.66 7.69 0 1.39 1.01 2.11 2.36 2.07 1.49-.04 2.62-.74 2.62-2.14 0-1.52-.77-2.13-1.72-2.17-.95-.04-1.36.61-1.36 1.08 0 .54.33.66.7.66.82 0 .5-1.29.5-1.29.5.29.85.65.54 1.29.41-.01.76.16.99.46-.23.27-.57.42-.99.46.25.68-.1 1.01-.65 1.16.15-.3.22-.71.08-1.01-.2.15-.56.25-.8.25-.75 0-1.53-.79-1.53-1.89 0-1.46 1.23-2.85 3.23-2.33-.69-.47-.97-.97-1.01-1.44.44.09.64.18.92.03-.34-.46-.6-.99-.44-1.44.28.26.6.34.95.29-.63-1.65.47-3.7 2.7-3.93 0 0-1.26 1.95-1.26 3.49 0 2.77 1.01 3.78 1.01 6.23 0 1.59-.92 2.61-1.83 3.08.81.05 1.13.24 1.61.89-.25.46-.69.8-1.37.99 1.03.76 1.56 1.87 1.56 2.89 0 2.48-.99 3.08-.99 6.65 0 1.1.43 2.21 1.3 3.23-2.39-.49-3.33-2.56-2.56-4.06-.49-.2-.84.12-1.22.29-.01-.83.32-1.19.56-1.62 0 0-.41.02-.79.17.05-.53.3-1.01.79-1.24-2.05.33-3.14-1-3.14-2.57 0-1.59 1.41-2 2.33-1.74.04-.22.04-.46-.08-.72.58.14.85.46.65 1.13.34.06.61.23.84.46-.23.26-.52.43-.84.5.2.55-.15.98-.58 1.08 0 0 .24-1.16-.62-1.16-.34 0-.58.21-.58.7 0 .71.4 1.12 1.41 1.12.82 0 1.61-.68 1.61-2.22 0-1.26-1.26-2.37-2.42-2.34-1.27.03-2.48 1.05-2.48 2.3 0 .81.08 1.36.31 1.84 1.88 3.89 6.71 13.93 6.71 13.93.6 1.24.84 2.06.84 3.36-.06 2.1-1.36 3.74-3.82 4.01zm-5.36-32.69c.88-2.17 2.56-5.13 1.96-5.87-.49-.61-1.93.59-1.95.61-.02-.02-1.46-1.22-1.95-.61-.61.74 1.06 3.7 1.94 5.87zm0 7.58c.3-.56 1.3-1.66 2.73-1.82.08-.03.18-.06.27-.08-1.3-.3-2.4-.78-3-1.8-.6 1.01-1.7 1.5-3 1.8.09.03.19.05.27.08 1.43.16 2.43 1.26 2.73 1.82zm-4.03 25.11c1.6.2 3.34 1.2 4.03 2.96.69-1.76 2.43-2.76 4.03-2.96-1.6-.2-3.34-1.2-4.03-2.96-.69 1.76-2.43 2.75-4.03 2.96zm0 53.94c1.6.2 3.34 1.2 4.03 2.96.69-1.76 2.43-2.76 4.03-2.96-1.6-.2-3.34-1.2-4.03-2.96-.69 1.76-2.43 2.76-4.03 2.96zm4.03 32.69c-.88 2.17-2.56 5.13-1.96 5.87.49.61 1.93-.59 1.95-.61.02.02 1.46 1.22 1.95.61.62-.74-1.06-3.7-1.94-5.87zm0-7.58c-.3.56-1.3 1.66-2.73 1.82-.08.03-.18.06-.27.08 1.3.3 2.4.78 3 1.8.6-1.01 1.7-1.5 3-1.8-.09-.03-.19-.05-.27-.08-1.43-.16-2.43-1.26-2.73-1.82zm4.67-23.37c-1.14 0-2.3.87-2.3 1.95 0 .69.37 1.1.91 1.1 1.29 0 1.21-1.09.95-1.78.8.36 1.27 1 1.14 1.68.45.06.88.28 1.28.73-.31.4-.69.69-1.28.7.26 1.05-.45 1.49-1.14 1.74.22-.77.36-1.66-.95-1.66-.96 0-1.71-.17-2.15-.79-.03.83-.1 4.1-.1 4.1-.06 1.23 1.65 1.2 2.73.83-.41 1.42-1.25 2.18-3.18 1.99.47.2.97.64.97 1.49 0 1.15-.94 2.43-1.55 2.81-.61-.38-1.55-1.66-1.55-2.81 0-.85.5-1.3.97-1.49-1.94.19-2.78-.57-3.18-1.99 1.08.37 2.78.4 2.73-.83l-.1-4.1c-.44.62-1.19.79-2.15.79-1.31 0-1.17.89-.95 1.66-.69-.25-1.39-.69-1.14-1.74-.59-.01-.97-.31-1.28-.7.4-.45.83-.66 1.28-.73-.13-.68.34-1.32 1.14-1.68-.26.69-.33 1.78.95 1.78.54 0 .91-.41.91-1.1 0-1.08-1.16-1.95-2.3-1.95-.95 0-2.63.64-2.63 2.47 0 .73.18 1.4.48 2.03 1.4 2.99 5.87 12.48 6.82 14.47.95-1.99 5.43-11.48 6.82-14.47.3-.63.48-1.3.48-2.03 0-1.83-1.67-2.47-2.63-2.47zm-4.67-22.44s0-.01 0 0c0-.01 0 0 0 0-.95 1.99-5.43 11.48-6.83 14.47-.3.63-.48 1.3-.48 2.03 0 1.83 1.68 2.47 2.63 2.47 1.14 0 2.3-.87 2.3-1.95 0-.69-.37-1.1-.91-1.1-1.29 0-1.21 1.09-.95 1.78-.8-.36-1.27-1-1.14-1.68-.45-.06-.88-.28-1.28-.73.31-.4.69-.69 1.28-.7-.26-1.05.45-1.49 1.14-1.74-.22.77-.36 1.66.95 1.66.96 0 1.71.17 2.15.79.03-.83.1-4.1.1-4.1.06-1.23-1.65-1.2-2.73-.83.41-1.42 1.25-2.18 3.18-1.99-.47-.2-.97-.64-.97-1.49 0-1.15.94-2.43 1.55-2.81.61.38 1.55 1.66 1.55 2.81 0 .85-.5 1.3-.97 1.49 1.94-.19 2.78.57 3.18 1.99-1.08-.37-2.78-.4-2.73.83l.1 4.1c.44-.62 1.19-.79 2.15-.79 1.31 0 1.17-.89.95-1.66.69.25 1.39.69 1.14 1.74.59.01.97.31 1.28.7-.4.45-.83.66-1.28.73.13.68-.34 1.32-1.14 1.68.26-.69.33-1.78-.95-1.78-.54 0-.91.41-.91 1.1 0 1.08 1.16 1.95 2.3 1.95.95 0 2.63-.64 2.63-2.47 0-.73-.18-1.4-.48-2.03-1.38-2.99-5.86-12.49-6.81-14.47zm0-8.14c-.3.56-1.3 1.66-2.73 1.82-.04.02-.1.03-.15.05.05.02.1.03.15.05 1.43.17 2.43 1.27 2.73 1.82.29-.56 1.3-1.66 2.73-1.82.04-.02.1-.03.15-.05-.05-.02-.1-.03-.15-.05-1.43-.16-2.43-1.26-2.73-1.82zm4.67-23.36c-1.14 0-2.3.87-2.3 1.95 0 .69.37 1.1.91 1.1 1.29 0 1.21-1.09.95-1.78.8.36 1.27 1 1.14 1.68.45.06.88.28 1.28.73-.31.4-.69.69-1.28.7.26 1.05-.45 1.49-1.14 1.74.22-.77.36-1.66-.95-1.66-.96 0-1.71-.17-2.15-.79-.03.83-.1 4.1-.1 4.1-.06 1.23 1.65 1.2 2.73.83-.41 1.42-1.25 2.18-3.18 1.99.47.2.97.64.97 1.49 0 1.15-.94 2.43-1.55 2.81-.61-.38-1.55-1.66-1.55-2.81 0-.85.5-1.3.97-1.49-1.94.19-2.78-.57-3.18-1.99 1.08.37 2.78.4 2.73-.83l-.1-4.1c-.44.62-1.19.79-2.15.79-1.31 0-1.17.89-.95 1.66-.69-.25-1.39-.69-1.14-1.74-.59-.01-.97-.31-1.28-.7.4-.45.83-.66 1.28-.73-.13-.68.34-1.32 1.14-1.68-.26.69-.33 1.78.95 1.78.54 0 .91-.41.91-1.1 0-1.08-1.16-1.95-2.3-1.95-.95 0-2.63.64-2.63 2.47 0 .73.18 1.4.48 2.03 1.4 2.99 5.87 12.48 6.82 14.47.95-1.99 5.43-11.48 6.82-14.47.3-.63.48-1.3.48-2.03 0-1.84-1.67-2.47-2.63-2.47zm2.63-5.95c0-.73-.18-1.4-.48-2.03-1.4-2.99-5.87-12.48-6.82-14.47-.95 1.99-5.43 11.48-6.82 14.47-.3.63-.48 1.3-.48 2.03 0 1.83 1.68 2.47 2.63 2.47 1.14 0 2.3-.87 2.3-1.95 0-.69-.37-1.1-.91-1.1-1.29 0-1.21 1.09-.95 1.78-.8-.36-1.27-1-1.14-1.68-.45-.06-.88-.28-1.28-.73.31-.4.69-.69 1.28-.7-.26-1.05.45-1.49 1.14-1.74-.22.77-.36 1.66.95 1.66.96 0 1.71.17 2.15.79.03-.83.1-4.1.1-4.1.06-1.23-1.65-1.2-2.73-.83.41-1.42 1.25-2.18 3.18-1.99-.47-.2-.97-.64-.97-1.49 0-1.15.94-2.43 1.55-2.81.61.38 1.55 1.66 1.55 2.81 0 .85-.5 1.3-.97 1.49 1.94-.19 2.78.57 3.18 1.99-1.08-.37-2.78-.4-2.73.83l.1 4.1c.44-.62 1.19-.79 2.15-.79 1.31 0 1.17-.89.95-1.66.69.25 1.39.69 1.14 1.74.59.01.97.31 1.28.7-.4.45-.83.66-1.28.73.13.68-.34 1.32-1.14 1.68.26-.69.33-1.78-.95-1.78-.54 0-.91.41-.91 1.1 0 1.08 1.16 1.95 2.3 1.95.96 0 2.63-.64 2.63-2.47z"/><path fill="none" d="M160 20H32c-6.6 0-12 5.4-12 12v128c0 6.6 5.4 12 12 12h128c6.6 0 12-5.4 12-12V32c0-6.6-5.4-12-12-12z"/><path fill="none" d="M0 0v192h192V0H0z"/><path fill="#DFDFDF" d="M160 20c6.6 0 12 5.4 12 12v128c0 6.6-5.4 12-12 12H32c-6.6 0-12-5.4-12-12V32c0-6.6 5.4-12 12-12h128m0-8H32c-11.03 0-20 8.97-20 20v128c0 11.03 8.97 20 20 20h128c11.03 0 20-8.97 20-20V32c0-11.03-8.97-20-20-20z"/><path fill="#FFF" fill-opacity=".2" d="M160 20H32c-6.6 0-12 5.4-12 12v1c0-6.6 5.4-12 12-12h128c6.6 0 12 5.4 12 12v-1c0-6.6-5.4-12-12-12z"/><path fill="#212121" fill-opacity=".1" d="M160 172H32c-6.6 0-12-5.4-12-12v-1c0 6.6 5.4 12 12 12h128c6.6 0 12-5.4 12-12v1c0 6.6-5.4 12-12 12z"/><radialGradient id="a" cx="23.768" cy="23.933" r="204.625" gradientUnits="userSpaceOnUse"><stop offset="0" stop-color="#fff" stop-opacity=".1"/><stop offset="1" stop-color="#fff" stop-opacity="0"/></radialGradient><path fill="url(#a)" d="M160 172H32c-6.6 0-12-5.4-12-12V32c0-6.6 5.4-12 12-12h128c6.6 0 12 5.4 12 12v128c0 6.6-5.4 12-12 12z"/></svg>