<svg xmlns="http://www.w3.org/2000/svg" width="192" height="192"><path fill="#ED1C24" d="M172 160V32c0-6.6-5.4-12-12-12H32c-6.6 0-12 5.4-12 12v128c0 6.6 5.4 12 12 12h128c6.6 0 12-5.4 12-12z"/><path fill="#FFF" d="M20 58h152v76H20z"/><path fill="#00A651" d="M94.96 58c-1.63 3.44-4.7 5.84-7.64 8.11-.48.42-1.68 1.24-.81 1.86.75-.83 2.8.27 1.6 1.17-1.07 1-2.54 1.36-3.72 2.19-1.05.57-2.11 1.16-2.94 2.04-.06 1.36 1.69.61 2.4 1.18.92.99-.39 2.65-1.6 2.27-1.55.05-2.62 1.41-3.21 2.71-1.21 1.87-3.51 2.43-5.34 3.5-1.05.61-2.06 1.28-3.04 2-1.26.86-.16 2.56 1.17 2.14 1.44-.14 2.74-1.28 4.23-.95 1.35.48 1.73 2.25 1.27 3.48-.34.99-1.17 1.69-1.83 2.46-1.08 1.09-2.49 1.8-3.97 2.14a7.829 7.829 0 00-3.67 2.55c-1.09 1.1-2.18 2.22-3.44 3.14-.4 1.01.72 1.88 1.66 1.85 1.97-.12 3.33-1.73 5.01-2.56 1.39-.62 3.03.87 2.69 2.32-.11 1.41-1.43 2.12-2.6 2.56-3.45 1.73-6.44 4.25-9.1 7.02-.55 1.12-2.06.79-2.88 1.57-.53.99.8 1.51 1.59 1.41 3.41-.41 6.6-1.85 9.61-3.44 1.12-.54 2.18-1.24 3.34-1.67 1.1-.27 2.62.21 2.82 1.45 0 1.32-1.31 2.05-2.34 2.56-3.18 1.67-6.68 2.6-10.08 3.7-1.27-.36-2.23 1.91-.84 2.32 1.48.51 3.05.1 4.56.03 4.68-.72 8.76-3.25 13.13-4.88 1.82-.59 3.96.23 4.86 1.94.9 1.52.82 3.51-.13 4.99-1.5 3.21-3.78 6.17-6.85 8.01-1.92.95-4.17 1.32-5.82 2.78-1.52.5.76 2.56 1.1.93.92-1.25 2.53-1.62 4-1.67 2.2-.24 4.54-.65 6.25-2.17 1.53-1.19 3.05-2.84 5.13-2.86 1.15.14 2.29 1.06 3.46.5 1.02-.47 2.63-.19 2.9 1.06.49 1.47 2.01 2.14 3.21 2.93.44.61 1.88 2.19 2.22.8-.27-.99.12-2.51 1.42-2.18 1.14.05 2.22.47 3.35.54 1.51.31 2.77 1.35 3.63 2.6.59.81 1.88 2.21 2.84 1.13.6-1.12-.54-2.05-1.47-2.45-1.35-.84-2.5-1.95-3.69-3.01-1.74-1.63-3.24-3.69-3.52-6.12-.37-2.42-.18-4.89.14-7.3.4-1.55 2.39-2.4 3.78-1.58 1.96.89 3.9 2.17 6.14 2.03 3.24.07 6.57-.55 9.73.39 3.08.97 5.28 3.57 8.28 4.7.67.41 1.53.02 1.78-.7.3-.64.09-1.47-.53-1.84-3.48-3.51-8.23-5.22-12.26-7.96-1.27-.32-1.5-2.36-.33-2.95 1.54-1.12 3.72-.6 5.08.56 1.15.68 2.45 1.18 3.81 1.18 1.39-.43.71-2.44-.53-2.59-2.25-1.27-3.86-3.35-5.81-5.01-1.12-.95-2.35-1.91-3.86-2.1-.82-.15-1.67-.18-2.5-.13-.78-.85.26-2.15 1.27-2.05 1.04.07 2.07.15 3.11 0 1.16-.08 2.32-.21 3.48-.21.94.64 2.82-.47 1.97-1.57-.93-.81-2.27-.74-3.37-1.16-1.94-.64-3.92-1.15-5.93-1.56-1.4-.08-1.23-1.93 0-2.13.81-.3 1.51.32 2.28.41 1.32.28 2.69.28 4.01.57 1.12-.55.25-2.19-.76-2.29-2.39-.86-4.46-2.4-6.48-3.9-2.23-1.68-4.25-3.62-6.51-5.26-.82-.51-2.16-.65-2.38-1.78-.08-1.03 1.14-1.51 2.01-1.26 1.23.36 2.37.99 3.62 1.3.98.17 1.99.46 2.93.33 1.2-.75-.51-1.23-1.13-1.5-1.6-.86-3.02-2.01-4.46-3.11-1.22-1.04 1.03-1.5 1.8-1.1 1.29.54 1.44-1.34.47-1.82-1.14-.48-2.12-1.29-3.15-1.99-1.86-1.33-3.98-2.38-6.27-2.67-2.57-.26-4.97-1.74-6.33-3.93-.8-1.23-1.42-2.62-2.02-4zm-8.44 14.41c1.32.04 1.12 2.43-.18 2.27-1.26-.08-1.19-2.52.18-2.27zm12.5 1.29c1.29-.23 1.56 2.12.27 2.23-1.34.24-1.84-2.38-.27-2.23zm-3.66.31c1.31.26 1.07 2.53-.24 2.55-.96.21-2 .87-2.98.38-.79-.84.35-2.08 1.24-2.35.67-.14 1.3-.45 1.98-.58zm8.42.01c1.26.46.81 2.68-.51 2.65-1.26.17-1.84-1.93-.67-2.42.37-.14.77-.25 1.18-.23zm-14.21 2.52c.93.88.38 2.58-.76 2.99-.82.46-1.94 1.54-2.84.65-.49-1.09.73-1.91 1.45-2.51.64-.5 1.35-.96 2.15-1.13zm10.58 4.91c1.33.63.65 3.01-.8 2.87-1.19-.3-1.04-2.35.16-2.52.23-.08.43-.21.64-.35zm-4.21.24c1.24.58.29 2.65-.96 2.35-1.29-.15-1.27-2.43.16-2.22.27-.02.55-.02.8-.13zm9.07 1.19c1.36-.42 2.99.98 2.55 2.4-.61 1.1-2.1 1.24-3.18.83-1.23-.06-2.06-1.91-.96-2.7.46-.35 1.03-.49 1.59-.53zm-20.07.35c1.12-.61 2.32 1.23 1.36 2.04-.63.93-2.26 1.31-2.97.28-.6-1.02.36-2.72 1.61-2.32zm-5.19.87c1.27.17 2.1 1.33 2.58 2.43.11 1.34-1.87 2.08-2.73 1.1-.97-.61-1.82-1.86-1.31-3.03.31-.45.94-.64 1.46-.5zm31.01 4.86c1.38-.36 2.39 1.85 1.2 2.65-1.09.99-3.2-.32-2.63-1.73.28-.53.85-.87 1.43-.92zm-17.6 2.52c1.16.15.78 2.16-.29 2.09-1.15-.22-.88-2.21.29-2.09zm-5.88 1.06c.95-.67 2.17.96 1.38 1.73-.95.66-2.17-.94-1.38-1.73zm9.35.2c1.1.67 1.75 1.91 1.88 3.16-.53 1.17-2.55.89-2.78-.36-.4-.98-.03-2.25.9-2.8zm3.27 1.94c1.41-.35.91 2.6-.27 1.57-.4-.46-.19-1.23.27-1.57zm-20.5 2.06c.94-.27 2.3.01 2.56 1.09.11 1.01-1 1.53-1.81 1.78-1.3.4-2.58 1.06-3.98.97-1.05-.6-1.43-1.83-1.8-2.9 1.01-.95 2.51-.67 3.76-.91.42-.02.84-.03 1.27-.03zm31.79 4.62c1.19-.59 2.48 1.31 1.48 2.19-1.25 1.44-3.66 1.71-5.15.5-.18-1.27 1.09-2.2 2.22-2.38.48-.13.95-.33 1.45-.31zm6.71 1.46c1.36-.23 2.42 1.7 1.46 2.7-.92 1.38-3.1 1.74-4.35.61-.49-1.15.5-2.34 1.55-2.71.45-.19.88-.44 1.34-.6zm-33.72 2.05c1.26-.12 2.41 1.12 2.24 2.36.91.89-.7 2.56-1.61 1.63-.8-.97-.79-2.28-1.1-3.44-.02-.25.17-.58.47-.55zm9.64.73c1.3-.56 2.98.99 2.27 2.31-.5 1.07-2.47.71-2.41-.53 0-.6-.05-1.21.14-1.78zm-4.69.84c1.3-.3 2.5 1.39 1.77 2.51-1.3.12-1.97-1.42-1.77-2.51z"/><path fill="none" d="M160 20H32c-6.6 0-12 5.4-12 12v128c0 6.6 5.4 12 12 12h128c6.6 0 12-5.4 12-12V32c0-6.6-5.4-12-12-12z"/><path fill="none" d="M0 0v192h192V0H0z"/><path fill="#DFDFDF" d="M160 20c6.6 0 12 5.4 12 12v128c0 6.6-5.4 12-12 12H32c-6.6 0-12-5.4-12-12V32c0-6.6 5.4-12 12-12h128m0-8H32c-11.03 0-20 8.97-20 20v128c0 11.03 8.97 20 20 20h128c11.03 0 20-8.97 20-20V32c0-11.03-8.97-20-20-20z"/><path fill="#FFF" fill-opacity=".2" d="M160 20H32c-6.6 0-12 5.4-12 12v1c0-6.6 5.4-12 12-12h128c6.6 0 12 5.4 12 12v-1c0-6.6-5.4-12-12-12z"/><path fill="#212121" fill-opacity=".1" d="M160 172H32c-6.6 0-12-5.4-12-12v-1c0 6.6 5.4 12 12 12h128c6.6 0 12-5.4 12-12v1c0 6.6-5.4 12-12 12z"/><radialGradient id="a" cx="23.768" cy="23.933" r="204.625" gradientUnits="userSpaceOnUse"><stop offset="0" stop-color="#fff" stop-opacity=".1"/><stop offset="1" stop-color="#fff" stop-opacity="0"/></radialGradient><path fill="url(#a)" d="M160 172H32c-6.6 0-12-5.4-12-12V32c0-6.6 5.4-12 12-12h128c6.6 0 12 5.4 12 12v128c0 6.6-5.4 12-12 12z"/></svg>