<svg xmlns="http://www.w3.org/2000/svg" width="192" height="192"><path fill="#002B7F" d="M172 160V32c0-6.6-5.4-12-12-12H32c-6.6 0-12 5.4-12 12v128c0 6.6 5.4 12 12 12h128c6.6 0 12-5.4 12-12z"/><path fill="#CE1126" d="M172 160V96H20v64c0 6.6 5.4 12 12 12h128c6.6 0 12-5.4 12-12z"/><path d="M87.9 62.6c-.75-.6-1.59-1.03-2.44-1.3.69-.14 1.21-.75 1.21-1.48a1.5 1.5 0 00-.72-1.28c.71-.12 1.26-.74 1.26-1.48 0-.64-.41-1.19-.97-1.41.58-.21 1-.76 1-1.42 0-.79-.62-1.45-1.4-1.5.38-.27.63-.72.63-1.22 0-.83-.68-1.5-1.5-1.5-.13 0-.25.02-.36.05a1.504 1.504 0 00-1.23-2.36c-.3 0-.57.09-.8.23a1.504 1.504 0 00-1.45-1.89c-.47 0-.9.22-1.17.57a1.5 1.5 0 00-2.87-.59 1.512 1.512 0 00-2.92.16c-.23-.54-.76-.93-1.39-.93-.78 0-1.42.6-1.5 1.36-.24-.52-.76-.88-1.37-.88-.83 0-1.5.68-1.5 1.5v.06a1.5 1.5 0 00-2.85.59c-.26-.46-.75-.77-1.31-.77h-.04c.39-.49.62-1.11.62-1.79 0-1.15-.68-2.15-1.65-2.62l.28-.53c.04-.07.04-.16 0-.24l-.98-1.83c.22-.11.4-.28.53-.5l1.38.88c.04.03.09.04.14.04.05 0 .09-.01.14-.04l2.06-1.31c.07-.05.12-.13.12-.21s-.04-.17-.12-.21l-2.06-1.31a.262.262 0 00-.27 0l-1.41.9c-.13-.2-.31-.37-.53-.47l1-1.87c.04-.07.04-.16 0-.24l-1.31-2.45c-.09-.17-.36-.17-.45 0l-1.31 2.45c-.04.07-.04.16 0 .24l1 1.87c-.22.1-.4.27-.53.47l-1.41-.9a.262.262 0 00-.27 0l-2.06 1.31c-.07.05-.12.13-.12.21s.04.17.12.21l2.06 1.31c.04.03.09.04.14.04.05 0 .09-.01.14-.04l1.38-.88c.12.21.3.39.53.5l-.98 1.83c-.04.07-.04.16 0 .24l.28.53c-.99.49-1.67 1.48-1.67 2.63 0 .67.23 1.29.62 1.79h-.04c-.56 0-1.05.31-1.31.77a1.5 1.5 0 00-2.85-.59v-.06c0-.83-.68-1.5-1.5-1.5-.61 0-1.13.36-1.37.88-.07-.76-.72-1.36-1.5-1.36-.62 0-1.16.38-1.39.93-.14-.69-.75-1.21-1.48-1.21-.67 0-1.24.44-1.44 1.05a1.5 1.5 0 00-2.87.59c-.28-.34-.7-.57-1.17-.57a1.504 1.504 0 00-1.45 1.89 1.504 1.504 0 00-2.3 1.27c0 .32.1.61.27.86-.12-.03-.24-.05-.36-.05-.83 0-1.5.68-1.5 1.5 0 .5.25.95.63 1.22-.78.05-1.4.7-1.4 1.5 0 .65.42 1.21 1 1.42-.57.22-.97.76-.97 1.41 0 .75.55 1.37 1.26 1.48a1.5 1.5 0 00-.72 1.28c0 .73.52 1.34 1.21 1.48-.86.26-1.69.7-2.44 1.3-.06.05-.1.12-.1.2 0 .08.03.15.09.2 1.6 1.31 2.73 4.13 3.82 6.86.91 2.26 1.76 4.39 2.88 5.79.04.04.09.07.14.08.81 1.58 9.41 2.92 19.16 2.92s18.36-1.34 19.16-2.92c.05-.01.1-.04.13-.08 1.12-1.4 1.98-3.53 2.89-5.79 1.1-2.73 2.23-5.55 3.83-6.86.06-.05.09-.12.09-.2a.367.367 0 00-.12-.21z"/><path fill="#FFD83D" d="M45.04 50.47c.3-.11.6-.2.91-.27v10.85c-.28.2-.59.39-.91.5V50.47zm1.29-.34v10.63c.1-.09.2-.17.29-.26.2-.23.4-.44.62-.62V50c-.3.03-.6.07-.91.13zm3.49-.11c-.3-.03-.61-.05-.91-.06v9.18c.14-.02.28-.03.42-.03.16 0 .33.01.49.03v-9.12zm-1.29-.07h-.15c-.24 0-.49.01-.76.02v9.64c.29-.19.6-.32.91-.4v-9.26zm-4.78 11.6c.19.1.39.15.62.15.1 0 .19-.01.29-.03V50.63c-.32.14-.62.31-.91.51v10.41zm-1.67-4.23V53.5c-.13.46-.2.97-.2 1.55 0 .77.07 1.53.2 2.27zm12.9-5.4c-.3-.19-.6-.36-.91-.52v8.71c.32.06.62.11.91.13v-8.32zm-1.29-.71c-.31-.15-.61-.28-.91-.41v9c.32.08.62.16.91.22v-8.81zm-1.29-.56c-.31-.12-.62-.22-.91-.31v9.13c.31.08.61.15.91.23v-9.05zm-1.29 8.73v-9.14c-.23-.06-.45-.11-.65-.15l-.26-.03v9.13c.31.05.61.12.91.19zm6.83-1.39c.1-.32.19-.69.26-1.1.12-.65.03-1.31-.26-1.95v3.05zm-1.67-5.13c-.29-.24-.59-.47-.91-.69v8.09c.3 0 .61-.03.91-.14v-7.26zm1.29 6.06v-4.67l-.06-.09c-.24-.34-.53-.66-.85-.97v6.74c.33-.19.64-.51.91-1.01zm-14.33 2.19c.04.06.09.11.14.15v-9.83c-.36.31-.67.68-.91 1.13v6.42c.2.72.45 1.42.73 2.1.01 0 .03.01.04.03zm16.05-11.54c.03 0 .05-.01.08 0l.29.05c.52-.03.93-.46.93-.99 0-.55-.45-1-1-1s-1 .45-1 1c.01.44.3.81.7.94zm-2.51-.63c.55 0 1-.45 1-1s-.45-1-1-1-1 .45-1 1c0 .56.45 1 1 1zm-2.85-.71c.55 0 1-.45 1-1s-.45-1-1-1-1 .45-1 1 .45 1 1 1zm-3.86-1.48c0 .55.45 1 1 1s1-.45 1-1-.45-1-1-1c-.56 0-1 .45-1 1zm-1.87.72c.55 0 1-.45 1-1s-.45-1-1-1-1 .45-1 1 .45 1 1 1zm-3.81-.84c0 .55.45 1 1 1s1-.45 1-1-.45-1-1-1-1 .45-1 1zm-2.68.92c0 .55.45 1 1 1s1-.45 1-1-.45-1-1-1-1 .44-1 1zm-1.25 2.65c.55 0 1-.45 1-1s-.45-1-1-1-1 .45-1 1 .45 1 1 1zm-1.6 2.32c.55 0 1-.45 1-1s-.45-1-1-1-1 .45-1 1 .45 1 1 1zm-.77 2.72c.55 0 1-.45 1-1s-.45-1-1-1-1 .45-1 1 .44 1 1 1zm.02 2.82c.55 0 1-.45 1-1s-.45-1-1-1-1 .45-1 1c.01.55.45 1 1 1zm.54 2.77c.55 0 1-.45 1-1s-.45-1-1-1-1 .45-1 1 .45 1 1 1zm4.27.89c-.9-2.05-1.54-4.29-1.54-6.66 0-3.56 2.55-5.61 7.01-5.61 2.68 0 5.47.72 7.94 1.36.92.24 1.81.47 2.63.64.03-.39.06-.78.08-1.17-.56-.14-1.14-.28-1.74-.43-3.04-.77-6.49-1.64-9.85-1.64-4.98 0-7.66 3.65-7.66 7.08 0 2.12.4 3.99 1.01 5.76.76.08 1.48.3 2.12.67zm29.41-11.38c-.29.09-.6.19-.91.31v9.05c.3-.08.6-.16.91-.23v-9.13zm-6.45 7.65v-3.05c-.29.65-.38 1.3-.26 1.95.07.41.16.78.26 1.1zm11.61-7.86c-.31-.06-.61-.1-.91-.12v9.88c.21.17.42.37.61.6.09.09.19.18.3.27V50.13zm4.25 3.37v3.81c.13-.74.2-1.49.2-2.26 0-.58-.07-1.09-.2-1.55zm-6.83 5.64v-9.18c-.3.01-.61.03-.91.06v9.12c.16-.02.32-.03.48-.03.14 0 .29.01.43.03zm4.25 2.53c.1.02.2.03.29.03.22 0 .43-.05.62-.15V51.13c-.29-.2-.59-.37-.91-.51v11.05zm-10.7-9.5c-.32.22-.62.44-.91.69v7.26c.3.1.61.13.91.14v-8.09zm9.41 8.89c.28.2.59.39.91.5V50.47c-.3-.11-.6-.2-.91-.27v10.86zm-10.7-1.12V53.2c-.32.31-.61.63-.85.97l-.06.09v4.67c.26.49.57.81.91 1.01zm2.58-8.54c-.31.16-.61.34-.91.52v8.32c.29-.02.59-.07.91-.13V51.4zm10.7.03v9.83c.05-.05.09-.1.14-.15.01-.01.03-.02.04-.03.28-.68.53-1.38.73-2.1v-6.42c-.24-.45-.56-.82-.91-1.13zm-4.25-1.45c-.27-.02-.52-.02-.76-.02h-.15v9.26c.31.08.62.22.91.4v-9.64zm-3.49.25v9.14c.3-.07.6-.14.91-.19v-9.13l-.26.03c-.21.04-.42.09-.65.15zm-1.67.57c-.3.12-.6.26-.91.41v8.81c.29-.07.59-.14.91-.22v-9zm-7.81-2.18c0 .53.41.96.93.99l.29-.05h.08c.4-.13.69-.5.69-.95 0-.55-.45-1-1-1-.54.01-.99.46-.99 1.01zm2.82-.67c0 .55.45 1 1 1s1-.45 1-1-.45-1-1-1c-.56 0-1 .44-1 1zm3.85.28c.55 0 1-.45 1-1s-.45-1-1-1-1 .45-1 1 .45 1 1 1zm2.86-.48c.55 0 1-.45 1-1s-.45-1-1-1-1 .45-1 1 .45 1 1 1zm1.87-1.28c0 .55.45 1 1 1s1-.45 1-1-.45-1-1-1-1 .45-1 1zm3.8 1.16c.55 0 1-.45 1-1s-.45-1-1-1-1 .45-1 1c.01.55.45 1 1 1zm2.68.91c.55 0 1-.45 1-1s-.45-1-1-1-1 .45-1 1c0 .56.45 1 1 1zm1.26.66c0 .55.45 1 1 1s1-.45 1-1-.45-1-1-1c-.55.01-1 .45-1 1zm2.6 1.32c-.55 0-1 .45-1 1s.45 1 1 1 1-.45 1-1-.45-1-1-1zm.77 2.72c-.55 0-1 .45-1 1s.45 1 1 1 1-.45 1-1-.45-1-1-1zm-.03 2.82c-.55 0-1 .45-1 1s.45 1 1 1 1-.45 1-1-.45-1-1-1zm-.54 2.77c-.55 0-1 .45-1 1s.45 1 1 1 1-.45 1-1-.45-1-1-1zm-20.39-8.55c.02.39.05.78.08 1.17.82-.18 1.71-.4 2.63-.64 2.47-.64 5.27-1.36 7.94-1.36 4.45 0 7.01 2.04 7.01 5.61 0 2.38-.64 4.61-1.54 6.66.64-.36 1.36-.59 2.12-.67.61-1.77 1.01-3.64 1.01-5.76 0-3.43-2.69-7.08-7.66-7.08-3.35 0-6.8.87-9.85 1.64-.6.15-1.17.3-1.74.43zm-3.64-7.74c.25-.07.5-.11.77-.11s.52.04.77.11l.25-.47-.97-1.82h-.1l-.97 1.82.25.47zm.77-4.77h.02l1-1.87L61.9 34l-1.02 1.91 1 1.87c.01 0 .02-.01.02-.01zm-1.24 1.25c0-.06.01-.11.02-.16l-1.37-.87L57.72 39l1.59 1.01 1.36-.87c0-.05-.01-.09-.01-.12zm2.49 0c0 .04-.01.07-.01.11l1.36.87 1.59-1.01-1.59-1.01-1.37.87c.01.06.02.11.02.17zm-1.25.73c.41 0 .74-.33.74-.74s-.33-.74-.74-.74-.74.33-.74.74.34.74.74.74zm.87 3.35v1.16c.45.03.9.08 1.34.14a2.44 2.44 0 00-1.34-1.3zm1.49 2.66a2.328 2.328 0 00-.02-.96c-.55-.08-1.11-.14-1.67-.17-.1 0-.18-.09-.18-.19v-1.46c-.16-.03-.32-.05-.48-.05-.16 0-.32.02-.48.05 0 .46 0 .8-.01 1.1v.37c0 .1-.08.18-.18.19-.56.02-1.12.08-1.67.17-.04.17-.06.35-.06.53 0 .15.02.29.04.43 1.56-.25 3.15-.25 4.71-.01zm-4.57-1.36c.45-.06.9-.11 1.35-.14v-.19c0-.27 0-.58.01-.98-.61.24-1.1.72-1.36 1.31zm2.21 3.33c1.04 0 1.93-.67 2.26-1.6-1.5-.22-3.02-.22-4.51 0 .33.93 1.21 1.6 2.25 1.6zm-2.22 11.49c.47-2.32.71-4.89.89-6.85.07-.79.14-1.48.2-2.05l-1.22-.21c-.2 3.32-.58 6.98-1.68 9.99.51-.39 1.11-.68 1.81-.88zm6.26.89c-1.11-3.02-1.48-6.67-1.68-9.99l-1.22.21c.07.57.13 1.26.2 2.05.18 1.97.42 4.53.89 6.85.69.19 1.3.48 1.81.88zm17.68 1.41c1.27 0 2.59.46 3.73 1.29-1.57 1.46-2.67 4.2-3.74 6.85-.85 2.1-1.65 4.1-2.64 5.44-.17-.19-.48-.37-.89-.53l.21-.65c.03-.1-.02-.21-.12-.24-.1-.03-.21.02-.24.12l-.2.64a13 13 0 00-.63-.18l.18-.65c.03-.1-.03-.21-.13-.23-.1-.03-.21.03-.23.13l-.19.67c-.21-.05-.43-.09-.66-.13l.12-.63a.19.19 0 00-.15-.22.19.19 0 00-.22.15l-.14.65c-.21-.04-.43-.07-.66-.1l.13-.67a.19.19 0 00-.15-.22.19.19 0 00-.22.15l-.14.69c-.29-.04-.59-.08-.9-.11l.1-.64c.02-.1-.05-.2-.16-.22-.1-.02-.2.05-.22.16l-.11.66c-.32-.03-.66-.07-.99-.1l.09-.5a.19.19 0 00-.15-.22.19.19 0 00-.22.15l-.08.53c-.33-.03-.66-.05-1-.08l.11-.86c.01-.1-.06-.2-.16-.21-.1-.01-.2.06-.21.16l-.11.88-.88-.06.09-.69c.01-.1-.06-.2-.16-.21-.1-.01-.2.06-.21.16l-.09.72c-.29-.02-.58-.03-.87-.05l.1-.79c.01-.1-.06-.2-.16-.21-.1-.01-.2.06-.21.16l-.1.82-.82-.03.06-.87c.01-.1-.07-.2-.18-.2-.1-.01-.2.07-.2.18l-.06.89-.93-.03.05-.83c.01-.1-.07-.19-.18-.2-.11-.01-.19.07-.2.18l-.05.84c-.28-.01-.55-.02-.82-.02l.04-.88c.01-.1-.08-.19-.18-.2-.11 0-.19.08-.2.18l-.05.89c-.32-.01-.63-.01-.94-.02l.04-.94c0-.1-.08-.19-.18-.2-.1 0-.19.08-.2.18l-.04.95c-.4-.01-.78-.01-1.14-.01l.04-.96c0-.1-.08-.19-.18-.2-.1 0-.19.08-.2.18l-.04.97c-.56 0-1.05-.01-1.47-.01v-1.06c0-.1-.09-.19-.19-.19s-.19.09-.19.19v1.06c-.42 0-.92 0-1.47.01l-.04-.97c0-.1-.1-.19-.2-.18-.1 0-.19.09-.18.2l.04.96c-.36 0-.74.01-1.14.01l-.04-.95c0-.1-.1-.18-.2-.18s-.19.09-.18.2l.04.94c-.3.01-.62.01-.94.02l-.05-.89c-.01-.1-.1-.18-.2-.18-.1.01-.19.09-.18.2l.04.88c-.27.01-.54.01-.82.02l-.05-.84c-.01-.1-.09-.19-.2-.18-.1.01-.18.1-.18.2l.05.83-.93.03-.06-.89c-.01-.1-.1-.18-.2-.18-.1.01-.18.1-.18.2l.06.87-.82.03-.1-.82c-.01-.1-.11-.18-.21-.16-.1.01-.18.11-.16.21l.1.79c-.29.01-.58.03-.87.05l-.09-.72c-.01-.1-.11-.18-.21-.16-.1.01-.18.11-.16.21l.09.69-.88.06-.11-.88c-.01-.1-.11-.18-.21-.16-.1.01-.18.11-.16.21l.11.86c-.34.02-.67.05-1 .08l-.09-.53a.19.19 0 00-.22-.15.19.19 0 00-.15.22l.09.5c-.34.03-.67.06-.99.1l-.11-.66a.2.2 0 00-.22-.16.2.2 0 00-.16.22l.1.64c-.31.03-.61.07-.9.11l-.14-.69c-.05-.11-.15-.18-.25-.16a.19.19 0 00-.15.22l.13.67c-.23.03-.45.07-.66.1l-.12-.63a.19.19 0 00-.22-.15.19.19 0 00-.15.22l.12.63c-.23.04-.45.09-.66.13l-.19-.67a.185.185 0 00-.23-.13c-.1.03-.16.13-.13.23l.18.65c-.23.06-.44.11-.63.18l-.2-.64c-.03-.1-.14-.15-.24-.12-.1.03-.16.14-.12.24l.21.65c-.41.16-.72.33-.89.53-1-1.35-1.8-3.34-2.64-5.45-1.07-2.65-2.17-5.39-3.73-6.85 1.14-.83 2.45-1.29 3.73-1.29 2.32 0 4.21 1.46 5.06 3.92.04.12.17.19.29.16.13-.03.21-.14.2-.27-.28-2.95 1.38-5.35 3.05-5.66.18-.03.36-.05.54-.05 2.95 0 5.95 4.14 6.53 5.17.06.1.17.15.28.12.11-.03.19-.12.19-.24.16-4.32 3.11-5.23 5.57-5.23 2.46 0 5.41.91 5.57 5.23 0 .11.08.21.19.24s.22-.02.28-.12c.92-1.62 3.84-5.17 6.52-5.17.18 0 .37.02.54.05 1.67.31 3.34 2.72 3.06 5.66-.01.13.07.24.2.27.13.03.25-.04.29-.16.84-2.45 2.73-3.92 5.05-3.92zm-1.07 2.97c.13-.25.32-.63.47-.96.11-.23.02-.33-.12-.33s-.32.09-.39.28c-.14.36-.17.57-.32.96s.23.3.36.05zm-1.33-.67c-.06.32-.08.5-.12.79-.04.29.18.39.25.18.07-.21.28-.57.38-.91.06-.21-.05-.31-.19-.31-.13.01-.29.09-.32.25zm-.76.32c-.1.01-.22.1-.24.23-.04.27-.09.55-.09.8s.18.3.25.03.16-.5.21-.78c.05-.21-.03-.29-.13-.28zm-6.04-3.18c-.08 0-.18.07-.26.25-.21.48-.29.73-.36.95-.07.22.14.43.28.1.16-.36.32-.57.47-.91.11-.2.01-.39-.13-.39zm1.73 1.14c-.09-.01-.19.05-.26.19-.18.38-.23.68-.39.95-.15.27.06.41.19.2.13-.21.4-.58.56-.87.15-.27.05-.46-.1-.47zm-1.06.39c.14-.3.22-.39.36-.67.09-.18-.04-.41-.18-.42-.08-.01-.17.06-.22.26-.07.28-.14.51-.2.7-.05.2.1.44.24.13zm1.99 2.01c-.07.01-.14.04-.17.1-.13.22-.41.59-.59.89-.18.29.1.35.21.21.11-.14.43-.41.73-.78.18-.24.05-.39-.11-.41-.03-.01-.05-.01-.07-.01zm-.5-1.16c-.34.53-.52.76-.65.97-.13.21 0 .43.21.18.25-.3.51-.58.69-.8.14-.17.11-.58-.05-.55-.05.01-.12.07-.2.2zm-3.51-1.09c.13-.33.31-.65.44-.96.06-.15 0-.29-.1-.32a.11.11 0 00-.08 0c-.09.02-.19.1-.25.29-.17.5-.19.66-.28.93-.09.27.16.36.27.06zm-1.2.39c.14-.35.3-.64.41-.95.09-.24-.01-.44-.14-.47-.1-.02-.22.07-.29.32-.17.56-.24.93-.29 1.16-.06.22.17.29.31-.06zm-7.43-1.72a.11.11 0 00-.08 0c-.08.02-.16.12-.16.33 0 .38.03.79.04.99.01.2.25.3.25.02 0-.33.06-.68.13-1.01.04-.16-.07-.3-.18-.33zm1.35 3.79c-.06.27.28.26.34-.03.06-.3.15-.62.24-.91.05-.16-.05-.29-.16-.3h-.05c-.08.01-.15.09-.19.24-.1.4-.12.73-.18 1zm-.64-1.35c-.01.22.22.39.31.06.09-.38.22-.64.31-.93.05-.18-.11-.38-.25-.38-.09 0-.18.07-.21.25-.11.48-.15.78-.16 1zm5.53-.12c.07-.24.25-.74.29-.99.03-.14-.02-.22-.09-.25h-.04c-.11 0-.25.13-.3.32-.08.36-.08.46-.15.78-.07.33.22.38.29.14zm-7.53-1.53c.03.22.3.38.33-.02.03-.38.1-.68.11-.93.01-.14-.13-.27-.25-.28h-.06c-.08.01-.16.08-.17.25-.02.42.01.76.04.98zm-1.02-.98c.01.55-.01.74.05 1.03.06.29.28.39.33.01.05-.33.1-.83.14-1.09.04-.22-.1-.34-.24-.34-.13-.01-.28.11-.28.39zm-.98-.06c.04.26.09.76.14 1.09.06.38.28.29.33-.01.06-.29.03-.48.05-1.03.01-.27-.14-.39-.29-.4-.13.01-.26.13-.23.35zm-.93.09c.01.25.08.55.11.93.03.39.3.24.33.02.03-.22.06-.56.03-.99-.01-.16-.08-.23-.17-.25h-.06c-.12.02-.25.15-.24.29zm-.85.16c-.12.03-.23.17-.19.33.07.32.13.68.13 1.01 0 .28.24.18.25-.02.01-.2.04-.61.04-.99.01-.28-.11-.36-.23-.33zm-1.93 2.85c.08.29.18.61.24.91.06.29.4.3.34.03s-.08-.6-.18-1.01c-.04-.15-.11-.23-.19-.24h-.05c-.11.02-.21.15-.16.31zm1.22-.41c-.01-.22-.05-.53-.15-1.01-.04-.18-.13-.25-.21-.25-.15 0-.31.2-.25.38.08.29.21.56.31.93.07.35.31.18.3-.05zm-5.83-1.11c.05.25.22.75.29.99.07.24.36.19.29-.13s-.07-.42-.15-.78c-.05-.2-.19-.32-.3-.32-.02 0-.03 0-.05.01-.06.01-.11.09-.08.23zm-1.31-.56c.11.31.27.6.41.95.14.35.37.28.32.06-.06-.22-.12-.6-.29-1.16-.07-.25-.19-.34-.29-.32-.13.03-.23.23-.15.47zm-1.22-.4c.13.31.31.62.44.96.11.29.36.21.28-.06-.08-.27-.11-.42-.28-.93-.08-.25-.23-.32-.33-.29-.11.04-.18.17-.11.32zm-2.75 1.28c.16.29.44.66.56.87.13.21.34.07.19-.2-.15-.27-.21-.57-.39-.95-.07-.14-.17-.2-.26-.19-.14.01-.25.2-.1.47zm1.4-.21c-.06-.2-.13-.42-.2-.7-.05-.21-.14-.27-.22-.26-.14.01-.27.24-.18.42.14.28.23.38.36.67.14.31.3.07.24-.13zm.29-1c.15.34.32.55.47.91.14.32.35.12.28-.1-.07-.22-.15-.47-.36-.95-.08-.18-.18-.25-.26-.25-.12-.01-.22.18-.13.39zm-2.27 2.33c.18.22.44.5.69.8.21.25.34.03.21-.18-.13-.21-.31-.43-.65-.97-.08-.13-.15-.2-.21-.21-.15-.02-.17.39-.04.56zm-.42 1.22c.29.38.62.64.73.78.11.14.4.09.21-.21-.19-.3-.47-.66-.59-.89a.223.223 0 00-.24-.1c-.15.03-.29.19-.11.42zm-5.26-1.43c-.07-.18-.25-.28-.39-.28s-.22.1-.12.33c.15.33.35.71.48.96s.51.34.36-.06c-.16-.39-.19-.59-.33-.95zm1.91.94c.06.28.14.52.21.78.07.27.25.22.25-.03s-.05-.53-.09-.8a.285.285 0 00-.24-.23c-.08-.01-.17.07-.13.28zm-.94-.84c-.14 0-.25.1-.19.31.1.34.31.7.38.91.07.21.3.11.25-.18-.04-.29-.06-.47-.12-.79-.02-.17-.18-.25-.32-.25zm-2.82.41c-.17-.21-.33-.42-.75-.63a.634.634 0 00-.25-.07c-.2 0-.21.2-.04.32.23.17.51.35.78.57.3.25.42.02.26-.19zm.95-.1c-.11-.19-.26-.38-.47-.7-.12-.17-.22-.24-.29-.25-.17-.01-.22.3-.06.5.23.29.39.45.66.69.2.19.26-.05.16-.24zm4.39 7.56c-.58-1.35-.72-2.5-.59-3.19s.3-1.16.28-1.56c-.02-.4-.25-.37-.34 0-.06.25-.19.59-.27.71-.08.13-.42.2-.74-.24-.32-.43-1.14-1.27-1.4-1.48-.1-.08-.2-.13-.28-.13-.12-.01-.17.09 0 .32.38.52.8 1.3.82 1.64.03.34-.14.33-.29.33-.46 0-.69-.34-1.11-.44-.42-.1-.48.12-.18.34 1.54 1.12 3.09 2.37 3.7 3.51.25.46.59.63.4.19zm7.47-1.22c-.35-2.2-.41-4.01.11-5.15.2-.43 0-.84-.32-.14-.21.46-.55.64-.82.25-.27-.4-.84-1.46-1.01-1.95-.06-.18-.14-.27-.21-.28h-.04c-.09.02-.14.19-.07.42.36 1.28.47 1.96.4 2.27-.06.32-.24.36-.47.25-.23-.11-.5-.26-.71-.4-.21-.15-.43.03-.13.28 1.53 1.26 2.6 2.7 3.01 4.45.1.36.33.4.26 0zm9.87.01c0-2.72 1.26-4.14 2.43-5.81.4-.57.15-.72-.19-.47-.34.25-.52.38-.84.55-.32.17-.66.25-.89-.06-.23-.32-.5-.95-.52-1.6-.01-.2-.03-.44-.21-.44s-.21.24-.21.44c-.02.65-.29 1.28-.52 1.6-.23.32-.57.23-.89.06-.32-.17-.5-.29-.84-.55-.34-.25-.59-.1-.19.47 1.17 1.67 2.44 3.09 2.44 5.81 0 .35.06.46.21.46.16 0 .22-.1.22-.46zm12.69-4.46c.3-.25.08-.42-.13-.28-.21.15-.48.3-.71.4-.23.11-.4.06-.47-.25-.06-.32.05-.99.4-2.27.06-.23.01-.4-.07-.42h-.04c-.06.01-.14.1-.21.28-.17.48-.73 1.55-1.01 1.95-.27.4-.61.22-.82-.25-.32-.69-.51-.28-.32.14.53 1.13.46 2.94.11 5.15-.06.4.16.36.25 0 .42-1.75 1.48-3.19 3.02-4.45zm8.14 1.63c-.42.1-.65.44-1.11.44-.15 0-.32 0-.29-.33.03-.34.45-1.12.82-1.64.17-.23.12-.33 0-.32-.07.01-.18.06-.28.13-.27.21-1.08 1.05-1.4 1.48-.32.43-.66.36-.74.24-.08-.13-.21-.46-.27-.71-.09-.37-.32-.4-.34 0-.02.4.15.87.28 1.56.13.69-.01 1.84-.59 3.19-.19.44.15.27.4-.19.62-1.14 2.16-2.39 3.71-3.51.29-.22.23-.44-.19-.34zm1.42-3.42c-.17.21-.05.44.27.19.27-.22.54-.4.78-.57.17-.13.16-.32-.04-.32a.56.56 0 00-.25.07c-.43.21-.59.42-.76.63zm-.48-.8c-.21.32-.36.51-.47.7-.11.19-.04.43.17.25.26-.24.43-.39.66-.69.16-.2.11-.51-.06-.5-.09 0-.19.07-.3.24zm-22.68-14.2c0 .38.31.7.7.7s.7-.31.7-.7-.31-.7-.7-.7-.7.32-.7.7zm-.06 1.92a.76.76 0 10.76-.76c-.42.01-.76.35-.76.76zm.75 1.23c-.46 0-.84.38-.84.84s.38.84.84.84c.46 0 .84-.38.84-.84s-.37-.84-.84-.84zm0 2.15c-.55 0-.99.44-.99.99s.44.99.99.99.99-.44.99-.99-.44-.99-.99-.99zm1.11 3.55c0-.61-.5-1.11-1.11-1.11-.61 0-1.11.5-1.11 1.11 0 .61.5 1.11 1.11 1.11.61 0 1.11-.5 1.11-1.11z"/><path fill="none" d="M160 20H32c-6.6 0-12 5.4-12 12v128c0 6.6 5.4 12 12 12h128c6.6 0 12-5.4 12-12V32c0-6.6-5.4-12-12-12z"/><path fill="none" d="M0 0v192h192V0H0z"/><path fill="#DFDFDF" d="M160 20c6.6 0 12 5.4 12 12v128c0 6.6-5.4 12-12 12H32c-6.6 0-12-5.4-12-12V32c0-6.6 5.4-12 12-12h128m0-8H32c-11.03 0-20 8.97-20 20v128c0 11.03 8.97 20 20 20h128c11.03 0 20-8.97 20-20V32c0-11.03-8.97-20-20-20z"/><path fill="#FFF" fill-opacity=".2" d="M160 20H32c-6.6 0-12 5.4-12 12v1c0-6.6 5.4-12 12-12h128c6.6 0 12 5.4 12 12v-1c0-6.6-5.4-12-12-12z"/><path fill="#212121" fill-opacity=".1" d="M160 172H32c-6.6 0-12-5.4-12-12v-1c0 6.6 5.4 12 12 12h128c6.6 0 12-5.4 12-12v1c0 6.6-5.4 12-12 12z"/><radialGradient id="a" cx="23.768" cy="23.933" r="204.625" gradientUnits="userSpaceOnUse"><stop offset="0" stop-color="#fff" stop-opacity=".1"/><stop offset="1" stop-color="#fff" stop-opacity="0"/></radialGradient><path fill="url(#a)" d="M160 172H32c-6.6 0-12-5.4-12-12V32c0-6.6 5.4-12 12-12h128c6.6 0 12 5.4 12 12v128c0 6.6-5.4 12-12 12z"/></svg>