<svg xmlns="http://www.w3.org/2000/svg" width="192" height="192"><path fill="#CC092F" d="M160 20H32c-6.6 0-12 5.4-12 12v128c0 6.6 5.4 12 12 12h128c6.6 0 12-5.4 12-12V32c0-6.6-5.4-12-12-12z"/><path fill="#FFD200" d="M32 20c-6.6 0-12 5.4-12 12v128c0 6.6 5.4 12 12 12h104V20H32z"/><path fill="#0046AE" d="M32 20c-6.6 0-12 5.4-12 12v128c0 6.6 5.4 12 12 12h24V20H32z"/><path fill="none" d="M82.95 102.81c-.15-.19-.26-.38-.34-.6-.19.72-.53 1.96-.93 3.26.12.37.19.78.12 1.16.12-.16 1.06-.51 1.06-.51s.19 1.28-.32 2.23c-.39.73-1.19 1.28-1.53 1.49l.08.18c.19-.02.37-.05.48-.11.15-.08.27-.22.44-.25.29-.06.58.01.73.33.15.32 0 .7-.32.85a.66.66 0 01-.77-.16c-.1-.13-.18-.17-.34-.18l.28.62c.46.06.74.17 1.1-.47.49-.84 2.04-3.07 2.24-3.37-.33 0-.62-.03-.62-.03.34-.32 1.09-1.77 1.41-2.39-.48-.26-.93-.51-1.32-.77-.6-.37-1.18-.9-1.45-1.28zM106.59 104.11c-.39.25-.84.51-1.33.77.32.62 1.07 2.07 1.41 2.38 0 0-.29.04-.62.03.2.29 1.75 2.52 2.24 3.37.45.79.78.44 1.47.44.19 0 .45.1.73.24a.76.76 0 01-.05-.74c.17-.33.81-.39.81-.39s-.23-.23-.31-.6c-1.05-1.83-2.15-5.8-2.56-7.37-.07.21-.19.4-.33.58-.27.37-.85.9-1.46 1.29zM80.71 111.24l-.29-.63c-.07.14-.08.23-.02.38.04.11.04.27-.02.42.11-.07.22-.13.33-.17zM92.17 66.42c0-.26-.94-.93-2.19-.93-.2 0-.37.05-.53.11v.46c.67.07 1.81.48 2.58.48.01 0 .14-.02.14-.12z"/><path fill="#F5D402" d="M89.25 65.71c-.29.19-.44.42-.44.42s.02-.69.44-1.21v-1.75h.16c.01 0 .03-.01.04-.01h.99c.32 0 .59.14.79.36a1.777 1.777 0 000-1.18c-.19.22-.47.37-.79.37h-.99c-.01 0-.03 0-.04-.01h-.16v-.16c0-.01-.01-.03-.01-.04v-.99c0-.32.14-.59.36-.79a1.777 1.777 0 00-1.18 0c.22.19.37.47.37.79v.99c0 .01 0 .03-.01.04v.16h-.16c-.01 0-.03.01-.04.01h-.99c-.32 0-.59-.14-.79-.36a1.777 1.777 0 000 1.18c.19-.22.47-.37.79-.37h1.19c0 .02-.01.04-.01.06v.1c0 .01.01.03.01.04v4.76c0 .31-.16.55-.37.74.15.09.28.21.39.34.1.12.14.23.21.35.07-.12.11-.24.21-.35.11-.13.24-.24.38-.33-.21-.19-.37-.44-.37-.75l.02-2.41z"/><path fill="#B07F55" d="M85.46 76.53zM85.9 78.01c.41-.38 1.42-.54 1.43-.54-.59-.27-1.24-.64-1.87-.93 0 0 .09 1.39.44 1.47zM83.91 76.06c-.48 0-.85.03-1.11.06.17.46.62 1.58.9 1.66.26-.52 1.75-1.25 1.75-1.25-.57-.26-1.11-.47-1.54-.47zM85.13 106.68s.63.05 1-.2c.07.37.16.93.16.93.3-.01.85-.42.85-.42.12.29.31 1.12.31 1.12.33-.22 1.16-1.14 1.6-1.64-.98-.44-1.96-.89-2.85-1.34-.22.47-.67 1.36-1.07 1.55zM81.1 81.99l-1.15-1.07v23a.658.658 0 010 .77v1.08c.39-.83 1.15-1.49 1.15-1.49s.12.18.27.46c.51-1.42.92-3.03 1.14-3.96v-20.1l-1.41 1.31z"/><path fill="#B07F55" d="M81.35 78.73h28.3s-.55.41-.89.96l.94.87v-3.75c-.23-.35-.39-.62-.51-.83-.25.44-1.06 1.78-2.01 2.6-.16-.64-1.19-1.24-1.19-1.24s-.37 1-.93 1.25c-.2-.35-1.38-1.13-1.39-1.13-.75.34-1.89.41-2.22.42.38.27.8.51 1.25.74 0 0-1.79-.02-3.04-.64-.45-.29-.91-.58-1.31-.91.17.48.44 1.05.86 1.53-1.85-.16-2.76-1.21-3.02-1.56-.12.32-.34.82-.68 1.26v-.01c-.34-.44-.55-.94-.68-1.25-.26.35-1.18 1.41-3.02 1.56.42-.48.69-1.05.86-1.53-.4.34-.86.63-1.31.91-1.26.63-3.04.64-3.04.64.45-.23.87-.47 1.25-.74-.33-.01-1.47-.08-2.22-.42 0 0-1.19.78-1.39 1.13-.57-.25-.93-1.25-.93-1.25s-1.03.61-1.19 1.24c-.95-.82-1.76-2.16-2.01-2.6-.12.21-.27.47-.51.83v3.75l.94-.88c-.36-.54-.91-.95-.91-.95zM87.33 77.47zM85.86 119.87c.82.25 1.78.6 2.77 1.02 1.2-1.41 2.45-3.31 3.46-5 1.09-1.83 1.99-5.03 1.99-5.03.51 1.23-.57 7.41-2.75 11.32 1.8.94 3.4 1.95 4.17 2.79.77-.83 2.37-1.85 4.17-2.79-2.18-3.91-3.26-10.09-2.75-11.32 0 0 .89 3.2 1.99 5.03 1.01 1.69 2.26 3.59 3.46 5 .99-.42 1.95-.78 2.77-1.02-3.18-2.45-6.43-9.89-7.15-11.61-1.09.53-1.73.97-2.49 1.91-.76-.94-1.4-1.38-2.49-1.91-.72 1.7-3.97 9.16-7.15 11.61zM81.9 71.64c-.92-.32-3.67-2.84-3.67-2.84-1.26.92-2.61 2.2-3.43 3.35l.69 1.48s1.08-1.11 1.36-1.4v-.35c0-.33.21-.68.41-.93l.4.14c-.19.22-.42.55-.42.85v.44l1.18 1.79 1.2-1.29v-.2c0-.34.17-.6.32-.77l.4.14c-.14.13-.33.36-.33.68v.34c.41.58 1.25 1.68 1.92 1.91v-2.49l-.03-.85zM74.95 74.06l-.63-1.14c-.21.39-.33.74-.33 1.03V77l.96-.89v-2.05z"/><path fill="#B07F55" d="M76.83 77.15l1.1-1.03v-1.27l-1.1-1.67zM75.34 76.12l1.1 1.02v-3.66l-1.1 1.15zM79.81 73.74v3.49c.72-.39 1.39-1.27 1.65-1.63-.73-.35-1.48-1.58-1.65-1.86zM78.32 76.12l1.1 1.02v-3.22l-1.1 1.06zM74.95 77.35l-.96.9v1.42l.96.9zM75.34 80.56l1.1-1.02v-1.16l-1.1-1.02zM76.83 79.53l1.1 1.03v-3.2l-1.1 1.03zM78.32 80.56l1.1-1.03v-1.14l-1.1-1.03zM79.81 78.47v1.07l1.1 1.03v-3.21c-.34.45-.72.87-1.1 1.11zM76.96 80.9v17.22c.17.03.33.13.42.34.06.13.07.28.04.41.4-.4.8-.69.8-.69s.58 1.2.44 1.62c.11-.17.41-.4.63-.55V80.91l-1.16 1.08-1.17-1.09zM77.17 104.96c.15-.06.34-.23.49-.39l-.27-.59c-.12.03-.27.06-.43.09v.94c.07-.01.14-.02.21-.05zM78.85 103.95c.15-.08.26-.21.44-.25v-.92c-.32.5-.76.82-1.05.98l.13.29c.18-.01.37-.04.48-.1zM79.28 104.93a.614.614 0 01-.35-.21c-.1-.13-.18-.17-.34-.18l.7 1.52-.01-1.13zM76.96 99.41c.02-.03.04-.06.07-.1-.02.01-.05.02-.07.02v.08zM76.96 110v2.05s.76-.77 1.46-1.47c-.5-.09-1.01-.32-1.46-.58zM77.7 105.53c.04.21-.06.54-.38.69-.11.05-.23.07-.35.05v.93c.44.08.91.19 1.34.33.35.12.66.29.92.45l-1.34-2.94c-.18.2-.23.28-.19.49zM74.57 92.57c.01.03.02.05.03.08 0 0 .55.71.57 1.52.15-.43.84-.91.84-.91s.15.36.29.87V80.91l-1.16 1.08-1.15-1.07v11.3c.24-.01.46.08.58.35zM75.58 97.95l.24.52c.15-.02.3-.05.39-.1l.09-.06V97c-.22.46-.52.78-.72.95zM76.05 98.98l.25.55v-.38l-.01-.01c-.08-.09-.14-.14-.24-.16zM75.59 109.02s.37-.13.71-.22v-.51c-.41-.52-.78-1.28-.78-1.28s.32.02.78.08v-2.92c-.25.02-.51.03-.78.02-.61-.04-1.17-.35-1.53-.61v10.76c.75-.45 2.31-2.44 2.31-3.29v-1.48c-.43-.3-.71-.55-.71-.55zM74.88 102.7c-.28-.1-.64-.56-.89-.93v1.19c.29-.15.66-.31.89-.26zM74.11 99.28c.14-.11.32-.11.48-.17.13-.05.29-.19.43-.33l-.45-.98c-.14.04-.34.09-.58.13v1.46c.04-.04.08-.07.12-.11zM75.12 99.68c.04.21-.06.54-.38.69-.26.12-.56.04-.74-.16v1.03c.36-.06 1-.12 1.59.1.25.1.5.25.72.41v-.16l-1.06-2.32c-.13.14-.16.23-.13.41z"/><path fill="#D10429" d="M81.18 111.52c-.62.12-1.51.78-1.6 1.02-.05.14.07.36.2.37.22.01.42-.29 1.14-.51.66-.2 1.16.01 1.73-.41-.03.55-.78.97-.78 1.36.48 0 .76-.32.76-.32s-.04.37-.04.69c0 .32.37.5.37.5s.21-.88.47-1.22c1.03-1.39 3.11-4.23 3.47-4.72-.07-.38-.13-.66-.13-.66l-.85.58c-.24-.27-.23-1.04-.23-1.04-.07.05-.17.07-.27.1-.15.23-1.73 2.67-2.7 4.17-.22.35-1.39.06-1.54.09zM80.5 112.86z"/><path fill="#D10429" d="M80.32 112.84l-.38.33c-.05.04-.05.12-.01.18.05.05.13.06.18.02l.38-.33c.05-.04.05-.12.01-.18-.02-.03-.06-.04-.09-.05-.03 0-.07.01-.09.03zM81.08 113.26a.357.357 0 00-.27-.12c-.06.01-.12.03-.16.07l-.93.81c-.12.11-.13.3-.01.43.11.13.31.15.43.05l.93-.81c.11-.11.12-.3.01-.43zM81.61 113.89a.373.373 0 00-.27-.12c-.06.01-.11.03-.16.07l-.93.81c-.12.11-.13.3-.01.43.11.13.3.15.42.05l.93-.81c.12-.11.13-.3.02-.43zM81.93 114.39c-.06 0-.11.02-.16.06l-.93.81c-.12.11-.12.29-.01.42s.3.15.42.05l.93-.81c.12-.11.13-.3.01-.43a.331.331 0 00-.26-.1z"/><path d="M105.13 119.87c-.82.25-1.78.6-2.77 1.02-1.2-1.41-2.45-3.31-3.46-5-1.09-1.83-1.99-5.03-1.99-5.03-.51 1.23.57 7.41 2.75 11.32-1.8.94-3.4 1.95-4.17 2.79-.77-.83-2.37-1.85-4.17-2.79 2.18-3.91 3.26-10.09 2.75-11.32 0 0-.89 3.2-1.99 5.03-1.01 1.69-2.26 3.59-3.46 5-.99-.42-1.95-.78-2.77-1.02 3.19-2.45 6.44-9.91 7.15-11.61-.2-.1-.41-.2-.65-.31-.72 1.6-4.89 10.53-8.62 12.02 0 0 1.79.76 3.98 1.9.32.17.65.34.98.53.28-.33.57-.7.85-1.09 1.31-1.75 2.59-3.79 2.59-3.79.09.53-.6 2.16-1.77 4.17-.23.39-.47.81-.74 1.23.3.17.59.34.89.52 2.17 1.31 4.21 2.81 4.97 4.19.76-1.38 2.8-2.88 4.97-4.19.29-.18.59-.35.89-.52-.27-.42-.51-.83-.74-1.23-1.17-2.01-1.86-3.64-1.77-4.17 0 0 1.28 2.03 2.59 3.79.29.38.58.75.85 1.09.33-.18.66-.36.98-.53 2.19-1.14 3.98-1.9 3.98-1.9-3.73-1.49-7.89-10.41-8.62-12.02-.23.11-.45.21-.65.31.74 1.72 3.99 9.16 7.17 11.61z"/><path fill="#B07F55" d="M103.66 77.47zM105.53 76.53zM107.29 77.78c.29-.08.73-1.2.9-1.66-.26-.03-.63-.06-1.11-.06-.43 0-.97.2-1.54.47-.01 0 1.49.73 1.75 1.25zM111.04 107.39V80.92l-1.15 1.07-1.4-1.31v20.11c.4 1.72 1.42 5.62 2.55 6.6zM103.54 108.11s.2-.83.31-1.12c0 0 .55.41.85.42 0 0 .09-.56.16-.93.38.25 1 .2 1 .2-.4-.19-.85-1.08-1.07-1.55-.89.45-1.87.91-2.85 1.34.44.5 1.27 1.42 1.6 1.64zM105.53 76.53c-.63.3-1.28.67-1.87.93 0 0 1.02.15 1.43.54.35-.07.44-1.46.44-1.47zM110.97 73.07v-.34c0-.32-.19-.56-.33-.68l.4-.14c.15.17.32.43.32.77v.2l1.2 1.29 1.18-1.79v-.44c0-.29-.23-.62-.42-.85l.4-.14c.2.26.41.61.41.93v.35c.28.29 1.36 1.4 1.36 1.4s.54-1.17.69-1.48c-.83-1.15-2.17-2.43-3.43-3.35 0 0-2.74 2.52-3.67 2.84l-.03.85v2.49c.67-.23 1.51-1.33 1.92-1.91zM116.04 76.11l.96.89v-3.05c0-.29-.12-.64-.33-1.03l-.63 1.14v2.05z"/><path fill="#B07F55" d="M113.06 76.12l1.1 1.03v-3.97l-1.1 1.67zM114.55 77.14l1.1-1.02v-1.49l-1.1-1.15zM111.18 77.23v-3.49c-.17.27-.92 1.5-1.65 1.86.26.36.93 1.24 1.65 1.63zM111.57 77.14l1.1-1.02v-1.14l-1.1-1.06zM116.04 80.57l.95-.9v-1.42l-.95-.9zM114.55 79.54l1.1 1.02v-3.2l-1.1 1.02zM113.06 80.56l1.1-1.03v-1.14l-1.1-1.03zM111.57 79.53l1.1 1.03v-3.2l-1.1 1.03zM111.18 78.47c-.38-.23-.76-.66-1.1-1.11v3.21l1.1-1.03v-1.07zM113.4 107.84c-.22.43.15 1.09-.29 1.95-.19.36-.45.55-.7.64l1.6 1.62v-5.43c-.22.45-.43.87-.61 1.22zM112.48 107.37c.4-.78.96-1.89 1.54-3.03V80.9l-1.16 1.09-1.16-1.08v26.48s-.02.27-.04.64c.35-.27.69-.4.82-.66zM116.67 101.33s.22.35.07.62c-.15.29-.53.46-.53.46s.13.22 0 .47c-.13.26-.38.16-.44.28-.35.69-.73 1.44-1.1 2.16v5.74c0 .85 1.55 2.84 2.31 3.29v-13.22c-.12.13-.31.2-.31.2zM114.69 80.91v22.13c.06-.12.12-.23.18-.35.06-.12-.17-.25-.03-.52.13-.25.38-.28.38-.28s-.09-.4.06-.69c.14-.28.55-.3.55-.3s-.09-.3.02-.51c.11-.23.34-.29.43-.46.21-.42.46-.91.72-1.42v-17.6l-1.15 1.07-1.16-1.07z"/><path fill="#D10429" d="M108.25 111.41c-.97-1.5-2.55-3.94-2.7-4.17a.794.794 0 01-.27-.1s.01.77-.23 1.04l-.85-.58s-.06.28-.13.66c.36.5 2.44 3.34 3.47 4.72.26.34.47 1.22.47 1.22s.37-.18.37-.5c0-.31-.04-.69-.04-.69s.28.32.76.32c0-.39-.75-.81-.78-1.36.57.42 1.07.21 1.73.41.72.22.92.52 1.14.51.13-.01.25-.23.2-.37-.09-.24-.97-.9-1.6-1.02-.13-.01-1.3.28-1.54-.09z"/><path fill="#D10429" d="M110.5 113.04l.38.33c.05.04.13.03.18-.02.05-.05.04-.13-.01-.18l-.38-.33a.161.161 0 00-.09-.03.12.12 0 00-.09.05c-.05.05-.04.13.01.18zM110.49 112.86zM110.34 113.21a.374.374 0 00-.16-.07c-.09-.01-.19.03-.27.12-.11.13-.11.32.01.42l.93.81c.12.11.32.08.43-.05.11-.13.11-.33-.01-.43l-.93-.8zM109.81 113.84a.329.329 0 00-.16-.07.31.31 0 00-.27.12c-.11.13-.11.32.01.42l.93.81c.12.11.31.08.42-.05.11-.13.11-.33-.01-.43l-.92-.8zM109.22 114.45a.245.245 0 00-.16-.06.34.34 0 00-.27.11c-.11.13-.11.33.01.43l.93.81c.12.11.31.08.42-.05.11-.13.11-.32-.01-.42l-.92-.82z"/><path fill="#B07F55" d="M92.12 64.95c0 .43.53.72.98.9a.399.399 0 01-.07-.24c0-.3.31-.54.68-.54h.03c-.44-.17-.86-.39-1.16-.39-.36 0-.46.11-.46.27z"/><path fill="#B07F55" d="M99.54 76.55c-.52-.9-1.25-2.01-1.25-4.91 0-.92.79-1.56.79-2.11 0-1.07-.21-2.05-.21-2.05l.87.27c0-.42-.34-.85-.69-.88.1-.36.72-.43.72-.43-.29-.54-.94-.66-.94-.66.04-.15.19-.32.39-.49-.31-.11-.66-.24-1.04-.41-1.45-.64-2.52-1.34-4.05-1.34-.12 0-.25-.01-.4-.01-.15 0-.3 0-.46.01-.52.02-1.05.09-1.24.35-.1.14-.2.24-.09.4.06.1.48.07.85.07.55 0 1.06.47 1.57.47.4 0 .79-.1 1.21-.1 1.23 0 2.05 1.2 2.55 1.51-.45.04-1.77-1.15-2.4-1.15-.52 0-.72.12-1.22.12-.12 0-.24-.02-.36-.05.15.1.24.25.24.41 0 .3-.31.54-.68.54h-.05c-.14.11-.29.34-.29.44 0 .16.13.33.21.39.48.33.52.91.52.91s-.95-.73-1.36-.73c-.8 0-.66.56-.55.76.34.63.54 1.54.54 2.87 0 3.54-.7 4.79-1.27 5.77-.2.35-.36.75-.7 1.06 1.49-.8 2.6-1.79 2.6-2.72v-3.5h.39v3.5c0 .67-.16.98-.16.98-.23.74-.71 1.89-1 2.35 1.38-.74 2.07-1.67 2.07-2.02v-4.81h.39v4.88l-.07.33c.17.25.38.55.53.65.15-.1.37-.4.53-.65l-.07-.33v-4.88h.39v4.81c0 .35.7 1.28 2.07 2.02-.29-.46-.77-1.61-1-2.35 0 0-.16-.31-.16-.98v-3.5h.39v3.5c0 .92 1.11 1.92 2.61 2.72-.35-.27-.52-.67-.72-1.03z"/><path fill="#CC092F" d="M89.16 65.43s.32-.17.81-.17c1.94 0 2.63 1.25 2.63 1.25 0-.68-.68-1.33-.83-1.72 0 0-1.13.02-1.47.02-.81 0-1.13.61-1.14.62zm2.39-.19c.09.11.11.36.11.36s-.48-.15-.48-.31c0-.21.23-.21.37-.05zM89.16 65.43z"/><path fill="#D10429" d="M92.31 66.75c-1.02.13-1.62-.22-1.62-.22s.71.73 1.12.89c.09-.24.5-.67.5-.67z"/><path d="M91.66 65.6zM91.66 65.6s-.01-.25-.11-.36c-.14-.16-.37-.16-.37.05 0 .15.48.31.48.31z"/><path fill="#F5D402" d="M94.18 65.61a.47.47 0 10-.939-.001.47.47 0 00.939.001zm-.47.2a.2.2 0 01-.2-.2c0-.11.09-.2.2-.2.11 0 .2.09.2.2a.2.2 0 01-.2.2z"/><circle cx="93.71" cy="65.61" r=".2"/><path d="M75.52 107.01zM81.1 104.27zM70.25 88.03z"/><path fill="#F5D402" d="M83.16 115.61l-.32 1.49 1.34.73.32-1.49zM76.3 100.24c-.32-.7-.58-1.26-.78-1.17-.18.08.46 1.14.77 1.83.31.67.72 1.89 1 1.78.27-.11-.66-1.73-.99-2.44zM74.41 96.24c.26-.11-.33-.99-.58-1.53-.26-.56-.55-1.16-.75-1.07-.18.08.12.57.44 1.26.3.66.61 1.46.89 1.34zM79.55 107.24c-.78-1.7-1.41-3.31-1.61-3.22-.18.08.4 1.46 1.18 3.17.78 1.7 1.74 3.72 1.96 3.66.17-.06-.75-1.91-1.53-3.61z"/><path fill="#097754" d="M71.95 91.09s.03-.96-.28-1.5c-.32-.55-1.03-.76-1.03-.76s-.03.96.28 1.5c.32.54 1.03.76 1.03.76zM71.29 91.42c-.48-.37-1.32-.42-1.32-.42s.47.87.95 1.24 1.03.31 1.03.31-.18-.77-.66-1.13zM72.77 91.84s.36-.82.33-1.51c-.03-.69-.42-1.08-.52-1.27 0 0-.28.64-.25 1.32s.44 1.46.44 1.46zM72.59 89.06zM73.79 96.45s-.47-.61-1.1-.92c-.63-.31-1.51-.29-1.51-.29s.41.57 1.04.88c.63.31 1.57.33 1.57.33zM71.39 96.57zM73.91 97.64s-.43-.55-.98-.8-1.54-.27-1.55-.27c0 0 .3.59.85.84.56.25 1.68.23 1.68.23zM74.56 93.42zM74.69 95.85s.28-.76.25-1.37c-.03-.61-.38-1.06-.38-1.06s-.33.55-.3 1.16c.03.61.43 1.27.43 1.27zM75.13 95.75c-.08.79.32 1.59.32 1.59s.69-.69.77-1.48c.08-.79-.44-1.67-.44-1.67 0 .01-.57.78-.65 1.56zM75.76 101.73c-.73-.41-1.55-.27-1.55-.27s.07.28.31.58c.24.3.65.62.65.62s.39-.13.88-.02 1.14.54 1.14.54-.71-1.05-1.43-1.45zM77.21 103.65s-.67-.59-1.42-.69c-.75-.1-1.65.29-1.65.29s.57.55 1.32.65c.74.1 1.75-.25 1.75-.25zM77.1 100.62c-.07.74.65 1.42.65 1.42s-.03-.47.09-.78c.12-.31.39-.64.39-.64s.11-.38.07-.68c-.06-.43-.32-.9-.32-.9-.01 0-.81.85-.88 1.58zM79.12 100.02zM78.32 103.29s.69-.54.89-1.36c.2-.82-.09-1.91-.09-1.91s-.75.76-.95 1.58c-.21.82.15 1.69.15 1.69zM80.7 108.36s.03-.48.23-.74c.16-.2.51-.55.51-.55s.08-.21-.01-.8-.43-1.31-.43-1.31-.8.81-.91 1.58c-.1.77.61 1.82.61 1.82zM81.06 109.07s.65-.06 1.01-.67c.36-.61.43-1.79.43-1.79s-.91.6-1.27 1.22c-.36.61-.17 1.24-.17 1.24zM82.5 106.6zM79.73 109.93s-.29-.43-1.09-.63-2.11-.16-2.11-.16.7.82 1.5 1.01c.8.2 1.7-.22 1.7-.22zM76.31 107.59zM78.36 107.9c-.91-.36-2.05-.31-2.05-.31s.59.92 1.35 1.25c1.05.46 2.27.24 2.27.24s-.66-.82-1.57-1.18z"/><path d="M122.68 88.49l-1.51 1.11.17.36s-.28.09-.4.34c-.13.25.08.59.08.59s-1.44-.13-1.67.02c-.2.13.09 1.13-.05 1.97-.19 1.17-.65 1.08-.67 1.3-.02.22.18.57.18.57s-.27.09-.33.2c-.09.18.06.52-.05.74-.15.29-.31.61-.49.95.01-11.35.04-22.69.04-22.69 0-1.44-2.29-4.58-5.24-6.49-2.01 1.18-4.18 3.84-4.96 4.05 0 .72.27 1.4.27 2.16v1.41c-1.86.09-2.67.95-4.23 1.82-.88.49-2.14.88-2.42.97-.6-.43-1.1-.91-1.45-1.48-.85-1.36-1.21-3.04-1.21-4.74 0-.72.81-1.53.81-2.11 0-.88-.08-1.41-.08-1.41.29.04.79.55.79.55s-.02-1.46-.48-1.71c0 0 .19-.19.86-.21-.19-.48-1.13-1.07-1.13-1.07a.61.61 0 01.25-.22c.24-.13.57-.22.82-.27a10.1 10.1 0 01-.92-.25c-.78-.25-1.7-.63-2.55-1.04-1.56-.75-2.76-.8-3.41-.8-.48 0-1.18.01-1.59.29-.38.25-.35.57-.48.69-.31.27-.84.26-1.1.26-.48 0-.82.15-1.07.36v-1.34h.99c.39 0 .71.25.81.59.17-.22.28-.59.28-1.02s-.11-.81-.28-1.02c-.1.35-.42.6-.81.6h-.99v-.99c0-.39.25-.71.59-.81-.22-.17-.59-.28-1.02-.28-.43 0-.81.11-1.02.28.35.1.6.42.6.81v.99h-.99c-.39 0-.71-.25-.81-.59-.17.22-.28.59-.28 1.02s.11.81.28 1.02c.1-.35.42-.6.81-.6h.99v4.76c0 .37-.23.68-.56.8.47.06.88.7.99 1.04.11-.35.52-.98.99-1.04a.835.835 0 01-.57-.8v-1.71c1.42.51 2.82 1.27 2.82 4.35 0 1.99-.24 4.03-1.24 5.62-.35.57-.86 1.05-1.46 1.48-.27-.08-1.53-.47-2.42-.97-1.56-.87-2.37-1.74-4.23-1.82v-1.41c0-.75.27-1.43.27-2.16-.78-.21-2.96-2.87-4.96-4.05-2.96 1.9-5.24 5.04-5.24 6.49 0 0 .02 6.8.03 15.14-.28-.58-.59-1-.59-1s-.39.8-.42 1.4c-.25-.62-1.77-1.46-1.77-1.46 0 .01-.23 1.31.16 2.07.35.68.57.82.57.82-.66-.44-1.66-.47-1.66-.47s.36 1.43 1.21 2.08c.47.36 1.09.48 1.54.51-.1.09-.2.16-.28.19-.16.06-.34.06-.48.17-.23.18-.37.45-.23.77.15.32.53.46.85.32.32-.15.42-.48.38-.69s.01-.3.2-.51l.53 1.15v.9c-1.15-.47-2.39-.34-2.39-.34s.44.8.85.99c-.29-.11-1.04.18-1.04.18s.79 1.3 1.88 1.69c.23.08.47.12.7.14 0 6.95-.01 13.75-.04 17.75 0 .62-.37 1.5-.37 1.5 1.08-.46 3.05-3.16 3.47-4.18v.49c1.28-.58 2.29-1.91 2.92-2.95.36-.01.65-.09.87-.18-.03.03-.07.05-.1.07-.14.09-.32.11-.45.24-.2.21-.3.5-.1.8.11.17.29.27.49.28-.29.22-.53.43-.61.57-.23.39-.4.87-.4 1.26 0 .43.46 1.02.46 1.02.05-.21.14-.28.14-.28s1.2 1.5 1.38 1.69c.14.15.75.25.97.05.32-.29.63-.53.93-.81l.12.26-.38 1.73 2.16 1.18.52-2.4-1.52-.83-.3-.65.02-.02c.25-.37.27-.79.55-1.18.95-1.32 2.86-3.84 3.29-4.42.03.16.05.29.08.46.39-.79 1.98-2.17 2.61-2.69-.23-.1-.46-.2-.69-.31-.44.5-1.27 1.42-1.6 1.64 0 0-.2-.83-.31-1.12 0 0-.55.41-.85.42 0 0-.09-.56-.16-.93-.38.25-1 .2-1 .2.4-.19.85-1.09 1.07-1.56-.16-.08-.32-.17-.47-.25-.31.62-1.07 2.07-1.41 2.39 0 0 .29.04.62.03-.2.29-1.75 2.52-2.24 3.37-.37.63-.65.53-1.1.47l-.28-.62c.16.01.24.05.34.18.13.16.45.31.77.16s.46-.53.32-.85c-.15-.32-.44-.39-.73-.33-.18.03-.29.17-.44.25-.11.06-.3.09-.48.11l-.11-.18c.34-.21 1.14-.75 1.53-1.49.51-.95.32-2.23.32-2.23s-.94.35-1.06.51c.07-.38 0-.79-.12-1.16.41-1.3.75-2.54.93-3.26-.07-.19-.11-.41-.11-.67v-.77c-.22.93-.63 2.54-1.14 3.96-.14-.28-.27-.46-.27-.46s-.77.66-1.15 1.49v-1.08a.655.655 0 000-.77v-23l1.15 1.07 1.41-1.31v-.2c0-.28-.11-.55-.27-.8l-.94.88v-3.75c.23-.35.39-.62.51-.83.25.44 1.06 1.78 2.01 2.6.16-.64 1.19-1.24 1.19-1.24s.37 1 .93 1.25c.2-.35 1.38-1.13 1.39-1.13 0 0-1.02.15-1.43.54-.35-.08-.44-1.47-.44-1.47s-1.49.73-1.75 1.25c-.29-.08-.73-1.2-.9-1.66.26-.03.63-.06 1.11-.06.43 0 .97.2 1.54.47.63.3 1.28.67 1.87.93.75.34 1.89.41 2.22.42-.38.27-.8.51-1.25.74 0 0 1.79-.02 3.04-.64.45-.29.91-.58 1.31-.91-.17.48-.44 1.05-.86 1.53 1.85-.16 2.76-1.21 3.02-1.56.12.31.34.82.68 1.25v.01c.34-.44.56-.94.68-1.26.26.35 1.18 1.41 3.02 1.56-.42-.48-.69-1.05-.86-1.53.4.34.86.63 1.31.91 1.26.63 3.04.64 3.04.64-.45-.23-.87-.47-1.25-.74.33-.01 1.47-.08 2.22-.42.59-.27 1.24-.64 1.87-.93.57-.27 1.12-.47 1.54-.47.48 0 .85.03 1.11.06-.17.46-.62 1.58-.9 1.66-.26-.52-1.75-1.25-1.75-1.25s-.09 1.39-.44 1.47c-.41-.38-1.42-.54-1.43-.54 0 0 1.19.78 1.39 1.13.57-.25.93-1.25.93-1.25s1.03.61 1.19 1.24c.95-.82 1.76-2.16 2.01-2.6.12.21.27.47.51.83v3.75l-.94-.87c-.15.25-.27.52-.27.79v.2l1.4 1.31L111 80.9v26.48c-1.13-.98-2.15-4.88-2.55-6.6v.75c0 .27-.04.49-.11.69.41 1.58 1.51 5.55 2.56 7.37.08.37.31.6.31.6s-.64.06-.81.39c-.11.22-.09.5.05.74-.28-.14-.54-.24-.73-.24-.7 0-1.02.35-1.47-.44-.49-.84-2.04-3.07-2.24-3.37.33 0 .62-.03.62-.03-.34-.32-1.09-1.76-1.41-2.38-.15.08-.31.17-.48.25.22.48.67 1.37 1.07 1.55 0 0-.63.05-1-.2-.07.37-.16.93-.16.93-.3-.01-.85-.42-.85-.42-.12.29-.31 1.12-.31 1.12-.33-.22-1.16-1.13-1.6-1.64-.23.1-.46.21-.69.31.63.52 2.21 1.89 2.6 2.68.03-.16.05-.3.08-.46.43.58 2.33 3.1 3.29 4.42.29.39.3.81.55 1.18.27.39.55.68.84.93-.07-.01-.13-.02-.18-.01-.19.02-.32.13-.35.21-.06.12-.07.28 0 .42 0 0-.48-.15-.64-.07-.15.08 0 2.33 0 2.33s1.91-1.2 1.88-1.37c-.03-.18-.43-.49-.43-.49.15-.03.27-.12.33-.24.03-.05.04-.14.02-.24.03.03.06.05.09.08.22.2.83.1.97-.05.18-.2 1.38-1.69 1.38-1.69s.09.07.14.28c0 0 .46-.59.46-1.02 0-.39-.17-.87-.4-1.26-.09-.15-.35-.39-.67-.62.34.03.66-.14.79-.39.17-.33-.17-.88-.17-.88s.03 0 .09.01c.63 1.04 1.66 2.44 2.98 3.05v-.49c.42 1.03 2.39 3.73 3.47 4.18 0 0-.37-.88-.37-1.5-.03-3.83-.04-10.2-.04-16.83.49-.95 1.01-1.98 1.41-2.76.11-.22.47-.3.57-.48.06-.11-.03-.38-.03-.38s.4-.04.57-.18c.17-.15-.18-.47.66-1.31.6-.6 1.58-.96 1.56-1.2-.01-.27-.96-1.36-.96-1.36s.4-.03.53-.28.04-.53.04-.53l.4-.07.02-1.88zM73.99 73.95c0-.29.12-.64.33-1.03l.63 1.14v2.05l-.96.89v-3.05zm0 4.3l.96-.89v3.21l-.96-.89v-1.43zm1.15 3.74l1.16-1.08v13.21c-.15-.51-.29-.87-.29-.87s-.69.48-.84.91c-.02-.81-.57-1.52-.57-1.52-.01-.03-.01-.05-.03-.08a.576.576 0 00-.58-.35v-11.3l1.15 1.08zm2.52 26.84c-.76-.33-1.35-1.25-1.35-1.25s1.14-.04 2.05.31c.91.36 1.57 1.17 1.57 1.17s-1.21.23-2.27-.23zm-3.1-15.41s.34.45.38 1.06c.03.61-.25 1.37-.25 1.37s-.4-.66-.43-1.27c-.04-.61.29-1.15.3-1.16zm1.66 2.45c-.08.79-.77 1.48-.77 1.48s-.41-.81-.32-1.59c.08-.79.65-1.55.65-1.55 0-.01.53.87.44 1.66zm2.07 4.07c.04.3-.07.68-.07.68s-.26.33-.39.64c-.12.31-.09.78-.09.78s-.72-.69-.65-1.42.87-1.59.87-1.59c.01.01.27.48.33.91zm.83.08s.29 1.09.09 1.91c-.2.82-.89 1.36-.89 1.36s-.36-.87-.16-1.69c.2-.81.96-1.58.96-1.58zm-2.16-.61v-.07c.02-.01.05-.01.07-.02a.55.55 0 01-.07.09zm-.66.12l-.25-.55c.1.02.17.07.24.17l.01.01v.37zm-.25 3.1c-.49-.11-.88.02-.88.02s-.41-.32-.65-.62c-.24-.3-.31-.58-.31-.58s.82-.13 1.55.27 1.43 1.45 1.43 1.45-.66-.43-1.14-.54zm.25-.88c-.22-.16-.47-.31-.72-.41-.59-.22-1.23-.16-1.59-.1v-1.03c.18.2.48.28.74.16.32-.15.42-.48.38-.69-.03-.18 0-.27.12-.42l1.06 2.32.01.17zm-1.73-3.95l.45.98c-.14.14-.3.28-.43.33-.16.06-.34.06-.48.17-.04.03-.08.07-.12.11v-1.46c.24-.03.44-.09.58-.13zm-.58 3.97c.25.36.61.82.89.93-.24-.04-.6.11-.89.26v-1.19zm.15 1.48s.91-.39 1.65-.29c.75.1 1.42.69 1.42.69s-1.01.35-1.75.25c-.75-.1-1.32-.65-1.32-.65zm3.25.73l.27.59c-.16.16-.35.33-.49.39-.07.03-.14.04-.21.06v-.94c.17-.03.31-.07.43-.1zm.91 3.55c-.42-.15-.9-.25-1.34-.33v-.93c.12.02.24 0 .35-.05.32-.15.42-.48.38-.69-.04-.2.01-.29.18-.49l1.34 2.94a3.86 3.86 0 00-.91-.45zm-1-4.85c-.28.12-.7-1.11-1-1.78-.31-.69-.95-1.75-.77-1.83.2-.09.46.47.78 1.17.32.71 1.25 2.33.99 2.44zm1.98.11v.92c-.17.04-.29.17-.44.25-.11.06-.3.09-.48.11l-.13-.29c.29-.18.74-.49 1.05-.99zm-.35 1.93c.07.09.2.17.35.21v1.14l-.7-1.52c.17.01.25.05.35.17zm.49-27.58l-1.1-1.02v-1.14l1.1-1.06v3.22zm0 1.25v1.14l-1.1 1.03v-3.2l1.1 1.03zm-.14 2.52v18.35c-.21.15-.51.38-.63.55.14-.42-.44-1.62-.44-1.62s-.4.28-.8.69c.03-.13.02-.28-.04-.41-.09-.2-.25-.3-.42-.34V80.9l1.16 1.09 1.17-1.08zm-1.35-4.79l-1.1 1.03v-3.97l1.1 1.67v1.27zm0 1.24v3.2l-1.1-1.03v-1.14l1.1-1.03zm-1.72 21.01c-.09.05-.24.08-.39.1l-.24-.52c.2-.18.5-.5.72-.94v1.31c-.03.02-.06.04-.09.05zm.23-21.23l-1.1-1.02v-1.49l1.1-1.15v3.66zm0 1.24v1.15l-1.1 1.02v-3.2l1.1 1.03zm-3.85 10.68c.1.19.49.59.52 1.27.03.69-.33 1.51-.33 1.51s-.4-.77-.43-1.46c-.04-.69.24-1.32.24-1.32zm-1.67 1.27c-.32-.54-.28-1.5-.28-1.5s.71.22 1.03.76c.32.54.28 1.5.28 1.5s-.71-.22-1.03-.76zm0 1.91c-.48-.37-.95-1.24-.95-1.24s.83.05 1.32.42c.48.37.67 1.14.67 1.14s-.56.05-1.04-.32zm2.16 1.39c.2-.09.49.51.75 1.07.25.55.85 1.43.58 1.53-.28.12-.59-.68-.89-1.35-.32-.68-.62-1.17-.44-1.25zm-1.9 1.61s.88-.03 1.51.29c.63.31 1.1.92 1.1.92s-.94-.01-1.57-.32c-.63-.32-1.04-.89-1.04-.89zm1.06 2.17c-.55-.25-.85-.84-.85-.84s1 .02 1.55.27.98.8.98.8-1.13.02-1.68-.23zm1.75 16.94v-10.76c.36.26.92.57 1.53.61.26.02.53.01.78-.02v2.92c-.46-.06-.78-.08-.78-.08s.37.76.78 1.28v.51c-.35.08-.71.22-.71.22s.28.25.71.56v1.48c0 .84-1.55 2.82-2.31 3.28zm2.97-2.3V110c.45.26.96.49 1.46.57l-1.46 1.48zm1.07-1.9c-.8-.2-1.5-1.01-1.5-1.01s1.31-.04 2.11.16c.8.2 1.09.63 1.09.63s-.9.42-1.7.22zm2.36.83c-.05-.15-.05-.24.02-.38l.29.63c-.11.05-.22.1-.33.16.06-.14.06-.3.02-.41zm-.69 3.47c-.11-.13-.11-.33.01-.43l.93-.81c.05-.04.11-.06.16-.07.09-.01.19.03.27.12.11.13.11.32-.01.42l-.93.81c-.12.11-.31.09-.43-.04zm.8-1.59c.05.05.04.13-.01.18l-.38.33c-.05.04-.13.03-.18-.02-.05-.05-.04-.13.01-.18l.38-.33c.03-.02.06-.03.09-.03.03.01.06.02.09.05zm.16 2.27c-.12.11-.31.08-.42-.05-.11-.13-.11-.33.01-.43l.93-.81c.05-.04.1-.06.16-.07.09-.01.2.03.27.12.11.13.11.32-.01.42l-.94.82zm1.52-.2l-.93.81c-.12.11-.31.08-.42-.05-.11-.13-.11-.32.01-.42l.93-.81c.05-.04.1-.06.16-.06.09-.01.19.03.27.11a.3.3 0 01-.02.42zm2 2.9l-1.34-.73.33-1.49 1.34.73-.33 1.49zm-1.44-6.42c.97-1.5 2.55-3.94 2.7-4.17.1-.02.19-.05.27-.1 0 0-.01.77.23 1.04l.85-.58s.06.28.13.66c-.36.5-2.44 3.34-3.47 4.72-.26.34-.47 1.22-.47 1.22s-.37-.18-.37-.5c0-.31.04-.69.04-.69s-.28.32-.76.32c0-.39.75-.81.78-1.36-.57.42-1.07.21-1.73.41-.72.22-.92.52-1.14.51-.13-.01-.25-.23-.2-.37.09-.24.97-.9 1.6-1.02.13-.01 1.3.28 1.54-.09zm-1.66-.57c-.22.06-1.18-1.95-1.96-3.66s-1.36-3.08-1.18-3.17c.2-.09.83 1.52 1.61 3.22.78 1.71 1.7 3.56 1.53 3.61zm1.42-4.24s-.07 1.17-.43 1.79c-.36.62-1.01.67-1.01.67s-.19-.63.17-1.25c.36-.6 1.27-1.2 1.27-1.21zm-2.4-.07c.11-.77.91-1.58.91-1.58s.34.71.43 1.31c.09.6.01.8.01.8s-.35.35-.51.55c-.2.26-.23.74-.23.74s-.72-1.04-.61-1.82zm-.29-26.99v-1.07c.38-.23.76-.66 1.1-1.11v3.21l-1.1-1.03zm0-2.31v-3.49c.17.27.92 1.5 1.65 1.86-.26.36-.93 1.24-1.65 1.63zm2.12-2.25c-.67-.23-1.51-1.33-1.92-1.91v-.34c0-.32.19-.56.33-.68l-.4-.14c-.15.17-.32.43-.32.77v.2l-1.2 1.29-1.18-1.79v-.44c0-.29.23-.62.42-.85l-.4-.14c-.2.26-.41.61-.41.93v.35c-.28.29-1.36 1.4-1.36 1.4s-.54-1.17-.69-1.48c.83-1.15 2.17-2.43 3.43-3.35 0 0 2.74 2.52 3.67 2.84l.03.85v2.49zm8.37-10.17c.34 0 1.47-.02 1.47-.02.15.39.83 1.04.83 1.72 0 0-.69-1.25-2.63-1.25-.48 0-.8.17-.81.17.01-.01.33-.62 1.14-.62zm3.41 1.27a.47.47 0 11-.001-.939.47.47 0 01.001.939zm0-1.01c-.38 0-.68.24-.68.54 0 .09.03.17.07.24-.45-.18-.98-.47-.98-.9 0-.16.1-.27.46-.27.3 0 .72.23 1.16.39h-.03zm-4.09 3.81c-.15.09-.27.2-.38.33-.1.12-.14.23-.21.35-.07-.12-.11-.24-.21-.35-.11-.13-.24-.25-.39-.34.21-.19.37-.43.37-.74v-4.76c0-.01 0-.03-.01-.04v-.1c0-.02.01-.04.01-.06h-1.19c-.32 0-.6.15-.79.37-.05-.17-.1-.36-.1-.59 0-.23.05-.42.1-.59.19.22.47.36.79.36h.99c.01 0 .03 0 .04-.01h.16v-.16c0-.01.01-.03.01-.04v-.99c0-.32-.15-.6-.37-.79.17-.05.36-.1.59-.1.23 0 .42.05.59.1-.22.19-.36.47-.36.79v.99c0 .01 0 .03.01.04v.16h.16c.01 0 .03.01.04.01h.99c.32 0 .6-.15.79-.37.05.17.1.36.1.59 0 .23-.05.42-.1.59-.19-.22-.47-.36-.79-.36h-.99c-.01 0-.03 0-.04.01h-.16v1.75c-.42.52-.44 1.21-.44 1.21s.16-.23.44-.42v2.42c-.02.3.14.54.35.74zm-.17-3.28c.15-.07.33-.11.53-.11 1.25 0 2.19.68 2.19.93 0 .1-.13.12-.14.12-.77 0-1.91-.42-2.58-.48v-.46zm1.24.93s.6.35 1.62.22c0 0-.41.43-.5.67-.41-.16-1.12-.89-1.12-.89zm6.95 8.37v-3.5h-.39v3.5c0 .67.16.98.16.98.23.74.71 1.89 1 2.35-1.38-.74-2.07-1.67-2.07-2.02V71.4h-.39v4.88l.07.33c-.17.25-.38.55-.53.65-.15-.1-.36-.4-.53-.65l.07-.33V71.4h-.39v4.81c0 .35-.7 1.28-2.07 2.02.29-.46.77-1.61 1-2.35 0 0 .16-.31.16-.98v-3.5h-.39v3.5c0 .92-1.11 1.92-2.6 2.72.34-.3.5-.71.7-1.06.57-.98 1.27-2.22 1.27-5.77 0-1.33-.2-2.23-.54-2.87-.1-.21-.24-.76.55-.76.41 0 1.36.73 1.36.73s-.04-.58-.52-.91a.552.552 0 01-.21-.39c0-.1.15-.33.29-.44h.05c.38 0 .68-.24.68-.54 0-.17-.1-.31-.24-.41.12.03.24.05.36.05.51 0 .7-.12 1.22-.12.63 0 1.95 1.2 2.4 1.15-.5-.32-1.32-1.51-2.55-1.51-.43 0-.82.1-1.21.1-.51 0-1.02-.47-1.57-.47-.37 0-.79.02-.85-.07-.11-.17-.01-.26.09-.4.19-.26.72-.34 1.24-.35.16-.01.31-.01.46-.01.15 0 .28.01.4.01 1.53 0 2.6.7 4.05 1.34.38.17.73.3 1.04.41-.19.17-.35.35-.39.49 0 0 .65.12.94.66 0 0-.62.07-.72.43.35.03.69.46.69.88l-.87-.27s.21.98.21 2.05c0 .55-.79 1.19-.79 2.11 0 2.9.73 4.01 1.25 4.91.2.35.37.75.71 1.06-1.49-.83-2.6-1.83-2.6-2.75zm11.33 42.13l-1.31.94v-1.61s.35-.04.74.16c.39.19.57.51.57.51zm.08-.78c-.06.13-.3.14-.53.02-.23-.11-.36-.31-.29-.44.03-.06.11-.09.21-.1.09 0 .21.02.32.07.22.13.35.33.29.45zm1.11-.56c-.11.13-.3.15-.42.05l-.93-.81a.301.301 0 01-.01-.43c.07-.08.17-.12.27-.11.06 0 .11.02.16.06l.93.81c.11.11.11.29 0 .43zm.59-.61c-.11.13-.3.15-.42.05l-.93-.81a.29.29 0 01-.01-.42c.07-.08.18-.12.27-.12.06.01.11.03.16.07l.93.81c.11.09.12.29 0 .42zm.53-.63c-.11.13-.31.15-.43.05l-.93-.81a.29.29 0 01-.01-.42c.07-.08.17-.12.27-.12.06.01.12.03.16.07l.93.81c.12.1.13.29.01.42zm-.79-1.59c.02-.03.06-.04.09-.05.03 0 .06.01.09.03l.38.33c.05.04.05.12.01.18-.05.05-.13.06-.18.02l-.38-.33c-.05-.05-.06-.13-.01-.18zm.91-.32c.05.14-.07.36-.2.37-.22.01-.42-.29-1.14-.51-.66-.2-1.16.01-1.73-.41.03.55.78.97.78 1.36-.48 0-.76-.32-.76-.32s.04.37.04.69c0 .32-.37.5-.37.5s-.21-.88-.47-1.22c-1.03-1.39-3.11-4.23-3.47-4.72.07-.38.13-.66.13-.66l.85.58c.24-.27.23-1.04.23-1.04.07.05.17.07.27.1.15.23 1.73 2.67 2.7 4.17.24.36 1.41.08 1.56.11.61.1 1.5.76 1.58 1zm7.39-18.32s.38-.24.48-.45c.11-.22.32-.41.35-1.06.03-.69-.1-1.5-.01-1.56.02-.01.12-.02.25-.02.4-.01 1.13.03 1.13.03s-.79.2-.89.26c-.11.07-.1 1.42-.48 2.16-.32.63-.53.95-.53.95l-.3-.31zm-1.8 4.29c-.26.51-.51 1-.72 1.42-.09.17-.31.23-.43.46-.11.21-.02.51-.02.51s-.41.02-.55.3c-.15.29-.06.69-.06.69s-.26.03-.38.28c-.13.26.09.4.03.52-.06.11-.12.23-.18.35V80.91l1.16 1.08 1.15-1.07v17.59zm-1.2 3.51c-.31-.16-.47-.45-.37-.66.07-.13.23-.19.41-.18.11.01.23.04.34.1.31.16.47.45.37.66-.11.19-.44.23-.75.08zm.21.73c-.08.16-.36.19-.61.05s-.4-.37-.31-.53c.04-.08.13-.13.24-.14.11-.01.25.02.38.08.24.15.38.38.3.54zm.29-1.7c-.26-.13-.4-.37-.31-.53.04-.08.13-.13.24-.14.11-.01.24.02.37.08.26.13.4.37.32.53-.09.16-.37.19-.62.06zm-3.62-24.93l-1.1 1.02v-3.22l1.1 1.06v1.14zm0 1.24v3.2l-1.1-1.03v-1.14l1.1-1.03zm-.97 30.03V80.91l1.16 1.08 1.16-1.09v23.44c-.58 1.13-1.15 2.25-1.54 3.03-.13.26-.47.4-.82.66.03-.37.04-.64.04-.64zm2.46-30.24l-1.1-1.03v-1.27l1.1-1.67v3.97zm0 1.24v1.14l-1.1 1.03v-3.2l1.1 1.03zm1.49-2.27l-1.1 1.02v-3.67l1.1 1.15v1.5zm0 1.24v3.2l-1.1-1.02v-1.15l1.1-1.03zm1.34 2.31l-.96.89v-3.21l.96.89v1.43zm0-5.72V77l-.96-.89v-2.05l.63-1.14c.21.38.33.73.33 1.03zm-7.94 1.03v-2.49l.03-.85c.92-.32 3.67-2.84 3.67-2.84 1.26.92 2.61 2.2 3.43 3.35l-.69 1.48s-1.08-1.11-1.36-1.4v-.35c0-.33-.21-.68-.41-.93l-.4.14c.19.22.42.55.42.85v.44l-1.18 1.79-1.2-1.29v-.2c0-.34-.17-.6-.32-.77l-.4.14c.14.13.33.36.33.68v.34c-.41.58-1.25 1.68-1.92 1.91zm.48.62c.72-.35 1.48-1.58 1.65-1.86v3.49c-.72-.39-1.39-1.27-1.65-1.63zm.55 4.97v-3.21c.34.45.72.87 1.1 1.11v1.07l-1.1 1.03zm1.66 30.74c-.12.24-.47.32-.78.16-.3-.15-.45-.48-.32-.72a.5.5 0 01.43-.25c.11 0 .23.02.34.08.31.16.46.49.33.73zm-.11-1.14c-.41-.21-.62-.78-.31-1.39.31-.61 1.1-.83 1.28-1.2.59-1.15 2.25-4.42 2.25-4.42s.08-.16.24-.18c.05-.01.12 0 .19.03.29.15.13.44.13.44s-1.66 3.27-2.25 4.42c-.19.37.09 1.14-.22 1.75-.31.61-.91.76-1.31.55zm.79.26c.24-.09.51-.27.7-.64.44-.87.07-1.53.29-1.95.18-.35.39-.76.62-1.22v5.43c-.01 0-.88-.88-1.61-1.62zm2.27.63v-5.74c.37-.72.75-1.47 1.1-2.16.06-.12.3-.02.44-.28.13-.25 0-.47 0-.47s.38-.16.53-.46c.14-.28-.07-.62-.07-.62s.19-.07.32-.2v13.22c-.77-.46-2.32-2.44-2.32-3.29zm4.86-15.44c-.08.16-.28.25-.94 1.54l-1.49 2.93s-.13.3-.42.15-.14-.44-.14-.44l1.49-2.93c.66-1.29.61-1.51.7-1.67.06-.11.16-.2.29-.21.08-.01.18.01.29.06.29.16.31.4.22.57zm.15-.72l-.45-.23s.18-.26.55-.98c.44-.87.39-1.99.51-2.1.12-.11.95-.27.95-.27s.35.76.33.92c-.02.16-.96.79-1.41 1.65-.38.72-.48 1.01-.48 1.01zm2.63-2.37c.01.11-.73.49-1.27.91-.51.4-.54.68-.66.9-.11.21-.07.65-.07.65l-.44-.07s.14-.35.46-.98c.38-.74 1.47-1.53 1.47-1.66-.01-.11-.31-.87-.31-.87s.82 1.02.82 1.12zm-.24-1.74c-.12.23-.41.31-.67.18s-.37-.42-.25-.65c.07-.14.21-.23.38-.24.1-.01.2.01.29.06.25.14.36.43.25.65zm-.58-1.12l.89-.63.01 1.09-.9-.46z"/><path fill="#F5D402" d="M121.51 89.67l.9.46-.01-1.09zM121.83 90.15c-.1-.05-.2-.07-.29-.06-.16.01-.3.1-.38.24-.12.23 0 .52.25.65.26.13.55.05.67-.18.12-.23.01-.52-.25-.65zM119.63 93.59c.38-.74.37-2.09.48-2.16.1-.06.89-.26.89-.26s-.73-.04-1.13-.03c-.13 0-.23.01-.25.02-.09.06.03.87.01 1.56-.03.65-.23.83-.35 1.06-.11.21-.48.45-.48.45l.31.31c-.01-.01.2-.32.52-.95z"/><path fill="#F5D402" d="M121.57 92.23c.02-.16-.33-.92-.33-.92s-.83.16-.95.27c-.11.11-.06 1.24-.51 2.1-.37.72-.55.98-.55.98l.45.23s.11-.29.47-1.01c.46-.86 1.4-1.49 1.42-1.65z"/><path fill="#F5D402" d="M121.82 92.3c.01.13-1.09.91-1.47 1.66-.32.63-.46.98-.46.98l.44.07s-.03-.45.07-.65c.11-.22.14-.5.66-.9.54-.43 1.28-.8 1.27-.91-.01-.1-.82-1.11-.82-1.11s.3.74.31.86zM119.33 95.06a.462.462 0 00-.29-.06c-.14.01-.24.1-.29.21-.08.16-.04.38-.7 1.67l-1.49 2.93s-.16.29.14.44c.29.15.42-.15.42-.15l1.49-2.93c.66-1.29.86-1.38.94-1.54.09-.18.07-.42-.22-.57zM116.9 100.99c.08-.16-.07-.39-.32-.53a.656.656 0 00-.37-.08c-.11.01-.2.06-.24.14-.08.16.06.39.31.53.26.13.54.1.62-.06zM116.54 101.93c.11-.21-.06-.5-.37-.66a.934.934 0 00-.34-.1c-.18-.01-.34.05-.41.18-.11.21.06.5.37.66.31.16.64.12.75-.08zM115.31 102.15c-.11.01-.2.06-.24.14-.08.16.06.39.31.53.26.13.53.11.61-.05.08-.16-.06-.39-.31-.53a.582.582 0 00-.37-.09zM112.94 109.62c.31-.61.03-1.38.22-1.75.59-1.15 2.25-4.42 2.25-4.42s.16-.29-.13-.44a.272.272 0 00-.19-.03c-.16.02-.24.18-.24.18s-1.66 3.27-2.25 4.42c-.19.37-.97.6-1.28 1.2-.31.61-.09 1.18.31 1.39.4.21 1 .06 1.31-.55zM111.42 110.59a.609.609 0 00-.34-.08c-.19.01-.35.09-.43.25-.12.24.02.57.32.72.3.15.65.08.78-.16.12-.25-.03-.58-.33-.73zM108.75 115.82a.567.567 0 00-.32-.07c-.09 0-.17.03-.21.1-.06.12.07.32.29.44.23.11.46.1.53-.02.07-.14-.06-.34-.29-.45zM108.4 116.51c-.39-.2-.74-.16-.74-.16v1.61l1.31-.94c0 .01-.18-.31-.57-.51zM104.79 105.13c.16-.08.32-.17.48-.25.49-.26.93-.52 1.33-.77.6-.39 1.18-.92 1.45-1.3.14-.18.25-.37.33-.58.07-.2.11-.42.11-.69V80.48c0-.27.11-.55.27-.79.34-.55.89-.96.89-.96h-28.3s.55.41.89.96c.15.25.27.52.27.8v21.07c0 .26.04.48.11.67.08.22.19.41.34.6.27.38.85.91 1.45 1.3.39.25.84.51 1.32.77.15.08.31.17.47.25.89.45 1.87.91 2.85 1.34.23.1.46.21.69.31.69.31 1.36.6 1.98.88.23.1.44.2.64.29.23.11.45.21.65.31 1.09.53 1.73.97 2.49 1.91.76-.94 1.4-1.38 2.49-1.91.2-.1.41-.2.65-.31.2-.09.42-.19.65-.3.62-.28 1.29-.58 1.97-.88.23-.1.46-.2.69-.31.97-.45 1.95-.9 2.84-1.35zm-9.29 3.94c-1.05-1.29-4.54-2.35-9.09-4.61-2.75-1.37-3.23-2.45-3.23-2.91V80.48c0-.67-.34-1.09-.34-1.09h25.32s-.34.41-.34 1.09l.01 11.92-.01 9.15c0 .46-.48 1.54-3.23 2.91-4.55 2.26-8.05 3.32-9.09 4.61z"/><path fill="#D10429" d="M87.07 90.25c1.01 1.33 3.69 2 3.73 2.01l.18-.33s-4.4-1.11-4.4-5.82c0-3.67 4.41-5.5 4.54-6.37.43 1.52-1.47 3.61-1.47 6.1 0 3.21 2.37 3.37 2.37 3.37.55 0 .78.4 1 .4.47-.05.69-.64 1.15-.64.43 0 .76.67 1.33.67s.91-.67 1.34-.67c.46 0 .68.59 1.15.64.22 0 .44-.4 1-.4 0 0 2.37-.15 2.37-3.37 0-2.48-1.91-4.58-1.47-6.1.13.88 4.54 2.7 4.54 6.37 0 4.71-4.4 5.82-4.4 5.82l.18.33c.04-.01 2.73-.67 3.73-2.01 1.75 1.58 3.85 2.14 3.89 2.15l-.01-11.92c0-.67.34-1.09.34-1.09H82.83s.34.41.34 1.09V92.4c.05-.01 2.15-.57 3.9-2.15zm5.58-9.01l2.08.99.76-2.17.77 2.17 2.08-.99-.99 2.08 2.17.77-2.17.77.99 2.07-2.08-.99-.77 2.17-.76-2.17-2.08.99.99-2.07-2.17-.77 2.17-.77-.99-2.08z"/><path fill="#0B45BB" d="M107.82 101.54l.01-9.15s-2.21 1-3.9 2.27c-.77-1.11-3.73-2.41-3.73-2.42l1.07 1.95s-1.82.09-2.79.91c-1.16.99-1.05 3.1-1.05 4.63 0 1.21.15 2.48.77 3 .83.7 1.39.76 1.39 1.58 0 .69-.53.83-1.39 1.28-1.11.58-1.06 1.37-2.7 1.37-1.64 0-1.59-.78-2.7-1.37-.86-.45-1.39-.59-1.39-1.28 0-.83.56-.88 1.39-1.58.62-.52.77-1.8.77-3 0-1.53.11-3.63-1.05-4.63-.97-.82-2.79-.91-2.79-.91l1.07-1.95s-2.96 1.31-3.73 2.42c-1.68-1.27-3.89-2.27-3.9-2.27v9.15c0 .46.48 1.54 3.23 2.91 4.55 2.27 8.04 3.32 9.09 4.61 1.05-1.29 4.54-2.35 9.09-4.61 2.76-1.37 3.24-2.45 3.24-2.91zm-17.65-.37c.53.44.6 1.23.16 1.76-.44.53-1.24.6-1.77.16a1.15 1.15 0 01-.21-.23c-.01.1-.04.2-.07.29-.26.64-.99.96-1.63.7-.64-.26-.95-1-.7-1.64.04-.1.09-.19.15-.27-.1.02-.2.02-.3.01a1.26 1.26 0 01-1.17-1.33c.04-.65.57-1.15 1.21-1.17h.13c.11.01.21.03.31.06a1.26 1.26 0 01-.12-.29c-.17-.67.24-1.35.91-1.52.08-.02.17-.03.25-.03.58-.03 1.12.36 1.27.95.03.1.03.21.03.31a1.283 1.283 0 01.83-.38 1.25 1.25 0 01.74 2.31c-.09.06-.18.1-.28.13.09.06.18.11.26.18zm1.75-6.02l1.06 1.06-1.06 1.06-1.06-1.06 1.06-1.06zm.97 2.5c.72.45.56 3.06.42 3.77-.3 1.51-1.79 1.95-1.79 1.95s.13-.7.13-2.04c0-1.93-.5-3.54-.71-4.06l1.95.38zm6.46 3.68c0 1.34.13 2.04.13 2.04s-1.49-.44-1.79-1.95c-.14-.71-.29-3.32.42-3.77l1.95-.38c-.21.51-.71 2.12-.71 4.06zm-.27-4.07l-1.06-1.06 1.06-1.06 1.06 1.06-1.06 1.06zm3.34 5.58c.05.42.19.82.41 1.18-1.28-.31-2.32-1.38-2.46-2.65-.16-1.52 1.01-2.75 2.61-2.75 1.16 0 2.22.64 2.79 1.57a3 3 0 00-.74-.09c-1.59 0-2.77 1.23-2.61 2.74zM83.18 92.4zM100.19 92.25z"/><path d="M93.81 103.97c-.88 0-1.43.19-1.43.45 0 .27.56.44 1.43.44.23 0 .5-.14.5-.44s-.27-.45-.5-.45zM96.69 104.43c0 .31.27.44.5.44.88 0 1.43-.18 1.43-.44 0-.27-.56-.45-1.43-.45-.23-.01-.5.14-.5.45zM93.64 84.86l-.99 2.07 2.08-.99.76 2.17.77-2.17 2.08.99-.99-2.07 2.17-.77-2.17-.77.99-2.08-2.08.99-.77-2.17-.76 2.17-2.08-.99.99 2.08-2.17.77 2.17.77zm.04-2.59l1.32.63.5-1.39.5 1.39 1.32-.63-.63 1.33 1.38.49-1.38.49.63 1.32-1.32-.62-.5 1.38-.49-1.38-1.32.63.63-1.32-1.38-.49 1.38-.49-.64-1.34zM90.81 92.25c-.04-.01-2.73-.67-3.73-2.01-1.76 1.58-3.85 2.14-3.9 2.15.01.01 2.22 1 3.9 2.27.77-1.1 3.73-2.41 3.73-2.41zM87 94.02l-2.53-1.58s1.61-.56 2.56-1.52c.9 1.03 2.32 1.42 2.32 1.42l-2.28 1.69-.03.03-.04-.04z"/><path d="M100.19 92.25l-.19-.33s4.4-1.11 4.4-5.82c0-3.67-4.41-5.5-4.54-6.37-.43 1.52 1.47 3.61 1.47 6.1 0 3.21-2.37 3.37-2.37 3.37-.55 0-.78.4-1 .4-.47-.05-.69-.64-1.15-.64-.43 0-.77.67-1.34.67s-.9-.67-1.33-.67c-.46 0-.68.59-1.15.64-.22 0-.44-.4-1-.4 0 0-2.37-.15-2.37-3.37 0-2.48 1.91-4.58 1.47-6.1-.13.88-4.54 2.7-4.54 6.37 0 4.71 4.4 5.82 4.4 5.82l-.18.33-1.07 1.95s1.82.09 2.79.91c1.16.99 1.05 3.1 1.05 4.63 0 1.21-.15 2.48-.77 3-.83.7-1.39.76-1.39 1.58 0 .69.53.83 1.39 1.28 1.11.58 1.05 1.37 2.7 1.37s1.6-.78 2.7-1.37c.86-.45 1.39-.59 1.39-1.28 0-.83-.56-.88-1.39-1.58-.62-.53-.77-1.8-.77-3 0-1.53-.11-3.63 1.05-4.63.97-.82 2.79-.91 2.79-.91l-1.05-1.95c.01 0 2.96 1.31 3.73 2.42 1.68-1.27 3.9-2.27 3.9-2.27-.05-.01-2.14-.57-3.89-2.15-1.01 1.33-3.69 1.99-3.74 2zm-2.13 2.48c-1.13.91-1.14 3.36-1.14 5.02 0 1.95.07 2.78.78 3.31.74.56 1.3.68 1.3 1.25 0 .5-.58.7-1.33 1.03-.85.38-.94 1.03-2.18 1.03-1.24 0-1.32-.65-2.17-1.03-.75-.33-1.33-.53-1.33-1.03 0-.57.56-.69 1.3-1.25.71-.53.78-1.36.78-3.31 0-1.66-.01-4.11-1.14-5.02-.84-.68-2.23-.89-2.23-.89l1-2.26s-4.46-1.09-4.46-5.48c0-2.73 3.23-5.04 3.23-5.04.18.39-1.47 2.79-1.47 4.76 0 2.42 1.29 3.84 3.01 3.84.33 0 .69.44 1 .44.5 0 .84-.56 1.15-.56.39 0 .65.61 1.33.61s.95-.61 1.34-.61c.31 0 .64.56 1.15.56.31 0 .67-.44 1-.44 1.72 0 3.01-1.43 3.01-3.84 0-1.97-1.66-4.37-1.47-4.76 0 0 3.23 2.32 3.23 5.04 0 4.39-4.46 5.48-4.46 5.48l1 2.26c0 .01-1.38.21-2.23.89zm8.47-2.29s-1.68.84-2.53 1.58l-.05.04-.03-.03c-.8-.92-2.28-1.69-2.28-1.69s1.42-.39 2.32-1.42c.95.96 2.57 1.52 2.57 1.52z"/><path d="M92.98 96.21l-1.06-1.06-1.06 1.06 1.06 1.06 1.06-1.06zm-1.06-.56l.55.55-.55.56-.56-.56.56-.55zM98.02 96.21l1.06 1.06 1.06-1.06-1.06-1.06-1.06 1.06zm1.06.56l-.55-.56.55-.55.56.55-.56.56zM91.65 101.33c0 1.34-.13 2.04-.13 2.04s1.49-.44 1.79-1.95c.14-.71.29-3.32-.42-3.77l-1.95-.38c.21.51.71 2.12.71 4.06zm-.02-3.48l1.04.22c.39.53.32 1.39.32 2.59 0 1.21-.91 1.67-.91 1.67 0-2.9-.3-3.6-.45-4.48zM97.69 101.41c.3 1.51 1.79 1.95 1.79 1.95s-.13-.7-.13-2.04c0-1.93.5-3.54.71-4.06l-1.95.38c-.72.45-.56 3.07-.42 3.77zm1.68-3.56c-.16.88-.46 1.58-.46 4.48 0 0-.91-.46-.91-1.67 0-1.2-.07-2.06.32-2.59l1.05-.22zM90.59 99.14c-.25-.4-.7-.61-1.14-.58a1.321 1.321 0 00-.83.38c0-.1-.01-.2-.03-.31-.15-.59-.69-.97-1.27-.95-.08 0-.17.01-.25.03-.67.17-1.08.85-.91 1.52.03.1.07.2.12.29-.1-.03-.2-.05-.31-.06h-.13c-.63.02-1.16.52-1.21 1.17-.05.69.48 1.28 1.17 1.33.1.01.2 0 .3-.01a1.26 1.26 0 00.55 1.91c.64.26 1.37-.06 1.63-.7.04-.1.06-.19.07-.29.06.08.13.16.21.23.53.44 1.32.37 1.77-.16.44-.53.37-1.32-.16-1.76-.08-.07-.17-.12-.26-.16.1-.03.19-.07.28-.13.59-.38.77-1.16.4-1.75zm-3.39-.9c.07-.02.13-.02.2-.03.45-.02.87.28.98.74.03.11.03.22.02.32-.01.09-.03.17-.06.25-.15-.05-.31-.08-.49-.08-.42 0-.8.19-1.06.48a.91.91 0 01-.18-.21.953.953 0 01-.13-.29.982.982 0 01.72-1.18zm1.59 2.62a.939.939 0 11-1.88 0 .939.939 0 111.88 0zm-2.73.86a.967.967 0 01-.9-1.04c0-.07.02-.13.03-.2a.97.97 0 011.01-.71c.11.01.21.04.31.08.08.03.15.08.21.13-.1.13-.17.27-.23.44-.13.4-.07.82.13 1.15a1.055 1.055 0 01-.56.15zm2.05 1.11c-.2.5-.77.74-1.27.54l-.18-.09a.96.96 0 01-.36-1.17.948.948 0 01.36-.43c.09.13.21.25.34.35.34.25.75.32 1.14.23.02.09.03.18.02.27.01.1-.01.2-.05.3zm1.81-.23c-.04.05-.09.1-.14.14-.35.28-.87.28-1.23-.02a.998.998 0 01-.21-.25.65.65 0 01-.09-.23c.15-.04.3-.12.44-.22.34-.25.54-.62.57-1.01a.919.919 0 01.53.22c.43.34.48.96.13 1.37zm-.09-1.83c-.09.06-.2.09-.3.12-.09.02-.17.02-.25.02a1.418 1.418 0 00-.85-1.35c.04-.08.08-.16.14-.23.07-.08.14-.15.23-.21a.962.962 0 011.34.31c.04.06.06.12.09.18.16.42 0 .91-.4 1.16zM105.04 100.1c.25 0 .5.03.74.09a3.312 3.312 0 00-2.79-1.57c-1.6 0-2.77 1.23-2.61 2.75.14 1.28 1.17 2.35 2.46 2.65a2.92 2.92 0 01-.41-1.18c-.17-1.51 1.01-2.74 2.61-2.74zm-3.18 2.79c-.5-.41-.86-.97-.93-1.58-.13-1.2.74-2.12 2.05-2.12.5 0 .98.15 1.4.41-1.55.29-2.68 1.68-2.52 3.29z"/><path fill="#FFD200" d="M99.29 91.59s4.46-1.09 4.46-5.48c0-2.73-3.23-5.04-3.23-5.04-.18.39 1.47 2.79 1.47 4.76 0 2.42-1.29 3.84-3.01 3.84-.33 0-.69.44-1 .44-.5 0-.84-.56-1.15-.56-.39 0-.66.61-1.34.61s-.94-.61-1.33-.61c-.31 0-.64.56-1.15.56-.31 0-.67-.44-1-.44-1.72 0-3.01-1.43-3.01-3.84 0-1.97 1.66-4.37 1.47-4.76 0 0-3.23 2.32-3.23 5.04 0 4.39 4.46 5.48 4.46 5.48l-1 2.26s1.38.21 2.23.89c1.13.91 1.14 3.36 1.14 5.02 0 1.95-.07 2.78-.78 3.31-.74.56-1.3.68-1.3 1.25 0 .5.58.7 1.33 1.03.85.38.93 1.03 2.17 1.03 1.24 0 1.32-.65 2.18-1.03.75-.33 1.33-.53 1.33-1.03 0-.57-.56-.69-1.3-1.25-.71-.53-.78-1.36-.78-3.31 0-1.66.01-4.11 1.14-5.02.84-.68 2.23-.89 2.23-.89l-1-2.26zm-5.48 13.28c-.88 0-1.43-.18-1.43-.44 0-.27.56-.45 1.43-.45.23 0 .5.14.5.45s-.27.44-.5.44zm3.38-.9c.88 0 1.43.19 1.43.45 0 .27-.56.44-1.43.44-.23 0-.5-.14-.5-.44s.27-.45.5-.45z"/><path fill="#FFD200" d="M94.31 84.58l-.63 1.33 1.33-.63.49 1.38.5-1.38 1.32.63-.63-1.33 1.38-.49-1.38-.49.63-1.33-1.32.63-.5-1.38-.49 1.38-1.33-.63.63 1.33-1.38.49zM89.35 92.34s-1.42-.39-2.32-1.42c-.95.97-2.56 1.52-2.56 1.52L87 94.02l.05.04.03-.03c-.01 0 2.27-1.69 2.27-1.69zM101.65 92.34s1.48.78 2.28 1.69l.03.03.05-.04c.84-.75 2.53-1.58 2.53-1.58s-1.61-.56-2.56-1.52c-.91 1.02-2.33 1.42-2.33 1.42zM92.47 96.21l-.55-.56-.56.56.56.56zM98.53 96.21l.55.56.56-.56-.56-.56zM92.99 100.66c0-1.2.07-2.06-.32-2.59l-1.04-.22c.16.88.46 1.58.46 4.48-.01.01.9-.46.9-1.67zM98.01 100.66c0 1.21.91 1.67.91 1.67 0-2.91.3-3.6.46-4.48l-1.04.22c-.4.53-.33 1.39-.33 2.59zM86.62 99.71c.05.08.11.14.18.21.26-.29.64-.48 1.06-.48.17 0 .33.03.49.08.03-.08.05-.16.06-.25a.965.965 0 00-1.2-1.03c-.52.13-.84.66-.71 1.18.01.11.06.2.12.29zM90.23 99.61a.757.757 0 00-.09-.18.966.966 0 00-1.34-.31.93.93 0 00-.23.21c-.06.07-.1.15-.14.23.36.16.65.46.78.86.05.16.08.33.07.49.08 0 .17 0 .25-.02.1-.02.2-.06.3-.12.4-.25.56-.74.4-1.16zM89.8 101.23c-.08-.07-.18-.12-.27-.16-.09-.03-.17-.05-.26-.06-.04.39-.23.76-.57 1.01-.14.1-.29.17-.44.22.02.08.05.16.09.23.05.09.12.18.21.25.36.3.87.3 1.23.02a.97.97 0 00.01-1.51zM87.01 102.02c-.14-.1-.25-.22-.34-.35-.07.05-.14.1-.19.16a.956.956 0 00.19 1.44c.05.04.11.07.18.09.5.2 1.07-.04 1.27-.54.04-.1.06-.21.06-.31.01-.09 0-.18-.02-.27-.39.1-.81.03-1.15-.22zM86.62 101.57c-.2-.34-.26-.75-.13-1.15.05-.16.13-.31.23-.44-.07-.05-.13-.1-.21-.13-.1-.04-.2-.07-.31-.08a.985.985 0 00-1.01.71c-.02.06-.03.13-.03.2-.04.54.37 1 .9 1.04.11.01.21-.01.31-.03.09-.03.17-.07.25-.12z"/><circle fill="#FFD200" cx="87.85" cy="100.86" r=".94"/><path fill="#FFD200" d="M102.99 99.18c-1.31 0-2.18.93-2.05 2.12.07.61.43 1.17.93 1.58-.16-1.61.96-2.99 2.53-3.3-.43-.24-.91-.4-1.41-.4z"/><g><path fill="none" d="M172 160V32c0-6.6-5.4-12-12-12H32c-6.6 0-12 5.4-12 12v128c0 6.6 5.4 12 12 12h128c6.6 0 12-5.4 12-12z" opacity=".4"/><path fill="none" d="M0 0v192h192V0H0z"/><path fill="#DFDFDF" d="M160 20c6.6 0 12 5.4 12 12v128c0 6.6-5.4 12-12 12H32c-6.6 0-12-5.4-12-12V32c0-6.6 5.4-12 12-12h128m0-8H32c-11.03 0-20 8.97-20 20v128c0 11.03 8.97 20 20 20h128c11.03 0 20-8.97 20-20V32c0-11.03-8.97-20-20-20z"/><path fill="#FFF" fill-opacity=".2" d="M160 20H32c-6.6 0-12 5.4-12 12v1c0-6.6 5.4-12 12-12h128c6.6 0 12 5.4 12 12v-1c0-6.6-5.4-12-12-12z"/><path fill="#212121" fill-opacity=".1" d="M160 172H32c-6.6 0-12-5.4-12-12v-1c0 6.6 5.4 12 12 12h128c6.6 0 12-5.4 12-12v1c0 6.6-5.4 12-12 12z"/><radialGradient id="a" cx="23.768" cy="23.933" r="204.625" gradientUnits="userSpaceOnUse"><stop offset="0" stop-color="#fff" stop-opacity=".1"/><stop offset="1" stop-color="#fff" stop-opacity="0"/></radialGradient><path fill="url(#a)" d="M160 172H32c-6.6 0-12-5.4-12-12V32c0-6.6 5.4-12 12-12h128c6.6 0 12 5.4 12 12v128c0 6.6-5.4 12-12 12z"/></g></svg>