<?xml version="1.0" encoding="utf-8"?>
<!-- Generator: Adobe Illustrator 23.0.3, SVG Export Plug-In . SVG Version: 6.00 Build 0)  -->
<svg version="1.1" id="Layer_1" xmlns="http://www.w3.org/2000/svg" xmlns:xlink="http://www.w3.org/1999/xlink" x="0px" y="0px"
	 viewBox="0 0 192 192" style="enable-background:new 0 0 192 192;" xml:space="preserve">
<style type="text/css">
	.st0{fill:#CF142B;}
	.st1{fill:none;}
	.st2{fill:#DFDFDF;}
	.st3{fill:#FFFFFF;fill-opacity:0.2;}
	.st4{fill:#212121;fill-opacity:0.1;}
	.st5{fill:#FFFFFF;}
	.st6{fill:#012A87;}
	.st7{fill:#DC171D;}
	.st8{fill:#FFFF00;}
	.st9{fill:#F9D90F;}
	.st10{fill:#62AFE1;}
	.st11{fill:#7E7E7E;}
	.st12{fill:#F9B60F;}
	.st13{fill:#BC715F;}
	.st14{fill:#008830;}
</style>
<path class="st0" d="M160,20H32c-6.6,0-12,5.4-12,12v92v36c0,6.6,5.4,12,12,12h128c6.6,0,12-5.4,12-12v-36V32
	C172,25.4,166.6,20,160,20z"/>
<g>
	<path class="st1" d="M172,160V32c0-6.6-5.4-12-12-12H32c-6.6,0-12,5.4-12,12v128c0,6.6,5.4,12,12,12h128
		C166.6,172,172,166.6,172,160z"/>
	<path class="st1" d="M0,0v192h192V0H0z"/>
	<path class="st2" d="M160,20c6.6,0,12,5.4,12,12v128c0,6.6-5.4,12-12,12H32c-6.6,0-12-5.4-12-12V32c0-6.6,5.4-12,12-12H160 M160,12
		H32c-11,0-20,9-20,20v128c0,11,9,20,20,20h128c11,0,20-9,20-20V32C180,21,171,12,160,12z"/>
	<path class="st3" d="M160,20H32c-6.6,0-12,5.4-12,12v1c0-6.6,5.4-12,12-12h128c6.6,0,12,5.4,12,12v-1C172,25.4,166.6,20,160,20z"/>
	<path class="st4" d="M160,172H32c-6.6,0-12-5.4-12-12v-1c0,6.6,5.4,12,12,12h128c6.6,0,12-5.4,12-12v1C172,166.6,166.6,172,160,172
		z"/>
	<path class="st5" d="M160,172H32c-6.6,0-12-5.4-12-12V32c0-6.6,5.4-12,12-12h128c6.6,0,12,5.4,12,12v128
		C172,166.6,166.6,172,160,172z"/>
</g>
<g>
	<path class="st5" d="M172,32v60H20V38c0-5.3,2.4-10.2,6.1-13.4C29.3,21.7,33.4,20,38,20h122C166.6,20,172,25.4,172,32z"/>
	<path class="st6" d="M172,32v128c0,6.6-5.4,12-12,12H32c-3,0-5.8-1.2-8-3c-2.5-2.2-4-5.4-4-9V32c0-3.6,1.6-6.8,4-9
		c2.1-1.9,4.9-3,8-3h128C166.6,20,172,25.4,172,32z"/>
	<path class="st7" d="M172,32v64H20V32c0-3.6,1.6-6.8,4-9c2.1-1.9,4.9-3,8-3h128C166.6,20,172,25.4,172,32z"/>
	<path class="st5" d="M121.3,96L24,169c-2.5-2.2-4-5.4-4-9V32c0-3.6,1.6-6.8,4-9l2,1.5L116,92L121.3,96z"/>
	<path class="st8" d="M71.2,77.4l0-1.2c0,0-0.6-1,0.1-2.1c0,0-1.6-0.8-1.2-2.1c0,0-1.4-0.4-1.3-1.9c0,0-1.5-0.1-1.7-1.4
		c0,0-1.5,0.2-2.2-1c0,0-1.5,0.3-1.9-0.8c0,0-1.4,0.5-2.3-0.7c0,0-1.5,0.6-2.2-0.5c-0.6,1.1-2.2,0.5-2.2,0.5
		c-0.8,1.2-2.3,0.7-2.3,0.7c-0.4,1-1.9,0.7-1.9,0.7c-0.7,1.3-2.2,1-2.2,1c-0.1,1.3-1.7,1.4-1.7,1.4c0.1,1.6-1.3,1.9-1.3,1.9
		c0.4,1.3-1.2,2.1-1.2,2.1c0.8,1.1,0.1,2.1,0.1,2.1l0,1.1L71.2,77.4L71.2,77.4z"/>
	<g>
		<path class="st9" d="M71.2,77.4l0-1.2c0,0-0.6-1,0.1-2.1c0,0-1.6-0.8-1.2-2.1c0,0-1.4-0.4-1.3-1.9c0,0-1.5-0.1-1.7-1.4
			c0,0-1.5,0.3-2.2-1c0,0-1.5,0.3-1.9-0.8c0,0-1.4,0.5-2.3-0.7c0,0-1.5,0.6-2.2-0.5c-0.6,1.2-2.2,0.5-2.2,0.5
			c-0.8,1.2-2.3,0.7-2.3,0.7c-0.4,1-1.9,0.7-1.9,0.7c-0.7,1.3-2.2,1-2.2,1c-0.1,1.3-1.7,1.4-1.7,1.4c0.1,1.6-1.3,1.9-1.3,1.9
			c0.4,1.3-1.2,2.1-1.2,2.1c0.8,1.1,0.1,2.1,0.1,2.1l0,1.1L71.2,77.4L71.2,77.4L71.2,77.4z"/>
		<path d="M71.4,74.1L71.4,74.1c-0.1,0-1.1-0.6-1.3-1.5c0-0.2,0-0.4,0-0.6l0,0l0,0c0,0-1.1-0.3-1.3-1.4c0-0.1,0-0.3,0-0.5v0l0,0
			c0,0-1.5-0.1-1.6-1.4l0,0l0,0c0,0-1.5,0.2-2.2-1l0,0h0c0,0-1.5,0.3-1.8-0.7l0,0l0,0c0,0-1.4,0.5-2.3-0.7l0,0l0,0
			c0,0-1.5,0.6-2.1-0.5l0-0.1l0,0.1c-0.6,1.1-2.1,0.5-2.1,0.5l0,0l0,0c-0.8,1.2-2.2,0.7-2.2,0.7l0,0l0,0c-0.4,1-1.8,0.7-1.8,0.7h0
			l0,0c-0.6,1.2-2.1,1-2.1,1l0,0v0.1c-0.1,1.2-1.6,1.4-1.6,1.4h0v0c0,0,0,0,0,0.1c0.1,1.4-1.2,1.8-1.3,1.8l0,0l0,0c0,0,0,0.1,0,0.1
			c0.2,1.2-1.2,1.9-1.2,1.9l0,0l0,0c0.5,0.8,0.4,1.5,0.2,1.8c0,0.1-0.1,0.2-0.1,0.2v0l0,1.1l25.2,0.1h0v0h0l0-1.2l0,0
			c0,0,0,0-0.1-0.1C71,75.8,70.8,75,71.4,74.1L71.4,74.1z M71.1,76c0,0.1,0.1,0.1,0.1,0.2l0,1.1l-25.1-0.1l0-1c0,0,0.1-0.1,0.1-0.3
			c0.1-0.4,0.3-1.1-0.2-1.8c0.2-0.1,1.4-0.9,1.2-2c0,0,0-0.1,0-0.1c0.2-0.1,1.4-0.5,1.3-1.9v0c0.3,0,1.5-0.3,1.6-1.4
			c0.3,0,1.6,0.1,2.2-1c0.2,0,1.5,0.2,1.9-0.7c0.2,0.1,1.5,0.4,2.3-0.7c0.2,0.1,1.5,0.5,2.1-0.5c0.6,1,1.9,0.6,2.1,0.5
			c0.8,1.1,2,0.8,2.3,0.7c0.4,0.9,1.7,0.8,1.9,0.7c0.6,1.1,1.9,1,2.2,1c0.2,1.2,1.4,1.4,1.7,1.4c0,0.2,0,0.3,0,0.4
			c0.2,1.1,1.1,1.4,1.3,1.5c0,0.2-0.1,0.4,0,0.6c0.1,0.8,1,1.4,1.2,1.5C70.7,74.9,70.9,75.7,71.1,76z"/>
	</g>
	<path class="st7" d="M70.6,75.9c-4-0.4-8.5-1.3-12,0.6c-2.4-1.4-5.6-1.3-8.4-1c-1.5,0.3-3.3,0.3-4.9,0.5l-0.2,0
		c-2.9,0.2-5.5-0.7-8-1.8c0.8,4.5,1.7,9.1,2.1,13.8c0.9,7-3.3,12.8-1.6,19.7c1,3.3,4.7,5.2,8,5.6c3.2,0.2,6.6,0.7,9.5,1.4
		c0.6,0.1,1.2,0.4,1.6,0.6c0.8,0.3,1.4,0.8,2,1.4c1.8-1.9,4.4-2.4,7-2.7c4.7-0.5,10.5-0.3,13.4-4.5v-0.2c1.6-2.4,1.4-5.9,0.7-8.6
		c0-0.9-0.3-1.7-0.4-2.6C76.5,90.5,79,82,80.2,74.4c-1.5,0.8-3.2,1.2-4.9,1.6c-1.3,0.2-2.8,0.1-4.2,0L70.6,75.9L70.6,75.9z"/>
	<path class="st10" d="M76.5,97.6c0,0.5,0.3,0.9,0.3,1.4c0.5,3.3,1.1,7.7-2.3,9.8c-3.8,2.4-8.7,1.4-13.1,2.6c-0.9,0.2-2.1,1-2.7,1.6
		c-0.4-0.3-0.8-0.7-1.3-0.9c-3.6-1.9-8.3-1.3-12.3-2.3c-2-0.6-4.2-2.2-4.7-4.3c-1.3-5.5,1.8-10.1,1.5-15.6c-0.2-4.1-0.9-8.1-1.9-12
		c3.2,1.5,6.8,1.7,10.4,1c2.6-0.4,5.7-0.4,8.2,0.7c1.4-0.6,3-0.8,4.4-1c2.8,0.3,5.8,0.8,8.7,0.8c1.9-0.1,3.7-0.7,5.3-1.4
		C76.1,84.5,74.2,91.2,76.5,97.6L76.5,97.6z"/>
	<path class="st5" d="M70.8,98.9l0-6h0.7l-9.2-6l0-3.1h0.9l-4.6-3.3l-4.6,3.3h0.9l0,3.1l-9.2,6l0.7,0l0,6L70.8,98.9L70.8,98.9z"/>
	<path d="M60.2,98.7h-1.3l-0.6,0H57l0,0.1h1.4l0.5,0L60.2,98.7L60.2,98.7z M60.2,98.7h-1.3l-0.6,0H57l0,0.1h1.4l0.5,0L60.2,98.7
		L60.2,98.7z M71,93.1h1.2L70.5,92l-8-5.2l0-2.8h1.3l-5.2-3.7L53.3,84h1.3l0,2.8l-8,5.2L45,93.1l1.2,0l0,2.9l0,2.8v0.3l7.1,0h10.7
		l6.7,0h0.1L71,99l0,0v-0.2l0-2.8L71,93.1z M46.6,92.7l-0.3,0l1-0.7l7.7-5l0-3.2v-0.2h-0.5l4-2.9l4,2.9h-0.5v0.2l0,3.2l7.7,5
		l1.1,0.7h-0.3l0,3.3l0,2.7H58.9l-0.6,0H46.6l0-2.7L46.6,92.7z M60.2,98.7h-1.3l-0.6,0H57l0,0.1h1.4l0.5,0L60.2,98.7L60.2,98.7z"/>
	<path class="st5" d="M73.6,106.8l0,1.9l-29.7,0l0-1.9L73.6,106.8L73.6,106.8z"/>
	<path d="M73.7,106.8l0-0.2l-0.3-0.1v0.1h-3.3l-6,0h-0.2l-10.3,0h-0.2l-6.2,0h-3.5l0,2.3l30.1,0v-2.1H73.7z M44.1,108.5l0-1.5
		l29.3,0l0,1.5L44.1,108.5z"/>
	<path class="st5" d="M45.9,106.7l0-6.4l1.2,0l-0.1,6.5l0.1-6.4l-1.7,0V99l26.6,0l0,1.4h-1.6l0,6.5l-0.1-6.5h1.2l0,6.4L45.9,106.7z"
		/>
	<path d="M48.8,101.4l0,3h2v-3H48.8z M49.2,104l0-2.2h1.2l0,2.2H49.2z M48.8,101.4l0,3h2v-3H48.8z M49.2,104l0-2.2h1.2l0,2.2H49.2z
		 M48.8,101.4l0,3h2v-3H48.8z M49.2,104l0-2.2h1.2l0,2.2H49.2z M48.8,101.4l0,3h2v-3H48.8z M49.2,104l0-2.2h1.2l0,2.2H49.2z
		 M48.8,101.4l0,3h2v-3H48.8z M49.2,104l0-2.2h1.2l0,2.2H49.2z M48.8,101.4l0,3h2v-3H48.8z M49.2,104l0-2.2h1.2l0,2.2H49.2z
		 M51.8,100.5h-4l0,4.8h3.8v-0.2l0.2,0L51.8,100.5z M48.2,105l0-4.1h3.2l0,4.1L48.2,105z M48.8,104.4h2v-3h-2L48.8,104.4z
		 M50.4,101.8l0,2.2h-1.2l0-2.2H50.4z M48.8,101.4l0,3h2v-3H48.8z M49.2,104l0-2.2h1.2l0,2.2H49.2z M48.8,101.4l0,3h2v-3H48.8z
		 M49.2,104l0-2.2h1.2l0,2.2H49.2z M48.8,101.4l0,3h2v-3H48.8z M49.2,104l0-2.2h1.2l0,2.2H49.2z M48.8,101.4l0,3h2v-3H48.8z
		 M49.2,104l0-2.2h1.2l0,2.2H49.2z M57.1,97.7h-0.6c0,0.1,0,0.3-0.1,0.4h0.8C57.1,98,57.1,97.9,57.1,97.7z M62.3,97.7H60
		c0,0.1,0,0.3-0.1,0.4h0.8l0.4,0h1.3C62.4,98,62.3,97.9,62.3,97.7z M48.8,101.4l0,3h2v-3H48.8z M49.2,104l0-2.2h1.2l0,2.2H49.2z
		 M48.8,101.4l0,3h2v-3H48.8z M49.2,104l0-2.2h1.2l0,2.2H49.2z M48.8,101.4l0,3h2v-3H48.8z M49.2,104l0-2.2h1.2l0,2.2H49.2z
		 M48.8,101.4l0,3h2v-3H48.8z M49.2,104l0-2.2h1.2l0,2.2H49.2z M51.8,100.5h-4l0,4.8h3.8v-0.2l0.2,0L51.8,100.5z M48.2,105l0-4.1
		h3.2l0,4.1L48.2,105z M48.8,104.4h2v-3h-2L48.8,104.4z M50.4,101.8l0,2.2h-1.2l0-2.2H50.4z M48.8,101.4l0,3h2v-3H48.8z M49.2,104
		l0-2.2h1.2l0,2.2H49.2z M48.8,101.4l0,3h2v-3H48.8z M49.2,104l0-2.2h1.2l0,2.2H49.2z M57.1,97.7h-0.6c0,0.1,0,0.3-0.1,0.4h0.8
		C57.1,98,57.1,97.9,57.1,97.7z M62.3,97.7H60c0,0.1,0,0.3-0.1,0.4h0.8l0.4,0h1.3C62.4,98,62.3,97.9,62.3,97.7z M48.8,101.4l0,3h2
		v-3H48.8z M49.2,104l0-2.2h1.2l0,2.2H49.2z M48.8,101.4l0,3h2v-3H48.8z M49.2,104l0-2.2h1.2l0,2.2H49.2z M51.8,100.5h-4l0,4.8h3.8
		v-0.2l0.2,0L51.8,100.5z M48.2,105l0-4.1h3.2l0,4.1L48.2,105z M48.8,104.4h2v-3h-2L48.8,104.4z M50.4,101.8l0,2.2h-1.2l0-2.2H50.4z
		 M72.1,100.5l0-1.8h-1.3l-6.7,0h-5.3l-0.5,0h-4.9l-6.9,0h-1.3v1.8l0.5,0l0,6.1v0.1h0.4v-0.1l0-6.1l0.8,0l-0.1,6v0.2h0.4v-0.2
		l0.1-6.4v-0.1h-1.6v0h-0.1v-1l7.8,0h0.4l9.9,0h0.4l7.6,0l0,1H70l0.1,6.5v0.2h0.4v-0.2l0-6.1h0.8l0,6.1v0.1h0.4v-0.1l0-6.1H72.1z
		 M47.8,100.5l0,4.8h3.8v-0.2l0.2,0l0-4.7H47.8z M48.2,105l0-4.1h3.2l0,4.1L48.2,105z M48.8,104.4h2v-3h-2L48.8,104.4z M50.4,101.8
		l0,2.2h-1.2l0-2.2H50.4z M48.8,101.4l0,3h2v-3H48.8z M49.2,104l0-2.2h1.2l0,2.2H49.2z M48.8,101.4l0,3h2v-3H48.8z M49.2,104l0-2.2
		h1.2l0,2.2H49.2z M51.8,100.5h-4l0,4.8h3.8v-0.2l0.2,0L51.8,100.5z M48.2,105l0-4.1h3.2l0,4.1L48.2,105z M48.8,104.4h2v-3h-2
		L48.8,104.4z M50.4,101.8l0,2.2h-1.2l0-2.2H50.4z M48.8,101.4l0,3h2v-3H48.8z M49.2,104l0-2.2h1.2l0,2.2H49.2z M48.8,101.4l0,3h2
		v-3H48.8z M49.2,104l0-2.2h1.2l0,2.2H49.2z M62.3,97.7H60c0,0.1,0,0.3-0.1,0.4h0.8l0.4,0h1.3C62.4,98,62.3,97.9,62.3,97.7z
		 M57.1,97.7h-0.6c0,0.1,0,0.3-0.1,0.4h0.8C57.1,98,57.1,97.9,57.1,97.7z M48.8,101.4l0,3h2v-3H48.8z M49.2,104l0-2.2h1.2l0,2.2
		H49.2z M48.8,101.4l0,3h2v-3H48.8z M49.2,104l0-2.2h1.2l0,2.2H49.2z M48.8,101.4l0,3h2v-3H48.8z M49.2,104l0-2.2h1.2l0,2.2H49.2z
		 M48.8,101.4l0,3h2v-3H48.8z M49.2,104l0-2.2h1.2l0,2.2H49.2z M51.8,100.5h-4l0,4.8h3.8v-0.2l0.2,0L51.8,100.5z M48.2,105l0-4.1
		h3.2l0,4.1L48.2,105z M48.8,104.4h2v-3h-2L48.8,104.4z M50.4,101.8l0,2.2h-1.2l0-2.2H50.4z M48.8,101.4l0,3h2v-3H48.8z M49.2,104
		l0-2.2h1.2l0,2.2H49.2z M48.8,101.4l0,3h2v-3H48.8z M49.2,104l0-2.2h1.2l0,2.2H49.2z M48.8,101.4l0,3h2v-3H48.8z M49.2,104l0-2.2
		h1.2l0,2.2H49.2z M48.8,101.4l0,3h2v-3H48.8z M49.2,104l0-2.2h1.2l0,2.2H49.2z M68.2,101.5h-1.8v0.2l-0.2,0l0,2.8h2L68.2,101.5z
		 M66.6,104l0-2.2h1.2l0,2.2H66.6z M68.2,101.5h-1.8v0.2l-0.2,0l0,2.8h2L68.2,101.5z M66.6,104l0-2.2h1.2l0,2.2H66.6z M68.2,101.5
		h-1.8v0.2l-0.2,0l0,2.8h2L68.2,101.5z M66.6,104l0-2.2h1.2l0,2.2H66.6z M68.2,101.5h-1.8v0.2l-0.2,0l0,2.8h2L68.2,101.5z M66.6,104
		l0-2.2h1.2l0,2.2H66.6z M68.2,101.5h-1.8v0.2l-0.2,0l0,2.8h2L68.2,101.5z M66.6,104l0-2.2h1.2l0,2.2H66.6z M68.2,101.5h-1.8v0.2
		l-0.2,0l0,2.8h2L68.2,101.5z M66.6,104l0-2.2h1.2l0,2.2H66.6z M69.2,100.5l-4,0l0,4.8h4L69.2,100.5z M65.7,105l0-4.1h3.2l0,4.1
		H65.7z M66.4,101.5v0.2l-0.2,0l0,2.8h2l0-3H66.4z M66.6,104l0-2.2h1.2l0,2.2H66.6z M68.2,101.5h-1.8v0.2l-0.2,0l0,2.8h2L68.2,101.5
		z M66.6,104l0-2.2h1.2l0,2.2H66.6z M68.2,101.5h-1.8v0.2l-0.2,0l0,2.8h2L68.2,101.5z M66.6,104l0-2.2h1.2l0,2.2H66.6z M68.2,101.5
		h-1.8v0.2l-0.2,0l0,2.8h2L68.2,101.5z M66.6,104l0-2.2h1.2l0,2.2H66.6z M68.2,101.5h-1.8v0.2l-0.2,0l0,2.8h2L68.2,101.5z M66.6,104
		l0-2.2h1.2l0,2.2H66.6z M68.2,101.5h-1.8v0.2l-0.2,0l0,2.8h2L68.2,101.5z M66.6,104l0-2.2h1.2l0,2.2H66.6z M48.8,101.4l0,3h2v-3
		H48.8z M49.2,104l0-2.2h1.2l0,2.2H49.2z M48.8,101.4l0,3h2v-3H48.8z M49.2,104l0-2.2h1.2l0,2.2H49.2z M48.8,101.4l0,3h2v-3H48.8z
		 M49.2,104l0-2.2h1.2l0,2.2H49.2z M48.8,101.4l0,3h2v-3H48.8z M49.2,104l0-2.2h1.2l0,2.2H49.2z M48.8,101.4l0,3h2v-3H48.8z
		 M49.2,104l0-2.2h1.2l0,2.2H49.2z M48.8,101.4l0,3h2v-3H48.8z M49.2,104l0-2.2h1.2l0,2.2H49.2z M51.8,100.5h-4l0,4.8h3.8v-0.2
		l0.2,0L51.8,100.5z M48.2,105l0-4.1h3.2l0,4.1L48.2,105z M48.8,104.4h2v-3h-2L48.8,104.4z M50.4,101.8l0,2.2h-1.2l0-2.2H50.4z
		 M48.8,101.4l0,3h2v-3H48.8z M49.2,104l0-2.2h1.2l0,2.2H49.2z M48.8,101.4l0,3h2v-3H48.8z M49.2,104l0-2.2h1.2l0,2.2H49.2z
		 M48.8,101.4l0,3h2v-3H48.8z M49.2,104l0-2.2h1.2l0,2.2H49.2z M48.8,101.4l0,3h2v-3H48.8z M49.2,104l0-2.2h1.2l0,2.2H49.2z
		 M48.8,101.4l0,3h2v-3H48.8z M49.2,104l0-2.2h1.2l0,2.2H49.2z M68.2,101.5h-1.8v0.2l-0.2,0l0,2.8h2L68.2,101.5z M66.6,104l0-2.2
		h1.2l0,2.2H66.6z M48.8,101.4l0,3h2v-3H48.8z M49.2,104l0-2.2h1.2l0,2.2H49.2z M50.8,97.2l0-1.2l0-1.8H49v0.2l-0.2,0l0,1.6v1.2
		L50.8,97.2z M49.1,94.6h1.2l0,1.4v0.8h-1.2V96L49.1,94.6z M50.8,97.2l0-1.2l0-1.8H49v0.2l-0.2,0l0,1.6v1.2L50.8,97.2z M49.1,94.6
		h1.2l0,1.4v0.8h-1.2V96L49.1,94.6z M50.8,97.2l0-1.2l0-1.8H49v0.2l-0.2,0l0,1.6v1.2L50.8,97.2z M49.1,94.6h1.2l0,1.4v0.8h-1.2V96
		L49.1,94.6z M50.8,97.2l0-1.2l0-1.8H49v0.2l-0.2,0l0,1.6v1.2L50.8,97.2z M49.1,94.6h1.2l0,1.4v0.8h-1.2V96L49.1,94.6z M50.8,97.2
		l0-1.2l0-1.8H49v0.2l-0.2,0l0,1.6v1.2L50.8,97.2z M49.1,94.6h1.2l0,1.4v0.8h-1.2V96L49.1,94.6z M50.8,97.2l0-1.2l0-1.8H49v0.2
		l-0.2,0l0,1.6v1.2L50.8,97.2z M49.1,94.6h1.2l0,1.4v0.8h-1.2V96L49.1,94.6z M51.8,98l0-2l0-2.8l-3.9,0l0,2.8l0,2.1h3.6v0.1L51.8,98
		z M48.2,97.7l0-1.7l0-2.4h3.2l0,2.4l0,1.7H48.2z M50.8,94.2H49v0.2l-0.2,0l0,1.6v1.2l2,0l0-1.2L50.8,94.2z M50.4,96.8h-1.2V96
		l0-1.4h1.2l0,1.4V96.8z M50.8,97.2l0-1.2l0-1.8H49v0.2l-0.2,0l0,1.6v1.2L50.8,97.2z M49.1,94.6h1.2l0,1.4v0.8h-1.2V96L49.1,94.6z
		 M50.8,97.2l0-1.2l0-1.8H49v0.2l-0.2,0l0,1.6v1.2L50.8,97.2z M49.1,94.6h1.2l0,1.4v0.8h-1.2V96L49.1,94.6z M50.8,97.2l0-1.2l0-1.8
		H49v0.2l-0.2,0l0,1.6v1.2L50.8,97.2z M49.1,94.6h1.2l0,1.4v0.8h-1.2V96L49.1,94.6z M50.8,97.2l0-1.2l0-1.8H49v0.2l-0.2,0l0,1.6v1.2
		L50.8,97.2z M49.1,94.6h1.2l0,1.4v0.8h-1.2V96L49.1,94.6z M50.8,97.2l0-1.2l0-1.8H49v0.2l-0.2,0l0,1.6v1.2L50.8,97.2z M49.1,94.6
		h1.2l0,1.4v0.8h-1.2V96L49.1,94.6z M66.4,94.2v0.2h-0.2l0,1.6v1.2h2v-3H66.4z M67.8,96.8h-1.2V96l0-1.4h1.3V96.8z M66.4,94.2v0.2
		h-0.2l0,1.6v1.2h2v-3H66.4z M67.8,96.8h-1.2V96l0-1.4h1.3V96.8z M66.4,94.2v0.2h-0.2l0,1.6v1.2h2v-3H66.4z M67.8,96.8h-1.2V96
		l0-1.4h1.3V96.8z M66.4,94.2v0.2h-0.2l0,1.6v1.2h2v-3H66.4z M67.8,96.8h-1.2V96l0-1.4h1.3V96.8z M66.4,94.2v0.2h-0.2l0,1.6v1.2h2
		v-3H66.4z M67.8,96.8h-1.2V96l0-1.4h1.3V96.8z M66.4,94.2v0.2h-0.2l0,1.6v1.2h2v-3H66.4z M67.8,96.8h-1.2V96l0-1.4h1.3V96.8z
		 M69.2,96l0-2.7h-4l0,2.7l0,2.1H69v-0.2h0.2L69.2,96z M68.8,97.7h-3.2V96l0-2.3h3.2l0,2.3V97.7z M66.4,94.4h-0.2l0,1.6v1.2h2v-3
		h-1.8V94.4z M67.8,94.6v2.2h-1.2V96l0-1.4H67.8z M66.4,94.2v0.2h-0.2l0,1.6v1.2h2v-3H66.4z M67.8,96.8h-1.2V96l0-1.4h1.3V96.8z
		 M66.4,94.2v0.2h-0.2l0,1.6v1.2h2v-3H66.4z M67.8,96.8h-1.2V96l0-1.4h1.3V96.8z M66.4,94.2v0.2h-0.2l0,1.6v1.2h2v-3H66.4z
		 M67.8,96.8h-1.2V96l0-1.4h1.3V96.8z M66.4,94.2v0.2h-0.2l0,1.6v1.2h2v-3H66.4z M67.8,96.8h-1.2V96l0-1.4h1.3V96.8z M66.4,94.2v0.2
		h-0.2l0,1.6v1.2h2v-3H66.4z M67.8,96.8h-1.2V96l0-1.4h1.3V96.8z M62.2,94.2h-1.8v0.2h-0.2l0,1.6v1.2h2V96L62.2,94.2z M61.8,96.8
		h-1.2V96l0-1.4h1.2l0,1.4V96.8z M62.2,94.2h-1.8v0.2h-0.2l0,1.6v1.2h2V96L62.2,94.2z M61.8,96.8h-1.2V96l0-1.4h1.2l0,1.4V96.8z
		 M62.2,94.2h-1.8v0.2h-0.2l0,1.6v1.2h2V96L62.2,94.2z M61.8,96.8h-1.2V96l0-1.4h1.2l0,1.4V96.8z M62.2,94.2h-1.8v0.2h-0.2l0,1.6
		v1.2h2V96L62.2,94.2z M61.8,96.8h-1.2V96l0-1.4h1.2l0,1.4V96.8z M62.2,94.2h-1.8v0.2h-0.2l0,1.6v1.2h2V96L62.2,94.2z M61.8,96.8
		h-1.2V96l0-1.4h1.2l0,1.4V96.8z M62.2,94.2h-1.8v0.2h-0.2l0,1.6v1.2h2V96L62.2,94.2z M61.8,96.8h-1.2V96l0-1.4h1.2l0,1.4V96.8z
		 M63.2,96.7V96l0-2.7l-3.9,0l0,2.8v0.7l0,1.4h1.5l0.4,0H63v-0.2h0.2L63.2,96.7z M59.6,97.7V96l0-2.3h3.2l0,2.3v0.7l0,0.7v0.3H59.6z
		 M60.4,94.2v0.2h-0.2l0,1.6v1.2h2V96l0-1.8H60.4z M61.8,96.8h-1.2V96l0-1.4h1.2l0,1.4V96.8z M62.2,94.2h-1.8v0.2h-0.2l0,1.6v1.2h2
		V96L62.2,94.2z M61.8,96.8h-1.2V96l0-1.4h1.2l0,1.4V96.8z M62.2,94.2h-1.8v0.2h-0.2l0,1.6v1.2h2V96L62.2,94.2z M61.8,96.8h-1.2V96
		l0-1.4h1.2l0,1.4V96.8z M62.2,94.2h-1.8v0.2h-0.2l0,1.6v1.2h2V96L62.2,94.2z M61.8,96.8h-1.2V96l0-1.4h1.2l0,1.4V96.8z M62.2,94.2
		h-1.8v0.2h-0.2l0,1.6v1.2h2V96L62.2,94.2z M61.8,96.8h-1.2V96l0-1.4h1.2l0,1.4V96.8z M62.2,94.2h-1.8v0.2h-0.2l0,1.6v1.2h2V96
		L62.2,94.2z M61.8,96.8h-1.2V96l0-1.4h1.2l0,1.4V96.8z M57.2,94.2h-1.8v0.2h-0.2l0,1.6v1.2h0.3l0.8,0h0.9V96L57.2,94.2z M56.8,96.8
		h-0.3l-1,0V96l0-1.4h1.2l0,1.4V96.8z M57.2,94.2h-1.8v0.2h-0.2l0,1.6v1.2h0.3l0.8,0h0.9V96L57.2,94.2z M56.8,96.8h-0.3l-1,0V96
		l0-1.4h1.2l0,1.4V96.8z M55.8,97.7c0,0.2,0.1,0.3,0.1,0.4h0c0.1-0.1,0.1-0.3,0.1-0.4H55.8z M57.2,94.2h-1.8v0.2h-0.2l0,1.6v1.2h0.3
		l0.8,0h0.9V96L57.2,94.2z M56.8,96.8h-0.3l-1,0V96l0-1.4h1.2l0,1.4V96.8z M57.2,94.2h-1.8v0.2h-0.2l0,1.6v1.2h0.3l0.8,0h0.9V96
		L57.2,94.2z M56.8,96.8h-0.3l-1,0V96l0-1.4h1.2l0,1.4V96.8z M55.8,97.7c0,0.2,0.1,0.3,0.1,0.4h0c0.1-0.1,0.1-0.3,0.1-0.4H55.8z
		 M55.4,97.7h-0.5c0,0.1,0,0.3-0.1,0.4h0.6C55.5,98,55.4,97.9,55.4,97.7z M57.2,94.2h-1.8v0.2h-0.2l0,1.6v1.2h0.3l0.8,0h0.9V96
		L57.2,94.2z M56.8,96.8h-0.3l-1,0V96l0-1.4h1.2l0,1.4V96.8z M57.2,94.2h-1.8v0.2h-0.2l0,1.6v1.2h0.3l0.8,0h0.9V96L57.2,94.2z
		 M56.8,96.8h-0.3l-1,0V96l0-1.4h1.2l0,1.4V96.8z M55.9,98.1L55.9,98.1c0.1-0.1,0.2-0.3,0.2-0.4h-0.3C55.8,97.9,55.9,98,55.9,98.1z
		 M54.9,97.7c0,0.1,0,0.3-0.1,0.4h0.6c0-0.1-0.1-0.2-0.1-0.4H54.9z M58.2,96.8V96l0-2.7l-4,0l0,2.8v0.7l0,1.4h4L58.2,96.8z
		 M57.8,97.7h-3.2V96l0-2.3h3.2l0,2.3V97.7z M55.4,94.2v0.2h-0.2l0,1.6v1.2h0.3l0.8,0h0.9V96l0-1.8H55.4z M56.8,96.8h-0.3l-1,0V96
		l0-1.4h1.2l0,1.4V96.8z M55.4,97.7h-0.5c0,0.1,0,0.3-0.1,0.4h0.6C55.5,98,55.4,97.9,55.4,97.7z M55.8,97.7c0,0.2,0.1,0.3,0.1,0.4h0
		c0.1-0.1,0.1-0.3,0.1-0.4H55.8z M57.2,94.2h-1.8v0.2h-0.2l0,1.6v1.2h0.3l0.8,0h0.9V96L57.2,94.2z M56.8,96.8h-0.3l-1,0V96l0-1.4
		h1.2l0,1.4V96.8z M57.2,94.2h-1.8v0.2h-0.2l0,1.6v1.2h0.3l0.8,0h0.9V96L57.2,94.2z M56.8,96.8h-0.3l-1,0V96l0-1.4h1.2l0,1.4V96.8z
		 M55.8,97.7c0,0.2,0.1,0.3,0.1,0.4h0c0.1-0.1,0.1-0.3,0.1-0.4H55.8z M57.2,94.2h-1.8v0.2h-0.2l0,1.6v1.2h0.3l0.8,0h0.9V96
		L57.2,94.2z M56.8,96.8h-0.3l-1,0V96l0-1.4h1.2l0,1.4V96.8z M57.2,94.2h-1.8v0.2h-0.2l0,1.6v1.2h0.3l0.8,0h0.9V96L57.2,94.2z
		 M56.8,96.8h-0.3l-1,0V96l0-1.4h1.2l0,1.4V96.8z M57.2,94.2h-1.8v0.2h-0.2l0,1.6v1.2h0.3l0.8,0h0.9V96L57.2,94.2z M56.8,96.8h-0.3
		l-1,0V96l0-1.4h1.2l0,1.4V96.8z M66.4,94.2v0.2h-0.2l0,1.6v1.2h2v-3H66.4z M67.8,96.8h-1.2V96l0-1.4h1.3V96.8z M62.2,94.2h-1.8v0.2
		h-0.2l0,1.6v1.2h2V96L62.2,94.2z M61.8,96.8h-1.2V96l0-1.4h1.2l0,1.4V96.8z M57.2,94.2h-1.8v0.2h-0.2l0,1.6v1.2h0.3l0.8,0h0.9V96
		L57.2,94.2z M56.8,96.8h-0.3l-1,0V96l0-1.4h1.2l0,1.4V96.8z M50.8,97.2l0-1.2l0-1.8H49v0.2l-0.2,0l0,1.6v1.2L50.8,97.2z M49.1,94.6
		h1.2l0,1.4v0.8h-1.2V96L49.1,94.6z"/>
	<path class="st5" d="M63.9,96.5l0,10.3l-10.3,0l0-10.3L63.9,96.5L63.9,96.5z"/>
	<path d="M64.1,99.2v-0.5l0-2.2v-0.2h-4.9l-1,0h-4.9l0,2.4v0.5l0,7.5v0.4l10.7,0v-0.4L64.1,99.2z M53.8,98.7l0-2h4.5l0.8,0h4.5l0,2
		v0.6l-9.9,0V98.7z M63.7,106.6h-0.9l0-6.9h0.9L63.7,106.6z M62.5,106.6l-7.5,0l0-6.9l7.5,0L62.5,106.6z M54.6,99.7l0,6.9h-0.8
		l0-6.9H54.6z M67.8,92l-5.8-4.3l-6.7,0L49.4,92l-0.5,0.3l18.7,0v-0.2L67.8,92L67.8,92z M55.4,88.1l6.4,0L67,92l-16.9,0L55.4,88.1z
		 M61.5,84.2l-5.9,0l0,3h5.9L61.5,84.2z M56,86.8l0-2.2h5.1l0,2.2L56,86.8z"/>
	<path d="M61.5,84.2l-5.9,0l0,3h5.9L61.5,84.2z M56,86.8l0-2.2h5.1l0,2.2L56,86.8z"/>
	<path d="M60,84.8h-2.9l0,1.7H60L60,84.8z M57.5,86.1l0-0.9h2.1l0,0.9H57.5z M62.1,83.7l-3.4-2.4l-0.1,0.2l-0.1-0.2L55,83.7
		l-0.1,0.1H55l7,0h0.2L62.1,83.7z M56.1,83.4l2.4-1.7l2.4,1.7L56.1,83.4z"/>
	<path class="st5" d="M70.9,80c0.9,0,1.1,3.6,1.1,5.4c0.7,0.2,2.4,1.2,3.1,2.2l-8.4,0c0.7-0.9,2.4-2,3.1-2.2
		C69.8,83.6,70,80,70.9,80L70.9,80z"/>
	<path d="M56.6,98.7l-0.3-0.5c0,0,0-0.1,0.1-0.1c0.1-0.1,0.1-0.3,0.1-0.4h-0.4c0,0.1,0,0.3-0.1,0.4c0,0,0,0,0,0c0,0,0,0,0,0
		c0-0.1-0.1-0.2-0.1-0.4h-0.4c0,0.1,0,0.3,0.1,0.4c0,0.1,0,0.1,0.1,0.2l-0.3,0.5H56.6z M56,98.3L56,98.3L56,98.3L56,98.3z
		 M58.2,98.7L58,98.3c0,0,0-0.1,0.1-0.2c0.1-0.3,0-0.7-0.1-0.9l0.2-0.4l0.1-0.1l0-0.1h-1.4l0.1,0.1l0.2,0.4l0,0
		c-0.1,0.2-0.1,0.3-0.1,0.5c0,0.1,0,0.3,0.1,0.4c0,0.1,0,0.1,0.1,0.2L57,98.7l0,0.1l0,0l1.4,0L58.2,98.7L58.2,98.7z M57.6,98.4
		L57.6,98.4L57.6,98.4L57.6,98.4z M57.7,97L57.7,97L57.7,97L57.7,97z M57.5,97.7c0-0.1,0-0.2,0.1-0.3l0,0c0,0,0.1,0.2,0.1,0.4
		c0,0.1,0,0.3-0.1,0.4c0,0,0,0,0,0c0,0,0,0,0,0C57.5,98,57.5,97.9,57.5,97.7z M56.4,98.1c0.1-0.1,0.1-0.3,0.1-0.4h-0.4
		c0,0.1,0,0.3-0.1,0.4c0,0,0,0,0,0c0,0,0,0,0,0c0-0.1-0.1-0.2-0.1-0.4h-0.4c0,0.1,0,0.3,0.1,0.4c0,0.1,0,0.1,0.1,0.2l-0.3,0.5h1.3
		l-0.3-0.5C56.4,98.2,56.4,98.1,56.4,98.1z M55.9,98.4L55.9,98.4L55.9,98.4L55.9,98.4z M56.6,98.7l-0.3-0.5c0,0,0-0.1,0.1-0.1
		c0.1-0.1,0.1-0.3,0.1-0.4h-0.4c0,0.1,0,0.3-0.1,0.4c0,0,0,0,0,0c0,0,0,0,0,0c0-0.1-0.1-0.2-0.1-0.4h-0.4c0,0.1,0,0.3,0.1,0.4
		c0,0.1,0,0.1,0.1,0.2l-0.3,0.5H56.6z M56,98.3L56,98.3L56,98.3L56,98.3z M61.6,97.2L61.6,97.2l-0.8-0.1l0,0.1
		c-0.1,0.2-0.1,0.3-0.1,0.5H61c0-0.1,0-0.2,0.1-0.3l0,0c0,0,0.1,0.2,0.1,0.3h0.4C61.7,97.5,61.6,97.3,61.6,97.2z M61.8,98.7
		l-0.3-0.5c0,0,0-0.1,0.1-0.1c0-0.1,0.1-0.3,0.1-0.4c0-0.2-0.1-0.4-0.1-0.5l0-0.1h-0.8l0,0.1c-0.1,0.2-0.1,0.3-0.1,0.5
		c0,0.1,0,0.3,0.1,0.4c0,0.1,0,0.1,0.1,0.2l-0.2,0.5H61.8z M61.2,98.4L61.2,98.4L61.2,98.4L61.2,98.4z M61,97.7c0-0.1,0-0.2,0.1-0.3
		l0,0c0,0,0.1,0.2,0.1,0.3c0,0.1,0,0.3-0.1,0.4c0,0,0,0,0,0l0,0c0,0,0,0,0,0C61.1,98,61,97.9,61,97.7z M63.5,98.7l-0.2-0.5
		c0.2-0.4,0.1-0.8,0-1l0.3-0.5l0-0.1h-0.4l-0.4,0h-0.6l0,0.1l0,0l0.2,0.4c-0.1,0.2-0.1,0.3-0.1,0.5c0,0.1,0,0.3,0.1,0.4
		c0,0.1,0,0.1,0,0.2l-0.3,0.5l0,0.1l0,0L63.5,98.7L63.5,98.7L63.5,98.7z M62.9,97L62.9,97L62.9,97L62.9,97z M62.8,98.4L62.8,98.4
		L62.8,98.4L62.8,98.4z M62.7,97.7c0-0.1,0-0.2,0.1-0.3c0,0,0,0,0,0l0,0c0,0,0.3,0.4,0,0.7c0,0,0,0,0,0l0,0c0,0,0,0,0,0
		C62.8,98,62.7,97.9,62.7,97.7z M61.6,98.1c0-0.1,0.1-0.3,0.1-0.4c0-0.2-0.1-0.4-0.1-0.5l0-0.1h-0.8l0,0.1c-0.1,0.2-0.1,0.3-0.1,0.5
		c0,0.1,0,0.3,0.1,0.4c0,0.1,0,0.1,0.1,0.2l-0.2,0.5h1.3l-0.3-0.5C61.6,98.2,61.6,98.2,61.6,98.1z M61,97.7c0-0.1,0-0.2,0.1-0.3l0,0
		c0,0,0.1,0.2,0.1,0.3c0,0.1,0,0.3-0.1,0.4c0,0,0,0,0,0l0,0c0,0,0,0,0,0C61.1,98,61,97.9,61,97.7z M61.2,98.4L61.2,98.4L61.2,98.4
		L61.2,98.4z M61.8,98.7l-0.3-0.5c0,0,0-0.1,0.1-0.1c0-0.1,0.1-0.3,0.1-0.4c0-0.2-0.1-0.4-0.1-0.5l0-0.1h-0.8l0,0.1
		c-0.1,0.2-0.1,0.3-0.1,0.5c0,0.1,0,0.3,0.1,0.4c0,0.1,0,0.1,0.1,0.2l-0.2,0.5H61.8z M61.2,98.4L61.2,98.4L61.2,98.4L61.2,98.4z
		 M61,97.7c0-0.1,0-0.2,0.1-0.3l0,0c0,0,0.1,0.2,0.1,0.3c0,0.1,0,0.3-0.1,0.4c0,0,0,0,0,0l0,0c0,0,0,0,0,0C61.1,98,61,97.9,61,97.7z
		 M61.6,97.2L61.6,97.2l-0.8-0.1l0,0.1c-0.1,0.2-0.1,0.3-0.1,0.5H61c0-0.1,0-0.2,0.1-0.3l0,0c0,0,0.1,0.2,0.1,0.3h0.4
		C61.7,97.5,61.6,97.3,61.6,97.2z M61.8,98.7l-0.3-0.5c0,0,0-0.1,0.1-0.1c0-0.1,0.1-0.3,0.1-0.4c0-0.2-0.1-0.4-0.1-0.5l0-0.1
		l0.2-0.4l0,0v0h0l0-0.1h-1.1v0.2l-0.2,0.1l0.1,0.2l0,0.1c-0.1,0.2-0.1,0.3-0.1,0.5c0,0.1,0,0.3,0.1,0.4c0,0.1,0,0.1,0.1,0.2
		l-0.2,0.5l0,0.1l0,0L61.8,98.7L61.8,98.7L61.8,98.7z M61.1,97L61.1,97L61.1,97L61.1,97z M61.2,98.4L61.2,98.4L61.2,98.4L61.2,98.4z
		 M61,97.7c0-0.1,0-0.2,0.1-0.3l0,0c0,0,0.1,0.2,0.1,0.3c0,0.1,0,0.3-0.1,0.4c0,0,0,0,0,0l0,0c0,0,0,0,0,0C61.1,98,61,97.9,61,97.7z
		 M60.2,98.7l-0.3-0.5c0,0,0-0.1,0.1-0.2c0-0.1,0.1-0.3,0.1-0.4c0-0.2-0.1-0.4-0.1-0.5l0.3-0.5l0,0l0-0.1h-1.1v0.2L59,96.9l0.2,0.3
		c-0.3,0.4-0.1,0.8,0,1l-0.3,0.5l0,0.1l0,0L60.2,98.7L60.2,98.7L60.2,98.7z M59.6,97L59.6,97L59.6,97L59.6,97z M59.5,98.4L59.5,98.4
		L59.5,98.4L59.5,98.4z M59.5,98.1C59.5,98.1,59.5,98.1,59.5,98.1L59.5,98.1C59.5,98.1,59.5,98.1,59.5,98.1c-0.1-0.1-0.2-0.5,0-0.7
		l0,0c0,0,0.1,0.1,0.1,0.2c0,0,0,0.1,0,0.1C59.6,97.8,59.6,98,59.5,98.1z M56.6,98.7l-0.3-0.5c0,0,0-0.1,0.1-0.1
		c0.1-0.1,0.1-0.3,0.1-0.4c0-0.2-0.1-0.4-0.1-0.5l0-0.1l0.2-0.4l0,0l0.1-0.1h-1.1v0.2l-0.2,0.1l0.1,0.2l0,0.1
		c-0.1,0.2-0.1,0.3-0.1,0.5c0,0.1,0,0.3,0.1,0.4c0,0.1,0,0.1,0.1,0.2l-0.3,0.5l0,0.1l0,0L56.6,98.7L56.6,98.7L56.6,98.7z M55.9,97
		L55.9,97L55.9,97L55.9,97z M55.9,98.4L55.9,98.4L55.9,98.4L55.9,98.4z M55.8,97.7c0-0.1,0-0.2,0.1-0.3l0,0c0,0,0.1,0.1,0.1,0.4
		c0,0.1,0,0.3-0.1,0.4c0,0,0,0,0,0c0,0,0,0,0,0C55.9,98,55.8,97.9,55.8,97.7z M56.6,98.7l-0.3-0.5c0,0,0-0.1,0.1-0.1
		c0.1-0.1,0.1-0.3,0.1-0.4h-0.4c0,0.1,0,0.3-0.1,0.4c0,0,0,0,0,0c0,0,0,0,0,0c0-0.1-0.1-0.2-0.1-0.4h-0.4c0,0.1,0,0.3,0.1,0.4
		c0,0.1,0,0.1,0.1,0.2l-0.3,0.5l0,0.1L56.6,98.7L56.6,98.7z M56,98.3L56,98.3L56,98.3L56,98.3z M56.6,98.7h-1.3l0,0.1L56.6,98.7
		L56.6,98.7z M56.6,98.7h-1.3l0,0.1L56.6,98.7L56.6,98.7z M55.1,96.6H54v0.2l-0.2,0.1l0.2,0.3c-0.3,0.4-0.1,0.8,0,1l-0.3,0.5v0
		l0,0.1l0,0h1.4l0,0l0-0.1l-0.3-0.5c0,0,0-0.1,0.1-0.1c0.1-0.1,0.1-0.3,0.1-0.4c0-0.2-0.1-0.4-0.1-0.5L55.1,96.6L55.1,96.6z
		 M54.5,97L54.5,97L54.5,97L54.5,97z M54.4,98.4L54.4,98.4L54.4,98.4L54.4,98.4z M54.4,98.1C54.4,98.1,54.4,98.1,54.4,98.1
		c-0.1-0.2-0.2-0.5,0-0.8l0,0C54.4,97.4,54.7,97.7,54.4,98.1C54.4,98.1,54.4,98.1,54.4,98.1z M56.6,98.7h-1.3l0,0.1L56.6,98.7
		L56.6,98.7z M56.6,98.7l-0.3-0.5c0,0,0-0.1,0.1-0.1c0.1-0.1,0.1-0.3,0.1-0.4h-0.4c0,0.1,0,0.3-0.1,0.4c0,0,0,0,0,0c0,0,0,0,0,0
		c0-0.1-0.1-0.2-0.1-0.4h-0.4c0,0.1,0,0.3,0.1,0.4c0,0.1,0,0.1,0.1,0.2l-0.3,0.5l0,0.1L56.6,98.7L56.6,98.7z M56,98.3L56,98.3
		L56,98.3L56,98.3z M56.6,98.7l-0.3-0.5c0,0,0-0.1,0.1-0.1c0.1-0.1,0.1-0.3,0.1-0.4h-0.4c0,0.1,0,0.3-0.1,0.4c0,0,0,0,0,0
		c0,0,0,0,0,0c0-0.1-0.1-0.2-0.1-0.4h-0.4c0,0.1,0,0.3,0.1,0.4c0,0.1,0,0.1,0.1,0.2l-0.3,0.5l0,0.1L56.6,98.7L56.6,98.7z M56,98.3
		L56,98.3L56,98.3L56,98.3z M75.3,87.4c-0.7-0.9-2.3-1.9-3.1-2.2c0-0.9-0.1-4.5-0.9-5.2c-0.1-0.1-0.3-0.2-0.4-0.2
		c-0.1,0-0.3,0-0.4,0.2c-0.8,0.8-0.8,4.2-0.8,5.2c-0.8,0.3-2.3,1.3-3.1,2.2l-0.3,0.3l9.2,0L75.3,87.4z M70,85.5v-0.1
		c0-2.1,0.2-4.6,0.7-5.1c0-0.1,0.1-0.1,0.1-0.1l0-0.2v0.2c0,0,0.1,0,0.1,0.1c0.5,0.5,0.8,2.9,0.8,5.1v0.2l0.2,0c0.6,0.2,2,1,2.8,1.8
		l-7.5,0c0.8-0.8,2.1-1.6,2.7-1.8L70,85.5z"/>
	<path class="st9" d="M58.8,120c3.9,0,8.6-0.8,10.8-1.9l4.9-0.4l0.1,6c-4.1,2.3-13.7,2.8-15.8,2.8c-2.1,0-11.8-0.5-16-2.8l0.1-6
		l4.9,0.4C50,119.2,54.9,120,58.8,120L58.8,120L58.8,120z"/>
	<path d="M74.6,122.1L74.6,122.1l0-1.5l0-1.2l0-0.5v-0.1l0-1.3v0l-4.9,0.4h0c-0.1,0.1-0.3,0.1-0.5,0.2c0,0,0,0,0,0c0,0,0,0-0.1,0
		c-2.3,1-6.5,1.7-10.2,1.7c0,0-0.1,0-0.1,0v0c-3.7,0-8.1-0.7-10.4-1.7c0,0,0,0,0,0c0,0,0,0,0,0c-0.2-0.1-0.3-0.1-0.5-0.2l-4.9-0.5h0
		l0,4.4v0.1l0,1.5v0l0,0c4.2,2.3,13.9,2.8,15.9,2.8h0.2c2,0,11.5-0.5,15.8-2.8l0,0L74.6,122.1z M42.9,123.5l0-1.4V122l0-4.4l4.8,0.4
		c0.1,0.1,0.3,0.1,0.5,0.2c0,0,0,0,0,0c0,0,0,0,0,0c1.1,0.4,2.6,0.8,4.2,1.1c2,0.4,4.2,0.6,6.2,0.6h0.1c3.7,0,7.9-0.7,10.2-1.7
		c0,0,0,0,0,0c0,0,0,0,0,0c0.2-0.1,0.3-0.1,0.5-0.2l4.8-0.4l0,1v0.3l0,0.5l0,1.2l0,1.4v0.1l0,1.4c-4.2,2.3-13.7,2.7-15.7,2.7h-0.2
		C56.7,126.3,47.1,125.9,42.9,123.5z"/>
	<path class="st9" d="M30.2,94.5l4.3,1.4l-1.3,7l-4.1,0.6C29.2,103.5,28.5,99.8,30.2,94.5L30.2,94.5z"/>
	<path d="M30.3,94.5L30.3,94.5L30.3,94.5c-0.2,0.5-0.4,1-0.5,1.5c-0.4,1.4-0.6,2.6-0.7,3.6v0c0,0,0,0,0,0.1c-0.2,2.2,0,3.6,0,3.8
		c0,0,0,0,0,0l0,0l2.9-0.5l0,0l0.1,0l1.2-0.2l1.3-6.9l0-0.1L30.3,94.5z M34.5,96l-1.3,6.7l0,0.1l0,0v0l-1.1,0.2l-0.1,0l0,0l-0.3,0
		l-2.5,0.4v0c0,0,0,0,0-0.1c-0.1-0.4-0.2-1.7,0-3.7c0,0,0,0,0,0v0c0.1-1,0.3-2.3,0.7-3.6c0.1-0.5,0.3-0.9,0.4-1.4L34.5,96L34.5,96z"
		/>
	<path class="st11" d="M33.2,102.8l-4.1,0.7l2.6-3.7L33.2,102.8L33.2,102.8z"/>
	<g>
		<path class="st12" d="M33.2,102.8l-4.1,0.7l2.6-3.7L33.2,102.8L33.2,102.8z"/>
		<path d="M33.3,102.8L33.3,102.8l-1.4-2.8l0-0.1l0,0l0,0l0,0l0,0l0,0l0,0l-2.5,3.5l0,0.1l0,0l0,0.1l0.1,0l2-0.4l0.2,0l0.3,0
			l0.4-0.1l0,0l0.1,0L33.3,102.8L33.3,102.8L33.3,102.8L33.3,102.8L33.3,102.8L33.3,102.8z M31.8,100L31.8,100
			C31.8,100.1,31.8,100.1,31.8,100l0.1,0.2l1.3,2.6l-1.1,0.2l-0.1,0l0,0l-2.7,0.5L31.8,100L31.8,100z"/>
	</g>
	<path class="st9" d="M27.7,99.6l4.2,0.3c0.1,3.5,0.5,16.9,16.6,17.7l-0.5,4.9C28.4,122.6,26.9,106,27.7,99.6L27.7,99.6z"/>
	<path d="M48.4,117.5c-6.7-0.3-14.7-3.1-16.3-14.4c0,0,0,0,0,0c0,0,0,0,0,0v0c0,0,0,0,0,0c-0.1-0.9-0.2-1.8-0.2-2.8c0,0,0-0.1,0-0.1
		c0,0,0-0.1,0-0.1c0,0,0-0.1,0-0.1v0l-0.1,0h-0.1l-2.5-0.2l0,0h0l-1.4-0.1h-0.1v0h0c-0.6,4.8,0.3,12.1,4.7,17.1
		c2.6,2.9,6.1,4.7,10.5,5.5c0,0,0,0,0,0c0,0,0,0,0,0c1.3,0.2,2.7,0.3,4.2,0.4l-4.2,0.9l0,0.1l4.6-1h0.4l0.4-4.1l0,0v-0.1L48.4,117.5
		L48.4,117.5z M27.7,99.6l1.4,0.1h0l0,0l2.5,0.2l0.1,0h0.1v0.1c0,0.7,0.1,1.7,0.2,3c0,0,0,0,0,0.1v0c0,0,0,0,0,0s0,0,0,0
		c0.3,1.9,0.8,4.4,2.1,6.7c2.6,4.9,7.5,7.5,14.3,7.8l-0.1,0.6v0.1l-0.4,4.1h0l0-0.1h0l-0.3,0.1c-1.6,0-3.1-0.1-4.6-0.4c0,0,0,0,0,0
		c0,0,0,0,0,0c-4.3-0.7-7.8-2.5-10.4-5.4C28,111.7,27.1,104.4,27.7,99.6z"/>
	<path class="st8" d="M87,94.6l-4.3,1.4l1.4,7l4.1,0.7C88.1,103.6,88.8,99.9,87,94.6L87,94.6z"/>
	<g>
		<path class="st9" d="M87,94.6l-4.3,1.4l1.4,7l4.1,0.7C88.1,103.6,88.8,99.9,87,94.6L87,94.6L87,94.6z"/>
		<path d="M88.2,99.8L88.2,99.8C88.1,99.7,88.1,99.7,88.2,99.8c-0.1-1.2-0.3-2.4-0.7-3.8c-0.1-0.5-0.3-0.9-0.4-1.4l0,0l0,0v0l0,0
			l-4.3,1.4l0,0l0,0.1l1.3,7l1.2,0.2l0.1,0h0l0.8,0.1l0.7,0.1l0.5,0.1l0.4,0.1l0.1,0l0.4,0.1l0,0l0,0c0,0,0,0,0,0s0,0,0,0
			c0-0.1,0-0.2,0-0.4C88.3,102.5,88.3,101.4,88.2,99.8z M88.1,103.5C88.1,103.5,88.1,103.5,88.1,103.5L88.1,103.5L88.1,103.5l-0.3,0
			h0l-0.3,0l-0.2,0v0l-0.6-0.1l-0.6-0.1l-0.8-0.1h-0.1v0l-0.1,0l-0.1,0l-1-0.2v0l0,0v0l0-0.1L82.7,96v0l4.2-1.3
			c0.2,0.5,0.3,0.9,0.4,1.4c0.4,1.4,0.6,2.6,0.7,3.7c0,0,0,0,0,0v0.1c0.2,1.6,0.1,2.8,0,3.3C88.1,103.3,88.1,103.4,88.1,103.5z"/>
	</g>
	<path class="st11" d="M84,102.8l4.1,0.7l-2.6-3.7L84,102.8L84,102.8z"/>
	<g>
		<path class="st12" d="M84,102.8l4.1,0.7l-2.6-3.7L84,102.8L84,102.8z"/>
		<path d="M88.2,103.6L88.2,103.6L88.2,103.6l-0.1-0.1l-0.3-0.4l-2.3-3.2l0,0l0,0l0,0l0,0l0,0l0,0l0,0l-0.1,0.1l-1.3,2.7l0,0.1l0,0
			l0,0l0,0v0l1.1,0.2l0.1,0l0,0l0.2,0l0.1,0l0.5,0.1l0.7,0.1l0.5,0.1l0.4,0.1l0.1,0L88.2,103.6L88.2,103.6z M85.2,103l-1.1-0.2
			l1.3-2.5l0-0.1l0.1-0.1l0-0.1l2.2,3.1l0.3,0.4l0,0l0,0l-0.2,0h0l-0.3,0l-0.2,0l-0.6-0.1l-0.6-0.1l-0.9-0.2L85.2,103L85.2,103z"/>
	</g>
	<path class="st9" d="M89.6,99.6l-4.2,0.3c-0.1,3.5-0.4,17-16.4,17.7l0.5,4.9C89.1,122.7,90.4,106,89.6,99.6L89.6,99.6z"/>
	<path d="M89.6,99.6L89.6,99.6L89.6,99.6l-1.5,0.1h0l0,0l-2.5,0.2l-0.1,0h-0.1v0c0,0,0,0.1,0,0.2c0,0,0,0.1,0,0.1v0.1
		c0,0.9-0.1,1.9-0.2,2.7c0,0,0,0,0,0v0.1c0,0,0,0,0,0c-1.5,11.3-9.4,14.1-16.1,14.4h0l0.1,0.8l0,0v0l0.5,4.1h0.4l4.6,1l0-0.1
		l-4.2-0.9c1.5,0,2.9-0.1,4.2-0.3c0,0,0,0,0,0c0,0,0,0,0,0c4.4-0.7,7.9-2.5,10.4-5.4C89.4,111.7,90.3,104.4,89.6,99.6z M74.6,122
		C74.6,122,74.6,122,74.6,122C74.6,122,74.5,122,74.6,122c-1.5,0.3-3,0.4-4.7,0.4l-0.3-0.1l0,0.1c0,0,0,0,0,0l-0.5-4.1v0l0-0.1
		l-0.1-0.6c6.8-0.3,11.6-2.9,14.2-7.8c1.2-2.3,1.8-4.7,2-6.7v0c0,0,0,0,0,0v0c0.1-1.2,0.2-2.3,0.2-2.9V100c0,0,0,0,0,0h0.1l0,0
		l2.5-0.2l0,0h0l1.4-0.1c0.6,4.8-0.2,12-4.6,17C82.4,119.5,79,121.3,74.6,122z"/>
	<path class="st1" d="M56.1,122.1c-0.1,0-0.2-0.1-0.3-0.1l-0.8,0l-0.1,1l0.8,0c0.2,0,0.3,0,0.4-0.1c0.1-0.1,0.2-0.2,0.2-0.4
		C56.4,122.4,56.3,122.2,56.1,122.1z M54.9,124.4l-0.4,0l0.2-2.8l1.3,0.1c0.3,0,0.5,0.1,0.6,0.3c0.2,0.1,0.2,0.3,0.2,0.6
		c0,0.2-0.1,0.4-0.3,0.6c-0.1,0.1-0.4,0.2-0.7,0.2l-0.9-0.1L54.9,124.4 M58.6,122.1l-0.9,0 M58.6,122.1l-0.9,0 M58.6,122.1l-0.9,0
		 M58.6,122.1l-0.9,0 M59.7,124.6c-0.1,0-0.1-0.1-0.1-0.2c0-0.1,0-0.1,0-0.2v-0.4c0-0.2,0-0.3-0.1-0.4c-0.1-0.1-0.2-0.1-0.3-0.2
		c0.1-0.1,0.2-0.2,0.3-0.3c0.1-0.1,0.1-0.3,0.1-0.4c0-0.3-0.1-0.5-0.4-0.7c-0.1-0.1-0.3-0.1-0.5-0.1l-1.3,0l0,2.8h0.4v0l0-1.2l0.9,0
		c0.2,0,0.3,0,0.4,0c0.1,0.1,0.2,0.2,0.2,0.4l0,0.5c0,0.1,0,0.2,0,0.2c0,0,0,0.1,0,0.1L59.7,124.6L59.7,124.6z M59,123
		c-0.1,0.1-0.3,0.1-0.4,0.1l-0.9,0v-1h0l0.9,0c0.1,0,0.2,0,0.3,0.1c0.2,0.1,0.2,0.2,0.2,0.4C59.2,122.8,59.1,122.9,59,123z
		 M62.4,122.1c-0.3-0.3-0.6-0.4-1.2-0.4c-0.5,0-0.8,0.2-1.1,0.6c-0.2,0.3-0.3,0.6-0.2,1c0,0.4,0.2,0.8,0.4,1
		c0.3,0.3,0.6,0.4,1.1,0.4c0.5,0,0.8-0.2,1.1-0.5c0.2-0.3,0.3-0.6,0.3-1.1C62.7,122.7,62.6,122.3,62.4,122.1z M62.1,123.9
		c-0.1,0.3-0.4,0.4-0.7,0.4c-0.4,0-0.6-0.1-0.8-0.3h0c-0.2-0.2-0.3-0.5-0.3-0.8c0-0.4,0.1-0.7,0.2-0.9c0.2-0.2,0.4-0.3,0.7-0.3
		c0.3,0,0.5,0.1,0.7,0.3s0.3,0.5,0.3,0.8C62.3,123.4,62.3,123.7,62.1,123.9z M74.7,119.4l-0.1,0l0,0l0,0l-1,0.2l0.1,0.3l0.9-0.1
		c0,0.3,0,0.6-0.1,0.7c-0.2,0.2-0.4,0.3-0.6,0.3c-0.3,0-0.6,0-0.8-0.2c-0.2-0.2-0.3-0.4-0.4-0.8c-0.1-0.4,0-0.7,0.1-0.9
		c0.1-0.2,0.4-0.4,0.6-0.4c0.2,0,0.4,0,0.6,0c0.2,0.1,0.3,0.2,0.4,0.4l0.3,0l0,0l0,0h0c0,0,0,0,0-0.1c0,0,0-0.1,0-0.1
		c0,0,0-0.1,0-0.1c-0.1-0.2-0.3-0.4-0.5-0.4c-0.2-0.1-0.4-0.1-0.7,0c-0.4,0-0.7,0.2-0.9,0.5c-0.2,0.3-0.3,0.7-0.2,1.2
		c0.1,0.5,0.3,0.8,0.6,1c0.3,0.2,0.6,0.2,0.9,0.2c0.3,0,0.5-0.1,0.6-0.2c0.1,0,0.1-0.1,0.2-0.3c0,0,0,0,0-0.1c0,0,0,0,0,0l0,0.1
		l0.1,0.3l0.3,0L74.7,119.4z M78.8,119.6c-0.1,0-0.1,0-0.2-0.1c0-0.1-0.1-0.1-0.1-0.2l-0.2-0.3c-0.1-0.2-0.1-0.3-0.2-0.3
		c-0.1,0-0.2-0.1-0.3-0.1c0.1-0.1,0.2-0.2,0.2-0.3c0-0.1,0-0.3,0-0.4c-0.1-0.3-0.3-0.5-0.6-0.5c-0.2,0-0.3,0-0.5,0.1l-1.3,0.4l1,2.6
		l0.4-0.1l0,0l-0.4-1.1l0.8-0.3c0.1,0,0.3-0.1,0.3-0.1c0.2,0,0.3,0.1,0.3,0.3l0.2,0.4c0,0.1,0.1,0.2,0.1,0.2c0,0,0,0.1,0.1,0.1
		L78.8,119.6L78.8,119.6z M77.6,118.4c-0.1,0.1-0.2,0.2-0.4,0.3l-0.8,0.3L76,118l0.9-0.3c0.1,0,0.2-0.1,0.3-0.1
		c0.2,0,0.3,0.1,0.4,0.3C77.7,118.1,77.7,118.3,77.6,118.4z M81.8,117.5l-1.5,0.9l-0.5-0.8l1.3-0.9l-0.2-0.3l-1.3,0.8l-0.5-0.7
		l1.4-0.9l-0.2-0.3l-1.8,1.1l1.6,2.3l1.8-1.1L81.8,117.5z M84.2,114.8c-0.1-0.3-0.3-0.5-0.5-0.7c-0.3-0.3-0.6-0.4-0.9-0.4
		c-0.4,0-0.7,0.1-0.9,0.4l-0.8,0.8l2.1,1.9L84,116v0C84.3,115.6,84.4,115.2,84.2,114.8z M83.9,115.5c0,0.1-0.1,0.2-0.2,0.3l-0.5,0.5
		l-1.6-1.4l0.5-0.5c0.2-0.2,0.4-0.3,0.7-0.3c0.2,0,0.5,0.1,0.8,0.4c0.1,0,0.1,0.1,0.2,0.2c0.1,0.2,0.2,0.3,0.2,0.4
		C84,115.2,84,115.4,83.9,115.5z M83.4,112l-0.2,0.3l2.5,1.4l0.2-0.3L83.4,112z M87.1,110.1l-0.6,1.6l-0.9-0.4l0.6-1.4l-0.3-0.1
		l-0.6,1.4l-0.8-0.3l0.6-1.6l-0.3-0.1L84,111l2.7,1.1l0.8-1.9L87.1,110.1z M88.3,106.7l-2.8-0.6l-0.1,0.3l2.3,0.5l-2.6,0.9l-0.1,0.4
		l2.8,0.6l0.1-0.4l-2.3-0.5l2.6-0.9L88.3,106.7z M88.6,103.5c-0.1-0.2-0.2-0.3-0.4-0.3c0,0,0,0,0,0h0c0,0-0.1,0-0.1,0h-0.1
		c0,0,0,0,0,0h-0.1c-0.1,0-0.3,0.1-0.4,0.2c0,0,0,0-0.1,0.1v0c0,0,0,0,0,0l0,0v0c0,0.1-0.1,0.2-0.1,0.2l-0.1,0.4
		c-0.1,0.3-0.2,0.4-0.2,0.5c-0.1,0.1-0.2,0.1-0.3,0.1c-0.1,0-0.2-0.1-0.3-0.2c-0.1-0.1-0.1-0.3-0.1-0.5c0-0.3,0.1-0.5,0.3-0.6
		c0.1-0.1,0.2-0.1,0.4-0.1v-0.1l0,0v0l0-0.2c-0.2,0-0.4,0-0.6,0.1l0,0c0,0,0,0,0,0c0,0,0,0,0,0c0,0,0,0,0,0c0,0,0,0,0,0
		c-0.2,0.2-0.3,0.4-0.3,0.7c0,0.3,0,0.6,0.2,0.8c0.1,0.2,0.3,0.3,0.6,0.3c0.2,0,0.4,0,0.6-0.2c0.1-0.1,0.2-0.3,0.2-0.5l0.1-0.4
		c0-0.2,0.1-0.3,0.2-0.4c0,0,0,0,0,0c0,0,0,0,0,0v0c0,0,0,0,0.1,0h0c0,0,0.1,0,0.2,0h0c0,0,0,0,0,0c0,0,0,0,0,0c0,0,0,0,0,0
		c0,0,0,0,0,0c0,0,0,0,0,0c0.1,0,0.2,0.2,0.2,0.3c0,0.1,0,0.2,0,0.4c0,0.3-0.1,0.5-0.3,0.6c-0.1,0.1-0.2,0.1-0.4,0.1l0,0.4
		c0.3,0,0.6,0,0.8-0.2c0.2-0.2,0.3-0.4,0.3-0.8C88.8,104,88.7,103.7,88.6,103.5z M31.8,105.8c0-0.3-0.2-0.5-0.4-0.7
		c-0.2-0.1-0.4-0.2-0.7-0.2c-0.2,0-0.4,0.2-0.5,0.3c0,0.1-0.1,0.3-0.1,0.5l0,0.4c0,0.2,0,0.4-0.1,0.5c-0.1,0.1-0.2,0.2-0.3,0.2
		c-0.2,0-0.4-0.1-0.5-0.3c-0.1-0.1-0.1-0.2-0.1-0.4c-0.1-0.3,0-0.5,0.2-0.7c0.1-0.1,0.2-0.1,0.4-0.2l-0.1-0.3
		c-0.3,0-0.5,0.2-0.7,0.4c-0.1,0.2-0.2,0.5-0.1,0.8c0,0.3,0.2,0.5,0.3,0.7c0.2,0.2,0.4,0.3,0.7,0.2c0.3,0,0.4-0.2,0.5-0.4
		c0.1-0.1,0.1-0.3,0.1-0.5l0-0.4c0-0.3,0-0.4,0.1-0.5c0-0.1,0.1-0.2,0.3-0.2c0.1,0,0.2,0,0.4,0.1c0.1,0.1,0.2,0.2,0.2,0.4
		c0,0.3,0,0.5-0.1,0.6c-0.1,0.1-0.2,0.1-0.3,0.2L31,107c0.3-0.1,0.5-0.2,0.6-0.4C31.8,106.4,31.8,106.1,31.8,105.8z M32.1,108
		l-2.7,0.8l0.6,2l0.3-0.1l-0.5-1.6l0.9-0.3l0.5,1.5l0.3-0.1l-0.5-1.5l0.8-0.3l0.5,1.6l0.3-0.1L32.1,108z M34.2,112.7l-2.5,0.4
		l1.7-1.8l-0.3-0.5l-2.5,1.3l0.2,0.3l1.5-0.8c0.1,0,0.2-0.1,0.3-0.2c0.1-0.1,0.2-0.1,0.3-0.1l0.1,0l-1.7,1.8l0.2,0.3l2.5-0.4
		c-0.1,0.1-0.3,0.1-0.4,0.2c-0.1,0.1-0.2,0.1-0.3,0.1l-1.5,0.8l0.2,0.3l2.5-1.3L34.2,112.7z M36,114.8l-0.9-0.9l-2.1,1.9l0.3,0.3h0
		l0.9-0.8l0.6,0.6c0.2,0.2,0.4,0.3,0.6,0.3c0.2,0,0.4-0.1,0.6-0.3c0.2-0.2,0.3-0.4,0.3-0.6C36.3,115.2,36.2,115,36,114.8z
		 M35.7,115.7c-0.1,0.1-0.3,0.2-0.4,0.2c-0.1,0-0.3-0.1-0.4-0.2l-0.5-0.5l0.7-0.7l0.5,0.5c0.1,0.1,0.2,0.2,0.2,0.3
		C35.9,115.4,35.8,115.5,35.7,115.7z M38.9,117.3l0.2-0.3l-1.8-1.1l-1.5,2.4l1.8,1.1l0.2-0.3l-1.5-0.9l0.5-0.8l1.4,0.8l0.2-0.3
		l-1.4-0.8l0.5-0.7L38.9,117.3z M41.7,118.1c-0.1-0.1-0.3-0.2-0.5-0.3l-1.3-0.4l-0.9,2.6l0.4,0.1h0l0.4-1.1l0.9,0.3
		c0.1,0,0.3,0.1,0.3,0.1c0.1,0.1,0.1,0.2,0.1,0.4l-0.1,0.4c0,0.1,0,0.2-0.1,0.2c0,0,0,0.1,0,0.1l0.4,0.2l0-0.1c0,0-0.1-0.1-0.1-0.2
		c0,0,0-0.1,0-0.2l0.1-0.4c0-0.2,0.1-0.3,0-0.4c0-0.1-0.1-0.2-0.2-0.3c0.1,0,0.3-0.1,0.4-0.1c0.1-0.1,0.2-0.2,0.2-0.4
		C42,118.5,42,118.3,41.7,118.1z M41.5,118.8c-0.1,0.2-0.1,0.3-0.3,0.3c-0.1,0-0.3,0-0.4,0l-0.8-0.3l0.3-0.9l0.9,0.3
		c0.1,0,0.2,0.1,0.3,0.2C41.6,118.4,41.6,118.6,41.5,118.8z"/>
	<path class="st13" d="M43.3,72.1c0.3-0.8,3.4-2.9,13.3-2c0,0,1.7,1,2.7,0.9c0.6-0.1-0.3,0-1.1-0.6c-0.7-0.6-0.9-1.9,0.8-1.8
		c1.7,0,8.1,0.4,8.2,1c0.1,0.6-3.4,0.8-4.7,0.8c-1.3,0-1.2,0.6,0.1,0.6c4.1-0.1,8.5-1.6,13.1,1.7c0.6,0.4-1.4,0.5-2.9-0.2
		c0,0-4.1,0.2-5.9-0.1c0,0-1.4,1.1-3.2,1c0.2,0.6-0.7,2.7-6.3,1.1c-0.9,0.3-4.3,0.8-3.9-0.2c-0.9,0-2.4,0.3-2.7-0.2
		c-0.2-0.5,2.7-1.2,3.3-1.8c0,0-6.3,0.1-7.5-0.4C46.8,72,43.1,72.9,43.3,72.1L43.3,72.1z"/>
	<path class="st14" d="M45.3,80.9c0.1-0.2,0.2-0.5,0.5-0.5c0.6,0.2,1,1.3,1.8,0.6c0.3-0.1,0.4,0.3,0.6,0.4c0.1,0.6,0.7-0.1,1-0.1
		c0.8-0.4,1.8-0.4,2.8-0.3c0,0.6-0.5,1.3-1.1,1.7c0,0.6,0.6,1,0.6,1.7c-0.1,0.2,0,0.6-0.4,0.7c-0.4-0.1-0.9-0.1-1.3-0.4
		c0,0-0.1-0.1-0.2-0.1c0,0.2,0.3,0.4,0.4,0.6c-0.2,0.4-0.6,0-0.9,0c-0.1,0.2,0,0.5-0.2,0.6c-0.4,0-0.5-0.4-0.7-0.7
		c-0.3,0.3,0.2,0.4,0.2,0.6c-0.2,0.8-0.1,1.6-0.9,2.1L47,88.2c-0.1-0.4-0.1-1-0.2-1.5c-0.3,0.5-0.6,1-1.1,1.4
		c-0.6-0.2-0.9-0.8-1-1.4c-0.2-0.6-0.1-1.4,0.4-1.8c-0.2-0.3-0.8-0.3-0.8-0.7c-0.9-0.6-1.4,1-1.9,0.2c-0.2-0.8,0-1.7,0.6-2.3
		c-0.1-0.3-0.5-0.2-0.8-0.4c-0.5-0.5-1.3-1-1.3-1.8C42.4,79.4,44.2,79.8,45.3,80.9L45.3,80.9z"/>
	<path class="st9" d="M46.1,80.8c-0.1-0.2-0.3-0.1-0.4-0.1c-0.2,0.1-0.1,0.4-0.1,0.6c-0.2,0.2-0.5-0.2-0.8,0.1
		c-0.1,0.1,0,0.3,0.1,0.4c0.2,0,0.4,0,0.6-0.2c0.1,0,0,0.2,0.1,0.2c0.2,0.2,0.2,0.5,0.5,0.4c0.2-0.3,0-0.3-0.1-0.5l0.2-0.2
		c0.3,0.3,0.5-0.3,0.8-0.2C46.6,81,46.1,81.5,46.1,80.8z M48.7,82c-0.1-0.2-0.4-0.3-0.6-0.2c-0.2-0.1-0.1-0.3-0.1-0.4
		c-0.5-0.7-0.6,0.3-0.8,0.5c-0.1-0.1-0.4-0.2-0.5-0.1c-0.1,0.2,0,0.4,0.1,0.5c0.4,0.2,0.2-0.3,0.5-0.3c0.2,0.1,0,0.4,0.2,0.5
		c0.2-0.1,0.3,0.3,0.5,0.1c0-0.2-0.2-0.2-0.2-0.4c0.1-0.1,0.2-0.2,0.4-0.2c0,0.1,0.1,0.1,0.1,0.2l0.3,0.1
		C48.7,82.3,48.7,82.1,48.7,82z M46.8,83.2c-0.4,0.1-0.7-0.6-1-0.1c-0.2-0.3,0-0.5-0.2-0.8C45.5,82.2,45.3,82,45,82
		c-0.4,0.2-0.2,0.6-0.3,1c-0.3,0.2-0.8-0.3-1.1,0.2c-0.1,0.3-0.1,0.6,0.2,0.8c0.5,0.3,0.5-0.1,0.7-0.4c0.3,0.2,0,0.4,0.1,0.7
		c0.2,0.4,0.7,0.3,1,0.3c0.2-0.4,0-0.6-0.3-0.8l0.1-0.1c0.4,0.4,0.9,0.2,1.4,0.1C46.8,83.5,46.9,83.4,46.8,83.2z"/>
	<path class="st5" d="M46,82.6c0.2,0,0.8,0.8,0.9,0.1C46.5,82.8,46.3,82,46,82.6z M48.2,82.7L48,82.9c0.2,0.2,0.1,0.6,0.5,0.5
		C48.4,83.2,48.3,82.9,48.2,82.7z"/>
	<path class="st9" d="M48,83.3c0.1,0.2-0.2,0.4,0.1,0.6c0.1-0.1,0.2-0.2,0.3-0.2c0.2,0.1,0.5,0.1,0.7,0.4c0.2,0.5-0.3,0.5-0.6,0.6
		l-0.3,0c0.1-0.1-0.1-0.2-0.2-0.3c-0.1,0-0.2,0-0.3,0.1c0.1,0.3,0.5,0.6,0.1,0.9c-0.3,0-0.9,0.1-0.8-0.4c-0.1-0.3,0.3-0.7-0.2-0.7
		c-0.2,0.4-0.4,0.7-0.8,0.4l0.1-0.5c0.4,0,0.9,0.1,1.1-0.4c0.1-0.3-0.2-0.7,0.1-0.9C47.6,82.7,47.8,83,48,83.3L48,83.3z"/>
	<path d="M47.7,84c0.1,0.3-0.2,0.3-0.3,0.4c-0.2,0-0.3-0.1-0.4-0.2c-0.1-0.3,0.1-0.3,0.3-0.5C47.5,83.7,47.6,83.9,47.7,84L47.7,84z"
		/>
	<path class="st5" d="M47.5,84.2c0,0.1-0.1,0-0.2,0.1l-0.1-0.3C47.4,84,47.6,84,47.5,84.2L47.5,84.2z"/>
</g>
</svg>
