<svg xmlns="http://www.w3.org/2000/svg" width="192" height="192"><path fill="#D20000" d="M172 160V32c0-6.6-5.4-12-12-12H32c-6.6 0-12 5.4-12 12v128c0 6.6 5.4 12 12 12h128c6.6 0 12-5.4 12-12z"/><path fill="#FFE600" d="M99.74 122.89L111.2 172H80.8l11.46-49.11c1.22.17 2.47.26 3.74.26s2.52-.1 3.74-.26zM96 74.29c-11.99 0-21.71 9.72-21.71 21.71s9.72 21.71 21.71 21.71 21.71-9.72 21.71-21.71S107.99 74.29 96 74.29zm21.01 38.9L172 151.06V134l-51.72-25.86c-.9 1.81-2 3.5-3.27 5.05zM123.14 96c0 .91-.05 1.81-.13 2.7l48.99 4.9V88.4l-48.99 4.9c.09.89.13 1.79.13 2.7zm-54.28 0c0-.91.05-1.81.13-2.7L20 88.4v15.2l48.99-4.9c-.09-.89-.13-1.79-.13-2.7zm48.15-17.19c1.27 1.55 2.37 3.24 3.27 5.04L172 58V40.94l-54.99 37.87zm-42.02 0L20 40.94V58l51.72 25.86c.9-1.81 2-3.5 3.27-5.05zM20 134v17.06l54.99-37.88a27.032 27.032 0 01-3.27-5.04L20 134zm76-65.14c1.27 0 2.52.09 3.74.26L111.2 20H80.8l11.46 49.11c1.22-.16 2.47-.25 3.74-.25z"/><path fill="none" d="M160 20H32c-6.6 0-12 5.4-12 12v128c0 6.6 5.4 12 12 12h128c6.6 0 12-5.4 12-12V32c0-6.6-5.4-12-12-12z"/><path fill="none" d="M0 0v192h192V0H0z"/><path fill="#DFDFDF" d="M160 20c6.6 0 12 5.4 12 12v128c0 6.6-5.4 12-12 12H32c-6.6 0-12-5.4-12-12V32c0-6.6 5.4-12 12-12h128m0-8H32c-11.03 0-20 8.97-20 20v128c0 11.03 8.97 20 20 20h128c11.03 0 20-8.97 20-20V32c0-11.03-8.97-20-20-20z"/><path fill="#FFF" fill-opacity=".2" d="M160 20H32c-6.6 0-12 5.4-12 12v1c0-6.6 5.4-12 12-12h128c6.6 0 12 5.4 12 12v-1c0-6.6-5.4-12-12-12z"/><path fill="#212121" fill-opacity=".1" d="M160 172H32c-6.6 0-12-5.4-12-12v-1c0 6.6 5.4 12 12 12h128c6.6 0 12-5.4 12-12v1c0 6.6-5.4 12-12 12z"/><radialGradient id="a" cx="23.768" cy="23.933" r="204.625" gradientUnits="userSpaceOnUse"><stop offset="0" stop-color="#fff" stop-opacity=".1"/><stop offset="1" stop-color="#fff" stop-opacity="0"/></radialGradient><path fill="url(#a)" d="M160 172H32c-6.6 0-12-5.4-12-12V32c0-6.6 5.4-12 12-12h128c6.6 0 12 5.4 12 12v128c0 6.6-5.4 12-12 12z"/></svg>