<svg xmlns="http://www.w3.org/2000/svg" width="192" height="192"><path fill="#C4272F" d="M172 160V32c0-6.6-5.4-12-12-12H32c-6.6 0-12 5.4-12 12v128c0 6.6 5.4 12 12 12h128c6.6 0 12-5.4 12-12z"/><path fill="#015197" d="M172 160V32c0-6.6-5.4-12-12-12h-39v152h39c6.6 0 12-5.4 12-12z"/><path fill="#F9CF02" d="M56.93 71.73v-.24c2.35 5.36 7.7 9.11 13.93 9.11s11.58-3.75 13.93-9.11v.24c0 7.7-6.24 13.93-13.93 13.93s-13.93-6.23-13.93-13.93zm13.94 6.34c5.6 0 10.13-4.54 10.13-10.13S76.46 57.8 70.87 57.8c-5.6 0-10.13 4.54-10.13 10.13s4.53 10.14 10.13 10.14zm0-22.8c3.5 0 6.33-2.84 6.33-6.33 0-2.53-1.58-2.85-1.58-3.8 0-.95.95-2.22-.95-3.8.95 1.58-.63 1.9-.63 3.48s.63 1.58.63 2.85c0 .7-.57 1.27-1.27 1.27s-1.27-.57-1.27-1.27c0-1.27 1.27-2.53 1.27-4.43s-.32-2.53-1.27-4.12c-.95-1.58-2.53-2.85-1.27-4.12-1.9.63-.95 3.17-.95 4.75s-1.27 2.53-1.27 4.43.95 2.22.95 3.48c0 .7-.57 1.27-1.27 1.27s-1.27-.57-1.27-1.27c0-1.27.63-1.27.63-2.85s-1.58-1.9-.63-3.48c-1.9 1.58-.95 2.85-.95 3.8 0 .95-1.58 1.27-1.58 3.8.01 3.5 2.85 6.34 6.35 6.34zM58.2 88.2l12.67 7.6 12.67-7.6H58.2zM43 149h12.67V88.2H43V149zm15.2-10.13h25.33v-5.07H58.2v5.07zM70.87 149l12.67-7.6H58.2l12.67 7.6zm15.2-60.8V149h12.67V88.2H86.07zM58.2 103.4h25.33v-5.07H58.2v5.07zm18.62 8.49c0 3.28-2.67 5.95-5.95 5.95-4.12 0-7.47 3.35-7.47 7.47a7.4 7.4 0 001.46 4.43 12.673 12.673 0 01-6.65-11.15c0-6.98 5.68-12.67 12.67-12.67 3.27.01 5.94 2.68 5.94 5.97zm-3.42 0c0-1.4-1.13-2.53-2.53-2.53s-2.53 1.13-2.53 2.53 1.13 2.53 2.53 2.53 2.53-1.13 2.53-2.53zm10.13 6.71c0 6.98-5.68 12.67-12.67 12.67-3.28 0-5.95-2.67-5.95-5.95s2.67-5.95 5.95-5.95c4.12 0 7.47-3.35 7.47-7.47a7.4 7.4 0 00-1.46-4.43 12.62 12.62 0 016.66 11.13zm-10.13 6.71c0-1.4-1.13-2.53-2.53-2.53s-2.53 1.13-2.53 2.53 1.13 2.53 2.53 2.53a2.52 2.52 0 002.53-2.53z"/><path fill="none" d="M160 20H32c-6.6 0-12 5.4-12 12v128c0 6.6 5.4 12 12 12h128c6.6 0 12-5.4 12-12V32c0-6.6-5.4-12-12-12z"/><path fill="none" d="M0 0v192h192V0H0z"/><path fill="#DFDFDF" d="M160 20c6.6 0 12 5.4 12 12v128c0 6.6-5.4 12-12 12H32c-6.6 0-12-5.4-12-12V32c0-6.6 5.4-12 12-12h128m0-8H32c-11.03 0-20 8.97-20 20v128c0 11.03 8.97 20 20 20h128c11.03 0 20-8.97 20-20V32c0-11.03-8.97-20-20-20z"/><path fill="#FFF" fill-opacity=".2" d="M160 20H32c-6.6 0-12 5.4-12 12v1c0-6.6 5.4-12 12-12h128c6.6 0 12 5.4 12 12v-1c0-6.6-5.4-12-12-12z"/><path fill="#212121" fill-opacity=".1" d="M160 172H32c-6.6 0-12-5.4-12-12v-1c0 6.6 5.4 12 12 12h128c6.6 0 12-5.4 12-12v1c0 6.6-5.4 12-12 12z"/><radialGradient id="a" cx="23.768" cy="23.933" r="204.625" gradientUnits="userSpaceOnUse"><stop offset="0" stop-color="#fff" stop-opacity=".1"/><stop offset="1" stop-color="#fff" stop-opacity="0"/></radialGradient><path fill="url(#a)" d="M160 172H32c-6.6 0-12-5.4-12-12V32c0-6.6 5.4-12 12-12h128c6.6 0 12 5.4 12 12v128c0 6.6-5.4 12-12 12z"/></svg>