<svg xmlns="http://www.w3.org/2000/svg" width="192" height="192"><path fill="#00785E" d="M172 160V32c0-6.6-5.4-12-12-12H32c-6.6 0-12 5.4-12 12v128c0 6.6 5.4 12 12 12h128c6.6 0 12-5.4 12-12z"/><path fill="#FFF" d="M96 123.75h33.66c-.39.43-.8.85-1.2 1.27H63.55c-.41-.41-.81-.84-1.2-1.27H96zm-29.65 3.88c.8.69 1.63 1.35 2.48 1.98h54.34c.85-.63 1.67-1.29 2.48-1.98h-59.3zm5.36 3.96c1.47.93 3 1.78 4.57 2.53h39.43c1.58-.76 3.1-1.61 4.57-2.53H71.71zm7.47 3.8c5.2 2.07 10.88 3.21 16.82 3.21s11.61-1.14 16.82-3.21H79.18zm33.68-20.9c-1.56 0-3.08-.14-4.57-.41.7.06 1.4.09 2.11.09 10.98 0 20.36-6.91 24.03-16.61a30.063 30.063 0 00-11.61-2.31c-7.36 0-14.1 2.64-19.34 7.01 5.49-5.72 13.2-9.3 21.75-9.31.55-1.06 1.27-2.01 2.14-2.82-.46-.02-.92-.03-1.38-.03-8.59 0-16.35 3.59-21.85 9.36a25.57 25.57 0 005.03-15.26c0-4.59-1.21-8.9-3.32-12.64-.47 1.56-1.3 2.96-2.39 4.11 1.58 3.33 2.46 7.05 2.46 10.98 0 5.91-2 11.36-5.36 15.7 2.74-4.08 4.33-8.99 4.33-14.28 0-2.54-.37-5-1.06-7.32C102 74.56 98.09 70.51 96 68.64c-2.09 1.87-6 5.92-7.85 12.12-.69 2.32-1.06 4.78-1.06 7.32 0 5.28 1.6 10.19 4.33 14.28a25.565 25.565 0 01-5.36-15.7c0-3.93.88-7.65 2.46-10.98a10.292 10.292 0 01-2.39-4.11 25.587 25.587 0 00-3.32 12.64c0 5.71 1.87 10.99 5.03 15.26C82.34 93.7 74.59 90.1 66 90.1c-.46 0-.92.01-1.38.03.86.81 1.59 1.76 2.14 2.82 8.55.01 16.26 3.58 21.75 9.31a30.061 30.061 0 00-19.34-7.01c-4.11 0-8.03.82-11.61 2.31 3.67 9.7 13.05 16.61 24.03 16.61.71 0 1.42-.03 2.11-.09-1.48.27-3.01.41-4.57.41a25.61 25.61 0 01-17.84-7.21c-.96.37-1.99.6-3.07.67 4.71 5.33 11.59 8.69 19.25 8.69 7.28 0 13.85-3.03 18.53-7.9 4.68 4.87 11.25 7.9 18.53 7.9 7.66 0 14.54-3.36 19.25-8.69-1.08-.06-2.11-.3-3.07-.67-4.63 4.46-10.92 7.21-17.85 7.21zm-6.57 3.02c-5.05-1.53-8.47-4.29-10.29-6.01-1.82 1.72-5.24 4.48-10.29 6.01-2.36.71-4.86 1.1-7.44 1.1h-20c.59.87 1.21 1.71 1.85 2.53h19.33c6.3 0 12.08-2.27 16.55-6.04a25.571 25.571 0 0016.55 6.04h19.33c.65-.82 1.26-1.67 1.85-2.53h-19.99c-2.6-.01-5.09-.39-7.45-1.1z"/><path fill="#FBD116" d="M103.94 54.43L99.03 58l1.87 5.77L96 60.2l-4.91 3.57L92.97 58l-4.91-3.57h6.07L96 48.66l1.88 5.77h6.06zM64.89 76.17l-.8-4.12-1.77 3.8-4.17-.51 3.07 2.86-1.77 3.81 3.67-2.04 3.07 2.86-.8-4.12 3.67-2.04-4.17-.5zm12.58-13.3l1.37-3.97-3.44 2.41-3.35-2.53 1.23 4.01-3.44 2.41 4.2.07 1.23 4.02 1.37-3.97 4.2.07-3.37-2.52zm53.31 15.34l3.07-2.86-4.17.51-1.77-3.8-.8 4.12-4.17.51 3.67 2.04-.8 4.12 3.07-2.86 3.67 2.04-1.77-3.82zM118.73 62.8l1.23-4.01-3.35 2.53-3.44-2.41 1.37 3.97-3.35 2.53 4.2-.07 1.37 3.97 1.23-4.02 4.2-.07-3.46-2.42z"/><path fill="none" d="M160 20H32c-6.6 0-12 5.4-12 12v128c0 6.6 5.4 12 12 12h128c6.6 0 12-5.4 12-12V32c0-6.6-5.4-12-12-12z"/><path fill="none" d="M0 0v192h192V0H0z"/><path fill="#DFDFDF" d="M160 20c6.6 0 12 5.4 12 12v128c0 6.6-5.4 12-12 12H32c-6.6 0-12-5.4-12-12V32c0-6.6 5.4-12 12-12h128m0-8H32c-11.03 0-20 8.97-20 20v128c0 11.03 8.97 20 20 20h128c11.03 0 20-8.97 20-20V32c0-11.03-8.97-20-20-20z"/><path fill="#FFF" fill-opacity=".2" d="M160 20H32c-6.6 0-12 5.4-12 12v1c0-6.6 5.4-12 12-12h128c6.6 0 12 5.4 12 12v-1c0-6.6-5.4-12-12-12z"/><path fill="#212121" fill-opacity=".1" d="M160 172H32c-6.6 0-12-5.4-12-12v-1c0 6.6 5.4 12 12 12h128c6.6 0 12-5.4 12-12v1c0 6.6-5.4 12-12 12z"/><radialGradient id="a" cx="23.768" cy="23.933" r="204.625" gradientUnits="userSpaceOnUse"><stop offset="0" stop-color="#fff" stop-opacity=".1"/><stop offset="1" stop-color="#fff" stop-opacity="0"/></radialGradient><path fill="url(#a)" d="M160 172H32c-6.6 0-12-5.4-12-12V32c0-6.6 5.4-12 12-12h128c6.6 0 12 5.4 12 12v128c0 6.6-5.4 12-12 12z"/></svg>