<svg xmlns="http://www.w3.org/2000/svg" width="192" height="192"><path fill="#CF142B" d="M172 160V32c0-6.6-5.4-12-12-12H32c-6.6 0-12 5.4-12 12v128c0 6.6 5.4 12 12 12h128c6.6 0 12-5.4 12-12z"/><path fill="#FFF" d="M32 20c-6.6 0-12 5.4-12 12v128c0 6.6 5.4 12 12 12h64V20H32z"/><path fill="#E60D2E" d="M56.71 41.35c0-1.92-1.92-3.84-3.84-3.84V26H41.35v11.52c-1.92 0-3.84 1.92-3.84 3.84H26v11.52h11.52c0 1.92 1.92 3.84 3.84 3.84v11.52h11.51V56.71c1.92 0 3.84-1.92 3.84-3.84h11.52V41.35H56.71zM67.45 52.1H55.94c0 .19-.02.38-.06.57.44.71.21 1.81-.59 2.61-.8.8-1.9 1.03-2.61.59-.19.04-.38.06-.57.06v11.52h-9.98V55.94c-.19 0-.38-.02-.57-.06-.71.44-1.81.21-2.61-.59-.8-.8-1.03-1.9-.59-2.61a2.76 2.76 0 01-.06-.57H26.77v-9.98h11.51c0-.19.02-.38.06-.57-.44-.71-.21-1.81.59-2.61.8-.8 1.9-1.03 2.61-.59.19-.04.38-.06.57-.06V26.77h9.98v11.52c.19 0 .38.02.57.06.71-.44 1.81-.21 2.61.59.8.8 1.03 1.9.59 2.61.04.19.06.38.06.57h11.51v9.98z"/><path fill="#CCC" d="M55.56 42.5c0-.19-.02-.37-.06-.56-.62.42-1.57.29-2.35-.31-.18-.19-.36-.38-.56-.56-.6-.78-.73-1.73-.31-2.35-.19-.03-.37-.06-.56-.06V27.15h-9.21v11.52c-.19 0-.38.02-.56.06.42.62.29 1.57-.31 2.35-.19.18-.38.36-.56.56-.78.6-1.73.73-2.35.31-.03.19-.06.37-.06.56H27.15v9.21h11.51c0 .19.02.38.06.56.62-.42 1.57-.29 2.35.31.18.19.36.38.56.56.6.78.73 1.73.31 2.35.19.03.37.06.56.06v11.52h9.21V55.56c.19 0 .38-.02.56-.06-.42-.62-.29-1.57.31-2.35.19-.18.38-.36.56-.56.78-.6 1.73-.73 2.35-.31.04-.19.06-.37.06-.56h11.51V42.5h-11.5z"/><path fill="#D0D0D0" d="M38.39 40.56zm1.09-1.08l-.27.27.54 1.09-1.09-.54-.27.27 2.17 1.09-1.08-2.18zm.54-.54l1.63 1.63.27-.27-1.63-1.63-.27.27zm13.64-.55zm1.08 1.09l-.27-.27-1.09.54.54-1.09-.27-.27-1.09 2.17 2.18-1.08zm-.81 2.44l1.63-1.63-.27-.27-1.63 1.63.27.27zm1.9 11.74zm-1.09 1.08l.27-.27-.54-1.09 1.09.54.27-.27-2.17-1.09 1.08 2.18zm-2.44-.81l1.63 1.63.27-.27-1.63-1.63-.27.27zm-11.74 1.9zm-1.08-1.09l.27.27 1.09-.54-.54 1.09.27.27 1.09-2.17-2.18 1.08zm.81-2.44l-1.63 1.63.27.27 1.63-1.63-.27-.27z"/><path d="M44.42 53.64a.38.38 0 11-.38-.38c.21-.01.38.16.38.38zm5.76-.39a.38.38 0 100 .76.38.38 0 000-.76zm-2.3.79h-.51v-.4c0-.4-.51-.4-.51 0v.4h-.51c-.51 0-.51.4 0 .4h.51v.4c0 .12.04.21.1.27.09.08.21.09.29 0 .05-.05.08-.13.09-.23l.03-.43h.51c.51-.01.51-.41 0-.41zm-6.57-9.83l.04.01-.13.34-.77.21c-.01.03-.02.06-.03.08 0 .01-.01.02-.01.03 0 .01-.01.02-.01.03l.37.14c.08.03.14.04.16.03.04-.01.06-.04.08-.09l.02-.05.04.01-.21.55-.04-.01.02-.05c.02-.05.02-.1-.01-.14-.01-.02-.06-.05-.13-.07l-.83-.32c-.08-.03-.14-.04-.16-.03-.04.01-.07.05-.08.09l-.02.05-.04-.01.18-.47c.05-.14.1-.23.15-.29.04-.06.1-.1.17-.12a.41.41 0 01.22 0c.08.03.14.08.18.16s.05.17.03.29l.47-.13c.11-.03.18-.06.23-.09.04-.04.08-.09.11-.15zm-.93.31a.286.286 0 00-.17-.17.305.305 0 00-.23 0c-.07.03-.12.09-.15.17-.01.04-.03.09-.04.16l.54.2c0-.01.01-.02.01-.03 0-.01.01-.02.01-.02.05-.12.06-.23.03-.31zm.42 4.09l.01.05c.01.03.01.06 0 .1-.01.02-.02.04-.03.05-.02.01-.06.03-.13.04l-.42.1-.06-.24c-.01-.04-.01-.08-.01-.11.01-.03.02-.05.04-.07.02-.02.06-.03.11-.05l-.01-.04-.45.11.01.04c.08-.01.13 0 .16.02s.05.06.07.11l.06.24-.53.13-.07-.3c-.02-.07-.02-.12-.02-.16a.3.3 0 01.04-.1c.02-.03.07-.06.12-.09l-.01-.03-.29.08.24 1 .04-.01-.01-.05a.17.17 0 010-.1c.01-.02.02-.04.03-.05.02-.01.06-.03.13-.04l.87-.21c.08-.02.13-.02.16-.01.04.02.06.05.08.11l.01.05.04-.01-.14-.58-.04.02zm11.34-5.47l-.03-.04a.192.192 0 01-.04-.12c.01-.03.04-.07.11-.12l.68-.51-.35 1.39.02.03.93-.69c.06-.05.11-.07.13-.07.04 0 .08.02.12.07l.03.04.03-.02-.29-.39-.03.02.03.04c.03.04.04.08.04.12-.01.03-.04.07-.11.12l-.64.47.33-1.29-.22-.3-.03.02c.02.03.04.06.05.08.01.04.02.07.02.1s-.01.07-.02.13l-.77.57c-.06.05-.11.07-.13.07-.04 0-.08-.02-.12-.07l-.03-.04-.03.02.29.39.03-.02zm-12.71 4.05a.665.665 0 01-.15-.47c.01-.18.09-.33.23-.45s.32-.18.52-.17c.21.01.38.09.51.23s.19.3.18.49c-.01.19-.09.35-.23.47a.69.69 0 01-.53.16c-.23-.02-.4-.1-.53-.26zm-.08-.45c-.01.12.03.22.12.3.11.1.27.16.49.17.22.01.4-.03.53-.12.1-.07.15-.16.15-.28a.41.41 0 00-.13-.33c-.1-.09-.25-.14-.47-.15-.24-.01-.41.02-.54.11-.1.07-.15.17-.15.3zm15.22 2.63zm-1.3-4.08l-.02-.05c-.02-.05-.02-.09 0-.13.01-.02.06-.05.14-.08l.99-.35.06.18c.02.05.03.1.02.14-.01.04-.02.08-.05.11-.02.02-.05.04-.1.07l.01.04.3-.12-.38-1.06-.31.09.01.04c.06-.02.11-.02.16-.01.04.01.08.03.1.06.02.02.04.06.06.12l.06.16-.99.35c-.07.03-.12.04-.15.03-.04-.01-.07-.04-.09-.1l-.02-.05-.04.01.2.55h.04zm-10.24-3.41c.21.07.43.03.65-.12.08-.05.14-.1.2-.16.05-.06.1-.13.14-.2l-.23-.35a.301.301 0 01-.06-.14c0-.04.02-.07.06-.1l.02-.01-.02-.03-.45.29.02.03c.05-.03.08-.05.11-.05s.05 0 .07.01c.02.01.05.05.09.11l.22.33a.36.36 0 01-.08.12c-.03.04-.07.07-.11.1a.43.43 0 01-.25.07c-.1 0-.2-.03-.3-.09a.807.807 0 01-.26-.26.733.733 0 01-.13-.41c0-.17.08-.3.22-.39.11-.07.22-.09.33-.07.08.02.16.06.25.13l.03-.02-.27-.35-.03.02c.02.03.03.05.02.07 0 .01-.01.03-.02.03-.01.01-.04.01-.08.02-.08.02-.14.03-.18.05l-.12.06c-.12.07-.2.16-.25.27-.06.13-.09.26-.07.41.01.13.05.24.12.34.08.14.21.24.36.29zm1.7-.73l-.01-.04c.05-.02.09-.05.1-.07.03-.04.05-.11.06-.22l.18-1.22.03-.01.76.99c.06.08.11.13.15.15.04.02.08.02.14.01l.01.04-.53.14-.01-.04c.05-.02.09-.04.1-.06.01-.02.02-.04.01-.06a.405.405 0 00-.08-.13l-.13-.17-.51.14-.03.23c-.01.06-.01.1 0 .12.01.02.02.04.04.05.02.01.07.01.13 0l.01.04-.42.11zm.28-.63l.46-.12-.37-.48-.09.6zm4.77.38l-.03-.02c-.06.07-.11.12-.16.15a.25.25 0 01-.14.04.59.59 0 01-.22-.05l-.1-.03c-.08-.03-.13-.05-.15-.06-.01-.01-.02-.03-.03-.04 0-.02 0-.06.02-.12l.27-.82c.03-.08.05-.13.06-.14a.09.09 0 01.07-.03c.03 0 .08.01.15.03l.01-.04-.59-.2-.01.04.07.02c.05.02.08.04.1.08.01.03 0 .08-.02.16l-.28.85c-.02.07-.05.12-.07.14-.04.03-.08.03-.14.01l-.05-.02-.01.04 1.01.34.24-.33zm-1.87-.51zm6.94 6.54c-.02.07-.05.13-.11.18a.28.28 0 01-.2.08.34.34 0 01-.22-.07c-.07-.05-.11-.14-.15-.25l-.38.31a.67.67 0 00-.17.18c-.03.05-.04.11-.05.19h-.04l-.02-.37.62-.5c0-.03-.01-.06-.01-.08v-.03-.03l-.4.02c-.09 0-.14.02-.16.04-.03.03-.04.07-.04.12v.05h-.04l-.03-.59h.04v.05c0 .06.02.1.06.12.02.01.07.02.15.01l.89-.05c.09 0 .14-.02.16-.04.03-.03.04-.07.04-.12v-.05h.04l.03.5c.02.15.01.26-.01.33zm-.06-.27c0-.04-.01-.09-.03-.16l-.57.03v.05c.01.13.04.23.1.29.06.06.13.09.22.09s.15-.04.21-.09c.05-.05.08-.12.07-.21zm-6.85-6.26l-.03-.01c-.04.08-.08.15-.11.18-.04.04-.08.06-.12.08-.04.01-.12.02-.22.01h-.1c-.09 0-.14-.01-.16-.02-.02-.01-.03-.02-.04-.03-.01-.02-.01-.06-.01-.12l.03-.87c0-.08.01-.13.02-.16.01-.02.03-.04.06-.05.03-.01.08-.02.15-.01v-.04l-.62-.02v.04h.05c.05 0 .09.02.12.05.02.02.03.08.02.16l-.03.89c0 .08-.01.13-.03.15-.03.04-.07.05-.13.05h-.05v.04l1.07.04.13-.36zm6.82 8.08c-.04.04-.06.07-.08.08-.02.01-.07.03-.15.06l-.66.22-.32-.08a.377.377 0 01-.14-.06c-.03-.03-.03-.08-.02-.13l.01-.05-.04-.01-.15.57.04.01.01-.04c.01-.05.04-.09.07-.11.03-.01.08-.01.16.01l.33.09.42.46c.05.06.09.1.11.14.02.03.04.07.04.11.01.04.01.06 0 .08l-.01.03.04.01.12-.47-.04-.01c-.01.04-.02.06-.03.08-.01.02-.03.03-.04.03-.02.01-.03.01-.05 0a.307.307 0 01-.12-.1l-.34-.37.5-.17c.07-.02.12-.03.14-.03.03.01.05.03.05.06.01.03.01.06 0 .09l-.01.03.07-.01.15-.57-.04-.01c0 .03-.01.04-.02.06zm-4.21-6.72l-.35-.26.02-.03c.05.03.09.04.11.03.05-.01.12-.04.21-.1l1.05-.65.03.02-.27 1.23c-.02.1-.03.17-.02.21s.04.08.08.11l-.02.03-.44-.31.02-.03c.05.03.08.04.11.04.02 0 .04-.01.06-.03.02-.02.03-.07.05-.14l.05-.21-.44-.31-.2.12c-.05.03-.08.06-.1.08-.01.02-.01.04-.01.06.01.02.04.06.09.1l-.03.04zm.31-.44l.39.27.13-.59-.52.32zm1.7 4.61l.03.02-.03.02c-.01 0-.16.11-.33.11-.13 0-.24-.07-.31-.19-.08 0-.18-.06-.31-.13-.21-.11-.47-.26-.79-.26-.08 0-.16.01-.23.03-.03.47-.43.82-.61.96.05 0 .12-.01.21-.01.2 0 .47.02.66.14.35.29.85.69.86.69l.01.01.47.81-.04.01s-.4.07-.58-.42c-.02.05-.05.09-.09.09-.05 0-.09-.06-.15-.16-.1-.16-.25-.41-.55-.57-.07.01-.12.01-.17.01-.1 0-.18-.03-.28-.1-.1.03-.21.06-.32.1-.31.1-.67.22-1.06.22-.07 0-.14 0-.21-.01-.06.02-.11.04-.16.06.06.14.12.26.17.35.07.07.23.19.39.31.12.09.21.16.28.22.31-.32.73-.69.99-.69.02 0 .04 0 .06.01l.05.01-.04.03c-.28.24-.44.64-.53 1.03.02-.02.04-.05.07-.07.07-.05.14-.08.21-.08.16 0 .31.12.43.23.1.09.2.17.28.18.07.01.11-.01.13-.04.03-.04.01-.11 0-.14-.03-.02-.15-.1-.2-.24h-.03c-.09 0-.23.01-.3-.07a.159.159 0 01-.04-.14v-.03l.03.01h.01c-.15-.12-.25-.27-.25-.27l.04-.04c.1.06.37.21.51.21-.12-.08-.29-.21-.3-.36-.01-.23.37-.48.39-.49l.03-.02.19.46.2.01.01.01c.01.01.17.28.27.49.11 0 .2.01.21.01h.02v.02s.01.07-.02.12c.06.01.18.01.25.01h.08l-.07.05-.09.07c.07.03.14.1.15.11l.03.04-.05.01c-.01 0-.14.02-.24 0 .03.08.03.15.03.15v.03l-.03-.01c-.01 0-.17-.04-.3-.14-.08.23-.22.44-.44.51-.03.01-.06.01-.09.01-.15 0-.29-.1-.42-.18-.09-.06-.17-.12-.23-.12-.02 0-.04 0-.06.04-.05.1.07.27.19.46.12.17.24.34.26.5.15-.09.45-.32.51-.36 0-.09.03-.6.27-.66h.02c.03.02.08.05.08.1.11-.01.19.05.2.13.03 0 .06.02.08.04.05.05.04.14.04.15v.02l-.25.05-.16.31c-.02.03-.29.48-.6.73.1.09.21.16.28.16.13 0 .18-.27.18-.38l.05-.01c.01.03.04.1.08.12h.04l.04-.02v.04c-.01.1.09.13.1.13l.03.01-.01.03c0 .01-.12.27-.41.35-.05.01-.1.02-.16.02-.19 0-.41-.09-.64-.25-.09.08-.25.09-.3.09-.02.02-.06.06-.11.09l.02.01.88.47-.54.43h-6.57l-.52-.44 1.35.07-1.66-.26v-.05l1.29.03.8-.06.26-.3h.01l.66-.08c.06-.07.12-.15.18-.25-.32-.18-.56-.2-.72-.21-.12-.01-.2-.02-.23-.09-.04-.09 0-.25.05-.42.05-.18.11-.38.07-.53-.48-.09-1.13-.51-1.38-1.05-.07.04-.14.06-.22.06-.16 0-.33-.09-.48-.16-.13-.07-.25-.13-.34-.13-.04 0-.07.01-.1.03-.03.02-.04.04-.04.06-.01.07.09.18.2.29.14.14.29.3.29.46 0 .3-.33.44-.42.48.01.05.05.19.12.25l.07.05h-.13c.04.09.12.29.05.41-.04.09-.23.11-.34.11h-.03c-.03.11-.09.36-.04.46l.02.04-.05-.01c-.13-.02-.15-.12-.16-.21 0-.03-.01-.05-.02-.07-.02.02-.03.02-.05.02a.11.11 0 01-.07-.03h-.01l-.09-.29v-.01l.03-.21-.14-.09c-.07-.08-.17-.26-.05-.41.05-.06.14-.11.24-.17.13-.07.26-.15.29-.25.01-.05-.01-.09-.04-.15-.25-.34-.39-.97-.04-1.23a.37.37 0 01.21-.06c.18 0 .39.09.6.18.21.09.43.18.6.18.03 0 .06 0 .09-.01.13-.44.37-.72.66-.9l-.56-.49-.07-.05h-.03c-.05 0-.08-.01-.09-.03-.06 0-.13-.03-.16-.08-.05 0-.11-.04-.13-.1-.02 0-.04-.01-.06-.03-.02-.02-.03-.06-.04-.09-.1-.1-.23-.26-.18-.32.01-.02.04-.02.07-.02.05 0 .13.02.2.04.01-.02.02-.03.02-.04 0-.03.01-.15.03-.31-.13.08-.25.19-.36.3-.23.22-.46.44-.72.44-.18 0-.36-.1-.54-.31l-.03-.03.04-.01c.06-.01.1-.04.12-.08.02-.03.03-.08.01-.14-.16.06-.29.05-.35-.04-.05-.08-.04-.2.02-.36.01-.03.01-.08.02-.13.02-.23.06-.61.41-.65-.05-.1-.04-.29.03-.47.1-.24.27-.38.46-.38.05 0 .09.01.14.02 0-.07.04-.18.1-.28.06-.09.18-.25.36-.25.03-.1.16-.31.44-.33h.02c.19.09.42.16.66.21l.01-.03c.1-.24.42-.26.51-.26h.01c.03-.06.13-.22.39-.22.09 0 .2.02.31.07.05-.03.12-.05.21-.05.05 0 .11.01.16.01.1-.37.43-.65.83-.65.48 0 .86.39.86.86v.02c.03-.01.08-.02.13-.02.04 0 .08.01.11.03.18-.13.33-.17.34-.18l.02-.01.01.02c0 .01.05.18-.01.31h.07c.22 0 .47.06.71.12.2.05.38.09.54.1h.01l.01.01c.12.24.11.33.08.47-.02.08-.08.13-.16.13h-.03c-.07.06-.15.12-.27.14-.12.14-.3.33-.51.53.24.29.5.68.43.87.17.1.39.4.44.48.11-.06.61-.34.79-.6l.01-.01h.01c.21 0 .5.13.75.24.19.08.36.16.49.18h.02c.36.3.72.59.72.6zm-3.01-2.51h-.1c-.09.13-.89 1.18-2.14 1.57-.08.02-.14 0-.19-.05-.15-.17-.1-.65-.09-.79H47c-.02.09-.1.58.06.79.05.06.11.09.2.1 1.18-.24 2.11-1.39 2.29-1.62zm-2.07 1.62c-.06.02-.12.03-.19.05l-.04.35c.08-.08.21-.23.23-.32v-.08zm-.31.53v-.02l-.02-.02v.16c.02-.04.03-.08.05-.12l-.01-.01-.02.01zm.03-.23l.02-.26a.272.272 0 01-.2-.11c-.2-.25-.07-.83-.07-.85v-.01l.04-.01-.03-.06c-.01 0-.02-.01-.02-.01-.05-.02-.12-.05-.14-.1-.08-.01-.13-.05-.15-.12-.08 0-.15-.09-.15-.1l-.02-.03.04-.01s.08-.01.15-.01c.06 0 .09.01.12.03h.01c.06.02.13.04.15.1.08.03.12.07.13.12l.01.01v-.16l-.3-.13c-.01 0-.34-.22-.55-.45a.384.384 0 00-.22-.07.89.89 0 00-.37.11c-.02.11.09.24.24.41.06.06.12.13.18.2.14.17.16.38.18.56.02.13.03.25.08.32.14.24.32.36.5.49.11.08.23.16.36.28l.01-.14zm-.77-2.59c0-.01 0-.03.01-.07-.05.03-.1.05-.15.08-.01.01-.03.01-.04.02.03.1.09.19.16.26.02-.01.03-.02.04-.03.01-.03.02-.09-.02-.26zm.05.29c-.03.04-.15.11-.18.13.18.18.42.35.48.39l.02-.01s.07-.03.11-.07l.01-.01.02.01h.02c.08 0 .22-.14.23-.19l.01-.02.02.01c.04.01.07.02.1.02.02 0 .04 0 .05-.02 0-.01.01-.05.02-.09.01-.07.02-.16.04-.22v-.01h.01c.05-.04.08-.1.09-.16-.02 0-.04.01-.07.01-.11 0-.25-.04-.39-.08-.15-.04-.31-.09-.46-.09-.04 0-.08 0-.11.01-.01.04-.01.07-.01.08.03.16.03.26-.01.31zm.6.59l.23-.19.05-.09c-.01 0-.03.01-.05.01-.03 0-.06-.01-.09-.02-.05.07-.19.21-.29.19-.02.02-.05.04-.07.05l.22.11v-.06zm-.01.76c-.01.19.01.41.09.51.02.02.04.03.07.04l-.16-.55zm-.87-1.59c-.13.06-.25.14-.33.22.08.02.15.04.22.06.04.01.07.02.1.03.04.01.07.02.09.03l.09-.06a.915.915 0 01-.17-.28zm.81 1.14v-.02c0-.05-.06-.08-.11-.09h-.01v-.01c-.01-.04-.07-.06-.13-.08l-.02-.01c-.01-.01-.03-.02-.09-.02-.03 0-.07 0-.09.01.03.03.06.05.09.04l.03-.01.01.03c.01.06.05.09.12.1h.02l.01.01c.02.04.08.07.12.08.02.01.03.01.04.02l.01.01v.01c0 .02.02.05.03.07l.03-.01v-.1c-.01-.02-.02-.03-.04-.03h-.02zm2.18-.28c-.17.12-.46.16-.57.18.04.04.11.12.19.21.15-.14.28-.28.38-.39zm-1.04-1.1c.01.01.02.01.02.02l.01.01v.01c-.05.15-.16.31-.3.5-.15.21-.32.45-.42.72-.18.47-.04.73-.03.74 0 .01.05.16.08.31.51-.2.94-.5 1.26-.78-.08-.1-.16-.19-.22-.25l-.05-.04h.05s.43-.04.62-.19l.01-.01h.05c.11-.13.17-.21.18-.23l.01-.01h.01l.06-.01-.01.01.16.01-.03.04s-.05.07-.14.17c.08-.03.14-.07.19-.12l.01-.01h.05c.07 0 .1-.03.11-.09.03-.14.03-.21-.07-.42-.16-.01-.34-.05-.53-.1a3.07 3.07 0 00-.7-.11c-.04 0-.08 0-.11.01l-.05.01.03-.04c.06-.1.04-.23.03-.29a.97.97 0 00-.28.14zm-.8.91l-.22.18-.02.69.17.59h.01c.05-.02.11-.04.16-.06-.02-.12-.06-.24-.08-.31 0-.01-.16-.28.03-.78.1-.27.28-.51.43-.73.13-.18.24-.33.29-.47a.173.173 0 00-.13-.05c-.06 0-.11.02-.13.03l-.51.91zm-1.12-1.17c.14.03.27.08.31.09l.09-.09c.07-.07.16-.12.25-.13.02-.01.05-.01.08-.01h.05c.01 0 .02.01.03.01.04.01.08.01.12.03.17.06.28.17.33.26.02.04.04.08.05.12v.01c.01.03.02.06.02.09v.07c0 .09-.04.18-.11.25-.02.05-.03.14-.04.2.01-.01.02-.01.03-.02l.35-.6c0-.02.01-.04.01-.07 0-.45-.36-.81-.81-.81a.79.79 0 00-.76.6zm-1.58.43c.27 0 .49.09.69.17.17.07.31.13.45.12.1-.12.3-.22.47-.31.07-.03.13-.07.19-.1h.01a.59.59 0 01.14-.02c.15 0 .32.04.47.09.14.04.27.07.38.07.03 0 .05 0 .07-.01.01-.04-.01-.15-.08-.26-.06-.11-.19-.24-.44-.27-.25-.03-.44.22-.44.23l-.01.02-.02-.01s-.29-.12-.52-.12c-.09 0-.15.02-.19.05l-.01.01-.01-.01a.72.72 0 00-.3-.07c-.26 0-.34.2-.35.21l-.01.02h-.02s-.35-.02-.47.19zm-.06.05c.19.04.39.08.59.11-.17-.06-.35-.12-.57-.11h-.02zm-.85 2.42c.05-.29.17-.67.44-.79.22-.35.37-.5.52-.49.05-.15.25-.3.38-.33.03-.18.3-.31.56-.42.05-.03.14-.07.24-.09-.02-.01-.04-.01-.07-.02H45.75c-.11 0-.23-.04-.35-.08l-.17-.03c-.49-.08-.99-.16-1.35-.34-.27.02-.38.24-.39.31v.02h-.04c-.16 0-.28.16-.32.23-.08.13-.11.25-.09.28l.03.06-.06-.02a.497.497 0 00-.16-.03c-.17 0-.32.13-.41.34-.08.18-.08.39-.01.46l.04.04h-.06c-.35.01-.38.37-.4.61-.01.06-.01.11-.02.14-.06.14-.07.25-.03.31.05.07.17.07.32.01l.03-.01.01.03c.02.08.02.15-.01.2-.02.04-.06.07-.12.09.16.17.32.26.47.26.24 0 .46-.2.68-.41.12-.12.26-.24.4-.33zm-.09.46a.61.61 0 00-.17-.03c-.03 0-.03.01-.03.01-.01.02.04.11.13.21 0-.07.03-.13.07-.19zm1.59 1.5l.68.22-.38-.55-1.19-.77-.17-.11v.09c0 .08.01.12 0 .15-.01.01-.02.02-.04.03l.03.02 1.07.92zm-.66-2.2c-.14.16-.28.28-.31.3-.02.03-.1.21-.07.34.02.1.08.15.13.17.02.01.03.02.04.04.02.03.08.15.02.19h-.02l.02.01.81.53c.23-.08.47-.14.7-.19.03-.01.05-.01.08-.02-.23-.17-.47-.77-.5-1.1-.19-.16-.25-.47-.2-.75-.09.11-.31.3-.7.48zm.71-.55l.01-.01c.01-.02.01-.05.02-.07-.11.11-.26.23-.47.23h-.04c-.02.1-.08.21-.16.3.44-.21.63-.44.64-.45zm-1.18 3.62c-.03-.09-.06-.17-.07-.26 0-.01 0-.01.01-.02-.02 0-.05.01-.07.01-.18 0-.41-.1-.62-.19-.2-.09-.41-.18-.58-.18-.07 0-.13.02-.18.05-.32.24-.19.83.05 1.16.05.07.07.13.05.19-.03.12-.17.2-.31.28-.09.05-.18.1-.22.16-.12.15.04.33.04.33l.16.11-.03.24.08.26c.01.01.02.01.03.01 0 0 .01 0 .02-.02l.01-.04.03.03c.03.03.04.08.05.13.01.08.03.13.08.15-.03-.16.06-.45.06-.47l.01-.02h.07c.08 0 .26-.01.31-.1.06-.1-.03-.32-.07-.4l-.02-.03h.07c-.07-.09-.1-.25-.1-.25v-.02l.02-.01s.41-.13.4-.43c0-.14-.15-.29-.28-.43-.12-.13-.23-.24-.22-.33 0-.04.03-.07.07-.1.04-.02.08-.04.13-.04.11 0 .23.06.37.13.15.08.3.16.46.16.07 0 .13-.02.19-.06zm2.74 2.65h.04c.07 0 .1.04.14.08.03.03.06.06.1.07.03.01.11.03.29.03h.17c-.05-.11-.21-.47-.36-.61a.33.33 0 00-.22-.08c-.12 0-.21.04-.22.05l-.01.01-.01-.01c-.05-.03-.09-.05-.14-.08-.26-.15-.51-.28-.6-.61l-.01-.02.02-.01c.14-.06.28-.34.32-.55.02-.11.02-.19-.02-.23l-.03-.03.04-.01c.13-.04.15-.22.17-.4l.03-.2v-.02l.39-.01.01.01s.03.02.11.02.22-.02.45-.13c.2-.09.38-.21.55-.34-.25-.32-.37-.65-.34-.97-.04 0-.09.01-.14.01-.46 0-1.3-.19-1.53-.26-.01 0-.01 0-.02-.01l-.14.03c-.21.05-.44.1-.65.18l.33.22.47.68-.84-.28-.45-.39c-.3.19-.55.48-.67.95.09.71.98 1.22 1.45 1.31h.02v.02c.05.17-.01.38-.07.57-.05.16-.09.31-.05.38.02.04.08.05.19.06.23.02.64.05 1.23.57zm1.79-2.54a2.82 2.82 0 01-.53-.49c-.17.12-.35.25-.56.34-.18.08-.33.12-.45.13.11.27.19.66.01.85.02.04.02.08.02.12 0 .07.01.1.06.11.02 0 .07.01.13.01.24 0 .65-.04.82-.13l.01-.01.01.01c.2.09.47.33.62.48.18.01.35.06.53.14a.43.43 0 00-.15-.15c-.04-.02-.08-.01-.12.01l-.03.02-.01-.04c-.01-.05-.03-.08-.06-.1-.07-.04-.19.01-.19.01l-.04.02v-.04s0-.14-.09-.21c-.04-.04-.11-.05-.18-.04l-.04.01.01-.04c.02-.08.01-.15-.03-.19-.1-.12-.35-.11-.35-.11H48v-.03s-.01-.1-.11-.19c-.12-.1-.34-.14-.62-.11l-.01-.05c.69-.31 1.32-.14 1.81.15.03-.03.06-.07.11-.13a.4.4 0 01-.16-.1c-.02.01-.04.01-.08.01-.07 0-.2-.02-.25-.08a.204.204 0 01-.05-.18zm-2.15 1.2c.01-.15.01-.33-.07-.49 0 .04-.01.08-.01.11-.04.21-.18.49-.33.57.08.26.26.39.48.51.15-.2.33-.35.58-.35.11 0 .24.03.37.1.16-.03.31-.07.45-.1s.26-.07.38-.09c-.05-.04-.1-.1-.14-.18-.04 0-.06.03-.07.05-.02.03-.04.07-.1.07-.04 0-.09-.02-.15-.05-.07.02-.44.13-.76.13-.08 0-.16-.01-.22-.02-.03.02-.13.09-.23.09-.05 0-.09-.01-.13-.04-.06-.07-.05-.18-.05-.31zm2.29.34h.04c-.11-.11-.45-.44-.68-.55-.18.1-.59.13-.83.13-.06 0-.11 0-.13-.01-.09-.02-.1-.1-.1-.16 0-.04 0-.08-.02-.11l-.01-.02.02-.01c.18-.18.09-.58-.02-.83-.05 0-.08-.01-.09-.02l-.34.01c-.01.05-.02.11-.03.17-.02.18-.04.36-.18.42.15.2.15.44.14.63 0 .12-.01.22.03.25.03.02.06.03.1.03.1 0 .21-.08.21-.08l.01-.01h.01c.06.02.14.02.22.02.34 0 .75-.13.75-.13h.01l.01.01c.06.03.11.05.14.05.03 0 .04-.01.06-.04.02-.03.05-.08.12-.08h.03l.01.02c.09.27.36.31.52.31zm-1.51.54l.06-.03v-.01a.21.21 0 00-.06.04c0-.01 0 0 0 0zm-1.12.49c.17.02.33-.04.49-.13-.09-.07-.18-.13-.26-.17-.07.11-.15.22-.23.3zm4.03.15l-.07-.02c-.02 0-.03.01-.05.01h-.04c-.03.05-.1.07-.2.07-.05 0-.09-.01-.11-.01-.03.01-.1.05-.2.05a.36.36 0 01-.2-.06c-.12.06-.24.09-.35.09-.06 0-.12-.01-.18-.02h-.02c.01.05 0 .1 0 .1v.02h-.02c-.01 0-.18-.02-.28-.19-.15.11-.5.15-.52.15-.06.02-.19.06-.27.06-.02 0-.04 0-.05-.01-.01-.01-.02-.02-.02-.04 0-.05.09-.15.13-.18l.06-.25c-.17 0-.32-.14-.43-.4l-.05.02c.17.19.34.6.34.62l.01.03h-.04s-.1.01-.21.01c-.15 0-.25-.01-.31-.03-.05-.02-.08-.06-.11-.09-.04-.04-.07-.07-.14-.06h-.01l-.01-.01c-.05-.05-.1-.08-.15-.12a.9.9 0 01-.47.15c-.04 0-.08 0-.12-.01l-.06-.01.05-.04c.01-.01.02-.02.03-.02l-.58.07-.26.3h-.01l-.82.06-.91-.02 1.77.28-.01.05-1.69-.09.39.33h6.54l.47-.37-.82-.42zm1.46-2.21c.1.07.21.12.26.14a.37.37 0 00-.04-.15l-.04-.07.07.04c.05.03.14.02.21.02-.04-.03-.09-.07-.13-.07l-.08-.01.07-.04c.02-.01.05-.03.07-.05-.08 0-.19-.01-.23-.03l-.04-.02.04-.02c.03-.01.03-.05.03-.08-.03 0-.09-.01-.16-.01.01.01.01.03.02.04v.02c-.01.09-.02.19-.05.29zm-.97-.4c.11 0 .2-.04.26-.07h-.01c-.12.04-.35-.07-.49-.15.05.07.14.15.24.22zm-.73.56c-.01.25.29.55.29.55l.03.02-.03.02s-.07.04-.16.12l.07.09-.04.03s-.32-.46-.82-.82c-.62-.44-1.24-.56-1.84-.35.22-.01.39.04.5.14.09.07.11.16.12.2.07 0 .27.01.37.13.04.05.06.12.04.2.07 0 .14.01.19.06.07.06.1.16.1.21.05-.02.13-.03.2 0 .04.02.06.05.08.1.04-.02.09-.02.13 0 .14.05.22.25.24.31.06.01.23.04.31.21.14.07.25 0 .25 0l.03.04s-.06.05-.15.05c-.05 0-.1-.01-.16-.04h-.01v-.01c-.02-.04-.04-.06-.06-.09-.02-.02-.04-.03-.06-.05-.08-.05-.16-.05-.16-.05h-.02l-.01-.02s-.01-.03-.03-.07c-.17-.1-.34-.15-.52-.17.04.04.07.06.07.07l.04.04-.05.01s-.04.01-.1.01c-.1 0-.25-.02-.38-.09-.14.02-.28.06-.43.1-.14.04-.29.07-.46.11h-.02a.694.694 0 00-.35-.1c-.22 0-.39.15-.53.33.01.01.03.02.04.02.04.02.09.05.13.07.03-.01.12-.04.22-.04.08 0 .15.03.21.07.04-.02.07-.05.11-.07l.03-.01.01.03c.11.3.25.45.42.45h.01l.05-.22.05.01-.13.54-.01.01c-.06.06-.12.13-.12.15.02.01.15-.02.29-.06.01 0 .41-.05.52-.16l.03-.03.01.03c.06.13.18.18.23.19 0-.03 0-.06-.01-.09l-.02-.05.05.01c.06.01.12 0 .14-.01.01-.03.02-.12-.06-.16l-.02-.01v-.02c0-.02.01-.04.01-.05.01-.04.01-.08 0-.09-.01-.01-.03-.02-.1-.02-.15.15-.51.34-.62.27-.02-.01-.02-.03-.02-.04 0-.04.03-.07.09-.13.09-.09.22-.22.16-.36l.05-.02c.06.12 0 .23-.07.32.03.04.07.08.12.11.1-.05.21-.12.27-.19l.01-.01h.01c.08 0 .13.01.15.04.03.04.02.09.01.14 0 .01 0 .02-.01.03.09.06.08.17.06.23.02 0 .03.01.05.01.12 0 .23-.03.34-.09l.01-.01.01.01c.05.04.11.06.18.06.1 0 .18-.05.18-.05l.01-.01h.01s.05.01.11.01c.05 0 .14-.01.17-.06l.02-.07.02.01c.01 0 .03.01.04.01.1 0 .2-.11.21-.12l.01-.01h.01c.01 0 .18 0 .26-.07-.02-.01-.04-.03-.06-.04l.03-.04c.33.26.62.35.86.29.22-.06.33-.23.37-.3-.04-.02-.1-.06-.11-.14-.01 0-.03 0-.04-.01-.03-.01-.05-.04-.07-.07-.02.13-.07.34-.22.34-.2 0-.56-.41-.58-.42l.04-.03c.04.05.13.13.22.21.31-.24.59-.71.6-.72l.17-.33.24-.05c0-.02 0-.06-.03-.09-.01-.01-.03-.02-.06-.02h-.03v-.03c0-.08-.07-.12-.18-.11l-.04.01.02-.04c.01-.03-.03-.06-.04-.07-.17.06-.21.47-.22.62v.01l-.01.01c-.02.01-.41.31-.56.39l-.04.02v-.04c0-.15-.13-.34-.25-.51-.14-.2-.27-.38-.2-.51a.11.11 0 01.1-.06c.07 0 .16.06.25.12.12.08.26.17.39.17.03 0 .05 0 .08-.01.29-.09.46-.48.47-.81-.08-.19-.26-.5-.3-.56l-.21-.01-.18-.43c-.08.06-.34.26-.34.43.01.2.38.38.39.38l.04.02-.05.03c-.01 0-.16.1-.34.1-.03 0-.06 0-.09-.01 0 .03.01.05.03.07.04.05.14.05.21.05h.12l.01.02c.05.15.19.23.2.23h.01v.01s.05.12 0 .2c-.03.05-.09.07-.18.06-.1-.01-.2-.1-.31-.19-.13-.11-.26-.22-.4-.22-.06 0-.12.02-.18.07-.09.06-.13.13-.14.22zm-1.68 1.81l-.06.06c-.03.03-.08.07-.08.09.03.02.13 0 .24-.05l-.1-.1zm1.78-1.14c.06-.05.11-.09.14-.11-.06-.07-.23-.25-.27-.45-.02.13-.04.25-.05.35.07.08.13.15.18.21zm-.56-1.22c.23.18.27.24.25.28-.01.02-.03.04-.14.04-.1 0-.24-.02-.35-.06-.05.05-.09.1-.12.13.28.17.52.38.69.56.04-.44.18-1.22.61-1.63-.24.02-.64.37-.94.68zm-1.28-1.99c-.39-.45-1.04-.46-1.07-.46h-.03v-.03l.01-.3c-.1-.09-.21-.16-.3-.23-.19-.13-.37-.26-.52-.51-.06-.08-.07-.2-.09-.34-.02-.18-.04-.38-.17-.54l-.17-.2c-.15-.16-.27-.29-.26-.42-.22.1-.45.22-.46.37v.02h-.02c-.12.02-.33.18-.37.32l-.01.02h-.02c-.12-.02-.28.13-.49.47v.01h-.01c-.43.19-.46 1.12-.46 1.13v.02c-.03.05-.12.19-.12.26 0 .05.01.1.03.12.01.01.02.02.03.01l.03-.01v.03c0 .04.05.08.08.08l.03-.02.01.03c.01.04.08.07.13.07h.03v.03h.05c.05 0 .08-.01.09-.02v-.12c-.01-.1-.01-.14.01-.15l.01-.01h.01c.02 0 .04.01.08.03.03.02.08.04.1.04.02-.01 0-.06-.03-.13 0 0-.02-.01-.03-.02a.327.327 0 01-.15-.21c-.03-.16.08-.37.08-.38l.01-.01s.48-.38.53-.69v-.02h.02c.31.03.49-.2.6-.34.02-.02.03-.04.05-.06l.04.03c-.22.28-.23.84.04 1.07l.01.01v.01c.03.34.32 1.04.54 1.11.23.07 1.06.26 1.51.26.06 0 .12 0 .16-.01l.03-.01v.03c-.06.52.24 1.02.9 1.5l.01.01v.01c0 .06 0 .12.05.19.02.03.12.06.21.06.04 0 .06 0 .06-.01l.01-.05.03.04c.07.1.37.17.55.17.05 0 .08-.01.09-.01-.03-.06-.35-.31-.56-.47-.17-.13-.33-.25-.4-.32v-.01c-.16-.29-.45-.94-.52-1.45zm4.3-.33c-.09-.08-.39-.32-.68-.56-.13-.02-.3-.1-.49-.18-.24-.11-.52-.23-.72-.23-.21.3-.79.61-.82.62l-.02.01-.01-.02s-.28-.41-.46-.5l-.02-.01.01-.02c.08-.15-.17-.53-.42-.84-.36.32-.82.64-1.34.81v.11c-.02.11-.18.27-.25.35-.01.05-.02.09-.03.13v.01c-.02.05-.04.1-.07.15.17.01.72.06 1.07.48v.02c.05.34.19.73.33 1.05.06-.03.11-.05.17-.07h.02c.07.01.14.01.21.01.39 0 .74-.12 1.05-.22.12-.04.23-.07.33-.1h.01l.01.01c.1.08.18.1.26.1.05 0 .1-.01.16-.01h.02c.31.17.48.43.57.59.04.06.08.14.1.14 0 0 .03-.01.07-.12l.03-.07.02.08c.12.41.4.46.5.45l-.43-.74c-.05-.04-.53-.41-.85-.69-.18-.11-.44-.13-.63-.13-.17 0-.3.02-.3.02l-.02-.05c.01 0 .64-.42.66-.99v-.02h.02c.09-.02.18-.03.27-.03.33 0 .61.15.81.26.13.07.23.13.3.12h.02l.01.02c.06.12.15.18.27.18.1-.04.21-.09.26-.12z"/><path fill="#96877D" d="M67.45 52.1v-9.98H55.94c0-.19-.02-.38-.06-.57.44-.71.21-1.81-.59-2.61-.8-.8-1.9-1.03-2.61-.59a2.76 2.76 0 00-.57-.06V26.77h-9.98v11.52c-.19 0-.38.02-.57.06-.71-.44-1.81-.21-2.61.59-.8.8-1.03 1.9-.59 2.61-.04.19-.06.38-.06.57H26.77v9.98h11.51c0 .19.02.38.06.57-.44.71-.21 1.81.59 2.61.8.8 1.9 1.03 2.61.59.19.04.38.06.57.06v11.52h9.98V55.94c.19 0 .38-.02.57-.06.71.44 1.81.21 2.61-.59.8-.8 1.03-1.9.59-2.61.04-.19.06-.38.06-.57h11.53zM55.29 40.02l.27.27-1.63 1.63-.27-.27 1.63-1.63zm-1.63-1.63l.27.27-.54 1.09 1.09-.54.27.27-2.17 1.09 1.08-2.18zm-11.15.28V27.15h9.21v11.52c.19 0 .38.02.56.06-.44.65-.28 1.67.39 2.47a8.094 8.094 0 00-5.56-2.21c-2.15 0-4.11.84-5.56 2.21.68-.8.84-1.82.4-2.47.18-.04.37-.06.56-.06zm12.6 8.44c0 4.36-3.51 7.92-7.86 7.99-.08.09-.2.08-.29 0a7.995 7.995 0 01-7.84-7.99c0-4.41 3.59-8 8-8 4.4 0 7.99 3.59 7.99 8zm-14.82-8.45l1.63 1.63-.27.27-1.63-1.63.27-.27zm-1.9 1.9l.27-.27 1.09.54-.54-1.09.27-.27 1.09 2.17-2.18-1.08zM27.15 51.72V42.5h11.51c0-.19.02-.37.06-.56.65.44 1.67.28 2.47-.39a8.094 8.094 0 00-2.21 5.56c0 2.15.84 4.11 2.21 5.56-.8-.68-1.82-.84-2.47-.4-.03-.19-.06-.37-.06-.56H27.15zm11.79 2.48l-.27-.27 1.63-1.63.27.27-1.63 1.63zm1.62 1.63l-.27-.27.54-1.09-1.09.54-.27-.27 2.17-1.09-1.08 2.18zm11.16-.27v11.52h-9.21V55.56c-.19 0-.38-.02-.56-.06.44-.65.28-1.67-.39-2.47a8.094 8.094 0 005.56 2.21c2.15 0 4.11-.84 5.56-2.21-.68.8-.84 1.82-.4 2.47-.19.03-.38.06-.56.06zm2.21 0l-1.63-1.63.27-.27 1.63 1.63-.27.27zm1.9-1.9l-.27.27-1.09-.54.54 1.09-.27.27-1.09-2.17 2.18 1.08zm-.27-1.94c0 .19-.02.38-.06.56-.65-.44-1.67-.28-2.47.39a8.094 8.094 0 002.21-5.56c0-2.15-.84-4.11-2.21-5.56.8.68 1.82.84 2.47.4.03.19.06.37.06.56h11.51v9.21H55.56zM40.9 47.11c0 3.42 2.78 6.21 6.21 6.21 3.42 0 6.21-2.78 6.21-6.21 0-3.42-2.78-6.21-6.21-6.21-3.42 0-6.21 2.79-6.21 6.21zm12.29 0c0 3.35-2.73 6.08-6.08 6.08s-6.08-2.73-6.08-6.08 2.73-6.08 6.08-6.08 6.08 2.73 6.08 6.08zm-1.22 1.44c.04 0 .1.04.13.07-.07.01-.16.01-.21-.02l-.07-.04.04.07c.03.06.04.12.04.15a.746.746 0 01-.26-.14c.03-.1.05-.2.05-.3v-.02c-.01-.01-.01-.03-.02-.04.07 0 .13 0 .16.01 0 .02 0 .06-.03.08l-.04.02.04.02c.05.03.15.03.23.03-.02.02-.05.04-.07.05l-.07.04.08.02zm-1.3-.3c-.1-.07-.19-.15-.25-.22.14.08.37.19.49.15h.01c-.04.03-.14.07-.25.07zm-2.41 2.37c.03.03.06.07.1.1-.11.05-.21.07-.24.05 0-.01.04-.06.08-.09a.17.17 0 01.06-.06zm1.92.24l.81.44-.47.37h-6.54l-.39-.33 1.69.09.01-.05-1.77-.28.91.02.82-.06h.01l.26-.3.58-.07c-.01.01-.02.02-.03.02l-.05.04.06.01c.04.01.08.01.12.01.17 0 .33-.06.47-.15l.15.12.01.01h.01c.07-.02.1.01.14.06.03.03.06.06.11.09.05.02.16.03.31.03.11 0 .21-.01.21-.01h.04l-.01-.03c-.01-.02-.17-.42-.34-.62l.05-.02c.11.26.25.4.43.4l-.06.25c-.04.03-.13.13-.13.18 0 .01.01.03.02.04.01.01.03.01.05.01.08 0 .21-.04.27-.06.02 0 .37-.05.52-.15.09.17.27.19.28.19h.02v-.02c0-.01.01-.06 0-.1h.02a.73.73 0 00.53-.07c.06.04.12.06.2.06.1 0 .17-.04.2-.05.02 0 .06.01.11.01.1 0 .17-.02.2-.07h.04c.02 0 .03-.01.05-.01h.08zm1.78-1.65c.02.02.03.06.03.09l-.24.05-.17.33c0 .01-.29.48-.6.72-.09-.08-.17-.16-.22-.21l-.04.03c.02.02.38.42.58.42.15 0 .2-.21.22-.34.02.03.04.05.07.07.01.01.03.01.04.01.01.07.06.12.11.14-.04.06-.15.24-.37.3-.24.06-.53-.04-.86-.29l-.03.04c.02.02.04.03.06.04-.09.07-.25.07-.26.07h-.01l-.01.01s-.1.12-.21.12c-.01 0-.03 0-.04-.01l-.01-.02-.01.02c-.02.05-.11.06-.17.06-.06 0-.11-.01-.11-.01h-.01l-.01.01s-.08.05-.18.05a.28.28 0 01-.18-.06l-.01-.01-.01.01c-.11.06-.23.09-.34.09-.02 0-.03-.01-.05-.01.02-.06.03-.17-.06-.23 0-.01 0-.02.01-.03.01-.05.02-.1-.01-.14-.03-.03-.07-.04-.15-.04h-.01l-.01.01c-.07.07-.17.14-.27.19-.04-.04-.08-.08-.12-.11.07-.09.13-.2.07-.32l-.05.02c.07.14-.06.27-.16.36-.06.06-.09.09-.09.13 0 .01.01.03.02.04.11.07.48-.12.62-.27.07 0 .09.01.1.02.01.02.01.05 0 .09 0 .02-.01.04-.01.05v.02l.02.01c.08.04.06.13.06.16a.28.28 0 01-.14.01l-.05-.01.02.05c.01.02.01.06.01.09a.32.32 0 01-.23-.19l-.01-.03-.03.03c-.12.11-.51.16-.52.16-.13.04-.27.07-.29.06 0-.02.05-.09.12-.15l.01-.01.13-.54-.05-.01-.05.22h-.01c-.17 0-.31-.15-.42-.45l-.01-.03-.03.01c-.04.02-.07.04-.11.07a.377.377 0 00-.21-.07c-.1 0-.19.03-.22.04-.04-.03-.09-.05-.13-.07a.076.076 0 00-.04-.02c.14-.18.31-.33.53-.33.11 0 .23.03.35.1h.02c.17-.03.31-.07.46-.11.15-.04.29-.07.43-.1.13.08.28.09.38.09.06 0 .1-.01.1-.01l.05-.01-.04-.04-.07-.07c.18.02.34.07.52.17.02.04.03.07.03.07l.01.02h.02s.08.01.16.05c.02.02.04.03.06.05.02.02.05.05.06.09v.01h.01c.06.03.11.04.16.04.09 0 .15-.04.15-.05l-.03-.04s-.11.08-.25 0a.381.381 0 00-.31-.21c-.02-.06-.11-.26-.24-.31a.148.148 0 00-.13 0 .137.137 0 00-.08-.1c-.07-.04-.16-.02-.2 0-.01-.05-.03-.15-.1-.21a.288.288 0 00-.19-.06c.01-.08 0-.15-.04-.2-.1-.12-.3-.13-.37-.13-.01-.04-.03-.12-.12-.2-.11-.09-.27-.14-.5-.14.6-.21 1.22-.1 1.84.35.5.36.82.81.82.82l.04-.03-.07-.09c.09-.08.16-.12.16-.12l.03-.02-.03-.02s-.31-.3-.29-.55c0-.09.05-.16.12-.22a.34.34 0 01.18-.07c.14 0 .27.11.4.22.11.09.21.18.31.19.09.01.15-.01.18-.06.05-.08.01-.19 0-.2v-.01h-.01s-.15-.09-.2-.23l-.01-.02H50.8c-.07 0-.16-.01-.21-.05a.09.09 0 01-.03-.07c.03.01.06.01.09.01.18 0 .33-.09.34-.1l.04-.02-.03.03s-.38-.18-.39-.38c-.01-.17.26-.37.34-.43l.18.43.21.01c.04.06.22.37.3.56-.02.34-.18.72-.47.81-.02.01-.05.01-.08.01-.13 0-.27-.09-.39-.17-.1-.07-.18-.12-.25-.12a.11.11 0 00-.1.06c-.07.13.06.31.2.51.12.18.25.36.25.51V50l.04-.02c.15-.08.55-.38.56-.39l.01-.01v-.01c0-.16.05-.57.22-.62.02.01.06.04.04.07l-.02.04.04-.01c.11-.02.18.03.18.11v.03h.03c.03 0 .05.01.06.02zm-5.81 1.5c.08-.07.15-.19.23-.31.08.05.17.1.26.17-.15.09-.31.15-.49.14zm.39-1.37c.01-.19.01-.43-.14-.63.13-.06.15-.25.18-.42.01-.06.01-.12.03-.17l.34-.01c.01.01.05.02.09.02.1.25.2.65.02.83l-.02.01.01.02c.02.03.02.07.02.11 0 .06 0 .14.1.16.02 0 .07.01.13.01.24 0 .65-.04.83-.13.23.11.57.43.68.55h-.04c-.15 0-.43-.04-.53-.3l-.01-.02h-.03c-.07 0-.1.04-.12.08-.02.03-.03.04-.06.04s-.08-.02-.14-.05l-.01-.01h-.01s-.41.13-.75.13c-.09 0-.16-.01-.22-.02h-.01l-.01.01s-.11.08-.21.08c-.04 0-.07-.01-.1-.03-.02-.04-.02-.14-.02-.26zm-3.64-1.41c-.01.1.1.21.22.33.13.13.28.29.28.43 0 .3-.4.43-.4.43l-.02.01v.02c0 .01.03.16.1.25H43l.02.04c.04.08.13.3.07.4-.05.09-.24.1-.31.1h-.07l-.01.02c0 .01-.09.31-.06.47-.05-.02-.06-.08-.08-.15-.01-.05-.02-.1-.05-.13l-.03-.03-.01.04c-.01.02-.02.02-.02.02-.01 0-.02-.01-.03-.01l-.08-.26.03-.24-.16-.11s-.17-.18-.04-.33c.04-.05.13-.1.22-.16.14-.08.28-.16.31-.28.01-.06-.01-.12-.05-.19-.24-.32-.37-.92-.05-1.16.05-.04.11-.05.18-.05.16 0 .38.09.58.18.21.09.44.19.62.19.03 0 .05-.01.07-.01 0 .01 0 .01-.01.02.01.09.04.18.07.26a.33.33 0 01-.19.06c-.15 0-.31-.08-.46-.16-.13-.07-.26-.13-.37-.13-.05 0-.09.01-.13.04-.03.02-.06.05-.06.09zm2.39-3.52s-.19.23-.63.45c.07-.1.13-.2.16-.3h.04c.21 0 .36-.11.47-.23-.01.02-.01.04-.02.07l-.02.01zm-3.02.97c-.15.07-.27.06-.32-.01-.04-.06-.03-.17.03-.31.01-.03.01-.09.02-.14.02-.24.06-.59.4-.61h.06l-.04-.04c-.07-.07-.06-.27.01-.46.09-.22.24-.34.41-.34.05 0 .11.01.16.03l.06.02-.03-.06c-.01-.03.01-.16.09-.28.04-.07.16-.23.32-.23h.04v-.02c.01-.07.12-.29.39-.31.36.18.86.26 1.35.34l.17.03c.12.05.24.08.35.08H45.8c.02 0 .04.01.07.02-.11.02-.19.06-.24.09-.26.11-.53.25-.56.42a.62.62 0 00-.38.33c-.15-.01-.3.14-.52.49-.27.12-.39.5-.44.79-.14.09-.28.21-.41.33-.23.21-.44.41-.68.41-.16 0-.31-.09-.47-.26.05-.02.09-.05.12-.09.03-.05.04-.12.01-.2l-.01-.03-.02.01zm4.74-3.68c.45 0 .81.36.81.81 0 .02 0 .05-.01.07l-.35.6c-.01.01-.02.01-.03.02.01-.07.02-.15.04-.2.07-.06.1-.15.11-.25v-.03-.04c0-.03-.01-.06-.02-.09v-.01a.612.612 0 00-.05-.12.65.65 0 00-.33-.26l-.12-.03c-.01 0-.02-.01-.03-.01h-.05c-.03 0-.05 0-.08.01-.1.02-.18.06-.25.13-.04.04-.08.07-.09.09a2.15 2.15 0 00-.31-.09c.07-.35.38-.6.76-.6zm-.57.98c-.01.03-.01.06-.01.07.04.17.03.24 0 .26-.01.01-.02.02-.04.03-.07-.08-.12-.17-.16-.26.01-.01.03-.01.04-.02.07-.03.12-.06.17-.08zm1.74-.11c-.01-.01-.02-.01-.02-.02.12-.09.24-.13.28-.15.01.06.03.19-.03.29l-.03.04.05-.01c.03 0 .07-.01.11-.01.22 0 .46.06.7.11.19.04.37.09.53.1.1.21.09.29.07.42-.01.06-.05.09-.11.09h-.05l-.01.01c-.05.05-.11.1-.19.12.08-.1.13-.17.14-.17l.03-.04-.16-.01.01-.01-.06.01h-.01l-.01.01c-.01.01-.07.1-.18.23h-.05l-.01.01c-.2.15-.62.19-.62.19h-.05l.04.04c.06.06.14.15.22.25-.32.28-.74.58-1.26.78-.03-.15-.07-.3-.08-.31 0 0-.15-.26.03-.74.1-.26.27-.5.42-.72.13-.19.25-.35.3-.5v-.01zm1.61 3.02c.03-.01.61-.32.82-.62.2.01.47.13.72.23.19.08.36.16.49.18.29.24.59.48.68.56-.05.03-.16.08-.27.08-.12 0-.21-.06-.27-.18l-.01-.02h-.02c-.07.01-.18-.05-.3-.12-.2-.11-.48-.26-.81-.26-.09 0-.18.01-.27.03h-.02v.02c-.02.57-.66.99-.66.99l.02.05s.13-.02.3-.02c.19 0 .45.02.63.13.33.28.81.65.85.69l.43.74c-.11 0-.38-.04-.5-.45l-.02-.08-.03.07c-.04.11-.06.12-.07.12-.02 0-.06-.07-.1-.14-.1-.16-.26-.43-.57-.59h-.02c-.06.01-.11.01-.16.01-.08 0-.15-.02-.26-.1l-.01-.01h-.01c-.11.03-.22.07-.33.1-.31.1-.66.22-1.05.22-.07 0-.14 0-.21-.01h-.02c-.06.02-.12.04-.17.07-.14-.31-.28-.71-.33-1.05v-.02c-.35-.42-.9-.47-1.07-.48a.69.69 0 00.07-.15v-.01c.01-.04.03-.08.03-.13.08-.08.23-.24.25-.35.01-.03 0-.06 0-.11.52-.16.99-.49 1.34-.81.25.31.5.68.42.84l-.01.02.02.01c.18.08.45.49.46.5l.01.02.03.03zm-2.27 2.36c-.23.1-.37.13-.45.13-.08 0-.11-.02-.11-.02l-.01-.01-.39.01v.02l-.03.2c-.02.18-.04.36-.17.4l-.04.01.03.03c.03.04.04.12.02.23-.04.21-.18.48-.32.55l-.02.01.01.02c.09.33.34.46.6.61.05.03.09.05.14.08l.01.01.01-.01s.1-.05.22-.05c.09 0 .17.03.22.08.15.14.31.5.36.61h-.17a.96.96 0 01-.29-.03c-.04-.02-.07-.05-.1-.07-.04-.04-.07-.08-.14-.08h-.04c-.59-.52-1-.56-1.22-.57-.11-.01-.17-.02-.19-.06-.04-.08.01-.23.05-.38.05-.19.12-.4.07-.57v-.02h-.02c-.47-.09-1.35-.6-1.45-1.31.12-.47.37-.75.67-.95l.45.39.84.28-.47-.68-.33-.22c.21-.07.44-.13.65-.18l.14-.03c.01 0 .01.01.02.01.23.07 1.06.26 1.53.26.05 0 .1 0 .14-.01-.03.33.09.66.34.97-.18.12-.36.25-.56.34zm-4.05-2.32c.05 0 .11.02.17.03-.03.06-.06.12-.07.18-.09-.1-.14-.19-.13-.21h.03zm.72.57c.01-.02.01-.07 0-.15v-.09l.17.11 1.19.77.38.55-.68-.22-1.05-.91-.03-.02c0-.01.02-.02.02-.04zm5.54 2.34c.02-.04-.03-.1-.25-.28.3-.31.7-.67.94-.67-.43.41-.56 1.19-.61 1.63-.17-.18-.41-.39-.69-.56.03-.03.07-.08.12-.13.12.04.26.06.35.06.11-.01.13-.03.14-.05zm-2.54-5.24c-.02.04-.15.19-.23.19h-.02l-.02-.01-.01.01c-.04.04-.11.07-.11.07l-.02.01c-.07-.05-.31-.21-.48-.39.03-.02.15-.09.18-.13.04-.05.04-.15.01-.31 0-.01 0-.04.01-.08.04-.01.07-.01.11-.01.15 0 .31.04.46.09.14.04.28.08.39.08.02 0 .05 0 .07-.01a.26.26 0 01-.09.16h-.01v.01c-.02.06-.03.15-.04.22-.01.04-.01.08-.02.09-.01.02-.03.02-.05.02-.03 0-.06-.01-.1-.02l-.02-.01-.01.02zm1.93 4.75c.21.16.53.4.56.47-.01 0-.04.01-.09.01-.17 0-.47-.07-.55-.17l-.03-.04-.01.04c-.01 0-.03.01-.06.01-.09 0-.18-.02-.21-.06-.05-.06-.05-.13-.05-.19v-.01l-.01-.01c-.66-.48-.96-.98-.9-1.5v-.03l-.03.01c-.04.01-.1.01-.16.01-.46 0-1.28-.19-1.51-.26-.22-.06-.52-.77-.54-1.11v-.01l-.01-.01c-.28-.22-.26-.79-.04-1.07l-.04-.03c-.01.02-.03.04-.05.06-.11.14-.29.37-.6.34h-.02v.02c-.05.31-.53.69-.53.69l-.01.01c0 .01-.11.22-.08.38.02.12.1.17.15.21.01.01.03.02.03.02.04.06.05.12.03.13a.26.26 0 01-.1-.04c-.04-.02-.06-.03-.08-.03h-.01l-.01.01c-.02.02-.02.05-.01.15 0 .04.01.11 0 .12-.01.01-.04.02-.09.02-.03 0-.05-.01-.05 0v-.03h-.03c-.04.01-.12-.02-.13-.07l-.01-.03-.03.02c-.03 0-.08-.04-.08-.08v-.03l-.03.01c-.01 0-.02 0-.03-.01a.145.145 0 01-.03-.12c0-.07.09-.21.12-.26v-.02c0-.01.03-.94.46-1.13h.01v-.01c.21-.34.37-.49.49-.47h.02l.01-.02c.04-.14.25-.3.37-.32h.02v-.02c.01-.14.24-.27.46-.37-.01.13.11.26.26.42.06.06.12.13.17.2.13.15.15.36.17.54.02.14.03.26.09.34.15.25.33.38.52.51.1.07.2.14.3.23l-.01.3v.03h.03c.03 0 .69.01 1.07.46.07.51.36 1.16.52 1.46v.01c.07.07.23.19.4.32zm-3.78-5.15c-.2-.08-.42-.17-.69-.17.12-.22.47-.2.47-.19h.02l.01-.02c0-.01.08-.21.35-.21.09 0 .19.02.3.07l.01.01.01-.01c.04-.03.11-.05.19-.05.23 0 .52.12.52.12l.02.01.01-.02s.19-.25.44-.23c.25.03.38.16.44.27.07.11.08.22.08.26-.02 0-.05.01-.07.01-.11 0-.24-.04-.38-.07-.16-.04-.32-.09-.47-.09-.05 0-.1 0-.14.02h-.01c-.06.03-.12.06-.19.1-.18.09-.38.18-.47.31-.14.01-.28-.05-.45-.12zm1.84 2.59c-.12-.12-.24-.2-.36-.28-.18-.13-.36-.25-.5-.49-.05-.07-.07-.19-.08-.32-.02-.19-.04-.4-.18-.56-.06-.07-.12-.14-.18-.2-.15-.17-.27-.3-.24-.41.09-.06.24-.11.37-.11.09 0 .16.02.22.07.21.23.54.44.55.45l.3.13v.16l-.01-.01c-.01-.05-.05-.09-.13-.12-.03-.06-.09-.08-.15-.1h-.01c-.02-.02-.06-.03-.12-.03-.07 0-.14.01-.15.01l-.04.01.02.03c.01.01.07.1.15.1.02.06.07.1.15.12.03.05.1.08.14.1.01 0 .02.01.02.01 0 .02.01.04.03.06l-.04.01v.01c-.01.02-.13.6.07.85.05.06.12.1.2.11l-.02.26-.01.14zm-.11-1.1l.16.55a.161.161 0 01-.07-.04c-.08-.1-.1-.33-.09-.51zm-.06-.47v.02l.02.01c.01 0 .03.02.04.03v.1l-.03.01c-.01-.02-.03-.04-.03-.07v-.01L47 44c-.01-.01-.02-.01-.04-.02-.05-.02-.11-.04-.12-.08l-.01-.01h-.02c-.07-.01-.11-.04-.12-.1l-.01-.03-.03.01c-.03.01-.07-.02-.09-.04.03 0 .06-.01.09-.01.06 0 .08.01.09.02l.02.01c.06.02.11.04.13.08v.01h.01c.05.01.11.03.11.08zm.34-.45l.52-.9c.02-.01.07-.03.13-.03.05 0 .09.02.13.05-.05.14-.16.29-.29.47-.15.22-.33.46-.43.73-.19.5-.04.77-.03.78.02.06.05.19.08.31-.05.02-.11.04-.16.06h-.01l-.17-.59.02-.69.21-.19zm-.06 1.61c.06-.01.13-.03.19-.05v.08c-.02.09-.16.24-.23.32l.04-.35zm-.03-.04c-.09 0-.15-.03-.2-.1-.17-.21-.08-.7-.06-.79l.04-.01c-.02.14-.06.62.09.79.05.05.1.07.19.05 1.26-.39 2.05-1.44 2.14-1.57h.1c-.19.24-1.12 1.39-2.3 1.63z"/><g><path fill="none" d="M160 20H32c-6.6 0-12 5.4-12 12v128c0 6.6 5.4 12 12 12h128c6.6 0 12-5.4 12-12V32c0-6.6-5.4-12-12-12z"/><path fill="none" d="M0 0v192h192V0H0z"/><path fill="#DFDFDF" d="M160 20c6.6 0 12 5.4 12 12v128c0 6.6-5.4 12-12 12H32c-6.6 0-12-5.4-12-12V32c0-6.6 5.4-12 12-12h128m0-8H32c-11.03 0-20 8.97-20 20v128c0 11.03 8.97 20 20 20h128c11.03 0 20-8.97 20-20V32c0-11.03-8.97-20-20-20z"/><path fill="#FFF" fill-opacity=".2" d="M160 20H32c-6.6 0-12 5.4-12 12v1c0-6.6 5.4-12 12-12h128c6.6 0 12 5.4 12 12v-1c0-6.6-5.4-12-12-12z"/><path fill="#212121" fill-opacity=".1" d="M160 172H32c-6.6 0-12-5.4-12-12v-1c0 6.6 5.4 12 12 12h128c6.6 0 12-5.4 12-12v1c0 6.6-5.4 12-12 12z"/><radialGradient id="a" cx="23.768" cy="23.933" r="204.625" gradientUnits="userSpaceOnUse"><stop offset="0" stop-color="#fff" stop-opacity=".1"/><stop offset="1" stop-color="#fff" stop-opacity="0"/></radialGradient><path fill="url(#a)" d="M160 172H32c-6.6 0-12-5.4-12-12V32c0-6.6 5.4-12 12-12h128c6.6 0 12 5.4 12 12v128c0 6.6-5.4 12-12 12z"/></g></svg>