<svg xmlns="http://www.w3.org/2000/svg" width="192" height="192"><path fill="#CC0001" d="M20 41.71h152v10.86H20V41.71zm0 32.58h152V63.43H20v10.86zM20 96h152V85.14H20V96zm0 21.71h152v-10.86H20v10.86zm.06-86.85h151.88C171.36 24.79 166.21 20 160 20H32c-6.21 0-11.36 4.79-11.94 10.86zM20 139.43h152v-10.86H20v10.86zM20 160c0 .39.02.77.06 1.14h151.88c.04-.38.06-.76.06-1.14v-9.71H20V160z"/><path fill="#FFF" d="M20 74.29h152v10.86H20V74.29zm0 32.57h152V96H20v10.86zm0-43.43h152V52.57H20v10.86zM20 32v9.71h152V32c0-.39-.02-.77-.06-1.14H20.06c-.04.37-.06.75-.06 1.14zm151.94 129.14H20.06C20.64 167.21 25.79 172 32 172h128c6.21 0 11.36-4.79 11.94-10.86zM20 128.57h152v-10.86H20v10.86zm0 21.72h152v-10.86H20v10.86z"/><path fill="#010066" d="M124 20H32c-6.6 0-12 5.4-12 12v74.86h104V20z"/><path fill="#FC0" d="M58.39 30.86c-18.04 0-32.68 14.59-32.68 32.57S40.36 96 58.39 96c6.52 0 12.59-1.91 17.69-5.19a29.145 29.145 0 01-9.48 1.59c-16 0-28.98-12.94-28.98-28.88S50.6 34.64 66.6 34.64c3.53 0 6.92.63 10.05 1.79-5.2-3.52-11.49-5.57-18.26-5.57z"/><path fill="#FC0" d="M112.59 80.38L98.82 73.2l4.07 14.7-9.21-12.3-2.87 14.97-2.82-14.97-9.25 12.27 4.12-14.69-13.79 7.14 10.24-11.49-15.6.6 14.34-6.02-14.32-6.06 15.6.65-10.21-11.53 13.77 7.18-4.07-14.7 9.21 12.3 2.87-14.97 2.83 14.97 9.25-12.27-4.12 14.69 13.79-7.14-10.25 11.5 15.6-.6-14.34 6.02 14.32 6.06-15.6-.65 10.21 11.52z"/><path fill="none" d="M160 20H32c-6.6 0-12 5.4-12 12v128c0 6.6 5.4 12 12 12h128c6.6 0 12-5.4 12-12V32c0-6.6-5.4-12-12-12z"/><path fill="none" d="M0 0v192h192V0H0z"/><path fill="#DFDFDF" d="M160 20c6.6 0 12 5.4 12 12v128c0 6.6-5.4 12-12 12H32c-6.6 0-12-5.4-12-12V32c0-6.6 5.4-12 12-12h128m0-8H32c-11.03 0-20 8.97-20 20v128c0 11.03 8.97 20 20 20h128c11.03 0 20-8.97 20-20V32c0-11.03-8.97-20-20-20z"/><path fill="#FFF" fill-opacity=".2" d="M160 20H32c-6.6 0-12 5.4-12 12v1c0-6.6 5.4-12 12-12h128c6.6 0 12 5.4 12 12v-1c0-6.6-5.4-12-12-12z"/><path fill="#212121" fill-opacity=".1" d="M160 172H32c-6.6 0-12-5.4-12-12v-1c0 6.6 5.4 12 12 12h128c6.6 0 12-5.4 12-12v1c0 6.6-5.4 12-12 12z"/><radialGradient id="a" cx="23.768" cy="23.933" r="204.625" gradientUnits="userSpaceOnUse"><stop offset="0" stop-color="#fff" stop-opacity=".1"/><stop offset="1" stop-color="#fff" stop-opacity="0"/></radialGradient><path fill="url(#a)" d="M160 172H32c-6.6 0-12-5.4-12-12V32c0-6.6 5.4-12 12-12h128c6.6 0 12 5.4 12 12v128c0 6.6-5.4 12-12 12z"/></svg>