<svg xmlns="http://www.w3.org/2000/svg" width="192" height="192"><path fill="#003580" d="M160 20H32c-6.6 0-12 5.4-12 12v84.22l143.53-95.69c-1.12-.34-2.3-.53-3.53-.53z"/><path fill="#009543" d="M172 160V75.78L28.47 171.47c1.12.35 2.3.53 3.53.53h128c6.6 0 12-5.4 12-12z"/><path fill="#FFF" d="M163.53 20.53L20 116.22V160c0 5.37 3.58 9.95 8.47 11.47L172 75.78V32c0-5.37-3.58-9.95-8.47-11.47z"/><path fill="#FFF" d="M163.53 20.53L20 116.22V160c0 5.37 3.58 9.95 8.47 11.47L172 75.78V32c0-5.37-3.58-9.95-8.47-11.47z"/><path fill="#D21034" d="M169.22 24.35L20 123.83V160c0 2.9 1.05 5.57 2.78 7.65L172 68.17V32c0-2.9-1.05-5.57-2.78-7.65z"/><path fill="#FFCE00" d="M52.5 65c1.21 0 2.38-.16 3.49-.46L52.5 74l-3.49-9.46c1.11.3 2.28.46 3.49.46zM39.46 48.01L30 51.5l9.46 3.49c-.3-1.11-.46-2.28-.46-3.49 0-1.21.16-2.38.46-3.49zM52.5 38c1.21 0 2.38.16 3.49.46L52.5 29l-3.49 9.46c1.11-.3 2.28-.46 3.49-.46zm13.04 16.99L75 51.5l-9.46-3.49c.3 1.11.46 2.28.46 3.49 0 1.21-.16 2.38-.46 3.49zm-22.59 6.06l-1.7 9.94 7.76-6.45c-2.31-.62-4.38-1.84-6.03-3.48l-.03-.01zm0-19.1l-9.94-1.7 6.45 7.76c.62-2.31 1.84-4.38 3.48-6.03l.01-.03zm19.07-.01l.02.01 1.7-9.94-7.76 6.45c2.33.62 4.4 1.84 6.04 3.48zm3.52 13.05c-.62 2.31-1.84 4.38-3.48 6.03l-.01.02 9.94 1.7-6.45-7.75zM39.46 55l-6.45 7.75 9.94-1.7-.01-.02A13.543 13.543 0 0139.46 55zM49 38.46l-7.75-6.45 1.7 9.94.02-.01c1.65-1.64 3.72-2.86 6.03-3.48zM65.54 48l6.45-7.75-9.94 1.7.01.02c1.64 1.65 2.86 3.72 3.48 6.03zM56 64.54l7.75 6.45-1.7-9.94-.02.01A13.543 13.543 0 0156 64.54zm-3.5-24.29c-6.2 0-11.25 5.05-11.25 11.25S46.3 62.75 52.5 62.75 63.75 57.7 63.75 51.5 58.7 40.25 52.5 40.25z"/><g><path fill="none" d="M172 160V32c0-6.6-5.4-12-12-12H32c-6.6 0-12 5.4-12 12v128c0 6.6 5.4 12 12 12h128c6.6 0 12-5.4 12-12z" opacity=".4"/><path fill="none" d="M0 0v192h192V0H0z"/><path fill="#DFDFDF" d="M160 20c6.6 0 12 5.4 12 12v128c0 6.6-5.4 12-12 12H32c-6.6 0-12-5.4-12-12V32c0-6.6 5.4-12 12-12h128m0-8H32c-11.03 0-20 8.97-20 20v128c0 11.03 8.97 20 20 20h128c11.03 0 20-8.97 20-20V32c0-11.03-8.97-20-20-20z"/><path fill="#FFF" fill-opacity=".2" d="M160 20H32c-6.6 0-12 5.4-12 12v1c0-6.6 5.4-12 12-12h128c6.6 0 12 5.4 12 12v-1c0-6.6-5.4-12-12-12z"/><path fill="#212121" fill-opacity=".1" d="M160 172H32c-6.6 0-12-5.4-12-12v-1c0 6.6 5.4 12 12 12h128c6.6 0 12-5.4 12-12v1c0 6.6-5.4 12-12 12z"/><radialGradient id="a" cx="23.768" cy="23.933" r="204.625" gradientUnits="userSpaceOnUse"><stop offset="0" stop-color="#fff" stop-opacity=".1"/><stop offset="1" stop-color="#fff" stop-opacity="0"/></radialGradient><path fill="url(#a)" d="M160 172H32c-6.6 0-12-5.4-12-12V32c0-6.6 5.4-12 12-12h128c6.6 0 12 5.4 12 12v128c0 6.6-5.4 12-12 12z"/></g></svg>