<svg xmlns="http://www.w3.org/2000/svg" width="192" height="192"><path fill="#009543" d="M172 160V32c0-6.6-5.4-12-12-12H32c-6.6 0-12 5.4-12 12v128c0 6.6 5.4 12 12 12h128c6.6 0 12-5.4 12-12z"/><path fill="#ED4135" d="M160 20H32c-6.6 0-12 5.4-12 12v89h152V32c0-6.6-5.4-12-12-12z"/><path fill="#0035AD" d="M160 20H32c-6.6 0-12 5.4-12 12v39h152V32c0-6.6-5.4-12-12-12z"/><circle fill="#FAE600" cx="83.33" cy="96" r="49.82"/><path d="M83.33 45.34C55.4 45.34 32.67 68.07 32.67 96s22.73 50.66 50.66 50.66 50.66-22.73 50.66-50.66-22.72-50.66-50.66-50.66zM34.36 96c0-26.66 21.42-48.42 47.96-48.96V57.9c-3.05 1.35-5.48 2.56-5.96 5.25-.06.36-.15 4.07-.23 4.98 0 0 .52.07 1.76-.94.54-.44 2.2-.73 4.44-2.1v5.66c-3.25.49-5.74 3.29-5.74 6.67 0 3.39 2.49 6.18 5.74 6.67v1.41c-2.57-.13-4.83-.93-6.76-4.87-1.07-2.2-3.88-5.57-3.88-5.57s1.32 3.79 1.52 7.6c.29 5.58 5.22 6.18 9.12 6.24v1.02H74.9v2.03h7.43v1.01c-3.25.31-5.74 2.08-5.74 4.22s2.49 3.91 5.74 4.22v1.01H74.9v2.03h7.43v1.04c-5.74.24-8.51 2.55-8.82 5.84-.67 7.15-1.99 12.71-1.99 12.71s2.13-2.62 4.61-8.77c1.14-2.83 3.67-4.61 6.19-5v.74c-2.59.69-4.56 4-4.56 7.97s1.97 7.28 4.56 7.97v2.32c-3.35.09-6.62.82-8.33 2.17-2.32 1.83-7.97 7.43-10.02 9.55-17.4-7.53-29.61-24.85-29.61-44.98zm67.46 45.35c-2.01-2.14-7.12-7.51-10.04-9.92-1.55-1.28-4.4-1.98-7.44-2.14v-2.34c2.59-.69 4.56-4 4.56-7.97s-1.97-7.28-4.56-7.97v-.73c2.52.38 5.05 2.17 6.19 5 2.49 6.15 4.61 8.77 4.61 8.77s-1.32-5.56-1.99-12.71c-.31-3.29-3.08-5.6-8.82-5.84v-1.04h7.43v-2.03h-7.43v-1.01c3.25-.31 5.74-2.08 5.74-4.22s-2.49-3.91-5.74-4.22v-1.01h7.43v-2.03h-7.43V88.9c3.9-.06 8.83-.66 9.12-6.24.2-3.81 1.52-7.6 1.52-7.6s-2.81 3.38-3.88 5.57c-1.93 3.94-4.19 4.74-6.76 4.87v-1.41c3.25-.49 5.74-3.29 5.74-6.67 0-3.39-2.49-6.18-5.74-6.67v-7.12c1.98-1.64 4.21-4.17 6.45-8.19 1.23-2.22.64-3.19.65-3.19 0 0 .07.14-.85.94-2 1.73-4.19 2.86-6.24 3.8v-9.95c26.54.54 47.96 22.3 47.96 48.96 0 20.47-12.62 38.04-30.48 45.35z"/><path fill="none" d="M172 160V32c0-6.6-5.4-12-12-12H32c-6.6 0-12 5.4-12 12v128c0 6.6 5.4 12 12 12h128c6.6 0 12-5.4 12-12z" opacity=".4"/><path fill="none" d="M0 0v192h192V0H0z"/><path fill="#DFDFDF" d="M160 20c6.6 0 12 5.4 12 12v128c0 6.6-5.4 12-12 12H32c-6.6 0-12-5.4-12-12V32c0-6.6 5.4-12 12-12h128m0-8H32c-11.03 0-20 8.97-20 20v128c0 11.03 8.97 20 20 20h128c11.03 0 20-8.97 20-20V32c0-11.03-8.97-20-20-20z"/><path fill="#FFF" fill-opacity=".2" d="M160 20H32c-6.6 0-12 5.4-12 12v1c0-6.6 5.4-12 12-12h128c6.6 0 12 5.4 12 12v-1c0-6.6-5.4-12-12-12z"/><path fill="#212121" fill-opacity=".1" d="M160 172H32c-6.6 0-12-5.4-12-12v-1c0 6.6 5.4 12 12 12h128c6.6 0 12-5.4 12-12v1c0 6.6-5.4 12-12 12z"/><radialGradient id="a" cx="23.768" cy="23.933" r="204.625" gradientUnits="userSpaceOnUse"><stop offset="0" stop-color="#fff" stop-opacity=".1"/><stop offset="1" stop-color="#fff" stop-opacity="0"/></radialGradient><path fill="url(#a)" d="M160 172H32c-6.6 0-12-5.4-12-12V32c0-6.6 5.4-12 12-12h128c6.6 0 12 5.4 12 12v128c0 6.6-5.4 12-12 12z"/></svg>