<svg xmlns="http://www.w3.org/2000/svg" width="192" height="192"><path fill="#0067C6" d="M160 20H32c-6.6 0-12 5.4-12 12v128c0 6.6 5.4 12 12 12h128c6.6 0 12-5.4 12-12V32c0-6.6-5.4-12-12-12z"/><path fill="#FFF" d="M20 56h152v80H20z"/><path fill="#FFF" d="M70.78 110.68h50.96L96.26 66.55z"/><path fill="#17C0EB" d="M79.25 99.08h3.07l13.15-8.36-11.64 8.32-.06.04h2.1l9.69-8.26-8.65 8.22-.04.04h1.54l7.24-8.16-6.49 8.16h1.24L95.76 91l-4.74 8.04-.02.04h1.04l3.83-8.02-3.3 7.99-.01.03h.92L96 91.1l-2.05 7.95-.01.03h.85l1.34-7.95-.9 7.93v.02h.82l.21-7.94.22 7.92v.02h.82l-.9-7.95 1.33 7.93v.02h.85l-2.05-7.98 2.51 7.97.01.01h.92l-3.32-8.02 3.83 8.01.01.01h1.03l-4.76-8.09 5.36 8.08.01.01h1.23l-6.48-8.16 7.23 8.15v.01h1.55l-8.69-8.25 9.68 8.25h2.11l-11.7-8.36 13.14 8.36h3.07l.01-.04-16.16-8.44 17.63 8.02.04.02-1.38-2.39-16.24-5.77 15.53 4.59.03.01-1.01-1.76-14.52-2.97 13.98 2.08h.03l-.81-1.39-13.18-.82 12.74.1h.03l-.68-1.18-12.1.95 11.73-1.56h.01l-.6-1.04-11.16 2.47 10.83-3.02h.01l-.55-.96-10.33 3.85 10.02-4.37h.01l-.54-.93-9.55 5.18 9.26-5.68v-.01l-.53-.92-8.8 6.5 8.5-7.02-.56-.96-8.03 7.88 7.71-8.43-.6-1.05-7.22 9.4 6.87-10.01-.68-1.18-6.3 11.11 5.89-11.82-.81-1.4-5.2 13.17 4.69-14.05-1.02-1.76-3.8 15.77 3.13-16.94-1.38-2.4-1.88 19.32.9-21-.97-1.68-.96 1.67.9 21.02-1.87-19.28-.01-.05-1.38 2.4 3.12 16.94-3.79-15.74-.01-.03-1.01 1.76 4.69 14.05-5.19-13.14-.01-.03-.81 1.4 5.89 11.82-6.29-11.09-.01-.02-.68 1.18 6.86 10-7.2-9.37-.02-.02-.6 1.04 7.72 8.44-8.02-7.87-.02-.01-.55.96 8.5 7.02-8.79-6.5h-.01l-.54.92 9.27 5.69-9.55-5.17-.01-.01-.53.93 10.03 4.37-10.33-3.85-.56.96 10.85 3.02-11.17-2.47-.6 1.04 11.74 1.56-12.09-.95-.68 1.18 12.77-.1-13.18.82-.81 1.39 14-2.08-14.51 2.97-1.02 1.76 15.57-4.6-16.24 5.77-1.39 2.39 17.68-8.03-16.17 8.43z"/><path fill="red" d="M113.98 99.06c-.04-.77-.13-1.52-.27-2.26l-.52-.91c.25 1.02.42 2.08.48 3.17h.31zM79.34 95.9l.66-1.14 1.17-2.02c0-.01 0-.01.01-.02l1.12-1.95c0-.01.01-.01.02-.02l1.83-3.18c3.14-3.03 7.41-4.9 12.11-4.9 4.71 0 8.98 1.87 12.11 4.9l4.12 7.13-4.65-8.06c-3.11-2.68-7.16-4.3-11.59-4.3s-8.48 1.62-11.59 4.3L78.81 96.8c-.14.74-.23 1.49-.27 2.26h.31c.07-1.08.24-2.14.49-3.16z"/><path fill="#F60" d="M79.34 95.9c-.25 1.02-.42 2.08-.48 3.16h.33c.09-1.49.37-2.94.81-4.3l-.66 1.14zM96.26 82.66c-4.71 0-8.98 1.87-12.11 4.9l-1.83 3.18 1.17-2.03c3.13-3.52 7.69-5.73 12.78-5.73 5.08 0 9.64 2.21 12.78 5.72l3.49 6.04c.45 1.37.73 2.81.82 4.31h.33c-.06-1.08-.23-2.15-.48-3.17l-.69-1.19-4.12-7.13c-3.16-3.03-7.43-4.9-12.14-4.9z"/><path fill="#FF0" d="M81.17 92.73L80 94.75c-.45 1.37-.73 2.81-.81 4.3h.31c.14-2.25.72-4.39 1.67-6.32zM109.04 88.71a17.03 17.03 0 00-12.78-5.72c-5.08 0-9.64 2.21-12.78 5.73l-1.17 2.03c3.02-4.48 8.14-7.44 13.94-7.44 5.82 0 10.94 2.96 13.95 7.45l1.14 1.97a16.64 16.64 0 011.68 6.33h.31c-.09-1.5-.37-2.94-.82-4.31l-3.47-6.04z"/><path fill="#0F0" d="M110.21 90.75c-3.01-4.49-8.13-7.45-13.95-7.45-5.81 0-10.93 2.96-13.94 7.44 0 .01-.01.01-.02.02l-1.12 1.95c0 .01 0 .01-.01.02-.94 1.93-1.53 4.07-1.67 6.33h.33c.54-8.61 7.69-15.43 16.44-15.43s15.9 6.82 16.44 15.43h.33c-.14-2.26-.73-4.4-1.68-6.33l-1.15-1.98z"/><path fill="#0CF" d="M96.26 83.62c-8.75 0-15.9 6.82-16.44 15.43h.33c.54-8.44 7.54-15.12 16.11-15.12s15.59 6.68 16.13 15.12h.31c-.54-8.61-7.69-15.43-16.44-15.43z"/><path fill="#00F" d="M96.26 83.94zM96.26 83.94c-8.57 0-15.58 6.68-16.11 15.12h.32c.54-8.26 7.4-14.8 15.8-14.8s15.26 6.54 15.8 14.8h.33c-.55-8.44-7.57-15.12-16.14-15.12z"/><path fill="purple" d="M96.26 84.26c-8.4 0-15.26 6.54-15.8 14.8h.32c.54-8.08 7.26-14.47 15.48-14.47s14.94 6.39 15.48 14.47h.32c-.54-8.26-7.4-14.8-15.8-14.8z"/><path fill="#8A0000" d="M98.26 92.01c0-.17-.15-.34-.09-.58.02-.07 0-.1-.03-.13.07-.19 0-.46-.01-.62-.04-.66-.46-1.44-.9-2.15-.47-.81-1.08-.99-2.03-.43-.42.25-.64.47-.87.93-.1.2-.08.44.01.56.02.03.05.05.08.05.06.02.31.12.55-.12.1-.09.22-.12.27-.14-.12.09-.21.22-.27.27-.16.13-.41.43-.54.74v.01c-.05.1-.08.21-.1.28-.03.11-.08.25-.07.35 0 .05.01.09.04.11.05.08.21.31.61.47.4.16.63.39.87.59.21.19.18.31.17.77-.01.2.03.63.23.67.03.01.05 0 .08 0 .03.03.06.05.09.06.24.07.43-.13.53-.49.09-.34.16-.54.29-.74.18-.12.26-.27.6-.21.21.04.37-.02.44-.12.03-.02.05-.06.05-.13z"/><path fill="#510000" d="M96.08 92.9c.01-.11.03-.29.03-.47a1.72 1.72 0 01-.32-.23c.21.19.18.31.17.77-.01.2.03.63.23.67.03.01.05 0 .08 0-.16-.15-.21-.55-.19-.74z"/><path fill="#8A0000" d="M97.71 92.09c-.23.04-.39.13-.53.34-.01.01-.01.02-.02.03.18-.12.26-.27.6-.21.21.04.37-.02.44-.12-.1.05-.32-.07-.49-.04z"/><path fill="red" d="M98.26 92.01c0-.17-.15-.34-.09-.58.02-.07 0-.1-.03-.13.07-.19 0-.46-.01-.62-.04-.66-.46-1.44-.9-2.15-.47-.81-1.08-.99-2.03-.43-.42.25-.64.47-.87.93-.1.2-.08.44.01.56.02.03.05.05.08.05.22-.21.17-.46.6-.63.29-.03.57.03.8-.32-.28.57-.07.61-.03 1.31 0 .42-.03.38-.02.61-.03.18-.19.94-.18.95-.01-.01.38.22.45.42.04.1.05.27.04.44 0 .18-.02.36-.03.47-.02.19.03.59.18.74.03.03.06.05.09.06.24.07.43-.13.53-.49.09-.34.16-.54.29-.74.01-.01.01-.02.02-.03.14-.21.3-.3.53-.34.17-.03.39.08.49.04.06-.01.08-.05.08-.12z"/><path fill="#FF3A3A" d="M98.17 91.73c-.11.25-.66-.03-.97.11-.63.28-.51 1.51-.81 1.63.31.26.45-.7.57-.92.37-.64.6-.56 1.05-.55.15 0 .19-.14.16-.27z"/><path fill="#FF2A2A" d="M96.64 87.92c-.02.09-.03.21-.02.24.03.14.07.28.11.4.05.13.06.23.1.37.03.14.16.2.28.29.15.11.03.42.13.43.07.01.2-.43.2-.5 0-.09 0-.17-.01-.26-.05-.12-.11-.23-.17-.35a1.673 1.673 0 00-.39-.47l-.02-.02c-.03-.03-.07-.05-.1-.07-.06-.03-.09-.05-.11-.06z"/><path fill="#003686" d="M116.04 100.83H76.49l.12-.21h39.31l.12.21zm-35.2 1.57c.61.01 1.21-.01 1.81 0 1.4 0 2.6-.3 3.91-.33 1.32.03 2.52.33 3.92.33.61 0 1.27-.01 1.81 0 1.4 0 2.59-.3 3.91-.33 1.32.03 2.51.33 3.91.33.61.01 1.21-.01 1.82 0 1.4 0 2.6-.3 3.91-.33 1.32.03 2.51.33 3.91.33.61.01 1.21-.01 1.81 0 1.4 0 2.59-.3 3.91-.33.46.01.91.06 1.36.11l-.17-.3h-.14c-.61-.01-1.21.01-1.82 0-1.4 0-2.59.3-3.91.33-1.32-.03-2.51-.33-3.91-.33-.61-.01-1.21.01-1.81 0-1.4 0-2.6.3-3.91.33-1.32-.03-2.51-.33-3.91-.33-.61-.01-1.22.01-1.82 0-1.4 0-2.59.3-3.91.33-1.32-.03-2.51-.33-3.91-.33-.61-.01-1.21.01-1.81 0-1.4 0-2.6.3-3.91.33-1.32-.03-2.51-.33-3.91-.33-.61-.01-1.22.01-1.82 0-.09 0-.19 0-.28.01l-.16.29c.4-.05.8-.09 1.22-.1 1.3.02 2.5.32 3.9.32zm-.12-1.49h-1.51c1.38.27 1.51 0 1.51 0zm32.6 0h-1.51s.13.27 1.51 0zm-32.48 1.04c.61.01 1.21-.01 1.81 0 1.4 0 2.6-.3 3.91-.33 1.32.03 2.52.33 3.92.33.61 0 1.27-.01 1.81 0 1.4 0 2.59-.3 3.91-.33 1.32.03 2.51.33 3.91.33.61.01 1.21-.01 1.82 0 1.4 0 2.6-.3 3.91-.33 1.32.03 2.51.33 3.91.33.61.01 1.21-.01 1.81 0 1.4 0 2.59-.3 3.91-.33.37.01.73.04 1.09.08l-.16-.28c-.57 0-1.14.01-1.7 0-1.4 0-2.59.3-3.91.33-1.32-.03-2.51-.33-3.91-.33-.61-.01-1.21.01-1.81 0-1.4 0-2.6.3-3.91.33-1.32-.03-2.51-.33-3.91-.33-.61-.01-1.22.01-1.82 0-1.4 0-2.59.3-3.91.33-1.32-.03-2.51-.33-3.91-.33-.61-.01-1.21.01-1.81 0-1.4 0-2.6.3-3.91.33-1.32-.03-2.51-.33-3.91-.33-.61-.01-1.22.01-1.82 0h-.02l-.15.26c.31-.03.62-.06.95-.07 1.3.04 2.5.34 3.9.34zm0-.45c.61.01 1.21-.01 1.81 0 1.4 0 2.6-.3 3.91-.33 1.32.03 2.52.33 3.92.33.61 0 1.27-.01 1.81 0 1.4 0 2.59-.3 3.91-.33 1.32.03 2.51.33 3.91.33.61.01 1.21-.01 1.82 0 1.4 0 2.6-.3 3.91-.33 1.32.03 2.51.33 3.91.33.61.01 1.21-.01 1.81 0 1.4 0 2.59-.3 3.91-.33.27.01.54.03.81.05l-.14-.25c-.48 0-.97.01-1.45 0-1.4 0-2.59.3-3.91.33-1.32-.03-2.51-.33-3.91-.33-.61-.01-1.21.01-1.81 0-1.4 0-2.6.3-3.91.33-1.32-.03-2.51-.33-3.91-.33-.61-.01-1.22.01-1.82 0-1.4 0-2.59.3-3.91.33-1.32-.03-2.51-.33-3.91-.33-.61-.01-1.21.01-1.81 0-1.4 0-2.6.3-3.91.33-1.32-.03-2.51-.33-3.91-.33-.53-.01-1.05 0-1.58 0l-.14.24c.22-.02.44-.03.67-.04 1.32.04 2.52.33 3.92.33zm34.91-1.18H76.78l-.1.17h39.16l-.09-.17zm-.69-1.19H77.47l-.05.09h37.69l-.05-.09zm.08.14H77.39l-.08.14h37.92l-.09-.14zm-.17-.29H77.55l-.05.09h37.52l-.05-.09zm.3.51H77.26l-.1.17h38.21l-.1-.17zm.32.56H76.94l-.1.17h38.84l-.09-.17zm-.16-.28H77.1l-.1.17h38.53l-.1-.17zM73.3 109.99c1.38 0 2.55-.34 3.85-.38 1.3.04 2.48.38 3.87.38.6.01 1.2-.01 1.79 0 1.38 0 2.56-.34 3.87-.38 1.3.04 2.49.38 3.87.38.6.01 1.2-.01 1.79 0 1.38 0 2.56-.34 3.86-.38 1.3.04 2.48.38 3.86.38.61.01 1.2-.01 1.8 0 1.38 0 2.56-.34 3.87-.38 1.3.04 2.48.38 3.87.38.6.01 1.2-.01 1.79 0 1.38 0 2.56-.34 3.86-.38 1.3.04 2.48.38 3.87.38.6.01 1.2-.01 1.79 0 .15 0 .29-.01.44-.02l-.17-.3c-.34.04-.68.08-1.03.09-1.3-.04-2.48-.38-3.86-.38-.6-.01-1.2.01-1.8 0-1.38 0-2.56.34-3.86.38-1.3-.04-2.48-.38-3.87-.38-.6-.01-1.2.01-1.79 0-1.38 0-2.56.34-3.87.38-1.3-.04-2.48-.38-3.87-.38-.6-.01-1.2.01-1.8 0-1.38 0-2.56.34-3.86.38-1.3-.04-2.48-.38-3.86-.38-.6-.01-1.2.01-1.79 0-1.38 0-2.56.34-3.87.38-1.3-.04-2.48-.38-3.87-.38-.6-.01-1.2.01-1.8 0-1.38 0-2.56.34-3.86.38-.39-.01-.77-.06-1.15-.11l-.18.32c.11.01.21.01.32.01.6.02 1.2-.01 1.79.01zm0-1.03c1.38 0 2.55-.34 3.85-.38 1.3.04 2.48.38 3.87.38.6.01 1.2-.01 1.79 0 1.38 0 2.56-.34 3.87-.38 1.3.04 2.49.38 3.87.38.6.01 1.2-.01 1.79 0 1.38 0 2.56-.34 3.86-.38 1.3.04 2.48.38 3.86.38.61.01 1.2-.01 1.8 0 1.38 0 2.56-.34 3.87-.38 1.3.04 2.48.38 3.87.38.6.01 1.2-.01 1.79 0 1.38 0 2.56-.34 3.86-.38 1.3.04 2.48.38 3.87.38.55.01 1.1-.01 1.64 0l-.15-.26c-.16.01-.31.03-.47.03-1.3-.04-2.48-.38-3.86-.38-.6-.01-1.2.01-1.8 0-1.38 0-2.56.34-3.86.38-1.3-.04-2.48-.38-3.87-.38-.6-.01-1.2.01-1.79 0-1.38 0-2.56.34-3.87.38-1.3-.04-2.48-.38-3.87-.38-.6-.01-1.2.01-1.8 0-1.38 0-2.56.34-3.86.38-1.3-.04-2.48-.38-3.86-.38-.6-.01-1.2.01-1.79 0-1.38 0-2.56.34-3.87.38-1.3-.04-2.48-.38-3.87-.38-.6-.01-1.2.01-1.8 0-1.38 0-2.56.34-3.86.38-.2-.01-.4-.02-.59-.04l-.15.27c.52 0 1.03-.01 1.53 0zm3.86-.9c1.3.04 2.48.38 3.87.38.6.01 1.2-.01 1.79 0 1.38 0 2.56-.34 3.87-.38 1.3.04 2.49.38 3.87.38.6.01 1.2-.01 1.79 0 1.38 0 2.56-.34 3.86-.38 1.3.04 2.48.38 3.86.38.61.01 1.2-.01 1.8 0 1.38 0 2.56-.34 3.87-.38 1.3.04 2.48.38 3.87.38.6.01 1.2-.01 1.79 0 1.38 0 2.56-.34 3.86-.38 1.3.04 2.48.38 3.87.38.45.01.9 0 1.34 0l-.14-.24c-.06 0-.12.01-.18.01-1.3-.04-2.48-.38-3.86-.38-.6-.01-1.2.01-1.8 0-1.38 0-2.56.34-3.86.38-1.3-.04-2.48-.38-3.87-.38-.6-.01-1.2.01-1.79 0-1.38 0-2.56.34-3.87.38-1.3-.04-2.48-.38-3.87-.38-.6-.01-1.2.01-1.8 0-1.38 0-2.56.34-3.86.38-1.3-.04-2.48-.38-3.86-.38-.6-.01-1.2.01-1.79 0-1.38 0-2.56.34-3.87.38-1.3-.04-2.48-.38-3.87-.38-.6-.01-1.2.01-1.8 0-1.38 0-2.56.34-3.86.38-.1 0-.2-.01-.31-.02l-.14.25c.41 0 .82-.01 1.22 0 1.39 0 2.56-.34 3.87-.38zm0-.51c1.3.04 2.48.38 3.87.38.6.01 1.2-.01 1.79 0 1.38 0 2.56-.34 3.87-.38 1.3.04 2.49.38 3.87.38.6.01 1.2-.01 1.79 0 1.38 0 2.56-.34 3.86-.38 1.3.04 2.48.38 3.86.38.61.01 1.2-.01 1.8 0 1.38 0 2.56-.34 3.87-.38 1.3.04 2.48.38 3.87.38.6.01 1.2-.01 1.79 0 1.38 0 2.56-.34 3.86-.38 1.3.04 2.48.38 3.87.38h1.04l-.13-.23c-1.26-.05-2.41-.37-3.75-.37-.6-.01-1.2.01-1.8 0-1.38 0-2.56.34-3.86.38-1.3-.04-2.48-.38-3.87-.38-.6-.01-1.2.01-1.79 0-1.38 0-2.56.34-3.87.38-1.3-.04-2.48-.38-3.87-.38-.6-.01-1.2.01-1.8 0-1.38 0-2.56.34-3.86.38-1.3-.04-2.48-.38-3.86-.38-.6-.01-1.2.01-1.79 0-1.38 0-2.56.34-3.87.38-1.3-.04-2.48-.38-3.87-.38-.6-.01-1.2.01-1.8 0-1.38 0-2.56.34-3.86.38h-.02l-.13.23h.93c1.38-.01 2.55-.35 3.86-.39zm3.68-4.71c.61.01 1.21-.01 1.81 0 1.4 0 2.6-.3 3.91-.33 1.32.03 2.52.33 3.92.33.61 0 1.27-.01 1.81 0 1.4 0 2.59-.3 3.91-.33 1.32.03 2.51.33 3.91.33.61.01 1.21-.01 1.82 0 1.4 0 2.6-.3 3.91-.33 1.32.03 2.51.33 3.91.33.61.01 1.21-.01 1.81 0 1.4 0 2.59-.3 3.91-.33.56.01 1.1.07 1.64.14l-.19-.33c-.13-.01-.27-.01-.41-.01-.61-.01-1.21.01-1.82 0-1.4 0-2.59.3-3.91.33-1.32-.03-2.51-.33-3.91-.33-.61-.01-1.21.01-1.81 0-1.4 0-2.6.3-3.91.33-1.32-.03-2.51-.33-3.91-.33-.61-.01-1.22.01-1.82 0-1.4 0-2.59.3-3.91.33-1.32-.03-2.51-.33-3.91-.33-.61-.01-1.21.01-1.81 0-1.4 0-2.6.3-3.91.33-1.32-.03-2.51-.33-3.91-.33-.61-.01-1.22.01-1.82 0-.18 0-.36.01-.54.01l-.18.31c.49-.06.98-.11 1.5-.13 1.31.04 2.51.34 3.91.34zm-7.54 6.63c1.38 0 2.55-.34 3.85-.38 1.3.04 2.48.38 3.87.38.6.01 1.2-.01 1.79 0 1.38 0 2.56-.34 3.87-.38 1.3.04 2.49.38 3.87.38.6.01 1.2-.01 1.79 0 1.38 0 2.56-.34 3.86-.38 1.3.04 2.48.38 3.86.38.61.01 1.2-.01 1.8 0 1.38 0 2.56-.34 3.87-.38 1.3.04 2.48.38 3.87.38.6.01 1.2-.01 1.79 0 1.38 0 2.56-.34 3.86-.38 1.3.04 2.48.38 3.87.38.6.01 1.2-.01 1.79 0 .05 0 .1-.01.15-.01l-.16-.28c-.25.03-.5.05-.75.06-1.3-.04-2.48-.38-3.86-.38-.6-.01-1.2.01-1.8 0-1.38 0-2.56.34-3.86.38-1.3-.04-2.48-.38-3.87-.38-.6-.01-1.2.01-1.79 0-1.38 0-2.56.34-3.87.38-1.3-.04-2.48-.38-3.87-.38-.6-.01-1.2.01-1.8 0-1.38 0-2.56.34-3.86.38-1.3-.04-2.48-.38-3.86-.38-.6-.01-1.2.01-1.79 0-1.38 0-2.56.34-3.87.38-1.3-.04-2.48-.38-3.87-.38-.6-.01-1.2.01-1.8 0-1.38 0-2.56.34-3.86.38-.3-.01-.59-.04-.88-.07l-.17.3h.03c.61.01 1.21-.01 1.8 0zm48.12.68c-.43.06-.85.11-1.29.12-1.3-.04-2.48-.38-3.86-.38-.6-.01-1.2.01-1.8 0-1.38 0-2.56.34-3.86.38-1.3-.04-2.48-.38-3.87-.38-.6-.01-1.2.01-1.79 0-1.38 0-2.56.34-3.87.38-1.3-.04-2.48-.38-3.87-.38-.6-.01-1.2.01-1.8 0-1.38 0-2.56.34-3.86.38-1.3-.04-2.48-.38-3.86-.38-.6-.01-1.2.01-1.79 0-1.38 0-2.56.34-3.87.38-1.3-.04-2.48-.38-3.87-.38-.6-.01-1.2.01-1.8 0-1.38 0-2.56.34-3.86.38-.48-.01-.95-.07-1.41-.14l-.2.34c.19.01.39.03.6.03.6.01 1.2-.01 1.79 0 1.38 0 2.55-.34 3.85-.38 1.3.04 2.48.38 3.87.38.6.01 1.2-.01 1.79 0 1.38 0 2.56-.34 3.87-.38 1.3.04 2.49.38 3.87.38.6.01 1.2-.01 1.79 0 1.38 0 2.56-.34 3.86-.38 1.3.04 2.48.38 3.86.38.61.01 1.2-.01 1.8 0 1.38 0 2.56-.34 3.87-.38 1.3.04 2.48.38 3.87.38.6.01 1.2-.01 1.79 0 1.38 0 2.56-.34 3.86-.38 1.3.04 2.48.38 3.87.38.6.01 1.2-.01 1.79 0 .24 0 .48-.01.71-.03l-.18-.32zm-47.15-2.79c.42-.04.82-.1 1.22-.16.58-.07 1.1-.12 1.42-.13.22-.01.57 0 1 .02 1.02.11 2 .32 3.11.32.6.01 1.2-.01 1.79 0 1.38 0 2.56-.34 3.87-.38 1.3.04 2.49.38 3.87.38.6.01 1.2-.01 1.79 0 1.38 0 2.56-.34 3.86-.38 1.3.04 2.48.38 3.86.38.61.01 1.2-.01 1.8 0 1.38 0 2.56-.34 3.87-.38 1.3.04 2.48.38 3.87.38.6.01 1.2-.01 1.79 0 1.38 0 2.56-.34 3.86-.38 1.3.04 2.48.38 3.87.38h.75l-.14-.25c-1.14-.08-2.21-.35-3.44-.35-.6-.01-1.2.01-1.8 0-1.38 0-2.56.34-3.86.38-1.3-.04-2.48-.38-3.87-.38-.6-.01-1.2.01-1.79 0-1.38 0-2.56.34-3.87.38-1.3-.04-2.48-.38-3.87-.38-.6-.01-1.2.01-1.8 0-1.38 0-2.56.34-3.86.38-1.3-.04-2.48-.38-3.86-.38-.6-.01-1.2.01-1.79 0h-.03c.37-.04.82-.07 1.4-.07.69 0 1.3.03 1.91.07.44.05.88.09 1.35.09.6.01 1.2-.01 1.79 0 1.38 0 2.56-.34 3.86-.38 1.3.04 2.48.38 3.86.38.61.01 1.2-.01 1.8 0 1.38 0 2.56-.34 3.87-.38 1.3.04 2.48.38 3.87.38.6.01 1.2-.01 1.79 0 1.38 0 2.56-.34 3.86-.38 1.3.04 2.48.38 3.87.38h.45l-.16-.28c-1.02-.1-2.01-.33-3.13-.33-.6-.01-1.2.01-1.8 0-1.38 0-2.56.34-3.86.38-1.3-.04-2.48-.38-3.87-.38-.6-.01-1.2.01-1.79 0-1.38 0-2.56.34-3.87.38-1.3-.04-2.48-.38-3.87-.38h-.52c1.24-.06 2.88.1 4.09.16.64.03 1.17-.02 1.7-.1.52-.04 1.02-.11 1.51-.18.12-.01.23-.02.35-.02.6-.03 1.2-.03 1.79-.06.27-.01.54 0 .8.01.86.11 1.71.27 2.65.27.6.01 1.2-.01 1.79 0 1.38 0 2.56-.34 3.86-.38 1.3.04 2.48.38 3.87.38h.15l-.18-.31h-.02l-.33-.57c-.95-.03-2.12-.25-3.27-.25h-.24c-1.3.04-2.23.45-4.48.45s-2.49-.41-5.03-.35c-2.38.05-3.38.5-4.67.49-1.29-.02-3.39-.28-5-.11l-.52.06h-.09c-1.38 0-2.56.34-3.86.38-1.3-.04-2.48-.38-3.86-.38-.6-.01-1.2.01-1.79 0-1.38 0-2.56.34-3.87.38-1.3-.04-2.48-.38-3.87-.38-.6-.01-1.2.01-1.8 0-1.05 0-1.99.2-2.95.31l-.17.3h.04c1.38 0 2.55-.34 3.85-.38 1.3.04 2.48.38 3.87.38.6.01 1.2-.01 1.79 0 1.38 0 2.56-.34 3.87-.38.26.01.51.03.76.05-.31 0-.63.01-.95.05-.55.05-1 .14-1.43.23-1.03.09-1.98.31-3 .34-1.3-.04-2.48-.38-3.87-.38-.6-.01-1.2.01-1.8 0-1.17 0-2.19.24-3.27.34l-.15.26h.33c.07 0 .13 0 .2-.01-.2.04-.4.08-.58.11l-.1.17h-.02l-.14.24h.02l-.1.17c.37-.04 1.01-.13 1.69-.22zm6.57-3.62c.61.01 1.21-.01 1.81 0 1.4 0 2.6-.3 3.91-.33 1.32.03 2.52.33 3.92.33.61 0 1.27-.01 1.81 0 1.4 0 2.59-.3 3.91-.33 1.32.03 2.51.33 3.91.33.61.01 1.21-.01 1.82 0 1.4 0 2.6-.3 3.91-.33 1.32.03 2.51.33 3.91.33.61.01 1.21-.01 1.81 0 1.4 0 2.59-.3 3.91-.33.75.02 1.46.12 2.19.21l-.21-.36c-.31-.03-.62-.04-.94-.04-.61-.01-1.21.01-1.82 0-1.4 0-2.59.3-3.91.33-1.32-.03-2.51-.33-3.91-.33-.61-.01-1.21.01-1.81 0-1.4 0-2.6.3-3.91.33-1.32-.03-2.51-.33-3.91-.33-.61-.01-1.22.01-1.82 0-1.4 0-2.59.3-3.91.33-1.32-.03-2.51-.33-3.91-.33-.61-.01-1.21.01-1.81 0-1.4 0-2.6.3-3.91.33-1.32-.03-2.51-.33-3.91-.33-.61-.01-1.22.01-1.82 0-.37 0-.73.02-1.08.05l-.19.34c.68-.08 1.35-.18 2.05-.2 1.31.03 2.51.33 3.91.33zm0-.45c.61.01 1.21-.01 1.81 0 1.4 0 2.6-.3 3.91-.33 1.32.03 2.52.33 3.92.33.61 0 1.27-.01 1.81 0 1.4 0 2.59-.3 3.91-.33 1.32.03 2.51.33 3.91.33.61.01 1.21-.01 1.82 0 1.4 0 2.6-.3 3.91-.33 1.32.03 2.51.33 3.91.33.61.01 1.21-.01 1.81 0 1.4 0 2.59-.3 3.91-.33.65.02 1.28.1 1.91.17l-.2-.35c-.22-.01-.44-.02-.67-.02-.61-.01-1.21.01-1.82 0-1.4 0-2.59.3-3.91.33-1.32-.03-2.51-.33-3.91-.33-.61-.01-1.21.01-1.81 0-1.4 0-2.6.3-3.91.33-1.32-.03-2.51-.33-3.91-.33-.61-.01-1.22.01-1.82 0-1.4 0-2.59.3-3.91.33-1.32-.03-2.51-.33-3.91-.33-.61-.01-1.21.01-1.81 0-1.4 0-2.6.3-3.91.33-1.32-.03-2.51-.33-3.91-.33-.61-.01-1.22.01-1.82 0-.28 0-.55.01-.81.03l-.19.32c.59-.07 1.17-.15 1.77-.16 1.32.04 2.52.34 3.92.34zm0 .89c.61.01 1.21-.01 1.81 0 1.4 0 2.6-.3 3.91-.33 1.32.03 2.52.33 3.92.33.61 0 1.27-.01 1.81 0 1.4 0 2.59-.3 3.91-.33 1.32.03 2.51.33 3.91.33.61.01 1.21-.01 1.82 0 1.4 0 2.6-.3 3.91-.33 1.32.03 2.51.33 3.91.33.61.01 1.21-.01 1.81 0 1.4 0 2.59-.3 3.91-.33.84.02 1.64.15 2.46.24l-.21-.36c-.39-.04-.79-.07-1.21-.07-.61-.01-1.21.01-1.82 0-1.4 0-2.59.3-3.91.33-1.32-.03-2.51-.33-3.91-.33-.61-.01-1.21.01-1.81 0-1.4 0-2.6.3-3.91.33-1.32-.03-2.51-.33-3.91-.33-.61-.01-1.22.01-1.82 0-1.4 0-2.59.3-3.91.33-1.32-.03-2.51-.33-3.91-.33-.61-.01-1.21.01-1.81 0-1.4 0-2.6.3-3.91.33-1.32-.03-2.51-.33-3.91-.33-.61-.01-1.22.01-1.82 0-.47 0-.92.03-1.35.08l-.2.34c.78-.09 1.53-.21 2.33-.23 1.31.03 2.51.33 3.91.33zm0 .45c.61.01 1.21-.01 1.81 0 1.4 0 2.6-.3 3.91-.33 1.32.03 2.52.33 3.92.33.61 0 1.27-.01 1.81 0 1.4 0 2.59-.3 3.91-.33 1.32.03 2.51.33 3.91.33.61.01 1.21-.01 1.82 0 1.4 0 2.6-.3 3.91-.33 1.32.03 2.51.33 3.91.33.61.01 1.21-.01 1.81 0 1.4 0 2.59-.3 3.91-.33.93.02 1.81.17 2.74.26l-.21-.36c-.48-.05-.97-.1-1.49-.1-.61-.01-1.21.01-1.82 0-1.4 0-2.59.3-3.91.33-1.32-.03-2.51-.33-3.91-.33-.61-.01-1.21.01-1.81 0-1.4 0-2.6.3-3.91.33-1.32-.03-2.51-.33-3.91-.33-.61-.01-1.22.01-1.82 0-1.4 0-2.59.3-3.91.33-1.32-.03-2.51-.33-3.91-.33-.61-.01-1.21.01-1.81 0-1.4 0-2.6.3-3.91.33-1.32-.03-2.51-.33-3.91-.33-.61-.01-1.22.01-1.82 0-.57 0-1.1.05-1.63.11l-.2.34c.88-.09 1.71-.23 2.6-.26 1.32.04 2.52.34 3.92.34zm0 .44c.61.01 1.21-.01 1.81 0 1.4 0 2.6-.3 3.91-.33 1.32.03 2.52.33 3.92.33.61 0 1.27-.01 1.81 0 1.4 0 2.59-.3 3.91-.33 1.32.03 2.51.33 3.91.33.61.01 1.21-.01 1.82 0 1.4 0 2.6-.3 3.91-.33 1.32.03 2.51.33 3.91.33.61.01 1.21-.01 1.81 0 1.4 0 2.59-.3 3.91-.33 1.02.02 1.97.21 2.99.29l-.21-.36c-.56-.07-1.13-.13-1.75-.13-.61-.01-1.21.01-1.82 0-1.4 0-2.59.3-3.91.33-1.32-.03-2.51-.33-3.91-.33-.61-.01-1.21.01-1.81 0-1.4 0-2.6.3-3.91.33-1.32-.03-2.51-.33-3.91-.33-.61-.01-1.22.01-1.82 0-1.4 0-2.59.3-3.91.33-1.32-.03-2.51-.33-3.91-.33-.61-.01-1.21.01-1.81 0-1.4 0-2.6.3-3.91.33-1.32-.03-2.51-.33-3.91-.33-.61-.01-1.22.01-1.82 0-.66 0-1.28.07-1.88.14l-.19.34c.97-.09 1.88-.26 2.86-.28 1.31.03 2.51.33 3.91.33z"/><path fill="#97C924" d="M117.48 103.62c-3.88-.58-7.06-4.55-8.07-8.46 0 0-.22-.34-.9-.34s-.89.34-.89.34c-.41 1.57-1.16 3.15-2.17 4.51-1.01-1.37-1.77-2.94-2.17-4.51 0 0-.22-.34-.9-.34s-.89.34-.89.34c-.41 1.57-1.16 3.15-2.17 4.51a13.424 13.424 0 01-2.17-4.51s-.21-.35-.9-.35c-.68 0-.9.35-.9.35-.4 1.56-1.15 3.13-2.15 4.48-1-1.36-1.75-2.93-2.15-4.49 0 0-.21-.34-.89-.34s-.9.34-.9.34c-.38 1.47-1.14 3.1-2.16 4.59a13.194 13.194 0 01-2.22-4.59s-.21-.34-.89-.34-.9.34-.9.34c-1.01 3.9-4.73 8.93-8.6 9.52l-1.65 2.85c1.14-.2 2.77-.66 4.13-.66 1.47 0 3.25.36 5.01.37 2.04.01 2.81-.43 4.45-.6 1.64-.16 3.22.21 4.79.22 1.27 0 3.19-.44 4.82-.61 1.62-.17 3.11.12 5.07.15 1.96.03 2.27-.47 4.66-.53 2.56-.06 2.8.35 5.06.35 1.71.09 3.17-.34 4.69-.45 1.46-.1 2.17.01 3.2.04l-1.24-2.18z"/><path fill="#CCD11E" d="M90.44 95.56zm1.6 5.69c.06.11.13.22.2.33l.12.18c.07.11.15.22.23.32.16.21.32.41.5.6.03.03.07.06.11.09.04.03.08.06.12.1.3.23.63.43.97.56.09.04.18.07.27.09.26.07.53.11.79.07-.1-.08-.19-.16-.29-.25-.05-.04-.1-.08-.14-.12-.39-.35-.76-.73-1.11-1.13-.01-.01-.02-.03-.03-.04-.2-.23-.39-.47-.58-.71-.08-.1-.15-.2-.22-.3-.04-.05-.07-.1-.11-.15l-.21-.3c-.03-.05-.06-.1-.09-.14-1.09-1.66-1.8-3.43-2.13-4.88.12 1.8.57 3.85 1.51 5.54.03.04.06.09.09.14z"/><path fill="#93BC30" d="M89.64 95.56zm0 0c-.33 1.42-1.02 3.14-2.07 4.78.19.23.4.45.61.66.79-1.67 1.34-3.67 1.46-5.44zm-6.17 0c-.7 3.03-3.05 7.48-7.03 9.37.45-.06 1.75-.15 2.49-.4 2.28-.79 4.29-5.35 4.54-8.97z"/><path fill="#EDE71F" d="M105.78 100.1c-.08-.1-.15-.2-.23-.3.34-.46.66-.93.94-1.43.14-.25.27-.5.4-.76a13.448 13.448 0 00.88-2.38s.01 0 .01-.01c0 0 .02-.05.13-.11.05-.03.13-.07.23-.09h.01c.1-.03.22-.05.38-.05.06 0 .11.01.16.01.01 1.21 0 3.24 0 4.32-.01.94-.33 1.69-.8 2.58-.02.07-.05.12-.07.17-.38-.28-.75-.6-1.09-.94.95-1.7 1.41-3.76 1.53-5.57-.33 1.45-1.05 3.24-2.15 4.91-.08-.1-.17-.19-.25-.29.09-.16.17-.32.22-.46-.11.14-.2.27-.3.4zm-5.86-.39c-.05.15-.13.3-.22.46.08.1.16.2.25.29 1.1-1.67 1.82-3.45 2.15-4.91-.12 1.81-.57 3.87-1.53 5.57.35.34.71.66 1.09.94.02-.05.05-.11.07-.18.47-.89.79-1.64.8-2.58 0-1.08.01-3.11 0-4.32-.05-.01-.1-.01-.16-.01-.16 0-.28.02-.38.05h-.01c-.1.03-.18.06-.23.09-.11.07-.13.11-.13.11s-.01 0-.01.01c-.07.27-.15.53-.24.8a13.448 13.448 0 01-.64 1.58c-.12.26-.26.51-.4.76-.28.49-.6.97-.94 1.43.08.1.15.2.23.3.12-.13.21-.26.3-.39zm-6.12 0c-.05.14-.12.28-.2.43.08.1.16.2.25.3 1.06-1.62 1.76-3.34 2.11-4.77.02-.28.02-.51.02-.66-.03.01-.07.01-.1.02h-.01c-.1.03-.17.06-.23.09-.11.07-.13.11-.13.11s-.01 0-.01.01c-.07.27-.15.53-.24.8a13.448 13.448 0 01-.64 1.58c-.12.26-.26.51-.4.76-.27.49-.59.95-.92 1.4.08.1.16.2.23.29.1-.12.18-.24.27-.36zm3.59-.35c-.21-.83-.81-2.63-.75-4.32h.01c.1.03.17.06.23.09.11.07.13.11.13.11s.01 0 .01.01c.07.27.15.53.24.8a13.448 13.448 0 00.64 1.58c.12.26.26.51.4.76.28.49.59.96.93 1.42.03.04.06.09.1.13.06.08.11.16.17.24.02.02.03.04.05.06.02.03.05.06.07.09.08.1.16.19.24.29.16.18.32.36.49.53l.14.14c.34.34.7.67 1.08.97.19.16.39.31.59.45.05.04.1.07.16.1.15.1.3.2.46.29.1.06.21.12.31.17.13.07.26.13.4.19.11.05.22.1.33.14.05.02.1.03.14.05.1.04.2.07.3.1-.57 0-1.08-.01-1.53-.03-.05 0-.11-.01-.16-.01-.26-.02-.5-.04-.73-.07-.33-.04-.63-.1-.9-.18a7.71 7.71 0 01-.26-.09c-.13-.05-.25-.1-.36-.16-.3-.15-.57-.34-.82-.57-.16-.15-.3-.31-.45-.5-.06-.08-.11-.15-.17-.22-.08-.11-.16-.21-.24-.31-.05-.06-.08-.11-.13-.17-.08-.1-.15-.21-.22-.3-.03-.05-.07-.09-.1-.14-.43-.64-.66-1.09-.8-1.64zm-.54-3.8c.12 1.83.57 3.65 1.54 5.22.03.05.06.1.09.14.07.11.14.21.21.31.04.06.08.11.12.17.08.1.15.2.23.3.14.17.28.34.44.51.07.06.15.12.22.17.34.26.72.49 1.11.62.16.06.33.09.49.11.13.01.27.02.4 0h.03l-.01-.01c-.05-.04-.1-.07-.15-.11-.16-.11-.31-.23-.46-.34a11.301 11.301 0 01-1.6-1.56c-.08-.09-.15-.19-.23-.28l-.1-.13c-.07-.1-.15-.2-.22-.3-.03-.05-.07-.09-.1-.14-1.04-1.55-1.67-3.23-2.01-4.68zM90 99.32c0-1.08-.01-3.11 0-4.32.05-.01.1-.01.16-.01.16 0 .28.02.38.05h.01c.1.03.18.06.23.09.11.07.13.11.13.11s.01 0 .01.01c.07.27.15.53.24.8a13.448 13.448 0 00.64 1.58c.12.26.26.51.4.76.27.47.59.94.93 1.39l.1.13c.08.1.15.2.23.29.01.02.04.05.07.09.05.07.12.16.17.23.02.02.04.05.06.07.16.19.32.38.5.55.04.04.08.08.13.12.54.53 1.12 1 1.74 1.39.05.03.11.06.16.1.16.09.31.18.48.27.1.05.21.11.31.16l.42.18c.17.07.33.13.5.18l.18.06c-.07.02-.15.03-.23.04-.14.03-.3.05-.47.07-.16.02-.33.04-.51.05a.922.922 0 00-.08-.05c-.08-.05-.16-.1-.25-.16-.11-.07-.22-.15-.33-.22-.15-.1-.31-.21-.46-.33-.05-.04-.1-.07-.15-.11-.49-.37-1-.81-1.49-1.31-.04-.04-.08-.08-.12-.13a28.4 28.4 0 01-.51-.56c-.08-.09-.16-.18-.23-.28l-.09-.12c-.08-.09-.15-.19-.23-.28-.03-.05-.07-.09-.1-.14-.27-.36-.53-.75-.78-1.16.18.44.41.87.68 1.29.03.05.06.1.1.14.07.1.14.2.21.31l.1.13c.07.1.15.2.22.29.16.21.34.41.52.61.03.04.07.08.1.12.4.44.85.86 1.31 1.25.05.04.1.08.14.12.15.12.29.24.44.36.08.06.15.12.23.18.01.01.02.01.02.02l.03.03c.45.34.91.65 1.38.95l.12.09c-.64.05-1.47.04-2.37-.12-.88-.16-1.84-.45-2.74-.96-.15-.09-.3-.18-.45-.28-.08-.06-.17-.12-.25-.18-.04-.03-.08-.05-.12-.08-.05-.04-.09-.07-.13-.1-.13-.1-.23-.19-.32-.27a1.575 1.575 0 01-.41-.58c-.02-.04-.03-.07-.05-.12-.01-.01-.01-.03-.02-.04-.02-.05-.04-.09-.06-.15-.5-.91-.82-1.66-.83-2.6zm.44-3.76c.12 1.8.57 3.85 1.51 5.54l.09.15c.06.11.13.22.2.33l.12.18c.07.11.15.22.23.32.16.21.32.41.5.6.03.03.07.06.11.09.04.03.08.06.12.1.3.23.63.43.97.56.09.04.18.07.27.09.26.07.53.11.79.07-.1-.08-.19-.16-.29-.25-.05-.04-.1-.08-.14-.12-.39-.35-.76-.73-1.11-1.13-.01-.01-.02-.03-.03-.04-.2-.23-.39-.47-.58-.71-.08-.1-.15-.2-.22-.3-.04-.05-.07-.1-.11-.15l-.21-.3c-.03-.05-.06-.1-.09-.14-1.08-1.67-1.8-3.44-2.13-4.89zm-6.61 3.76c0-1.08-.01-3.11 0-4.32.05-.01.1-.01.16-.01.16 0 .28.02.38.05h.01c.1.03.18.06.23.09.11.07.13.11.13.11s.01 0 .01.01c.07.27.15.53.24.8a13.448 13.448 0 00.64 1.58c.12.26.26.51.4.76.29.51.64 1.01 1.01 1.49.08.11.17.22.25.32l.21.29c.01.01.02.02.03.04.18.21.37.42.56.62l.03.03c.57.57 1.19 1.08 1.85 1.49.05.03.11.06.16.1l.48.27c.1.05.21.11.31.16.12.06.25.11.38.16.01.01.03.01.04.02.16.06.33.12.49.18.05.02.1.04.16.05-.2.04-.44.08-.7.12-.16.02-.33.04-.51.05a.922.922 0 00-.08-.05c-.07-.05-.15-.09-.22-.14-.03-.02-.06-.04-.1-.06-.08-.05-.16-.11-.24-.16-.15-.1-.31-.21-.46-.33-.05-.04-.1-.07-.15-.11-.52-.4-1.06-.86-1.59-1.4-.22-.22-.44-.46-.65-.71-.16-.19-.32-.39-.48-.6-.3-.39-.59-.82-.87-1.28.2.48.46.96.76 1.42.14.21.29.43.46.64.2.26.42.52.65.77a15.74 15.74 0 001.52 1.44c.15.12.29.24.44.36.03.02.06.04.08.07l.13.1c.02.01.04.03.06.04.45.34.91.65 1.38.94l.12.09c-.63.05-1.45.04-2.34-.11-.89-.15-1.85-.45-2.77-.97-.02-.01-.03-.02-.05-.03-.26-.15-.52-.32-.77-.51-.08-.06-.15-.12-.22-.17-.3-.24-.44-.39-.55-.58-.05-.09-.1-.19-.14-.31-.03-.05-.05-.12-.08-.2-.46-.92-.78-1.67-.79-2.61zm.44-3.76c.13 1.88.61 4.02 1.64 5.75.14.23.29.46.45.68.18.24.37.48.58.69.06.05.12.1.19.15.32.24.67.46 1.03.6.09.04.18.06.27.09.25.07.51.1.77.06l-.27-.24c-.05-.04-.1-.08-.14-.12-.41-.37-.79-.76-1.15-1.17a15.166 15.166 0 01-1.12-1.47c-1.16-1.7-1.91-3.53-2.25-5.02z"/><path fill="#C6CB24" d="M108.24 95.56c-.12 1.81-.57 3.87-1.53 5.57-.22-.21-.42-.43-.62-.66 1.09-1.67 1.81-3.45 2.15-4.91zm-8.29 4.91c.2.23.41.45.62.66.95-1.7 1.4-3.76 1.53-5.57-.33 1.46-1.05 3.24-2.15 4.91zm-5.61.51l.12.12c.57-1.03.96-2.19 1.21-3.35.05-.22.09-.44.12-.66l.06-.41c.05-.38.1-.76.12-1.13-.01.04-.02.08-.03.11-.34 1.43-1.05 3.15-2.11 4.77.17.2.34.38.51.55zm4.15-.05c.07.11.14.21.21.31.04.06.08.11.12.17.08.1.15.2.23.3.14.17.28.34.44.51.07.06.15.12.22.17.34.26.72.49 1.11.62.16.06.33.09.49.11.13.01.27.02.4 0h.03l-.01-.01c-.05-.04-.1-.07-.15-.11-.16-.11-.31-.23-.46-.34a11.301 11.301 0 01-1.6-1.56c-.08-.09-.15-.19-.23-.28l-.1-.13c-.07-.1-.15-.2-.22-.3-.03-.05-.07-.09-.1-.14-1.06-1.54-1.69-3.22-2.03-4.67.12 1.83.57 3.65 1.54 5.22.05.03.08.08.11.13zm-14.22-5.37zm2.08 6.43c.18.24.37.48.58.69.06.05.12.1.19.15.32.24.67.46 1.03.6.09.04.18.06.27.09.25.07.51.1.77.06l-.27-.24c-.05-.04-.1-.08-.14-.12-.41-.37-.79-.76-1.15-1.17a15.166 15.166 0 01-1.12-1.47c-1.14-1.7-1.89-3.54-2.23-5.03.13 1.88.61 4.02 1.64 5.75.12.25.27.47.43.69z"/><path fill="#9ECB34" d="M106.06 99.71zm-.28.39c.02.02.04.05.06.07.09-.16.17-.32.22-.46-.09.13-.18.26-.28.39zm-6.14 0c.02.02.04.05.06.07.09-.16.17-.32.22-.46-.09.13-.18.26-.28.39zm.28-.39zm-6.12 0c-.08.12-.17.24-.26.36.02.02.04.05.06.07.08-.15.15-.29.2-.43zm3.07 3.98c-.08-.05-.16-.1-.25-.16-.11-.07-.22-.15-.33-.22-.15-.1-.31-.21-.46-.33-.05-.04-.1-.07-.15-.11-.49-.37-1-.81-1.49-1.31-.04-.04-.08-.08-.12-.13a28.4 28.4 0 01-.51-.56c-.08-.09-.16-.18-.23-.28l-.09-.12c-.08-.09-.15-.19-.23-.28-.03-.05-.07-.09-.1-.14-.27-.36-.53-.75-.78-1.16.18.44.41.87.68 1.29.03.05.06.1.1.14.07.1.14.2.21.31l.1.13c.07.1.15.2.22.29.16.21.34.41.52.61.03.04.07.08.1.12.4.44.85.86 1.31 1.25.05.04.1.08.14.12.15.12.29.24.44.36.08.06.15.12.23.18.01.01.02.01.02.02l.03.03c.45.34.91.65 1.38.95.11.07.22.13.32.2.18.01.31.01.43 0 .18 0 .33-.01.59-.03-.18-.1-.38-.2-.59-.31-.43-.23-.9-.49-1.4-.8a.349.349 0 01-.09-.06c0 .01 0 0 0 0zm-6.4-.14c-.03-.02-.06-.04-.1-.06-.08-.05-.16-.11-.24-.16-.15-.1-.31-.21-.46-.33-.05-.04-.1-.07-.15-.11-.52-.4-1.06-.86-1.59-1.4-.22-.22-.44-.46-.65-.71-.16-.19-.32-.39-.48-.6-.3-.39-.59-.82-.87-1.28.2.48.46.96.76 1.42.14.21.29.43.46.64.2.26.42.52.65.77a15.74 15.74 0 001.52 1.44c.15.12.29.24.44.36.03.02.06.04.08.07l.13.1c.02.01.04.03.06.04.45.34.91.65 1.38.94.11.07.22.13.32.2.18.01.31.01.43 0 .18 0 .33-.01.59-.03-.18-.1-.38-.2-.59-.31a24.907 24.907 0 01-1.48-.85c-.06-.04-.13-.09-.21-.14z"/><path fill="#C8A400" d="M62.1 91.73c-.37-.13-.81-.16-1.13.11-.4.3-.47.82-.53 1.28-.07.87-.12 1.74-.18 2.61l3.99.27c.01-.19.03-.39.04-.58-.52-.03-1.05-.07-1.57-.1.04-.64.09-1.28.12-1.92.56-.4 1.11-.8 1.66-1.21.02-.25.03-.49.05-.74-.59.42-1.17.85-1.76 1.27-.05-.42-.27-.85-.69-.99zm.13 2.41c-.03.38-.05.76-.08 1.14l-1.28-.09c.05-.66.08-1.31.14-1.97.05-.32.11-.7.39-.9.26-.17.63-.04.74.25.21.49.12 1.04.09 1.57zm-1.45-4.54zm4.78-2.88c-.3 1.26-.59 2.53-.89 3.79-1.3-.3-2.6-.61-3.9-.91.29-1.22.57-2.45.86-3.67.19.04.37.09.56.13l-.72 3.1 1.05.24c.23-.97.45-1.94.68-2.91.18.04.37.09.55.13-.23.97-.45 1.94-.68 2.91.4.09.79.18 1.19.28l.75-3.23c.18.05.37.1.55.14zm.6-1.59c-.5-.17-.99-.34-1.49-.52.19-.57.41-1.14.58-1.71.13-.47.23-1.02-.05-1.46-.22-.32-.62-.53-1.02-.52-.44.02-.79.34-.98.71-.29.54-.45 1.13-.65 1.7-.12.35-.24.69-.36 1.04 1.26.44 2.52.88 3.78 1.31.06-.18.12-.36.19-.55zm-2.03-.7c-.41-.14-.81-.28-1.22-.42.2-.57.38-1.14.6-1.7.14-.3.3-.65.65-.75.28-.06.58.15.61.44.07.53-.16 1.04-.33 1.53-.1.3-.2.6-.31.9zm2.28-3.65c-.72-.41-1.42-.83-2.14-1.24.1-.17.2-.33.29-.5.45.27.91.53 1.36.8.36.19.7.46 1.11.54.39.08.77-.17.99-.47.27-.38.54-.79.6-1.27.06-.4-.21-.75-.53-.95-.67-.4-1.36-.8-2.03-1.19.1-.17.2-.33.29-.5l1.38.81c.47.29 1.03.52 1.34 1.02.28.49.12 1.1-.1 1.58-.28.57-.64 1.16-1.22 1.48-.43.23-.94.1-1.34-.11zm5.4-5.45c.28-.41.55-.94.35-1.44-.18-.4-.59-.71-1.03-.73-.2-.03-.46.12-.57.19.11-.43-.24-.83-.63-.94-.47-.17-.95.14-1.26.47-.37.4-.68.85-1.01 1.28-.17.22-.34.45-.51.67l3.18 2.43c.49-.65.98-1.29 1.48-1.93zm-3.01.02c-.28-.22-.56-.43-.84-.65.37-.48.72-.97 1.11-1.43.18-.2.47-.43.75-.28.26.11.32.43.2.67-.19.42-.51.75-.78 1.12-.14.19-.29.38-.44.57zm.45.35c.39-.49.75-1.01 1.16-1.48.21-.22.47-.49.8-.43.28.06.49.37.39.65-.16.52-.55.92-.87 1.36l-.5.65c-.32-.25-.65-.5-.98-.75zm4.25-2.21l-2.75-2.91.42-.4 2.32 2.46.03.04.05-.05 1.88-1.78.39.41-2.34 2.23zm3.22-2.82l-2.44-3.17.48-.37 2.44 3.17-.48.37zm.08-2.62c-.21-.35-.31-.7-.29-1.06.02-.36.15-.71.4-1.05.25-.34.56-.62.96-.87.45-.28.87-.43 1.28-.45.39-.02.72.07 1.02.28l-.43.39c-.51-.33-1.05-.09-1.59.25-.77.5-1.38 1.27-.82 2.2.54.83 1.42.87 2.32.32.58-.37 1.09-.75.95-1.55l.55-.22c.08.42.03.81-.17 1.18-.2.38-.53.72-1 1.01-.49.3-.92.47-1.31.52-.39.04-.74-.02-1.07-.2-.34-.19-.61-.43-.8-.75zm5.99-1.11l.13-1.39 2.02-.82 1.06.92.62-.25-3.41-2.94-.62.25-.42 4.48.62-.25zm.34-3.77l1.33 1.15-1.49.6.16-1.75zm11.2-3.01c-.61-.12-1.23-.02-1.85 0-.38.02-.76.05-1.14.07.08 1.33.17 2.66.25 3.99.72-.05 1.44-.08 2.17-.14.57-.06 1.18-.21 1.56-.66.5-.56.57-1.38.35-2.08-.17-.6-.72-1.06-1.34-1.18zm.86 2.05c-.03.56-.44 1.07-.98 1.21-.31.08-.63.1-.95.14-.37.02-.75.05-1.12.07l-.18-2.86c.57-.03 1.15-.09 1.72-.09.33-.01.65.09.92.28.41.27.64.76.59 1.25zm5.4 2.01c-1.3-.07-2.59-.15-3.89-.22.08-1.33.15-2.66.23-3.99 1.25.07 2.51.14 3.76.22l-.03.57-3.18-.18-.06 1.08c.99.06 1.99.11 2.98.17l-.03.56c-.99-.06-1.99-.11-2.98-.17-.02.41-.05.81-.07 1.22 1.1.06 2.2.13 3.31.19-.02.17-.03.36-.04.55zm5.85 1.38l-.51-.2 1.45-3.73.67.26 1.38 3.97.06.17.06-.15 1.15-2.96.52.2-1.45 3.73-.67-.26-1.38-3.97-.06-.17-.06.15-1.16 2.96zm3.95 1.66l1.82-3.56.53.27-1.82 3.56-.53-.27zm2.22-1.24c.22-.34.5-.58.84-.71.34-.13.71-.16 1.12-.08.41.08.8.25 1.19.51.44.29.75.61.94.97.18.34.23.69.17 1.05l-.53-.23c.08-.6-.35-.99-.89-1.35-.77-.49-1.73-.72-2.34.17-.53.83-.19 1.65.68 2.24.57.37 1.14.68 1.8.21l.43.41c-.34.25-.72.36-1.14.34-.43-.02-.88-.19-1.34-.49-.48-.32-.81-.64-1.01-.97-.2-.33-.29-.68-.27-1.05.03-.36.15-.71.35-1.02zm2.78 4.26l.51.44 1.29-.52 1.65 1.43-.33 1.35.51.44 1.06-4.37-.51-.44-4.18 1.67zm3.6.74l-1.21-1.05 1.63-.66-.42 1.71zm.52 2.92c.12.15.25.3.37.45l1.21-1c.41.49.81 1 1.23 1.48-.13.67-.26 1.35-.38 2.02.16.19.31.38.47.57.13-.71.27-1.42.4-2.13.35.28.85.43 1.26.2.36-.17.67-.49.69-.9.04-.55-.35-1-.66-1.41-.5-.61-1.01-1.22-1.51-1.83-1.03.85-2.05 1.7-3.08 2.55zm4.31-.13c.19.28.43.68.21 1.01-.18.28-.57.26-.82.07-.49-.33-.81-.83-1.2-1.27-.16-.2-.33-.4-.49-.59.33-.27.66-.55.99-.82.45.53.9 1.05 1.31 1.6zm-.71 4.74l1.39-.07 1.09 1.89-.76 1.17.34.58 2.44-3.78-.34-.58-4.5.21.34.58zm3.78-.18l-.96 1.48-.8-1.39 1.76-.09zm.38-.61zm1.26 3.58c.67.34 1.06 1.03 1.31 1.71.14.4.24.82.23 1.25.01.43-.2.85-.54 1.12-.05-.08-.1-.17-.15-.25-.02-.08-.17-.17-.08-.24.32-.33.34-.83.23-1.26-.16-.64-.46-1.29-1.01-1.69-.55-.41-1.37-.26-1.83.22-.4.42-.4 1.05-.28 1.58.16.71.47 1.42 1.03 1.9.21-.08.42-.15.63-.23-.18-.5-.36-.99-.54-1.49.14-.05.29-.1.43-.16.24.67.49 1.35.73 2.02-.62.22-1.25.45-1.87.67-.06-.18-.13-.36-.19-.53.1-.04.2-.07.3-.11-.53-.58-.88-1.31-1.03-2.07-.12-.67-.1-1.44.36-1.98.54-.65 1.52-.83 2.27-.46zm-.01 9.3c-.26-.08-.47-.26-.65-.54-.18-.28-.32-.65-.42-1.13v-.01c-.09-.48-.1-.88-.04-1.2.06-.33.2-.57.4-.75.21-.17.52-.31.93-.39l2.24-.44.11.57-2.18.42c-.98.19-1.09.79-.92 1.67v.01c.17.88.5 1.4 1.48 1.21l2.18-.42.11.57-2.24.44c-.4.08-.74.07-1-.01zm3.69 2.35zm0 0l-4.14-1.77.05.67 1.28.55.16 2.18-1.19.72.05.67 3.84-2.35-.05-.67zm-2.22-.31l1.62.69-1.5.91-.12-1.6zm-66.63 10.65l.64 2.44-.58.15-.64-2.44.58-.15zm65.82 0l.58.15-.64 2.44-.58-.15.64-2.44zM69.55 113.6l-4.47.51.37.56 1.39-.16 1.22 1.81-.68 1.22.37.56 2.17-3.94-.37-.56zm-1.19 2.16l-.89-1.33 1.75-.21-.86 1.54zm6.33 3.94l-2.85 2.67-.38-.41 2.36-2.21-3.44 1.05-.44-.47 1.26-3.47-2.4 2.25-.38-.41 2.85-2.67.66.7-1.31 3.39 3.5-1.05.57.63zm.2 2.24c.79.6 1.59 1.2 2.38 1.8-.11.15-.23.3-.34.45-.79-.6-1.59-1.2-2.38-1.8l-.73.97c.88.66 1.76 1.33 2.65 1.99-.11.15-.23.3-.34.45-1.04-.78-2.07-1.56-3.11-2.34.8-1.07 1.6-2.13 2.41-3.2 1 .76 2.01 1.51 3.01 2.27-.11.15-.23.3-.34.46l-2.55-1.92c-.23.3-.45.59-.66.87zm7.69 3.4c-.14-.52-.65-.79-1.09-1.05-.72-.39-1.44-.77-2.17-1.16-.63 1.18-1.26 2.35-1.88 3.53.17.09.34.18.52.28.25-.46.49-.93.74-1.39.57.3 1.13.61 1.7.9l.42 2.01c.22.12.44.23.65.35-.15-.71-.29-1.42-.44-2.12.43.13.95.07 1.25-.3.25-.27.42-.67.3-1.05zm-1.29.81c-.58-.1-1.08-.44-1.6-.7-.24-.13-.48-.26-.73-.39.2-.38.4-.76.61-1.14.6.33 1.22.63 1.81.98.27.18.62.44.59.81-.03.33-.38.5-.68.44zm3.11-.42l-1.51 3.7-.56-.23 1.51-3.7.56.23zm3.69 4.02l.52.29c-.27.33-.6.54-1.01.63-.43.09-.89.05-1.42-.12-.54-.18-.95-.41-1.23-.68-.28-.27-.46-.58-.53-.95s-.05-.73.06-1.08c.13-.39.34-.69.63-.9.29-.22.65-.34 1.06-.37.42-.03.84.04 1.28.18.5.17.89.4 1.16.69.26.28.41.6.44.97l-.57-.09c-.08-.6-.6-.87-1.21-1.07-.88-.27-1.86-.25-2.22.77-.29.94.24 1.65 1.24 1.99.65.21 1.28.37 1.8-.26zm3.38-2.1l-2.62 3.66.66.1.81-1.14 2.16.31.45 1.32.66.1-1.47-4.25-.65-.1zm-.77 2.1l1.02-1.43.57 1.66-1.59-.23zm12.18.24h.59c-.07.42-.26.77-.58 1.04-.33.29-.76.48-1.3.58-.56.11-1.03.11-1.41.01-.38-.1-.69-.29-.93-.57-.24-.28-.4-.61-.47-.97-.08-.4-.04-.76.11-1.1.15-.33.4-.61.75-.84.35-.23.75-.38 1.21-.47.52-.1.97-.09 1.35.04.37.12.65.33.85.63l-.54.2c-.36-.49-.95-.46-1.58-.34-.9.19-1.74.69-1.55 1.76.21.96 1.02 1.32 2.06 1.13.67-.13 1.29-.31 1.44-1.1zm5.35-.6c.05.18.11.36.16.54l-3.73 1.11c-.38-1.28-.76-2.56-1.14-3.83 1.2-.36 2.41-.71 3.61-1.07.05.18.11.37.16.55-1.02.3-2.04.6-3.06.91.1.34.2.69.31 1.03.95-.28 1.91-.57 2.86-.85.05.18.11.36.16.54-.95.28-1.91.57-2.86.85.12.39.23.78.35 1.17 1.06-.33 2.12-.64 3.18-.95zm3.36-5.27l1.68 3.63c-.17.08-.34.16-.5.23-.09.05-.17.1-.26.02-1.29-.59-2.58-1.2-3.87-1.79.47 1.01.93 2.02 1.4 3.03-.17.08-.33.15-.5.23l-1.68-3.63c.22-.1.44-.2.65-.3 1.33.61 2.65 1.23 3.98 1.83-.47-1.01-.93-2.02-1.4-3.02.16-.08.33-.16.5-.23zm2.96-1.12l1.86 2.82-.49.32-1.86-2.82-.03-.04-.05.04-1.43.94-.31-.48 3.46-2.28.31.48-1.44.94-.06.04.04.04zm5.77-3.69c-.19-.35-.53-.64-.94-.64-.55-.01-.98.4-1.37.74-.58.53-1.16 1.07-1.74 1.61.9.98 1.81 1.96 2.71 2.94.14-.13.29-.26.43-.4l-1.07-1.16c.47-.44.95-.87 1.41-1.31l2.04.27c.18-.17.36-.33.54-.5-.72-.09-1.43-.19-2.15-.28.27-.35.38-.87.14-1.27zm-.59.9c-.3.51-.79.86-1.21 1.27-.19.17-.38.35-.56.52-.29-.32-.58-.63-.87-.95.51-.46 1-.94 1.53-1.38.27-.21.66-.46 1-.26.28.15.28.55.11.8zm1.19-3.84zm0 0l1.79 4.13.43-.52-.56-1.28 1.38-1.69 1.36.29.43-.52-4.4-.94-.43.53zm2.42.51l-1.02 1.24-.7-1.61 1.72.37zm3.96-3.63l.48.31-1.76 2.72-3.36-2.18.32-.49 2.84 1.84.04.03.04-.06 1.4-2.17zm-56.52-2.57h50.96L96.26 66.55l-25.48 44.13zm50.44-.3H71.3l12.62-21.86 12.34-21.37 12.62 21.86 12.34 21.37z"/><g><path fill="none" d="M172 160V32c0-6.6-5.4-12-12-12H32c-6.6 0-12 5.4-12 12v128c0 6.6 5.4 12 12 12h128c6.6 0 12-5.4 12-12z" opacity=".4"/><path fill="none" d="M0 0v192h192V0H0z"/><path fill="#DFDFDF" d="M160 20c6.6 0 12 5.4 12 12v128c0 6.6-5.4 12-12 12H32c-6.6 0-12-5.4-12-12V32c0-6.6 5.4-12 12-12h128m0-8H32c-11.03 0-20 8.97-20 20v128c0 11.03 8.97 20 20 20h128c11.03 0 20-8.97 20-20V32c0-11.03-8.97-20-20-20z"/><path fill="#FFF" fill-opacity=".2" d="M160 20H32c-6.6 0-12 5.4-12 12v1c0-6.6 5.4-12 12-12h128c6.6 0 12 5.4 12 12v-1c0-6.6-5.4-12-12-12z"/><path fill="#212121" fill-opacity=".1" d="M160 172H32c-6.6 0-12-5.4-12-12v-1c0 6.6 5.4 12 12 12h128c6.6 0 12-5.4 12-12v1c0 6.6-5.4 12-12 12z"/><radialGradient id="a" cx="23.768" cy="23.933" r="204.625" gradientUnits="userSpaceOnUse"><stop offset="0" stop-color="#fff" stop-opacity=".1"/><stop offset="1" stop-color="#fff" stop-opacity="0"/></radialGradient><path fill="url(#a)" d="M160 172H32c-6.6 0-12-5.4-12-12V32c0-6.6 5.4-12 12-12h128c6.6 0 12 5.4 12 12v128c0 6.6-5.4 12-12 12z"/></g></svg>