<svg xmlns="http://www.w3.org/2000/svg" width="192" height="192"><path fill="#FFF" d="M105.93 106.91H87.48c-.95 0-1.73-.78-1.73-1.73V86.73c0-.95.78-1.73 1.73-1.73h18.45c.95 0 1.73.78 1.73 1.73v18.45c0 .95-.78 1.73-1.73 1.73z"/><path fill="#003893" d="M149.42 98.02L44 32v128h101.19L83.21 98.02z"/><path fill="#DC143C" d="M135.62 94.05L47.96 39.16v116.88h87.66L73.64 94.05z"/><path fill="#FFF" d="M69.88 90.93c9.64 0 17.46-7.82 17.46-17.46-1.53 3.89-4.3 7.13-7.84 9.24L78 81.59l2.94-2.2-3.56-.91 1.87-3.16-3.64.52.52-3.64-3.16 1.87-.91-3.56-2.2 2.94-2.2-2.94-.91 3.56-3.16-1.87.52 3.64-3.64-.52 1.88 3.16-3.56.91 2.94 2.2-1.49 1.12a18.676 18.676 0 01-7.84-9.24c.02 9.64 7.84 17.46 17.48 17.46zm-8.41 25.7l-7.83-.97 4.75 6.3-7.27 3.08 7.27 3.08-4.75 6.3 7.83-.97-.97 7.83 6.3-4.75 3.08 7.27 3.08-7.27 6.3 4.75-.97-7.83 7.83.97-4.75-6.3 7.27-3.08-7.27-3.08 4.75-6.3-7.83.97.97-7.83-6.3 4.75-3.08-7.27-3.08 7.27-6.3-4.75.97 7.83z"/><path fill="none" d="M172 160V32c0-6.6-5.4-12-12-12H32c-6.6 0-12 5.4-12 12v128c0 6.6 5.4 12 12 12h128c6.6 0 12-5.4 12-12z" opacity=".4"/><path fill="none" d="M0 0v192h192V0H0z"/><path fill="#DFDFDF" d="M160 20c6.6 0 12 5.4 12 12v128c0 6.6-5.4 12-12 12H32c-6.6 0-12-5.4-12-12V32c0-6.6 5.4-12 12-12h128m0-8H32c-11.03 0-20 8.97-20 20v128c0 11.03 8.97 20 20 20h128c11.03 0 20-8.97 20-20V32c0-11.03-8.97-20-20-20z"/><path fill="#FFF" fill-opacity=".2" d="M160 20H32c-6.6 0-12 5.4-12 12v1c0-6.6 5.4-12 12-12h128c6.6 0 12 5.4 12 12v-1c0-6.6-5.4-12-12-12z"/><path fill="#212121" fill-opacity=".1" d="M160 172H32c-6.6 0-12-5.4-12-12v-1c0 6.6 5.4 12 12 12h128c6.6 0 12-5.4 12-12v1c0 6.6-5.4 12-12 12z"/><radialGradient id="a" cx="23.768" cy="23.933" r="204.625" gradientUnits="userSpaceOnUse"><stop offset="0" stop-color="#fff" stop-opacity=".1"/><stop offset="1" stop-color="#fff" stop-opacity="0"/></radialGradient><path fill="url(#a)" d="M160 172H32c-6.6 0-12-5.4-12-12V32c0-6.6 5.4-12 12-12h128c6.6 0 12 5.4 12 12v128c0 6.6-5.4 12-12 12z"/></svg>