<svg xmlns="http://www.w3.org/2000/svg" width="192" height="192"><switch><g><path fill="#00247D" d="M172 160V32c0-6.6-5.4-12-12-12H32c-6.6 0-12 5.4-12 12v128c0 6.6 5.4 12 12 12h128c6.6 0 12-5.4 12-12z"/><path fill="#FFF" d="M141.4 74.8l-4.6 3.3 1.7 5.4-4.6-3.3-4.6 3.3 1.7-5.4-4.6-3.3h5.6l1.7-5.4 1.7 5.4h6zm14.4 20l4.1-2.9h-5l-1.5-4.8-1.5 4.8h-5l4.1 2.9-1.5 4.8 4.1-2.9 4.1 2.9-1.9-4.8zm-42.5 2.7l-1.7-5.4-1.7 5.4h-5.6l4.6 3.3-1.7 5.4 4.6-3.3 4.6 3.3-1.7-5.4 4.6-3.3h-6zm23.8 39.2l5.1-3.7H136l-2-6-1.9 5.9h-6.2l5.1 3.7-1.9 5.9 5.1-3.7 5.1 3.7-2.2-5.8z"/><path fill="#CC142B" d="M129.1 75.6h3.7l1.1-3.5 1.1 3.5h3.7l-3 2.2 1.1 3.5-3-2.2-3 2.2 1.1-3.5-2.8-2.2zm25.8 18.9l2.5-1.8h-3.1l-1-2.9-1 2.9h-3.1l2.5 1.8-1 2.9 2.5-1.8 2.5 1.8-.8-2.9zm-42.2 3.8l-1.1-3.5-1.1 3.5h-3.7l3 2.2-1.1 3.5 3-2.2 3 2.2-1.1-3.5 3-2.2h-3.9zm22.7 35.5l-1.3-4.1-1.3 4.1h-4.3l3.5 2.6-1.3 4.1 3.5-2.6 3.5 2.6-1.3-4.1 3.5-2.6h-4.5z"/><path fill="#00247D" d="M96 20H32c-6.6 0-12 5.4-12 12v64h76V20z"/><path fill="#FFF" d="M96 20H79L32.7 43.15V20H32c-6.6 0-12 5.4-12 12v64h12.7V72.85L79 96h17v-8.5L62.4 70.7H96V45.3H62.4L96 28.5V20z"/><path fill="#CC142B" d="M45.4 70.7h11.3L96 90.35V96L45.4 70.7zM96 20H84.69L34.02 45.3H45.4L96 20zM27.6 65.6H96V50.4H27.6V20.85C23.16 22.62 20 26.95 20 32v64h7.6V65.6z"/><g><path fill="none" d="M172 160V32c0-6.6-5.4-12-12-12H32c-6.6 0-12 5.4-12 12v128c0 6.6 5.4 12 12 12h128c6.6 0 12-5.4 12-12z" opacity=".4"/><path fill="none" d="M0 0v192h192V0H0z"/><path fill="#DFDFDF" d="M160 20c6.6 0 12 5.4 12 12v128c0 6.6-5.4 12-12 12H32c-6.6 0-12-5.4-12-12V32c0-6.6 5.4-12 12-12h128m0-8H32c-11.03 0-20 8.97-20 20v128c0 11.03 8.97 20 20 20h128c11.03 0 20-8.97 20-20V32c0-11.03-8.97-20-20-20z"/><path fill="#FFF" fill-opacity=".2" d="M160 20H32c-6.6 0-12 5.4-12 12v1c0-6.6 5.4-12 12-12h128c6.6 0 12 5.4 12 12v-1c0-6.6-5.4-12-12-12z"/><path fill="#212121" fill-opacity=".1" d="M160 172H32c-6.6 0-12-5.4-12-12v-1c0 6.6 5.4 12 12 12h128c6.6 0 12-5.4 12-12v1c0 6.6-5.4 12-12 12z"/><radialGradient id="a" cx="23.768" cy="23.933" r="204.625" gradientUnits="userSpaceOnUse"><stop offset="0" stop-color="#fff" stop-opacity=".1"/><stop offset="1" stop-color="#fff" stop-opacity="0"/></radialGradient><path fill="url(#a)" d="M160 172H32c-6.6 0-12-5.4-12-12V32c0-6.6 5.4-12 12-12h128c6.6 0 12 5.4 12 12v128c0 6.6-5.4 12-12 12z"/></g></g></switch></svg>