<svg xmlns="http://www.w3.org/2000/svg" width="192" height="192"><path fill="#CE1126" d="M172 160V32c0-6.6-5.4-12-12-12H32c-6.6 0-12 5.4-12 12v128c0 6.6 5.4 12 12 12h128c6.6 0 12-5.4 12-12z"/><path fill="#FFF" d="M20 58h152v76H20z"/><path fill="#FF9C10" d="M103.42 74.46c-.04-.43 0-1.15-.77-1.21-.86.05-1.15.02-2-.08l2.73-9.44c.07.02.14.04.21.05.67.18 1.34.38 1.99.61 1.23.41 2.46.84 3.65 1.35.64.29 1.27.6 1.88.93-2.56 4.53-5.13 9.06-7.7 13.59.01-1.93.01-3.87.01-5.8zm-22.89-7.59c1.87 3.81 6.55 13.21 6.55 13.21s.08-13.65 1.31-14.38l-.92-1.67c-2.43.67-4.76 1.63-6.94 2.84zm1.55 13.98c0 .82-.71.65-.72 1.29 0 .53.74.55.74.55l5.24 5.02.02-5.36-9.1-14.1c-2.1 1.4-4.04 3.04-5.77 4.89l4.22 4.63c.15-.57 1.42-.66 2.71-.57 1.29.09 2.32-.09 2.32.83 0 .91-.66.78-.66 1.42.02.63 1 .58 1 1.4zm43 .33a33.052 33.052 0 00-4.28-6.56c-2.05 1.55-4.11 3.1-6.16 4.66.01.45.46.8.59 1.24.29.61-.29 1.15-.64 1.58-.29.4.33.6.54.84.46.47.06 1.2-.43 1.47.59.35.88 1.01 1.01 1.65 3.12-1.64 6.25-3.26 9.37-4.88zm3.43 12.37l-13.08.97.09 7.02h12.71c.25-1.69.39-3.41.39-5.17 0-.94-.04-1.88-.11-2.82zM115.88 76.2c1.11-1.12 2.23-2.24 3.33-3.37a33.082 33.082 0 00-6.27-5.1c-3.17 4.87-6.34 9.74-9.5 14.61 0 1.88-.01 3.77-.01 5.65 2.13-2.02 4.26-4.03 6.38-6.06.4-.57-1.28-.85-.44-1.54.76-.24.89-1.47.09-1.7-.66-.97.6-1.48 1.39-1.38 1.1.05 2.24-.24 3.32.07.58.57 1.13-.86 1.71-1.18zm-50.16 7.68c-.96 2.44-1.64 5.02-2.01 7.71l11.57 1.11-.09-5.11-9.47-3.71zm10.61-1.8c.02-.55-.98-.62-.99-1.18-.06-.6.77-1.25.77-1.25l-5.3-4.57a33.493 33.493 0 00-4.22 6.78l8.32 3.99 1.36-1.4s-.87-.6-.83-1.14c.01-.55.87-.63.89-1.23zm-12.95 14.3c0 1.73.13 3.43.37 5.08l11.34.09v-7.21l-11.62-.55c-.06.85-.09 1.72-.09 2.59zm17.9-11.52c-.09.73.55.64.55.64v3.65l5.52 2.81.05-2.92c-2.07-1.41-6.09-5.7-6.12-4.18zm22.15 7.89l5.26-.23.09-2.1-5.35 2.33zm0-1.14l5.45-2.55v-3.47s.58-.71.58-1.62c-1.06.82-6.05 5.27-6.05 5.27l.02 2.37zm-16.08.34zm-5.52.48l5.54.16-5.54-2.35v2.19zm46.27-1.02zm-12.48 1.48l12.48-1.48c-.16-1.14-.32-2.28-.58-3.4-.35-1.5-.81-2.97-1.35-4.41-.04-.11-.1-.2-.14-.31l-10.5 4.39.09 5.21z"/><path fill="#083D9C" d="M109.01 126.7l.37.25A31.739 31.739 0 0196 129.89c-4.85 0-9.45-1.09-13.59-3.04 1.22-.94 3.55-2.45 5.92-2.59H88.67c1.99 0 3.18.87 4.23 1.64.78.57 1.46 1.07 2.36 1.15 1.02.09 2.02-.52 3.09-1.17 1.14-.69 2.42-1.47 3.96-1.53h.2c2.91.01 6.35 2.26 6.5 2.35zm17.97-22.93c-.02.02-2.11 2.24-4.05 2.16-.74-.03-1.59-.53-2.48-1.06-1.13-.67-2.42-1.42-3.84-1.42-.44 0-.87.07-1.29.21l-.24.08-.01.25a9.868 9.868 0 01-.8 3.33l-.25.52h12.64c.42-1.19.78-2.42 1.07-3.67l-.39-.81-.36.41zm-50.02 4.08l-.25-.52c-.01-.02-.71-1.51-.8-3.33l-.01-.25-.24-.08c-.42-.14-.85-.21-1.29-.21-1.42 0-2.71.75-3.84 1.42-.89.53-1.74 1.02-2.48 1.06-1.57.07-3.26-1.39-3.84-1.95.3 1.32.67 2.62 1.12 3.87h11.05l.58-.01zm42.43 1.96c-.96.56-1.94 1.13-2.89 1.09-1.29-.06-1.55-.29-1.9-.61-.19-.17-.41-.37-.77-.56l-.33-.18-.17.34c-.42.84-1.95 1.86-2.5 2.18l-1.17.68h14.82c.42-.78.82-1.57 1.18-2.38-.91-.84-2.05-1.67-3.1-1.71-1.09-.06-2.15.56-3.17 1.15zm-14.08 9.85c-.55.43-1.07.84-2.46.96-1.63.14-2.6-.38-3.64-.92-.98-.51-1.99-1.04-3.54-1-1.71.05-3.04.63-4.22 1.14-.98.42-1.9.83-2.9.87-1.15.04-2.48-.57-3.78-1.17-1.2-.55-2.34-1.06-3.24-1.02-1.51.08-6.02 1.89-7.61 2.54.76.71 1.54 1.39 2.36 2.03h39.42c.47-.37.93-.74 1.37-1.13-1.2-1.05-4.23-3.36-7.73-3.43-2.52-.07-3.29.54-4.03 1.13zm16.82-3.21c-.79-1.36-3.43-3.01-5.92-3.22h-.04c-1.46.05-2.65.8-3.8 1.53-.95.6-1.85 1.17-2.76 1.21h-.09c-.9 0-1.91-.57-2.97-1.17-1.2-.68-2.44-1.38-3.73-1.38h-.13c-1.26.05-2.51.69-3.73 1.32-1.19.61-2.41 1.24-3.55 1.24-1.03 0-1.97-.56-2.97-1.15-1.18-.7-2.51-1.49-4.23-1.49-1.7 0-2.92.85-3.99 1.59-.94.66-1.75 1.22-2.72 1.15-1.03-.08-2.07-.76-3.07-1.42-1.12-.74-2.27-1.5-3.51-1.5-1.42 0-3.29 1.18-4.78 2.12-.24.15-.51.32-.76.47.56.81 1.15 1.58 1.77 2.33h49.74c.41-.54.83-1.08 1.24-1.63zm-20.61-3.71l.27-.32-.09-.23c-.22-.52-2.76-3.65-5.85-3.65-.13 0-.26.01-.36.02-3.53.09-6.25 3.24-6.24 3.81l.01.37h12.26zm-2.8-5.24c0-.03.03-.76-.57-1.39-.57-.6-1.5-.91-2.75-.91s-2.16.28-2.7.84c-.37.38-.54.86-.53 1.45v.37h6.53l.02-.36zm-18.73 4.57c-.55-.32-2.08-1.34-2.5-2.18l-.17-.34-.33.18c-.37.2-.58.39-.77.56-.35.32-.61.55-1.9.61-.95.04-1.93-.53-2.89-1.09-1.02-.59-2.07-1.21-3.16-1.15-.73.03-1.51.45-2.23.99.45 1.07.95 2.11 1.5 3.11h13.63l-1.18-.69z"/><path fill="#CE1126" d="M89.49 88.78l-.09-21.26c0-2.62 2.22-5.11 11.82-3.74-9.78.73-5.17 11.4.37 11.13v17.06l-12.1-3.19zm-8.62 15.44c-.49-.14-.2-18.54-.2-18.54s-.79-.35-.82-.92c-.04-.57 1.07-.62 1.07-1.36 0-.73-1.13-.44-1.15-1.18 0-.7 1.2-.61 1.15-1.26-.06-.73-1.34-.62-1.4-1.3-.04-.54.92-1 1.18-1.25-.17.01-.89-.01-.89-.01-.67.01-1.34.03-2.01.04-1.43 0 .02.31 0 1.12-.01.53-.73.89-.79 1.35-.02.48 1.02.81 1.03 1.38.01.51-1.02.54-.99 1.02.06.8.92.98.9 1.46-.01.48-1.15.67-1.15 1.06.04.75.16 18.93.16 18.93 1.81 9.26 12.25 11.62 15.21-.57-2.62 4.32-9.65 3.04-11.3.03zm32.41-19.43c-.01-.49.84-.66.9-1.46.04-.47-1-.51-.99-1.02.01-.57 1.06-.91 1.03-1.38-.06-.46-.78-.82-.79-1.35-.02-.82 1.43-1.12 0-1.12-.67-.01-1.34-.03-2.01-.04 0 0-.68.02-.85.01.27.24.85.6.81 1.18-.05.68-.92.59-.98 1.32-.05.65 1.05.6 1.06 1.3-.02.74-1.08.45-1.08 1.18s1.04.78 1 1.36c-.04.57-.82.92-.82.92s.29 18.41-.2 18.54c-1.64 3.01-8.68 4.28-11.31-.02 2.96 12.18 13.4 9.83 15.21.57 0 0 .12-18.18.16-18.93.01-.39-1.13-.58-1.14-1.06zM99.06 104.2z"/><path fill="#630810" d="M89.4 89.13l12.09 3.19c.03.01.06.01.09.01a.37.37 0 00.36-.37V74.91c0-.1-.04-.2-.11-.27a.378.378 0 00-.27-.1h-.19c-2.92 0-5.4-3.22-5.5-5.89-.1-2.6 1.86-4.25 5.36-4.51.19-.01.33-.17.34-.35a.37.37 0 00-.32-.38c-1.82-.26-3.47-.39-4.88-.39-6.08 0-7.35 2.44-7.35 4.5l.09 21.26c.01.17.13.31.29.35zm9.38-25.26c-2.4.79-3.72 2.49-3.64 4.81.11 3.01 2.77 6.49 6.07 6.6V91.5l-11.36-3-.09-20.97c.01-2.92 3.04-4.17 9.02-3.66zm-6.46 39.99a.354.354 0 00-.45.15c-1.01 1.65-2.88 2.6-5.13 2.6-2.4 0-4.73-1.08-5.54-2.56-.01-.02-.02-.03-.03-.05-.29-1.04-.23-11.73-.12-18.31a.36.36 0 00-.22-.34c-.19-.09-.59-.35-.61-.61 0-.06.19-.18.31-.26.3-.19.76-.49.76-1.07 0-.62-.5-.81-.8-.93-.31-.12-.35-.16-.35-.25 0-.11.1-.18.4-.33.32-.16.8-.39.75-.97-.05-.59-.56-.82-.94-.98-.27-.12-.45-.21-.46-.31-.01-.19.52-.56.73-.7.14-.09.25-.17.34-.25.11-.1.15-.27.09-.41a.386.386 0 00-.36-.23c-.15.01-.76-.01-.85-.01h-.04l-2.01.04c-.43 0-.84 0-.97.32-.11.28.1.49.26.64.16.15.35.33.34.52 0 .15-.17.33-.32.51-.2.22-.42.47-.47.83-.02.41.32.69.61.94.18.15.42.34.42.46-.03.05-.22.15-.32.2-.28.15-.71.37-.67.85.05.58.4.91.66 1.15.1.09.24.22.24.25-.04.08-.3.22-.44.29-.34.18-.71.39-.72.81.04.73.16 18.73.16 18.91 0 .02 0 .05.01.07.93 4.75 4.19 8.07 7.93 8.07 3.69 0 6.68-3.22 7.99-8.62.08-.17-.02-.35-.18-.42zm-7.78 8.31c-3.38 0-6.34-3.06-7.2-7.44-.01-1.11-.12-17.57-.16-18.83.07-.06.22-.14.33-.2.36-.19.8-.44.82-.9.01-.39-.26-.63-.48-.83-.21-.19-.39-.36-.43-.64.05-.05.19-.12.28-.16.29-.15.72-.37.71-.86-.01-.46-.39-.77-.69-1.02-.12-.1-.31-.25-.34-.33.03-.1.16-.25.28-.38.22-.25.5-.56.51-.98.01-.32-.13-.57-.28-.77l1.73-.03c-.27.25-.48.55-.46.92.04.55.53.77.89.93.35.15.49.24.51.37.01.06-.1.13-.34.25-.32.16-.81.4-.81.99.02.61.52.81.82.92.32.13.33.16.33.25 0 .17-.14.27-.42.46-.29.18-.68.44-.65.92.04.56.52.93.82 1.11-.01.98-.07 5.01-.08 9-.02 7.83.12 9.26.37 9.57.98 1.69 3.49 2.87 6.14 2.87 1.83 0 3.43-.57 4.62-1.6-1.39 4.04-3.86 6.41-6.82 6.41zm29.54-27.12c-.14-.08-.4-.22-.43-.28 0-.05.14-.18.24-.27.26-.24.62-.57.66-1.15.04-.48-.39-.7-.67-.85-.1-.05-.29-.15-.31-.19 0-.13.24-.33.42-.47.3-.24.63-.52.61-.97-.04-.33-.27-.58-.46-.8-.16-.18-.32-.36-.32-.51-.01-.2.19-.38.34-.52.16-.15.37-.35.26-.64-.13-.32-.54-.32-.96-.32l-2.01-.04h-.04c-.08 0-.65.02-.8.01-.15-.01-.3.08-.36.23a.37.37 0 00.09.41l.17.14c.31.25.54.46.52.73-.01.14-.08.2-.31.35-.26.18-.62.42-.67.97-.05.55.39.81.68.98.28.16.37.23.37.35 0 .11-.03.14-.32.26-.28.12-.76.32-.76.93 0 .58.43.87.71 1.07.14.09.29.2.29.26-.02.26-.42.52-.61.61-.13.06-.22.19-.22.34.1 6.58.16 17.27-.13 18.31-.01.02-.02.03-.03.05-.81 1.48-3.14 2.56-5.54 2.56-2.25 0-4.12-.95-5.13-2.6-.09-.15-.29-.22-.45-.15-.17.07-.26.25-.22.43 1.31 5.4 4.3 8.62 7.99 8.62 3.74 0 7-3.32 7.93-8.07 0-.02.01-.05.01-.07 0-.18.13-18.18.16-18.93.01-.39-.37-.6-.7-.78zm-.18 19.68c-.87 4.38-3.83 7.44-7.2 7.44-2.96 0-5.43-2.37-6.81-6.43 1.18 1.03 2.79 1.6 4.62 1.6 2.66 0 5.16-1.18 6.14-2.87.26-.32.39-1.75.37-9.57-.01-4-.07-8.02-.08-9 .3-.18.78-.55.82-1.11.03-.48-.34-.73-.61-.92-.27-.19-.39-.29-.39-.46 0-.1.01-.13.31-.25.28-.12.75-.32.77-.93 0-.56-.45-.82-.74-.99-.27-.15-.33-.21-.32-.28.02-.18.1-.25.35-.42.25-.17.6-.4.64-.91.02-.34-.1-.62-.27-.85l1.86.04c-.16.2-.29.45-.28.77.01.42.29.73.51.98.12.13.24.28.28.38-.04.08-.23.24-.34.33-.3.25-.68.56-.69 1.02-.01.49.42.71.71.86.09.04.23.12.28.16-.03.28-.22.45-.43.64-.22.2-.49.45-.48.83.01.47.46.71.82.9.11.06.26.14.33.2-.05 1.44-.16 17.74-.17 18.84zm-26.52-2.45l.12-.07 4.9-.12-.4.79c-.72 1.42-1.71 2.04-2.75 2.6l-.12.06H83.8l.67-.86c.96-1.24 2.83-2.35 2.91-2.4zm19.05 2.41l.67.86h-4.99l-.24-.13c-.98-.53-1.98-1.07-2.68-2.44l-.39-.77h4.6l.13.07c.06.05 1.93 1.16 2.9 2.41zm-25.13-3.6c0-.29.24-.53.53-.53h27.32c.29 0 .53.24.53.53 0 .29-.24.53-.53.53H81.83c-.29 0-.53-.23-.53-.53zm1.41-2.43l1.43-1.71-1.45-1.92a.526.526 0 01.1-.74c.23-.18.57-.13.74.1l.85 1.13.04-1.11c.01-.29.25-.52.55-.51.29.01.52.26.51.55l-.03.91.76-.9c.19-.22.52-.25.75-.07.22.19.25.52.07.75l-1.54 1.84 1.28 1.7c.18.23.13.57-.1.74-.1.07-.21.11-.32.11-.16 0-.32-.07-.42-.21l-1.13-1.5-1.27 1.52a.543.543 0 01-.75.07.547.547 0 01-.07-.75zm5.17 0l1.43-1.71-1.45-1.92a.526.526 0 01.1-.74c.23-.18.57-.13.74.1l.85 1.13.04-1.11c.01-.29.25-.52.55-.51.29.01.52.26.51.55l-.03.91.76-.9c.19-.22.52-.25.75-.07.22.19.25.52.07.75l-1.54 1.84 1.28 1.7c.18.23.13.57-.1.74-.1.07-.21.11-.32.11-.16 0-.32-.07-.42-.21l-1.13-1.5-1.27 1.52a.543.543 0 01-.75.07.547.547 0 01-.07-.75zm9.59-3.52l-1.54 1.84 1.28 1.7c.18.23.13.57-.1.74-.1.07-.21.11-.32.11-.16 0-.32-.07-.42-.21l-1.13-1.5-1.27 1.52a.543.543 0 01-.75.07.546.546 0 01-.07-.75l1.43-1.71-1.45-1.92a.526.526 0 01.1-.74c.23-.18.57-.13.74.1l.85 1.13.04-1.11c.01-.29.26-.52.55-.51.29.01.52.26.51.55l-.03.91.76-.9c.19-.22.52-.25.75-.07.23.19.26.53.07.75zm3.87.23l.76-.9c.19-.22.52-.25.75-.07.22.19.25.52.07.75l-1.54 1.84 1.28 1.7c.18.23.13.57-.1.74-.1.07-.21.11-.32.11-.16 0-.32-.07-.42-.21l-1.13-1.5-1.27 1.52a.543.543 0 01-.75.07.546.546 0 01-.07-.75l1.43-1.71-1.45-1.92a.526.526 0 01.1-.74c.23-.18.57-.13.74.1l.85 1.13.04-1.11c.01-.29.25-.52.55-.51.29.01.52.26.51.55l-.03.91zm2.51 3.29l1.43-1.71-1.45-1.92a.526.526 0 01.1-.74c.23-.18.57-.13.74.1l.85 1.13.04-1.11c.01-.29.26-.53.55-.51.29.01.52.26.51.55l-.03.91.76-.9c.19-.22.52-.25.75-.07.22.19.25.52.07.75l-1.54 1.84 1.28 1.7c.18.23.13.57-.1.74-.1.07-.21.11-.32.11-.16 0-.32-.07-.42-.21l-1.13-1.5-1.27 1.52a.543.543 0 01-.75.07.547.547 0 01-.07-.75z"/><g><path fill="none" d="M172 160V32c0-6.6-5.4-12-12-12H32c-6.6 0-12 5.4-12 12v128c0 6.6 5.4 12 12 12h128c6.6 0 12-5.4 12-12z" opacity=".4"/><path fill="none" d="M0 0v192h192V0H0z"/><path fill="#DFDFDF" d="M160 20c6.6 0 12 5.4 12 12v128c0 6.6-5.4 12-12 12H32c-6.6 0-12-5.4-12-12V32c0-6.6 5.4-12 12-12h128m0-8H32c-11.03 0-20 8.97-20 20v128c0 11.03 8.97 20 20 20h128c11.03 0 20-8.97 20-20V32c0-11.03-8.97-20-20-20z"/><path fill="#FFF" fill-opacity=".2" d="M160 20H32c-6.6 0-12 5.4-12 12v1c0-6.6 5.4-12 12-12h128c6.6 0 12 5.4 12 12v-1c0-6.6-5.4-12-12-12z"/><path fill="#212121" fill-opacity=".1" d="M160 172H32c-6.6 0-12-5.4-12-12v-1c0 6.6 5.4 12 12 12h128c6.6 0 12-5.4 12-12v1c0 6.6-5.4 12-12 12z"/><radialGradient id="a" cx="23.768" cy="23.933" r="204.625" gradientUnits="userSpaceOnUse"><stop offset="0" stop-color="#fff" stop-opacity=".1"/><stop offset="1" stop-color="#fff" stop-opacity="0"/></radialGradient><path fill="url(#a)" d="M160 172H32c-6.6 0-12-5.4-12-12V32c0-6.6 5.4-12 12-12h128c6.6 0 12 5.4 12 12v128c0 6.6-5.4 12-12 12z"/></g></svg>