<svg xmlns="http://www.w3.org/2000/svg" width="192" height="192"><path d="M23.7 23.4C21.4 25.6 20 28.6 20 32v128c0 6.6 5.4 12 12 12h128c3.3 0 6.3-1.4 8.5-3.5L23.7 23.4z"/><path fill="#CE1126" d="M172 160V32c0-6.6-5.4-12-12-12H32c-3.2 0-6.1 1.3-8.3 3.4l144.8 145.1c2.2-2.2 3.5-5.2 3.5-8.5z"/><path fill="#FCD116" d="M109.2 62.5c-1.2 1.6-4.2-1.6-7.7-1.7-3.5-.1-6 3.4-7 4.5-1 1.2-4.3 7.3-4.3 8s2.1-1.8 2.8-2.3c.1.9-.8 1.9-.6 2.2s2.6-1.8 3.4-1.8c.2.6-.4 1.2-.2 2.1.3.3 1.6-1.5 2.5-1.8.1.7-.8 1.9-.3 2.7.4.1 2.6-2.5 3.3-2.8s-.4 2.4 0 2.6c.7-.4 2.7-2.8 3.4-3.1s-.1 3 .2 3c.8-.6 2.9-3.4 3.1-3.8.2-.4-.2 4.3 2.1 6.7 2.3 2.5 5.7 5.4 6.1 5.4.4-.8-.1-2.5.2-2.4 1 1.1 2.9 2.7 3.4 2.7s-.3-1.8.3-1.8c1.2 1.1 4.5 5.4 11.1 7.4-.4-1.2-1.4-2.3-1.5-2.9.4.1 2 .8 2.3.7s-3.2-4.4-3-5c.8-.1 1.2.4 1.5.1-.4-.6-3.4-4-3.4-4.8s1 .1 1.2 0c.3-.1-1.2-3.2-.9-3.6.3-.4 3.5 2 4.3 2s.2-2.9.6-3c.4-.1 3.1 1.5 3.7 1.5s.5-1.2.7-1.1 6.6 6.5 4.4 14c-2.2 5.4-6.6 8.2-13 5.9.4.6 3.8 3.4 7.6 2.4 3.7-1 8.3-4 7.8-11.3s-2.9-8.4-3.3-9.5c-.4-1.1.6.3 1.4.6.8.3-.1-1.5-.4-2.3-.2-.8 2.4 1.7 3.1 1.9.7.2-1.5-6-2.2-6.5-.7-.4.7.1 1.1.3.4.1-4-6.8-5-6.8s.8-.4 1.3-.4-5.1-4.5-6.1-4.5 2.1-1.2 2.3-1.2c.5.1-6.5-3.7-12.8.1-.4-.3 3-2.6 3.1-3.6 0-.3-1.1-.8-1.2-1.1-.1-.3 1.8-1.2 1.8-1.8-.4-.6-1.2-.4-1.7-.5-.1-.5 1.5-1.9 1.4-2.5-.1-.3-1.3-.4-1.6-.2s.8-1.5.6-2.1c-.1-.2-.7-.1-1.3.1-.4-.1 1.9-3.2 1.5-3.7-.4-.4-6.6 3.2-8.9 7.3-2.3 4.1-.5 7.4-.8 8.8-.3 1.4-.7 2.8-1.6 2.8-1 0-3.2-1.5-3.9-2.2s-.9-1.2-1.9-1.5-3.4.6-4.3.7-4.3-.7-4.5-.4c-.2.2 3.4 1.5 4.2 2 .8.4.9 1 1.5 1.4.4.2 5.9 1.8 4.1 4.1zm21.5 10.4c1.8 1.8 13.6 9.7 13.6 19.4s-8.7 9.4-11.1 9.1c2.8 2.3 13.3 1.9 13.3-9.1 0-9.7-13.6-19.4-15.4-20.2-1.7-1-2.2-1-.4.8z"/><path fill="#FFF" d="M75.6 132.8l-2.3-1.8-2.3 1.7.9-2.8-2.4-1.8h2.9l.9-2.9.9 2.9h2.9l-2.3 1.8.8 2.9zm-7.4-39.4l4.7-3.5h-5.7l-1.8-5.8-1.8 5.8h-5.8l4.7 3.6-1.8 5.5 4.6-3.4 4.7 3.6-1.8-5.8zm-17.8 22.8l4.7-3.5h-5.7l-1.8-5.8-1.8 5.8H40l4.7 3.5-1.8 5.6 4.6-3.4 4.7 3.5-1.8-5.7zm35.6-1.6l4.7-3.5h-5.8l-1.8-5.9-1.8 5.9h-5.8l4.7 3.5-1.7 5.5 4.5-3.3 4.7 3.5-1.7-5.7zm-17.8 32.3l4.7-3.5h-5.7l-1.8-5.8-1.8 5.8h-5.8l4.7 3.6-1.8 5.5 4.6-3.4 4.7 3.6-1.8-5.8z"/><path fill="none" d="M172 160V32c0-6.6-5.4-12-12-12H32c-6.6 0-12 5.4-12 12v128c0 6.6 5.4 12 12 12h128c6.6 0 12-5.4 12-12z" opacity=".4"/><path fill="none" d="M0 0v192h192V0H0z"/><path fill="#DFDFDF" d="M160 20c6.6 0 12 5.4 12 12v128c0 6.6-5.4 12-12 12H32c-6.6 0-12-5.4-12-12V32c0-6.6 5.4-12 12-12h128m0-8H32c-11.03 0-20 8.97-20 20v128c0 11.03 8.97 20 20 20h128c11.03 0 20-8.97 20-20V32c0-11.03-8.97-20-20-20z"/><path fill="#FFF" fill-opacity=".2" d="M160 20H32c-6.6 0-12 5.4-12 12v1c0-6.6 5.4-12 12-12h128c6.6 0 12 5.4 12 12v-1c0-6.6-5.4-12-12-12z"/><path fill="#212121" fill-opacity=".1" d="M160 172H32c-6.6 0-12-5.4-12-12v-1c0 6.6 5.4 12 12 12h128c6.6 0 12-5.4 12-12v1c0 6.6-5.4 12-12 12z"/><radialGradient id="a" cx="23.768" cy="23.933" r="204.625" gradientUnits="userSpaceOnUse"><stop offset="0" stop-color="#fff" stop-opacity=".1"/><stop offset="1" stop-color="#fff" stop-opacity="0"/></radialGradient><path fill="url(#a)" d="M160 172H32c-6.6 0-12-5.4-12-12V32c0-6.6 5.4-12 12-12h128c6.6 0 12 5.4 12 12v128c0 6.6-5.4 12-12 12z"/></svg>