<svg xmlns="http://www.w3.org/2000/svg" width="192" height="192"><path fill="#0038A8" d="M172 160V32c0-6.6-5.4-12-12-12H32c-6.6 0-12 5.4-12 12v128c0 6.6 5.4 12 12 12h128c6.6 0 12-5.4 12-12z"/><path fill="#CE1126" d="M172 160V96H20v64c0 6.6 5.4 12 12 12h128c6.6 0 12-5.4 12-12z"/><path fill="#FFF" d="M23.75 23.32C21.45 25.51 20 28.59 20 32v128c0 3.41 1.45 6.49 3.75 8.68L149.64 96 23.75 23.32z"/><path fill="#FCD116" d="M93.23 94.27L94.96 96l-1.73 1.73-13.09-.86c-.02.29-.05.58-.09.87L92 99.31l-1.41 1.41-10.67-2.12c-.35 1.75-1.03 3.37-1.99 4.8l9.05 6.05v1.99l-9.56-7.33c-.18.23-.36.45-.55.67l9.86 8.65v2.44h-2.44L75.64 106c-.22.19-.44.38-.67.55l7.33 9.56h-1.99l-6.05-9.05c-1.43.96-3.05 1.64-4.8 1.99l2.12 10.67-1.41 1.41-1.57-11.94c-.29.04-.57.07-.87.09l.86 13.09-1.73 1.73-1.73-1.73.87-13.1c-.29-.02-.58-.05-.87-.09l-1.57 11.94-1.41-1.41 2.12-10.67c-1.75-.35-3.37-1.03-4.8-1.99l-6.05 9.05h-1.99l7.33-9.56c-.23-.18-.45-.36-.67-.55l-8.65 9.86H47v-2.44l9.86-8.65c-.19-.22-.38-.44-.55-.67l-9.56 7.33v-1.99l9.05-6.05c-.96-1.43-1.64-3.05-1.99-4.8l-10.67 2.12-1.41-1.41 11.94-1.57c-.04-.29-.07-.57-.09-.87l-13.09.86-1.7-1.71 1.73-1.73 13.09.86c.02-.29.05-.58.09-.87l-11.94-1.57 1.41-1.41 10.67 2.12c.35-1.75 1.03-3.37 1.99-4.8l-9.05-6.05v-1.99l9.56 7.33c.18-.23.36-.45.55-.67l-9.86-8.65v-2.44h2.44L58.1 86c.22-.19.44-.38.67-.55l-7.33-9.56h1.99l6.05 9.05c1.43-.96 3.05-1.64 4.8-1.99l-2.12-10.67 1.41-1.41 1.57 11.94c.29-.04.57-.07.87-.09l-.86-13.09 1.73-1.73 1.73 1.73-.86 13.09c.29.02.58.05.87.09l1.57-11.94 1.41 1.41-2.12 10.67c1.75.35 3.37 1.03 4.8 1.99l6.05-9.05h1.99l-7.33 9.56c.23.18.45.36.67.55l8.65-9.86h2.44v2.44l-9.86 8.65c.19.22.38.44.55.67L87 80.57v1.99l-9.05 6.05c.96 1.43 1.64 3.05 1.99 4.8l10.67-2.12 1.39 1.4-11.94 1.57c.04.29.07.57.09.87l13.08-.86zm29.17-.01l-.11-5.29-3.2 4.22-5.07-1.53 3.02 4.34-3.02 4.34 5.07-1.53 3.2 4.22.11-5.29 5-1.74-5-1.74zm-85.09 47.78l-2.25-4.79-1.21 5.15-5.25.66 4.53 2.74-.99 5.2 4-3.46 4.64 2.55-2.05-4.88 3.86-3.62-5.28.45zM33.85 49.6l1.21 5.15 2.25-4.79 5.27.45-3.86-3.62 2.05-4.88-4.64 2.55-4-3.46.99 5.2-4.53 2.74 5.26.66z"/><path fill="none" d="M172 160V32c0-6.6-5.4-12-12-12H32c-6.6 0-12 5.4-12 12v128c0 6.6 5.4 12 12 12h128c6.6 0 12-5.4 12-12z" opacity=".4"/><path fill="none" d="M0 0v192h192V0H0z"/><path fill="#DFDFDF" d="M160 20c6.6 0 12 5.4 12 12v128c0 6.6-5.4 12-12 12H32c-6.6 0-12-5.4-12-12V32c0-6.6 5.4-12 12-12h128m0-8H32c-11.03 0-20 8.97-20 20v128c0 11.03 8.97 20 20 20h128c11.03 0 20-8.97 20-20V32c0-11.03-8.97-20-20-20z"/><path fill="#FFF" fill-opacity=".2" d="M160 20H32c-6.6 0-12 5.4-12 12v1c0-6.6 5.4-12 12-12h128c6.6 0 12 5.4 12 12v-1c0-6.6-5.4-12-12-12z"/><path fill="#212121" fill-opacity=".1" d="M160 172H32c-6.6 0-12-5.4-12-12v-1c0 6.6 5.4 12 12 12h128c6.6 0 12-5.4 12-12v1c0 6.6-5.4 12-12 12z"/><radialGradient id="a" cx="23.768" cy="23.933" r="204.625" gradientUnits="userSpaceOnUse"><stop offset="0" stop-color="#fff" stop-opacity=".1"/><stop offset="1" stop-color="#fff" stop-opacity="0"/></radialGradient><path fill="url(#a)" d="M160 172H32c-6.6 0-12-5.4-12-12V32c0-6.6 5.4-12 12-12h128c6.6 0 12 5.4 12 12v128c0 6.6-5.4 12-12 12z"/></svg>