<svg xmlns="http://www.w3.org/2000/svg" width="192" height="192"><path fill="#01411C" d="M160 20H52v152h108c6.6 0 12-5.4 12-12V32c0-6.6-5.4-12-12-12z"/><path fill="#FEFEFE" d="M32 20c-6.6 0-12 5.4-12 12v128c0 6.6 5.4 12 12 12h20V20H32zM154 114.2c0 .4-.3.8-.5 1.1-6.2 12-15.9 19.7-29.1 22.3-14 2.8-26.4-.8-37-10.4-6.9-6.4-11.2-14.3-12.6-23.6-2.1-13.4 1.4-25.2 10.5-35.3 4.8-5.3 10.6-9 17.3-11.3.1 0 .2-.1.4 0-.3.3-.6.5-1 .8-7 6.1-11.5 13.7-13 22.9-2 12.6 1.3 23.6 10 32.9 6 6.4 13.5 10.3 22.2 11.5 12.2 1.7 22.9-1.8 32-10.2.3-.2.6-.5.8-.7zM147.2 69c-1.7.7-3.4 1.4-5 2.2-1.4.6-2.7 1.2-4.1 1.8-2.3-2.5-4.5-5-6.8-7.6.3 3.5.7 6.8 1 10.1-3.1 1.4-6.1 2.7-9.3 4.1 3.4.8 6.6 1.5 9.9 2.2.3 3.3.7 6.6 1 9.9h.1c1.6-2.9 3.3-5.7 5-8.6 3.3.7 6.5 1.5 9.9 2.2-2.3-2.6-4.5-5.1-6.7-7.6 1-1.8 2.1-3.6 3.1-5.4.7-1.1 1.4-2.2 1.9-3.3z"/><path fill="none" d="M172 160V32c0-6.6-5.4-12-12-12H32c-6.6 0-12 5.4-12 12v128c0 6.6 5.4 12 12 12h128c6.6 0 12-5.4 12-12z" opacity=".4"/><path fill="none" d="M0 0v192h192V0H0z"/><path fill="#DFDFDF" d="M160 20c6.6 0 12 5.4 12 12v128c0 6.6-5.4 12-12 12H32c-6.6 0-12-5.4-12-12V32c0-6.6 5.4-12 12-12h128m0-8H32c-11.03 0-20 8.97-20 20v128c0 11.03 8.97 20 20 20h128c11.03 0 20-8.97 20-20V32c0-11.03-8.97-20-20-20z"/><path fill="#FFF" fill-opacity=".2" d="M160 20H32c-6.6 0-12 5.4-12 12v1c0-6.6 5.4-12 12-12h128c6.6 0 12 5.4 12 12v-1c0-6.6-5.4-12-12-12z"/><path fill="#212121" fill-opacity=".1" d="M160 172H32c-6.6 0-12-5.4-12-12v-1c0 6.6 5.4 12 12 12h128c6.6 0 12-5.4 12-12v1c0 6.6-5.4 12-12 12z"/><radialGradient id="a" cx="23.768" cy="23.933" r="204.625" gradientUnits="userSpaceOnUse"><stop offset="0" stop-color="#fff" stop-opacity=".1"/><stop offset="1" stop-color="#fff" stop-opacity="0"/></radialGradient><path fill="url(#a)" d="M160 172H32c-6.6 0-12-5.4-12-12V32c0-6.6 5.4-12 12-12h128c6.6 0 12 5.4 12 12v128c0 6.6-5.4 12-12 12z"/></svg>