<svg version="1.1" id="Icon" xmlns="http://www.w3.org/2000/svg" x="0" y="0" width="192" height="192" xml:space="preserve"><style>.st4{fill:none}</style><g id="Flag_1_"><path d="M172 160V32c0-6.6-5.4-12-12-12H32c-6.6 0-12 5.4-12 12v128c0 6.6 5.4 12 12 12h128c6.6 0 12-5.4 12-12z" fill="#007a3d"/><path d="M160 20H32c-6.6 0-12 5.4-12 12v89h152V32c0-6.6-5.4-12-12-12z" fill="#fff"/><path d="M160 20H32c-6.6 0-12 5.4-12 12v39h152V32c0-6.6-5.4-12-12-12z"/><path d="M18 20l101.33 76L18 172V20z" fill="#ce1126"/></g><g id="Material_18_"><path class="st4" d="M172 160V32c0-6.6-5.4-12-12-12H32c-6.6 0-12 5.4-12 12v128c0 6.6 5.4 12 12 12h128c6.6 0 12-5.4 12-12z" id="Icon_Frame" opacity=".4"/><path id="Canvas_Frame" class="st4" d="M0 0v192h192V0H0z"/><path id="Stroke" d="M160 20c6.6 0 12 5.4 12 12v128c0 6.6-5.4 12-12 12H32c-6.6 0-12-5.4-12-12V32c0-6.6 5.4-12 12-12h128m0-8H32c-11.03 0-20 8.97-20 20v128c0 11.03 8.97 20 20 20h128c11.03 0 20-8.97 20-20V32c0-11.03-8.97-20-20-20z" fill="#dfdfdf"/><path id="Top_Edge_23_" d="M160 20H32c-6.6 0-12 5.4-12 12v1c0-6.6 5.4-12 12-12h128c6.6 0 12 5.4 12 12v-1c0-6.6-5.4-12-12-12z" fill="#fff" fill-opacity=".2"/><path id="Bottom_Edge_23_" d="M160 172H32c-6.6 0-12-5.4-12-12v-1c0 6.6 5.4 12 12 12h128c6.6 0 12-5.4 12-12v1c0 6.6-5.4 12-12 12z" fill="#212121" fill-opacity=".1"/><g id="Finish_29_"><radialGradient id="SVGID_1_" cx="23.768" cy="23.933" r="204.625" gradientUnits="userSpaceOnUse"><stop offset="0" stop-color="#fff" stop-opacity=".1"/><stop offset="1" stop-color="#fff" stop-opacity="0"/></radialGradient><path d="M160 172H32c-6.6 0-12-5.4-12-12V32c0-6.6 5.4-12 12-12h128c6.6 0 12 5.4 12 12v128c0 6.6-5.4 12-12 12z" fill="url(#SVGID_1_)"/></g></g></svg>