<svg xmlns="http://www.w3.org/2000/svg" width="192" height="192"><path fill="red" d="M172 160V32c0-6.6-5.4-12-12-12H32c-6.6 0-12 5.4-12 12v128c0 6.6 5.4 12 12 12h128c6.6 0 12-5.4 12-12z"/><path fill="#060" d="M32 20c-6.6 0-12 5.4-12 12v128c0 6.6 5.4 12 12 12h41V20H32z"/><path fill="#FF0" d="M111.36 94.37v-.06a.09.09 0 00-.03-.07c-.14-.17-.32-.33-.5-.49-.3-4.94-1.55-9.62-3.57-13.87.18-.09.3-.17.36-.23.01 0 .02 0 .03-.01.02-.02.03-.05.03-.09 0-.01 0-.03-.01-.04l-.62-1.09c-.11-.12-.31-.25-.58-.4l-.64-1.11c.1-.06.19-.12.25-.17.01 0 .02 0 .03-.01.04-.03.06-.1.03-.14l-.88-1.4-.03-.03c-.28-.21-.65-.42-1.09-.64-6.44-9.24-16.9-15.47-28.82-16.15v-.54c0-.06-.05-.11-.11-.11h-.82c-.03 0-.06.01-.08.03-.02.02-.03.05-.03.08v.32h-2.16v-.32c0-.06-.05-.11-.11-.11h-.83c-.06 0-.11.05-.11.11v.53c-11.83.64-22.23 6.77-28.69 15.88-.5.03-.89.14-1.15.33l-.03.03-.03.05-.01.01-.45.79-.07.13c-.09.25-.06.55.08.89l-1.84 3.41c-.15.03-.27.07-.38.13-.04 0-.08.01-.1.05l-.43.77c-.14.22-.17.49-.1.81.04.16.11.33.2.51a37.51 37.51 0 00-2.56 11.38c-.28.25-.47.49-.54.71 0 .01-.01.02-.01.04v1.04c0 .04.02.07.05.09.1.06.22.12.36.19v1.27c-.21.2-.35.4-.41.59 0 .01-.01.02-.01.03v1.04c0 .04.02.07.05.09.13.08.31.17.52.27.38 5.02 1.75 9.77 3.91 14.06-.15.18-.24.36-.25.54 0 .02 0 .04.01.06l.44.78c.01.02.03.04.05.04l.01.01c.12.04.25.08.38.12l.91 1.49c-.09.12-.14.24-.16.34v.02c0 .01 0 .02.01.03v.02l.45.77c.01.02.03.03.05.04.27.12.56.24.86.36 6.45 9.23 16.92 15.45 28.85 16.1v.59c0 .06.05.11.11.11h.84c.06 0 .11-.05.11-.11 0-.01 0-.02-.01-.03v-.3h2.16v.33c0 .06.05.11.11.11h.83c.06 0 .11-.05.11-.11 0-.01 0-.02-.01-.03v-.56c10.77-.61 20.35-5.76 26.85-13.56.13.01.23.02.32.02.27 0 .56-.04.75-.31l.01-.01c.01-.01.02-.02.02-.03l.46-.73c.11-.16.13-.36.08-.6-.01-.03-.03-.07-.04-.11l2.14-3.32c.05 0 .1.01.15.01.21 0 .36-.04.46-.12.01-.01.02-.02.02-.03l.06-.1c.02-.04.04-.07.06-.11l.45-.68c.02-.02.04-.04.04-.07.15-.32.09-.75-.15-1.26 2.07-4.18 3.38-8.8 3.77-13.68.23-.14.4-.28.52-.4.03-.02.05-.05.05-.09v-.01-.98a.09.09 0 00-.03-.07c-.12-.14-.25-.27-.4-.4V95.7c.16-.11.29-.21.38-.32.03-.02.05-.05.05-.09v-.01-.01l.05-.9z"/><path fill="#FFF" d="M50.63 100.18c0 6.18 2.53 11.78 6.63 15.86 4.11 4.1 9.69 6.68 15.89 6.68 6.22 0 11.88-2.53 15.97-6.61s6.63-9.71 6.63-15.91V70.06H50.62l.01 30.12z"/><path fill="red" d="M51.47 100.23v.02c0 5.91 2.45 11.29 6.37 15.2 3.93 3.91 9.35 6.35 15.28 6.35 5.96 0 11.37-2.42 15.28-6.32 3.92-3.9 6.35-9.28 6.35-15.22v-29.2H51.5l-.03 29.17M86.06 79.8v18.58l-.02 1.96c0 .52-.03 1.11-.09 1.61-.35 2.94-1.7 5.5-3.7 7.49a12.919 12.919 0 01-9.14 3.78c-3.55 0-6.7-1.5-9.06-3.84-2.41-2.4-3.81-5.7-3.81-9.1V79.8h25.82z"/><path fill="#FF0" d="M56.81 78.45c-.05-1.2-.9-1.62-.97-1.62-.09-.01-.34.19-.34.19-.28.23-.6.67-.63 1.43h-.47c.06-1.86 1.44-2.14 1.43-2.14.02 0 1.38.4 1.47 2.14h-.49zm-1.41-2.16h-2.33l-.23 2.15h1.38c.03-1.32.71-1.91 1.18-2.15zm.86 0c.47.27 1.18.9 1.24 2.15h1.38l-.25-2.15h-2.37zm-3.64 2.75h6.44c.08 0 .15-.09.15-.2 0-.11-.07-.2-.15-.2h-6.44c-.08 0-.15.09-.15.2 0 .11.07.2.15.2zm3.21-2.02c-.14.08-.73.44-.77 1.41h1.57c-.04-.96-.64-1.33-.8-1.41zm-.87 1.51zm3.97-2.97c.08 0 .14-.08.14-.17 0-.09-.06-.17-.14-.17h-6.17c-.08 0-.14.08-.14.17s.06.17.14.17h6.17zm-.14.54c.07 0 .13-.08.13-.17 0-.1-.06-.17-.13-.17h-5.91c-.07 0-.13.08-.13.17 0 .09.06.17.13.17h5.91zm-1.99-3.71v-.67h-.29v.33h-.53v-.34h-.29v.34h-.53v-.33h-.28v.66c0 .05.06.11.12.11h1.68c.07.01.12-.03.12-.1zm-1.58.35h1.24l.1 2.26h-1.44l.1-2.26zm.46 1.28h.33v-.59c0-.24-.34-.24-.33 0v.59zm-2.51-.13h1.29l.04 1.13h-1.37l.04-1.13zm.49.39v.45h.32v-.45c0-.24-.32-.23-.32 0zm3.55-.39h1.29l.04 1.13h-1.37l.04-1.13zm.49.39v.45h.32v-.45c0-.24-.32-.23-.32 0zm-3.05-.58c.05 0 .11-.03.11-.1v-.67h-.28v.34h-.52v-.34h-.28v.34h-.52v-.33h-.27v.66c0 .05.06.11.12.11l1.64-.01zm4.03 0c.05 0 .11-.03.11-.1v-.67h-.28v.34h-.52v-.34h-.28v.34h-.52v-.33h-.27v.66c0 .05.06.11.12.11l1.64-.01zM57.3 96.05c-.08-1.74-1.45-2.13-1.47-2.14 0 0-1.38.28-1.43 2.14h.47c.03-.76.35-1.2.63-1.43 0 0 .25-.21.34-.19.06 0 .92.42.97 1.62h.49zm-1.9-2.16h-2.33l-.23 2.15h1.38c.03-1.32.71-1.91 1.18-2.15zm.86 0c.47.27 1.18.9 1.24 2.15h1.38l-.25-2.15h-2.37zm2.96 2.55c0-.11-.07-.2-.15-.2h-6.44c-.08 0-.15.09-.15.2 0 .11.07.2.15.2h6.44c.07.01.15-.09.15-.2zm-3.39-1.82c-.14.08-.73.44-.77 1.41h1.57c-.04-.96-.64-1.33-.8-1.41zm-.87 1.51zm3.97-2.97c.08 0 .14-.08.14-.17s-.06-.17-.14-.17h-6.17c-.08 0-.14.08-.14.17s.06.17.14.17h6.17zm-.14.54c.07 0 .13-.08.13-.17 0-.1-.06-.17-.13-.17h-5.91c-.07 0-.13.08-.13.17 0 .1.06.17.13.17h5.91zm-1.99-3.71v-.67h-.29v.34h-.53v-.34h-.29v.34h-.53v-.33h-.28v.66c0 .05.06.11.12.11h1.68c.07-.01.12-.04.12-.11zm-1.58.36h1.24l.1 2.26h-1.44l.1-2.26zm.46 1.27h.33v-.59c0-.24-.34-.24-.33 0v.59zm-2.51-.13h1.29l.04 1.13h-1.37l.04-1.13zm.49.39v.45h.32v-.45a.16.16 0 00-.32 0zm3.55-.39h1.29l.04 1.13h-1.37l.04-1.13zm.49.39v.45h.32v-.45a.16.16 0 00-.32 0zm-3.05-.58c.05 0 .11-.03.11-.1v-.67h-.28v.34h-.52v-.34h-.28v.34h-.52v-.33h-.27v.66c0 .05.06.11.12.11l1.64-.01zm4.03 0c.05 0 .11-.03.11-.1v-.67h-.28v.34h-.52v-.34h-.28v.34h-.52v-.33h-.27v.66c0 .05.06.11.12.11l1.64-.01zm4.42 20.99c-.5-.45-1.04-.68-1.62-.68-.5 0-.87.18-.93.21 0 0-.77 1.17.51 2.52l.33-.33c-.5-.53-.59-1.05-.58-1.39.01-.17.05-.39.1-.43l.03-.02c.02-.01.22-.09.51-.09.33 0 .81.1 1.3.55l.35-.34zm-2.27-.78c.17-.05.4-.09.65-.09.63 0 1.22.24 1.76.73l.97-.98-1.71-1.34-1.67 1.68zm.09 2.97c-.72-.76-.82-1.49-.77-1.97.02-.14.05-.27.08-.39l-1.65 1.66 1.36 1.68.98-.98zm3.65-3.34c-.03 0-.06.01-.09.03l-4.54 4.57c-.06.06-.04.17.04.25.05.05.1.07.16.07.03 0 .06-.01.1-.03l4.54-4.57c.06-.06.04-.17-.04-.25-.06-.04-.11-.07-.17-.07zm-3.52 1.19c-.05.16-.21.82.46 1.54l1.1-1.11c-.44-.4-.87-.49-1.16-.49-.19.01-.33.04-.4.06zm1.13-3.46a.176.176 0 00-.13-.06c-.04 0-.07.01-.09.03l-4.35 4.38c-.05.05-.04.16.02.22s.17.07.22.02l4.35-4.38c.06-.03.04-.14-.02-.21zm.34.63c0-.05-.02-.1-.06-.13s-.09-.06-.13-.06c-.02 0-.06 0-.08.03l-4.16 4.19c-.05.05-.04.15.03.22.04.04.09.06.13.06.02 0 .06 0 .08-.03l4.16-4.19a.23.23 0 00.03-.09zm-4.03-1.06a.09.09 0 00-.03-.07l-.47-.47-.2.21.24.24-.37.38-.24-.24-.21.21.24.24-.37.38-.24-.23-.19.2.47.46c.02.02.05.03.07.03.03 0 .07-.02.09-.04l1.18-1.19c.01-.04.03-.07.03-.11zm.63 2.97l-1.54-1.66.88-.87 1.67 1.52-1.01 1.01zm-.07-1.33l-.41-.41c-.17-.17-.41.07-.23.23l.41.41.23-.23zm-1.31 2.75l-.78-.82.91-.92.83.77-.96.97zm-.16-.89l.32.32.22-.22-.32-.32a.157.157 0 00-.22.22zm3-1.97l-.78-.82.91-.92.83.77-.96.97zm-.16-.9l.32.32.22-.22-.32-.32c-.16-.17-.38.06-.22.22zm-2.56 1.61l-.48-.47-.2.2.24.24-.37.37-.24-.24-.2.2.24.24-.37.37-.24-.24-.19.19.47.46c.02.02.05.03.07.03.03 0 .06-.02.09-.03l1.16-1.16c.06-.05.08-.12.02-.16zm2.85-2.87l-.47-.47-.2.2.24.24-.37.37-.24-.24-.2.2.24.24-.37.37-.24-.24-.19.19.47.46c.02.02.05.03.07.03.03 0 .06-.01.09-.03l1.16-1.16c.04-.04.06-.11.01-.16zm13.96-29.36c-.08-1.74-1.45-2.13-1.47-2.14 0 0-1.38.28-1.43 2.14h.47c.03-.76.35-1.2.63-1.43 0 0 .25-.21.34-.19.06 0 .92.42.97 1.62h.49zm-1.04-2.16c.47.27 1.18.9 1.24 2.15h1.38L76 76.29h-2.37zm-.86 0h-2.33l-.23 2.15h1.38c.03-1.32.71-1.91 1.18-2.15zm3.66 2.35h-6.44c-.08 0-.15.09-.15.2 0 .11.07.2.15.2h6.44c.08 0 .15-.09.15-.2.01-.11-.06-.2-.15-.2zm-3.23-1.62c-.14.08-.73.44-.77 1.41H74c-.04-.96-.64-1.33-.8-1.41zm-.87 1.51zm3.97-2.97c.08 0 .14-.08.14-.17 0-.09-.06-.17-.14-.17h-6.17c-.08 0-.14.08-.14.17s.06.17.14.17h6.17zm-.14.54c.07 0 .13-.08.13-.17 0-.1-.06-.17-.13-.17h-5.91c-.07 0-.13.08-.13.17 0 .09.06.17.13.17h5.91zm-1.98-3.71v-.67h-.29v.33h-.53v-.34h-.29v.34h-.53v-.33h-.28v.66c0 .05.06.11.12.11h1.68c.06.01.12-.03.12-.1zm-1.59.35h1.24l.1 2.26h-1.44l.1-2.26zm.46.69v.59h.33v-.59c.01-.24-.34-.24-.33 0zm-2.5.46h1.29l.04 1.13h-1.37l.04-1.13zm.48.39v.45h.32v-.45c0-.24-.32-.23-.32 0zm3.55-.39h1.29l.04 1.13h-1.37l.04-1.13zm.49.39v.45h.32v-.45c0-.24-.32-.23-.32 0zm-3.05-.58c.05 0 .11-.03.11-.1v-.67h-.28v.34h-.52v-.34h-.28v.34h-.52v-.33h-.27v.66c0 .05.06.11.12.11l1.64-.01zm4.03 0c.05 0 .11-.03.11-.1v-.67h-.28v.34h-.52v-.34h-.28v.34h-.52v-.33h-.27v.66c0 .05.06.11.12.11l1.64-.01zm15.87 22.35c-.06-1.86-1.44-2.14-1.45-2.14 0 0-1.36.4-1.45 2.14h.49c.05-1.21.91-1.63.98-1.63.08 0 .9.4.95 1.63h.48zm-1.86-2.16H87.7l-.25 2.15h1.38c.06-1.24.76-1.88 1.23-2.15zm.86 0c.47.25 1.15.83 1.19 2.15h1.38l-.23-2.15h-2.34zm2.78 2.35h-6.44c-.08 0-.15.09-.15.2 0 .11.07.2.15.2h6.44c.08 0 .15-.09.15-.2 0-.11-.07-.2-.15-.2zm-3.21-1.62c-.16.08-.76.45-.8 1.41h1.57c-.04-.96-.62-1.33-.77-1.41zm3.21-1.63c0-.1-.06-.17-.14-.17h-6.18c-.08 0-.14.08-.14.17s.06.17.14.17h6.18c.08 0 .14-.08.14-.17zm-.27.71c.07 0 .13-.08.13-.17 0-.1-.06-.17-.13-.17h-5.91c-.07 0-.13.08-.13.17 0 .1.06.17.13.17h5.91zm-2-3.71v-.66h-.28v.33h-.53v-.34h-.29v.34h-.53v-.34h-.29v.67c0 .07.06.1.11.1h1.68c.07 0 .13-.04.13-.1zm-1.57.36h1.24l.1 2.26h-1.44l.1-2.26zm.45 1.27h.33v-.59c.01-.24-.33-.24-.33 0v.59zm1.54-.13h1.29l.04 1.13h-1.37l.04-1.13zm.5.84h.32v-.45c0-.23-.32-.24-.32 0v.45zm-4.53-.84h1.29l.04 1.13h-1.37l.04-1.13zm.49.84h.32v-.45c0-.23-.32-.24-.32 0v.45zm5-1.03c.06 0 .12-.05.12-.11v-.66h-.27v.33h-.52v-.34h-.28v.34h-.52v-.34h-.28v.67c0 .07.06.1.11.1l1.64.01zm-4.03 0c.06 0 .12-.05.12-.11v-.66h-.27v.33h-.52v-.34h-.28v.34h-.52v-.34h-.28v.67c0 .07.06.1.11.1l1.64.01zm-3.52 20.52c-.04-.02-.41-.2-.92-.2-.58 0-1.13.23-1.62.68l.34.35c.49-.45.98-.55 1.3-.55.3 0 .49.08.51.09l.03.02c.05.04.09.26.1.43.02.35-.08.86-.58 1.39l.33.33c1.29-1.36.51-2.53.51-2.54zm-.92-.4c.25 0 .47.04.65.09l-1.67-1.68-1.71 1.34.97.98c.54-.48 1.13-.73 1.76-.73zm1.33 1.09c.05.48-.05 1.2-.77 1.97l.97.97 1.36-1.68-1.65-1.66c.05.13.08.26.09.4zm-4.33-1.34c-.03-.03-.06-.03-.09-.03-.06 0-.11.03-.16.07-.08.08-.1.19-.04.25l4.54 4.57c.03.03.07.03.1.03.06 0 .11-.03.16-.07.08-.08.1-.19.04-.25l-4.55-4.57zm3.03 1.11c-.29 0-.72.09-1.16.49l1.1 1.11c.67-.72.51-1.38.46-1.54-.07-.03-.21-.06-.4-.06zm-.51-3.42c-.02-.02-.06-.03-.09-.03-.05 0-.1.02-.13.06-.07.06-.08.17-.02.22l4.35 4.38c.05.05.16.04.22-.02s.08-.17.02-.22l-4.35-4.39zm-.28.47c-.03-.03-.06-.03-.08-.03-.05 0-.1.02-.13.06-.04.04-.06.09-.06.13 0 .02 0 .06.03.08l4.16 4.19c.03.03.06.03.08.03.05 0 .1-.02.13-.06.06-.06.08-.16.03-.22l-4.16-4.18zm4.97.39c.02.02.06.04.09.04.02 0 .05 0 .07-.03l.47-.46-.19-.2-.24.23-.37-.38.24-.24-.21-.21-.24.24-.37-.38.24-.24-.2-.21-.47.47a.09.09 0 00-.03.07c0 .03.02.06.04.08l1.17 1.22zm-1.85 1.69l-1.01-1.01 1.67-1.52.88.87-1.54 1.66zm.07-1.33l.23.23.41-.41c.17-.16-.06-.41-.23-.23l-.41.41zm1.18 1.01l.91.92-.78.82-.97-.97.84-.77zm.07.63l-.32.32.22.22.32-.32c.17-.16-.05-.39-.22-.22zm-2.78-1.75l-.96-.97.83-.77.91.92-.78.82zm-.16-.58l.32-.32c.16-.16-.06-.39-.22-.22l-.32.32.22.22zm4.24 2.19l-.37-.37.24-.24-.2-.2-.24.24-.37-.37.24-.24-.2-.2-.47.47c-.05.05-.03.11 0 .15l1.16 1.16c.02.02.06.03.09.03.02 0 .05 0 .07-.03l.47-.46-.19-.19-.23.25zm-3.05-2.45c.02.02.06.03.09.03.02 0 .05 0 .07-.03l.47-.46-.19-.19-.24.24-.37-.37.24-.24-.2-.2-.24.24-.37-.37.24-.24-.2-.2-.47.47c-.05.05-.03.11 0 .15l1.17 1.17zm5.15-30.68c-.06-1.86-1.44-2.14-1.45-2.14 0 0-1.36.4-1.45 2.14h.49c.05-1.21.91-1.63.98-1.63.08 0 .9.4.95 1.63h.48zm-1-2.16c.47.25 1.15.83 1.19 2.15h1.38l-.23-2.15h-2.34zm-.86 0H87.7l-.25 2.15h1.38c.06-1.25.76-1.88 1.23-2.15zm-2.8 2.75h6.44c.08 0 .15-.09.15-.2 0-.11-.07-.2-.15-.2h-6.44c-.08 0-.15.09-.15.2 0 .11.07.2.15.2zm3.23-2.02c-.16.08-.76.45-.8 1.41h1.57c-.04-.96-.62-1.33-.77-1.41zm3.21-1.63c0-.1-.06-.17-.14-.17h-6.18c-.08 0-.14.08-.14.17s.06.17.14.17h6.18c.08 0 .14-.08.14-.17zm-.27.71c.07 0 .13-.08.13-.17 0-.1-.06-.17-.13-.17h-5.91c-.07 0-.13.08-.13.17 0 .09.06.17.13.17h5.91zm-2-3.71v-.66h-.28v.33h-.53v-.34h-.29v.34h-.53v-.34h-.29v.67c0 .07.06.1.11.1h1.68c.07.01.13-.05.13-.1zm-1.57.36h1.24l.1 2.26h-1.44l.1-2.26zm.45 1.27h.33v-.59c.01-.24-.33-.24-.33 0v.59zm1.54-.13h1.29l.04 1.13h-1.37l.04-1.13zm.5.84h.32v-.45c0-.23-.32-.24-.32 0v.45zm-4.53-.84h1.29l.04 1.13h-1.37l.04-1.13zm.49.84h.32v-.45c0-.23-.32-.24-.32 0v.45zm5-1.03c.06 0 .12-.05.12-.11v-.66h-.27v.33h-.52v-.34h-.28v.34h-.52v-.34h-.28v.67c0 .07.06.1.11.1l1.64.01zm-4.03 0c.06 0 .12-.05.12-.11v-.66h-.27v.33h-.52v-.34h-.28v.34h-.52v-.34h-.28v.67c0 .07.06.1.11.1l1.64.01z"/><path d="M52.62 79.23h6.44c.19 0 .34-.18.34-.39 0-.22-.15-.39-.34-.39l-.25-2.16c.17-.01.3-.17.3-.36 0-.08-.03-.14-.06-.2.12-.05.21-.18.21-.34 0-.2-.15-.36-.33-.36h-.2l-.04-1.14c.16 0 .29-.13.29-.29v-.86h-.66v.34h-.14v-.34h-.66v.34h-.14v-.33H56.8l-.07.04v.81c0 .15.13.28.29.29l-.04 1.14h-.23l-.1-2.34h.04c.17 0 .3-.13.3-.29v-.86h-.67v.34h-.15v-.34h-.67v.34h-.15v-.33H54.76l-.07.04v.81c0 .16.14.29.31.29h.02l-.1 2.34h-.22l-.04-1.14c.16 0 .29-.13.29-.29v-.86h-.66v.34h-.14v-.34h-.66v.34h-.14v-.33H52.77l-.07.04v.81c0 .15.13.28.29.29l-.04 1.14h-.19c-.18 0-.33.16-.33.36 0 .15.08.28.2.33a.36.36 0 00-.06.2c0 .19.14.35.31.36l-.23 2.16h-.02c-.19 0-.34.18-.34.39-.01.22.14.4.33.4zm6.25-.79h-1.38c-.06-1.25-.77-1.88-1.24-2.15h2.37l.25 2.15zm-1.66-4.56h1.29l.04 1.13h-1.37l.04-1.13zm-.29-.29v-.66h.27v.33h.52v-.34h.28v.34h.52v-.34h.28v.67c0 .07-.06.1-.11.1h-1.64c-.06 0-.12-.05-.12-.1zm-1.7-.85l1.24.01.1 2.26-1.44-.01.1-2.26zm-.21-.25c-.06 0-.12-.05-.12-.11v-.66h.28v.33h.53v-.34h.29v.34h.53v-.34h.29v.67c0 .07-.06.1-.11.1h-1.69zm-1.84 1.39h1.29l.04 1.13h-1.37l.04-1.13zm-.28-.29v-.66h.27v.33h.52v-.34h.28v.34h.52v-.34h.28v.67c0 .07-.06.1-.11.1h-1.64c-.07 0-.12-.05-.12-.1zm-.27 1.79c0-.09.06-.17.14-.17h6.17c.08 0 .14.08.14.17 0 .09-.06.17-.14.17h-6.17c-.08.01-.14-.07-.14-.17zm.14.54c0-.09.06-.17.13-.17h5.9c.07 0 .13.08.13.17 0 .09-.06.17-.13.17h-5.9c-.07.01-.13-.07-.13-.17zm.3.37h2.33c-.47.25-1.15.83-1.19 2.15h-1.37l.23-2.15zm2.77.02c.01 0 1.38.39 1.47 2.14h-.49c-.05-1.2-.9-1.62-.97-1.62-.09-.01-.34.19-.34.19-.28.23-.6.67-.63 1.43h-.47c.06-1.86 1.44-2.14 1.43-2.14zm-.87 2.22zm.1-.1c.04-.97.62-1.34.77-1.41.16.08.76.45.8 1.41h-1.57zm-2.44.2h6.44c.08 0 .15.09.15.2 0 .11-.07.2-.15.2h-6.44c-.08 0-.15-.09-.15-.2 0-.1.07-.2.15-.2zm3.39-5.2v.58h-.33v-.58c-.01-.24.33-.24.33 0zm-2.04.85v.45h-.31v-.45c-.01-.23.31-.24.31 0zm4.04 0v.45h-.31v-.45c0-.23.32-.24.31 0zm1.39 22.16c0-.22-.15-.39-.34-.39l-.25-2.16c.17-.01.3-.17.3-.36 0-.08-.03-.14-.06-.2.12-.05.21-.18.21-.34 0-.2-.15-.36-.33-.36h-.2l-.04-1.14c.17 0 .29-.13.29-.29v-.86h-.66v.34h-.14v-.34h-.66v.34h-.14v-.33H56.8l-.07.04v.81c0 .15.13.28.29.29l-.04 1.14h-.23l-.1-2.34h.04c.17 0 .3-.13.3-.29v-.86h-.67v.34h-.15v-.34h-.67v.34h-.15v-.33H54.76l-.07.04V90c0 .16.14.29.31.29h.02l-.1 2.34h-.22l-.04-1.14c.16 0 .29-.13.29-.29v-.86h-.66v.34h-.14v-.34h-.66v.34h-.14v-.33H52.77l-.07.04v.81c0 .15.13.28.29.29l-.04 1.14h-.19c-.18 0-.33.16-.33.36 0 .15.08.28.2.33a.36.36 0 00-.06.2c0 .19.14.35.31.36l-.23 2.16h-.02c-.19 0-.34.18-.34.39 0 .22.15.39.34.39h6.44c.18.01.33-.16.33-.38zm-.53-.4h-1.38c-.06-1.25-.77-1.88-1.24-2.15h2.37l.25 2.15zm-1.66-4.55h1.29l.04 1.13h-1.37l.04-1.13zm-.29-.3v-.66h.27v.33h.52v-.34h.28v.34h.52v-.34h.28v.67c0 .07-.06.1-.11.1h-1.64c-.06 0-.12-.05-.12-.1zm-1.7-.85l1.24.01.1 2.26-1.44-.01.1-2.26zm-.21-.25c-.06 0-.12-.05-.12-.11v-.66h.28v.33h.53v-.34h.29v.34h.53v-.34h.29v.67c0 .07-.06.1-.11.1h-1.69zm-1.84 1.4h1.29l.04 1.13h-1.37l.04-1.13zm-.28-.3v-.66h.27v.33h.52v-.34h.28v.34h.52v-.34h.28v.67c0 .07-.06.1-.11.1h-1.64c-.07 0-.12-.05-.12-.1zm-.27 1.8c0-.09.06-.17.14-.17h6.17c.08 0 .14.08.14.17 0 .09-.06.17-.14.17h-6.17c-.08 0-.14-.08-.14-.17zm.14.53c0-.09.06-.17.13-.17h5.9c.07 0 .13.08.13.17 0 .09-.06.17-.13.17h-5.9c-.07.01-.13-.07-.13-.17zm.3.37h2.33c-.47.25-1.15.83-1.19 2.15h-1.37l.23-2.15zm2.77.02c.01 0 1.38.39 1.47 2.14h-.49c-.05-1.2-.9-1.62-.97-1.62-.09-.01-.34.19-.34.19-.28.23-.6.67-.63 1.43h-.47c.06-1.86 1.44-2.14 1.43-2.14zm-.87 2.22zm.1-.1c.04-.97.62-1.34.77-1.41.16.08.76.45.8 1.41h-1.57zm-2.59.41c0-.11.07-.2.15-.2h6.44c.08 0 .15.09.15.2 0 .11-.07.2-.15.2h-6.44c-.08 0-.15-.09-.15-.2zm3.54-5.41v.58h-.33v-.58c-.01-.24.33-.24.33 0zm-2.04.85v.45h-.31v-.45c-.01-.23.31-.24.31 0zm4.04 0v.45h-.31v-.45c0-.23.32-.24.31 0zm6.34 19.16l-1.71-1.34c.05-.05.07-.12.07-.2 0-.1-.04-.2-.12-.27a.435.435 0 00-.19-.1c.05-.13.02-.28-.09-.39-.14-.13-.37-.15-.49-.02l-.14.14-.84-.77c.11-.12.11-.3 0-.41l-.61-.61-.46.47.24.24-.1.1-.24-.24-.46.47.24.24-.1.1-.24-.23-.42.42v.08l.57.56c.05.05.12.08.2.08.08 0 .15-.03.2-.08l.78.83-.16.16-1.73-1.58.03-.03a.31.31 0 00.09-.22c0-.08-.03-.15-.09-.2l-.61-.61-.47.47.24.24-.11.11-.24-.24-.47.47.24.24-.11.11-.23-.23-.46.47.6.6c.05.05.12.08.2.08.09 0 .17-.03.23-.09l.01-.01 1.59 1.72-.16.16-.83-.78c.11-.12.11-.3 0-.41l-.61-.61-.46.47.24.24-.1.1-.24-.24-.46.47.24.24-.1.1-.24-.23-.46.46.61.6c.05.05.12.08.2.08.08 0 .15-.03.2-.08l.78.83-.13.13c-.13.13-.12.35.02.49.07.07.17.11.26.11.04 0 .08-.01.12-.02.02.07.05.14.1.19.07.07.17.11.27.11.08 0 .15-.03.2-.08l1.37 1.69-.01.01c-.13.13-.12.37.04.52.08.08.19.12.29.12.09 0 .17-.03.23-.09l4.54-4.57c.13-.13.12-.37-.04-.52-.15-.13-.39-.15-.51-.02zm-.15.13l-.97.98c-.53-.48-1.12-.73-1.75-.73-.25 0-.47.04-.65.09l1.67-1.68 1.7 1.34zm-4.66-2.04c-.02.02-.06.04-.09.04-.02 0-.05 0-.07-.03l-.47-.46.19-.19.24.23.37-.37-.24-.24.2-.2.24.24.37-.37-.24-.24.2-.2.47.47c.05.05.03.11 0 .15l-1.17 1.17zm.26.01l.91-.92.83.77-.97.97-.77-.82zm-2.63.61c-.02 0-.05 0-.07-.03l-.47-.46.2-.2.24.23.37-.38-.24-.24.2-.2.24.24.37-.38-.24-.24.2-.2.47.47c.02.02.03.04.03.07 0 .03-.01.06-.04.08l-1.18 1.19c-.01.04-.04.05-.08.05zm.42 0l.88-.88 1.67 1.52-1.02 1.02-1.53-1.66zm-.89 2.24c-.02.02-.06.04-.09.04-.02 0-.05 0-.07-.03l-.47-.46.19-.19.24.23.37-.37-.24-.24.2-.2.24.24.37-.37-.24-.24.2-.2.47.47c.05.05.03.11 0 .15l-1.17 1.17zm.26.01l.91-.92.83.77-.97.97-.77-.82zm.67 1.45c-.07-.07-.08-.17-.02-.22l4.35-4.38c.02-.02.06-.04.09-.04.05 0 .09.02.13.06.07.07.08.17.02.22l-4.35 4.38c-.05.06-.16.05-.22-.02zm.69.31c-.03.03-.06.03-.08.03-.05 0-.1-.02-.13-.06-.07-.07-.08-.16-.03-.22l4.16-4.19c.03-.03.06-.03.08-.03.05 0 .1.02.13.06.04.04.06.09.06.13 0 .02-.01.06-.03.08l-4.16 4.2zm.26.01l1.64-1.66c-.04.12-.07.24-.08.39-.05.48.05 1.21.77 1.97l-.97.97-1.36-1.67zm1.97-1.95c.05-.04.43-.21.93-.21.58 0 1.13.23 1.62.68l-.34.35c-.49-.45-.98-.55-1.3-.55-.3 0-.49.08-.51.09l-.03.02c-.05.04-.09.26-.1.43-.02.35.08.86.58 1.39l-.33.33c-1.29-1.36-.51-2.53-.52-2.53zm.5.51c.07-.02.21-.06.4-.06.29 0 .72.09 1.16.49l-1.1 1.11c-.66-.72-.51-1.38-.46-1.54zm3.71-.87l-4.54 4.57a.14.14 0 01-.09.04c-.06 0-.11-.03-.16-.07-.08-.08-.1-.19-.04-.25l4.54-4.57c.03-.03.07-.03.09-.03.06 0 .11.03.16.07.08.06.1.18.04.24zm-6.13-1.79l.41.41-.23.23-.41-.41c-.18-.16.06-.4.23-.23zm-.74 2.58l-.32-.32c-.16-.16.06-.39.22-.22l.32.32-.22.22zm2.85-2.86l-.32-.32c-.16-.16.06-.39.22-.22l.32.32-.22.22zm15.7-30.94l-.25-2.16c.17-.01.3-.17.3-.36 0-.08-.03-.14-.06-.2.12-.05.21-.18.21-.34 0-.2-.15-.36-.33-.36h-.2l-.04-1.14c.16 0 .29-.13.29-.29v-.86h-.66v.34h-.14v-.34h-.66v.34h-.14v-.33H74.18l-.07.04v.81c0 .15.13.28.29.29l-.04 1.14h-.23l-.1-2.34h.04c.17 0 .3-.13.3-.29v-.86h-.67v.34h-.15v-.34h-.67v.34h-.15v-.33H72.14l-.07.04v.81c0 .16.14.29.31.29h.02l-.1 2.34h-.23l-.04-1.14c.16 0 .29-.13.29-.29v-.86h-.66v.34h-.14v-.34h-.66v.34h-.14v-.33H70.14l-.07.04v.81c0 .15.13.28.29.29l-.04 1.14h-.19c-.18 0-.33.16-.33.36 0 .15.08.28.2.33a.36.36 0 00-.06.2c0 .19.13.34.3.36l-.22 2.16H70c-.19 0-.34.18-.34.39 0 .22.15.39.34.39h6.44c.19 0 .34-.18.34-.39-.01-.21-.16-.38-.34-.38zm-.2-.01h-1.38c-.06-1.25-.77-1.88-1.24-2.15h2.37l.25 2.15zm-1.66-4.56h1.29l.04 1.13h-1.37l.04-1.13zm-.29-.29v-.66h.27v.33h.52v-.34h.28v.34h.52v-.34h.28v.67c0 .07-.06.1-.11.1h-1.64c-.06 0-.12-.05-.12-.1zm-1.7-.85l1.24.01.1 2.26-1.44-.01.1-2.26zm-.21-.25c-.06 0-.12-.05-.12-.11v-.66h.28v.33h.53v-.34h.29v.34h.53v-.34h.29v.67c0 .07-.06.1-.11.1h-1.69zm-1.84 1.39h1.29l.04 1.13H70.5l.04-1.13zm-.28-.29v-.66h.27v.33h.52v-.34h.28v.34h.52v-.34h.28v.67c0 .07-.06.1-.11.1h-1.64c-.06 0-.12-.05-.12-.1zm-.27 1.79c0-.09.06-.17.14-.17h6.17c.08 0 .14.08.14.17 0 .09-.06.17-.14.17h-6.17c-.08.01-.14-.07-.14-.17zm.14.54c0-.09.06-.17.13-.17h5.9c.07 0 .13.08.13.17 0 .09-.06.17-.13.17h-5.9c-.07.01-.13-.07-.13-.17zm.3.37h2.33c-.47.25-1.15.83-1.19 2.15H70.2l.23-2.15zm2.77.02c.01 0 1.38.39 1.47 2.14h-.49c-.05-1.2-.9-1.62-.97-1.62-.09-.01-.34.19-.34.19-.28.23-.6.67-.63 1.43h-.47c.06-1.86 1.44-2.14 1.43-2.14zm-.87 2.22zm.1-.1c.04-.97.62-1.34.77-1.41.16.08.76.45.8 1.41h-1.57zm4 .61h-6.44c-.08 0-.15-.09-.15-.2 0-.11.07-.2.15-.2h6.44c.08 0 .15.09.15.2 0 .11-.07.2-.15.2zm-3.05-5.61v.58h-.33v-.58c-.01-.24.33-.24.33 0zm-2.04.85v.45h-.31v-.45c-.01-.23.31-.24.31 0zm4.04 0v.45h-.31v-.45c0-.23.32-.24.31 0zm11.88 4.95h6.44c.19 0 .34-.18.34-.39 0-.22-.15-.39-.34-.39h-.02l-.23-2.16c.17-.01.31-.17.31-.36 0-.08-.03-.15-.06-.2.12-.06.2-.18.2-.33 0-.2-.15-.36-.33-.36h-.19l-.04-1.14c.16-.01.29-.14.29-.29v-.81l-.07-.04h-.58v.33h-.14v-.34h-.66v.34h-.14v-.34h-.66v.86c0 .16.13.29.29.29l-.04 1.14h-.23l-.1-2.34h.02c.17 0 .31-.13.31-.29v-.81l-.07-.04h-.59v.33h-.15v-.34h-.67v.34H90v-.34h-.67v.86c0 .17.13.29.3.29h.04l-.1 2.34h-.23l-.04-1.14c.16-.01.29-.14.29-.29v-.81l-.07-.04h-.58v.33h-.14v-.34h-.66v.34H88v-.34h-.66v.86c0 .16.13.29.29.29l-.04 1.14h-.2c-.18 0-.33.16-.33.36 0 .15.09.28.21.34a.36.36 0 00-.06.2c0 .19.13.35.3.36l-.25 2.16c-.19 0-.34.18-.34.39-.01.2.15.38.34.38zm2.43-.8c.04-.97.64-1.33.8-1.41.14.08.73.44.77 1.41h-1.57zm1.75.01c-.05-1.23-.87-1.63-.95-1.63-.08 0-.94.42-.98 1.63h-.49c.08-1.74 1.45-2.13 1.45-2.14.01 0 1.39.28 1.45 2.14h-.48zm2.04 0h-1.37c-.04-1.33-.72-1.91-1.19-2.15h2.33l.23 2.15zm-1.63-4.56h1.29l.04 1.13h-1.37l.04-1.13zm-.29-.29v-.67h.28v.34h.52v-.34h.28v.34h.52v-.33h.27v.66c0 .05-.06.11-.12.11h-1.64c-.05-.01-.11-.04-.11-.11zm-1.7-.84l1.24-.01.1 2.26-1.44.01.1-2.26zm-.23-.26c-.05 0-.11-.03-.11-.1v-.67h.29v.34h.53v-.34h.29v.34h.53v-.33h.28v.66c0 .05-.06.11-.12.11h-1.69zm-1.81 1.39h1.29l.04 1.13h-1.37l.04-1.13zm-.29-.29v-.67h.28v.34h.52v-.34h.28v.34h.52v-.33h.27v.66c0 .06-.06.11-.12.11h-1.64c-.05-.01-.11-.04-.11-.11zm-.29 1.79c0-.09.06-.17.14-.17h6.17c.08 0 .14.08.14.17 0 .09-.06.17-.14.17h-6.17c-.07.01-.14-.07-.14-.17zm.15.54c0-.09.06-.17.13-.17h5.9c.07 0 .13.08.13.17 0 .09-.06.17-.13.17h-5.9c-.07.01-.13-.07-.13-.17zm.31.37h2.37c-.47.27-1.18.9-1.24 2.15h-1.38l.25-2.15zm-.44 2.34h6.44c.08 0 .15.09.15.2 0 .11-.07.2-.15.2h-6.44c-.08 0-.15-.09-.15-.2-.01-.1.06-.2.15-.2zm3.38-5.2v.58h-.33v-.58c-.01-.24.34-.24.33 0zm2.02.85v.45h-.31v-.45c-.01-.24.31-.23.31 0zm-4.04 0v.45h-.32v-.45c0-.24.32-.23.32 0zm5.08 21.77h-.02l-.23-2.16c.17-.01.31-.17.31-.36 0-.08-.03-.15-.06-.2.12-.06.2-.18.2-.33 0-.2-.15-.36-.33-.36h-.19l-.04-1.14c.16-.01.29-.14.29-.29v-.81l-.07-.04h-.58v.33h-.14v-.34h-.66v.34h-.14v-.34h-.66v.86c0 .16.13.29.29.29l-.04 1.14h-.23l-.1-2.34h.02c.17 0 .31-.13.31-.29v-.81l-.07-.04h-.59v.33h-.15v-.34h-.67v.34H90v-.34h-.67v.86c0 .17.13.29.3.29h.04l-.1 2.34h-.23l-.04-1.14c.16-.01.29-.14.29-.29v-.81l-.07-.04h-.58v.33h-.14v-.34h-.66v.34H88v-.34h-.66v.86c0 .16.12.29.29.29l-.04 1.14h-.2c-.18 0-.33.16-.33.36 0 .15.09.28.21.34a.36.36 0 00-.06.2c0 .19.13.35.3.36l-.25 2.16c-.19 0-.34.18-.34.39 0 .22.15.39.34.39h6.44c.19 0 .34-.18.34-.39 0-.23-.16-.4-.34-.4zm-4.01-.02c.04-.97.64-1.33.8-1.41.14.08.73.44.77 1.41h-1.57zm1.75.02c-.05-1.23-.87-1.63-.95-1.63-.08 0-.94.42-.98 1.63h-.49c.08-1.74 1.45-2.13 1.45-2.14.01 0 1.39.28 1.45 2.14h-.48zm2.04-.01h-1.37c-.04-1.33-.72-1.91-1.19-2.15h2.33l.23 2.15zm-1.63-4.55h1.29l.04 1.13h-1.37l.04-1.13zm-.29-.3v-.67h.28v.34h.52v-.34h.28v.34h.52v-.33h.27v.66c0 .05-.06.11-.12.11h-1.64c-.05-.01-.11-.04-.11-.11zm-1.7-.84l1.24-.01.1 2.26-1.44.01.1-2.26zm-.23-.26c-.05 0-.11-.03-.11-.1v-.67h.29v.34h.53v-.34h.29v.34h.53v-.33h.28v.66c0 .05-.06.11-.12.11h-1.69zm-1.81 1.4h1.29l.04 1.13h-1.37l.04-1.13zm-.29-.3v-.67h.28v.34h.52v-.34h.28v.34h.52v-.33h.27v.66c0 .06-.06.11-.12.11h-1.64c-.05-.01-.11-.04-.11-.11zm-.29 1.8c0-.09.06-.17.14-.17h6.17c.08 0 .14.08.14.17 0 .09-.06.17-.14.17h-6.17c-.07 0-.14-.08-.14-.17zm.15.53c0-.09.06-.17.13-.17h5.9c.07 0 .13.08.13.17 0 .09-.06.17-.13.17h-5.9c-.07.01-.13-.07-.13-.17zm.31.37h2.37c-.47.27-1.18.9-1.24 2.15h-1.38l.25-2.15zm6 2.75h-6.44c-.08 0-.15-.09-.15-.2 0-.11.07-.2.15-.2h6.44c.08 0 .15.09.15.2 0 .11-.07.2-.15.2zm-3.06-5.61v.58h-.33v-.58c-.01-.24.34-.24.33 0zm2.02.85v.45h-.31v-.45c-.01-.24.31-.23.31 0zm-4.04 0v.45h-.32v-.45c0-.24.32-.23.32 0zm1.2 19.43l-.1-.1.24-.24-.46-.47-.24.24-.1-.1.24-.24-.46-.47-.61.61c-.12.12-.12.29 0 .41l-.84.77-.16-.16 1.59-1.72.01.01c.06.06.14.09.23.09.08 0 .15-.03.2-.08l.59-.58-.03-.06-.41-.42-.23.23-.11-.11.24-.24-.47-.47-.24.24-.11-.11.24-.24-.47-.47-.61.61c-.06.05-.09.13-.09.2 0 .08.03.16.09.22l.03.03-1.73 1.58-.16-.16.78-.83c.06.05.13.08.2.08.08 0 .15-.03.2-.08l.56-.55.02-.08-.43-.43-.24.23-.1-.1.24-.24-.46-.47-.24.24-.1-.1.24-.24-.46-.47-.61.61c-.12.12-.12.29 0 .41l-.84.77-.14-.14c-.12-.13-.36-.11-.49.02-.11.11-.14.27-.09.39-.07.01-.14.04-.19.1-.07.07-.12.17-.12.27 0 .08.03.14.07.2l-1.71 1.34c-.13-.13-.37-.11-.52.04-.15.15-.17.39-.04.52l4.54 4.57c.06.06.14.09.23.09.1 0 .21-.05.29-.12.15-.15.17-.39.04-.52l-.01-.01 1.37-1.69c.05.05.13.08.2.08.1 0 .19-.04.27-.11.06-.06.09-.12.1-.19.04.01.07.02.12.02.1 0 .19-.04.26-.11.14-.14.15-.36.02-.49l-.13-.13.78-.83c.06.05.13.08.2.08.08 0 .15-.03.2-.08l.57-.56v-.08l-.42-.42-.23.21zm-1.96-2.94l.47-.47.2.2-.24.24.37.38.24-.24.2.2-.24.24.37.38.24-.23.2.2-.47.46c-.02.02-.05.03-.07.03-.03 0-.07-.01-.09-.04l-1.18-1.19c-.02-.02-.04-.05-.04-.08.01-.03.02-.06.04-.08zm-.01.5l.88.88-1.53 1.66-1.02-1.02 1.67-1.52zm-2.24-1.06l.47-.47.2.2-.24.24.37.37.24-.24.2.2-.24.24.37.37.24-.23.19.19-.47.46c-.02.02-.05.03-.07.03-.03 0-.07-.01-.09-.04l-1.16-1.16c-.04-.05-.06-.11-.01-.16zm0 .42l.91.92-.78.82-.97-.97.84-.77zm-1.79 1.6l1.67 1.68c-.17-.05-.4-.09-.65-.09-.63 0-1.22.24-1.75.73l-.97-.98 1.7-1.34zm2.52 6.16c-.04.04-.1.07-.16.07-.03 0-.06-.01-.09-.03l-4.54-4.57c-.06-.06-.04-.17.04-.25.05-.04.1-.07.16-.07.03 0 .06.01.09.03l4.54 4.57c.06.06.04.17-.04.25zm-2.64-3.23c.44-.4.87-.49 1.16-.49.19 0 .34.04.4.06.05.16.2.82-.46 1.54l-1.1-1.11zm1.23 1.25c.5-.53.59-1.05.58-1.39-.01-.17-.05-.39-.1-.43l-.03-.02c-.02-.01-.22-.09-.51-.09-.33 0-.81.1-1.3.55l-.34-.35c.5-.45 1.04-.68 1.62-.68.5 0 .87.18.91.2.01.01.78 1.18-.49 2.53l-.34-.32zm1.44 1.44l-.97-.97c.72-.76.82-1.49.77-1.97-.01-.15-.05-.27-.08-.39l1.64 1.66-1.36 1.67zm1.84-1.72c-.04.04-.09.06-.13.06-.02 0-.06-.01-.08-.03l-4.16-4.19a.133.133 0 01-.03-.08c0-.05.02-.1.06-.13.04-.04.09-.06.13-.06.02 0 .06.01.08.03l4.16 4.19c.05.05.03.15-.03.21zm.48-.28c-.06.06-.17.07-.22.02l-4.35-4.38c-.05-.05-.04-.16.02-.22.04-.04.08-.06.13-.06.04 0 .07.01.09.04l4.35 4.38c.06.06.04.16-.02.22zm-.11-.62l-.97-.97.83-.77.91.92-.77.82zm1.19-.83c-.02.02-.05.03-.07.03-.03 0-.07-.01-.09-.04l-1.16-1.16c-.04-.04-.05-.1 0-.15l.47-.47.2.2-.24.24.37.37.24-.24.2.2-.24.24.37.37.24-.23.19.19-.48.45zm-2.27-1.69l-.23-.23.41-.41c.17-.17.41.07.23.23l-.41.41zm.7 1.72l.32-.32c.16-.17.39.06.22.22l-.32.32-.22-.22zm-2.31-2.96l-.32.32-.22-.22.32-.32c.17-.17.39.06.22.22zm-12.76 12.82c-5.77 0-11.22-2.27-15.35-6.38-4.13-4.11-6.4-9.53-6.4-15.27l.19-.02v.02c0 5.69 2.25 11.06 6.35 15.14s9.5 6.32 15.21 6.32c5.74 0 11.14-2.23 15.22-6.29 4.05-4.04 6.3-9.39 6.32-15.07V71.16H51.59l-.03 29.06h-.19l.03-29.25h43.45v29.29c0 5.76-2.26 11.19-6.37 15.28a21.59 21.59 0 01-15.35 6.35zm-.02-8.58c-3.38 0-6.62-1.37-9.12-3.87-2.44-2.43-3.84-5.77-3.84-9.17l-.01-20.57h26.01v18.68l-.02 1.97c0 .54-.03 1.13-.09 1.62-.34 2.85-1.63 5.46-3.73 7.55a12.992 12.992 0 01-9.2 3.79zM60.34 79.89l.01 20.39c0 3.35 1.38 6.64 3.78 9.03 2.47 2.46 5.66 3.81 8.99 3.81 3.42 0 6.64-1.33 9.07-3.75 2.07-2.06 3.34-4.63 3.68-7.43.06-.48.09-1.06.09-1.6l.02-1.97V79.89H60.34zm51.02 14.48v-.06a.09.09 0 00-.03-.07c-.14-.17-.32-.33-.5-.49-.3-4.94-1.55-9.62-3.57-13.87.18-.09.3-.17.36-.23.01 0 .02 0 .03-.01.02-.02.03-.05.03-.09 0-.01 0-.03-.01-.04l-.62-1.09c-.11-.12-.31-.25-.58-.4l-.64-1.11c.1-.06.19-.12.25-.17.01 0 .02 0 .03-.01.04-.03.06-.1.03-.14l-.88-1.4-.03-.03c-.28-.21-.65-.42-1.09-.64-6.44-9.24-16.9-15.47-28.82-16.15v-.54c0-.06-.05-.11-.11-.11h-.82c-.03 0-.06.01-.08.03-.02.02-.03.05-.03.08v.32h-2.16v-.32c0-.06-.05-.11-.11-.11h-.83c-.06 0-.11.05-.11.11v.53c-11.83.64-22.23 6.77-28.69 15.88-.5.03-.89.14-1.15.33l-.03.03-.03.05-.01.01-.45.79-.07.13c-.09.25-.06.55.08.89l-1.84 3.41c-.15.03-.27.07-.38.13-.04 0-.08.01-.1.05l-.43.77c-.14.22-.17.49-.1.81.04.16.11.33.2.51a37.51 37.51 0 00-2.56 11.38c-.28.25-.47.49-.54.71 0 .01-.01.02-.01.04v1.04c0 .04.02.07.05.09.1.06.22.12.36.19v1.27c-.21.2-.35.4-.41.59 0 .01-.01.02-.01.03v1.04c0 .04.02.07.05.09.13.08.31.17.52.27.38 5.02 1.75 9.77 3.91 14.06-.15.18-.24.36-.25.54 0 .02 0 .04.01.06l.44.78c.01.02.03.04.05.04l.01.01c.12.04.25.08.38.12l.91 1.49c-.09.12-.14.24-.16.34v.02c0 .01 0 .02.01.03v.02l.45.77c.01.02.03.03.05.04.27.12.56.24.86.36 6.45 9.23 16.92 15.45 28.85 16.1v.59c0 .06.05.11.11.11h.84c.06 0 .11-.05.11-.11 0-.01 0-.02-.01-.03v-.3h2.16v.33c0 .06.05.11.11.11h.83c.06 0 .11-.05.11-.11 0-.01 0-.02-.01-.03v-.56c10.77-.61 20.35-5.76 26.85-13.56.13.01.23.02.32.02.27 0 .56-.04.75-.31l.01-.01c.01-.01.02-.02.02-.03l.46-.73c.11-.16.13-.36.08-.6-.01-.03-.03-.07-.04-.11l2.14-3.32c.05 0 .1.01.15.01.21 0 .36-.04.46-.12.01-.01.02-.02.02-.03l.06-.1c.02-.04.04-.07.06-.11l.45-.68c.02-.02.04-.04.04-.07.15-.32.09-.75-.15-1.26 2.07-4.18 3.38-8.8 3.77-13.68.23-.14.4-.28.52-.4.03-.02.05-.05.05-.09v-.01-.98a.09.09 0 00-.03-.07c-.12-.14-.25-.27-.4-.4V95.7c.16-.11.29-.21.38-.32.03-.02.05-.05.05-.09v-.01-.01l.05-.9zm-.76-.82c-.19-.15-.41-.3-.64-.45-.4-5.05-1.83-9.91-4.2-14.33.33.14.64.27.92.41a37.4 37.4 0 013.92 14.37zm-8.16-15.9c1.15.33 2.15.66 2.99.99 2.4 4.41 3.86 9.26 4.28 14.31-.62-.38-1.35-.75-2.21-1.11-.61-5.07-2.33-9.89-5.06-14.19zm4.84 14.1c-.21-.09-.42-.17-.65-.26-.68-5.09-2.51-9.92-5.38-14.18.3.08.59.16.87.24a33.97 33.97 0 015.16 14.2zm-.11-12.06c-.06-.11-.11-.23-.17-.34.14.07.27.15.39.22-.06.03-.13.07-.22.12zm-1.44-2.97l-.25-.44c.15.11.29.23.4.35-.05.02-.1.06-.15.09zm-1.99-2.4c-.35-.16-.74-.32-1.16-.49a37.207 37.207 0 00-3.38-3.86c-6.48-6.48-14.9-10.26-23.89-10.78v-.61c11.72.67 22.01 6.73 28.43 15.74zm-1.54-.63c-1.07-.39-2.32-.79-3.7-1.15-.3-.32-.6-.64-.91-.95-6.05-6.04-13.89-9.57-22.27-10.08v-2.09c8.93.52 17.29 4.28 23.73 10.71a37.82 37.82 0 013.15 3.56zM71.08 58.58v.61c-9.02.51-17.46 4.29-23.96 10.78a36.958 36.958 0 00-3.41 3.92c-.29.12-.57.24-.83.36-.08 0-.16-.01-.23-.01 6.44-8.99 16.73-15.02 28.43-15.66zm0 .83v2.09c-8.38.51-16.23 4.04-22.28 10.09-.32.32-.62.64-.92.97-1.43.37-2.7.77-3.78 1.18.97-1.26 2.03-2.46 3.18-3.61 6.46-6.46 14.84-10.22 23.8-10.72zM40.83 75.73l.03-.03c.01-.03.04-.08.1-.12.09-.08.2-.14.31-.18 0 .02.01.04.01.06l-.43.8c-.06-.21-.07-.38-.02-.53zm-2.75 5.4c.01 0 .01 0 .02-.01.08-.1.22-.17.41-.22.01.04.02.09.04.13-.12.28-.24.56-.36.85-.04-.1-.08-.2-.1-.3a.77.77 0 01-.01-.45zm.78-.27c.06 0 .12-.01.18-.01.15 0 .32.01.49.03a36.322 36.322 0 00-3.14 12.03c-.24.15-.46.29-.65.44.32-4.42 1.4-8.63 3.12-12.49zm.04 10.85c-.89.36-1.66.71-2.27 1.06a36.15 36.15 0 013.14-11.87c.59.08 1.3.23 2.13.47a33.78 33.78 0 00-3 10.34zm3.2-10.27c.19.06.39.12.59.18a33.345 33.345 0 00-2.91 9.76c-.22.08-.44.16-.64.24.44-3.55 1.44-6.98 2.96-10.18zm-6.89 13.83c.04-.09.1-.19.17-.28v.37c-.06-.03-.12-.06-.17-.09zm0 3.23c.07-.13.16-.27.28-.4.01.19.02.38.04.56-.14-.06-.24-.11-.32-.16zm.48-.61c.17-.15.37-.31.59-.46.2 5.26 1.5 10.34 3.82 14.97-.19.14-.36.27-.49.41a37.503 37.503 0 01-3.92-14.92zm7.28 13.05c-.19.08-.38.15-.57.23a33.98 33.98 0 01-3.56-15.06c.2-.08.4-.16.61-.24V96c0 5.26 1.22 10.35 3.52 14.94zm-.77.32c-.72.32-1.39.66-1.92 1a36.071 36.071 0 01-3.78-14.98c.57-.36 1.3-.72 2.13-1.08.03 5.31 1.27 10.42 3.57 15.06zm-2.32 2.99c0-.02.01-.03.02-.05l.04.07c-.02-.01-.04-.02-.06-.02zm1.64 2.85c.04-.09.09-.18.17-.28.11.16.21.32.32.48-.16-.07-.33-.13-.49-.2zm29.56 16.4c-12.21-.67-22.89-7.22-29.25-16.85.13-.14.3-.28.49-.42 1.38 2.09 2.98 4.06 4.8 5.87 6.5 6.49 14.94 10.28 23.96 10.78v.62zm0-.83c-8.96-.51-17.34-4.27-23.8-10.72-1.81-1.8-3.4-3.76-4.77-5.84.51-.35 1.18-.69 1.91-1.02 1.27 1.89 2.73 3.68 4.39 5.33 6.05 6.04 13.9 9.57 22.28 10.09v2.16zm0-2.38c-8.33-.51-16.12-4.02-22.13-10.02a35.46 35.46 0 01-4.34-5.26c.19-.08.38-.16.58-.24 1.22 1.8 2.62 3.5 4.19 5.07 5.89 5.89 13.53 9.33 21.7 9.84v.61zm4.24.22c8.38-.51 16.22-4.04 22.27-10.08 1.23-1.23 2.36-2.54 3.38-3.91.64.62 1.12 1.15 1.44 1.59a36.9 36.9 0 01-3.36 3.85c-6.44 6.43-14.8 10.19-23.73 10.71v-2.16zm0-.84c8.16-.51 15.79-3.96 21.68-9.84 1.23-1.23 2.35-2.53 3.36-3.9.16.14.31.28.45.42a35.602 35.602 0 01-3.38 3.91c-6.01 6-13.79 9.51-22.11 10.02v-.61zm0 3.82v-.61c8.99-.52 17.4-4.3 23.88-10.78 1.21-1.21 2.32-2.48 3.34-3.82.15.22.25.42.3.58.01.02.01.04.02.06-6.45 8.36-16.34 13.93-27.54 14.57zm27.59-13.65c-.01.01-.01.03-.02.04-.1.04-.23.06-.4.06h-.15c.18-.22.36-.45.54-.67h.09c.08.41-.05.56-.06.57zm3.51-5.13l-.06.09c-.05.02-.13.04-.28.04h-.01l.34-.53h.04v.06c0 .2 0 .26-.03.34zm.47-2.26c-.11-.2-.24-.4-.39-.62 2.12-4.42 3.33-9.25 3.54-14.24.21.15.41.3.59.46a37.288 37.288 0 01-3.74 14.4zm.05-16.45c.21.08.41.17.6.25-.03 4.71-1.03 9.27-2.88 13.48-.15-.15-.3-.3-.46-.45 1.79-4.15 2.74-8.65 2.74-13.28zm.82.34c.77.35 1.47.71 2.06 1.1-.19 4.97-1.38 9.77-3.47 14.18-.39-.52-.9-1.11-1.53-1.74a34.02 34.02 0 002.94-13.54zm3.04 2.41l.03-.5c.09.09.18.18.26.27-.08.07-.17.15-.29.23zm.12-3.32v-.33c.06.06.11.12.17.18-.05.05-.1.1-.17.15zm.22-.42c-2.42-2.54-9.61-4.3-13.75-5.13-.5-.1-1.01-.19-1.52-.28v.22c.5.09.99.18 1.48.27 3.97.8 10.75 2.44 13.36 4.8v1.98c-2.05-1.7-6.56-3.28-13.16-4.6-.55-.11-1.11-.21-1.67-.31v.22c.55.1 1.1.2 1.63.3 7.28 1.46 11.99 3.22 13.63 5.09v.66c-2.42-2.54-9.61-4.3-13.75-5.13-.5-.1-1.01-.19-1.52-.28v.22c.5.09.99.18 1.47.27 2.58.52 6.34 1.39 9.38 2.59v.09c0 4.57-.93 9.01-2.69 13.12-2.02-1.91-4.89-4.2-8.27-6.66l-.03.23c7.55 5.5 11.95 9.75 11.23 11.2l-.29.44v-.09c.04-2.05-4.97-6.34-11.03-10.75-.01.08-.03.17-.04.25 5.64 4.12 10.28 8.06 10.8 10.12l-.02.11-2.68 4.16c-.78-1.69-4.53-4.91-9.78-8.74l-.09.21c5.57 4.07 9.46 7.44 9.79 8.94.04.18.02.32-.05.44l-.35.55c0-.18-.04-.42-.16-.72-.39-1.29-3.77-4.4-9.5-8.64-.03.07-.07.14-.11.21 2.87 2.13 5.16 3.97 6.76 5.43a34.229 34.229 0 01-3.35 3.89c-5.85 5.84-13.43 9.26-21.53 9.77v-6.71c-.07.01-.15.01-.22.02v11.43h-.6v-11.38c-.07 0-.14.01-.22.02v10.93h-2.16v-10.93c-.07 0-.15-.01-.22-.01v11.38h-.61v-11.42c-.07-.01-.15-.01-.22-.02v6.71c-8.11-.51-15.69-3.93-21.54-9.78a35 35 0 01-4.14-5c.95-.37 1.93-.7 2.78-.94 1.87-.54 3.85-1 5.92-1.39-.04-.06-.08-.13-.12-.19-2.05.39-4 .84-5.86 1.38-2.3.64-6.03 2.08-6.74 3.35l-.32-.52c.18-.67 2.46-2.2 6.91-3.45 1.9-.54 3.77-.99 5.63-1.35-.04-.06-.07-.13-.11-.19-1.85.36-3.7.8-5.58 1.34-3.61 1.01-5.96 2.25-6.76 3.13L40 114c.75-1.08 4.13-2.47 7.26-3.38 1.66-.48 3.39-.9 5.19-1.27-.03-.07-.06-.13-.09-.2a62.8 62.8 0 00-5.16 1.26c-.72.21-6.73 2-7.49 3.65l-.31-.54c.14-.96 3.13-2.42 7.66-3.74 1.62-.47 3.3-.88 5.05-1.24-.03-.07-.05-.13-.08-.2-1.74.36-3.42.77-5.03 1.24-.78.23-2.33.7-3.84 1.29-2.29-4.57-3.5-9.63-3.5-14.86 0-.07 0-.14.01-.21 2.54-.96 5.8-1.82 8.83-2.42.65-.13 1.32-.25 1.99-.36v-.22c-.69.12-1.37.24-2.03.37-4.31.86-11.69 2.82-13.28 4.97v-.6c.6-1.66 7.24-3.82 13.21-5.01.69-.13 1.4-.26 2.11-.38v-.22c-.73.12-1.45.25-2.15.39-6.07 1.21-11 2.94-12.74 4.38v-1.94c1.72-1.72 7.64-3.6 12.95-4.6.64-.12 1.29-.24 1.95-.36v-.22c-.67.12-1.34.24-1.99.36-4.68.89-11.81 2.89-13.33 4.96v-.6c.48-1.3 5.53-3.52 13.21-5.01.69-.13 1.39-.26 2.11-.38v-.22c-.73.12-1.45.25-2.15.39-3.16.62-6.06 1.4-8.34 2.22.47-3.35 1.45-6.58 2.89-9.61 2.05.67 4.63 1.72 7.6 3.07v-.24c-5.38-2.45-9.5-3.89-11.45-3.89-.3 0-.55.03-.74.1l.27-.51c.17-.1.44-.16.8-.16 1.74 0 5.71 1.33 11.13 3.77v-.24c-5.2-2.34-9.23-3.75-11.13-3.75-.08 0-.15 0-.22.01l2.46-4.57c.26-.05.52-.05.7-.06h.08c1.61.02 4.37.86 8.1 2.41v-.23c-3.72-1.54-6.48-2.37-8.1-2.4h-.09c-.29 0-.79.01-1.2.2l.27-.48c.27-.19.68-.29 1.23-.29 1.57 0 4.23.78 7.89 2.3v-.23c-.27-.11-.54-.22-.8-.33.26-.05.53-.11.8-.16v-.22c-.4.08-.79.16-1.17.24-.37-.15-.73-.29-1.09-.41.72-.16 1.48-.31 2.25-.46v-.22c-.91.17-1.8.35-2.63.55-1.16-.42-2.21-.74-3.12-.96 1.58-.53 3.55-1.05 5.76-1.52v-.22c-2.39.5-4.5 1.07-6.16 1.65-.36-.08-.69-.13-1-.16 1.78-.77 4.21-1.49 7.16-2.12v-.22c-.24.05-.48.1-.71.15.23-.23.47-.45.71-.67v-.31c-.38.34-.75.69-1.11 1.05l-.02.02c-.37.09-.74.17-1.09.26.22-.24.44-.48.68-.71.5-.5 1.02-.97 1.54-1.44v-.17l.19-.15h.18c5.71-4.92 12.74-7.81 20.22-8.27v.61c-7.09.44-13.79 3.1-19.29 7.65h.35c5.42-4.41 11.98-7 18.93-7.44v7.44h.22V57.93h.61v12.05h.22V58.36h2.16v11.62h.22V57.93h.6v12.05h.22v-7.44c6.95.44 13.51 3.02 18.92 7.44h.35c-5.5-4.55-12.19-7.21-19.28-7.65v-.61c7.47.46 14.5 3.34 20.21 8.26h.2l.14.14v.16c.53.47 1.06.95 1.57 1.46.23.23.44.46.66.69-.36-.09-.73-.19-1.11-.28-.37-.37-.74-.72-1.12-1.06v.31c.24.22.47.43.7.66-.23-.05-.47-.11-.7-.16v.22c4.23.94 7.82 2.17 9.21 3.19l.48.76c-1.82-1.32-5.92-2.51-9.69-3.29V73c3.5.73 7.26 1.8 9.19 3l1.07 1.85c-1.82-.84-5.86-1.96-10.26-2.82v.22c5.37 1.05 10.31 2.53 11.01 3.3l.4.71c-1.96-1.11-6.04-2.32-11.41-3.38v.22c1.85.37 3.55.75 5.06 1.14 2.91 4.25 4.77 9.08 5.48 14.18-2.29-.85-5.26-1.64-8.85-2.36-.55-.11-1.11-.21-1.68-.31v.22c.55.1 1.1.2 1.64.3 7.28 1.46 11.99 3.22 13.63 5.09l-.02.65zm-15.27-6.27V70.12l-.14-.14H50.69l-.19.15V100.3c.02 2.78.55 5.49 1.54 8.02.03.07.05.13.08.2.08.2.17.4.25.6.03.07.06.13.09.2.31.7.66 1.38 1.05 2.04.04.06.07.13.11.19.12.2.24.4.37.6.04.06.08.13.12.19.87 1.35 1.9 2.62 3.06 3.78 3.84 3.83 8.72 6.13 13.91 6.62.07.01.15.01.22.02.2.02.41.03.61.05.07 0 .15.01.22.01.34.02.68.03 1.02.03.38 0 .76-.01 1.14-.03.07 0 .15-.01.22-.02.2-.01.4-.03.6-.04.07-.01.15-.01.22-.02 5.24-.5 10.1-2.77 13.88-6.54 1.75-1.74 3.17-3.71 4.25-5.84.04-.07.07-.14.11-.21.09-.19.18-.37.27-.56l.09-.21c.8-1.79 1.37-3.69 1.67-5.65.01-.08.03-.17.04-.25.04-.26.07-.53.1-.79l.03-.23c.07-.75.11-1.5.11-2.26V88.74zm-6.85 27.28c-4.25 4.24-9.89 6.57-15.88 6.57-5.89 0-11.5-2.36-15.8-6.64-4.25-4.24-6.6-9.84-6.6-15.77V70.23h44.87v30.05c-.02 5.95-2.36 11.53-6.59 15.74z"/><path fill="#039" d="M70.4 96.92c0 .84.32 1.61.84 2.16.52.56 1.24.9 2.01.9.79 0 1.5-.34 2.01-.9.52-.55.84-1.32.84-2.16v-4.09h-5.7v4.09m1.31-3.1a.57.57 0 11-.57.57c0-.32.25-.57.57-.57zm3.16 0c.31 0 .57.25.57.57s-.25.57-.57.57a.57.57 0 110-1.14zm-1.58 1.51a.57.57 0 110 1.14.57.57 0 010-1.14zm-1.58 1.59a.57.57 0 110 1.14.57.57 0 010-1.14zm3.15 0c.31 0 .57.25.57.57s-.25.57-.57.57a.57.57 0 110-1.14zm-4.46-9.89c0 .84.32 1.61.84 2.16.52.56 1.24.9 2.01.9.79 0 1.5-.34 2.01-.9.52-.55.84-1.32.84-2.16v-4.09h-5.7v4.09m1.31-3.1a.57.57 0 11-.57.57c0-.32.25-.57.57-.57zm3.16 0a.57.57 0 11-.57.57c.01-.31.26-.57.57-.57zm-1.58 1.52a.57.57 0 11-.57.57c0-.32.25-.57.57-.57zm-1.58 1.59a.57.57 0 11-.57.57c0-.32.25-.57.57-.57zm3.15-.01a.57.57 0 11-.57.57c.01-.31.26-.57.57-.57zM62.5 96.92c0 .84.32 1.61.84 2.16.52.56 1.23.9 2.01.9.79 0 1.5-.34 2.01-.9.52-.55.84-1.32.84-2.16v-4.09h-5.7v4.09m1.31-3.1a.57.57 0 110 1.14c-.32 0-.57-.25-.57-.57 0-.32.25-.57.57-.57zm3.15 0c.31 0 .57.25.57.57s-.25.57-.57.57a.57.57 0 110-1.14zm-1.58 1.51a.57.57 0 11-.57.57c.01-.31.26-.57.57-.57zm-1.57 1.59a.57.57 0 110 1.14c-.32 0-.57-.25-.57-.57s.25-.57.57-.57zm3.15 0c.31 0 .57.25.57.57s-.25.57-.57.57a.57.57 0 110-1.14zm11.32 0c0 .84.32 1.61.84 2.16.52.56 1.24.9 2.01.9.79 0 1.5-.34 2.01-.9.52-.55.84-1.32.84-2.16v-4.09h-5.7v4.09m1.31-3.1a.57.57 0 11-.57.57c.01-.32.26-.57.57-.57zm3.16 0c.31 0 .57.25.57.57s-.25.57-.57.57a.57.57 0 110-1.14zm-1.58 1.51a.57.57 0 110 1.14.57.57 0 010-1.14zm-1.58 1.59a.57.57 0 110 1.14.57.57 0 010-1.14zm3.16 0c.31 0 .57.25.57.57s-.25.57-.57.57a.57.57 0 110-1.14zm-12.35 9.79c0 .84.32 1.61.84 2.16.52.56 1.24.9 2.01.9.79 0 1.5-.34 2.01-.9.52-.55.84-1.32.84-2.16v-4.09h-5.7v4.09m1.31-3.1a.57.57 0 110 1.14.57.57 0 010-1.14zm3.16.01a.57.57 0 11-.57.57c.01-.32.26-.57.57-.57zm-1.58 1.51a.57.57 0 11-.57.57c0-.32.25-.57.57-.57zm-1.58 1.59a.57.57 0 11-.57.57c0-.32.25-.57.57-.57zm3.15 0a.57.57 0 11-.57.57c.01-.32.26-.57.57-.57z"/><g><path fill="none" d="M172 160V32c0-6.6-5.4-12-12-12H32c-6.6 0-12 5.4-12 12v128c0 6.6 5.4 12 12 12h128c6.6 0 12-5.4 12-12z" opacity=".4"/><path fill="none" d="M0 0v192h192V0H0z"/><path fill="#DFDFDF" d="M160 20c6.6 0 12 5.4 12 12v128c0 6.6-5.4 12-12 12H32c-6.6 0-12-5.4-12-12V32c0-6.6 5.4-12 12-12h128m0-8H32c-11.03 0-20 8.97-20 20v128c0 11.03 8.97 20 20 20h128c11.03 0 20-8.97 20-20V32c0-11.03-8.97-20-20-20z"/><path fill="#FFF" fill-opacity=".2" d="M160 20H32c-6.6 0-12 5.4-12 12v1c0-6.6 5.4-12 12-12h128c6.6 0 12 5.4 12 12v-1c0-6.6-5.4-12-12-12z"/><path fill="#212121" fill-opacity=".1" d="M160 172H32c-6.6 0-12-5.4-12-12v-1c0 6.6 5.4 12 12 12h128c6.6 0 12-5.4 12-12v1c0 6.6-5.4 12-12 12z"/><radialGradient id="a" cx="23.768" cy="23.933" r="204.625" gradientUnits="userSpaceOnUse"><stop offset="0" stop-color="#fff" stop-opacity=".1"/><stop offset="1" stop-color="#fff" stop-opacity="0"/></radialGradient><path fill="url(#a)" d="M160 172H32c-6.6 0-12-5.4-12-12V32c0-6.6 5.4-12 12-12h128c6.6 0 12 5.4 12 12v128c0 6.6-5.4 12-12 12z"/></g></svg>