<svg xmlns="http://www.w3.org/2000/svg" width="192" height="192"><path fill="#0038A8" d="M160 20H32c-6.6 0-12 5.4-12 12v128c0 6.6 5.4 12 12 12h128c6.6 0 12-5.4 12-12V32c0-6.6-5.4-12-12-12z"/><path fill="#FFF" d="M160 20H32c-6.6 0-12 5.4-12 12v104h152V32c0-6.6-5.4-12-12-12z"/><path fill="#D52B1E" d="M160 20H32c-6.6 0-12 5.4-12 12v24h152V32c0-6.6-5.4-12-12-12z"/><path fill="#009B3A" d="M110.54 93.85c.12-.08.26-.17.39-.25.11-.07.21-.13.29-.18.1-.06.27-.12.47-.18.33-.1.74-.23 1.01-.47.25-.21.39-.47.33-.63-.02-.05-.07-.13-.22-.13h-.01c-.33.01-.85.24-1.13.46-.14.11-.22.27-.3.43-.08.17-.16.32-.3.41-.05.03-.12.07-.19.12.21-.42.39-1.1.51-1.78.2-1.18.21-2.49-.13-2.64-.02-.01-.04-.01-.07-.01-.19 0-.39.34-.55.83-.11-.55-.26-.95-.45-.97-.05 0-.1.01-.14.06-.16.17-.28.71-.32 1.42-.23-.55-.47-1-.68-1.21.1-.1.22-.21.33-.31.09-.09.18-.17.25-.24.08-.08.25-.17.43-.27.31-.16.69-.37.92-.65.2-.24.29-.51.22-.66-.04-.09-.13-.12-.25-.1-.33.07-.79.4-1.03.66-.12.13-.17.31-.22.48-.05.18-.1.35-.22.46-.04.04-.1.09-.17.16.13-.42.2-1.08.19-1.86-.02-1.19-.25-2.48-.6-2.56-.06-.01-.12.01-.18.06-.13.13-.23.44-.29.87-.2-.5-.42-.86-.61-.86h-.01c-.05 0-.09.03-.12.07-.14.18-.16.72-.08 1.43-.4-.6-.77-1.01-1-1.08.18-.17.4-.38.5-.61.09-.19.11-.38.06-.47-.04-.07-.12-.08-.21-.03-.21.11-.47.43-.6.65-.06.11-.07.24-.07.36-.01.13-.01.24-.07.34-.02.03-.05.07-.08.12.02-.3-.04-.73-.16-1.21v-.02c-.19-.75-.54-1.54-.8-1.54h-.01c-.04 0-.08.03-.1.07-.07.1-.09.32-.07.61-.18-.23-.35-.39-.48-.39-.01 0-.03 0-.04.01-.04.01-.06.04-.08.08-.06.15.01.49.16.92-.35-.3-.66-.49-.83-.49a.15.15 0 00-.11.04c-.08.08-.02.28.12.52-.13-.09-.27-.17-.41-.26v-.02c.02-.02.04-.04.04-.07.03-.23-.43-.82-1.11-1.43-.71-.64-1.43-1.1-1.72-1.1a.2.2 0 00-.09.02c-.04.02-.06.05-.06.1-.02.17.22.53.61.95-.49-.21-.92-.34-1.15-.34-.1 0-.16.02-.19.07-.02.03-.02.06-.01.1.06.2.52.56 1.19.94-.19-.01-.37-.02-.53-.02-.26 0-.73.02-.84.16-.02.03-.03.06-.03.1.05.27 1.08.55 2.01.67.36.05.71.07 1 .07.21 0 .53-.02.72-.09h.02c.08.06.17.12.25.18a.882.882 0 00-.29-.06c-.09 0-.15.03-.17.08-.08.16.2.49.59.82-.11-.01-.22-.02-.31-.02-.35 0-.43.1-.44.18-.03.27.73.65 1.47.87.42.12.83.19 1.12.19h.04a.8.8 0 01-.17.08c-.03.01-.06 0-.1-.02a.475.475 0 00-.44.03c-.29.15-.51.42-.58.61-.03.08-.01.12 0 .15.02.03.06.06.14.06.09 0 .21-.04.35-.11.23-.11.35-.26.46-.39.06-.07.11-.14.18-.18.06-.04.14-.08.22-.13.11.24.27.52.47.82-.36-.17-.68-.28-.88-.28-.18 0-.24.08-.26.14-.11.37.82 1.25 1.78 1.89.01.01.02.01.03.02.59.4 1.16.68 1.56.8-.13.02-.25.04-.3.05-.04 0-.09-.03-.14-.07a.723.723 0 00-.45-.16c-.05 0-.1 0-.16.02-.48.09-.86.42-1 .61-.06.08-.07.16-.04.22.03.06.13.14.38.14.08 0 .18-.01.28-.03.35-.06.57-.22.75-.35l.09-.06c.02.29.16.73.36 1.22-.38-.28-.7-.44-.89-.44-.11 0-.16.05-.19.1-.18.33.56 1.38 1.38 2.2.26.26.51.48.74.67a.27.27 0 00-.1.11.86.86 0 00-.24-.04h-.01c-.48 0-.91.25-1.08.41-.07.07-.1.15-.07.22.03.08.13.14.28.18-.15.41.1 1.52.47 2.49.13.34.27.64.4.9a.162.162 0 00-.14-.07c-.04 0-.08.02-.13.06-.02-.01-.03-.02-.05-.03-.26-.12-.51-.15-.68-.15-.18 0-.35.03-.47.08-.09.04-.15.1-.15.18-.01.15.16.32.48.47.16.08.31.12.44.14-.11.24-.21.53-.3.84-.15-.68-.36-1.17-.61-1.17-.02 0-.05 0-.07.01-.4.16-.52 1.66-.42 3.03v.02c.03.33.07.66.12.97-.06.04-.12.09-.19.14-.04-.05-.07-.1-.13-.15-.12-.11-.25-.19-.38-.26 0-.15-.01-.28-.05-.36a.256.256 0 00-.16-.13h-.04c-.12 0-.29.1-.47.27-.03 0-.06-.01-.09-.01h-.05c-.11.01-.19.05-.22.13-.02.06-.01.14.03.23-.39.48-.82 1.18-1.21 2.01-.43.9-.7 1.74-.76 2.28-.06-.19-.11-.37-.13-.45-.01-.06.02-.13.07-.21.09-.18.21-.42.08-.81-.19-.61-.66-1.04-.93-1.18-.13-.07-.25-.05-.32.04-.08.11-.09.31-.04.58-.55.25-1.34.97-2.08 1.93-.78 1.01-1.28 1.97-1.38 2.57-.56.27-1.09.56-1.57.84-.7-.5-1.54-1.06-2.44-1.5-1.09-.76-2.44-1.84-3.65-2.82-.45-.36-.88-.71-1.25-1l-.05.05c.33.36.71.75 1.11 1.15-.13-.12-.25-.24-.37-.36-.42-.41-.82-.79-1.17-1.13l-.01-.01h-.09l.04.06c.24.31.51.65.79.99-.24-.22-.47-.44-.7-.65-.42-.39-.82-.77-1.18-1.09l-.05.04c-.05-.07-.1-.15-.15-.22-.32-.48-.62-.93-.89-1.32l-.06.04c.18.38.38.79.6 1.22a94.946 94.946 0 00-.82-1.51c-.12-.42-.23-.82-.34-1.18l-.07.01c.02.15.04.31.07.47-.11-.37-.21-.74-.31-1.06l-.07.01c.04.28.08.57.13.88h-.01c-.09-.51-.19-.99-.27-1.42l-.03.01c-.03-.29-.07-.56-.1-.82h-.07c-.02.53-.02 1.12-.01 1.75v.3l-.09-1.18c-.04-.58-.09-1.12-.13-1.6h-.07c-.01.19-.02.39-.04.59-.01-.28-.01-.54-.02-.79h-.07c-.06.43-.1.91-.15 1.4.01-.12.02-.24.02-.35.04-.58.08-1.13.11-1.61l-.07-.01c-.01.06-.03.13-.04.2.03-.38.06-.74.08-1.07l-.07-.01c-.12.51-.23 1.09-.35 1.7-.01.07-.03.15-.04.22.04-.37.09-.74.13-1.1.07-.58.13-1.12.18-1.6l-.07-.01c-.04.15-.09.32-.13.49.05-.4.09-.79.13-1.14l-.07-.01c-.11.41-.22.88-.34 1.36.03-.12.05-.25.08-.37.1-.46.19-.89.27-1.3.08-.25.16-.48.23-.71l-.07-.03c-.1.19-.2.39-.3.59.13-.38.26-.74.37-1.07.08-.16.17-.32.25-.46l-.06-.04c-.22.28-.46.6-.7.94.25-.37.49-.72.7-1.03l-.05-.04c.16-.27.32-.52.45-.76l-.06-.04c-.31.36-.64.77-.99 1.2.06-.11.13-.22.19-.33.28-.48.54-.93.77-1.33l-.06-.04c-.24.28-.48.6-.74.92.03-.06.07-.12.1-.18.27-.48.52-.93.74-1.33l-.06-.04c-.28.34-.57.74-.88 1.15l.28-.4c.27-.38.51-.73.74-1.06l.05-.05c.37-.38.72-.74 1.02-1.07l.02-.02-.04-.06c-.35.19-.72.41-1.11.64.16-.15.32-.31.47-.46.39-.38.76-.73 1.08-1.05l.15-.12-.01-.01c.18-.09.36-.17.52-.25l-.02-.07c-.06.01-.12.03-.18.05.31-.14.61-.28.87-.4l-.02-.03c.15-.02.29-.04.43-.05v-.07c-.24-.02-.49-.03-.75-.04.28-.11.55-.22.8-.32.21-.04.41-.09.59-.13l-.01-.07c-.4.01-.85.04-1.32.07l.69-.21c.43-.13.83-.25 1.18-.36l-.01-.07c-.4.04-.85.11-1.32.18-.19.03-.38.06-.56.08.42-.11.85-.21 1.26-.31.43-.11.84-.21 1.2-.3l-.01-.07c-.36.02-.75.05-1.16.09.02 0 .03-.01.05-.01.4-.08.79-.16 1.12-.23l-.01-.07c-.18 0-.36.01-.56.01.34-.03.66-.05.95-.08v-.07c-.34-.04-.73-.07-1.13-.09.25-.03.51-.07.75-.1.4-.05.78-.1 1.11-.15v-.07c-.07 0-.15-.01-.23-.01h.72l.01-.07c-.04-.01-.1-.02-.14-.03.24.01.48.01.69.02l.01-.07c-.3-.07-.64-.13-.99-.19h.01c.35.03.68.07.98.09l.01-.07c-.12-.03-.24-.06-.37-.1.25.05.49.1.7.14l.02-.07c.13.02.25.05.36.07h.01c.04.01.09.02.14.03l.02-.07c-.07-.03-.15-.05-.22-.08-.2-.13-.43-.26-.66-.41a.076.076 0 00-.04-.02l.87.17.02-.07c-.2-.07-.42-.14-.65-.22l.54.06c.35.04.69.07.98.1l.01-.07c-.31-.08-.65-.16-1.01-.24-.54-.12-1.09-.25-1.55-.39.03-.01.06-.03.1-.04l.5-.06c.32.1.64.2.94.29.3.09.59.18.84.26l.03-.07c-.24-.12-.51-.24-.81-.37l-.39-.18c.53-.06 1.04-.11 1.37-.15v-.07l-1.23-.04c.82-.14 2.02-.33 2.61-.43l-.01-.07-.9.02c.25-.07.48-.13.65-.18l-.01-.07-2.12.27c.11-.05.21-.11.31-.16l-.03-.07-.91.23c.37-.16.7-.3.94-.4l-.02-.07-1.26.33.24-.18c.32-.2.67-.42 1.02-.62.26-.16.51-.31.73-.45l-.03-.06-.07.03c-.33.16-.71.34-1.11.52l-.03-.05-.07.04c-.15.09-.31.18-.48.28-.1.05-.2.09-.3.14.11-.15.22-.31.33-.46.18-.25.35-.48.5-.7l-.06-.05-.05.05c-.38.4-.85.9-1.33 1.39.14-.24.3-.48.45-.72.14-.22.28-.43.4-.63l-.06-.04-.05.06c-.35.4-.8.92-1.24 1.4l-.01.01c.08-.16.16-.31.25-.47l.15-.18-.03-.04c.03-.05.05-.1.08-.15.15-.28.3-.55.42-.79l-.06-.04-.06.08c-.28.38-.63.85-.99 1.33l-.42.32c.16-.34.34-.69.51-1.03.15-.29.29-.56.41-.82l-.06-.04-.05.07c-.3.43-.68.97-1.07 1.51l-.04-.03-.1.09c.07-.2.14-.4.21-.59.11-.31.22-.6.31-.88l-.07-.03-.04.08c-.24.46-.54 1.02-.84 1.58l.18-.71c.09-.35.17-.67.24-.98l-.02-.01c.04-.09.08-.18.11-.26l-.07-.03-.06.11c-.45.77-1.03 1.78-1.61 2.72l.09-.34c.11-.2.21-.38.29-.53l-.06-.04-.11.13.12-.45c.11-.4.21-.77.3-1.12l-.07-.02-.05.11c-.26.63-.57 1.4-.91 2.18l-.22.26c.12-.38.25-.76.38-1.14.13-.39.26-.76.37-1.1l-.07-.03-.05.11c-.34.71-.76 1.6-1.2 2.48l.21-.94c.09-.4.18-.78.25-1.13l-.07-.02-.04.1c-.26.73-.59 1.65-.94 2.55l.03-.33c.09-.16.17-.31.23-.43l-.06-.04-.14.17c.03-.28.06-.57.1-.85.05-.45.1-.88.14-1.27l-.07-.01-.03.14c-.18.74-.4 1.66-.64 2.59l-.14.17.06-.96c.03-.45.06-.87.08-1.26l-.07-.01-.03.15c-.06.29-.12.62-.19.96.04-.28.09-.56.12-.81l-.07-.01-.04.13c-.19.65-.42 1.45-.66 2.26.07-.32.13-.64.2-.96.1-.45.19-.87.27-1.25l-.07-.02-.04.12c-.28.81-.64 1.85-1.01 2.86.02-.52.05-1.06.08-1.6.03-.52.06-1.01.08-1.46l-.07-.01-.03.16c-.19 1.08-.43 2.48-.7 3.82 0-.54 0-1.09.01-1.65.01-.52.01-1 .01-1.45h-.07l-.02.16c-.1.81-.23 1.8-.38 2.81l-.03-.01-.23.82c-.01-.58-.01-1.19 0-1.8 0-.52.01-1 0-1.45h-.07l-.02.16c-.1.84-.23 1.88-.38 2.93-.05-.22-.09-.44-.14-.66-.1-.49-.2-.96-.3-1.39l-.07.01.01.13c.07.83.16 1.86.23 2.91-.09-.4-.17-.8-.25-1.2-.1-.5-.2-.97-.29-1.39l-.07.01.01.15c.07.83.15 1.85.22 2.89-.11-.33-.22-.66-.32-.99-.16-.5-.31-.96-.46-1.39l-.07.02.03.17c.15.79.34 1.76.51 2.75l-.18-.61c-.01-.02-.01-.04-.02-.06-.04-.16-.08-.33-.11-.49-.12-.51-.23-.99-.34-1.43l-.07.01.02.16c.01.13.03.28.04.41l-.02.01.03.15.03.19c.09.86.19 1.84.27 2.81-.15-.43-.3-.87-.44-1.31-.17-.5-.32-.97-.47-1.4l-.07.02.03.16c.17.79.37 1.76.56 2.75-.12-.27-.23-.55-.35-.83-.2-.48-.39-.94-.58-1.35l-.07.03.04.15c.17.59.37 1.27.58 1.99l-.12-.24c-.23-.48-.44-.92-.65-1.33l-.07.03.05.14c.34.97.77 2.22 1.17 3.45-.22-.36-.45-.72-.67-1.08-.27-.44-.52-.86-.77-1.23l-.06.04.06.14c.35.76.78 1.7 1.21 2.66-.21-.32-.42-.65-.62-.98-.27-.44-.53-.85-.78-1.23l-.06.04.07.16c.03.05.05.12.08.17l-.05.03.06.14c.24.54.52 1.17.81 1.84l.09.72c-.19-.34-.37-.69-.56-1.04-.24-.46-.48-.9-.7-1.29l-.07.03.05.14c.19.5.42 1.08.65 1.69-.22-.33-.44-.65-.64-.94l-.06.04.07.15c.39.78.88 1.75 1.36 2.73.03.09.07.18.1.27l.03.22c-.24-.24-.47-.48-.7-.72-.35-.36-.67-.69-.98-.99l-.05.05.09.12c.38.52.84 1.13 1.31 1.77l-.01.01v.01c-.12-.12-.24-.24-.35-.36-.35-.35-.68-.69-.98-.98l-.05.05.1.13c.53.7 1.18 1.56 1.83 2.45l.01.09c-.27-.2-.54-.41-.81-.62-.39-.3-.75-.58-1.09-.83l-.05.05.1.1c.68.69 1.55 1.58 2.38 2.47-.35-.2-.7-.41-1.05-.62-.41-.25-.8-.48-1.16-.68l-.04.06.12.1c.63.51 1.41 1.14 2.18 1.79-.35-.2-.69-.41-1.04-.62-.41-.25-.8-.48-1.16-.69l-.04.06.11.09c.56.46 1.23 1.01 1.92 1.59l.47.52c-.33-.17-.67-.35-1-.52-.42-.22-.82-.44-1.19-.62l-.04.06.12.09c.76.56 1.74 1.27 2.67 2l.24.27c-.56-.26-1.16-.57-1.75-.88-.42-.22-.82-.43-1.19-.61l-.04.06.14.1c.76.55 1.72 1.25 2.66 1.96-.37-.13-.75-.27-1.13-.41-.44-.16-.85-.32-1.23-.44l-.03.07.12.07c.22.12.46.26.71.39-.17-.05-.33-.11-.49-.15l-.03.07.15.08c.87.43 2 1 3.07 1.57-.47-.11-.96-.24-1.44-.36-.45-.12-.88-.23-1.27-.32l-.02.07.14.06c.61.26 1.35.58 2.1.92l-.8-.18-.02.07 1.37.68c-.35-.05-.7-.11-1.05-.17-.46-.08-.89-.15-1.29-.2l-.02.07.12.04c.87.28 1.98.65 3.06 1.03-.39-.01-.78-.01-1.17-.03-.46-.01-.89-.03-1.29-.03l-.01.07.15.03c.76.14 1.7.32 2.65.52-.4-.01-.81-.02-1.21-.04-.46-.02-.89-.03-1.29-.04l-.01.07.13.02c.45.09.97.19 1.52.3h-.06l-.01.07.91.22h-.05l-.01.07h.01c-.08.02-.16.03-.24.05-.45.09-.88.17-1.27.26l.01.07h.12c.68-.02 1.52-.05 2.4-.07l.62.18c-.44.1-.9.2-1.35.29-.45.09-.88.18-1.26.27l.01.07h.12c.63-.03 1.39-.06 2.18-.08l.65.11c-.25.09-.5.18-.75.26-.44.15-.85.29-1.22.43l.02.07.14-.03c.88-.15 2-.35 3.1-.52l.04.01.36.08c-.6.11-1.15.22-1.53.29v.07l1.75.12c-.41.19-.84.39-1.26.57-.42.19-.81.36-1.17.53l.02.07.13-.04c.86-.23 1.97-.52 3.06-.78-.33.21-.66.42-.99.62-.39.24-.75.46-1.08.68l.03.06.14-.06c.53-.22 1.16-.48 1.82-.75h1.28c-.39.22-.8.44-1.21.66-.4.21-.79.42-1.13.61l.03.07.11-.04c.85-.29 1.94-.66 3.02-1-.31.23-.62.46-.93.68-.37.27-.72.52-1.03.76l.04.06.13-.06c1.01-.5 2.38-1.19 3.63-1.74h.62l.06-.07c.63.34 1.3.75 1.94 1.16-.95.57-1.7 1.02-2.25 1.02-.07 0-.13-.01-.19-.02-.99-.23-2.31-.99-2.32-1l-.05-.03v.06c0 .02-.08 1.74 1.97 2.05.1.01.2.02.31.02 1.08 0 2.27-.77 3.38-1.56.06.04.13.08.19.12 1.08.71 2 1.32 2.43 1.4h.18c.66 0 2.25-.18 2.84-1.81l.02-.07-.07.02c-.32.09-.61.18-.9.27-.61.2-1.13.36-1.68.36-.48 0-.93-.13-1.43-.4-.15-.06-.42-.25-.76-.49.37-.27.71-.5 1.01-.66.01.01.01.02.02.02.36.37 1.49.62 2.82.62h.13c1.71-.03 3.06-.45 3.08-.95a.41.41 0 00-.12-.27c-.28-.29-1.05-.5-2.01-.58.21-.11.4-.23.58-.34.25-.12.51-.26.77-.41.04.04.09.07.13.11.12.1.24.2.33.28.12.09.25.29.41.51.25.37.57.82.96 1.06.22.14.45.22.63.22.13 0 .23-.04.28-.11.03-.05.07-.13.02-.27-.14-.41-.62-.95-.99-1.21-.19-.13-.41-.16-.63-.19-.23-.03-.45-.06-.62-.2-.06-.06-.16-.13-.26-.22.19.03.42.05.69.05.49 0 1.08-.05 1.68-.15l.04-.01c1.69-.28 3.04-.83 3.07-1.25 0-.06-.02-.12-.06-.17-.15-.16-.58-.25-1.21-.25.61-.36 1.02-.72.98-.95-.02-.14-.2-.22-.51-.22-.35 0-.87.1-1.45.26.34-.31.64-.62.86-.89.07.01.15.03.22.04.14.02.28.05.38.06.13.02.32.11.54.21.36.17.81.38 1.21.38h.05c.34 0 .62-.12.69-.29.04-.1 0-.2-.09-.28-.29-.26-.9-.45-1.31-.48h-.05c-.18 0-.36.08-.52.15-.16.07-.32.14-.48.14-.03 0-.06 0-.08-.01-.07-.01-.17-.03-.29-.05.46-.18 1.11-.62 1.79-1.19 1.03-.89 2-2.04 1.83-2.43-.02-.06-.08-.12-.23-.12-.21 0-.54.14-.93.38.31-.57.47-1.03.33-1.2-.03-.04-.08-.06-.14-.06-.26 0-.76.38-1.33.99.17-.54.27-1.01.3-1.34.14-.03.3-.05.46-.07.12-.02.24-.03.33-.05.03 0 .06-.01.1-.01.11 0 .24.02.39.03.19.02.4.05.61.05.19 0 .35-.02.49-.06.31-.09.53-.27.54-.45.01-.09-.05-.17-.15-.21-.15-.07-.38-.1-.65-.1-.2 0-.4.02-.56.06-.17.04-.31.16-.44.28-.14.12-.27.24-.43.26-.06.01-.14.02-.23.04.33-.28.76-.8 1.17-1.45.64-1.01 1.15-2.22.91-2.5a.161.161 0 00-.13-.06c-.17 0-.45.22-.76.57.11-.55.13-.98-.03-1.07-.02-.02-.05-.02-.08-.02-.23 0-.58.51-.91 1.17 0-.49-.03-.91-.09-1.19.01-.01.03-.01.04-.02 0-.07.02-.1.04-.13zm-3.56 9.55c-.03.02-.06.04-.09.05.02-.03.04-.06.06-.08l.03.03zm1.85-4.94c.12.05.24.1.35.15-.12.16-.25.36-.38.59.03-.28.04-.53.03-.74zm-.11-3.53c-.15-.26-.29-.46-.42-.6.18-.01.33-.05.46-.11-.03.22-.04.46-.04.71zm-.16-5.53c.02.05.05.09.08.14 0 .19.03.42.07.67-.23-.32-.44-.57-.62-.72.16-.03.32-.07.47-.09zm.89 4.46c-.03-.07-.05-.13-.08-.18.11.08.22.14.32.19-.09-.01-.18-.01-.24-.01zm.06.17c.11 0 .22-.01.33-.01-.06.17-.12.38-.18.61-.05-.23-.1-.43-.15-.6zm-.39 4.37c-.12-.05-.22-.11-.27-.14-.01-.01-.02-.03-.03-.04-.02-.21-.05-.37-.11-.47.14.27.28.49.41.65zm-3.33 4.4c.01-.03.02-.05.02-.08.01.01.03.01.04.02a.17.17 0 01-.06.06zm-3.46 2.53c.12.13.22.24.27.37.08.19.17.43.24.65-.42.06-.93.19-1.46.38.39-.56.67-1.08.84-1.52.04.04.08.08.11.12zm3.89-20.12c.05-.07.09-.14.13-.2l.03-.03c-.01.22.08.56.23.95-.19-.18-.37-.34-.53-.46l-.01-.01c.04-.07.09-.16.15-.25zm-14.91-1.5c.05.01.1.02.14.03.17.07.33.14.5.21-.22-.09-.44-.16-.64-.24zm-5.5 17.19l.03.16-.03-.18c-.01 0-.01.01 0 .02zm5.34 7.36l.08.01.02.01c-.16.04-.33.09-.49.13.13-.06.26-.11.39-.15zm-2.64-3.96c-.06-.07-.12-.13-.18-.2l-.43-.49-.18-.27c.24.31.51.63.79.96zm-1.15-16.88l-.01-.02c-.03.02-.06.03-.09.05l-.53.15c-.25.07-.51.15-.77.22.37-.15.75-.3 1.12-.45.11-.01.21-.03.32-.04l.53-.06-.57.15z"/><path fill="#FEDF00" d="M93.76 96.51l-1.34 3.95L96 97.99l3.58 2.47-1.34-3.95 3.13-2.47h-4.03L96 90.08l-1.34 3.96h-4.03z"/><path d="M96 64.95c-17.12 0-31.05 13.93-31.05 31.05S78.88 127.05 96 127.05s31.05-13.93 31.05-31.05S113.12 64.95 96 64.95zm0 61.32c-16.69 0-30.27-13.58-30.27-30.27S79.31 65.73 96 65.73 126.27 79.31 126.27 96 112.69 126.27 96 126.27zm0-55.64c-13.99 0-25.37 11.38-25.37 25.37S82.01 121.37 96 121.37s25.37-11.38 25.37-25.37S109.99 70.63 96 70.63zm0 50.39c-13.8 0-25.02-11.22-25.02-25.02S82.2 70.98 96 70.98 121.02 82.2 121.02 96 109.8 121.02 96 121.02zm0-44.48c-10.73 0-19.46 8.73-19.46 19.46s8.73 19.46 19.46 19.46 19.46-8.73 19.46-19.46S106.73 76.54 96 76.54zm0 38.6c-10.55 0-19.14-8.59-19.14-19.14S85.45 76.86 96 76.86s19.14 8.59 19.14 19.14-8.59 19.14-19.14 19.14zm-18.43-7.56l-.06-.1a.529.529 0 01-.08-.32c.01-.08.06-.2.16-.36l.74-1.23-.74-1.24-.72 1.14c-.04.06-.08.15-.13.29-.05.13-.08.23-.08.29-.01.09 0 .21.04.36a1.52 1.52 0 00-.37-.3c-.18-.09-.36-.14-.55-.14-.19 0-.39.06-.59.18-.23.13-.39.3-.48.51-.09.2-.11.41-.07.63.05.21.17.49.37.83l1.09 1.83 3.56-2.11-.66-1.1-1.43.84zm-1.39.83l-.29-.48c-.12-.2-.17-.36-.15-.46.02-.11.08-.2.2-.27.08-.05.16-.06.25-.05.09.01.16.05.22.11.12.12.19.21.22.26l.28.46-.73.43zm1.3-4.48l-3.92 1.3-1.08-3.25.84-.28.68 2.03.62-.21-.63-1.89.8-.27.63 1.89.77-.26-.7-2.09.89-.3 1.1 3.33zm-1.38-5.27l-1.52.17-.08-.69c-.06-.51-.22-.88-.48-1.1-.26-.22-.6-.31-1.02-.26-.4.05-.7.2-.89.45-.19.25-.26.61-.21 1.07l.24 2.11 4.11-.47-.15-1.28zm-3.27.37l-.04-.36c-.03-.24 0-.4.08-.5.08-.1.18-.15.31-.17.13-.02.25.02.34.11.1.09.16.26.19.5l.04.31-.92.11zm1.34-3.45l-2.45-.26.14-1.27 2.51.27c.22.02.41-.02.55-.13.14-.11.22-.28.25-.5.02-.22-.02-.4-.13-.53-.11-.14-.28-.22-.51-.24l-2.51-.27.14-1.27 2.45.26c.24.03.47.09.68.19.21.1.38.24.53.42.14.18.24.36.29.55.06.26.08.56.04.9-.02.2-.06.42-.11.65-.05.23-.13.43-.23.58-.1.15-.23.28-.4.4s-.34.19-.5.22c-.3.04-.54.05-.74.03zm3.02-6.68c.03-.09.08-.28.14-.56.04-.21.06-.38.03-.5a1.099 1.099 0 00-.75-.85c-.25-.09-.48-.09-.69-.02-.21.07-.4.24-.56.5 0-.21-.04-.38-.11-.51a.914.914 0 00-.52-.42c-.28-.1-.54-.08-.8.06s-.45.39-.58.77l-.79 2.26 3.9 1.36.73-2.09zm-2.49-.49l-.18.52-.74-.26.19-.53c.06-.18.14-.3.23-.35.09-.05.19-.06.3-.02.12.04.2.11.24.21.04.1.02.24-.04.43zm1.56.44l-.21.61-.79-.28.21-.61c.07-.21.16-.35.26-.41s.21-.07.32-.03c.12.04.21.12.25.23.05.13.04.28-.04.49zm1.79-2.07l-3.54-2.14.66-1.09 2.67 1.61 1.03-1.71.87.53-1.69 2.8zm2.14-3.28l-3.18-2.65.82-.98 3.18 2.65-.82.98zm-.07-3.18c-.45-.52-.65-1.04-.61-1.55.04-.52.31-.99.81-1.42.4-.34.77-.53 1.14-.56.36-.03.74.07 1.14.3l-.69.93c-.11-.07-.2-.11-.27-.13a.692.692 0 00-.35 0 .68.68 0 00-.31.17c-.22.19-.31.42-.28.7.02.21.16.45.4.73.3.35.56.54.77.58.22.04.42-.02.61-.19.19-.16.28-.33.29-.52.01-.19-.06-.4-.18-.63l1.07-.47c.15.29.23.56.24.83.01.27-.03.52-.15.75-.11.24-.31.48-.59.72-.34.29-.66.48-.96.57-.3.09-.64.07-1.01-.04-.38-.13-.74-.38-1.07-.77zm5.72-1.8l-.14-.7 1.28-.68.5.51 1.18-.63-3.32-2.92-1.23.66.57 4.38 1.16-.62zm.48-2.05l-.8.43-.3-1.53 1.1 1.1zm6.48-.48c.22-.04.47-.12.73-.24.19-.09.36-.23.51-.42.15-.19.25-.42.31-.67.06-.26.05-.6-.03-1.04-.05-.28-.13-.54-.24-.77a1.67 1.67 0 00-.44-.6c-.18-.16-.39-.27-.64-.33-.24-.06-.55-.06-.92 0l-1.87.32.7 4.07 1.89-.32zm-.84-3.1c.33-.06.57-.02.74.12.17.14.29.42.36.85.06.33.07.57.03.72-.04.16-.11.27-.21.35s-.28.14-.55.18l-.31.05-.38-2.23.32-.04zm6.88 2.92l-3.48-.15.18-4.13 3.42.15-.04.88-2.14-.09-.03.66 1.99.08-.04.84-1.99-.08-.03.81 2.2.09-.04.94zm3.87.9l-3.18-.78.98-4.02 1.24.3-.74 3.03 1.94.47-.24 1zm4.22.3l.6.36c.44.26.83.36 1.17.28.34-.07.61-.29.82-.65.21-.35.27-.68.18-.98-.09-.31-.33-.58-.73-.81l-1.83-1.08-2.1 3.56 1.1.65.79-1.33zm.89-1.51l.31.19c.21.12.32.24.35.36.03.12.01.24-.06.35-.07.11-.17.18-.3.21-.13.02-.3-.03-.51-.15l-.27-.16.48-.8zm1.44 4.98l.61-.36 1.07.99-.32.64.98.91 1.68-4.09-1.02-.95-3.95 1.97.95.89zm2.77-1.61l-.68 1.4-.67-.62 1.35-.78zm.54 5.21l1.38-.95.06.09c.07.1.1.2.1.31 0 .08-.05.21-.13.37l-.66 1.28.82 1.19.64-1.19a2.017 2.017 0 00.17-.58c0-.09-.02-.21-.06-.36.14.13.27.22.39.28.18.08.37.12.56.1.19-.01.38-.09.57-.21.22-.15.36-.33.44-.54.08-.21.09-.42.02-.63-.06-.21-.21-.48-.43-.8l-1.2-1.76-3.41 2.34.74 1.06zm2.72-1.87l.32.46c.13.19.19.34.18.45-.01.11-.07.2-.18.28a.42.42 0 01-.24.07c-.09 0-.16-.04-.22-.1-.13-.12-.21-.2-.24-.25l-.3-.44.68-.47zm-.66 5.38l.71-.07.54 1.35-.56.44.5 1.24 3.26-2.98-.52-1.29-4.42.09.49 1.22zm3.19-.27l-1.21.98-.34-.85 1.55-.13zm1.31 3.3c.36.13.65.37.87.7.17.26.3.62.37 1.09.07.45.08.8.03 1.03-.05.24-.15.44-.3.61-.15.17-.35.32-.6.43l-.4-1.19c.15-.07.25-.18.32-.31.06-.13.08-.29.05-.48a.83.83 0 00-.39-.62c-.22-.14-.53-.17-.95-.11-.44.07-.75.2-.91.39-.16.19-.22.44-.18.74.02.14.06.27.12.4.06.12.15.26.28.41l.38-.06-.13-.85.85-.13.29 1.95-1.74.26c-.31-.34-.53-.64-.67-.91s-.23-.61-.29-1c-.07-.49-.05-.89.07-1.22.12-.33.33-.6.63-.82.3-.22.67-.36 1.09-.42.45-.06.85-.02 1.21.11zm-1.67 6.71c-.14.11-.22.28-.24.5-.02.22.03.4.14.53.11.14.28.21.51.23l2.51.22-.11 1.27-2.46-.22c-.24-.02-.47-.08-.68-.18-.21-.1-.39-.23-.54-.41-.15-.18-.25-.36-.3-.54a2.59 2.59 0 01-.06-.9c.02-.2.05-.42.1-.65.05-.23.12-.43.22-.58s.23-.29.39-.41c.17-.12.33-.19.5-.23.27-.06.5-.07.71-.06l2.46.22-.11 1.27-2.5-.2c-.22-.02-.4.02-.54.14zm-1.77 4.08l.59.4-.45 1.38-.71-.02-.42 1.27 4.41-.18.44-1.32-3.44-2.77-.42 1.24zm1.35.94l1.27.9-1.55-.03.28-.87zm-1.69 4.38l2.89-.15-.73 1.22h-1.63l.77 1.43-.72 1.21-1.23-2.61-1.49-.89.66-1.1 1.48.89zm-4.81-12.88c.12-.08.26-.17.39-.25.11-.07.21-.13.29-.18.1-.06.27-.12.47-.18.33-.1.74-.23 1.01-.47.25-.21.39-.47.33-.63-.02-.05-.07-.13-.22-.13h-.01c-.33.01-.85.24-1.13.46-.14.11-.22.27-.3.43-.08.17-.16.32-.3.41-.05.03-.12.07-.19.12.21-.42.39-1.1.51-1.78.2-1.18.21-2.49-.13-2.64-.02-.01-.04-.01-.07-.01-.19 0-.39.34-.55.83-.11-.55-.26-.95-.45-.97-.05 0-.1.01-.14.06-.16.17-.28.71-.32 1.42-.23-.55-.47-1-.68-1.21.1-.1.22-.21.33-.31.09-.09.18-.17.25-.24.08-.08.25-.17.43-.27.31-.16.69-.37.92-.65.2-.24.29-.51.22-.66-.04-.09-.13-.12-.25-.1-.33.07-.79.4-1.03.66-.12.13-.17.31-.22.48-.05.18-.1.35-.22.46-.04.04-.1.09-.17.16.13-.42.2-1.08.19-1.86-.02-1.19-.25-2.48-.6-2.56-.06-.01-.12.01-.18.06-.13.13-.23.44-.29.87-.2-.5-.42-.86-.61-.86h-.01c-.05 0-.09.03-.12.07-.14.18-.16.72-.08 1.43-.4-.6-.77-1.01-1-1.08.18-.17.4-.38.5-.61.09-.19.11-.38.06-.47-.04-.07-.12-.08-.21-.03-.21.11-.47.43-.6.65-.06.11-.07.24-.07.36-.01.13-.01.24-.07.34-.02.03-.05.07-.08.12.02-.3-.04-.73-.16-1.21v-.02c-.19-.75-.54-1.54-.8-1.54h-.01c-.04 0-.08.03-.1.07-.07.1-.09.32-.07.61-.18-.23-.35-.39-.48-.39-.01 0-.03 0-.04.01-.04.01-.06.04-.08.08-.06.15.01.49.16.92-.35-.3-.66-.49-.83-.49a.15.15 0 00-.11.04c-.08.08-.02.28.12.52-.13-.09-.27-.17-.41-.26v-.02c.02-.02.04-.04.04-.07.03-.23-.43-.82-1.11-1.43-.71-.64-1.43-1.1-1.72-1.1a.2.2 0 00-.09.02c-.04.02-.06.05-.06.1-.02.17.22.53.61.95-.49-.21-.92-.34-1.15-.34-.1 0-.16.02-.19.07-.02.03-.02.06-.01.1.06.2.52.56 1.19.94-.19-.01-.37-.02-.53-.02-.26 0-.73.02-.84.16-.02.03-.03.06-.03.1.05.27 1.08.55 2.01.67.36.05.71.07 1 .07.21 0 .53-.02.72-.09h.02c.08.06.17.12.25.18a.882.882 0 00-.29-.06c-.09 0-.15.03-.17.08-.08.16.2.49.59.82-.11-.01-.22-.02-.31-.02-.35 0-.43.1-.44.18-.03.27.73.65 1.47.87.42.12.83.19 1.12.19h.04a.8.8 0 01-.17.08c-.03.01-.06 0-.1-.02a.475.475 0 00-.44.03c-.29.15-.51.42-.58.61-.03.08-.01.12 0 .15.02.03.06.06.14.06.09 0 .21-.04.35-.11.23-.11.35-.26.46-.39.06-.07.11-.14.18-.18.06-.04.14-.08.22-.13.11.24.27.52.47.82-.36-.17-.68-.28-.88-.28-.18 0-.24.08-.26.14-.11.37.82 1.25 1.78 1.89.01.01.02.01.03.02.59.4 1.16.68 1.56.8-.13.02-.25.04-.3.05-.04 0-.09-.03-.14-.07a.723.723 0 00-.45-.16c-.05 0-.1 0-.16.02-.48.09-.86.42-1 .61-.06.08-.07.16-.04.22.03.06.13.14.38.14.08 0 .18-.01.28-.03.35-.06.57-.22.75-.35l.09-.06c.02.29.16.73.36 1.22-.38-.28-.7-.44-.89-.44-.11 0-.16.05-.19.1-.18.33.56 1.38 1.38 2.2.26.26.51.48.74.67a.27.27 0 00-.1.11.86.86 0 00-.24-.04h-.01c-.48 0-.91.25-1.08.41-.07.07-.1.15-.07.22.03.08.13.14.28.18-.15.41.1 1.52.47 2.49.13.34.27.64.4.9a.162.162 0 00-.14-.07c-.04 0-.08.02-.13.06-.02-.01-.03-.02-.05-.03-.26-.12-.51-.15-.68-.15-.18 0-.35.03-.47.08-.09.04-.15.1-.15.18-.01.15.16.32.48.47.16.08.31.12.44.14-.11.24-.21.53-.3.84-.15-.68-.36-1.17-.61-1.17-.02 0-.05 0-.07.01-.4.16-.52 1.66-.42 3.03v.02c.03.33.07.66.12.97-.06.04-.12.09-.19.14-.04-.05-.07-.1-.13-.15-.12-.11-.25-.19-.38-.26 0-.15-.01-.28-.05-.36a.256.256 0 00-.16-.13h-.04c-.12 0-.29.1-.47.27-.03 0-.06-.01-.09-.01h-.05c-.11.01-.19.05-.22.13-.02.06-.01.14.03.23-.39.48-.82 1.18-1.21 2.01-.43.9-.7 1.74-.76 2.28-.06-.19-.11-.37-.13-.45-.01-.06.02-.13.07-.21.09-.18.21-.42.08-.81-.19-.61-.66-1.04-.93-1.18-.13-.07-.25-.05-.32.04-.08.11-.09.31-.04.58-.55.25-1.34.97-2.08 1.93-.78 1.01-1.28 1.97-1.38 2.57-.56.27-1.09.56-1.57.84-.7-.5-1.54-1.06-2.44-1.5-1.09-.76-2.44-1.84-3.65-2.82-.45-.36-.88-.71-1.25-1l-.05.05c.33.36.71.75 1.11 1.15-.13-.12-.25-.24-.37-.36-.42-.41-.82-.79-1.17-1.13l-.01-.01h-.09l.04.06c.24.31.51.65.79.99-.24-.22-.47-.44-.7-.65-.42-.39-.82-.77-1.18-1.09l-.05.04c-.05-.07-.1-.15-.15-.22-.32-.48-.62-.93-.89-1.32l-.06.04c.18.38.38.79.6 1.22a94.946 94.946 0 00-.82-1.51c-.12-.42-.23-.82-.34-1.18l-.07.01c.02.15.04.31.07.47-.11-.37-.21-.74-.31-1.06l-.07.01c.04.28.08.57.13.88h-.01c-.09-.51-.19-.99-.27-1.42l-.03.01c-.03-.29-.07-.56-.1-.82h-.07c-.02.53-.02 1.12-.01 1.75v.3l-.09-1.18c-.04-.58-.09-1.12-.13-1.6h-.07c-.01.19-.02.39-.04.59-.01-.28-.01-.54-.02-.79h-.07c-.06.43-.1.91-.15 1.4.01-.12.02-.24.02-.35.04-.58.08-1.13.11-1.61l-.07-.01c-.01.06-.03.13-.04.2.03-.38.06-.74.08-1.07l-.07-.01c-.12.51-.23 1.09-.35 1.7-.01.07-.03.15-.04.22.04-.37.09-.74.13-1.1.07-.58.13-1.12.18-1.6l-.07-.01c-.04.15-.09.32-.13.49.05-.4.09-.79.13-1.14l-.07-.01c-.11.41-.22.88-.34 1.36.03-.12.05-.25.08-.37.1-.46.19-.89.27-1.3.08-.25.16-.48.23-.71l-.07-.03c-.1.19-.2.39-.3.59.13-.38.26-.74.37-1.07.08-.16.17-.32.25-.46l-.06-.04c-.22.28-.46.6-.7.94.25-.37.49-.72.7-1.03l-.05-.04c.16-.27.32-.52.45-.76l-.06-.04c-.31.36-.64.77-.99 1.2.06-.11.13-.22.19-.33.28-.48.54-.93.77-1.33l-.06-.04c-.24.28-.48.6-.74.92.03-.06.07-.12.1-.18.27-.48.52-.93.74-1.33l-.06-.04c-.28.34-.57.74-.88 1.15l.28-.4c.27-.38.51-.73.74-1.06l.05-.05c.37-.38.72-.74 1.02-1.07l.02-.02-.04-.06c-.35.19-.72.41-1.11.64.16-.15.32-.31.47-.46.39-.38.76-.73 1.08-1.05l.15-.12-.01-.01c.18-.09.36-.17.52-.25l-.02-.07c-.06.01-.12.03-.18.05.31-.14.61-.28.87-.4l-.02-.03c.15-.02.29-.04.43-.05v-.07c-.24-.02-.49-.03-.75-.04.28-.11.55-.22.8-.32.21-.04.41-.09.59-.13l-.01-.07c-.4.01-.85.04-1.32.07l.69-.21c.43-.13.83-.25 1.18-.36l-.01-.07c-.4.04-.85.11-1.32.18-.19.03-.38.06-.56.08.42-.11.85-.21 1.26-.31.43-.11.84-.21 1.2-.3l-.01-.07c-.36.02-.75.05-1.16.09.02 0 .03-.01.05-.01.4-.08.79-.16 1.12-.23l-.01-.07c-.18 0-.36.01-.56.01.34-.03.66-.05.95-.08v-.07c-.34-.04-.73-.07-1.13-.09.25-.03.51-.07.75-.1.4-.05.78-.1 1.11-.15v-.07c-.07 0-.15-.01-.23-.01h.72l.01-.07c-.04-.01-.1-.02-.14-.03.24.01.48.01.69.02l.01-.07c-.3-.07-.64-.13-.99-.19h.01c.35.03.68.07.98.09l.01-.07c-.12-.03-.24-.06-.37-.1.25.05.49.1.7.14l.02-.07c.13.02.25.05.36.07h.01c.04.01.09.02.14.03l.02-.07c-.07-.03-.15-.05-.22-.08-.2-.13-.43-.26-.66-.41a.076.076 0 00-.04-.02l.87.17.02-.07c-.2-.07-.42-.14-.65-.22l.54.06c.35.04.69.07.98.1l.01-.07c-.31-.08-.65-.16-1.01-.24-.54-.12-1.09-.25-1.55-.39.03-.01.06-.03.1-.04l.5-.06c.32.1.64.2.94.29.3.09.59.18.84.26l.03-.07c-.24-.12-.51-.24-.81-.37l-.39-.18c.53-.06 1.04-.11 1.37-.15v-.07l-1.23-.04c.82-.14 2.02-.33 2.61-.43l-.01-.07-.9.02c.25-.07.48-.13.65-.18l-.01-.07-2.12.27c.11-.05.21-.11.31-.16l-.03-.07-.91.23c.37-.16.7-.3.94-.4l-.02-.07-1.26.33.24-.18c.32-.2.67-.42 1.02-.62.26-.16.51-.31.73-.45l-.03-.06-.07.03c-.33.16-.71.34-1.11.52l-.03-.05-.07.04c-.15.09-.31.18-.48.28-.1.05-.2.09-.3.14.11-.15.22-.31.33-.46.18-.25.35-.48.5-.7l-.06-.05-.05.05c-.38.4-.85.9-1.33 1.39.14-.24.3-.48.45-.72.14-.22.28-.43.4-.63l-.06-.04-.05.06c-.35.4-.8.92-1.24 1.4l-.01.01c.08-.16.16-.31.25-.47l.15-.18-.03-.04c.03-.05.05-.1.08-.15.15-.28.3-.55.42-.79l-.06-.04-.06.08c-.28.38-.63.85-.99 1.33l-.42.32c.16-.34.34-.69.51-1.03.15-.29.29-.56.41-.82l-.06-.04-.05.07c-.3.43-.68.97-1.07 1.51l-.04-.03-.1.09c.07-.2.14-.4.21-.59.11-.31.22-.6.31-.88l-.07-.03-.04.08c-.24.46-.54 1.02-.84 1.58l.18-.71c.09-.35.17-.67.24-.98l-.02-.01c.04-.09.08-.18.11-.26l-.07-.03-.06.11c-.45.77-1.03 1.78-1.61 2.72l.09-.34c.11-.2.21-.38.29-.53l-.06-.04-.11.13.12-.45c.11-.4.21-.77.3-1.12l-.07-.02-.05.11c-.26.63-.57 1.4-.91 2.18l-.22.26c.12-.38.25-.76.38-1.14.13-.39.26-.76.37-1.1l-.07-.03-.05.11c-.34.71-.76 1.6-1.2 2.48l.21-.94c.09-.4.18-.78.25-1.13l-.07-.02-.04.1c-.26.73-.59 1.65-.94 2.55l.03-.33c.09-.16.17-.31.23-.43l-.06-.04-.14.17c.03-.28.06-.57.1-.85.05-.45.1-.88.14-1.27l-.07-.01-.03.14c-.18.74-.4 1.66-.64 2.59l-.14.17.06-.96c.03-.45.06-.87.08-1.26l-.07-.01-.03.15c-.06.29-.12.62-.19.96.04-.28.09-.56.12-.81l-.07-.01-.04.13c-.19.65-.42 1.45-.66 2.26.07-.32.13-.64.2-.96.1-.45.19-.87.27-1.25l-.07-.02-.04.12c-.28.81-.64 1.85-1.01 2.86.02-.52.05-1.06.08-1.6.03-.52.06-1.01.08-1.46l-.07-.01-.03.16c-.19 1.08-.43 2.48-.7 3.82 0-.54 0-1.09.01-1.65.01-.52.01-1 .01-1.45h-.07l-.02.16c-.1.81-.23 1.8-.38 2.81l-.03-.01-.23.82c-.01-.58-.01-1.19 0-1.8 0-.52.01-1 0-1.45h-.07l-.02.16c-.1.84-.23 1.88-.38 2.93-.05-.22-.09-.44-.14-.66-.1-.49-.2-.96-.3-1.39l-.07.01.01.13c.07.83.16 1.86.23 2.91-.09-.4-.17-.8-.25-1.2-.1-.5-.2-.97-.29-1.39l-.07.01.01.15c.07.83.15 1.85.22 2.89-.11-.33-.22-.66-.32-.99-.16-.5-.31-.96-.46-1.39l-.07.02.03.17c.15.79.34 1.76.51 2.75l-.18-.61c-.01-.02-.01-.04-.02-.06-.04-.16-.08-.33-.11-.49-.12-.51-.23-.99-.34-1.43l-.07.01.02.16c.01.13.03.28.04.41l-.02.01.03.15.03.19c.09.86.19 1.84.27 2.81-.15-.43-.3-.87-.44-1.31-.17-.5-.32-.97-.47-1.4l-.07.02.03.16c.17.79.37 1.76.56 2.75-.12-.27-.23-.55-.35-.83-.2-.48-.39-.94-.58-1.35l-.07.03.04.15c.17.59.37 1.27.58 1.99l-.12-.24c-.23-.48-.44-.92-.65-1.33l-.07.03.05.14c.34.97.77 2.22 1.17 3.45-.22-.36-.45-.72-.67-1.08-.27-.44-.52-.86-.77-1.23l-.06.04.06.14c.35.76.78 1.7 1.21 2.66-.21-.32-.42-.65-.62-.98-.27-.44-.53-.85-.78-1.23l-.06.04.07.16c.03.05.05.12.08.17l-.05.03.06.14c.24.54.52 1.17.81 1.84l.09.72c-.19-.34-.37-.69-.56-1.04-.24-.46-.48-.9-.7-1.29l-.07.03.05.14c.19.5.42 1.08.65 1.69-.22-.33-.44-.65-.64-.94l-.06.04.07.15c.39.78.88 1.75 1.36 2.73.03.09.07.18.1.27l.03.22c-.24-.24-.47-.48-.7-.72-.35-.36-.67-.69-.98-.99l-.05.05.09.12c.38.52.84 1.13 1.31 1.77l-.01.01v.01c-.12-.12-.24-.24-.35-.36-.35-.35-.68-.69-.98-.98l-.05.05.1.13c.53.7 1.18 1.56 1.83 2.45l.01.09c-.27-.2-.54-.41-.81-.62-.39-.3-.75-.58-1.09-.83l-.05.05.1.1c.68.69 1.55 1.58 2.38 2.47-.35-.2-.7-.41-1.05-.62-.41-.25-.8-.48-1.16-.68l-.04.06.12.1c.63.51 1.41 1.14 2.18 1.79-.35-.2-.69-.41-1.04-.62-.41-.25-.8-.48-1.16-.69l-.04.06.11.09c.56.46 1.23 1.01 1.92 1.59l.47.52c-.33-.17-.67-.35-1-.52-.42-.22-.82-.44-1.19-.62l-.04.06.12.09c.76.56 1.74 1.27 2.67 2l.24.27c-.56-.26-1.16-.57-1.75-.88-.42-.22-.82-.43-1.19-.61l-.04.06.14.1c.76.55 1.72 1.25 2.66 1.96-.37-.13-.75-.27-1.13-.41-.44-.16-.85-.32-1.23-.44l-.03.07.12.07c.22.12.46.26.71.39-.17-.05-.33-.11-.49-.15l-.03.07.15.08c.87.43 2 1 3.07 1.57-.47-.11-.96-.24-1.44-.36-.45-.12-.88-.23-1.27-.32l-.02.07.14.06c.61.26 1.35.58 2.1.92l-.8-.18-.02.07 1.37.68c-.35-.05-.7-.11-1.05-.17-.46-.08-.89-.15-1.29-.2l-.02.07.12.04c.87.28 1.98.65 3.06 1.03-.39-.01-.78-.01-1.17-.03-.46-.01-.89-.03-1.29-.03l-.01.07.15.03c.76.14 1.7.32 2.65.52-.4-.01-.81-.02-1.21-.04-.46-.02-.89-.03-1.29-.04l-.01.07.13.02c.45.09.97.19 1.52.3h-.06l-.01.07.91.22h-.05l-.01.07h.01c-.08.02-.16.03-.24.05-.45.09-.88.17-1.27.26l.01.07h.12c.68-.02 1.52-.05 2.4-.07l.62.18c-.44.1-.9.2-1.35.29-.45.09-.88.18-1.26.27l.01.07h.12c.63-.03 1.39-.06 2.18-.08l.65.11c-.25.09-.5.18-.75.26-.44.15-.85.29-1.22.43l.02.07.14-.03c.88-.15 2-.35 3.1-.52l.04.01.36.08c-.6.11-1.15.22-1.53.29v.07l1.75.12c-.41.19-.84.39-1.26.57-.42.19-.81.36-1.17.53l.02.07.13-.04c.86-.23 1.97-.52 3.06-.78-.33.21-.66.42-.99.62-.39.24-.75.46-1.08.68l.03.06.14-.06c.53-.22 1.16-.48 1.82-.75h1.28c-.39.22-.8.44-1.21.66-.4.21-.79.42-1.13.61l.03.07.11-.04c.85-.29 1.94-.66 3.02-1-.31.23-.62.46-.93.68-.37.27-.72.52-1.03.76l.04.06.13-.06c1.01-.5 2.38-1.19 3.63-1.74h.62l.06-.07c.63.34 1.3.75 1.94 1.16-.95.57-1.7 1.02-2.25 1.02-.07 0-.13-.01-.19-.02-.99-.23-2.31-.99-2.32-1l-.05-.03v.06c0 .02-.08 1.74 1.97 2.05.1.01.2.02.31.02 1.08 0 2.27-.77 3.38-1.56.06.04.13.08.19.12 1.08.71 2 1.32 2.43 1.4h.18c.66 0 2.25-.18 2.84-1.81l.02-.07-.07.02c-.32.09-.61.18-.9.27-.61.2-1.13.36-1.68.36-.48 0-.93-.13-1.43-.4-.15-.06-.42-.25-.76-.49.37-.27.71-.5 1.01-.66.01.01.01.02.02.02.36.37 1.49.62 2.82.62h.13c1.71-.03 3.06-.45 3.08-.95a.41.41 0 00-.12-.27c-.28-.29-1.05-.5-2.01-.58.21-.11.4-.23.58-.34.25-.12.51-.26.77-.41.04.04.09.07.13.11.12.1.24.2.33.28.12.09.25.29.41.51.25.37.57.82.96 1.06.22.14.45.22.63.22.13 0 .23-.04.28-.11.03-.05.07-.13.02-.27-.14-.41-.62-.95-.99-1.21-.19-.13-.41-.16-.63-.19-.23-.03-.45-.06-.62-.2-.06-.06-.16-.13-.26-.22.19.03.42.05.69.05.49 0 1.08-.05 1.68-.15l.04-.01c1.69-.28 3.04-.83 3.07-1.25 0-.06-.02-.12-.06-.17-.15-.16-.58-.25-1.21-.25.61-.36 1.02-.72.98-.95-.02-.14-.2-.22-.51-.22-.35 0-.87.1-1.45.26.34-.31.64-.62.86-.89.07.01.15.03.22.04.14.02.28.05.38.06.13.02.32.11.54.21.36.17.81.38 1.21.38h.05c.34 0 .62-.12.69-.29.04-.1 0-.2-.09-.28-.29-.26-.9-.45-1.31-.48h-.05c-.18 0-.36.08-.52.15-.16.07-.32.14-.48.14-.03 0-.06 0-.08-.01-.07-.01-.17-.03-.29-.05.46-.18 1.11-.62 1.79-1.19 1.03-.89 2-2.04 1.83-2.43-.02-.06-.08-.12-.23-.12-.21 0-.54.14-.93.38.31-.57.47-1.03.33-1.2-.03-.04-.08-.06-.14-.06-.26 0-.76.38-1.33.99.17-.54.27-1.01.3-1.34.14-.03.3-.05.46-.07.12-.02.24-.03.33-.05.03 0 .06-.01.1-.01.11 0 .24.02.39.03.19.02.4.05.61.05.19 0 .35-.02.49-.06.31-.09.53-.27.54-.45.01-.09-.05-.17-.15-.21-.15-.07-.38-.1-.65-.1-.2 0-.4.02-.56.06-.17.04-.31.16-.44.28-.14.12-.27.24-.43.26-.06.01-.14.02-.23.04.33-.28.76-.8 1.17-1.45.64-1.01 1.15-2.22.91-2.5a.161.161 0 00-.13-.06c-.17 0-.45.22-.76.57.11-.55.13-.98-.03-1.07-.02-.02-.05-.02-.08-.02-.23 0-.58.51-.91 1.17 0-.49-.03-.91-.09-1.19.01-.01.03-.01.04-.02 0-.07.02-.1.04-.13zm-.13 2.36c-.11 1.11-.32 1.95-.51 2.31a.5.5 0 00-.04-.23.183.183 0 00-.1-.11c-.02-.01-.04-.01-.06-.01-.06 0-.13.04-.2.1-.08-.48-.09-1.27-.01-2.12.14-1.51.48-2.52.71-2.52.02 0 .04.02.06.04.2.24.27 1.33.15 2.54zm1.08-2.16c.2.13.05 1.2-.49 2.6-.38.97-.77 1.65-1.04 1.93h-.01c.24-.43.44-1.42.53-2.36.03-.32.05-.63.06-.92.38-.8.74-1.26.91-1.26.01 0 .03 0 .04.01zm-1.28 4.48c-.03.01-.07.01-.1.02-.01 0-.03 0-.04.01.32-.37.7-1.13.99-1.88.19-.5.35-1.01.45-1.47.36-.42.65-.64.8-.64.03 0 .06.01.07.03.17.2-.16 1.21-.92 2.42-.48.78-.94 1.3-1.25 1.51zm.87-.27c.13-.11.26-.22.41-.26.15-.04.35-.06.54-.06.26 0 .48.03.62.1.08.03.11.08.11.14-.01.12-.18.29-.49.38-.13.04-.28.06-.47.06-.21 0-.42-.03-.61-.05-.22-.03-.4-.05-.52-.03-.09.02-.21.03-.33.05-.15.02-.3.04-.44.07v-.01c.07-.01.15-.03.23-.04.18-.03.37-.07.48-.08.18-.02.33-.14.47-.27zm.76 1.87c.12.28-.57 1.29-1.81 2.34-.74.63-1.45 1.08-1.89 1.22.08-.1.13-.2.18-.29.4-.33.88-.84 1.36-1.46.38-.48.73-1 .99-1.46.43-.27.79-.43 1.01-.43.08.01.13.03.16.08zm-2.67 3.58c.18-.08.36-.15.54-.14.39.03.99.23 1.26.46.05.05.11.12.08.2-.05.13-.29.26-.67.25-.39 0-.83-.21-1.19-.37-.22-.11-.42-.2-.56-.22-.11-.02-.24-.04-.38-.06l-.18-.03c.01-.01.01-.02.02-.02.19.02.37.05.48.07.2.03.4-.06.6-.14zm-.12 1c.05.31-1.07 1.1-2.82 1.77-.95.37-1.86.6-2.44.63.04-.05.07-.09.1-.14.58-.24 1.42-.74 2.27-1.39.31-.23.6-.48.88-.73.63-.19 1.2-.3 1.57-.3.26.01.42.06.44.16zm-.93 1.01c.61 0 1.04.08 1.17.23.03.03.05.07.04.11-.02.34-1.24.89-3.01 1.19l-.04.01c-.6.1-1.18.15-1.67.15-.33 0-.61-.03-.81-.07-.04-.03-.07-.06-.11-.08l-.01-.01c.02-.02.03-.03.04-.05.59-.02 1.52-.25 2.53-.64.63-.24 1.24-.53 1.75-.82.04-.01.08-.02.12-.02zm-2.73 2.38c.36.26.84.79.97 1.18.03.09.03.16-.01.21-.04.05-.12.08-.22.08-.17 0-.39-.08-.59-.21-.38-.23-.69-.68-.94-1.04-.16-.23-.3-.43-.42-.53-.09-.08-.21-.17-.33-.28-.08-.07-.16-.13-.23-.2.01-.01.02-.01.02-.02l.02.02c.19.15.38.3.48.4.18.15.42.19.65.22.21.02.43.05.6.17zm-4.14 1.84c-1.31 0-2.43-.24-2.77-.59a.383.383 0 01-.08-.11c.12.05.28.08.48.08.62 0 1.57-.25 2.53-.66.28-.12.54-.25.79-.38 1 .07 1.8.28 2.08.57.07.07.1.14.1.21-.02.46-1.36.85-3 .88h-.13zm.87.45c-.6 1.53-2.12 1.69-2.75 1.69h-.17c-.4-.07-1.33-.68-2.39-1.39-.91-.6-1.97-1.3-2.95-1.82l.26-.29c.18-.07.36-.14.53-.21l.07-.02c.91.5 1.74 1.1 2.39 1.57.49.35.84.61 1.03.68.5.28.97.41 1.46.41.56 0 1.09-.17 1.7-.37.25-.09.52-.17.82-.25zm-9.21 1.7c-1.8-.27-1.91-1.61-1.91-1.92.26.15 1.4.78 2.29.98.07.01.14.02.21.02.58 0 1.35-.46 2.32-1.05.24.16.47.31.7.46-1.08.78-2.26 1.53-3.31 1.53-.1 0-.2 0-.3-.02zm-2.5-2.05c.48-.34.97-.7 1.41-1.04h1.13c-1.12.5-2.31 1.09-3.25 1.56.23-.17.46-.34.71-.52zm-1.1-.32c.45-.24.9-.48 1.33-.72h1.06c-.07.06-.15.11-.23.17-1.03.32-2.08.67-2.94.97.25-.14.51-.28.78-.42zm-.28-.79c3.52-.92 4.21-1.12 4.35-1.17l.94.48-.61.69h-4.68zm-.69.19c.51-.31 1.02-.63 1.49-.95l1.14.08c-.29.11-.58.22-.88.33-.53.14-1.02.27-1.35.35l.01.07h.27c-.5.2-.99.4-1.42.58.23-.15.48-.3.74-.46zm-1.06-.4c.47-.21.94-.42 1.38-.63l1.06.07c-.08.05-.16.1-.24.16-1.05.25-2.12.53-3 .76.25-.12.52-.24.8-.36zm-1.42-1.11c.29-.1.58-.2.87-.31l.92.16c-.93.14-1.85.3-2.63.44.27-.09.55-.19.84-.29zm-.95-.62c.5-.1 1-.2 1.48-.32l.83.25c-.64.05-1.24.09-1.65.12v.07h.01c-.54.02-1.07.04-1.53.06.28-.06.56-.12.86-.18zm-.53-.73c.12-.02.25-.05.37-.07l.64.19c-.67.01-1.32.03-1.88.05.28-.05.57-.11.87-.17zm1.96-.41l.8.39c-.3-.05-.57-.1-.82-.14l-.02.07.07.03c-.37-.02-.7-.04-.95-.05l-.01.04-1.36-.33c.95-.01 1.7-.01 2.29-.01zm-2.88-.36c.54.02 1.1.04 1.63.04.21 0 .4 0 .59-.01l.52.25h-2.02c-.56-.12-1.1-.22-1.59-.32.27.02.57.03.87.04zm-.29-.56c.46.01.92.03 1.38.03v.01l.99.49c-.14 0-.29.01-.45.01h-.04c-.96-.21-1.94-.4-2.76-.55.28-.01.58 0 .88.01zm-.71-.91c.42.07.85.14 1.27.2l.62.31.65.37h-.42c-1.03-.37-2.1-.73-2.98-1.02.27.04.56.09.86.14zm-1.3-2.41c.77.29 1.56.58 2.27.77l.08.09c-.63-.16-1.31-.38-1.98-.6-.14-.05-.28-.09-.41-.13-.27-.15-.53-.3-.77-.43.25.09.52.19.81.3zm-.46-1.11c.64.34 1.29.67 1.9.94l.74.83c-.26-.07-.53-.16-.81-.25-.9-.69-1.84-1.37-2.61-1.93.25.13.51.27.78.41zm-.05-.92c.39.21.78.41 1.17.61l1.07 1.18c-.27-.19-.51-.36-.69-.5l-.02.02c-.81-.62-1.63-1.23-2.32-1.73.25.13.51.27.79.42zm-1.07-1.5c.24.14.5.3.76.46.64.39 1.29.78 1.89 1.09l.3.63c-.59-.41-1.16-.8-1.52-1.06l-.03.04c-.49-.42-.97-.81-1.4-1.16zm.7-.19c.52.31 1.04.63 1.54.9l.35.73c-.13-.07-.26-.14-.4-.21-.79-.67-1.59-1.32-2.26-1.87.25.14.51.29.77.45zm-.3-1.18c.43.33.86.67 1.29.98l.24.44.27.55c-.06-.03-.13-.07-.19-.11-.79-.85-1.62-1.7-2.31-2.4.22.17.46.35.7.54zm-.1-1.72c.62.64 1.25 1.29 1.84 1.8l.2.65c-.31-.26-.63-.56-.96-.88-.19-.21-.35-.41-.5-.57-.42-.58-.84-1.15-1.21-1.64.21.2.42.41.63.64zm.61-.63l.09.77c-.41-.85-.83-1.69-1.19-2.4.16.24.34.5.51.76.19.28.39.58.59.87zm-.71-1.71c.21.4.43.81.65 1.2l.04.34c-.17-.25-.34-.5-.5-.75-.21-.57-.42-1.12-.61-1.61.13.27.27.54.42.82zm.55-.22c.16.48.45 1.38.74 2.28.17.52.31.93.42 1.27l-.02.01.21.67c-.31-.28-.63-.59-.95-.91l-.4-3.32zm-.6-1.01c.15.25.31.52.48.79l.03.06.05.42c-.2-.45-.39-.88-.56-1.27zm-.1-.36c.16.25.32.51.49.78.05.07.09.15.14.22l-.04.01v.03c-.16-.26-.31-.51-.45-.75-.05-.1-.1-.2-.14-.29zm.66.15c.35.57.71 1.15 1.06 1.68l.08.83c-.13-.18-.25-.36-.38-.56-.42-.96-.86-1.92-1.23-2.72.15.25.31.51.47.77zm.17-1.21c.25.52.51 1.05.76 1.55l.11 1.19-.15-.24c-.37-1.16-.78-2.34-1.12-3.32.13.26.26.54.4.82zm.14-.58c.18.42.36.85.54 1.26l.06.68c-.13-.25-.25-.51-.38-.77-.2-.71-.4-1.39-.57-2 .11.27.23.54.35.83zm.3-.7c.22.68.45 1.36.68 1.99v.37c-.18-.61-.34-1.19-.48-1.66l-.07.01.08.83c-.17-.85-.34-1.68-.49-2.4.09.28.18.57.28.86zm1.23-2.07c.09.46.19.93.29 1.38l-.14.88c-.03-.08-.05-.16-.08-.23l-.03-.51h-.04c-.06-.84-.12-1.66-.18-2.38.06.27.12.56.18.86zm.37-.47c.13.64.27 1.28.41 1.88l-.17.67-.04.14v.03c0-.02-.01-.04-.01-.05-.02-.61-.04-1.19-.06-1.66h-.07l-.05.34c-.06-.78-.12-1.53-.18-2.2.05.27.11.55.17.85zm.62 1.07l-.17.66c-.07-.28-.13-.57-.2-.87.13-.96.25-1.91.35-2.73v.89c0 .69 0 1.4.02 2.05zm1.39-3.38c-.04.74-.08 1.48-.1 2.17l-.53 1.09c-.01-.13-.01-.26-.01-.39.26-1.28.5-2.65.69-3.76-.02.28-.03.58-.05.89zm.78-.12c-.13.57-.25 1.16-.35 1.71l-.01.02-.38.45-.05-.02v-.2c.34-.92.67-1.87.95-2.67-.06.23-.11.46-.16.71zm.37-.16c-.05.32-.1.64-.15.95l-.44.7c.25-.82.5-1.65.7-2.36-.03.22-.07.46-.11.71zm.28-.28c-.02.35-.05.7-.07 1.05l-.3.36c.05-.12.09-.24.13-.35l-.06-.03c.13-.62.24-1.22.35-1.75-.02.24-.03.48-.05.72zm.68-.66c-.04.32-.07.64-.11.96l-.32.37c.18-.72.36-1.44.51-2.06-.02.24-.05.48-.08.73zm-.04 1c-.2.38-.57 1.06-.93 1.74-.01.01-.01.02-.02.04l-.58.68c.16-.41.31-.82.45-1.18l1.08-1.28zm.68-1.03c-.11.49-.23.98-.32 1.45l-.13.17c.04-.08.08-.15.12-.22l-.06-.04-.35.4c.31-.81.61-1.64.87-2.35-.04.19-.09.39-.13.59zm1.3-.8c-.06.2-.11.4-.17.6l-.32.38.65-1.56c-.05.19-.1.38-.16.58zm-.12.66c-.19.36-.52.96-.85 1.57-.02.04-.04.07-.06.11l-.52.49c.18-.39.35-.75.5-1.06l.93-1.11zm1.21-.99c-.09.37-.19.74-.27 1.09l-.44.4c.3-.68.59-1.4.84-2-.05.17-.09.34-.13.51zm.47-.05c-.09.24-.17.48-.25.72l-.39.35v-.02c.28-.51.55-1.02.79-1.47-.05.13-.1.27-.15.42zm.7-.2c-.2.39-.4.78-.57 1.15l-.52.39c.03-.08.05-.17.08-.25.42-.57.85-1.17 1.21-1.68-.06.12-.13.25-.2.39zm1.62.18l-.47.65c-.16.09-.33.19-.49.28.4-.41.81-.83 1.16-1.2-.07.09-.13.18-.2.27zm1.18 2.09c-.12-.04-.23-.07-.36-.11-.25-.08-.52-.16-.78-.24l.29-.03c.17.08.33.15.5.23.12.05.23.1.35.15zm-2.17-.31c.22-.09.46-.2.71-.31l1.59.05c-1.16.13-1.87.21-2.3.26zm2.3.66c-.15-.02-.31-.03-.48-.05l-.88-.09c-.18-.06-.37-.12-.55-.18-.14-.09-.27-.18-.4-.27h.03c.5.18 1.14.33 1.76.47.18.04.35.08.52.12zm-1.27-.04c.12.04.23.07.34.11l-.32-.06c-.06-.01-.13-.03-.19-.04-.07-.04-.14-.08-.2-.12.12.03.24.07.37.11zm.4.44c-.11-.05-.22-.09-.33-.14-.54-.23-1.12-.48-1.64-.67.1-.05.24-.1.4-.18.35.26.77.51 1.18.76.13.07.26.15.39.23zm-.43.08c-.17-.03-.35-.07-.54-.11-.41-.08-.85-.17-1.27-.25-.13-.03-.25-.07-.37-.1.13-.05.27-.11.42-.18.37.15.77.29 1.16.43.21.06.41.14.6.21zm-.35.26c-.2-.01-.42-.01-.64-.02h-.12c-.18-.03-.37-.06-.57-.09-.46-.07-.92-.15-1.34-.24.05-.05.1-.09.15-.14.54.15 1.17.26 1.79.37.25.04.49.08.73.12zm-1.76.62c-.23.02-.48.04-.74.06-.5.04-1.03.08-1.55.13-.12 0-.24.01-.35.01h-.06c.13-.11.28-.24.44-.39.46.06.95.09 1.44.13.29.02.56.04.82.06zm-.38.42c-.26.07-.54.13-.83.21-.59.15-1.21.3-1.81.46-.22.03-.44.05-.65.06.17-.17.34-.35.52-.53.58-.01 1.22-.06 1.84-.12.31-.03.63-.06.93-.08zm-2.51 1.51c-.66.26-1.36.54-2.03.82-.26.07-.52.13-.77.18.05-.1.11-.2.17-.31.08-.12.16-.25.24-.37.7-.09 1.49-.27 2.26-.45.38-.09.74-.17 1.08-.24-.3.11-.62.24-.95.37zm.36.22c-.23.11-.48.22-.73.34.08-.07.17-.14.25-.2.15-.05.32-.1.48-.14zm-.67.43c-.14.06-.3.13-.44.2.05-.04.11-.08.16-.12.09-.03.19-.06.28-.08zm-.64.51l-.79.76-.7.67c-.53.32-1.07.64-1.59.91.03-.09.07-.18.1-.27.64-.38 1.33-.88 2.01-1.38.35-.24.67-.47.97-.69zm-1.43 1.49c.25-.15.47-.28.7-.42-.37.28-.78.61-1.2.95l-.32.26c-.37.28-.73.53-1.07.75.07-.18.14-.38.22-.59.54-.28 1.11-.61 1.67-.95zm.36.14l-.02-.02-.23.23c.03-.04.06-.08.1-.12.15-.17.3-.32.44-.48.12-.09.25-.2.37-.29-.21.22-.43.45-.66.68zm-.44.89c-.16.3-.34.62-.53.95-.11.19-.22.39-.33.59-.52.67-1.05 1.36-1.56 1.9l-.03-.34c.57-.59 1.17-1.38 1.75-2.17.24-.32.48-.64.7-.93zm-.78 1.56c.26-.33.5-.65.74-.94-.17.3-.36.62-.56.96-.14.24-.28.49-.43.74-.45.56-.91 1.11-1.35 1.56l-.03-.34c.54-.56 1.09-1.28 1.63-1.98zm.83-.45c-.13.21-.27.44-.4.67-.28.29-.56.6-.86.94-.16.18-.32.36-.49.54.33-.39.67-.81 1-1.22.26-.33.51-.65.75-.93zm-.41.77c-.19.29-.4.59-.62.91-.31.46-.64.93-.96 1.41-.1.12-.19.24-.28.36-.04-.18-.08-.36-.12-.53.39-.4.79-.84 1.19-1.28.27-.3.53-.6.79-.87zm-.46 1.72l-.06.18c-.06.13-.12.25-.19.39-.26.54-.52 1.09-.79 1.6-.03-.08-.06-.17-.1-.26.32-.58.64-1.23.96-1.87.19-.38.37-.75.55-1.1-.12.33-.24.69-.37 1.06zm.27.57c-.04.35-.08.73-.13 1.12 0 .02-.01.05-.01.07-.05.22-.11.44-.16.67-.21.87-.42 1.76-.67 2.52-.04-.09-.08-.18-.12-.26.3-.84.55-1.88.79-2.9.11-.43.2-.84.3-1.22zm-.06 1.79c-.07.63-.15 1.29-.22 1.94-.1.48-.2.95-.32 1.38-.05-.09-.11-.19-.17-.3l-.15-.33c.26-.78.48-1.7.7-2.6.1-.42.2-.83.3-1.21-.05.35-.09.73-.14 1.12zm.3-.33c-.03.35-.05.73-.08 1.13v.01c-.06.31-.12.63-.18.96-.13.68-.26 1.36-.41 1.99-.04-.1-.09-.2-.13-.3.22-.78.39-1.68.57-2.57.07-.42.15-.83.23-1.22zm.17 1.47l.03 1.13v.2c0 .04 0 .08-.01.12-.03.81-.07 1.64-.14 2.38-.08-.06-.18-.12-.28-.19.12-.75.19-1.58.27-2.39.05-.43.09-.85.13-1.25zm.16.21c.03.35.06.73.09 1.12.05.65.1 1.34.16 2.02 0 .43-.02.86-.04 1.26-.14-.17-.29-.34-.43-.51.09-.8.13-1.72.17-2.62.01-.46.03-.88.05-1.27zm.32 1.99v-1.26c.03.24.06.49.09.75.02.42.05.86.08 1.32.05.7.09 1.4.11 2.06l-.33-.39c.06-.77.06-1.63.05-2.48zm.17-.45c.07.35.14.72.21 1.11.14.76.29 1.56.45 2.34.03.2.05.4.07.6-.16-.19-.34-.4-.53-.63-.02-.69-.06-1.42-.11-2.15-.04-.45-.07-.87-.09-1.27zm.58 1.09c.05.17.1.37.16.55l-.04.02c.02.06.05.13.07.19-.03-.06-.07-.13-.1-.19-.03-.19-.06-.39-.09-.57zm.89 1.98c.36.67.74 1.38 1.12 2.06.09.18.17.36.25.54-.2-.12-.44-.26-.69-.41a38.5 38.5 0 00-.76-2c-.16-.41-.32-.81-.46-1.18.17.32.35.65.54.99zm1.88 1.62c.35.33.71.66 1.08 1 .42.51.83 1.02 1.21 1.52-.1-.01-.23-.03-.38-.06l-.21-.14c-.49-.68-1.1-1.4-1.71-2.11-.29-.34-.56-.66-.82-.97.26.23.54.49.83.76zm1.11.93c-.28-.34-.55-.67-.8-.99.26.25.53.51.81.79.58.56 1.18 1.15 1.78 1.71.12.13.23.26.34.38-.23-.06-.5-.13-.79-.2-.41-.54-.87-1.12-1.34-1.69zm-.28-.73c.27.22.57.45.87.7 1.21.98 2.57 2.06 3.66 2.82l-.89-.45.01.05c-.07.03-.29.09-.59.17-.58-.76-1.39-1.58-2.18-2.38-.3-.32-.6-.62-.88-.91zm-2.1 2.79c1.08-.01 1.9-.02 2.54-.03l1.62.81-.33.09-3.83-.87zm-7.07-11.21c.65.75 1.16 1.34 1.58 1.82l.28.89c-.44-.56-.85-1.09-1.12-1.44l-.03.02-.71-1.29zm2.06-8.59c.01.36.03.94.06 1.58l-.34 1.09c-.01-.23-.03-.47-.04-.69l.32-1.98zm.66 1.47v.1l-.2.66-.14.22c.1-.85.19-1.7.27-2.35l-.06-.01.26-1.02c-.03.5-.08 1.45-.13 2.4zm9.13-7.08c-.21.15-.43.31-.63.47l-.37.1c0-.01.01-.01.01-.02.39-.22.77-.44 1.12-.64-.04.03-.09.06-.13.09zM87.7 85.5c.46 0 .95-.03 1.42-.05.28-.02.56-.03.82-.04-.23.05-.48.1-.73.15-.23.05-.47.09-.7.14-.43.04-.86.07-1.26.08.09-.09.18-.19.27-.28.06-.01.11 0 .18 0zm-1.06 20.73c.41.07 1.16.19 1.94.32l1.4.7c-.26 0-.52.01-.78.01l-2.56-1.03zm1.2.65l-2.12-.64c.31.02.59.03.86.05l1.42.58c-.05 0-.1 0-.16.01zm-2.97-1.83c.42.1 1.14.27 1.89.45l1.1.66-.01.04.21.1c-.24-.01-.48-.03-.73-.04l-2.46-1.21zm-.88-.81c.5.14 1.5.42 2.42.68l.33.32c-.24-.08-.45-.15-.62-.21l-.03.07.47.28c-.34-.08-.67-.16-.97-.23l-1.6-.91zm-.56-1.35c.45.22 1.1.54 1.76.86l1.11 1.06-.76-.21-2.11-1.71zm4.96 2.59c.04.09.08.19.12.28h-.19c-.49-.16-.98-.33-1.41-.47l-2-1.92c1.12.69 2.62 1.6 3.48 2.11zm-6.05-6.04c.49.57.91 1.06 1.27 1.47l.83 1.56c-.23-.17-.47-.34-.71-.5l-1.39-2.53zm-.94-1.7c.7.89 1.23 1.58 1.65 2.11l.1.41c-.38-.44-.73-.84-.97-1.12l-.06.04.7 1.27c-.05-.03-.1-.07-.15-.1l-1.27-2.61zm.25-1.43c.39.71.72 1.31 1 1.81l.35 1.56c-.17-.22-.34-.43-.51-.65l-.84-2.72zm-.52-6.5c.1.35.26.91.44 1.52l-.02 2.57c-.01-.02-.02-.03-.04-.05l-.38-4.04zm1.1-.6c-.01-.09-.01-.18-.02-.26.01.04.03.08.04.11l-.02.15zm3.27-4.52c-.18.46-.5 1.32-.83 2.18-.05.13-.09.23-.13.35l-.46.46c.12-.44.23-.87.33-1.26l1.09-1.73zm1.19-.38c-.21.38-.59 1.06-.99 1.77l-1.04 1.02c.1-.26.2-.53.3-.79l1.73-2zm-.06.97c-.09.18-.16.35-.24.5l-.39.26c.11-.17.22-.32.3-.45l-.06-.05-.36.36c.24-.43.48-.85.68-1.22l.9-1.17c-.17.38-.5 1.07-.83 1.77zm1.93-1.98l-1.1 1.61c-.08.12-.15.22-.23.33l-.72.47c.14-.29.28-.59.42-.88l1.63-1.53zm4.23-.75c-1.56.66-1.99.85-2.11.92l-.48-.19.28-.41 2.31-.32zm-4.08 1.85l-.81.69c.21-.21.4-.4.54-.55l-.05-.06-1.01.65c.16-.24.33-.48.49-.72l1.82-.98c.04 0 .07.01.11.02-.29.26-.69.61-1.09.95zm-2.76 2.59c-.19-.01-.37-.03-.54-.05.17-.26.34-.52.49-.74l2.26-1.46c-.3.3-.83.85-1.37 1.39-.35.36-.62.63-.84.86zm-.84.39c.08-.13.17-.26.25-.38.39.05.82.08 1.26.1-.52.12-1.04.22-1.51.28zm-1.93 3.74c.06-.59.13-1.19.18-1.73l1.15-1.84c-.18.47-.51 1.37-.85 2.27-.19.53-.35.96-.48 1.3zm1.51-.45c-.12.13-.23.25-.36.38-.42.46-.86.92-1.28 1.32.01-.13.03-.26.04-.4.44-.39.9-.82 1.35-1.26.29-.28.56-.55.83-.79-.19.24-.38.49-.58.75zm-1.64 5.94c.01.02.02.05.03.07 0 0 0 .01-.01.01a.31.31 0 00-.02-.08zm-.05.08c.21.91.36 1.51.46 1.92-.05.15-.1.28-.14.42-.29-.64-.56-1.23-.75-1.66l-.12-3.03c.11.49.33 1.42.55 2.35zm1.37 4.82c-.39-.46-.74-.89-.99-1.18l-.06.04.14.26c-.07-.08-.14-.17-.22-.25l-.63-2.73c.93 2.06 1.46 3.21 1.76 3.86zm-2.24-10.97c.04.38.1 1.02.17 1.71l-.22.77-.12-.64.17-1.84zm.91-2.5c-.06.51-.17 1.46-.28 2.42l-.03.31-.35 1.14c-.03-.46-.06-.96-.09-1.46l.75-2.41zm-1.14 8.58l-.65-2.49c.51 1.04.9 1.84 1.21 2.46l.03.7-.03.01.04.17.01.24c-.22-.39-.43-.76-.61-1.09zm-.41-1.28l.11.41c-.06-.07-.11-.14-.17-.21l.06-.2zm.35-1.22l.22 1.49c-.14-.29-.28-.57-.41-.83l.19-.66zm-.1-1.19c.14.4.39 1.09.65 1.83l.06 1.65c-.1-.19-.19-.39-.29-.59l-.42-2.89zm.83-1.35c-.04.5-.13 1.44-.21 2.38v.07c-.01.13-.02.23-.03.35-.11-.3-.21-.59-.31-.87l.55-1.93zm.01 6.27zm.27-7.47c.01-.07.02-.13.02-.2l.07-.12-.09.32zm1.69 11.34c.07.05.13.09.19.13 0 .03 0 .06-.01.09-.06-.07-.12-.15-.18-.22zm-2.04-7.47l-.06-.28c.01-.07.01-.13.02-.19.01.17.02.32.04.47zm-.01-.86c.07-.79.14-1.57.19-2.18l.66-2.16c-.05.51-.16 1.48-.26 2.44-.1.95-.16 1.57-.2 1.99-.11.13-.22.25-.34.37-.02-.16-.04-.31-.05-.46zm1.46-4.13c.04-.1.07-.19.11-.29.08-.12.16-.25.25-.38.57-.13 1.17-.31 1.76-.48.01 0 .02-.01.03-.01-.03.02-.06.04-.1.06-.69.4-1.4.81-2.05 1.1zm-.07-.83c.05-.2.11-.4.16-.61l.58-.57-.74 1.18zm.74 1.96c.12-.1.23-.19.35-.28-.19.18-.38.37-.58.56-.43.42-.86.83-1.29 1.2l.03-.32c.49-.35.99-.76 1.49-1.16zm-1.47 1.06zm1.03-2.79c.2-.52.38-1.02.54-1.43l-.05-.03 1.38-1.37c-.27.4-.77 1.16-1.28 1.93-.24.36-.43.65-.59.9zm5.56-5.29c.04-.02.09-.05.14-.07l.22.01v.01l.45.18c-.29-.05-.57-.1-.81-.13zm.48.19c.01-.01.03-.03.05-.04l.34.06c-.13-.01-.27-.01-.39-.02zm.2-.73l-.14.2c-.05.05-.11.11-.16.15l-.05.04-.19-.01.34-.34.2-.04zm-1.33 1.34c.29-.25.57-.49.82-.7l.19.03c-.34.32-.58.56-.76.73l-.25-.06zm1.07-.33c-.08-.02-.16-.05-.23-.07.05-.04.09-.09.14-.13h.06c.15 0 .31.01.48.02-.18.07-.33.13-.45.18zm.56-.31c.02-.01.05-.03.09-.04.09.03.19.07.28.11-.13-.03-.25-.05-.37-.07zm-6.24 2.65v-.01c.01-.03.02-.06.02-.09l.15-.18-.17.28zm-.7 2.34l-.03.11-.37.59c.02-.19.04-.38.06-.55l-.07-.01-.06.19c.01-.15.01-.3.02-.45l1.05-2.12c-.13.46-.36 1.35-.6 2.24zm-2.06 2.57c0-.01 0-.03-.01-.04 0 .01.01.02.01.02v.02zm.31 2.09l-.06.2c-.11-.3-.21-.58-.3-.83l-.05.01.01-1.47c.1.45.25 1.26.4 2.09zm-.4-.46l.18 1.23-.2.69.02-1.92zm-.09 1.84c-.15-.3-.28-.58-.39-.79l-.07.03.37 1.41-.04.14c-.1-.24-.19-.47-.29-.71-.21-.66-.44-1.34-.63-1.94.35.59.71 1.16 1.06 1.67l-.01.19zm.1 1.35l.12.44-.17-.31c-.03-.1-.07-.21-.11-.32.05.07.1.13.16.19zm.32 1.65l.07.24c-.2-.24-.41-.47-.61-.7.19.16.37.32.54.46zm1.59 3.08c1.46 1.75 2.25 2.7 2.69 3.21l.03.26c-.47-.29-.93-.56-1.29-.78l-1.43-2.69zm2.91 1.4c.12.3.24.61.37.93.26.64.51 1.3.73 1.92-.08-.05-.17-.1-.26-.16-.24-.79-.58-1.65-.91-2.5-.16-.41-.31-.81-.45-1.18.16.31.34.65.52.99zm-.14.22c.31.8.63 1.63.87 2.38-.08-.04-.17-.08-.26-.12-.11-.07-.22-.13-.34-.2-.07-.67-.18-1.39-.29-2.1.01.01.02.03.02.04zm2.44 3.63c-.06-.01-.11-.03-.17-.04-.03-.01-.05-.02-.08-.03.08 0 .13-.01.16-.01l.09.08zm-.93.47c.14.01.27.01.4.02l.11.06.02.01c-.18-.04-.36-.06-.53-.09zm2.62.42l-.12-.03c.08-.01.13-.02.16-.02l.1.07c-.04 0-.09-.01-.14-.02zm.75.19c-.01 0-.02 0-.03-.01.01.01.02.01.03.01zm-1.07-.27c-.79-.2-1.58-.4-2.11-.54l-1.6-.95c2.11.71 3.27 1.09 3.9 1.29.04.06.09.12.13.17-.05.01-.16.02-.32.03zm-.77-.59c-.02-.01-.04-.01-.06-.02.02 0 .04 0 .06.02 0-.01 0-.01 0 0zm-4.03-1.03c-.18-.04-.34-.08-.49-.12h.28l.21.12zm6.51 3.03l-3.64-1.83c.84.22 2.87.74 3.99 1.02.17.2.33.4.48.59-.24.06-.52.14-.83.22zm-1.6-1.72c-.23-.07-.48-.16-.77-.25-.37-.58-.79-1.19-1.21-1.79-.25-.36-.5-.71-.72-1.04.23.26.48.54.74.84.51.57 1.05 1.18 1.58 1.76.13.16.26.32.38.48zm-4.06-4.5c.01.05.01.09.02.14.12.76.24 1.52.32 2.24-.06-.04-.12-.07-.18-.11-.07-.84-.22-1.79-.37-2.71l-.03-.18c.08.2.16.41.24.62zM83.13 96c.03-.07.07-.13.11-.2-.04.07-.07.14-.11.2zm1.06-2.13c-.4.74-.83 1.53-1.22 2.29-.02-.06-.04-.11-.06-.17-.04-.17-.08-.34-.12-.5.4-.5.81-1.06 1.22-1.62.23-.32.46-.63.67-.92-.07.13-.14.28-.22.42-.09.16-.17.32-.27.5zm1.6-4.47l-.02-.02c.06-.04.13-.08.19-.11-.05.04-.11.08-.17.13zm.41-1.1c-.02.01-.03.02-.05.04-.17.1-.35.2-.53.3-.6.35-1.22.7-1.8.98.03-.09.06-.17.1-.26.67-.3 1.4-.72 2.12-1.14.34-.2.67-.39.98-.56-.26.2-.54.42-.82.64zm.17-.36l-.32.09c-.57.17-1.14.34-1.68.47l.18-.27c.68-.13 1.45-.35 2.19-.56.08-.02.14-.04.22-.06-.19.11-.39.22-.59.33zm1.79-2.97c.09-.08.19-.16.29-.25.55.06 1.19.08 1.81.08.28 0 .55.01.81.02-.23.03-.47.06-.73.1l-1.1.15c-.36-.02-.73-.05-1.08-.1zm1.48-.93c.07-.07.15-.14.23-.22.49.17 1.05.3 1.6.43.22.05.43.1.64.15-.18-.02-.36-.03-.56-.05-.28-.03-.58-.05-.87-.08-.37-.06-.72-.14-1.04-.23zm1.67-.33c.05.01.1.02.14.03.17.07.33.14.5.21-.22-.09-.44-.16-.64-.24zm1.07-1.2c.01 0 .01-.01.02-.01h.05l-.07.01zm-1.6.02c-.08.03-.17.07-.25.1l-.11.04.12.03c.01 0 .02.01.03.01l-.02.02-.35.09h-.01l-.47.47c-.04.02-.09.05-.13.07l-.11.05.1.01-.8.43c.13-.18.26-.36.39-.53l1.73-.92c-.04.05-.08.09-.12.13zm-1.15.32l-.27.2c.12-.17.24-.33.35-.48-.02.09-.05.19-.08.28zm-.82.84c-.06.09-.12.16-.17.24l-.66.36c.22-.32.42-.62.6-.87l1.29-1.17c-.25.32-.65.88-1.06 1.44zm-.05-.55l-.02.02c.01-.01.02-.03.03-.04 0 .01 0 .02-.01.02zm-4.99 2.12c-.03.49-.1 1.4-.16 2.3 0 .05-.01.09-.01.13l-.25.52c.03-.62.06-1.22.09-1.73l.33-1.22zm-1.51 5.72c.01.11.01.2.02.3-.04-.41-.08-.79-.11-1.12h-.07l-.18 1.97c-.05-.28-.1-.55-.15-.8l.35-2.76c.02.51.08 1.46.14 2.41zm8.97 17.28l.02.01c-.16.04-.33.09-.49.13.13-.05.26-.09.39-.14h.08zm3.33.07c-.11.04-.22.09-.34.13l.2-.23c.04.03.09.07.14.1zm-7.1-5.24c.03.05.06.09.09.14-.1-.11-.2-.22-.29-.33l-.04.03c-.13-.26-.27-.52-.39-.77.21.29.42.6.63.93zm-.13.03c.27.4.56.82.88 1.27.38.54.76 1.09 1.1 1.62-.1-.02-.23-.05-.39-.09l-.21-.17-.06-.05v.05h-.06c-.32-.78-.75-1.63-1.18-2.47-.03-.05-.05-.1-.08-.16zm-1.47-2.36c-.03-.19-.06-.38-.09-.56.08.26.16.55.24.85-.05-.1-.1-.2-.15-.29zm-.05.14l.03.16-.03-.18c-.01 0-.01.01 0 .02zm-1.17-2.42c-.05.78-.11 1.59-.15 2.39-.02.19-.05.38-.08.56-.11-.23-.23-.49-.36-.77.16-.66.3-1.38.43-2.08.08-.43.16-.84.24-1.23-.02.36-.05.74-.08 1.13zm-.96-.66c-.06.22-.12.44-.18.65-.07-.27-.14-.58-.22-.92.25-.62.48-1.3.71-1.97.14-.41.27-.8.41-1.17-.07.34-.15.71-.23 1.1-.17.74-.34 1.53-.49 2.31zm.84-3.87c0-.01 0-.01.01-.02-.01 0-.01.01-.01.02zm-.6 1.6c-.22.64-.44 1.28-.67 1.87-.05-.2-.1-.41-.15-.62.3-.56.6-1.17.89-1.77.14-.29.27-.56.41-.84-.16.42-.32.87-.48 1.36zm.77-2.62c0-.01.01-.03.02-.04 0 .02-.01.03-.02.04zm-1.4.04c-.11.14-.22.27-.34.4.03-.26.06-.56.09-.89.44-.42.89-.9 1.34-1.38.27-.3.54-.58.79-.84-.19.28-.4.58-.62.89-.41.59-.85 1.21-1.26 1.82zm2.21-4.02c-.65.47-1.31.96-1.92 1.33.07-.18.14-.37.21-.56.6-.29 1.24-.65 1.87-1.01.31-.18.6-.35.89-.5-.34.22-.69.47-1.05.74zm1.88-1.69h-.04c.04-.02.09-.03.13-.05.07-.03.13-.05.2-.08.19.01.38.01.55.02-.26.04-.54.08-.84.11zm1.38-.61v-.01c.03 0 .06 0 .09-.01-.03.01-.06.01-.09.02zm-.07-.01c-.43.08-.9.19-1.39.3l-.4.09c-.29-.01-.57-.02-.85-.04.07-.08.15-.15.23-.23.52 0 1.08-.04 1.63-.07.27-.02.53-.04.78-.05zm.7-.55c-.26.08-.53.16-.82.25-.32.1-.65.19-.97.3-.42.03-.85.05-1.25.05.08-.08.15-.16.23-.24.59-.04 1.24-.13 1.87-.23.33-.05.64-.09.94-.13zm1.43-1.4c-.39 0-.79-.01-1.2-.01-.22 0-.49 0-.76.01l-.34-.03c.16-.14.33-.29.5-.43.53.14 1.14.24 1.74.33.28.04.55.09.81.13h-.75zm1.05-.64c-.36-.13-.73-.26-1.08-.39.08 0 .16.01.25.02.42.17.89.33 1.35.49.16.05.31.1.45.15.03.01.06.02.09.04-.14-.03-.29-.06-.44-.08-.2-.08-.4-.15-.62-.23zm1.72-1.36c.29-.08.58-.16.86-.23l.67-.02c-.65.1-1.14.18-1.53.25zm.11-.11c-.41.11-.72.2-.96.26l-.42-.01c.26-.11.52-.22.75-.32v-.02l1.8-.23c-.32.09-.75.21-1.17.32zm-.84-.16l.39-.1c-.05.03-.12.06-.18.1h-.21zm-.84.16l-.76.1c.02-.03.03-.06.05-.09l1.77-.47c-.42.19-.76.34-1.06.46zm1.48-1.18c-.53.32-1.06.64-1.48.94l-.11.03c.16-.12.33-.24.49-.36.15-.11.28-.21.42-.31.28-.13.55-.26.81-.38-.04.03-.08.05-.13.08zm-1.55.01c-.28.44-.56.88-.77 1.29l-.52.07c.48-.5 1.01-1.1 1.45-1.6-.06.08-.11.16-.16.24zm-1.17.97c.09-.11.19-.22.28-.33-.05.09-.09.17-.13.26l-.15.07zm.64-1.01c-.04.08-.09.16-.13.24l-.29.22c.21-.28.42-.56.61-.82-.06.12-.12.24-.19.36zm-.24.42c-.14.17-.35.42-.57.69l-1.21.64 1.78-1.33zm-1.66-.47c-.26.59-.51 1.18-.72 1.73l-.04-.04-.57.53c.02-.08.03-.16.05-.24.53-.85 1.07-1.78 1.52-2.55l-.24.57zm-1.43 2.32l-.4.37c.19-.35.38-.7.55-1.01l-.15.64zM88 82.1c-.13.37-.25.74-.37 1.1l-.02-.01-.58.75c.01-.03.01-.05.02-.08.4-.8.8-1.63 1.14-2.33-.06.18-.12.37-.19.57zm-2.09 3v-.02c0-.02.01-.04.01-.05.2-.37.39-.72.55-1.03-.02.17-.03.34-.04.5l-.52.6zm-2.1 2.15l-.12.19c.03-.49.07-.98.1-1.43 0 .44 0 .85.02 1.24zm-.01-2.51v.14l-.24.9c.09-.68.18-1.34.26-1.93-.02.28-.02.58-.02.89zm-2.13 2.58c.12.39.25.78.38 1.16l-.12.93c-.18-1.04-.38-2.09-.55-2.97.1.28.19.58.29.88zm.12 3.23c-.18-1.1-.37-2.21-.54-3.14.08.27.17.56.26.86.13.44.27.88.4 1.31l-.12.97zm-.6-3.58c-.01-.05-.01-.11-.02-.16l.09.39c-.03-.07-.05-.16-.07-.23zm.57 3.84l-.01.12c-.08-.21-.16-.42-.24-.64-.06-.72-.13-1.44-.2-2.13.15.83.3 1.74.45 2.65zm-.21 3.21v.2c-.38-.56-.77-1.2-1.16-1.84-.03-.08-.05-.16-.07-.23.41.66.83 1.31 1.23 1.87zm-.36 3.52c-.01-.01-.02-.02-.03-.02-.65-.9-1.34-1.81-1.9-2.56.2.2.42.42.63.64.18.18.35.36.53.53l.77 1.41zm-.23-.17c-.01-.01-.03-.02-.04-.03v-.03c.01.02.02.04.04.06zm.28 2.07c.55.38 1.12.78 1.65 1.14l.71 1.29c-.15-.1-.29-.21-.43-.3l-1.93-2.13zm1.17 1.68c.84.6 1.53 1.1 2.1 1.5l.34.64c-.07-.04-.14-.08-.2-.12l-.04.06.41.39c-.26-.13-.51-.25-.75-.37l-1.86-2.1zm-.91.82c.71.23 1.43.46 2.09.63l.51.57c-.36-.18-.68-.33-.92-.45l-.04.06.61.5h-.01c-1.05-.56-2.17-1.13-3.07-1.57.26.07.54.16.83.26zm.5.95c.63.17 1.27.33 1.87.45l.67.54c-.41-.09-.83-.18-1.22-.27-.77-.34-1.52-.67-2.17-.95.27.07.56.15.85.23zm2.67 1.1l.69.56c-.64-.18-1.25-.35-1.65-.47l-.02.04-1.25-.62c.92.2 1.65.36 2.23.49zm.22 2.17H85l1.13.28 1.51.46c-.07.01-.14.01-.21.02l-2.54-.76zm1 .93c.94-.06 1.68-.12 2.28-.16l.84.34c-.68.01-1.31.02-1.73.02v.04l-1.39-.24zm4.88 1.07l-3.71-.25c.54-.1 1-.19 1.42-.27l2.29.52zm6.37 1.69c-.12-.09-.26-.19-.39-.28.46-.27.95-.54 1.48-.79-.04.1-.06.2-.03.28.02.05.06.1.11.13.01.04.02.08.05.13-.31.17-.65.41-1.03.68-.06-.05-.12-.1-.19-.15zm4.68-6.21c.05-.07.13-.07.23-.02.26.14.71.55.89 1.14.12.37 0 .59-.08.76-.05.09-.09.17-.07.26.02.12.12.42.16.57h-.03c-.08-.24-.17-.48-.25-.67-.06-.14-.16-.25-.28-.39-.04-.05-.09-.1-.13-.15.17-.48.2-.84.03-.98-.05-.05-.12-.07-.21-.07a.82.82 0 00-.28.07c-.07-.34-.01-.48.02-.52zm1.98.32c.68-1.43 1.55-2.59 1.95-2.59h.03c.05.01.08.04.11.09.11.22.03.76-.2 1.45-.29.28-.6.59-.9.93-.89 1.01-1.52 1.97-1.64 2.48-.03 0-.07.01-.11.01.03-.52.31-1.42.76-2.37zm1.19-2.25c.02-.07.1-.08.16-.09h.07c-.07.07-.14.14-.21.23-.02-.05-.03-.1-.02-.14zm1.34.39c.05.05.09.1.12.14-.17.13-.35.27-.54.44-.03-.01-.05-.02-.08-.03.09-.3.14-.58.16-.79.12.07.24.14.34.24zm.32-1.03c-.13-1.63.09-2.85.37-2.96.01-.01.03-.01.04-.01.18 0 .4.46.56 1.25-.11.37-.21.77-.29 1.16-.09.47-.16.91-.19 1.3-.11.04-.24.12-.38.21-.05-.28-.09-.59-.11-.93.01-.01.01-.01 0-.02zm1.03-3.5c.16 0 .4.02.65.14.01.01.02.01.03.02-.11.11-.23.31-.35.56a1.2 1.2 0 01-.44-.13c-.33-.16-.44-.32-.44-.4 0-.06.06-.09.1-.11.12-.06.28-.08.45-.08zm.86.12c.03 0 .05.02.08.05.15.19.17.81.09 1.62-.22.4-.45.88-.66 1.41l-.01.02c-.18.44-.33.86-.44 1.25 0-.03.01-.07.01-.1-.01-.07-.04-.12-.09-.15a.25.25 0 00-.13-.03c-.05 0-.1.01-.17.03.04-.38.1-.81.19-1.26.34-1.7.86-2.84 1.13-2.84zm.13-4.13h.01c.09 0 .15.02.21.03-.06.13-.1.32-.13.56-.15.06-.31.12-.53.12-.09-.08-.18-.13-.25-.13-.04 0-.07.01-.11.04-.02.01-.03.04-.04.06-.15-.04-.24-.09-.26-.14-.02-.06.02-.11.05-.15.18-.16.58-.39 1.05-.39zm-1.71-2.97c.02-.04.06-.06.12-.06.19 0 .54.19.95.5.13.3.28.61.45.91.54.99 1.12 1.73 1.45 1.88-.01.01-.01.03-.02.04h-.04c-.16-.06-.36-.18-.59-.34-.06-.08-.12-.13-.18-.13-.24-.19-.51-.42-.77-.69-.98-.97-1.5-1.88-1.37-2.11zm.77-1.17c.01-.01.03-.02.05-.02.17 0 .53.36.96.98.08.41.2.87.34 1.31 0 .01.01.03.01.04.25.8.59 1.59.89 2-.01.01-.01.02-.02.03-.28-.12-.84-.79-1.43-1.85-.7-1.31-.98-2.34-.8-2.49zm-1.56.51c-.03-.05 0-.11.03-.15.13-.19.5-.5.96-.58.05-.01.1-.01.15-.01.2 0 .32.08.41.15l.01.01c-.01.01-.03 0-.04.01-.05.04-.07.12-.07.22-.04.03-.09.06-.13.09-.18.13-.39.28-.72.33-.33.06-.55.03-.6-.07zm-2.91-5.31c.12 0 .26.01.41.04.16.13.34.26.52.38l.01.01c.47.31.9.53 1.2.61.01.02.02.04.02.06h-.02c-.28 0-.69-.07-1.1-.19-.86-.25-1.44-.62-1.42-.79.01-.08.15-.12.38-.12zm-.22-.84c.02-.03.07-.04.11-.04.17 0 .46.12.8.3.16.22.36.45.56.66.3.31.6.57.85.74 0 .04.01.09.02.14-.29-.08-.71-.3-1.15-.59l-.02.03.01-.04c-.78-.53-1.25-1.06-1.18-1.2zm-1.59-.29c-1.11-.14-1.92-.44-1.95-.61 0-.01 0-.03.01-.04.07-.09.37-.14.79-.14.21 0 .45.02.69.04.09.05.19.1.29.15.68.34 1.31.58 1.69.63-.13.02-.31.04-.52.04-.3.01-.64-.02-1-.07zm-1.73-1.79c-.01-.03 0-.04 0-.04.01-.02.06-.04.13-.04.32 0 1.05.26 1.81.65.97.49 1.54.95 1.59 1.13.01.03 0 .04 0 .04-.01.02-.06.03-.13.03-.32 0-1.05-.26-1.81-.65-.97-.48-1.54-.94-1.59-1.12zm.73-.75c0-.03.02-.04.03-.04.01-.01.03-.01.06-.01.27 0 .99.46 1.68 1.08.7.63 1.06 1.15 1.07 1.34-.16-.26-.78-.69-1.59-1.11-.18-.09-.35-.17-.52-.25-.49-.49-.74-.87-.73-1.01zm2.84 2.55c.18.11.35.22.52.33.02.02.03.05.05.07-.05-.03-.11-.06-.16-.08-.14-.11-.29-.21-.43-.31.01 0 .01 0 .02-.01zm.37-.27c.01-.01.03-.02.05-.02.19 0 .7.33 1.3.96.47.49.78.94.89 1.2-.15-.09-.27-.14-.36-.14-.06 0-.1.02-.13.06-.02.02-.02.05-.02.08-.23-.16-.51-.4-.82-.72-.68-.71-1.02-1.31-.91-1.42zm.78-.49c.01-.02.02-.04.04-.04h.02c.17 0 .6.51 1.01 1.33.29.59.43 1.06.46 1.33-.12-.32-.49-.81-.9-1.23-.14-.15-.29-.28-.42-.41-.2-.5-.26-.86-.21-.98zm.67-.3c.02-.02.03-.03.06-.04.17 0 .51.6.73 1.48v.02c.16.64.19 1.11.14 1.35-.01.01-.01.02-.01.02-.04-.31-.2-.78-.45-1.29-.15-.31-.33-.61-.51-.86-.04-.34-.02-.59.04-.68zm1.25 2.2c.01-.12.01-.23.07-.33.12-.22.38-.52.57-.62.03-.01.05-.02.07-.02.02 0 .04.01.05.03.04.06.03.21-.06.4-.1.22-.32.43-.5.6l-.03.03c-.02 0-.04.01-.06.02-.04.02-.06.07-.08.12-.02.03-.05.05-.07.07.03-.1.03-.2.04-.3zm2.46 2.13v.01c.2.93.26 1.76.18 2.17-.04-.49-.41-1.4-.85-2.22v-.01c-.15-.28-.31-.54-.46-.78-.1-.75-.09-1.34.05-1.52.02-.03.04-.04.07-.04.25.01.71.97 1.01 2.39zm.06-2.46c.25.06.53 1.07.55 2.49.01.85-.08 1.59-.23 1.97l-.08.08c-.01.01-.02.01-.02.02.06-.45-.01-1.23-.2-2.1l-.04.01.03-.02c-.11-.5-.25-1.01-.41-1.44.06-.48.16-.83.29-.96.03-.03.06-.05.09-.05h.02zm.89 3.75c.05-.16.09-.33.2-.45.24-.26.69-.58 1-.64.08-.02.14 0 .17.06.05.11-.01.34-.21.59-.22.27-.59.47-.9.64-.19.1-.36.19-.45.28-.07.07-.16.15-.25.24-.11.1-.23.22-.34.32.05-.05.1-.1.18-.17.14-.13.28-.27.36-.35.14-.15.19-.34.24-.52zm.24 3.24c0 .01.01.03.01.04.35 1.1.48 1.99.42 2.38-.02.01-.04.03-.06.04a.369.369 0 00-.08-.14.19.19 0 00-.11-.07h-.01c-.06 0-.11.05-.16.11-.25-.35-.57-1.03-.87-1.96 0-.01-.01-.03-.01-.04-.45-1.42-.54-2.51-.33-2.59h.03c.22 0 .73.85 1.17 2.23zm.18-2.38c.23.03.52 1.07.56 2.54v.03c.03.94-.06 1.76-.2 2.17-.01 0-.01.01-.02.01.05-.5-.15-1.46-.44-2.35 0-.01-.01-.03-.01-.04-.09-.27-.18-.54-.28-.8.04-.76.15-1.36.31-1.52.02-.02.05-.04.08-.04zm1.01.14c.01 0 .02 0 .04.01.23.11.32 1.16.09 2.57-.15.91-.38 1.56-.58 1.89l-.09.06-.01.01c.13-.44.2-1.22.18-2.1v-.04c-.02-.52-.07-1.05-.15-1.5.18-.57.38-.9.52-.9zm.24 3.87c.07-.15.15-.31.28-.41.28-.21.78-.44 1.09-.44.08 0 .13.03.15.08.04.11-.05.34-.31.55-.26.23-.66.35-.99.45-.21.06-.39.12-.49.19-.08.05-.18.11-.28.18-.16.1-.34.21-.48.31v-.01c.07-.04.15-.1.29-.19.16-.11.32-.22.42-.27.15-.1.24-.27.32-.44zm-4.16 10.31a.875.875 0 01-.07-.28c.12-.2.22-.39.29-.55-.08.31-.13.58-.15.8-.03.01-.05.02-.07.03zm-.3.16c-.03.02-.06.04-.09.05.02-.03.04-.06.06-.08l.03.03zm0-.09c0-.01.01-.01.01-.02.02.02.05.04.07.06-.01 0-.02.01-.02.01-.02-.02-.03-.04-.06-.05zm.15 0c-.02-.04-.04-.08-.07-.13.03-.04.06-.09.08-.13.02.09.04.16.06.22-.01.02-.04.03-.07.04.01 0 0 0 0 0zm2.05-4.7c-.12.16-.25.36-.38.59.02-.28.03-.53.03-.74.12.04.24.09.35.15zm-.35-.23v-.04c.07.04.24.12.41.2l-.01.01c-.13-.06-.27-.12-.4-.17zm-.11-3.45c-.15-.26-.29-.46-.42-.6.18-.01.33-.05.46-.11-.03.22-.04.46-.04.71zm.73-1.07c-.03-.07-.05-.13-.08-.18.11.08.22.14.32.19-.09-.01-.18-.01-.24-.01zm.43.08s0 .01-.01.01c-.13 0-.26 0-.39.01 0-.01-.01-.02-.01-.03.1 0 .26 0 .41.01zm-.04.08c-.06.17-.12.38-.18.61-.05-.22-.1-.43-.15-.6.11-.01.22-.01.33-.01zm-3.47-9.04c-.01.22.08.56.23.95-.19-.18-.37-.34-.53-.46l-.01-.01c.05-.08.11-.17.16-.25.05-.07.09-.14.13-.2 0 0 .02-.02.02-.03zm2.27 4.41s0 .01 0 0c0 .01 0 0 0 0zm0 .15c0 .19.03.42.07.67-.23-.32-.44-.57-.62-.72.16-.04.32-.07.47-.09.02.05.05.1.08.14zm-.55-2.78s0 .01.01.01c.55 1.02.83 1.87.84 2.25-.05-.03-.1-.04-.15-.02-.05.02-.09.08-.11.16-.3-.21-.84-.88-1.39-1.9l-.03.02.03-.03c-.7-1.3-.98-2.34-.78-2.46.01-.01.03-.01.04-.01.23.01.88.75 1.54 1.98zm-2.63-1.44c.02-.02.04-.03.08-.03.18 0 .6.28 1.12.8.15.38.35.8.56 1.2v.01c.46.85.94 1.53 1.29 1.84-.01 0-.01.01-.02.01-.3 0-1.05-.65-1.79-1.54-.92-1.13-1.39-2.1-1.24-2.29zm1.2 2.34c.76.92 1.52 1.56 1.84 1.56.03 0 .05-.02.08-.03.02.01.03.02.05.03-.06.01-.14.03-.23.05-.39-.06-1.03-.36-1.72-.82-.01-.01-.02-.01-.03-.02-1.14-.76-1.83-1.55-1.75-1.81.02-.06.08-.09.19-.09.21 0 .56.13.96.33.19.26.39.54.61.8zm1.99 1.63c0 .01 0 .02-.01.03-.19.02-.42.07-.63.12-.01-.01-.02-.01-.03-.02.15-.03.47-.08.67-.13zm.44 4.17c.16 0 .37.51.53 1.34-.09.41-.16.88-.2 1.34-.09.91-.08 1.71.02 2.19-.02.02-.03.02-.05.04-.2-.27-.43-1.1-.54-2.26-.14-1.5.01-2.58.23-2.65h.01zm-1.16.78c.02-.01.04-.02.06-.02.15 0 .43.32.73.87 0 .33.02.69.05 1.03.09.99.31 1.98.57 2.31a.12.12 0 01-.05.05c-.26-.26-.62-.86-.95-1.71-.5-1.31-.62-2.37-.41-2.53zm-.54 7.58a.2.2 0 01.09.02c.03.02.05.05.05.1.04.27-.28.88-.81 1.6-.43.25-.92.58-1.4.95l-.01.01c-.86.66-1.56 1.32-1.93 1.81-.03 0-.05-.01-.09-.01-.02 0-.05.01-.07.01.12-.49.75-1.45 1.62-2.43 1.04-1.17 2.13-2.06 2.55-2.06zm-4.55 4.52c-.42.06-.93.19-1.46.38.39-.56.67-1.08.84-1.52.04.04.07.08.11.12.12.13.22.24.27.37.08.19.17.43.24.65zm2.95-3.54c.01-.03.02-.05.02-.08.01.01.03.01.04.02a.17.17 0 01-.06.06zm-3.72 1.35c.07 0 .12.02.16.05.3.25-.14 1.38-.98 2.58-.16.06-.33.12-.49.19-1.16.5-2.05 1.11-2.41 1.59.15-.59.64-1.5 1.33-2.4.91-1.17 1.91-2.01 2.39-2.01zm-.69 4.45c-.96.41-1.89.66-2.5.66-.34 0-.55-.08-.61-.22-.16-.42.99-1.34 2.52-2 .96-.41 1.89-.66 2.5-.66.34 0 .55.08.61.22.17.42-.99 1.34-2.52 2zm2.17-1.24c.02.02.04.03.06.05-.11.07-.23.13-.34.19.11-.08.2-.16.28-.24zm2.56-1.83c-.82.62-1.61 1.11-2.18 1.35.05-.11.07-.22.04-.31-.06-.15-.23-.23-.5-.26.38-.48 1.06-1.13 1.89-1.76l-.02-.03.03.02c1.17-.89 2.31-1.52 2.78-1.52.08 0 .13.02.16.05.17.25-.67 1.29-2.2 2.46zm3.51-3.62c-.44.56-.88 1.04-1.26 1.37.03-.1.04-.18-.01-.24-.01-.02-.03-.03-.05-.04.28-.46.59-1.07.87-1.77 0-.01.01-.01.01-.02.14-.33.25-.66.35-.96.6-.65 1.13-1.08 1.38-1.08.04 0 .07.01.09.04.2.21-.32 1.35-1.38 2.7zm-.49-.72s0 .01-.01.02c-.3.74-.61 1.33-.88 1.77-.03-.01-.06-.02-.1-.02-.17 0-.42.08-.73.22.06-.55.31-1.43.69-2.36l.01-.02c.64-1.57 1.32-2.54 1.58-2.54.01 0 .02 0 .03.01.03.01.05.03.06.07.16.32-.12 1.53-.65 2.85zm-4.51-14.66c-.17.08-.27.1-.32.1-.04 0-.07-.01-.08-.03-.01-.02-.01-.05 0-.08.06-.15.25-.42.55-.58.08-.04.15-.06.22-.06s.12.02.17.03c.06.02.11.03.15.02-.02.01-.05.03-.07.04-.07.04-.13.11-.19.19-.1.13-.22.27-.43.37zm4.5 11.87c-.12-.05-.22-.11-.27-.14-.01-.01-.02-.03-.03-.04-.02-.21-.05-.37-.11-.47.14.27.28.49.41.65zm-20.61 5.9c-.06-.07-.12-.13-.18-.2l-.43-.49-.18-.27c.24.31.51.63.79.96zm-3.07-5.1zm1.92-11.78l-.01-.02c-.03.02-.06.03-.09.05l-.53.15c-.25.07-.51.15-.77.22.37-.15.75-.3 1.12-.45.11-.01.21-.03.32-.04l.53-.06-.57.15zm2.65 6.41l3.5 2.76-1.5 4.43L96 98.25l3.99 2.76-1.5-4.43 3.5-2.76H97.5L96 89.41l-1.5 4.42h-4.49zM96 90.08l1.34 3.96h4.02l-3.13 2.47 1.34 3.95L96 97.99l-3.58 2.47 1.34-3.95-3.13-2.47h4.03L96 90.08z"/><g><path fill="none" d="M172 160V32c0-6.6-5.4-12-12-12H32c-6.6 0-12 5.4-12 12v128c0 6.6 5.4 12 12 12h128c6.6 0 12-5.4 12-12z" opacity=".4"/><path fill="none" d="M0 0v192h192V0H0z"/><path fill="#DFDFDF" d="M160 20c6.6 0 12 5.4 12 12v128c0 6.6-5.4 12-12 12H32c-6.6 0-12-5.4-12-12V32c0-6.6 5.4-12 12-12h128m0-8H32c-11.03 0-20 8.97-20 20v128c0 11.03 8.97 20 20 20h128c11.03 0 20-8.97 20-20V32c0-11.03-8.97-20-20-20z"/><path fill="#FFF" fill-opacity=".2" d="M160 20H32c-6.6 0-12 5.4-12 12v1c0-6.6 5.4-12 12-12h128c6.6 0 12 5.4 12 12v-1c0-6.6-5.4-12-12-12z"/><path fill="#212121" fill-opacity=".1" d="M160 172H32c-6.6 0-12-5.4-12-12v-1c0 6.6 5.4 12 12 12h128c6.6 0 12-5.4 12-12v1c0 6.6-5.4 12-12 12z"/><radialGradient id="a" cx="23.768" cy="23.933" r="204.625" gradientUnits="userSpaceOnUse"><stop offset="0" stop-color="#fff" stop-opacity=".1"/><stop offset="1" stop-color="#fff" stop-opacity="0"/></radialGradient><path fill="url(#a)" d="M160 172H32c-6.6 0-12-5.4-12-12V32c0-6.6 5.4-12 12-12h128c6.6 0 12 5.4 12 12v128c0 6.6-5.4 12-12 12z"/></g></svg>