<svg xmlns="http://www.w3.org/2000/svg" width="192" height="192"><path fill="#20603D" d="M172 160V32c0-6.6-5.4-12-12-12H32c-6.6 0-12 5.4-12 12v128c0 6.6 5.4 12 12 12h128c6.6 0 12-5.4 12-12z"/><path fill="#FAD201" d="M160 20H32c-6.6 0-12 5.4-12 12v102h152V32c0-6.6-5.4-12-12-12z"/><path fill="#00A1DE" d="M160 20H32c-6.6 0-12 5.4-12 12v64h152V32c0-6.6-5.4-12-12-12z"/><path fill="#E5BE01" d="M141.68 60.7l16.98-.99-16.98-.99 16.14-5.35-16.65 3.44 14.2-9.35-15.2 7.63 11.3-12.7-12.7 11.3 7.63-15.2-9.35 14.2 3.44-16.65-5.35 16.14-.99-16.98-.99 16.98-5.35-16.14 3.44 16.65-9.35-14.2 7.63 15.2-12.7-11.3 11.3 12.7-15.2-7.63 14.2 9.35-16.65-3.44 16.14 5.35-16.98.99 16.98.99-16.14 5.35 16.65-3.44-14.2 9.35 15.2-7.63-11.3 12.7 12.7-11.3-7.63 15.2 9.35-14.2-3.44 16.65 5.35-16.14.99 16.98.99-16.98 5.35 16.14-3.44-16.65 9.35 14.2-7.63-15.2 12.7 11.3-11.3-12.7 15.2 7.63-14.2-9.35 16.65 3.44-16.14-5.35zm-7.53 6.61c-4.19 0-7.6-3.41-7.6-7.6s3.41-7.6 7.6-7.6c4.19 0 7.6 3.41 7.6 7.6s-3.41 7.6-7.6 7.6zm6.88-7.6c0 3.79-3.09 6.88-6.88 6.88s-6.88-3.09-6.88-6.88 3.09-6.88 6.88-6.88 6.88 3.09 6.88 6.88z"/><path fill="none" d="M172 160V32c0-6.6-5.4-12-12-12H32c-6.6 0-12 5.4-12 12v128c0 6.6 5.4 12 12 12h128c6.6 0 12-5.4 12-12z" opacity=".4"/><path fill="none" d="M0 0v192h192V0H0z"/><path fill="#DFDFDF" d="M160 20c6.6 0 12 5.4 12 12v128c0 6.6-5.4 12-12 12H32c-6.6 0-12-5.4-12-12V32c0-6.6 5.4-12 12-12h128m0-8H32c-11.03 0-20 8.97-20 20v128c0 11.03 8.97 20 20 20h128c11.03 0 20-8.97 20-20V32c0-11.03-8.97-20-20-20z"/><path fill="#FFF" fill-opacity=".2" d="M160 20H32c-6.6 0-12 5.4-12 12v1c0-6.6 5.4-12 12-12h128c6.6 0 12 5.4 12 12v-1c0-6.6-5.4-12-12-12z"/><path fill="#212121" fill-opacity=".1" d="M160 172H32c-6.6 0-12-5.4-12-12v-1c0 6.6 5.4 12 12 12h128c6.6 0 12-5.4 12-12v1c0 6.6-5.4 12-12 12z"/><radialGradient id="a" cx="23.768" cy="23.933" r="204.625" gradientUnits="userSpaceOnUse"><stop offset="0" stop-color="#fff" stop-opacity=".1"/><stop offset="1" stop-color="#fff" stop-opacity="0"/></radialGradient><path fill="url(#a)" d="M160 172H32c-6.6 0-12-5.4-12-12V32c0-6.6 5.4-12 12-12h128c6.6 0 12 5.4 12 12v128c0 6.6-5.4 12-12 12z"/></svg>