<svg xmlns="http://www.w3.org/2000/svg" width="192" height="192"><path fill="#006C35" d="M172 160V32c0-6.6-5.4-12-12-12H32c-6.6 0-12 5.4-12 12v128c0 6.6 5.4 12 12 12h128c6.6 0 12-5.4 12-12z"/><path fill="#FFF" d="M80.28 55.9c-.12 0-.29.06-.54.21-.56.37-1.66 1.52-1.69 2.84-.03.74-.17.74.31 1.22.35.51.7.46 1.42.09.41-.3.55-.49.68-1 .17-.85-.89.4-1.03-.54-.24-.87.44-1.23 1.08-2.08.02-.41.03-.73-.23-.74zm10.35.06c-.2.03-.44.28-.78.89-.24.64-1.28 1.61-.53 3.61.62 1.27.87 3.33.59 5.62-.43.65-.52.88-1.08 1.53-.79.84-1.64.63-2.29.31-.61-.41-1.09-.62-1.37-1.93.05-2.08.17-5.49-.21-6.21-.56-1.12-1.49-.72-1.88-.38-1.9 1.74-2.84 4.67-3.41 7-.53 1.7-1.09 1.21-1.48.52-.96-.9-1.03-7.93-2.18-6.77-1.86 5.3 1.06 11.11 3.09 10.55 1.46.6 2.39-2.17 2.98-5.22.41-.85.72-.95.93-.51-.05 4.05.29 4.95 1.33 6.17 2.32 1.79 4.24.23 4.39.08l1.81-1.81c.4-.42.93-.45 1.5-.08.55.5.48 1.37 1.66 1.97.99.4 3.12.1 3.61-.76.66-1.14.82-1.53 1.13-1.96.47-.63 1.28-.35 1.28-.15-.08.35-.55.7-.23 1.33.56.42.69.15 1.03.06 1.18-.56 2.06-3.12 2.06-3.12.05-.95-.49-.88-.84-.68-.45.28-.48.37-.93.65-.58.09-1.69.47-2.24-.39-.56-1.03-.57-2.46-1-3.5 0-.08-.75-1.63-.06-1.73.35.07 1.11.26 1.23-.37.37-.61-.79-2.36-1.59-3.24-.69-.75-1.64-.85-2.56-.08-.64.59-.55 1.25-.67 1.88-.16.72-.13 1.61.6 2.56.64 1.27 1.81 2.89 1.43 5.19 0 0-.68 1.09-1.87.95-.5-.11-1.31-.32-1.74-3.51-.33-2.41.08-5.78-.94-7.36-.24-.58-.44-1.16-.77-1.11zm-3.28.25c-.31.03-.65.39-.93 1.08-.24.53-.53 3.3-.48 3.3-.19.82.86 1.17 1.34.11.72-1.94.72-2.77.77-3.59-.11-.62-.39-.93-.7-.9zm12.11.22c-.32.03-.57.21-.67.68-.13 1.1-.06 1.7.12 2.62.14.61 1.03 1.64 1.47 2.23 2.1 2.82 4.11 5.65 6.06 8.58.31 2.18.53 4.3.67 6.42.32 4.65.41 10.43.12 15.32.87.03 2.27-1.41 2.76-3.51.32-2.92-.11-8.87-.14-10.59-.02-.71-.06-1.57-.11-2.46 2.27 3.7 4.46 7.62 6.62 11.93.79-.37.61-4.8.15-5.42-1.73-3.72-4.11-7.39-4.87-8.8-.27-.51-1.21-1.93-2.32-3.57-.2-2.34-.43-4.32-.57-4.92-.36-2.47 1.02.28.83-1.16-.45-2.47-1.81-4.15-3.42-6.41-.52-.74-.51-.89-1.31.18-.48 1.09-.47 1.99-.33 2.84-.21-.31-.47-.67-.85-1.12-1.39-1.19-1.48-1.26-2.63-2.23-.36-.26-1.05-.66-1.58-.61zm35.87.37c-.15-.02-.32.05-.51.33-.36.32-.75.89-.74 1.63.09 1.3.32 2.64.41 3.94.03.17.06.35.1.52-.14-.18-.26-.32-.33-.39-2.54-2.67 1.17-.44-.48-2.5-1.4-1.53-1.81-2.02-3-2.94-.6-.39-.96-1.13-1.16.13-.08 1.11-.16 2.39-.09 3.33 0 .52.53 1.5 1 2.07 1.7 2.08 3.43 4.3 5.17 6.61.37 4.72.46 9.04.84 13.77-.05 2.02-.67 4.7-1.26 4.96 0 0-.9.52-1.5-.06-.44-.18-2.18-2.92-2.18-2.92-.89-.82-1.49-.59-2.13 0-1.76 1.7-2.55 4.87-3.74 7.06-.31.49-1.17.9-2.14-.04-2.45-3.34-1.02-8.1-1.32-6.88-2.18 2.46-1.21 6.53-.72 7.4.72 1.44 1.3 2.36 2.7 3.07 1.27.94 2.27.35 2.81-.3 1.28-1.33 1.3-4.72 1.9-5.4.42-1.23 1.48-1.02 1.99-.47.5.72 1.09 1.19 1.82 1.58 1.2 1.05 2.62 1.25 4.03.28.96-.54 1.58-1.24 2.15-2.62.6-1.61.31-10.08.17-14.78.9 1.27 1.79 2.57 2.68 3.89.39 4.13.56 8.2.44 12.1-.09.78 2.71-2.32 2.69-3.78-.01-1.28 0-2.44 0-3.52 1.36 2.17 2.67 4.37 3.91 6.6.77-.41.51-4.77.02-5.37-1.3-2.18-2.97-4.54-4.26-6.37-.25-2.3-.6-5.02-.76-5.85-.25-1.3-.49-3.25-.86-4.79-.1-.6-.41-2.52-.31-2.71.15-.43.72.01 1.01-.48.42-.46-1.46-5.35-2.42-6.75-.34-.63-.97-.41-1.74.61-.72.67-.45 2.2-.18 3.65.71 3.7 1.34 7.47 1.84 11.23-.93-1.38-2.06-3.05-3.17-4.65-.03-.16-.14-.72-.14-.73 0-.07-.15-3.03-.29-3.73-.02-.29-.09-.37.21-.33.32.27.36.28.56.37.32.06.6-.48.41-.99l-2.98-5.51c-.16-.12-.3-.25-.45-.27zm-92.58.1c-.55-.02-1.16.33-.92.99-.14.36 1.08 1.58 1.29 2.25.19.48-.19 2.01.21 2.16.37.16.87-1.06 1.06-2.19.11-.62.03-2.74-1.42-3.17a.509.509 0 00-.22-.04zm105.46.01c-.13.01-.28.22-.51.71-.56.92-.76 2.58-.53 4.04 1.36 9.18 2.37 18.07 2.57 26.21-.12.77-.15 1.18-.51 2.16-.8 1.03-1.68 2.31-2.52 2.94-.83.62-2.6 1.21-3.18 1.67-1.84 1.06-1.85 2.28-.36 2.33 2.56-.3 5.59-.51 7.68-3.66.56-.88 1.22-3.28 1.24-4.74.2-8.59-.11-16.98-1.4-23.19-.08-.6-.35-1.99-.25-2.18.17-.42 1 .04 1.3-.45.44-.45-2.17-3.78-3.08-5.21-.17-.35-.29-.65-.45-.63zm-26.84.14c-.11.02-.26.18-.55.56-.72 2.34-.97 4.25-.69 5.7 1.84 9.59 3.72 18.32 3.42 27.45.87.01 1.88-1.99 2.31-3.97.24-2.72-.16-4.38-.23-5.99-.07-1.6-1.81-14.6-2.17-15.81-.43-2.29 1.69-.3 1.46-1.63-.73-1.68-2.56-4.13-3.13-5.59-.22-.39-.25-.75-.42-.72zM56 57.23c-.23.04-.44.23-.52.53-.05.2.09.54-.1.64-.1.11-.5.03-.48-.52 0-.18-.13-.36-.21-.48-.08-.05-.13-.07-.28-.07-.17.01-.17.05-.27.2-.04.15-.1.29-.1.47-.02.2-.1.27-.25.29-.16 0-.12.02-.26-.07-.08-.09-.17-.12-.17-.27 0-.15-.04-.39-.09-.49a.53.53 0 00-.3-.17c-.68 0-.73.79-.69 1.08-.05.06-.08 1.45.85 1.83 1.25.6 3.6.34 3.5-1.67 0-.18-.04-.78-.06-.94-.11-.29-.35-.4-.57-.36zm16.77.02c-.43.02-.81.15-1.14.31-.83.79-1.02 2.07-.37 2.86.64.3 1.27.94.85 1.29-1.8 1.92-6.47 5.12-6.71 5.71 0 0-.01.01-.01.02v.03l.01.02.01.01h.01l.01.01h.01l.01.01c.24.16 3.16.16 3.49.01l.01-.01h.01v-.01c1.01-.37 5.78-5.82 5.78-5.82-.25-.21-.48-.37-.72-.58-.26-.23-.24-.45 0-.68 1.18-.69.81-2.2.19-2.89-.52-.23-1-.31-1.44-.29zm43.86.02c-.13.01-.28.21-.51.7-.56.92-.95 2.53-.9 4.04 1.22 8.46 1.6 15.85 2.39 24.31.06.82-.05 2.01-.6 2.48-2.01 2.1-4.91 4.69-8.07 5.88-.34.38.84 2.01 2.38 2 2.56-.3 4.81-1.73 6.9-5.52.56-.88 1.54-2.77 1.57-4.24.2-8.59-.43-15.26-1.72-21.47-.08-.6-.03-1.32.08-1.5.17-.2.73 0 1.03-.48.44-.45-1.17-4.15-2.08-5.58-.2-.35-.31-.64-.47-.62zm-67.94.26c-.35.04-.69.33-.85.71-.06 1.36-.07 2.71.09 3.96.62 2.19.81 4.12 1.11 6.37.08 3.01-1.74 1.3-1.65-.19.42-1.94.31-4.98-.07-5.76-.3-.77-.64-.96-1.36-.84-.57-.03-2.05 1.57-2.46 4.24 0 0-.34 1.37-.49 2.58-.2 1.38-1.11 2.35-1.75-.19-.55-1.85-.89-6.39-1.81-5.33-.26 3.55-.58 9.8 2.44 10.44 3.65.35 1.63-6.17 2.95-7.35.25-.58.71-.6.75.14v5.54c-.03 1.8 1.15 2.34 2.07 2.71.96-.07 1.59-.05 1.97.88.15 3.19.31 6.39.46 9.59 0 0 2.21.64 2.32-5.39.11-3.54-.7-6.5-.23-7.19.02-.68.88-.71 1.48-.38.95.67 1.38 1.5 2.86 1.17 2.26-.62 3.61-1.72 3.65-3.45-.13-1.65-.32-3.29-1.04-4.94.1-.3-.43-1.08-.33-1.38.41.63 1.02.58 1.16 0-.38-1.27-.98-2.48-1.95-3-.8-.7-1.97-.55-2.39.91-.2 1.69.61 3.69 1.84 5.33.26.64.63 1.7.47 2.66-.65.37-1.3.22-1.85-.36 0 0-1.8-1.34-1.8-1.64.48-3.05.1-3.4-.16-4.25-.18-1.17-.74-1.54-1.19-2.34-.45-.48-1.06-.48-1.35 0-.79 1.38-.42 4.33.15 5.65.41 1.22 1.05 1.98.75 1.98-.25.69-.76.53-1.13-.27-.53-1.64-.64-4.08-.64-5.19-.16-1.37-.34-4.28-1.24-5.03-.22-.31-.5-.42-.78-.39zm12.82.02c-.18.02-.38.13-.62.18-.78.25-1.5.92-1.27 2.22.92 5.57 1.51 9.83 2.43 15.4.14.65-.41 1.51-1.11 1.42-1.2-.81-1.5-2.45-3.54-2.38-1.48.02-3.17 1.63-3.38 3.18-.25 1.23-.33 2.57 0 3.65 1.04 1.25 2.29 1.12 3.38.84.9-.37 1.64-1.26 1.96-1.04h.01v.01c.2.34-.02 3.24-4.24 5.48-2.59 1.16-4.66 1.44-5.77-.67-.69-1.32.05-6.36-1.64-5.2-5.01 12.91 11.73 14.71 13.6.53.12-.4.49-.8.75-.7.11.05.22.2.26.49-.39 12.84-12.95 13.72-15.09 9.68-.53-.95-.69-3.07-.74-4.34-.1-.77-.29-1.21-.51-1.39-.51-.38-1.19.61-1.34 2.35-.21 1.39-.15 1.78-.15 3.12.67 10.14 16.84 5.78 19.47-2.59 1.3-4.33-.03-7.6.41-8 0 0 .01-.01.02-.01 0 0 .01-.01.02-.01 0 0 .01-.01.02-.01s.04-.01.06-.01c1.6 1.73 3.86.22 4.35-.38.21-.3.74-.49 1.11-.1 1.25.9 3.45.48 3.9-1.11.26-1.55.49-3.15.54-4.81-.82.25-1.47.44-1.74.72-.06.07-.11.15-.12.23l-.21 1.38a.3.3 0 01-.04.1c-.03.06-.09.11-.15.14-.29.16-.79.07-.82-.35-.39-1.76-1.98-1.99-2.95.74-.65.53-1.84.63-1.97-.16.16-1.83-.58-2.08-2.06-1.22-.48-3.63-.95-7.1-1.43-10.73.62-.02 1.18.43 1.75-.28-.61-1.9-1.9-5.76-2.63-6.13-.01 0-.01-.01-.02-.01a.471.471 0 00-.1-.1.218.218 0 00-.05-.04.219.219 0 00-.05-.03c-.03-.02-.07-.03-.1-.04-.07-.02-.13-.03-.2-.02zm49.96.02c-.64-.02-1.35.38-1.07 1.19-.16.44 1.38 1.92 1.62 2.74.45 1.25-.34 2.44.12 2.61.43.19 1.02-1.29 1.24-2.66.26-1.11-.53-3.38-1.65-3.85-.08-.02-.17-.02-.26-.03zm-38.92 1.37c.29-.03.64.24.82.62.18.4.09.79-.21.86-.3.07-.69-.19-.87-.6-.18-.4-.09-.8.21-.87.01 0 .03-.01.05-.01zm72.2 1.87c-.58-.02-1.22.42-.97 1.29-.15.47 1.25 2.08 1.47 2.96.2.63-.31 2.64.11 2.83.39.21.94-1.39 1.14-2.88.11-.81-.49-3.66-1.51-4.17l-.24-.03zm-39.92.99c.05.24.11.48.14.72.12.53.22 1.05.33 1.57-.46-.63-.84-1.15-1.01-1.33-1.04-1.24.03-.81.54-.96zm9.19 4.52c-.23.04-.44.23-.52.54-.05.2.1.53-.09.63-.1.11-.51.04-.49-.51 0-.18-.13-.37-.21-.48-.08-.05-.13-.07-.28-.07-.17.01-.17.05-.27.2-.04.15-.09.3-.09.47-.02.2-.09.27-.24.29-.16 0-.13.02-.27-.07-.08-.09-.17-.12-.17-.27 0-.15-.04-.39-.09-.49-.07-.09-.18-.13-.3-.16-.68 0-.72.78-.68 1.07-.05.06-.09 1.46.85 1.84 1.25.6 3.6.33 3.51-1.68 0-.18-.05-.78-.07-.94-.13-.29-.36-.4-.59-.37zm-41.99.42c-.15-.02-.36.04-.59.18-1.11.6-1.53 2.37-.85 3.41.64.91 1.66.58 1.8.58 1.08.14 1.73-2.03 1.73-2.03s.03-.61-1.25.54c-.54.1-.62-.09-.75-.4-.11-.56-.09-1.14.17-1.7.12-.34 0-.55-.26-.58zm59.36.28c-.61-.03-1.27.37-1.43 1.21 0 .49.22.77.18 1.22-.06.26-.33.43-.96.12.1-.09-.41-.81-.41-.81-.49-.3-1.15.02-1.58.29-.24.43-.41 1.16-.14 1.91.71 1.31 3.13 3.53 4.28 3.55.02-1.18.14-2.74.2-3.71.03-.37.11-.77.47-.86.35-.09.96.35.97-.03-.06-.75-.21-1.85-.64-2.38a1.2 1.2 0 00-.94-.51zm-49.13 4.09c-.02.01-.03.02-.05.03-.01 0-.02.01-.03.02-.12.09-.27.3-.59.53-.54.62-.64 1.05-.61 2.29.03.13 1.03 2.92 1.88 4.87.57 2.03 1.1 4.36.71 6.56-1.34 2.91-4.03 5.52-6.63 6.93-1.32.42-2.47.28-2.77-.01l-.01-.01c-.76-.51-.78-1.42-.73-1.58v-.01l.01-.01c2.19-1.53 4.7-2.76 6.66-6.89.58-1.58.76-2.52.18-4.96-.22-.91-.5-1.66-1.12-2.3l.01-.01c.37-.18 1.34.53 1.49.09-.23-1.16-1.02-2.73-1.91-3.52-.78-.71-1.63-.79-2.35-.14-.81.45-.98 2.06-.59 3.47.43 1.06 1.59 1.25 2.42 3.38v.01c.02.13.28 1.59-.13 2.18-.34 1.06-4.69 4.49-5 4.69l-.03.02-.01.01-.01.01-.01.01h-.01-.01l-.01-.01v-.01l-.01-.02c-.01-.09.01-.3 0-.66-.03-.64.24-2.1.22-2.35v-.01l-.01-.01v-.01h-.01c-1.44.93-1.91 3.77-2.18 4.62-3.64 2.52-7.77 4.39-10.16 6.93-1.24 1.94 8.54-2.22 9.68-2.73l.03.03c.22.24.23 1.07.88 1.81 1.02 1.38 3.18 2.23 5.28 1.7 3.53-1.27 5.56-3.68 7.63-6.35.3-.43.76-.77 1.19-.44 1.42 3.18 5.52 5.45 10.82 5.68 1.23-1.49.64-2.22.14-2.54-.15-.1-2.64-1.07-3.02-2.03-.24-.9.35-1.69 1.53-2.29 3.4-.41 6.75-.87 9.98-1.91.03-1.09.67-2.71 1.1-3.42.3-.49.49-.54.56-.61l.01-.01.01-.01.01-.01v-.02c0-.02 0-.06-.01-.1l-.55-.32-10.83.01c-.13-.05-.23-.1-.29-.15 0 0-.01-.02-.02-.02l-.01-.01-.01-.01-.01-.02-.01-.01v-.01l-.01-.01v-.01-.01-.01-.01-.01-.01-.01-.01l.01-.01c0-.01.01-.01.01-.02.05-.07.18-.14.34-.2 2.59-.35 7.2-1.11 7.51-5.54-.05-2.31-.99-3.82-3.82-4.24-2.08.16-3.56 2.17-3.33 4.39-.1.6.2 1.77-.41 1.9-3.99.36-8.35 2.87-8.49 4.65h-.01l-.01.01s-.01.01-.02.01h-.02c-.01 0-.02.01-.03.01h-.03-.01-.02c-.01 0-.03-.01-.04-.01-.26-.07-.59-.5-.54-1.1-.15-3.09-1.16-6.59-2.74-9.29-.56-.56-.81-.79-.97-.82h-.05-.01-.01c.02.01.01.01.01.01zm10.39 1.64c-.23.04-.44.23-.52.53-.05.2.1.54-.09.64-.1.11-.51.04-.49-.51 0-.18-.13-.37-.21-.48-.08-.05-.12-.07-.27-.07-.17.01-.18.05-.28.2-.04.15-.1.3-.1.47-.02.2-.09.27-.24.29-.16 0-.12.02-.26-.07-.08-.09-.18-.12-.18-.27 0-.15-.03-.39-.08-.49-.07-.09-.19-.13-.31-.16-.68 0-.72.78-.68 1.07-.05.06-.09 1.46.85 1.84 1.25.6 4.23.25 3.51-1.68 0-.18-.05-.78-.07-.94-.12-.3-.35-.41-.58-.37zm41.94 1.72c-.03-.01-.07 0-.1.01 0 0-5.79 4.12-5.94 4.27-.57.51-.29 2.31 0 2.1.42.16 6.25-3.79 6.14-4.26.25.01.38-2.04-.1-2.12zm-36.46.61c.24-.03.55.06.85.23.43.25.7.63.67.9v.03c0 .01-.02.02-.02.03 0 .01-.01.02-.01.03 0 0-.01.01-.01.02 0 0-.01.01-.01.02-.01.02-.04.05-.06.07-.21.19-.69.17-1.14-.09-.43-.25-.69-.63-.67-.9 0-.01.01-.02.01-.03.01-.03.02-.06.04-.1.01-.01.01-.03.02-.04l.01-.01.05-.05c.06-.06.16-.1.27-.11zm-50.74 1.04c-3 .05-7.4 3.94-7.51 6.09 3.17-1.52 6.28-2.99 9.5-4.56-.53-.77-.04-1.47-1.99-1.53zm9.72 1.35c.29 0 .6.15.77.56.15.38.01.77-.17.97v.01s-.01.01-.01.02c-.13.16-.57.1-.88.1-.38-.02-.57-.08-.8-.39-.11-.34.22-.68.37-.94l.01-.01c.02-.02.04-.05.07-.08.11-.1.31-.2.52-.23.04 0 .08-.01.12-.01zm76.36 1.2c-.53.07-1.04.57-.81 1.38-.15.47.72 2.13.95 3.01.2.63-.26 2.4.16 2.58.39.21 1.41-1.05 1.38-2.63.11-.81-.29-3.81-1.31-4.31a.78.78 0 00-.37-.03zm-64.85 2.92c-.47.03-.89.29-.7.95-.03.48 1.33 1.07 1.42 2.18.19.46-.29 1.93.11 2.07.37.15.89-1.02 1.08-2.11.11-.6-.47-2.69-1.44-3.06-.15-.02-.31-.04-.47-.03zm19.41 2.65H88.15c1.21.33 2.99.36 4.54.52 1.26.08 1.88 1.07.7 1.48-1.16.4-2.28.71-2.29 2.39.15.83.12 1.27-.01 1.47-.01.02-.03.04-.04.05l-.01.01-.01.01-.01.01-.01.01-.02.01-.06.03c-.02.01-.04.01-.06.01-.28.04-.68-.22-.98-.38-.72-.52-2.73-1.76-3.02-4.45-.02-.59.43-1.12 1.16-1.17zM40.62 86.3c-.08 0-.23.23-.43.48-1.79 2.85-1.94 7.09-.96 8.36.52.6 1.39.86 2.02.67 1.12-.49 1.62-2.76 1.35-3.59-.37-.59-.67-.68-1.04-.18-.79 1.6-1.12.51-1.19-.39-.12-1.7.04-3.26.23-4.5.1-.63.1-.85.02-.85zm60.85 3.74a.746.746 0 00-.42.09c-.03 0-1.28.85-1.68 1.43-.25.19-.22.35-.14.67.19.44.53.3.91.1.51-.07.75.26.71.87-.23.76.1 1.04.1 1.09 0 .05.49.47 1.06.13 1.21-.46 1.97-.91 3.67-1.28.45-.01.42-1.2-.28-1.24-.92.05-1.77.09-2.69.82-.57.13-.66-.21-.79-.52-.14-.77.32-1.31.23-1.88.03.02-.28-.26-.68-.28zm38.96 1.45c-.23.01-.46.04-.81.07-.37.08-.5.24-.57.69.03.68.45.65.87.92.25.32.41.6-.02 1.12-.41.37-.7.58-1.1.95-.19.33-.31.83.28.99 1.08.3 3.59-1.32 3.59-1.36.41-.3.27-.88.24-.88-.24-.27-.77-.11-1.13-.15-.17 0-.73-.08-.47-.58.22-.31.3-.49.46-.87.17-.37.02-.62-.59-.83a3.6 3.6 0 00-.75-.07zm-16.27 32.96c-.01 0-.01 0 0 0-1.81.47-1.76 2.34-.6 3.16-19.03 0-48.23-.32-54.49-.32-3.5 0-14.59-.42-14.8-.42 2.38 3.48 5.82 4.18 10.33 4.26 8.45 0 47.61-.1 58.76-.1-.79 1.41.07 3.67.69 4.09.01.01.03.02.05.03.02.01.05.02.08.03h.03c.74.17 1.06-.36 1.31-.75 1.2.11 7.93.2 8.55-.01l.01-.01c.42.61.83 1.19 1.62 1.09 1.39-.3 2.48-.45 2.52-3.27 0 0-.14-4.8-3.3-4.5-.75.11-2.84.32-2.84.32-2.42-.29-4.2-.32-6.93-.42.25-.32.7-1.61.15-2.08-.14-.12-.35-.18-.65-.16h-.01-.02l-.01-.01c-.01 0-.02 0-.03-.01l-.05-.05s-.02-.01-.02-.02c-.14-.2-.21-.69-.3-.82l-.01-.01-.01-.01-.02-.01h-.01zm1.29 6.87c0-.01 0 0 0 0 2.79.14 5.39.03 8.17.16.44.37.22 1.23-.07 1.39-.01.01-.03.02-.05.02h-.08c-.9-.02-1.42-.04-2.33-.07 0-.04-.01-.09-.02-.13-.21-.63-1.76-.59-2.13-.1-.01.01-.01.02-.02.03-.01.01-.01.03-.02.04-.01.01-.01.03-.02.05-.01.02-.01.05-.01.07 0 .02-.01.05-.01.08-1.22.15-2.32-.04-3.53-.09-.34-.46-.3-1.26.12-1.45z"/><path fill="none" d="M172 160V32c0-6.6-5.4-12-12-12H32c-6.6 0-12 5.4-12 12v128c0 6.6 5.4 12 12 12h128c6.6 0 12-5.4 12-12z" opacity=".4"/><path fill="none" d="M0 0v192h192V0H0z"/><path fill="#DFDFDF" d="M160 20c6.6 0 12 5.4 12 12v128c0 6.6-5.4 12-12 12H32c-6.6 0-12-5.4-12-12V32c0-6.6 5.4-12 12-12h128m0-8H32c-11.03 0-20 8.97-20 20v128c0 11.03 8.97 20 20 20h128c11.03 0 20-8.97 20-20V32c0-11.03-8.97-20-20-20z"/><path fill="#FFF" fill-opacity=".2" d="M160 20H32c-6.6 0-12 5.4-12 12v1c0-6.6 5.4-12 12-12h128c6.6 0 12 5.4 12 12v-1c0-6.6-5.4-12-12-12z"/><path fill="#212121" fill-opacity=".1" d="M160 172H32c-6.6 0-12-5.4-12-12v-1c0 6.6 5.4 12 12 12h128c6.6 0 12-5.4 12-12v1c0 6.6-5.4 12-12 12z"/><radialGradient id="a" cx="23.768" cy="23.933" r="204.625" gradientUnits="userSpaceOnUse"><stop offset="0" stop-color="#fff" stop-opacity=".1"/><stop offset="1" stop-color="#fff" stop-opacity="0"/></radialGradient><path fill="url(#a)" d="M160 172H32c-6.6 0-12-5.4-12-12V32c0-6.6 5.4-12 12-12h128c6.6 0 12 5.4 12 12v128c0 6.6-5.4 12-12 12z"/></svg>