<svg xmlns="http://www.w3.org/2000/svg" width="192" height="192"><path fill="#ED2939" d="M160 20H32c-6.6 0-12 5.4-12 12v65h152V32c0-6.6-5.4-12-12-12z"/><path fill="#FFF" d="M20 160c0 6.6 5.4 12 12 12h128c6.6 0 12-5.4 12-12V97H20v63zM81.3 81.4c-2.5.9-5.2 1.4-8.1 1.4-13.7 0-24.7-11-24.7-24.7s11.1-24.7 24.7-24.7c2.8 0 5.6.5 8.1 1.4C68.9 35.3 59 45.5 59 58.1c0 12.5 9.9 22.8 22.3 23.3zm-8.4-25.3l3.3 2.6-1.3-4.2 3.4-2.5h-4.2l-1.2-4.2-1.3 4.2h-4.2l3.4 2.5-1.3 4.2 3.4-2.6zm31.7-4.1h-4.2l-1.2-4.2-1.3 4.2h-4.2l3.4 2.5-1.3 4.2 3.4-2.6 3.3 2.6-1.3-4.2 3.4-2.5zm-16.5-7.2l3.3-2.6h-4.1L86 38.1l-1.2 4.1h-4.2l3.4 2.6-1.3 4.1 3.3-2.5 3.4 2.5-1.3-4.1zm-9 22.8l-1.3-4.1-1.3 4.1h-4.1l3.3 2.6-1.3 4.1 3.4-2.6 3.3 2.6-1.3-4.1 3.4-2.6h-4.1zm16.4 0l-1.3-4.1-1.2 4.1h-4.2l3.4 2.6-1.3 4.1 3.3-2.6 3.4 2.6-1.3-4.1 3.4-2.6h-4.2z"/><path fill="none" d="M172 160V32c0-6.6-5.4-12-12-12H32c-6.6 0-12 5.4-12 12v128c0 6.6 5.4 12 12 12h128c6.6 0 12-5.4 12-12z" opacity=".4"/><path fill="none" d="M0 0v192h192V0H0z"/><path fill="#DFDFDF" d="M160 20c6.6 0 12 5.4 12 12v128c0 6.6-5.4 12-12 12H32c-6.6 0-12-5.4-12-12V32c0-6.6 5.4-12 12-12h128m0-8H32c-11.03 0-20 8.97-20 20v128c0 11.03 8.97 20 20 20h128c11.03 0 20-8.97 20-20V32c0-11.03-8.97-20-20-20z"/><path fill="#FFF" fill-opacity=".2" d="M160 20H32c-6.6 0-12 5.4-12 12v1c0-6.6 5.4-12 12-12h128c6.6 0 12 5.4 12 12v-1c0-6.6-5.4-12-12-12z"/><path fill="#212121" fill-opacity=".1" d="M160 172H32c-6.6 0-12-5.4-12-12v-1c0 6.6 5.4 12 12 12h128c6.6 0 12-5.4 12-12v1c0 6.6-5.4 12-12 12z"/><radialGradient id="a" cx="23.768" cy="23.933" r="204.625" gradientUnits="userSpaceOnUse"><stop offset="0" stop-color="#fff" stop-opacity=".1"/><stop offset="1" stop-color="#fff" stop-opacity="0"/></radialGradient><path fill="url(#a)" d="M160 172H32c-6.6 0-12-5.4-12-12V32c0-6.6 5.4-12 12-12h128c6.6 0 12 5.4 12 12v128c0 6.6-5.4 12-12 12z"/></svg>