<svg xmlns="http://www.w3.org/2000/svg" width="192" height="192"><path fill="#ED1C24" d="M160 20H32c-6.6 0-12 5.4-12 12v128c0 6.6 5.4 12 12 12h128c6.6 0 12-5.4 12-12V32c0-6.6-5.4-12-12-12z"/><path fill="#005DA4" d="M160 20H32c-6.6 0-12 5.4-12 12v92h152V32c0-6.6-5.4-12-12-12z"/><path fill="#FFF" d="M160 20H32c-6.6 0-12 5.4-12 12v36h152V32c0-6.6-5.4-12-12-12z"/><path fill="#005DA4" d="M73.705 70.924l1.764-26.034a50.743 50.743 0 00-43.468 0l1.763 26.034A28.181 28.181 0 0053.734 96a28.173 28.173 0 0019.97-25.075"/><path fill="#FFF" d="M70.034 74.454a24.996 24.996 0 01-.819 2.854 5.43 5.43 0 01-7.33 1.85 5.435 5.435 0 00-5.434 0c-1.681.971-3.753.971-5.434 0a5.435 5.435 0 00-5.434 0 5.425 5.425 0 01-7.33-1.85 25.072 25.072 0 01-.82-2.854l8.15-10.867 3.26 4.346 4.89-9.78 4.89 9.78 3.261-4.346 8.15 10.867zm-8.146 9.41c-1.68-.97-3.753-.97-5.434 0s-3.753.97-5.433 0-3.753-.97-5.434 0a5.396 5.396 0 01-3.35.684 25.027 25.027 0 0011.5 8.155 25.036 25.036 0 0011.502-8.155 5.391 5.391 0 01-3.351-.684zm0-3.137c-1.68-.97-3.753-.97-5.434 0s-3.753.97-5.433 0-3.753-.97-5.434 0a5.43 5.43 0 01-6.06-.424c.407.804.852 1.583 1.337 2.332a5.413 5.413 0 004.72-.34c1.68-.97 3.752-.97 5.433 0s3.753.97 5.434 0 3.753-.97 5.433 0a5.422 5.422 0 004.72.34c.485-.75.934-1.53 1.336-2.332a5.414 5.414 0 01-6.052.424z"/><path fill="#FD0" d="M55.502 51.701l-.95 1.019.95 1.018-1.358-.312-.406 1.332-.407-1.332-1.358.312.95-1.018-.95-1.019 1.358.312.407-1.332.406 1.332 1.358-.312zm-7.47-7.836l-.406-1.332-.406 1.332-1.358-.311.95 1.018-.95 1.018 1.358-.312.406 1.333.406-1.333 1.359.312-.95-1.018.95-1.018-1.359.311zm13.58-.314l-1.358.312-.406-1.333-.406 1.333-1.359-.312.95 1.018-.95 1.018 1.359-.311.406 1.332.406-1.332 1.358.311-.95-1.018.95-1.018z"/><path fill="#ED1C24" d="M33.529 44.2l1.803 26.62a26.616 26.616 0 0018.406 23.535A26.62 26.62 0 0072.143 70.82l1.804-26.62c.503.239 1.014.47 1.525.691l-1.764 26.033A28.181 28.181 0 0153.738 96 28.184 28.184 0 0133.77 70.924L32.005 44.89c.51-.22 1.017-.451 1.524-.69"/><g><path fill="none" d="M172 160V32c0-6.6-5.4-12-12-12H32c-6.6 0-12 5.4-12 12v128c0 6.6 5.4 12 12 12h128c6.6 0 12-5.4 12-12z" opacity=".4"/><path fill="none" d="M0 0v192h192V0H0z"/><path fill="#DFDFDF" d="M160 20c6.6 0 12 5.4 12 12v128c0 6.6-5.4 12-12 12H32c-6.6 0-12-5.4-12-12V32c0-6.6 5.4-12 12-12h128m0-8H32c-11.03 0-20 8.97-20 20v128c0 11.03 8.97 20 20 20h128c11.03 0 20-8.97 20-20V32c0-11.03-8.97-20-20-20z"/><path fill="#FFF" fill-opacity=".2" d="M160 20H32c-6.6 0-12 5.4-12 12v1c0-6.6 5.4-12 12-12h128c6.6 0 12 5.4 12 12v-1c0-6.6-5.4-12-12-12z"/><path fill="#212121" fill-opacity=".1" d="M160 172H32c-6.6 0-12-5.4-12-12v-1c0 6.6 5.4 12 12 12h128c6.6 0 12-5.4 12-12v1c0 6.6-5.4 12-12 12z"/><radialGradient id="a" cx="23.768" cy="23.933" r="204.625" gradientUnits="userSpaceOnUse"><stop offset="0" stop-color="#fff" stop-opacity=".1"/><stop offset="1" stop-color="#fff" stop-opacity="0"/></radialGradient><path fill="url(#a)" d="M160 172H32c-6.6 0-12-5.4-12-12V32c0-6.6 5.4-12 12-12h128c6.6 0 12 5.4 12 12v128c0 6.6-5.4 12-12 12z"/></g></svg>