<svg xmlns="http://www.w3.org/2000/svg" width="192" height="192"><path fill="#EE1C25" d="M160 20H32c-6.6 0-12 5.4-12 12v128c0 6.6 5.4 12 12 12h128c6.6 0 12-5.4 12-12V32c0-6.6-5.4-12-12-12z"/><path fill="#0B4EA2" d="M160 20H32c-6.6 0-12 5.4-12 12v92h152V32c0-6.6-5.4-12-12-12z"/><path fill="#FFF" d="M160 20H32c-6.6 0-12 5.4-12 12v36h152V32c0-6.6-5.4-12-12-12z"/><path fill="#FFF" d="M68.6 141.78C53.54 134.53 32 120.13 32 91.65c0-28.48 1.36-41.43 1.36-41.43h70.48s1.36 12.95 1.36 41.43-21.54 42.88-36.6 50.13z"/><path fill="#EE1C25" d="M68.6 138c-13.82-6.65-33.58-19.86-33.58-45.99 0-26.13 1.25-38.01 1.25-38.01h64.66s1.25 11.88 1.25 38.01c0 26.13-19.76 39.34-33.58 45.99z"/><path fill="#FFF" d="M71.55 85.16c3.74.06 11.04.21 17.54-1.97 0 0-.17 2.33-.17 5.03 0 2.71.17 5.04.17 5.04-5.96-1.99-13.32-2.04-17.54-1.98v14.43h-5.91V91.28c-4.22-.05-11.58-.01-17.54 1.98 0 0 .17-2.33.17-5.04s-.17-5.03-.17-5.03c6.5 2.17 13.8 2.03 17.54 1.97V76.1c-3.41-.03-8.32.13-13.88 1.99 0 0 .17-2.33.17-5.04s-.17-5.03-.17-5.03c5.55 1.86 10.45 2.02 13.86 1.99-.18-5.74-1.85-12.97-1.85-12.97s3.44.27 4.82.27c1.38 0 4.82-.27 4.82-.27s-1.67 7.23-1.85 12.97c3.41.03 8.32-.14 13.86-1.99 0 0-.17 2.33-.17 5.03 0 2.71.17 5.04.17 5.04-5.55-1.86-10.47-2.02-13.88-1.99l.01 9.06z"/><path fill="#0B4EA2" d="M68.6 104.15c-6.96 0-10.68 9.65-10.68 9.65s-2.07-4.58-7.74-4.58c-3.84 0-6.67 3.42-8.47 6.58 6.99 11.12 18.14 17.98 26.9 22.2 8.76-4.22 19.92-11.08 26.91-22.2-1.8-3.16-4.63-6.58-8.47-6.58-5.68 0-7.75 4.58-7.75 4.58s-3.74-9.65-10.7-9.65z"/><g><path fill="none" d="M172 160V32c0-6.6-5.4-12-12-12H32c-6.6 0-12 5.4-12 12v128c0 6.6 5.4 12 12 12h128c6.6 0 12-5.4 12-12z" opacity=".4"/><path fill="none" d="M0 0v192h192V0H0z"/><path fill="#DFDFDF" d="M160 20c6.6 0 12 5.4 12 12v128c0 6.6-5.4 12-12 12H32c-6.6 0-12-5.4-12-12V32c0-6.6 5.4-12 12-12h128m0-8H32c-11.03 0-20 8.97-20 20v128c0 11.03 8.97 20 20 20h128c11.03 0 20-8.97 20-20V32c0-11.03-8.97-20-20-20z"/><path fill="#FFF" fill-opacity=".2" d="M160 20H32c-6.6 0-12 5.4-12 12v1c0-6.6 5.4-12 12-12h128c6.6 0 12 5.4 12 12v-1c0-6.6-5.4-12-12-12z"/><path fill="#212121" fill-opacity=".1" d="M160 172H32c-6.6 0-12-5.4-12-12v-1c0 6.6 5.4 12 12 12h128c6.6 0 12-5.4 12-12v1c0 6.6-5.4 12-12 12z"/><radialGradient id="a" cx="23.768" cy="23.933" r="204.625" gradientUnits="userSpaceOnUse"><stop offset="0" stop-color="#fff" stop-opacity=".1"/><stop offset="1" stop-color="#fff" stop-opacity="0"/></radialGradient><path fill="url(#a)" d="M160 172H32c-6.6 0-12-5.4-12-12V32c0-6.6 5.4-12 12-12h128c6.6 0 12 5.4 12 12v128c0 6.6-5.4 12-12 12z"/></g></svg>