<svg xmlns="http://www.w3.org/2000/svg" width="192" height="192"><path fill="#3E5EB9" d="M172 160V32c0-6.6-5.4-12-12-12H32c-6.6 0-12 5.4-12 12v128c0 6.6 5.4 12 12 12h128c6.6 0 12-5.4 12-12z"/><path fill="#FFD900" d="M20 48h152v96H20z"/><path fill="#B10C0C" d="M20 58h152v76H20z"/><path fill="#FFD900" d="M64.08 85.68H44.85c-.4 0-.72-.29-.72-.65 0-.36.32-.64.72-.64H65.5c-.48.43-.96.86-1.42 1.29zm83.8-.65c0 .24-.1.46-.26.65h.82c.4 0 .72-.29.72-.65 0-.36-.32-.64-.72-.64h-.82c.15.18.26.41.26.64zm-1.05.85v-.14.14zm0-1.49h-.06c.15.18.25.41.25.64 0 .24-.1.46-.26.65h.06c.31 0 .65-.33.65-.65s-.32-.64-.64-.64v-.2.2zm-.64.64c0 .24-.1.46-.26.65h.06c.31 0 .65-.33.65-.65 0-.31-.33-.64-.65-.64h-.06c.16.18.26.41.26.64zm-1.05-.64h-17.48c.45.43.88.86 1.31 1.29h16.17c.31 0 .65-.33.65-.65s-.33-.64-.65-.64v-.2.2zm0 1.49v-.13.13zm-11.38 4.86h4.52v.2-.2c.31 0 .65-.33.65-.64s-.33-.65-.65-.65h-5.7c.4.44.79.87 1.18 1.29zm-96.5-.64c0 .36.32.64.72.64H58.9c.42-.43.84-.85 1.27-1.29h-22.2c-.39 0-.71.29-.71.65zm103.75 0c0 .24-.1.46-.26.65h.82c.4 0 .72-.29.72-.64 0-.36-.32-.65-.72-.65h-.82c.16.18.26.4.26.64zm-.85 0c0 .24-.1.46-.26.65h.06v.2-.2c.31 0 .65-.33.65-.64s-.33-.65-.65-.65h-.06c.16.18.26.4.26.64zm-1.04-.65h-.06c.15.18.25.41.25.64 0 .24-.1.46-.26.65h.06c.31 0 .65-.33.65-.64.01-.32-.33-.65-.64-.65v-.2.2zM168.49 96c0-.58-.46-1.05-1.03-1.05h-8.62l-.08.13c-.08.14-.33.58-.33.68 0-.01.06 0 .23 0h.24c.12 0 .25-.01.39-.01.6 0 2.24 0 4.63 1.3h3.53c.57 0 1.04-.47 1.04-1.05zm-114.58.14l-.14-.14.14-.14c.29-.29.59-.6.9-.91H26.57c-.57 0-1.03.47-1.03 1.05 0 .58.46 1.05 1.03 1.05h3.12c.36-.2.73-.32 1.1-.32.17 0 .33.02.49.07v-.09c-.01-.28-.01-.37-.26-.67l.24-.33c.24.1.4.26.52.38.23.23.31.24.58.06l.06-.03c.04-.02.09-.04.1-.05 0-.01-.01-.11-.18-.51l-.14-.31.34.02c.45.02 1.43.3 2.29.55.53.15 1.09.31 1.22.32h.05c.26 0 .59-.08.95-.16.45-.1.96-.22 1.47-.22.73 0 1.32.24 1.79.75.17.17.31.35.43.53H54.8c-.29-.3-.59-.61-.89-.9zm104.42-1.19h-20.69c.3.31.6.62.89.91l.14.14-.14.14c-.29.29-.59.6-.89.91h17.61c.92-.83 1.97-1.56 3.08-2.1z"/><path fill="#FFF" d="M149.04 84.16l4.11-1.45 6.57 2.32-6.57 2.32-4.1-1.45c.3-.19.5-.51.5-.87s-.2-.68-.51-.87zm-2.76 3.62l-4.11 1.45c.3.19.51.51.51.87s-.2.68-.5.87l4.1 1.45 6.57-2.32-6.57-2.32zm-12.18 12.51c-6.69 7.35-15.45 16.96-29.21 19.91-1.02-4.15-10.47-5.36-10.32-6.82.3-1.65 7.28-1.43 7.36-2.88.09-1.45-6.45-2.37-6.26-3.99.15-1.73 3.38-1.9 3.49-4.58.02-1.67.55-2.72 1.21-3.45V105h2.72v-6.75h-2.52c1.16-1.12 2.59-1.43 2.58-2.35-.03-1.46-1.24-.03-2.68-2.06-.02-.03-.04-.07-.06-.1h2.68V87h-2.72v6.68c-1.22-2.09.27-7.66-1.16-7.72-2.11-.09-.69-2.57-3.19-2.75-2.38-.17-.5-1.18-2.75-3.71-2.56-3.06 1.71-7.59 2.73-8.6h.21c18.92 0 29.87 12.03 37.87 20.81 1.41 1.55 2.75 3.02 4.02 4.3-1.25 1.27-2.59 2.73-4 4.28zm-25.54-6.54h2.72V87h-2.72v6.75zm5.45-6.75h-1.36v6.75h2.72V87h-1.36zm4.09 0h-1.36v6.75h2.72V87h-1.36zm5.45 0h-2.72v6.75h2.72V87zm-19.08 6.75h2.72V87h-2.72v6.75zm2.73 4.5h-2.73V105h2.72v-6.75zm4.09 0h-2.73V105h2.72v-6.75zm4.08 0h-2.73V105h2.72v-6.75zm4.09 0h-2.73V105h2.72v-6.75zm4.09 0h-2.73V105h2.72v-6.75zm-43.19-9.7c-.5-.5-.97-1.01-1.36-1.55h-1.36v6.75h2.72v-5.2zM72.18 87h-2.72v6.75h2.72V87zm4.09 0h-2.72v6.75h2.72V87zm4.09 11.25h-2.73V105H80.36v-6.75zm-8.18 0h-2.73V105h2.72v-6.75zm4.09 0h-2.73V105h2.72v-6.75zM90.43 87c.11.31.19.68.19 1.13v.34l-.26-.21c-.15-.12-.3-.23-.45-.34v5.83h2.72V87h-2.2zm-1.89 4.88c-.95-.15-1.91-.53-2.73-1.04v2.91h2.72v-1.87zm-4.09-2.2c-.12-.14-.23-.28-.33-.43-.19.2-.23.48-.25.81l.03.02-.07.21h-.11c-.04 0-.05-.02-.1-.04l-.01.01-.05-.05c-.38-.25-1.26-1.03-1.83-1.66v5.2h2.72v-4.07zm4.09.91c-.06.29-.07.54 0 .74v-.74zM89.9 105h2.72v-6.75H89.9V105zm-5.45-6.75h-2.73V105h2.72v-6.75zm4.09 0h-2.73V105h2.72v-6.75z"/><path d="M167.45 94.52h-30.21c-.91-.96-1.86-2-2.85-3.09l-.27-.3h7.36l4.81 1.7 7.76-2.74-7.76-2.74-4.82 1.7h-1.49-.84-.84-6.08c-.91-.98-1.85-1.98-2.84-2.98h18.98l4.81 1.7 7.76-2.74-7.76-2.74-4.82 1.7h-1.49-.86-.84-17.91c-7.33-6.97-17-13.49-31.03-13.49-12.29 0-22.37 6.51-30.28 13.49H44.85c-.61 0-1.12.47-1.12 1.04 0 .57.5 1.04 1.12 1.04h18.8c-1.07 1-2.1 2-3.08 2.98h-22.6c-.61 0-1.12.47-1.12 1.04 0 .57.5 1.04 1.12 1.04h20.54c-.62.63-1.22 1.25-1.8 1.85-.51.53-1.01 1.04-1.49 1.53H26.57c-.8 0-1.46.66-1.46 1.48 0 .81.65 1.48 1.46 1.48h2.53c-1.27 1.1-2.37 3.29-2.73 5.76l-.08.56.43-.37c.31-.27.38-.38.44-.46 0 0 0-.01.01-.01 0 .41.09.74.21 1.16.1.37.22.8.31 1.42l.08.51.3-.42c.28-.39.41-.53.51-.64.05-.05.09-.1.13-.15.15.47.25.93.36 1.45.08.37.17.77.28 1.24l.18.71.22-.69c.13-.41.19-.63.22-.79.03-.14.05-.22.11-.35.53.55.75 1.2.96 1.83.3.91.62 1.85 1.85 2.42l.18.08.09-.17c.16-.28.29-.49.43-.63.3.29.61.42 1 .58.3.12.68.28 1.16.56l.25-.37c-.24-.2-.23-.33-.22-.38.02-.36.73-.81 1.35-1.21.48-.31.95-.61 1.25-.93.01.1.04.24.1.46l.41-.06c0-1.08.26-1.57.58-2.18.12-.24.26-.5.4-.81.03.04.07.1.14.24l.4-.1c0-.5.04-1.12.09-1.77.07-1.03.15-2.15.08-3.1.07.08.17.15.33.23l.3.14v-.33c0-.35.02-.69.03-1.01.05-.87.09-1.66-.25-2.42h14.24c.48.49.98 1.01 1.5 1.54 8.67 8.95 21.78 22.48 39.49 22.48 19.1 0 30.12-12.1 38.17-20.94.99-1.08 1.93-2.12 2.84-3.08h17.56c-1.69 1.68-2.89 3.75-3.24 5.75l-.07.41.33-.24c.41-.3.76-.55 1.13-.79-.28 1.16.17 2.49.6 3.78.23.68.46 1.38.58 2.04l.04.23.32-.18c.76-.43 1.24-.69 1.58-1.23.64 1.26 2.8 3.14 4 4.2l.6.52.05-.3c.07-.43 1.05-1.81 1.77-2.74.08.18.21.38.46.53l.24.15.01-.29c.01-.19.2-.61.37-.98.14-.3.27-.59.34-.82.21.17.5.4.78.68l.34.34-.06-.48c-.05-.42.01-.85.07-1.26.05-.33.1-.66.09-.99.13.19.32.4.7.52l.35.1-.15-.33c-.22-.49-.2-1.61-.18-2.42v-.18c.13.21.35.41.81.67l.29.16-.04-.33c-.04-.3-.15-.71-.28-1.14-.15-.53-.36-1.28-.33-1.65.06.07.11.13.16.2.14.17.26.34.43.45l.26.17v-.31c0-1.34-.95-3.21-1.99-3.91-.18-.12-.36-.24-.54-.35h2.79c.8 0 1.46-.66 1.46-1.48.05-.78-.6-1.45-1.41-1.45zm-.69 6.7c-.11-.15-.23-.3-.37-.42l-.12-.1-.11.11c-.33.34-.08 1.22.18 2.16.07.26.14.51.2.72-.34-.24-.41-.41-.53-.69a7.4 7.4 0 00-.15-.34l-.32.09c.02.21.01.55 0 .94-.02.72-.03 1.58.09 2.18-.12-.09-.19-.2-.26-.31-.1-.15-.2-.31-.41-.38l-.3-.09.08.3c.12.43.05.9-.02 1.39-.04.3-.09.61-.1.92-.19-.16-.36-.3-.51-.42-.08-.06-.15-.12-.2-.16l-.25-.22-.02.34c-.01.2-.21.62-.38 1-.13.3-.26.58-.34.81-.12-.14-.17-.31-.22-.47l-.09-.32-.21.26c-.07.09-1.56 1.97-1.95 2.87l-.18-.15c-1.2-1.05-3.71-3.24-4.04-4.38l-.13-.43-.19.41c-.29.64-.71.89-1.52 1.34-.13-.61-.34-1.24-.55-1.86-.47-1.4-.95-2.85-.46-3.99l.2-.47-.44.26c-.42.25-.78.5-1.19.79.67-2.92 3.15-5.89 6.23-7.49-.12.25-.15.41-.08.54.09.16.3.18.52.18h.25c.11 0 .24-.01.38-.01.67 0 2.72 0 5.72 2.01.83.56 1.63 2 1.8 3.18.03-.06.01-.08-.01-.1zM40.82 99.87l-.03.58c0-.01-.01-.02-.01-.03-.07-.14-.16-.33-.4-.62l-.37.2c.26.99.15 2.56.06 3.94-.03.37-.05.73-.07 1.07l-.21-.42-.17.46c-.17.48-.35.83-.53 1.16-.21.4-.41.77-.52 1.28l-.14-.24-.17.36c-.17.37-.78.76-1.37 1.14-.77.49-1.51.96-1.54 1.54v.06c-.23-.11-.42-.19-.59-.26-.42-.17-.7-.29-.98-.61l-.12-.14-.15.1c-.23.15-.41.39-.6.72-.92-.49-1.17-1.23-1.45-2.08-.12-.35-.24-.7-.41-1.05l-.06.06c.01-.05.02-.09.03-.13-.2-.38-.46-.76-.86-1.09l-.21-.17-.12.24c-.17.35-.2.48-.25.69-.03-.15-.06-.3-.09-.44-.15-.68-.27-1.27-.52-1.9l-.15-.4-.22.37c-.15.25-.22.32-.32.44-.06.07-.14.15-.25.29-.08-.4-.16-.72-.24-.98-.15-.55-.25-.91-.16-1.5l.07-.48-.4.28c-.21.15-.32.24-.38.31.66-3.24 2.5-5.45 3.88-5.45.22 0 .43.05.62.16l.35.19-.04-.4c-.02-.17-.02-.29-.03-.4v-.12c.21.15.53.18.89-.05l.04-.02c.33-.17.39-.36.25-.76.49.09 1.23.31 1.86.49.72.21 1.14.33 1.32.34h.07c.31 0 .66-.08 1.04-.17.43-.1.91-.21 1.38-.21.62 0 1.09.2 1.49.62.89.89.84 1.84.78 3.03zm-.49-3.34c-.47-.5-1.06-.75-1.79-.75-.51 0-1.02.12-1.47.22-.35.08-.69.16-.95.16h-.05c-.14-.01-.69-.17-1.22-.32-.86-.25-1.84-.53-2.29-.55l-.34-.02.14.31c.17.39.18.49.18.51-.01.01-.06.04-.1.05l-.06.03c-.28.18-.35.17-.58-.06-.13-.12-.28-.28-.52-.38l-.24.33c.25.3.25.38.26.67v.09c-.16-.05-.32-.07-.49-.07-.36 0-.73.11-1.1.32h-3.12c-.57 0-1.03-.47-1.03-1.05 0-.58.46-1.05 1.03-1.05h28.24c-.31.31-.61.62-.9.91l-.16.12.14.14c.29.29.6.6.9.91H40.76c-.12-.17-.26-.35-.43-.52zm3.8-11.49c0-.36.32-.64.72-.64H65.5c-.48.43-.96.86-1.42 1.29H44.85c-.4-.01-.72-.3-.72-.65zm48.5 8.71H89.9v-5.83c.15.11.3.22.45.34l.26.21v-.34c0-.46-.08-.82-.19-1.13h2.2v6.75zM69.46 105v-6.75h2.73V105H69.46zm4.09 0v-6.75h2.73V105H73.55zm4.09 0v-6.75h2.73V105H77.64zm4.08 0v-6.75h2.73V105H81.72zm4.09 0v-6.75h2.73V105H85.81zm6.82 0H89.9v-6.75h2.73V105zm-6.82-11.25v-2.91c.82.52 1.78.9 2.73 1.04v1.87H85.81zm-4.09 0v-5.2c.57.63 1.46 1.41 1.83 1.66l.05.05.01-.01c.05.03.07.05.1.04h.11l.07-.21-.03-.02c.01-.33.05-.6.25-.81.1.15.21.29.33.43v4.07h-2.72zm-4.08 0V87H79c.39.55.86 1.05 1.36 1.55v5.2h-2.72zm-4.09 0V87h2.72v6.75h-2.72zm-4.09 0V87h2.72v6.75h-2.72zm21.57-7.53c-.17-.09-.32-.16-.44-.22-.35-.16-.53-.24-.68-.58l-.31.06c0 .41.15.74.31 1.09.16.35.32.72.37 1.21-.4-.3-.81-.56-1.27-.82l-.51-.28.29.51c.32.56.03 1.43-.25 2.26-.26.77-.51 1.51-.29 2.04-1.62-.35-3.27-1.41-3.94-2.57l-.09-.15-.14.1c-.35.24-.46.59-.5.95-.76-.6-2.4-2.06-2.23-2.59l-.29-.14c-.33.46-.43.76-.5 1.19-.94-.94-1.77-1.9-2.09-3.1l-.08-.32-.2.26c-.23.3-.35.45-.48.6-.08.09-.15.19-.25.31-.27-1.66-.24-1.74.35-3.27l.23-.6-.42.28c-.38.25-.7.5-1.07.79.61-2.99 2.89-6.03 5.71-7.66-.07.21-.08.38 0 .51.13.21.43.23.76.23h.32c.14 0 .29-.01.46-.01 1.31 0 3.35.21 5.8 2.05.86.65 2.07 3.12 2.2 4.43-1.06-.3-2.7-1.21-2.72-1.22l-.19.26c-.01.02 1.98 2.04 2.14 4.4zm-2.49 5.11c-.07-.2-.06-.45 0-.74v.74zm-28.36-1.88c-.43.44-.86.86-1.27 1.29H37.98c-.4 0-.72-.29-.72-.64 0-.36.32-.65.72-.65h22.2zm44.71 30.75c-1.02-4.15-10.47-5.36-10.32-6.82.3-1.65 7.28-1.43 7.36-2.88.09-1.45-6.45-2.37-6.26-3.99.15-1.73 3.38-1.9 3.49-4.58.02-1.67.55-2.72 1.21-3.45V105h2.72v-6.75h-2.52c1.16-1.12 2.59-1.43 2.58-2.35-.03-1.46-1.24-.03-2.68-2.06-.02-.03-.04-.07-.06-.1h2.68V87h-2.72v6.68c-1.22-2.09.27-7.66-1.16-7.72-2.11-.09-.69-2.57-3.19-2.75-2.38-.17-.5-1.18-2.75-3.71-2.56-3.06 1.71-7.59 2.73-8.6h.21c18.92 0 29.87 12.03 37.87 20.81 1.41 1.55 2.75 3.02 4.02 4.3-1.27 1.28-2.6 2.74-4.01 4.29-6.68 7.34-15.44 16.95-29.2 19.9zm33.39-30.75c.31 0 .65.33.65.65 0 .31-.33.64-.65.64v.2-.2h-4.52c-.39-.42-.78-.85-1.18-1.29h5.7zm1.68 0c.31 0 .65.33.65.64s-.33.64-.65.64v.2-.2h-.06c.16-.18.26-.41.26-.65 0-.23-.1-.46-.25-.64h.05zm2.22 1.52c.3-.19.5-.51.5-.87s-.2-.69-.51-.87l4.11-1.45 6.57 2.32-6.57 2.32-4.1-1.45zm-.61-1.52c.4 0 .72.29.72.65 0 .36-.32.64-.72.64h-.82c.16-.18.26-.41.26-.65 0-.23-.1-.46-.25-.64h.81zm-3.04 6.69l.14-.14-.14-.14c-.29-.29-.59-.6-.89-.91h20.69c-1.12.54-2.16 1.27-3.08 2.1h-17.61c.3-.31.6-.62.89-.91zm20.76-.39c-.15 0-.28 0-.39.01h-.24c-.17 0-.23-.01-.23 0-.01-.11.24-.54.33-.68l.08-.13h8.62c.57 0 1.03.47 1.03 1.05 0 .58-.46 1.05-1.03 1.05h-3.53c-2.4-1.29-4.04-1.3-4.64-1.3zm-20.17-6.5v.2c.31 0 .65.33.65.65 0 .31-.33.64-.65.64h-.06c.16-.18.26-.41.26-.65 0-.23-.1-.46-.25-.64h.06l-.01-.2zm6.87-4.86c.31 0 .65.33.65.64s-.33.65-.65.65h-.06c.16-.18.26-.41.26-.65 0-.23-.1-.46-.25-.64h.05zm13.74.64l-6.57 2.32-4.1-1.45c.3-.19.5-.51.5-.87s-.2-.69-.51-.87l4.11-1.45 6.57 2.32zm-11.29-.64c.4 0 .72.29.72.64 0 .36-.32.65-.72.65h-.82c.16-.18.26-.41.26-.65 0-.23-.1-.46-.25-.64h.81zm-1.61 1.49v-.14.14zm-1.69 0v-.13.13zm1.69-1.69v.2c.31 0 .65.33.65.64s-.33.65-.65.65h-.06c.16-.18.26-.41.26-.65 0-.23-.1-.46-.25-.64h.06l-.01-.2zm-1.69 0v.2c.31 0 .65.33.65.64s-.33.65-.65.65h-16.17c-.43-.43-.86-.86-1.31-1.29h17.48v-.2zm-35.22 9.56h-1.36V87h2.72v6.75h-1.36zm-5.45 0V87h2.72v6.75h-2.72zm0 4.5h2.73V105h-2.72v-6.75zm4.09 0h2.73V105h-2.72v-6.75zM116.74 87h2.72v6.75h-2.72V87zm6.81 0v6.75h-2.72V87h2.72zm-10.9 0h2.72v6.75h-2.72V87zm0 11.25h2.73V105h-2.72v-6.75zm4.09 0h2.73V105h-2.72v-6.75zm4.09 0h2.73V105h-2.72v-6.75z"/><path fill="#3D5DA7" d="M165.01 98.1c-3-2.01-5.04-2.01-5.72-2.01-.14 0-.27 0-.38.01h-.25c-.22 0-.43-.01-.52-.18-.07-.13-.04-.29.08-.54-3.08 1.6-5.56 4.58-6.23 7.49.41-.29.77-.54 1.19-.79l.44-.26-.2.47c-.49 1.14-.01 2.59.46 3.99.21.61.42 1.25.55 1.86.81-.46 1.23-.7 1.52-1.34l.19-.41.13.43c.33 1.14 2.84 3.33 4.04 4.38l.18.15c.39-.9 1.88-2.78 1.95-2.87l.21-.26.09.32c.04.16.1.33.22.47.07-.23.2-.52.34-.81.17-.37.36-.8.38-1l.02-.34.25.22c.05.04.12.1.2.16.14.11.32.25.51.42 0-.32.05-.62.1-.92.07-.49.14-.96.02-1.39l-.08-.3.3.09c.21.06.31.22.41.38.07.11.14.22.26.31-.12-.6-.1-1.46-.09-2.18.01-.39.02-.72 0-.94l.32-.09c.06.13.11.24.15.34.12.29.19.46.53.69-.05-.22-.12-.47-.2-.72-.27-.94-.52-1.82-.18-2.16l.11-.11.12.1c.14.13.26.28.37.42.02.02.03.04.05.06-.21-1.13-1.01-2.57-1.84-3.14zm-8.74 5.57c-.68 1.18-1.01 1.43-2.42 2.28.53-1.06 1.02-1.4 1.36-2.08.61-1.2.69-2.15 1.22-2.01.53.14.53.63-.16 1.81zm1.17 4.81c-.07-.81.17-1.14.12-1.66-.07-.91-.45-1.54.04-1.59.49-.04.71.27.72 1.19 0 .92-.15 1.16-.88 2.06zm2.72 1.58c-.21-1.13-.05-1.63-.19-2.35-.24-1.28-.71-2.12-.25-2.24.45-.12.72.3.89 1.59.17 1.3.08 1.66-.45 3zm2.36-4.15c-1.08-.44-1.32-.58-1.79-1.38-.46-.8-.43-1.17 0-1.35.43-.18.44.53.84 1.35.23.46.6.65.95 1.38zm.47-3.74c-1.08-.01-1.35-.06-2.14-.58s-.96-.86-.72-1.16c.24-.3.62.31 1.38.88.43.32.81.35 1.48.86zM40.03 96.82c-.4-.42-.87-.62-1.49-.62-.46 0-.95.11-1.38.21-.38.09-.74.17-1.04.17h-.07c-.18-.01-.59-.13-1.32-.34-.62-.18-1.37-.4-1.86-.49.14.4.09.59-.25.76l-.04.02c-.36.24-.68.21-.89.05v.12c0 .11.01.23.03.4l.04.4-.35-.19c-.2-.1-.4-.16-.62-.16-1.38 0-3.23 2.2-3.88 5.45.07-.07.17-.16.38-.31l.4-.28-.07.48c-.09.59.01.95.16 1.5.07.27.16.58.24.98.11-.14.19-.22.25-.29.1-.12.17-.19.32-.44l.22-.37.15.4c.25.64.37 1.23.52 1.9.03.14.06.28.09.44.05-.21.08-.35.25-.69l.12-.24.21.17c.4.34.66.71.86 1.09.22-1.08.53-1.51.67-2.24.25-1.34.11-2.33.59-2.28.48.05.59.56.27 1.88-.31 1.3-.53 1.63-1.49 2.7.17.34.29.7.41 1.05.28.85.53 1.59 1.45 2.08.2-.33.37-.57.6-.72l.15-.1.12.14c.28.33.56.44.98.61.17.07.37.15.59.26v-.06c.04-.58.77-1.04 1.54-1.54.59-.38 1.2-.77 1.37-1.14l.17-.36.14.24c.12-.51.31-.88.52-1.28.18-.33.36-.68.53-1.16l.17-.46.21.42c.02-.34.04-.7.07-1.07.09-1.38.2-2.95-.06-3.94l.36-.19c.25.29.34.48.4.62 0 .01.01.02.01.03l.03-.58c.07-1.17.12-2.12-.78-3.03zm-8.67 4.16c-.69 1.46-1.01 1.77-2.41 2.81.54-1.32 1.02-1.73 1.37-2.57.61-1.49.71-2.68 1.23-2.5.51.19.5.8-.19 2.26zm3.18 5.6c-.14 1.3-.31 1.62-1.13 2.8.06-1.14.33-1.59.37-2.33.07-1.3-.18-2.22.28-2.23.46 0 .62.46.48 1.76zm3.49-.84c-1.36-.62-1.68-.82-2.48-1.92-.8-1.09-.9-1.6-.48-1.84.42-.24.67.73 1.41 1.86.42.64.9.9 1.55 1.9zm-2.69-5.46c-1.19-1.07-1.44-1.63-1.03-2 .4-.37.95.68 2.09 1.8.64.64 1.25.83 2.25 1.82-1.7-.4-2.12-.55-3.31-1.62zm53.52-18.47l.19-.26c.02.01 1.66.92 2.72 1.22-.13-1.3-1.34-3.78-2.2-4.43-2.45-1.84-4.48-2.05-5.8-2.05-.17 0-.32 0-.46.01h-.32c-.32 0-.63-.02-.76-.23-.08-.13-.07-.3 0-.51-2.83 1.63-5.1 4.68-5.71 7.66.36-.29.69-.54 1.07-.79l.42-.28-.23.6c-.59 1.54-.62 1.62-.35 3.27.1-.13.18-.22.25-.31.12-.15.25-.3.48-.6l.2-.26.08.32c.32 1.2 1.15 2.16 2.09 3.1.07-.43.18-.73.5-1.19l.29.14c-.17.53 1.48 1.99 2.23 2.59.04-.36.15-.71.5-.95l.14-.1.09.15c.67 1.16 2.31 2.22 3.94 2.57-.22-.52.03-1.26.29-2.04.28-.84.58-1.7.25-2.26l-.29-.51.51.28c.46.26.87.52 1.27.82-.05-.49-.22-.86-.37-1.21-.16-.35-.31-.69-.31-1.09l.31-.06c.15.34.32.42.68.58.13.06.27.13.44.22-.13-2.35-2.12-4.37-2.14-4.4zm-4.94-3.07c.33-.52 1.26.42 2.86 1.26.91.48 1.63.49 3.04 1.23-1.99.1-2.5.07-4.15-.69-1.64-.77-2.08-1.28-1.75-1.8zm-3.5 4.34c.22-1.76-.04-3.05.58-3.02.62.03.8.68.5 2.44-.31 1.76-.57 2.19-1.8 3.72.19-1.55.6-2.13.72-3.14zm7.64 8.33c-1.37-.85-1.69-1.1-2.39-2.36-.7-1.26-.73-1.8-.24-1.99.49-.19.62.86 1.25 2.15.35.72.83 1.06 1.38 2.2zm-4.23-5.73c.06 1.5-.09 1.9-.86 3.4-.13-1.31.12-1.87.04-2.72-.14-1.49-.6-2.5-.05-2.59.53-.09.81.41.87 1.91zM87 84.22c-1.22-.91-1.49-1.42-1.1-1.8.39-.38.97.56 2.14 1.53.66.55 1.27.68 2.3 1.53-1.7-.24-2.11-.35-3.34-1.26z"/><path fill="#A70000" d="M156.27 103.67c-.68 1.18-1.01 1.43-2.42 2.28.53-1.06 1.02-1.4 1.36-2.08.61-1.2.69-2.15 1.22-2.01.53.14.53.63-.16 1.81zm1.33 1.56c-.49.04-.11.67-.04 1.59.04.52-.19.86-.12 1.66.74-.9.88-1.14.88-2.06-.01-.92-.23-1.24-.72-1.19zm2.11.24c-.45.12.02.96.25 2.24.14.73-.02 1.23.19 2.35.53-1.34.62-1.7.45-3-.16-1.29-.44-1.7-.89-1.59zm.42-5.04c-.24.3-.07.63.72 1.16.79.52 1.06.57 2.14.58-.66-.5-1.05-.54-1.48-.86-.76-.58-1.14-1.18-1.38-.88zm2.86 1.74zm-.47 3.74zm-1.78-2.74c-.43.18-.47.55 0 1.35.46.8.71.94 1.79 1.38-.35-.73-.72-.91-.95-1.38-.41-.82-.41-1.53-.84-1.35zm-131.79.63zm2.6-5.08c-.51-.18-.61 1.01-1.23 2.5-.35.85-.83 1.26-1.37 2.57 1.4-1.04 1.72-1.35 2.41-2.81.69-1.46.7-2.07.19-2.26zm.72 3.72c-.48-.05-.34.94-.59 2.28-.13.73-.45 1.16-.67 2.24-.01.04-.02.08-.03.13l.06-.06c.96-1.06 1.18-1.39 1.49-2.7.32-1.33.21-1.84-.26-1.89zm-1.29 4.65zm3.08-2.27c-.46.01-.21.93-.28 2.23-.04.74-.31 1.18-.37 2.33.82-1.18.99-1.5 1.13-2.8.14-1.3-.02-1.76-.48-1.76zm.24-6.55c-.4.37-.16.93 1.03 2 1.19 1.07 1.61 1.22 3.3 1.62-1-.99-1.6-1.18-2.25-1.82-1.12-1.11-1.67-2.17-2.08-1.8zm.77 3.71c-.42.24-.33.75.48 1.84.8 1.09 1.12 1.3 2.48 1.92-.65-1-1.13-1.26-1.55-1.9-.74-1.13-.99-2.1-1.41-1.86zm44.64-15.75c1.23-1.54 1.49-1.96 1.8-3.72.31-1.76.13-2.41-.5-2.44-.62-.03-.37 1.26-.58 3.02-.13 1-.54 1.58-.72 3.14zm3.24-2.46c-.54.09-.08 1.1.05 2.59.08.85-.16 1.41-.04 2.72.77-1.5.92-1.9.86-3.4-.05-1.5-.33-2-.87-1.91zm.02 5.31zm3.7.12c-.63-1.29-.76-2.34-1.25-2.15-.49.19-.46.73.24 1.99s1.02 1.52 2.39 2.36c-.54-1.13-1.02-1.47-1.38-2.2zm-.99-8.67c1.65.76 2.16.8 4.15.69-1.41-.74-2.13-.75-3.04-1.23-1.6-.84-2.53-1.78-2.86-1.26-.34.53.1 1.04 1.75 1.8zm2.36 3.42c-1.17-.96-1.75-1.91-2.14-1.53-.39.38-.13.89 1.1 1.8 1.22.91 1.64 1.02 3.34 1.26-1.03-.86-1.63-.98-2.3-1.53z"/><g><path fill="none" d="M172 160V32c0-6.6-5.4-12-12-12H32c-6.6 0-12 5.4-12 12v128c0 6.6 5.4 12 12 12h128c6.6 0 12-5.4 12-12z" opacity=".4"/><path fill="none" d="M0 0v192h192V0H0z"/><path fill="#DFDFDF" d="M160 20c6.6 0 12 5.4 12 12v128c0 6.6-5.4 12-12 12H32c-6.6 0-12-5.4-12-12V32c0-6.6 5.4-12 12-12h128m0-8H32c-11.03 0-20 8.97-20 20v128c0 11.03 8.97 20 20 20h128c11.03 0 20-8.97 20-20V32c0-11.03-8.97-20-20-20z"/><path fill="#FFF" fill-opacity=".2" d="M160 20H32c-6.6 0-12 5.4-12 12v1c0-6.6 5.4-12 12-12h128c6.6 0 12 5.4 12 12v-1c0-6.6-5.4-12-12-12z"/><path fill="#212121" fill-opacity=".1" d="M160 172H32c-6.6 0-12-5.4-12-12v-1c0 6.6 5.4 12 12 12h128c6.6 0 12-5.4 12-12v1c0 6.6-5.4 12-12 12z"/><radialGradient id="a" cx="23.768" cy="23.933" r="204.625" gradientUnits="userSpaceOnUse"><stop offset="0" stop-color="#fff" stop-opacity=".1"/><stop offset="1" stop-color="#fff" stop-opacity="0"/></radialGradient><path fill="url(#a)" d="M160 172H32c-6.6 0-12-5.4-12-12V32c0-6.6 5.4-12 12-12h128c6.6 0 12 5.4 12 12v128c0 6.6-5.4 12-12 12z"/></g></svg>