<svg xmlns="http://www.w3.org/2000/svg" width="192" height="192"><path fill="#FE0000" d="M172 160V32c0-6.6-5.4-12-12-12H32c-6.6 0-12 5.4-12 12v128c0 6.6 5.4 12 12 12h128c6.6 0 12-5.4 12-12z"/><path fill="#000095" d="M134 20H32c-6.6 0-12 5.4-12 12v64h114V20z"/><path fill="#FFF" d="M61.21 61.39L48.5 58l12.71-3.39c-.23 1.09-.36 2.23-.36 3.39s.13 2.3.36 3.39zm19.18-19.18L77 29.5l-3.39 12.71c1.09-.23 2.23-.36 3.39-.36s2.3.13 3.39.36zM105.5 58l-12.71-3.39c.23 1.09.36 2.23.36 3.39s-.13 2.3-.36 3.39L105.5 58zM73.61 73.79L77 86.5l3.39-12.71c-1.09.23-2.23.36-3.39.36s-2.3-.13-3.39-.36zm-8.59-26.62l-12.7-3.42 9.31 9.29c.71-2.2 1.88-4.2 3.39-5.87zm26.23-13.85l-9.29 9.31c2.2.71 4.19 1.88 5.87 3.39l3.42-12.7zm-28.5 49.36l9.29-9.31c-2.2-.71-4.19-1.88-5.87-3.39l-3.42 12.7zm26.23-13.85l12.7 3.42-9.31-9.29c-.71 2.2-1.88 4.2-3.39 5.87zm-7.02 4.54l9.29 9.31-3.42-12.7a16.17 16.17 0 01-5.87 3.39zm10.41-20.33l9.31-9.29-12.7 3.42a16.17 16.17 0 013.39 5.87zm-30.74 9.92l-9.31 9.29 12.7-3.42a16.17 16.17 0 01-3.39-5.87zm10.41-20.33l-9.29-9.31 3.42 12.7a16.17 16.17 0 015.87-3.39zM77 43.75c-7.87 0-14.25 6.38-14.25 14.25S69.13 72.25 77 72.25 91.25 65.87 91.25 58 84.87 43.75 77 43.75z"/><path fill="none" d="M172 160V32c0-6.6-5.4-12-12-12H32c-6.6 0-12 5.4-12 12v128c0 6.6 5.4 12 12 12h128c6.6 0 12-5.4 12-12z" opacity=".4"/><path fill="none" d="M0 0v192h192V0H0z"/><path fill="#DFDFDF" d="M160 20c6.6 0 12 5.4 12 12v128c0 6.6-5.4 12-12 12H32c-6.6 0-12-5.4-12-12V32c0-6.6 5.4-12 12-12h128m0-8H32c-11.03 0-20 8.97-20 20v128c0 11.03 8.97 20 20 20h128c11.03 0 20-8.97 20-20V32c0-11.03-8.97-20-20-20z"/><path fill="#FFF" fill-opacity=".2" d="M160 20H32c-6.6 0-12 5.4-12 12v1c0-6.6 5.4-12 12-12h128c6.6 0 12 5.4 12 12v-1c0-6.6-5.4-12-12-12z"/><path fill="#212121" fill-opacity=".1" d="M160 172H32c-6.6 0-12-5.4-12-12v-1c0 6.6 5.4 12 12 12h128c6.6 0 12-5.4 12-12v1c0 6.6-5.4 12-12 12z"/><radialGradient id="a" cx="23.768" cy="23.933" r="204.625" gradientUnits="userSpaceOnUse"><stop offset="0" stop-color="#fff" stop-opacity=".1"/><stop offset="1" stop-color="#fff" stop-opacity="0"/></radialGradient><path fill="url(#a)" d="M160 172H32c-6.6 0-12-5.4-12-12V32c0-6.6 5.4-12 12-12h128c6.6 0 12 5.4 12 12v128c0 6.6-5.4 12-12 12z"/></svg>