<svg xmlns="http://www.w3.org/2000/svg" width="192" height="192"><path fill="#B22234" d="M172 160V32c0-6.6-5.4-12-12-12H32c-6.6 0-12 5.4-12 12v128c0 6.6 5.4 12 12 12h128c6.6 0 12-5.4 12-12z"/><path fill="#FFF" d="M20 78.46h152v11.69H20V78.46zm0-11.69h152V55.08H20v11.69zM20 160c0 .1.01.2.02.31h151.97c0-.1.02-.2.02-.31v-11.38H20V160zM171.98 31.69H20.02c0 .1-.02.2-.02.31v11.38h152V32c0-.1-.01-.2-.02-.31zM20 136.92h152v-11.69H20v11.69zm0-23.38h152v-11.69H20v11.69z"/><path fill="#3C3B6E" d="M96 20H32c-6.6 0-12 5.4-12 12v69.85h76V20z"/><path fill="#FFF" d="M68.17 43.11h3.4l-2.75 2 1.05 3.23-2.75-2-2.75 2 1.05-3.23-2.75-2h3.4l1.05-3.23 1.05 3.23zm-1.05 13.14l-1.05 3.23h-3.4l2.75 2-1.05 3.23 2.75-2 2.75 2-1.05-3.23 2.75-2h-3.4l-1.05-3.23zM77.8 84.03l-1.05-3.23-1.05 3.23h-3.4l2.75 2L74 89.26l2.75-2 2.75 2-1.05-3.23 2.75-2h-3.4zm-19.26 0l-1.05-3.23-1.05 3.23h-3.4l2.75 2-1.05 3.23 2.75-2 2.75 2-1.05-3.23 2.75-2h-3.4zm8.58-11.41l-1.05 3.23h-3.4l2.75 2-1.05 3.23 2.75-2 2.75 2-1.05-3.23 2.75-2h-3.4l-1.05-3.23zm-9.63-24.56l-1.05 3.23h-3.4l2.75 2-1.05 3.23 2.75-2 2.75 2-1.05-3.23 2.75-2h-3.4l-1.05-3.23zm0 16.37l-1.05 3.23h-3.4l2.75 2-1.05 3.23 2.75-2 2.75 2-1.05-3.23 2.75-2h-3.4l-1.05-3.23zm10.68 27.79l-1.05-3.23-1.05 3.23h-3.4l2.75 2-1.05 3.23 2.75-2 2.75 2-1.05-3.23 2.75-2h-3.4zM57.49 31.69l-1.05 3.23h-3.4l2.75 2-1.05 3.23 2.75-2 2.75 2-1.05-3.23 2.75-2h-3.4l-1.05-3.23zm-9.62-8.18l-1.05 3.23h-3.4l2.75 2-1.05 3.23 2.75-2 2.75 2-1.05-3.23 2.75-2h-3.4l-1.05-3.23zm38.5 32.74l-1.05 3.23h-3.4l2.75 2-1.05 3.23 2.75-2 2.75 2-1.05-3.23 2.75-2h-3.4l-1.05-3.23zm0-16.37l-1.05 3.23h-3.4l2.75 2-1.05 3.23 2.75-2 2.75 2-1.05-3.23 2.75-2h-3.4l-1.05-3.23zm-2.75-7.91l2.75-2 2.75 2-1.05-3.23 2.75-2h-3.4l-1.05-3.23-1.05 3.23h-3.4l2.75 2-1.05 3.23zm2.75 40.65l-1.05 3.23h-3.4l2.75 2-1.05 3.23 2.75-2 2.75 2-1.05-3.23 2.75-2h-3.4l-1.05-3.23zm-9.62-24.56l-1.05 3.23h-3.4l2.75 2L74 56.52l2.75-2 2.75 2-1.05-3.23 2.75-2h-3.4l-1.05-3.23zm0 16.37l-1.05 3.23h-3.4l2.75 2L74 72.89l2.75-2 2.75 2-1.05-3.23 2.75-2h-3.4l-1.05-3.23zm10.67 27.79l-1.05-3.23-1.05 3.23h-3.4l2.75 2-1.05 3.23 2.75-2 2.75 2-1.05-3.23 2.75-2h-3.4zM76.75 31.69l-1.05 3.23h-3.4l2.75 2L74 40.15l2.75-2 2.75 2-1.05-3.23 2.75-2h-3.4l-1.05-3.23zm-9.63-8.18l-1.05 3.23h-3.4l2.75 2-1.05 3.23 2.75-2 2.75 2-1.05-3.23 2.75-2h-3.4l-1.05-3.23zm-18.2 68.71l-1.05-3.23-1.05 3.23h-3.4l2.75 2-1.05 3.23 2.75-2 2.75 2-1.05-3.23 2.75-2h-3.4zM38.24 48.06l-1.05 3.23h-3.4l2.75 2-1.05 3.23 2.75-2 2.75 2-1.05-3.23 2.75-2h-3.4l-1.05-3.23zm0-16.37l-1.05 3.23h-3.4l2.75 2-1.05 3.23 2.75-2 2.75 2-1.05-3.23 2.75-2h-3.4l-1.05-3.23zm1.05 52.34l-1.05-3.23-1.05 3.23h-3.4l2.75 2-1.05 3.23 2.75-2 2.75 2-1.05-3.23 2.75-2h-3.4zm-1.05-19.6l-1.05 3.23h-3.4l2.75 2-1.05 3.23 2.75-2 2.75 2-1.05-3.23 2.75-2h-3.4l-1.05-3.23zm9.63-24.55l-1.05 3.23h-3.4l2.75 2-1.05 3.23 2.75-2 2.75 2-1.05-3.23 2.75-2h-3.4l-1.05-3.23zm0 32.74l-1.05 3.23h-3.4l2.75 2-1.05 3.23 2.75-2 2.75 2-1.05-3.23 2.75-2h-3.4l-1.05-3.23zm0-16.37l-1.05 3.23h-3.4l2.75 2-1.05 3.23 2.75-2 2.75 2-1.05-3.23 2.75-2h-3.4l-1.05-3.23zM20 51.18v4.08l1.74 1.26-1.05-3.23 2.75-2h-3.4l-.04-.11zm.04 32.85l-.04-.11V88l1.74 1.26-1.05-3.23 2.75-2h-3.4zM20 67.55v4.08l1.74 1.26-1.05-3.23 2.75-2h-3.4l-.04-.11zm0-32.74v4.08l1.74 1.26-1.05-3.23 2.75-2h-3.4l-.04-.11zm9.66 57.41l-1.05-3.23-1.05 3.23h-3.4l2.75 2-1.05 3.23 2.75-2 2.75 2-1.05-3.23 2.75-2h-3.4zm-1.05-52.34l-1.05 3.23h-3.4l2.75 2-1.05 3.23 2.75-2 2.75 2-1.05-3.23 2.75-2h-3.4l-1.05-3.23zm0 32.74l-1.05 3.23h-3.4l2.75 2-1.05 3.23 2.75-2 2.75 2-1.05-3.23 2.75-2h-3.4l-1.05-3.23zm0-49.11l-1.05 3.23h-3.4l2.75 2-1.05 3.23 2.75-2 2.75 2-1.05-3.23 2.75-2h-3.4l-1.05-3.23zm0 32.74l-1.05 3.23h-3.4l2.75 2-1.05 3.23 2.75-2 2.75 2-1.05-3.23 2.75-2h-3.4l-1.05-3.23z"/><path fill="none" d="M172 160V32c0-6.6-5.4-12-12-12H32c-6.6 0-12 5.4-12 12v128c0 6.6 5.4 12 12 12h128c6.6 0 12-5.4 12-12z" opacity=".4"/><path fill="none" d="M0 0v192h192V0H0z"/><path fill="#DFDFDF" d="M160 20c6.6 0 12 5.4 12 12v128c0 6.6-5.4 12-12 12H32c-6.6 0-12-5.4-12-12V32c0-6.6 5.4-12 12-12h128m0-8H32c-11.03 0-20 8.97-20 20v128c0 11.03 8.97 20 20 20h128c11.03 0 20-8.97 20-20V32c0-11.03-8.97-20-20-20z"/><path fill="#FFF" fill-opacity=".2" d="M160 20H32c-6.6 0-12 5.4-12 12v1c0-6.6 5.4-12 12-12h128c6.6 0 12 5.4 12 12v-1c0-6.6-5.4-12-12-12z"/><path fill="#212121" fill-opacity=".1" d="M160 172H32c-6.6 0-12-5.4-12-12v-1c0 6.6 5.4 12 12 12h128c6.6 0 12-5.4 12-12v1c0 6.6-5.4 12-12 12z"/><radialGradient id="a" cx="23.768" cy="23.933" r="204.625" gradientUnits="userSpaceOnUse"><stop offset="0" stop-color="#fff" stop-opacity=".1"/><stop offset="1" stop-color="#fff" stop-opacity="0"/></radialGradient><path fill="url(#a)" d="M160 172H32c-6.6 0-12-5.4-12-12V32c0-6.6 5.4-12 12-12h128c6.6 0 12 5.4 12 12v128c0 6.6-5.4 12-12 12z"/></svg>