<svg xmlns="http://www.w3.org/2000/svg" width="192" height="192"><path fill="#FFF" d="M172 160V32c0-6.6-5.4-12-12-12H32c-6.6 0-12 5.4-12 12v128c0 6.6 5.4 12 12 12h128c6.6 0 12-5.4 12-12z"/><path fill="#0038A8" d="M104 37h68v17h-68V37zm0 51h68V71h-68v17zm-84 33h152v-17H20v17zm0 34h152v-17H20v17z"/><path fill="#FCD116" d="M84.91 68.88c-1.99-.53-4.33-1.15-7.17-3.83l15.56-2.83-16.32-2.97c5.07-2.12 6.69-4.31 7.88-5.91 1.2-1.62 1.98-2.69 5.49-2.65h.33l-.29-.15c-3.64-1.85-5.21-.94-7.38.33-1.78 1.04-3.88 2.26-7.8 2.36l8.99-12.99-13.65 9.46c2.07-5.07 1.67-7.76 1.38-9.73-.3-1.99-.49-3.31 2.01-5.75l.23-.23-.31.1c-3.88 1.27-4.35 3.02-4.99 5.45-.53 1.99-1.15 4.33-3.83 7.17l-2.83-15.56-2.98 16.36c-2.12-5.06-4.31-6.68-5.91-7.86-1.62-1.2-2.69-1.99-2.65-5.49v-.33l-.15.29c-1.85 3.64-.94 5.21.33 7.38 1.03 1.77 2.24 3.86 2.36 7.74l-12.99-8.99 9.45 13.65c-5.07-2.07-7.76-1.67-9.73-1.38-1.99.3-3.31.49-5.75-2.01l-.23-.23.1.31c1.27 3.88 3.02 4.35 5.45 4.99 1.99.53 4.33 1.15 7.17 3.83l-15.56 2.83L47.4 65.2c-5.09 2.13-6.71 4.32-7.9 5.92-1.18 1.59-1.96 2.65-5.29 2.65h-.53l.29.15c1.48.75 2.62 1.05 3.6 1.05 1.42 0 2.5-.63 3.78-1.37 1.79-1.04 3.91-2.27 7.87-2.36l-9 12.99 13.65-9.45c-2.07 5.07-1.67 7.76-1.38 9.73.3 1.99.49 3.31-2.01 5.75l-.23.23.31-.1c3.88-1.27 4.35-3.02 4.99-5.45.53-1.99 1.15-4.33 3.83-7.17l2.83 15.56 2.96-16.28c2.13 5.09 4.32 6.71 5.92 7.9 1.62 1.2 2.69 1.99 2.65 5.49v.33l.15-.29c1.85-3.64.94-5.21-.33-7.38-1.04-1.79-2.27-3.91-2.36-7.87l12.99 9-9.45-13.65c5.07 2.07 7.76 1.67 9.73 1.38 1.99-.3 3.31-.49 5.75 2.01l.23.23-.1-.31c-1.26-3.91-3.01-4.37-5.44-5.01zm-19.69 7.93l.44-2.41-.44 2.41z"/><path d="M84.91 68.88c-1.99-.53-4.33-1.15-7.17-3.83l15.56-2.83-16.32-2.97c5.07-2.12 6.69-4.31 7.88-5.91 1.2-1.62 1.98-2.69 5.49-2.65h.33l-.29-.15c-3.64-1.85-5.21-.94-7.38.33-1.78 1.04-3.88 2.26-7.8 2.36l8.99-12.99-13.65 9.46c2.07-5.07 1.67-7.76 1.38-9.73-.3-1.99-.49-3.31 2.01-5.75l.23-.23-.31.1c-3.88 1.27-4.35 3.02-4.99 5.45-.53 1.99-1.15 4.33-3.83 7.17l-2.83-15.56-2.98 16.36c-2.12-5.06-4.31-6.68-5.91-7.86-1.62-1.2-2.69-1.99-2.65-5.49v-.33l-.15.29c-1.85 3.64-.94 5.21.33 7.38 1.03 1.77 2.24 3.86 2.36 7.74l-12.99-8.99 9.45 13.65c-5.07-2.07-7.76-1.67-9.73-1.38-1.99.3-3.31.49-5.75-2.01l-.23-.23.1.31c1.27 3.88 3.02 4.35 5.45 4.99 1.99.53 4.33 1.15 7.17 3.83l-15.56 2.83L47.4 65.2c-5.09 2.13-6.71 4.32-7.9 5.92-1.18 1.59-1.96 2.65-5.29 2.65h-.53l.29.15c1.48.75 2.62 1.05 3.6 1.05 1.42 0 2.5-.63 3.78-1.37 1.79-1.04 3.91-2.27 7.87-2.36l-9 12.99 13.65-9.45c-2.07 5.07-1.67 7.76-1.38 9.73.3 1.99.49 3.31-2.01 5.75l-.23.23.31-.1c3.88-1.27 4.35-3.02 4.99-5.45.53-1.99 1.15-4.33 3.83-7.17l2.83 15.56 2.96-16.28c2.13 5.09 4.32 6.71 5.92 7.9 1.62 1.2 2.69 1.99 2.65 5.49v.33l.15-.29c1.85-3.64.94-5.21-.33-7.38-1.04-1.79-2.27-3.91-2.36-7.87l12.99 9-9.45-13.65c5.07 2.07 7.76 1.67 9.73 1.38 1.99-.3 3.31-.49 5.75 2.01l.23.23-.1-.31c-1.26-3.91-3.01-4.37-5.44-5.01zm-.45 2.9c-1.97.29-4.67.69-9.8-1.43l-.07-.03-2.68-3.86c4.86 2.82 8.75 3.4 11.62 3.83 3.04.45 5.1.76 6.46 3.21-2.27-2.2-3.59-2.01-5.53-1.72zM74.15 89.54c.54-2.51-.67-4.16-2.43-6.53-1.86-2.5-4.16-5.62-5.58-11.25v-.01c.01-.01.03-.01.04-.02l4.87 3.37c.07 4.07 1.33 6.23 2.39 8.05 1.13 1.95 1.98 3.4.71 6.39zm-18.73-4.67c-.58 2.18-1.01 3.81-3.99 5.02 2.15-1.39 2.45-3.42 2.88-6.33.46-3.07 1.02-6.88 3.96-11.83.01 0 .02.01.03.01l1.06 5.83c-.84.88-1.54 1.78-2.1 2.69-1.08 1.74-1.48 3.27-1.84 4.61zm-2.76-.41c-.29-1.97-.69-4.67 1.43-9.8l.03-.07 3.86-2.68c-2.82 4.86-3.4 8.75-3.83 11.62-.45 3.04-.76 5.1-3.21 6.46 2.21-2.27 2.01-3.59 1.72-5.53zM34.91 74.15c.41.09.8.14 1.17.14 1.9 0 3.38-1.1 5.36-2.57 2.5-1.86 5.61-4.16 11.25-5.58h.02c.01.01.01.02.01.04l-3.37 4.87c-4.07.07-6.23 1.33-8.05 2.39-1.95 1.13-3.41 1.98-6.39.71zm4.66-18.73c-2.18-.58-3.81-1.01-5.02-3.99 1.39 2.15 3.42 2.45 6.33 2.88 3.07.46 6.88 1.02 11.83 3.96 0 .01-.01.02-.01.03l-5.83 1.06c-.88-.84-1.78-1.54-2.69-2.1-1.74-1.08-3.26-1.48-4.61-1.84zm.42-2.76c1.97-.29 4.67-.69 9.8 1.43l.07.03 2.68 3.86c-4.86-2.82-8.75-3.4-11.62-3.83-3.04-.45-5.1-.76-6.46-3.21 2.27 2.21 3.58 2.01 5.53 1.72zm10.3-17.62c-.54 2.51.67 4.16 2.43 6.53 1.85 2.49 4.13 5.58 5.56 11.15 0 0-.01 0-.01.01l-4.87-3.37c-.1-3.98-1.33-6.12-2.38-7.92-1.15-1.97-1.99-3.42-.73-6.4zm8.88 12.67l.03.07-.84 4.63c-1.44-5.44-3.78-8.6-5.51-10.93-1.83-2.47-3.07-4.14-2.3-6.83.06 3.16 1.13 3.95 2.71 5.12 1.59 1.18 3.78 2.81 5.91 7.94zm9.85-8.14c.58-2.18 1.01-3.81 3.99-5.02-2.15 1.39-2.45 3.42-2.88 6.33-.46 3.07-1.02 6.88-3.96 11.83-.01 0-.02-.01-.03-.01l-1.06-5.83c.84-.88 1.54-1.78 2.1-2.69 1.09-1.74 1.49-3.26 1.84-4.61zm2.76.42c.29 1.97.69 4.67-1.43 9.8l-.03.07-3.86 2.68c2.82-4.86 3.4-8.75 3.83-11.62.45-3.04.76-5.1 3.21-6.46-2.2 2.27-2.01 3.58-1.72 5.53zm12.96 13.26c-1.19 1.6-2.81 3.79-7.94 5.92l-.1.04-4.63-.84c5.45-1.44 8.62-3.79 10.95-5.52 2.47-1.83 4.14-3.07 6.83-2.3-3.15.06-3.94 1.12-5.11 2.7zm.13 15.77c2.18.58 3.81 1.01 5.02 3.99-1.39-2.15-3.42-2.45-6.33-2.88-3.07-.46-6.88-1.02-11.83-3.96 0-.01.01-.02.01-.03l5.83-1.06c.88.84 1.78 1.54 2.69 2.1 1.74 1.09 3.27 1.49 4.61 1.84zm-22.65 3.34c-5.59 0-10.14-4.55-10.14-10.14 0-5.59 4.55-10.14 10.14-10.14 5.59 0 10.14 4.55 10.14 10.14 0 5.59-4.55 10.14-10.14 10.14zm9.58-6.38c.45-1.14.7-2.38.71-3.68h19.52L71.8 65.98zm.71-3.83c-.01-1.3-.26-2.54-.71-3.68l20.23 3.68H72.51zm16.96-11.86c-2.51-.54-4.16.67-6.53 2.43-2.5 1.85-5.6 4.15-11.2 5.57 0-.01-.01-.02-.01-.03l3.37-4.87c4.03-.08 6.17-1.33 7.99-2.39 1.94-1.13 3.4-1.97 6.38-.71zM71.65 58.1c-.51-1.16-1.22-2.21-2.1-3.1l13.81-13.8-11.71 16.9zm-2.21-3.21c-.89-.88-1.94-1.59-3.1-2.1l16.9-11.7-13.8 13.8zm-3.46-2.25c-1.14-.45-2.38-.7-3.68-.71V32.41l3.68 20.23zm-3.83-.71c-1.3.01-2.54.26-3.68.71l3.68-20.23v19.52zm-4.05.86c-1.16.51-2.21 1.22-3.1 2.1l-13.8-13.8 16.9 11.7zM54.89 55c-.88.89-1.59 1.94-2.1 3.1l-11.7-16.9L54.89 55zm-2.25 3.47c-.45 1.14-.7 2.38-.71 3.68H32.41l20.23-3.68zm-.71 3.83c.01 1.3.26 2.54.71 3.68L32.41 62.3h19.52zm.86 4.04c.51 1.16 1.22 2.21 2.1 3.1l-13.8 13.81 11.7-16.91zM55 69.55c.89.88 1.94 1.59 3.1 2.1l-16.9 11.7L55 69.55zm3.47 2.25c1.14.45 2.38.7 3.68.71v19.52L58.47 71.8zm3.83.71c1.3-.01 2.54-.26 3.68-.71L62.3 92.03V72.51zm4.04-.86c1.16-.51 2.21-1.22 3.1-2.1l13.81 13.81-16.91-11.71zm3.21-2.21c.88-.89 1.59-1.94 2.1-3.1l11.7 16.9-13.8-13.8zm-19.52-3.78l2.3.42c-5.47 1.44-8.64 3.79-10.98 5.53-2.47 1.83-4.14 3.07-6.83 2.3 3.16-.06 3.95-1.13 5.12-2.71 1.19-1.6 2.81-3.79 7.94-5.92l.11-.05 2.34.43zm16.04 6.45c1.44 5.47 3.79 8.65 5.53 10.98 1.83 2.47 3.07 4.14 2.3 6.83-.06-3.16-1.13-3.95-2.71-5.12-1.6-1.19-3.79-2.81-5.92-7.94l-.03-.07-.03.01.44-2.41.42-2.28zm3.68-13.97c-.65.74-1.02-.56-3.34-.56s-2.69 1.39-3.07 1.11c-.37-.28 1.95-1.95 2.69-2.04.74-.09 2.88.65 3.72 1.49zm-.56 1.76c-.38 0-.74-.32-1.27-.59.16.24.23.54.06.83.12-.08.25-.16.37-.25.65-.46-.93 1.11-1.95 1.11s-2.42-.56-2.14-.93c.37-.56.84.56 1.86.56-.57-.25-1.23-.97-1.03-1.56-.33.11-.58.34-1.11.82v-.09c.09-1.11 1.02-1.3 2.51-1.3 1.49.01 2.14 1.12 2.7 1.4zm-1.52-.71c-.17-.07-.35-.12-.56-.16.42.44.2 1.21-.21 1.54.33-.06.61-.17.88-.31.21-.38.06-.79-.11-1.07zm-.06 8.33c-.24-.43-.29-.5-.5-.78-2.92 1.26-2.6 1.71-4.89 1.71-2.29 0-1.96-.45-4.89-1.71-.21.29-.26.35-.5.78.09-.65.28-.93 1.02-1.49-.24.32-.39.53-.5.67l.36.06c1.02 0 2.39-.73 3.02-.73.74 0 .93.19 1.49.19.56 0 .74-.19 1.49-.19.63 0 1.99.73 3.02.73.11-.02.23-.04.36-.06-.11-.15-.26-.35-.5-.67.74.56.93.84 1.02 1.49zm-2.34-.39c-.52-.04-1.25-.17-3.05-.17s-2.53.13-3.05.17c.88.28 1.61.57 3.05.57s2.17-.29 3.05-.57zm-4.16-8.44c.37-.28-1.95-1.95-2.69-2.04-.74-.09-2.88.65-3.72 1.49.65.74 1.02-.56 3.34-.56s2.7 1.39 3.07 1.11zm-3.07 2.32c-1.02 0-2.6-1.58-1.95-1.11.13.09.25.17.37.25-.17-.3-.1-.6.06-.83-.53.27-.88.59-1.27.59.56-.28 1.21-1.39 2.69-1.39 1.49 0 2.42.19 2.51 1.3v.09c-.52-.48-.78-.71-1.11-.82.2.59-.46 1.31-1.03 1.56 1.02 0 1.49-1.11 1.86-.56.29.37-1.11.92-2.13.92zm-1.38-.75c.27.14.55.25.88.31-.41-.33-.63-1.1-.21-1.54-.2.04-.39.1-.56.16-.16.28-.31.69-.11 1.07zm3.7 3.45c.09-.56.37-.46.37-.84-.84.19-.56 1.39-1.3 1.49-.74.09-1.11.93-1.02.84.46-.37 1.49-.65 2.23-.65s.93.46 1.58.46.84-.46 1.58-.46c.74 0 1.76.28 2.23.65.09.09-.28-.74-1.02-.84-.74-.09-.46-1.3-1.3-1.49 0 .37.28.28.37.84 0 .46-.84.46-1.02 0 .19.74-.37.74-.84.74s-1.02 0-.84-.74c-.18.46-1.02.46-1.02 0zm1.86 5.57c-.46 0-1.67.28 0 .28s.47-.28 0-.28z"/><path fill="none" d="M172 160V32c0-6.6-5.4-12-12-12H32c-6.6 0-12 5.4-12 12v128c0 6.6 5.4 12 12 12h128c6.6 0 12-5.4 12-12z" opacity=".4"/><path fill="none" d="M0 0v192h192V0H0z"/><path fill="#DFDFDF" d="M160 20c6.6 0 12 5.4 12 12v128c0 6.6-5.4 12-12 12H32c-6.6 0-12-5.4-12-12V32c0-6.6 5.4-12 12-12h128m0-8H32c-11.03 0-20 8.97-20 20v128c0 11.03 8.97 20 20 20h128c11.03 0 20-8.97 20-20V32c0-11.03-8.97-20-20-20z"/><path fill="#FFF" fill-opacity=".2" d="M160 20H32c-6.6 0-12 5.4-12 12v1c0-6.6 5.4-12 12-12h128c6.6 0 12 5.4 12 12v-1c0-6.6-5.4-12-12-12z"/><path fill="#212121" fill-opacity=".1" d="M160 172H32c-6.6 0-12-5.4-12-12v-1c0 6.6 5.4 12 12 12h128c6.6 0 12-5.4 12-12v1c0 6.6-5.4 12-12 12z"/><radialGradient id="a" cx="23.768" cy="23.933" r="204.625" gradientUnits="userSpaceOnUse"><stop offset="0" stop-color="#fff" stop-opacity=".1"/><stop offset="1" stop-color="#fff" stop-opacity="0"/></radialGradient><path fill="url(#a)" d="M160 172H32c-6.6 0-12-5.4-12-12V32c0-6.6 5.4-12 12-12h128c6.6 0 12 5.4 12 12v128c0 6.6-5.4 12-12 12z"/></svg>