<svg xmlns="http://www.w3.org/2000/svg" width="192" height="192"><path fill="#1EB53A" d="M172 160V32c0-6.6-5.4-12-12-12H32c-6.6 0-12 5.4-12 12v128c0 6.6 5.4 12 12 12h128c6.6 0 12-5.4 12-12z"/><path fill="#0099B5" d="M160 20H32c-6.6 0-12 5.4-12 12v64h152V32c0-6.6-5.4-12-12-12z"/><path fill="#CE1126" d="M20 69h152v54H20z"/><path fill="#FFF" d="M20 72h152v48H20zM38.08 44.32c0 9.04 6.57 16.54 15.2 17.98-.99.17-2 .26-3.04.26C40.17 62.56 32 54.39 32 44.32s8.17-18.24 18.24-18.24c1.04 0 2.05.09 3.04.26-8.63 1.44-15.2 8.94-15.2 17.98zm53.11 13.46l-.82-2.52-.82 2.52H86.9l2.14 1.56-.82 2.52 2.14-1.56 2.14 1.56-.82-2.52 2.14-1.56h-2.63zm-.82-17.11l-.82 2.52H86.9l2.14 1.56-.82 2.52 2.14-1.56 2.14 1.56-.82-2.52 2.14-1.56h-2.65l-.8-2.52zm0-14.59l-.82 2.52H86.9l2.14 1.56-.82 2.52 2.14-1.56 2.14 1.56-.82-2.52 2.14-1.56h-2.65l-.8-2.52zm15.41 31.7l-.82-2.52-.82 2.52h-2.65l2.14 1.56-.82 2.52 2.14-1.56 2.14 1.56-.82-2.52 2.14-1.56h-2.63zm-2.15-13.03l-.82 2.52 2.14-1.56 2.14 1.56-.82-2.52 2.14-1.56h-2.65l-.82-2.52-.82 2.52h-2.65l2.16 1.56z"/><path fill="none" d="M172 160V32c0-6.6-5.4-12-12-12H32c-6.6 0-12 5.4-12 12v128c0 6.6 5.4 12 12 12h128c6.6 0 12-5.4 12-12z" opacity=".4"/><path fill="none" d="M0 0v192h192V0H0z"/><path fill="#DFDFDF" d="M160 20c6.6 0 12 5.4 12 12v128c0 6.6-5.4 12-12 12H32c-6.6 0-12-5.4-12-12V32c0-6.6 5.4-12 12-12h128m0-8H32c-11.03 0-20 8.97-20 20v128c0 11.03 8.97 20 20 20h128c11.03 0 20-8.97 20-20V32c0-11.03-8.97-20-20-20z"/><path fill="#FFF" fill-opacity=".2" d="M160 20H32c-6.6 0-12 5.4-12 12v1c0-6.6 5.4-12 12-12h128c6.6 0 12 5.4 12 12v-1c0-6.6-5.4-12-12-12z"/><path fill="#212121" fill-opacity=".1" d="M160 172H32c-6.6 0-12-5.4-12-12v-1c0 6.6 5.4 12 12 12h128c6.6 0 12-5.4 12-12v1c0 6.6-5.4 12-12 12z"/><radialGradient id="a" cx="23.768" cy="23.933" r="204.625" gradientUnits="userSpaceOnUse"><stop offset="0" stop-color="#fff" stop-opacity=".1"/><stop offset="1" stop-color="#fff" stop-opacity="0"/></radialGradient><path fill="url(#a)" d="M160 172H32c-6.6 0-12-5.4-12-12V32c0-6.6 5.4-12 12-12h128c6.6 0 12 5.4 12 12v128c0 6.6-5.4 12-12 12z"/></svg>