<svg xmlns="http://www.w3.org/2000/svg" width="192" height="192"><path fill="#CF142B" d="M172 160V32c0-6.6-5.4-12-12-12H32c-6.6 0-12 5.4-12 12v128c0 6.6 5.4 12 12 12h128c6.6 0 12-5.4 12-12z"/><path fill="#00247D" d="M160 20H32c-6.6 0-12 5.4-12 12v89h152V32c0-6.6-5.4-12-12-12z"/><path fill="#FC0" d="M160 20H32c-6.6 0-12 5.4-12 12v39h152V32c0-6.6-5.4-12-12-12z"/><path fill="#FFF" d="M110.19 80.61l-4.14 2.02.64 4.56-3.2-3.31-4.14 2.02 2.16-4.06-3.2-3.31 4.53.8 2.16-4.06.64 4.56 4.55.78zm10.23 8.1l4.58-.48-3.98-2.3.96-4.5-3.42 3.08-3.98-2.3 1.87 4.2-3.42 3.08 4.58-.48 1.87 4.2.94-4.5zm11.42 10.62l4.46 1.11-2.96-3.52 2.44-3.9-4.27 1.72-2.96-3.52.32 4.59-4.27 1.72 4.46 1.11.32 4.59 2.46-3.9zm9.34 12.14l3.63-2.83-4.6.16-1.57-4.32-1.27 4.42-4.6.16 3.81 2.57-1.27 4.42 3.63-2.83 3.81 2.57-1.57-4.32zM86.33 79.81l.64-4.56 2.16 4.06 4.53-.8-3.2 3.31 2.16 4.06-4.14-2.02-3.2 3.31.64-4.56-4.14-2.02 4.55-.78zm-13.81 13.4l1.87-4.2 4.58.48-3.42-3.08 1.87-4.2-3.98 2.3-3.42-3.08.96 4.5-3.98 2.3 4.58.48.94 4.5zm-9.94 10.02l.32-4.59 4.46-1.11-4.27-1.72.32-4.59-2.96 3.52-4.27-1.72 2.44 3.9-2.96 3.52 4.46-1.11 2.46 3.9zm-13.35 12.56l3.81-2.57 3.63 2.83-1.27-4.42 3.81-2.57-4.6-.16-1.27-4.42-1.57 4.32-4.6-.16 3.63 2.83-1.57 4.32z"/><path fill="none" d="M172 160V32c0-6.6-5.4-12-12-12H32c-6.6 0-12 5.4-12 12v128c0 6.6 5.4 12 12 12h128c6.6 0 12-5.4 12-12z" opacity=".4"/><path fill="none" d="M0 0v192h192V0H0z"/><path fill="#DFDFDF" d="M160 20c6.6 0 12 5.4 12 12v128c0 6.6-5.4 12-12 12H32c-6.6 0-12-5.4-12-12V32c0-6.6 5.4-12 12-12h128m0-8H32c-11.03 0-20 8.97-20 20v128c0 11.03 8.97 20 20 20h128c11.03 0 20-8.97 20-20V32c0-11.03-8.97-20-20-20z"/><path fill="#FFF" fill-opacity=".2" d="M160 20H32c-6.6 0-12 5.4-12 12v1c0-6.6 5.4-12 12-12h128c6.6 0 12 5.4 12 12v-1c0-6.6-5.4-12-12-12z"/><path fill="#212121" fill-opacity=".1" d="M160 172H32c-6.6 0-12-5.4-12-12v-1c0 6.6 5.4 12 12 12h128c6.6 0 12-5.4 12-12v1c0 6.6-5.4 12-12 12z"/><radialGradient id="a" cx="23.768" cy="23.933" r="204.625" gradientUnits="userSpaceOnUse"><stop offset="0" stop-color="#fff" stop-opacity=".1"/><stop offset="1" stop-color="#fff" stop-opacity="0"/></radialGradient><path fill="url(#a)" d="M160 172H32c-6.6 0-12-5.4-12-12V32c0-6.6 5.4-12 12-12h128c6.6 0 12 5.4 12 12v128c0 6.6-5.4 12-12 12z"/></svg>