<?xml version="1.0" encoding="utf-8"?>
<!-- Generator: Adobe Illustrator 23.0.3, SVG Export Plug-In . SVG Version: 6.00 Build 0)  -->
<svg version="1.1" id="Layer_1" xmlns="http://www.w3.org/2000/svg" xmlns:xlink="http://www.w3.org/1999/xlink" x="0px" y="0px"
	 viewBox="0 0 192 192" style="enable-background:new 0 0 192 192;" xml:space="preserve">
<style type="text/css">
	.st0{fill:#FFFFFF;}
	.st1{fill:#CF142B;}
	.st2{fill:none;}
	.st3{fill:#DFDFDF;}
	.st4{fill:#FFFFFF;fill-opacity:0.2;}
	.st5{fill:#212121;fill-opacity:0.1;}
	.st6{fill:#369443;}
	.st7{fill:#010002;}
	.st8{fill:#F4C53D;}
	.st9{fill:#0081C6;}
	.st10{fill:#A60032;}
	.st11{fill:#162667;}
</style>
<path class="st0" d="M160,20H32c-6.6,0-12,5.4-12,12v36h152V32C172,25.4,166.6,20,160,20z"/>
<path class="st1" d="M160,20H32c-6.6,0-12,5.4-12,12v92v36c0,6.6,5.4,12,12,12h128c6.6,0,12-5.4,12-12v-36V32
	C172,25.4,166.6,20,160,20z"/>
<g>
	<path class="st2" d="M172,160V32c0-6.6-5.4-12-12-12H32c-6.6,0-12,5.4-12,12v128c0,6.6,5.4,12,12,12h128
		C166.6,172,172,166.6,172,160z"/>
	<path class="st2" d="M0,0v192h192V0H0z"/>
	<path class="st3" d="M160,20c6.6,0,12,5.4,12,12v128c0,6.6-5.4,12-12,12H32c-6.6,0-12-5.4-12-12V32c0-6.6,5.4-12,12-12H160 M160,12
		H32c-11,0-20,9-20,20v128c0,11,9,20,20,20h128c11,0,20-9,20-20V32C180,21,171,12,160,12z"/>
	<path class="st4" d="M160,20H32c-6.6,0-12,5.4-12,12v1c0-6.6,5.4-12,12-12h128c6.6,0,12,5.4,12,12v-1C172,25.4,166.6,20,160,20z"/>
	<path class="st5" d="M160,172H32c-6.6,0-12-5.4-12-12v-1c0,6.6,5.4,12,12,12h128c6.6,0,12-5.4,12-12v1C172,166.6,166.6,172,160,172
		z"/>
	<path class="st0" d="M160,172H32c-6.6,0-12-5.4-12-12V32c0-6.6,5.4-12,12-12h128c6.6,0,12,5.4,12,12v128
		C172,166.6,166.6,172,160,172z"/>
</g>
<g>
	<g>
		<g>
			<g>
				<path class="st6" d="M67,114.2c0,0-0.1-0.9,1.5-1.5c1.7-0.6,1.8-3.1,1.5-4.7c0,0-0.9,1.5-1.9,2c0,0-1.7,0.9-1.8,2.6
					c0,0,0,0.6-0.1,1.1c-0.1,0.3-0.8-2.2,0.6-4c1.5-1.9,1.9-3.4,0.7-6.3c0,0-0.1,1.8-1.3,2.8c-1.2,1-1.3,1.1-1.3,3.5
					c0,0,0,0.8-0.4,1.1c0,0-0.9-1.3-1.2-2.2c-0.2-0.9-0.4-1.3,0.7-2.3c0,0,3.3-2.2,0.9-6.9c0,0-0.1,1.6-1.2,2.6
					c-1.2,1-1.1,1.6-1.1,3.3c-0.1,1.7-0.2,1.5-0.3,1.8c0,0-2.1-3.9-0.5-6s2.5-2.5,0.7-6.4c0,0,0.1,2-1.4,3c-1.4,1-1.1,3.3-1.1,3.3
					s0.1,0.9-0.2,1.5c0,0-2-4-0.1-6.1c1.7-1.8,1.8-3.1,0.9-5.7c0,0-0.1,1.2-1,1.8c-0.9,0.6-1.6,1.3-1.5,3.8c0,0,0.1,1.7-0.1,2.2
					c0,0-0.9-1.6-1.1-2.6s-0.3-1.6,0.3-2.7c0.6-1,3.1-4,0.1-8.3c0,0-0.1,1.4-0.9,2.6c-0.8,1.3-0.4,2.7-0.2,3.9
					c0.2,1.1-0.4,2.2-0.4,2.2s-1.3-2.4-1-5.1c0.3-2.7-0.8-5-3.4-6.6c0,0-1.8,4.3,0.7,6.4c0,0,2.1,2.1,2.7,4.7c0,0-1.6-0.2-3.1-3
					c-1.5-2.9-4.5-2.4-4.7-2.4c0,0,0.5,4.4,5.2,5.7c0,0,3,0.5,3.6,2.7c0,0,0.5,1.5,0.7,2.3c0,0-0.9-0.4-1.8-1.7
					c-0.9-1.3-0.8-1.4-3.7-1.7c0,0-1.2-0.1-1.8-1c0,0,1.2,4.7,4.4,4.6c0,0,2.9-0.3,4.6,3.5c0,0-0.3-0.2-0.7-0.5
					c-0.4-0.3-1.5-0.8-3.6-0.6c-2.1,0.3-2.7-0.1-3.3-0.3c0,0,2.2,4,5.2,2.8c3-1.2,4.5,3.1,4.6,3.2c0,0-0.4-0.3-0.9-0.8
					c-0.5-0.5-1.7-1.2-3.8-0.5c0,0-1.5,0.6-3.1,0.1c0,0,1.5,2.9,5,2.4c3.5-0.5,4.4,2.6,4.4,2.6s-0.5-0.3-0.8-0.5
					c-0.3-0.3-1.5-0.9-4-0.2c-2.5,0.7-3.4-0.1-3.4-0.1s1.4,2.5,4.1,2.8c0,0,1.5,0,2.1-0.3c0.6-0.2,2.3-0.6,3.5,1.1
					c0,0-0.3,0.1-0.8-0.2c0,0-1.8-0.6-3.1,0.5c0,0-1.2,1.2-2.9,1c0,0,2.2,2.2,5.7,0.3c0,0,1.2-0.9,2.1-0.2
					C64.9,115.6,67,114.2,67,114.2L67,114.2z"/>
				<path class="st7" d="M59.2,116c-1.9,0-3.1-1.1-3.1-1.1l-0.4-0.4l0.6,0.1c1.6,0.2,2.7-0.9,2.8-0.9l0,0c1.4-1.2,3.3-0.6,3.3-0.5
					l0,0c0.1,0.1,0.2,0.1,0.3,0.1c-1.1-1.2-2.5-0.8-3-0.7c-0.7,0.2-2.1,0.3-2.2,0.3l0,0l0,0c-2.7-0.3-4.2-2.8-4.2-2.9l-0.6-1.1
					l0.9,0.8c0,0,0.9,0.8,3.2,0.1c2.7-0.8,3.9,0,4.2,0.2c0.1,0.1,0.2,0.1,0.3,0.2c-0.4-0.8-1.5-2.2-3.9-1.9
					c-3.6,0.5-5.1-2.5-5.2-2.5l-0.2-0.4l0.4,0.1c1.5,0.4,2.9-0.1,2.9-0.1c2.1-0.7,3.3-0.1,4,0.6c0.1,0.1,0.2,0.2,0.3,0.3
					c-0.4-0.8-1.1-1.9-2.1-2.3c-0.6-0.3-1.2-0.3-1.9,0c-0.4,0.2-0.8,0.2-1.2,0.2c-2.5,0-4.2-3.1-4.2-3.1l-0.2-0.4l0.5,0.1
					c0.1,0,0.1,0,0.2,0.1c0.5,0.2,1.1,0.4,3,0.2c2.1-0.3,3.3,0.3,3.8,0.6c0.1,0,0.1,0.1,0.2,0.1c-1.6-3-4-2.8-4.1-2.8l0,0
					c0,0,0,0,0,0c-3.3,0-4.5-4.6-4.6-4.8l-0.3-0.9l0.6,0.8c0.6,0.8,1.7,0.9,1.7,0.9c2.7,0.3,2.9,0.4,3.7,1.6
					c0.1,0.1,0.1,0.2,0.2,0.3c0.5,0.7,1,1.2,1.4,1.4c-0.2-0.8-0.6-1.9-0.6-1.9l0,0c-0.5-2.1-3.4-2.6-3.4-2.6l0,0
					c-4.8-1.3-5.3-5.8-5.3-5.8l0-0.2l0.2,0c0,0,0,0,0.1,0c2.8-0.1,4.1,1.3,4.8,2.5c1,2,2.2,2.7,2.7,2.8c-0.6-2.3-2.5-4.3-2.6-4.3
					c-2.6-2.2-0.8-6.5-0.7-6.7l0.1-0.2l0.2,0.1c2.6,1.7,3.7,3.9,3.5,6.8c-0.2,2,0.5,3.9,0.8,4.6c0.1-0.4,0.3-1.1,0.2-1.7
					c0-0.1,0-0.2-0.1-0.4c-0.2-1.1-0.4-2.5,0.3-3.6c0.7-1.2,0.8-2.5,0.8-2.6l0-0.5l0.3,0.4c2.8,4,0.9,7,0.1,8.2
					c-0.1,0.1-0.1,0.2-0.2,0.3c-0.6,1-0.5,1.5-0.3,2.5c0.2,0.7,0.6,1.6,0.8,2.1c0.1-0.5,0-1.3,0-1.7c-0.2-2.5,0.6-3.2,1.5-3.9
					c0.8-0.6,0.9-1.7,0.9-1.7l0.1-0.9l0.3,0.8c0.9,2.7,0.7,4-0.9,5.9c-1.5,1.6-0.5,4.4-0.1,5.5c0.1-0.5,0-0.9,0-0.9
					c0-0.1-0.3-2.4,1.2-3.4c1.3-0.9,1.3-2.8,1.3-2.8l0-0.9l0.4,0.9c1.7,3.6,1.1,4.3-0.3,6c-0.1,0.2-0.3,0.4-0.5,0.6
					c-1.3,1.6-0.1,4.5,0.3,5.4c0-0.2,0.1-0.6,0.1-1.4c0-0.1,0-0.3,0-0.4c0-1.4,0.1-2.1,1.2-3c1.1-0.9,1.2-2.4,1.2-2.4l0-0.7l0.3,0.6
					c2.4,4.6-0.7,6.9-1,7.1c-0.9,0.9-0.9,1.2-0.6,2.1l0,0c0.2,0.7,0.8,1.6,1,2c0.2-0.2,0.2-0.7,0.2-0.8c0-2.4,0.1-2.6,1.3-3.6
					l0.1-0.1c1.1-1,1.2-2.7,1.2-2.7l0.1-0.8l0.3,0.8c1.3,3.1,0.7,4.7-0.8,6.5c-0.8,1-0.9,2.2-0.8,3c0-0.1,0-0.2,0-0.2
					c0.1-1.8,1.8-2.7,1.9-2.8c1-0.5,1.8-1.9,1.9-2l0.2-0.4l0.1,0.5c0.3,1.5,0.3,4.1-1.6,4.9c-1.5,0.6-1.4,1.3-1.4,1.3l0,0.1
					l-0.1,0.1c-0.2,0.1-2.2,1.4-3.1,0.6c-0.8-0.6-1.8,0.2-1.8,0.2l0,0C61,115.8,60.1,116,59.2,116z M56.9,115c0.8,0.5,2.6,1.2,5,0
					c0.1-0.1,1.3-0.9,2.3-0.2c0.6,0.5,2-0.2,2.6-0.6c0-0.3,0.2-1,1.7-1.6c1.3-0.5,1.7-2.3,1.4-4c-0.3,0.5-1,1.3-1.7,1.7
					c0,0-1.6,0.9-1.7,2.5c0,0,0,0.7-0.2,1.2c0,0.1-0.1,0.2-0.2,0.2c-0.1,0-0.2,0-0.2-0.1c-0.2-0.4-0.6-2.5,0.7-4.1
					c1.3-1.6,1.8-2.9,0.9-5.5c-0.1,0.6-0.5,1.6-1.2,2.2l-0.1,0.1c-1.1,0.9-1.2,1-1.2,3.3c0,0.1,0,1-0.5,1.3l-0.2,0.1l-0.1-0.1
					c0-0.1-0.9-1.4-1.2-2.3l0,0c-0.3-1-0.3-1.4,0.7-2.4l0,0c0.1-0.1,2.9-2,1.1-6.1c-0.1,0.6-0.5,1.5-1.2,2.1c-1,0.8-1,1.4-1,2.7
					c0,0.1,0,0.3,0,0.4c0,1.4-0.1,1.6-0.3,1.8c0,0,0,0,0,0.1l-0.2,0.3l-0.2-0.3c-0.1-0.2-2.2-4-0.5-6.2c0.2-0.2,0.3-0.4,0.5-0.6
					c1.2-1.5,1.7-2.1,0.5-4.9c-0.1,0.7-0.4,1.7-1.4,2.4c-1.3,0.9-1,3.1-1,3.1c0,0,0.1,0.9-0.2,1.6l-0.2,0.3l-0.2-0.3
					c-0.1-0.2-2.1-4.1-0.1-6.3c1.4-1.6,1.7-2.7,1-4.9c-0.1,0.4-0.4,0.9-0.9,1.3c-0.9,0.7-1.5,1.3-1.4,3.6c0,0.2,0.1,1.8-0.2,2.3
					L58,99.1l-0.2-0.3c0-0.1-0.9-1.6-1.1-2.7c-0.2-1.1-0.4-1.7,0.3-2.8c0.1-0.1,0.1-0.2,0.2-0.3c0.8-1.2,2.5-3.8,0.2-7.4
					c-0.1,0.5-0.3,1.4-0.8,2.2c-0.6,1.1-0.4,2.3-0.3,3.4c0,0.1,0,0.3,0.1,0.4c0.2,1.2-0.4,2.3-0.4,2.3l-0.2,0.3L55.6,94
					c-0.1-0.1-1.3-2.5-1-5.2c0.3-2.6-0.8-4.7-3.1-6.3c-0.3,0.9-1.4,4.2,0.7,6c0.1,0.1,2.2,2.2,2.7,4.8l0.1,0.3l-0.3,0
					c-0.1,0-1.7-0.2-3.2-3.1c-0.6-1.1-1.8-2.4-4.3-2.3c0.2,0.9,1.1,4.3,5,5.3c0.2,0,3.1,0.6,3.7,2.8c0,0.1,0.5,1.5,0.7,2.3l0.1,0.4
					l-0.3-0.1c0,0-1-0.4-1.9-1.7c-0.1-0.1-0.1-0.2-0.2-0.3c-0.7-1-0.8-1.1-3.4-1.4c0,0-0.8-0.1-1.4-0.5c0.5,1.3,1.7,3.8,4,3.8
					c0,0,0,0,0,0c0.2,0,3.1-0.2,4.7,3.6l0.2,0.5l-0.5-0.3c0,0-0.3-0.2-0.8-0.5c-0.5-0.3-1.5-0.8-3.5-0.6c-1.6,0.2-2.3,0.1-2.8-0.1
					c0.7,1,2.4,3.1,4.7,2.2c0.8-0.3,1.5-0.3,2.2,0c1.5,0.7,2.4,2.7,2.6,3.3l0,0l0.2,0.6L60,107c0,0-0.4-0.3-1-0.9
					c-0.6-0.6-1.6-1.1-3.6-0.5c0,0-1.3,0.5-2.7,0.2c0.5,0.7,2,2.3,4.5,1.9c3.6-0.5,4.5,2.7,4.6,2.7L62,111l-0.4-0.2
					c0,0-0.5-0.3-0.8-0.5c-0.2-0.2-1.3-0.9-3.8-0.1c-1.4,0.4-2.4,0.3-2.9,0.2c0.6,0.7,1.8,2,3.5,2.2c0.1,0,1.5,0,2-0.2
					c0.5-0.2,2.4-0.7,3.7,1.1l0.2,0.2l-0.3,0.1c0,0-0.4,0.1-0.9-0.2c-0.1,0-1.7-0.6-2.9,0.5C59.2,114,58.3,114.9,56.9,115z"/>
			</g>
			<g>
				<path class="st8" d="M86.5,61.2c0,0-0.4-3.6,2.5-4c3-0.4,4.5,0.3,4.5,0.3l1.4,2.7l-0.5,1.8l-1.9,0.9c0,0,0.3-2.8-2.2-2.8
					c-0.6,0-1,0.2-2,0.1C87.3,59.9,86.7,61,86.5,61.2L86.5,61.2z"/>
				<path class="st7" d="M92.3,63.1l0-0.3c0,0,0.1-1.2-0.5-2c-0.3-0.4-0.8-0.6-1.5-0.6c-0.2,0-0.4,0-0.6,0.1c-0.4,0.1-0.8,0.1-1.4,0
					c-0.7-0.1-1.1,0.5-1.4,0.8c-0.1,0.1-0.2,0.2-0.2,0.3l-0.3,0.2l0-0.3c0,0-0.4-3.8,2.7-4.2c3.1-0.4,4.6,0.3,4.6,0.3l0.1,0l1.4,2.8
					l-0.5,2L92.3,63.1z M90.3,59.8C90.3,59.8,90.3,59.8,90.3,59.8c0.8,0,1.4,0.3,1.8,0.7c0.6,0.6,0.6,1.5,0.6,2l1.5-0.7l0.4-1.6
					l-1.3-2.5c-0.3-0.1-1.8-0.6-4.4-0.2c-2.1,0.3-2.4,2.4-2.4,3.3c0.3-0.4,0.9-1,1.7-0.8c0.6,0.1,1,0,1.3,0
					C89.9,59.8,90.1,59.8,90.3,59.8z"/>
			</g>
			<g>
				<path class="st8" d="M107,70.2c-0.4,0.6-2.2,0.8-2.2,0.8s1.8,1.4,2.6,3.3c0.8,2-20.7,0-20.7,0s0.9-0.7,1.6-1.9
					c0,0-0.9,0.4-1.9-0.6c0,0,0.7,0.2,1.6-1.2c0,0,1.4-1.8,2.3-2.2c0,0-0.4,0.3-1.5-0.3c0,0,1.9-0.2,2.5-3.4c0,0,0.1-0.7,0.8-1.7
					c0.7-1,0.6,0.2,1.9-1.4c0,0,0.6-1.1,0.1-1.8s-1.1-0.4-2.2-1.1c-1.1-0.7-1.6-1-1.2-2c0.4-1,1.3-0.8,1.5-0.8
					c0.1,0,0.2-0.9,1.4-1.5c1.2-0.6,4.4-0.3,4.8-0.1c0.5,0.3,2.4,0.8,3.5,3.6c1.1,2.8-0.3,3.9,2.7,8.1c0,0-1.2,0.3-2,0
					C102.7,66.1,104.2,68.9,107,70.2L107,70.2z"/>
				<path class="st7" d="M102.3,75.4c-1.4,0-3.3,0-5.7-0.2c-5-0.2-9.9-0.7-9.9-0.7l-0.5,0l0.4-0.3c0,0,0.7-0.5,1.3-1.5
					c-0.4,0-1-0.1-1.7-0.7l-0.6-0.6l0.8,0.3c0,0,0.6,0.1,1.4-1.1l0,0c0-0.1,0.9-1.2,1.8-1.9c-0.2,0-0.6-0.2-0.9-0.4L88.2,68l0.6-0.1
					c0.1,0,1.7-0.3,2.4-3.3c0,0,0.1-0.8,0.8-1.8c0.3-0.5,0.5-0.5,0.8-0.6c0.2,0,0.4,0,1.1-0.8c0.1-0.1,0.5-1,0.1-1.6
					c-0.3-0.3-0.5-0.4-0.9-0.5c-0.3-0.1-0.7-0.2-1.2-0.5c-1.1-0.6-1.7-1.1-1.3-2.3c0.2-0.5,0.6-1,1.6-1c0,0,0,0,0-0.1
					c0.1-0.3,0.4-0.9,1.4-1.4c1.2-0.6,4.5-0.4,5-0.1c0.1,0,0.1,0.1,0.2,0.1c0.7,0.3,2.4,1.1,3.4,3.6c0.4,1,0.5,1.9,0.6,2.7
					c0.1,1.4,0.3,2.8,2.2,5.4l0.2,0.2l-0.3,0.1c0,0-0.9,0.2-1.6,0.1c0.5,0.8,1.9,2.7,4,3.7l0.2,0.1l-0.1,0.2
					c-0.3,0.4-1.3,0.7-1.9,0.8c0.6,0.5,1.7,1.6,2.3,3.1c0.1,0.2,0,0.3-0.1,0.4C107.4,74.8,107,75.4,102.3,75.4z M87.2,74.2
					c1.3,0.1,5.4,0.4,9.4,0.7c9,0.4,10.4-0.1,10.6-0.4c0,0,0,0,0-0.1c-0.7-1.9-2.5-3.2-2.5-3.2l-0.4-0.3l0.5-0.1
					c0.4,0,1.4-0.2,1.9-0.5c-2.6-1.4-4.1-4-4.2-4.1l-0.2-0.4l0.4,0.1c0.5,0.2,1.2,0.1,1.6,0c-1.8-2.6-1.9-4-2.1-5.4
					c-0.1-0.8-0.1-1.6-0.5-2.6c-1-2.4-2.5-3.1-3.2-3.4c-0.1,0-0.2-0.1-0.2-0.1c-0.4-0.2-3.5-0.5-4.6,0.1c-0.8,0.4-1.1,0.9-1.2,1.2
					c-0.1,0.2-0.1,0.3-0.3,0.3c0,0,0,0-0.1,0c-0.2,0-0.9-0.1-1.2,0.7c-0.3,0.8,0,1.1,1.1,1.8c0.5,0.3,0.8,0.4,1.1,0.5
					c0.4,0.1,0.8,0.2,1.1,0.7c0.6,0.8,0,1.9-0.1,2l0,0c-0.7,0.9-1,0.9-1.4,1c-0.1,0-0.2,0-0.5,0.4c-0.7,1-0.8,1.6-0.8,1.6
					C91,67,90,67.8,89.3,68.1c0.6,0.2,0.9,0.1,0.9,0.1c0,0,0,0,0,0l0.2,0.3c0,0,0,0,0,0c-0.9,0.5-2.2,2.1-2.2,2.2
					c-0.5,0.8-1,1.1-1.3,1.2c0.7,0.5,1.3,0.3,1.4,0.3l0.4-0.2l-0.2,0.4C88,73.3,87.5,73.8,87.2,74.2z"/>
			</g>
			<path class="st7" d="M93.7,58.5c-0.8,0-1.3-0.3-1.6-0.8c-0.5-0.8-0.1-1.9-0.1-2l0.4,0.1c0,0-0.4,1,0,1.6c0.2,0.4,0.7,0.6,1.3,0.6
				L93.7,58.5z"/>
			<g>
				<path class="st8" d="M98,58.6c0,0-0.4-0.2-0.8-0.7c-0.5-0.7-1.7-1-2.3-0.4c0,0-0.6,0.7-1.2,0.7c0,0,0.6,0.2,1.1,0.6
					c0.4,0.4,0.9,0.7,1.5,0.6c0.7-0.1,0.8-0.4,1.1-0.6C97.7,58.7,98,58.6,98,58.6L98,58.6z"/>
				<path class="st7" d="M96.1,59.7c-0.6,0-1.1-0.3-1.4-0.7c-0.4-0.4-1-0.6-1-0.6l-1-0.3l1-0.1c0.4,0,0.9-0.5,1.1-0.7
					c0.3-0.3,0.7-0.4,1.1-0.4c0.6,0,1.1,0.3,1.5,0.8c0.3,0.4,0.7,0.6,0.7,0.6L98,58.6l0,0.2c0,0-0.3,0-0.5,0.2
					c-0.1,0.1-0.1,0.1-0.2,0.2c-0.2,0.2-0.4,0.4-0.9,0.5C96.3,59.7,96.2,59.7,96.1,59.7z M94.3,58.3c0.2,0.1,0.5,0.2,0.7,0.4
					c0.4,0.4,0.8,0.6,1.4,0.6c0.4-0.1,0.5-0.2,0.7-0.4c0.1-0.1,0.2-0.2,0.3-0.2c0.1-0.1,0.2-0.1,0.3-0.2c-0.2-0.1-0.3-0.3-0.5-0.5
					c-0.3-0.4-0.7-0.6-1.2-0.6c-0.2,0-0.6,0-0.8,0.3C95,57.7,94.7,58.1,94.3,58.3z"/>
			</g>
		</g>
		<g>
			<path class="st8" d="M114.1,93.8c0,0,2.3,1.9,4.2,0c0,0,0.8,0.9,2.3,0.7c1.6-0.3,1.8-1.1,2-1.6c0,0,1.4,0.8,2.5,0.2
				c1.1-0.6,1.1-1.6,1.1-1.6s2,0.4,3-1c1-1.3,0.4-2.7-0.1-2.8c0,0,2.1,0.6,2.7-1.3c0.5-1.6-0.6-2.4-0.6-2.4s4.5,0,6.4-1.4
				c0,0,1.5-1,0.6-2c0,0,4.1-0.7,5.1-2.3c0,0,0.4-0.4,0.3-1.2c0,0,0-0.4-0.5-0.5c0,0,4.6-0.7,6-2.2c0,0,0.6-0.7,0.3-1.6
				c0,0-0.1-0.2-0.2-0.4c0,0,4.2-0.9,6.3-2.8c0,0,1.2-1.1,0.6-2.5c0,0,7.1-1.9,5.4-5c0,0,3.3-1.1,2.3-4c0,0,2.7-1.4,1.5-3.6
				c-1.1-2.1-4.6,0.4-8.8,1.5c0,0-11.2,3.5-16.7,4.5l-15.7,23.3l-9.1,3.5L114.1,93.8z"/>
			<path class="st7" d="M116.4,94.9c-1.3,0-2.4-0.9-2.4-0.9l-0.1-0.1l1-6.7l9.2-3.5l15.7-23.4l0.1,0c5.4-0.9,16.6-4.4,16.7-4.5
				c1.2-0.3,2.4-0.8,3.5-1.2c2.6-1,4.6-1.8,5.5-0.2c0.3,0.6,0.4,1.2,0.2,1.8c-0.3,1-1.3,1.7-1.7,1.9c0.3,0.8,0.2,1.6-0.1,2.3
				c-0.5,1.1-1.6,1.6-2.1,1.8c0.2,0.5,0.2,1.1,0,1.6c-0.8,1.9-4.5,3.1-5.4,3.4c0.5,1.4-0.7,2.5-0.7,2.5c-1.8,1.7-5.2,2.5-6.1,2.8
				c0.1,0.1,0.1,0.2,0.1,0.2c0.4,1-0.3,1.8-0.4,1.8c-1.1,1.3-4.3,2-5.6,2.2c0.1,0.1,0.1,0.3,0.1,0.3c0.1,0.8-0.2,1.3-0.3,1.4
				c-0.9,1.4-3.9,2.1-4.9,2.3c0.1,0.2,0.2,0.5,0.1,0.7c-0.1,0.7-0.9,1.2-1,1.3c-1.6,1.2-4.9,1.4-6,1.5c0.3,0.4,0.7,1.2,0.4,2.3
				c-0.4,1.3-1.6,1.5-2.3,1.5c0.1,0.1,0.1,0.3,0.2,0.4c0.1,0.3,0.3,1.3-0.5,2.3c-0.9,1.2-2.4,1.1-3,1.1c-0.1,0.3-0.3,1-1.2,1.5
				c-1,0.5-2,0.1-2.5-0.1c-0.2,0.5-0.6,1.2-2,1.5c-1.3,0.2-2.1-0.3-2.4-0.6C117.7,94.7,117,94.9,116.4,94.9z M114.3,93.8
				c0.4,0.3,2.3,1.5,3.9-0.1l0.1-0.1l0.1,0.2c0,0,0.7,0.9,2.2,0.6c1.4-0.3,1.7-1,1.8-1.4l0.1-0.2l0.2,0.1c0,0,1.3,0.7,2.3,0.2
				c1-0.6,1-1.4,1-1.4l0-0.2l0.2,0c0,0,1.9,0.3,2.8-0.9c0.7-0.9,0.5-1.6,0.4-1.9c-0.1-0.4-0.3-0.6-0.5-0.6l0.1-0.4
				c0.1,0,2,0.5,2.5-1.2c0.4-1.4-0.5-2.1-0.6-2.2l-0.5-0.3l0.6,0c0,0,4.5,0,6.3-1.4l0,0c0,0,0.7-0.5,0.8-1c0-0.2,0-0.4-0.2-0.7
				l-0.2-0.3l0.3-0.1c0,0,4-0.7,5-2.2l0,0c0,0,0.4-0.4,0.2-1.1l0,0c0-0.1,0-0.3-0.3-0.3l0-0.4c0,0,4.6-0.7,5.9-2.2
				c0,0,0.6-0.6,0.3-1.5c0-0.1-0.1-0.3-0.2-0.4l-0.2-0.2l0.3-0.1c0,0,4.2-0.9,6.2-2.7c0,0,1.1-1,0.5-2.3l-0.1-0.2l0.2-0.1
				c0,0,4.5-1.3,5.4-3.3c0.2-0.5,0.2-1-0.1-1.5l-0.1-0.2l0.2-0.1c0,0,1.5-0.5,2.1-1.7c0.3-0.6,0.3-1.3,0.1-2.1l-0.1-0.2l0.1-0.1
				c0,0,1.3-0.7,1.7-1.8c0.2-0.5,0.1-1-0.2-1.5c-0.7-1.3-2.5-0.6-5,0.4c-1.1,0.4-2.3,0.9-3.5,1.2c-0.1,0-11.2,3.5-16.7,4.5
				l-15.7,23.3l-9.1,3.5L114.3,93.8z"/>
		</g>
		<g>
			<path class="st8" d="M114,76.7c0,0,1.5-1.1,4.1,0.2c0,0,0.9,0.6,1.6-0.1c0.6-0.6,0.6-1.6-0.2-2.2c-2-1.4-2.7-5.8,0.3-7.6
				c0,0,4.3-2.6,20.1-6.6c0,0,1.3-0.4,2-0.2c0.8,0.2,1.3,0.9,1.4,1.4c0,0,0.7,2-1.7,3.2c0,0-1.1,0.5-2.2,0.8c0,0,1.2-0.3,1.7,0.9
				c0.5,1.1-0.2,2.3-2.5,3.1c0,0-0.6,0.2-1.5,0.4c0,0,1.9,0.5,1,2.1c0,0-0.8,1.6-3.7,1.9c0,0,2.2,0.2,0.6,2.3c0,0-0.7,1.1-2.8,1.5
				c0,0,1.6,0.1,0.8,1.5c-0.8,1.4-2.7,2.2-4.6,2.4c0,0-1,0.1-1.7-0.1c0,0,1.8,0.9,0.7,2.4c0,0-0.8,1.1-2.7,1c0,0,0.5,1.7-0.9,2.3
				c-1.1,0.5-2-0.3-2-0.3s0.4,1.8-1.2,2.4c0,0-0.8,0.4-2,0c0,0-0.9,2-4.1,0.6C111.5,88.7,114,76.7,114,76.7z"/>
			<path class="st7" d="M116.8,90.8c-0.6,0-1.3-0.1-2.1-0.5c-3.3-1.5-1-13.1-0.9-13.6l0-0.1l0.1,0c0.1,0,1.6-1.2,4.3,0.2l0,0
				c0,0,0.8,0.5,1.3,0c0.3-0.2,0.4-0.6,0.4-1c0-0.4-0.2-0.7-0.5-0.9c-1.1-0.8-1.9-2.6-1.8-4.3c0.1-1.6,0.8-2.9,2.1-3.6
				c0,0,4.5-2.6,20.2-6.6c0.1,0,1.4-0.4,2.1-0.2c0.9,0.2,1.4,1,1.6,1.6c0.1,0.2,0.6,2.2-1.8,3.4c0,0-0.6,0.3-1.3,0.5
				c0.4,0.1,0.7,0.4,1,1c0.2,0.5,0.2,1,0,1.5c-0.3,0.8-1.2,1.4-2.6,1.9c0,0-0.4,0.1-1,0.3c0.3,0.2,0.6,0.4,0.8,0.8
				c0.2,0.4,0.1,0.8-0.2,1.3c-0.1,0.1-0.8,1.4-3.1,1.9c0.2,0.1,0.4,0.3,0.5,0.5c0.2,0.5,0,1.1-0.5,1.8c-0.1,0.1-0.6,1-2.2,1.4
				c0.1,0.1,0.3,0.2,0.4,0.3c0.2,0.3,0.1,0.7-0.1,1.2c-0.9,1.6-3,2.4-4.7,2.5c0,0-0.5,0-1,0c0.2,0.2,0.4,0.5,0.5,0.8
				c0.1,0.4,0,0.9-0.3,1.4c0,0-0.8,1.1-2.6,1.1c0.1,0.7,0,1.8-1.1,2.3c-0.8,0.3-1.5,0.1-1.9-0.1c0,0.6-0.1,1.7-1.4,2.2
				c-0.1,0-0.9,0.4-2,0.1C118.8,90,118.1,90.8,116.8,90.8z M114.2,76.8c-0.1,0.5-0.6,3.2-0.8,6.1c-0.3,4.1,0.2,6.5,1.5,7.1
				c3,1.3,3.9-0.5,3.9-0.5l0.1-0.2l0.2,0.1c1.1,0.4,1.8,0,1.8,0l0,0c1.4-0.6,1.1-2.1,1.1-2.2l-0.1-0.5l0.4,0.4c0,0,0.8,0.7,1.8,0.3
				c1.2-0.6,0.8-2,0.8-2.1l-0.1-0.3l0.3,0c1.8,0,2.5-0.9,2.5-0.9c0.3-0.4,0.3-0.7,0.3-1.1c-0.2-0.6-0.9-1-0.9-1l0.1-0.4
				c0.7,0.1,1.7,0.1,1.7,0.1c2-0.1,3.7-1,4.4-2.3c0.2-0.4,0.3-0.7,0.1-0.9c-0.2-0.3-0.8-0.4-0.8-0.4l0-0.4c2-0.4,2.6-1.4,2.7-1.5
				l0,0c0.4-0.6,0.6-1.1,0.5-1.4c-0.2-0.5-0.9-0.6-1-0.6l0-0.4c2.7-0.3,3.5-1.8,3.6-1.8c0.2-0.4,0.3-0.7,0.2-1c-0.2-0.6-1-0.8-1-0.8
				l-0.7-0.2l0.7-0.2c0.8-0.2,1.4-0.4,1.4-0.4c1.3-0.4,2.1-1,2.4-1.7c0.2-0.4,0.2-0.8,0-1.2c-0.5-1-1.5-0.8-1.5-0.8l-0.1-0.4
				c1.1-0.3,2.1-0.8,2.2-0.8c2.2-1.1,1.6-2.9,1.6-2.9l0,0c-0.1-0.5-0.6-1.1-1.3-1.3c-0.7-0.2-1.9,0.2-1.9,0.2
				c-15.6,4-20,6.5-20.1,6.6c-1.2,0.7-1.8,1.9-1.9,3.3c-0.1,1.6,0.6,3.2,1.6,3.9c0.4,0.3,0.6,0.7,0.7,1.2c0,0.5-0.2,0.9-0.5,1.3
				c-0.6,0.6-1.4,0.3-1.8,0.1C115.8,75.9,114.4,76.6,114.2,76.8z"/>
		</g>
		<path class="st7" d="M142.9,64.1l-0.1-0.4c15.6-2.9,20.8-5.8,20.8-5.9l0.2,0.3C163.9,58.2,158.6,61.2,142.9,64.1z"/>
		<g>
			<path class="st8" d="M73.1,110.1c0,0-1.9,3.2-4.2,3.3c0,0-3.9-0.5-5,0.5c-0.8,0.7-1.6,1.3-1.9,3.1c-0.3,1.8,0.6,2.2,0.8,2.3
				c0,0,0.2,1.3,1.5,1c0,0,0.1,1.4,2.4,0.7c2.3-0.7,3.2-0.4,3.7-2.7c0.4-2.3,0.9-2.2,1.3-2.5c0.5-0.4,1.6-0.7,2.3-1.1
				c0.7-0.4,3.3-1.7,4.2-1.8c0.9-0.1,0.7-3.1,0.7-3.1h-2.3l-1.1-1.6L73.1,110.1z"/>
			<path class="st7" d="M65.5,121.4c-0.4,0-0.7-0.1-1-0.3c-0.3-0.2-0.4-0.4-0.4-0.6c-0.4,0.1-0.7,0-0.9-0.2
				c-0.4-0.3-0.5-0.7-0.6-0.9c-0.4-0.2-1.2-0.8-0.9-2.5c0.3-1.7,1-2.4,1.8-3.1c0.1-0.1,0.1-0.1,0.2-0.2c1.1-1.1,4.9-0.6,5.2-0.6
				c2.1-0.1,4-3.2,4-3.2l0,0l2.5-2.2l1.2,1.7H79l0,0.2c0,0.5,0.2,3.2-0.9,3.3c-0.9,0.1-3.4,1.4-4.1,1.8c-0.4,0.2-0.8,0.4-1.2,0.6
				c-0.4,0.2-0.8,0.4-1.1,0.6c-0.1,0-0.1,0.1-0.2,0.1c-0.3,0.2-0.7,0.4-1,2.3c-0.4,2-1.2,2.2-2.8,2.6c-0.3,0.1-0.7,0.2-1,0.3
				C66.3,121.3,65.9,121.4,65.5,121.4z M64.5,120.1l0,0.2c0,0,0,0.3,0.3,0.5c0.4,0.3,1,0.3,1.8,0c0.4-0.1,0.7-0.2,1.1-0.3
				c1.5-0.4,2.1-0.5,2.5-2.3c0.4-2.1,0.8-2.3,1.2-2.5c0,0,0.1-0.1,0.1-0.1c0.3-0.2,0.7-0.4,1.2-0.6c0.4-0.2,0.8-0.4,1.2-0.6
				c0.6-0.3,3.3-1.7,4.3-1.9c0.5-0.1,0.6-1.6,0.5-2.7h-2.2l-1.1-1.6l-2.1,1.8c-0.2,0.3-2,3.3-4.3,3.4l0,0l0,0
				c-1.1-0.1-4-0.3-4.9,0.5c-0.1,0.1-0.1,0.1-0.2,0.2c-0.7,0.6-1.4,1.2-1.6,2.9c-0.3,1.6,0.4,2,0.7,2.1l0.1,0l0,0.1
				c0,0,0.1,0.5,0.4,0.7c0.2,0.1,0.5,0.2,0.8,0.1L64.5,120.1z"/>
		</g>
		<g>
			<path class="st7" d="M141.4,67.3l0-0.4c6.3-0.5,20-5,20.1-5l0.1,0.4C161.5,62.3,147.8,66.8,141.4,67.3z"/>
			<path class="st7" d="M138.7,71.5l-0.1-0.4c9.3-1.6,17.4-4.1,17.5-4.1l0.1,0.4C156.1,67.3,148,69.9,138.7,71.5z"/>
			<path class="st7" d="M135.8,75.2l0-0.4c4.3-0.4,13.3-2.5,13.4-2.5l0.1,0.4C149.2,72.6,140.1,74.8,135.8,75.2z"/>
		</g>
		<g>
			<path class="st7" d="M133.5,78.7l0-0.4c1.9-0.2,9.6-1.8,9.6-1.8l0.1,0.4C142.9,77,135.4,78.5,133.5,78.7z"/>
			<g>
				<path class="st9" d="M132.7,99.4l-3.6,15.5l-1.5-1.1l3.5-14.9l-2.4,0l5.8-10.6l0.4,12.2L132.7,99.4z"/>
				<path class="st7" d="M129.2,115.3l-1.8-1.3l3.5-14.8l-2.5,0l6.3-11.5L135,101l-2.2-1.3L129.2,115.3z M127.8,113.8l1.2,0.8
					l3.6-15.5l2.1,1.2l-0.4-11.2l-5.3,9.7l2.4,0L127.8,113.8z"/>
			</g>
			<g>
				<path class="st7" d="M130.5,81.7c-0.1,0-0.1,0-0.2,0l0-0.4c2.2,0,7.8-0.8,7.8-0.8l0.1,0.4C138,80.9,132.9,81.7,130.5,81.7z"/>
				<path class="st7" d="M131.2,84.3c-0.1,0-2.3-0.1-3.4-0.3l0.1-0.4c1.1,0.2,3.3,0.3,3.3,0.3L131.2,84.3z"/>
				<path class="st7" d="M129.1,87.9c-0.1,0-2-0.5-3.1-1.3l0.2-0.3c1.1,0.7,3,1.2,3,1.2L129.1,87.9z"/>
				<path class="st7" d="M126.2,91.7c-0.1,0-1.6-0.6-2.3-2.2l0.3-0.2c0.7,1.5,2.1,2,2.1,2L126.2,91.7z"/>
				<path class="st7" d="M122.5,93.1c0,0-1.2-1.1-1.3-2.3l0.4,0c0.1,1.1,1.2,2,1.2,2.1L122.5,93.1z"/>
			</g>
			<g>
				<path class="st9" d="M142,102.7l-10.8,12.8l-1.2-1.3l10.8-12.6l-2.2-1.2l9.8-6.5l-5.1,11L142,102.7z"/>
				<path class="st7" d="M131.2,115.7l-1.4-1.6l10.7-12.5l-2.2-1.2l10.7-7l-5.5,11.9l-1.4-2.3L131.2,115.7z M130.3,114.1l0.9,1
					l10.8-12.8l1.3,2.1l4.7-10.1l-9,6l2.1,1.1L130.3,114.1z"/>
			</g>
			<path class="st7" d="M118.5,94l-0.1-0.1l-0.1-0.1c0,0,0.3-0.4,0.1-1.8l0.4-0.1C119,93.5,118.5,93.9,118.5,94z"/>
			<g>
				<path class="st9" d="M139.4,95.9l-9.7,18.6l-1.5-0.9l9.7-18.5l-2.4-0.6l8.2-8.7l-2.6,11.9L139.4,95.9z"/>
				<path class="st7" d="M129.8,114.8l-1.8-1.1l0.1-0.2l9.6-18.3l-2.4-0.6l8.9-9.4l-2.9,12.9l-1.8-1.9L129.8,114.8z M128.5,113.6
					l1.2,0.7l9.7-18.6l1.7,1.7l2.4-10.9l-7.5,7.9l2.3,0.6L128.5,113.6z"/>
			</g>
			<path class="st7" d="M119.1,89.6l-0.3-0.2c0,0,0.2-0.4,0.1-1.1l0.4,0C119.3,89,119.1,89.5,119.1,89.6z"/>
		</g>
		<g>
			<path class="st8" d="M80.3,93.8c0,0-2.3,1.9-4.2,0c0,0-0.8,0.9-2.3,0.7c-1.6-0.3-1.8-1.1-2-1.6c0,0-1.4,0.8-2.5,0.2
				c-1.1-0.6-1.1-1.6-1.1-1.6s-2,0.4-3-1s-0.4-2.7,0.1-2.8c0,0-2.1,0.6-2.7-1.3c-0.5-1.6,0.6-2.4,0.6-2.4s-4.5,0-6.4-1.4
				c0,0-1.5-1-0.6-2c0,0-4.1-0.7-5.1-2.3c0,0-0.4-0.4-0.3-1.2c0,0,0-0.4,0.5-0.5c0,0-4.6-0.7-6-2.2c0,0-0.6-0.7-0.3-1.6
				c0,0,0.1-0.2,0.2-0.4c0,0-4.2-0.9-6.3-2.8c0,0-1.2-1.1-0.6-2.5c0,0-7.1-1.9-5.4-5c0,0-3.3-1.1-2.3-4c0,0-2.7-1.4-1.5-3.6
				c1.1-2.1,4.6,0.4,8.8,1.5c0,0,11.2,3.5,16.7,4.5l15.7,23.3l9.1,3.5L80.3,93.8z"/>
			<path class="st7" d="M78,94.9c-0.6,0-1.3-0.2-1.9-0.8c-0.3,0.3-1.1,0.8-2.4,0.6c-1.5-0.3-1.9-1-2-1.5c-0.4,0.2-1.5,0.6-2.5,0.1
				c-0.9-0.5-1.1-1.2-1.2-1.5c-0.6,0.1-2.1,0.1-3-1.1c-0.8-1-0.6-1.9-0.5-2.3c0-0.1,0.1-0.3,0.2-0.4c-0.7,0-1.9-0.2-2.3-1.5
				c-0.3-1.1,0-1.9,0.4-2.3c-1.2,0-4.5-0.3-6-1.5c-0.1-0.1-0.9-0.6-1-1.3c0-0.2,0-0.5,0.1-0.7c-1-0.2-4-0.9-4.9-2.3
				c-0.1-0.1-0.5-0.6-0.3-1.4c0-0.1,0-0.2,0.1-0.3c-1.3-0.2-4.5-0.9-5.6-2.2c0,0-0.7-0.8-0.4-1.8c0,0,0-0.1,0.1-0.2
				c-0.9-0.2-4.3-1.1-6.1-2.8c0,0-1.2-1.1-0.7-2.5c-0.9-0.3-4.6-1.5-5.4-3.4c-0.2-0.5-0.2-1.1,0-1.6c-0.5-0.2-1.6-0.7-2.1-1.8
				c-0.3-0.7-0.4-1.4-0.1-2.3c-0.4-0.2-1.4-0.9-1.7-1.9c-0.2-0.6-0.1-1.2,0.2-1.8c0.9-1.6,2.9-0.8,5.5,0.2c1.1,0.4,2.3,0.9,3.5,1.2
				c0.1,0,11.3,3.5,16.7,4.5l0.1,0l15.7,23.4l9.2,3.5l1,6.7L80.4,94C80.4,94,79.3,94.9,78,94.9z M76.1,93.6l0.1,0.1
				c1.6,1.6,3.5,0.4,3.9,0.1l-0.9-6.3l-9.1-3.5l0,0L54.5,60.6c-5.5-1-16.6-4.4-16.7-4.5c-1.3-0.3-2.5-0.8-3.5-1.2
				c-2.5-1-4.3-1.7-5-0.4c-0.3,0.5-0.4,1-0.2,1.5c0.3,1.1,1.6,1.8,1.7,1.8l0.1,0.1l-0.1,0.2c-0.3,0.8-0.3,1.5,0.1,2.1
				c0.6,1.2,2.1,1.7,2.1,1.7l0.2,0.1L33,62.2c-0.3,0.5-0.3,1-0.1,1.5c0.9,2,5.3,3.3,5.4,3.3l0.2,0.1l-0.1,0.2
				c-0.6,1.3,0.5,2.3,0.5,2.3c2,1.8,6.2,2.7,6.2,2.7l0.3,0.1l-0.2,0.2c-0.1,0.1-0.1,0.3-0.2,0.4c-0.3,0.8,0.3,1.5,0.3,1.5
				c1.3,1.5,5.8,2.2,5.9,2.2l0,0.4c-0.3,0-0.3,0.2-0.3,0.3l0,0c-0.1,0.7,0.2,1,0.2,1.1l0,0c1,1.5,4.9,2.2,5,2.2l0.3,0.1l-0.2,0.3
				c-0.2,0.2-0.3,0.4-0.2,0.7c0.1,0.6,0.8,1,0.8,1l0,0c1.8,1.4,6.2,1.4,6.3,1.4l0.6,0l-0.5,0.3c0,0-1,0.8-0.6,2.2
				c0.5,1.6,2.4,1.2,2.5,1.2l0.1,0.4c-0.1,0-0.4,0.2-0.5,0.6c-0.1,0.3-0.2,1.1,0.4,1.9c0.9,1.2,2.8,0.9,2.8,0.9l0.2,0v0.2
				c0,0,0,0.8,1,1.4c1,0.6,2.3-0.2,2.3-0.2l0.2-0.1l0.1,0.2c0.1,0.4,0.4,1.2,1.8,1.4c1.4,0.3,2.2-0.6,2.2-0.6L76.1,93.6z"/>
		</g>
		<path class="st7" d="M123.5,79l-0.3-0.2c1.3-1.5,1.3-3.6,0.2-6.1c0-0.1-0.1-0.1-0.1-0.2l0-0.1c-0.3-0.8-0.8-2.2,0-3.7
			c0.9-1.5,3.5-2.5,3.6-2.6l0.1,0.4c0,0-2.6,1-3.4,2.4c-0.8,1.3-0.3,2.6,0,3.4l0,0.1c0,0,0,0.1,0.1,0.2
			C125.3,75.9,124.5,77.9,123.5,79z"/>
		<g>
			<path class="st8" d="M80.4,76.7c0,0-1.5-1.1-4.1,0.2c0,0-0.9,0.6-1.6-0.1c-0.6-0.6-0.6-1.6,0.2-2.2c2-1.4,2.7-5.8-0.3-7.6
				c0,0-4.3-2.6-20.1-6.6c0,0-1.3-0.4-2-0.2c-0.8,0.2-1.3,0.9-1.4,1.4c0,0-0.7,2,1.7,3.2c0,0,1.1,0.5,2.2,0.8c0,0-1.2-0.3-1.7,0.9
				c-0.5,1.1,0.2,2.3,2.5,3.1c0,0,0.6,0.2,1.5,0.4c0,0-1.9,0.5-1,2.1c0,0,0.8,1.6,3.7,1.9c0,0-2.2,0.2-0.6,2.3c0,0,0.7,1.1,2.8,1.5
				c0,0-1.6,0.1-0.8,1.5c0.8,1.4,2.7,2.2,4.6,2.4c0,0,1,0.1,1.7-0.1c0,0-1.8,0.9-0.7,2.4c0,0,0.8,1.1,2.7,1c0,0-0.5,1.7,0.9,2.3
				c1.1,0.5,2-0.3,2-0.3s-0.4,1.8,1.2,2.4c0,0,0.8,0.4,2,0c0,0,0.9,2,4.1,0.6C82.9,88.7,80.4,76.7,80.4,76.7z"/>
			<path class="st7" d="M77.6,90.8c-1.3,0-2-0.7-2.2-1.1c-1.1,0.3-1.9,0-2-0.1c-1.2-0.5-1.4-1.6-1.4-2.2c-0.4,0.2-1.1,0.4-1.9,0.1
				c-1.1-0.5-1.2-1.6-1.1-2.3c-1.8,0-2.6-1-2.6-1.1c-0.3-0.5-0.4-0.9-0.3-1.4c0.1-0.3,0.3-0.6,0.5-0.8c-0.5,0-1,0-1,0
				c-1.7-0.1-3.8-0.8-4.7-2.5c-0.3-0.5-0.3-0.9-0.1-1.2c0.1-0.2,0.2-0.3,0.4-0.4c-1.6-0.5-2.1-1.3-2.2-1.4c-0.5-0.7-0.7-1.3-0.5-1.8
				c0.1-0.2,0.3-0.4,0.5-0.5c-2.3-0.5-3-1.8-3.1-1.9c-0.3-0.5-0.3-0.9-0.2-1.3c0.2-0.4,0.5-0.6,0.8-0.8c-0.6-0.2-0.9-0.3-1-0.3
				c-1.3-0.5-2.2-1.1-2.6-1.9c-0.2-0.5-0.2-1,0-1.5c0.2-0.5,0.6-0.8,1-1c-0.7-0.3-1.3-0.5-1.3-0.5c-2.4-1.2-1.8-3.2-1.8-3.4
				c0.1-0.6,0.7-1.4,1.6-1.6c0.7-0.2,2.1,0.2,2.1,0.2c15.7,4,20.1,6.6,20.2,6.6c1.3,0.8,2,2.1,2.1,3.6c0.1,1.7-0.6,3.4-1.8,4.3
				c-0.3,0.2-0.5,0.6-0.5,0.9c0,0.4,0.1,0.7,0.4,1c0.6,0.5,1.3,0.1,1.3,0l0,0c2.7-1.3,4.2-0.2,4.3-0.2l0.1,0l0,0.1
				c0.1,0.5,2.5,12.2-0.9,13.6C78.9,90.6,78.2,90.8,77.6,90.8z M75.6,89.2l0.1,0.2c0,0.1,0.9,1.8,3.9,0.5c1.2-0.5,1.8-3,1.5-7.1
				c-0.2-2.9-0.7-5.6-0.8-6.1c-0.3-0.2-1.6-0.8-3.8,0.2c-0.4,0.2-1.2,0.5-1.8-0.1c-0.3-0.3-0.5-0.8-0.5-1.3c0-0.5,0.3-0.9,0.7-1.2
				c1-0.8,1.7-2.4,1.6-3.9c-0.1-1.5-0.7-2.6-1.9-3.3c0,0-4.5-2.6-20.1-6.6c0,0-1.3-0.4-1.9-0.2c-0.7,0.2-1.2,0.8-1.3,1.3l0,0
				c0,0.1-0.6,1.9,1.6,2.9c0,0,1.1,0.5,2.2,0.8l-0.1,0.4c0,0-1.1-0.2-1.5,0.8c-0.2,0.4-0.2,0.8,0,1.2c0.3,0.7,1.1,1.2,2.4,1.7
				c0,0,0.6,0.2,1.4,0.4l0.7,0.2l-0.7,0.2c0,0-0.8,0.2-1,0.8c-0.1,0.3-0.1,0.6,0.2,1l0,0c0,0,0.8,1.5,3.6,1.8l0,0.4
				c0,0-0.8,0.1-1,0.6c-0.1,0.3,0,0.8,0.5,1.4l0,0c0,0,0.7,1.1,2.7,1.5l0,0.4c-0.2,0-0.6,0.1-0.8,0.4c-0.1,0.2-0.1,0.5,0.1,0.9
				c0.7,1.3,2.4,2.1,4.4,2.3c0,0,1,0,1.7-0.1l0.1,0.4c0,0-0.8,0.4-0.9,1c-0.1,0.3,0,0.7,0.3,1.1c0,0,0.7,1,2.5,0.9l0.3,0l-0.1,0.3
				c0,0.1-0.4,1.5,0.8,2.1c1,0.4,1.8-0.2,1.8-0.3l0.4-0.4l-0.1,0.5c0,0.1-0.3,1.6,1.1,2.2l0,0c0,0,0.8,0.4,1.8,0L75.6,89.2z"/>
		</g>
		<g>
			<path class="st7" d="M126.9,81.9c0,0-0.1,0-0.9-0.3l0.1-0.4c1,0.3,1,0.3,1,0.4L126.9,81.9l0.1-0.2L126.9,81.9z"/>
			<path class="st7" d="M129.4,78.4l0-0.4c1.5,0,3-0.3,3-0.3l0.1,0.4C132.5,78.1,130.9,78.4,129.4,78.4z"/>
			<path class="st7" d="M131.4,74.5c-0.1,0-0.2,0-0.3,0l0-0.4c1.7,0,3.5-0.2,3.5-0.2l0,0.4C134.6,74.3,133,74.5,131.4,74.5z"/>
			<path class="st7" d="M133.3,70.8l0-0.4c1.4,0,4-0.5,4-0.5l0.1,0.4C137.3,70.3,134.7,70.8,133.3,70.8z"/>
			<path class="st7" d="M133.9,67.1l-0.1-0.4c2.4-0.3,5.6-1.2,5.6-1.2l0.1,0.4C139.5,65.8,136.3,66.8,133.9,67.1z"/>
			<path class="st7" d="M127,76.9l-0.2-0.3c2.2-1.8,1.1-3.5,1.1-3.5l-0.1-0.2l0.1-0.1c0.8-0.6,1.3-1.2,1.3-1.9
				c0.1-1.1-0.8-1.9-0.8-2l0.3-0.3c0,0,1,1,1,2.3c0,0.8-0.5,1.5-1.3,2.1C128.5,73.5,129,75.2,127,76.9z"/>
		</g>
		<g>
			<path class="st8" d="M80.6,95.2c0,0-0.5,2.5-4.2,5.8c0,0-2.9,2.6-2.8,5.5c0.1,3-0.5,3.3-1.7,4.4c0,0,2.4,0.2,3.5-1.4
				c0,0,0,2.6-0.4,2.8c0,0,0.7,0,1.8-1.1c0,0,0.6-0.7,1.2-0.9c0,0-0.7,1.8-0.1,3.5c0,0,0.2-0.7,1.1-0.9c0,0,1.7-0.3,2.3-2.7
				c0,0,0.4-1.6,3-3c0,0,2.9-1.1,2.9-2.6S80.6,95.2,80.6,95.2z"/>
			<path class="st7" d="M77.9,114.3l-0.2-0.6c-0.4-1.2-0.2-2.5,0-3.1c-0.4,0.3-0.8,0.7-0.8,0.7c-1.1,1.2-1.9,1.2-2,1.2l-0.6,0
				l0.5-0.3c0.1-0.1,0.3-1.2,0.3-2.2c-1.3,1.2-3.2,1.1-3.3,1.1l-0.4,0l0.3-0.3c0.1-0.1,0.1-0.1,0.2-0.2c1-0.9,1.5-1.3,1.4-4
				c-0.1-3,2.8-5.6,2.9-5.7c3.7-3.1,4.2-5.6,4.2-5.6l0.1-0.4l0.3,0.3c0.7,0.8,6.5,7.9,6.6,9.4c0.1,1.5-2.7,2.7-3,2.7
				c-2.5,1.4-2.9,2.9-2.9,2.9c-0.6,2.4-2.3,2.8-2.4,2.9c-0.8,0.3-1,0.8-1,0.8L77.9,114.3z M78.4,109.8l-0.2,0.4c0,0-0.5,1.5-0.3,2.9
				c0.2-0.2,0.5-0.5,1-0.6l0,0c0.1,0,1.6-0.4,2.2-2.6c0-0.1,0.5-1.7,3.1-3.1l0,0c0.8-0.3,2.8-1.3,2.8-2.4c-0.1-1.1-4.4-6.5-6.3-8.9
				c-0.3,0.8-1.2,3-4.2,5.5c0,0-2.8,2.5-2.8,5.4c0.1,2.7-0.4,3.4-1.3,4.2c0.7,0,2.1-0.3,2.8-1.3l0.4-0.5l0,0.6
				c0,0.8-0.1,1.9-0.3,2.6c0.3-0.1,0.8-0.4,1.3-1c0,0,0.7-0.7,1.3-1L78.4,109.8z"/>
		</g>
		<path class="st7" d="M117.6,86.3c-0.2,0-0.5,0-0.8-0.1l0.1-0.4c2.8,0.5,3.2-1.7,3.2-1.8l0-0.2l0.2,0c1.3,0,2.3-0.3,2.8-0.9
			c0.6-0.8,0.4-1.9,0.4-1.9l-0.1-0.2l0.2,0c1.3,0,2.4-0.4,3-1.1c0.9-0.9,0.7-2.2,0.7-2.2l0.4,0c0,0.1,0.1,1.4-0.8,2.5
			c-0.7,0.7-1.7,1.1-3,1.2c0.1,0.4,0.1,1.3-0.5,2c-0.6,0.7-1.5,1.1-2.9,1C120.3,84.8,119.6,86.3,117.6,86.3z"/>
		<g>
			<path class="st8" d="M121.4,110.1c0,0,1.9,3.2,4.2,3.3c0,0,3.9-0.5,5,0.5c0.8,0.7,1.6,1.3,1.9,3.1c0.3,1.8-0.6,2.2-0.8,2.3
				c0,0-0.2,1.3-1.5,1c0,0-0.1,1.4-2.4,0.7c-2.3-0.7-3.2-0.4-3.7-2.7c-0.4-2.3-0.9-2.2-1.3-2.5c-0.5-0.4-1.6-0.7-2.3-1.1
				c-0.7-0.4-3.3-1.7-4.2-1.8c-0.9-0.1-0.7-3.1-0.7-3.1h2.3l1.1-1.6L121.4,110.1z"/>
			<path class="st7" d="M128.9,121.4c-0.3,0-0.7-0.1-1.1-0.2c-0.4-0.1-0.7-0.2-1-0.3c-1.5-0.4-2.4-0.6-2.8-2.6
				c-0.4-1.9-0.7-2.1-1-2.3c-0.1,0-0.1-0.1-0.2-0.1c-0.3-0.2-0.7-0.4-1.1-0.6c-0.4-0.2-0.8-0.4-1.2-0.6c-0.7-0.4-3.3-1.7-4.1-1.8
				c-1-0.1-0.9-2.8-0.9-3.3l0-0.2h2.4l1.2-1.7l2.5,2.2l0,0c0,0,1.9,3.1,4,3.2c0.3,0,4-0.5,5.2,0.6c0.1,0.1,0.1,0.1,0.2,0.2
				c0.7,0.7,1.5,1.3,1.8,3.1c0.3,1.7-0.4,2.3-0.9,2.5c0,0.2-0.2,0.6-0.6,0.9c-0.3,0.2-0.6,0.2-0.9,0.2c-0.1,0.2-0.2,0.4-0.4,0.6
				C129.6,121.3,129.3,121.4,128.9,121.4z M115.8,109.9c-0.1,1.1,0.1,2.7,0.5,2.7c1,0.1,3.7,1.5,4.3,1.9c0.4,0.2,0.8,0.4,1.2,0.6
				c0.5,0.2,0.9,0.4,1.2,0.6c0,0,0.1,0.1,0.1,0.1c0.4,0.2,0.8,0.5,1.2,2.5c0.3,1.8,1,1.9,2.5,2.3c0.3,0.1,0.7,0.2,1.1,0.3
				c0.8,0.2,1.4,0.2,1.8,0c0.3-0.2,0.3-0.5,0.3-0.5l0-0.2l0.2,0.1c0.3,0.1,0.6,0.1,0.8-0.1c0.4-0.2,0.4-0.7,0.4-0.7l0-0.1l0.1,0
				c0.3-0.1,1-0.5,0.7-2.1c-0.3-1.6-0.9-2.2-1.6-2.9c-0.1-0.1-0.1-0.1-0.2-0.2c-0.9-0.8-3.8-0.6-4.9-0.5l0,0l0,0
				c-2.3-0.1-4.1-3-4.3-3.4l-2.1-1.9l-1.1,1.6H115.8z"/>
		</g>
		<g>
			<path class="st8" d="M113.8,95.2c0,0,0.5,2.5,4.2,5.8c0,0,2.9,2.6,2.8,5.5c-0.1,3,0.5,3.3,1.7,4.4c0,0-2.4,0.2-3.5-1.4
				c0,0,0,2.6,0.4,2.8c0,0-0.7,0-1.8-1.1c0,0-0.6-0.7-1.2-0.9c0,0,0.7,1.8,0.1,3.5c0,0-0.2-0.7-1.1-0.9c0,0-1.7-0.3-2.3-2.7
				c0,0-0.4-1.6-3-3c0,0-3-1.1-2.9-2.6C107.3,103,113.8,95.2,113.8,95.2L113.8,95.2z"/>
			<path class="st7" d="M116.5,114.3l-0.2-0.6c0,0-0.2-0.6-1-0.8c-0.2,0-1.8-0.5-2.4-2.9c0,0-0.4-1.5-2.9-2.9
				c-0.2-0.1-3.1-1.2-3-2.7c0.1-1.5,5.9-8.6,6.6-9.4l0.3-0.3l0.1,0.4c0,0,0.5,2.5,4.2,5.6c0.1,0.1,3,2.7,2.9,5.7
				c-0.1,2.7,0.4,3.2,1.4,4c0.1,0.1,0.1,0.1,0.2,0.2l0.3,0.3l-0.4,0c-0.1,0-2.1,0.1-3.3-1.1c0,1,0.2,2,0.3,2.2l0.5,0.3l-0.6,0
				c0,0-0.8,0-2-1.2c0,0-0.4-0.4-0.8-0.7c0.2,0.7,0.4,1.9,0,3.1L116.5,114.3z M113.7,95.6c-1.9,2.3-6.2,7.8-6.3,8.9
				c-0.1,1.1,2,2.1,2.8,2.4l0,0c2.6,1.4,3.1,3.1,3.1,3.1c0.6,2.2,2.1,2.6,2.2,2.6l0,0c0.5,0.2,0.8,0.4,1,0.6
				c0.3-1.5-0.3-2.9-0.3-2.9l-0.2-0.4l0.4,0.2c0.6,0.3,1.3,1,1.3,1c0.6,0.6,1.1,0.9,1.3,1c-0.2-0.6-0.2-1.8-0.3-2.6l0-0.6l0.4,0.5
				c0.8,1,2.1,1.3,2.8,1.3c-0.9-0.8-1.4-1.4-1.3-4.2c0.1-2.8-2.7-5.3-2.8-5.4C114.9,98.5,114,96.4,113.7,95.6z"/>
		</g>
		<g>
			<path class="st7" d="M124.3,113.6c-0.6,0-1-0.1-1-0.1l0.1-0.4c0,0,0.7,0.1,2.1,0l0,0.4C125.1,113.6,124.6,113.6,124.3,113.6z"/>
			<path class="st7" d="M131.8,119.4l-0.4,0c0.1-2.3-0.5-3.3-0.9-3.7c-0.4-0.4-0.8-0.3-0.8-0.3l-0.1-0.4c0,0,0.6-0.1,1.1,0.4
				C131.5,116.1,131.8,117.4,131.8,119.4z"/>
			<path class="st7" d="M130.3,120.3l-0.4,0c0.1-2.3-0.4-3.2-0.9-3.6c-0.3-0.3-0.7-0.3-0.7-0.3l0-0.4c0,0,0.5-0.1,1,0.4
				C130.1,117,130.4,118.4,130.3,120.3z"/>
			<path class="st7" d="M113.5,107.4c-0.4,0-1.2-0.1-1.7-0.6c-0.6-0.6-1.4-0.8-1.4-0.8l0.1-0.4c0,0,1,0.2,1.6,0.9
				c0.3,0.4,0.9,0.5,1.3,0.5c-0.2-0.3-0.5-0.8-0.6-1.6c-0.2-1.2-0.8-1.5-0.8-1.6l0.2-0.3c0,0,0.8,0.5,1,1.8c0.2,1.2,0.8,1.7,0.8,1.7
				l0.3,0.3l-0.4,0C113.8,107.4,113.7,107.4,113.5,107.4z"/>
			<path class="st7" d="M117.2,104.1c-0.4,0-1.2-0.1-1.7-0.6c-0.6-0.6-1.4-0.8-1.4-0.8l0.1-0.4c0,0,1,0.2,1.6,0.9
				c0.3,0.4,0.9,0.5,1.3,0.5c-0.2-0.3-0.5-0.8-0.6-1.6c-0.2-1.2-0.8-1.5-0.8-1.6l0.2-0.3c0,0,0.8,0.5,1,1.8c0.2,1.2,0.8,1.7,0.8,1.7
				l0.3,0.3l-0.4,0C117.4,104.1,117.3,104.1,117.2,104.1z"/>
			<path class="st7" d="M117.4,109c-0.4,0-1.1-0.1-1.5-0.6c-0.5-0.6-1.2-0.7-1.2-0.7l0.1-0.4c0,0,0.8,0.2,1.4,0.8
				c0.3,0.3,0.7,0.4,1,0.4c-0.2-0.3-0.4-0.7-0.5-1.4c-0.2-1-0.7-1.3-0.7-1.3l0.2-0.3c0,0,0.7,0.4,0.9,1.6c0.2,1,0.7,1.5,0.7,1.5
				l0.3,0.3l-0.4,0C117.6,109,117.5,109,117.4,109z"/>
		</g>
		<g>
			<path class="st8" d="M100.1,128c0,0,0.7,3,3,2.7c0,0,1.7-0.2,1.5-2.9c0,0,2.5,1.3,2.9-1.9c0,0,2.2,0.5,2.2-2.5
				c0,0,2.1,0.4,1.8-2.3c0,0,2.3,0.6,2.3-1.9c0,0,5.3-0.9-5.7-10.9l-9.8,5.8L100.1,128z"/>
			<path class="st7" d="M102.9,131c-2.3,0-2.9-2.9-2.9-2.9l0,0L98.1,114l10-6l0.1,0.1c5.2,4.7,7.5,8.1,7,10
				c-0.2,0.8-0.9,1.1-1.2,1.2c0,0.8-0.3,1.3-0.7,1.7c-0.5,0.4-1.2,0.4-1.5,0.3c0,0.8-0.2,1.5-0.6,1.9c-0.4,0.4-1,0.4-1.3,0.4
				c0,1-0.3,1.7-0.8,2.1c-0.5,0.4-1.1,0.4-1.4,0.4c-0.2,1-0.5,1.7-1.1,2c-0.6,0.3-1.3,0.2-1.7,0c0,2.6-1.7,2.8-1.7,2.8
				C103.1,131,103,131,102.9,131z M100.3,128c0,0.2,0.7,2.8,2.8,2.6c0.1,0,1.5-0.2,1.4-2.7l0-0.3l0.3,0.2c0,0,0.9,0.5,1.6,0.1
				c0.5-0.3,0.8-0.9,1-1.9l0-0.2l0.2,0c0,0,0.7,0.2,1.3-0.3c0.5-0.4,0.7-1.1,0.7-2l0-0.2l0.2,0c0,0,0.7,0.1,1.2-0.3
				c0.4-0.3,0.5-1,0.4-1.8l0-0.3l0.3,0.1c0,0,0.9,0.2,1.5-0.2c0.4-0.3,0.6-0.8,0.6-1.5V119l0.2,0c0,0,0.8-0.1,1-0.9
				c0.3-1-0.2-3.6-6.8-9.6l-9.6,5.7L100.3,128z"/>
		</g>
		<g>
			<path class="st8" d="M99,114.6c0,0,1.6,1.5,2.8-0.7c0,0,1.6-0.1,1.8-1.3c0,0,1.3-0.1,1.5-1.4c0,0,1.8-0.2,1.7-1.7
				c0,0,3.2-0.2,0-3.9c-3.2-3.6-8.6,6-8.6,6L99,114.6z"/>
			<path class="st7" d="M100.2,115.3c-0.7,0-1.3-0.5-1.3-0.5l0,0l-0.8-3l0-0.1c0.2-0.3,3.7-6.6,6.9-6.9c0.8-0.1,1.5,0.2,2.1,0.9
				c1.2,1.4,1.7,2.5,1.4,3.2c-0.3,0.7-1,0.9-1.3,0.9c-0.1,1.1-1.1,1.6-1.7,1.7c-0.3,1-1.2,1.3-1.5,1.4c-0.3,1-1.5,1.3-1.9,1.3
				c-0.4,0.7-0.9,1.1-1.4,1.2C100.4,115.3,100.3,115.3,100.2,115.3z M99.2,114.5c0.2,0.1,0.7,0.5,1.3,0.4c0.5-0.1,0.9-0.4,1.2-1.1
				l0.1-0.1l0.1,0c0,0,1.4-0.1,1.7-1.1l0-0.1l0.1,0c0,0,1.2-0.1,1.4-1.2l0-0.1l0.1,0c0.1,0,1.6-0.2,1.5-1.5l0-0.2l0.2,0
				c0,0,0.9-0.1,1.2-0.7c0.2-0.4,0.1-1.3-1.3-2.9c-0.5-0.6-1.1-0.8-1.7-0.7c-2.8,0.3-6.2,6-6.6,6.7L99.2,114.5z"/>
		</g>
		<g>
			<g>
				<path class="st7" d="M104.5,127.8c0-0.1-0.3-5.3-4.8-12.7l0.3-0.2c4.5,7.5,4.8,12.8,4.8,12.9L104.5,127.8z"/>
				<path class="st7" d="M107.7,125.9l-0.4-0.1l0.2,0l-0.2,0c0,0,0.6-3.1-5.7-11.8l-0.1-0.1l0-0.1c0-0.1,0.7-2-1.5-3.3l0.2-0.3
					c2.1,1.3,1.8,3.2,1.6,3.6C108.4,122.7,107.8,125.8,107.7,125.9z"/>
				<path class="st7" d="M109.9,123.4l-0.4,0l0.2,0l-0.2,0c0,0,0.1-3.3-6-10.6l-0.1-0.1l0-0.1c0-0.1,0.5-1.8-1.6-3.3l0.2-0.3
					c2.1,1.4,1.9,3.1,1.8,3.6C110.1,120,109.9,123.3,109.9,123.4z"/>
				<path class="st7" d="M111.4,121.1c0,0-0.3-3.3-6.3-9.7l-0.1-0.1l0-0.1c0-0.1,0.3-1.9-1.8-3l0.2-0.3c2,1.1,2,2.9,2,3.3
					c6.1,6.4,6.4,9.7,6.4,9.8L111.4,121.1z"/>
				<path class="st7" d="M113.6,119.2c0,0-0.5-3.8-6.9-9.4l-0.1-0.1l0-0.1c0,0,0.2-1.4-1.9-2.8l0.2-0.3c1.9,1.3,2,2.7,2,3.1
					c6.4,5.7,6.9,9.4,6.9,9.6L113.6,119.2l0.2,0L113.6,119.2z"/>
			</g>
			<g>
				<path class="st8" d="M94.3,128c0,0-0.7,3-3,2.7c0,0-1.7-0.2-1.5-2.9c0,0-2.5,1.3-2.9-1.9c0,0-2.2,0.5-2.2-2.5
					c0,0-2.1,0.4-1.8-2.3c0,0-2.3,0.6-2.3-1.9c0,0-5.3-0.9,5.7-10.9l9.8,5.8L94.3,128z"/>
				<path class="st7" d="M91.5,131c-0.1,0-0.2,0-0.3,0c0,0-1.7-0.2-1.7-2.8c-0.4,0.1-1.1,0.3-1.7,0c-0.6-0.3-1-1-1.1-2
					c-0.3,0-0.9,0-1.4-0.4c-0.5-0.4-0.8-1.1-0.8-2.1c-0.3,0-0.8,0-1.3-0.4c-0.4-0.4-0.6-1-0.6-1.9c-0.4,0-1,0.1-1.5-0.3
					c-0.4-0.3-0.7-0.9-0.7-1.7c-0.3-0.1-1-0.4-1.2-1.2c-0.6-1.9,1.8-5.3,7-10l0.1-0.1l10,6l-1.9,14.1C94.5,128.1,93.8,131,91.5,131z
					 M89.9,127.5l0,0.3c-0.1,2.5,1.3,2.7,1.4,2.7c2.1,0.2,2.8-2.4,2.8-2.6l1.8-13.8l-9.6-5.7c-6.6,6-7.1,8.6-6.8,9.6
					c0.2,0.8,1,0.9,1,0.9l0.2,0l0,0.2c0,0.7,0.2,1.2,0.6,1.5c0.6,0.4,1.4,0.2,1.5,0.2l0.3-0.1l0,0.3c-0.1,0.8,0.1,1.4,0.4,1.8
					c0.5,0.4,1.2,0.3,1.2,0.3l0.2,0l0,0.2c0,1,0.2,1.7,0.7,2c0.6,0.4,1.3,0.3,1.3,0.3l0.2,0l0,0.2c0.1,1,0.4,1.6,1,1.9
					c0.7,0.4,1.6-0.1,1.6-0.1L89.9,127.5z"/>
			</g>
		</g>
		<g>
			<path class="st8" d="M95.4,114.6c0,0-1.6,1.5-2.8-0.7c0,0-1.6-0.1-1.8-1.3c0,0-1.3-0.1-1.5-1.4c0,0-1.8-0.2-1.7-1.7
				c0,0-3.2-0.2,0-3.9c3.2-3.6,8.6,6,8.6,6L95.4,114.6z"/>
			<path class="st7" d="M94.2,115.3c-0.1,0-0.2,0-0.3,0c-0.6-0.1-1-0.5-1.4-1.2c-0.4,0-1.6-0.3-1.9-1.3c-0.3-0.1-1.3-0.4-1.5-1.4
				c-0.7-0.1-1.7-0.6-1.7-1.7c-0.3-0.1-1.1-0.3-1.3-0.9c-0.3-0.8,0.2-1.9,1.4-3.2c0.6-0.7,1.3-0.9,2.1-0.9c3.1,0.3,6.7,6.6,6.9,6.9
				l0,0.1l-0.8,3l0,0C95.5,114.8,94.9,115.3,94.2,115.3z M89.2,105.1c-0.6,0-1.1,0.2-1.5,0.8c-1.4,1.6-1.5,2.4-1.3,2.9
				c0.3,0.6,1.2,0.7,1.2,0.7l0.2,0l0,0.2c0,1.3,1.5,1.5,1.5,1.5l0.1,0l0,0.1c0.2,1.1,1.4,1.2,1.4,1.2l0.1,0l0,0.1
				c0.2,1,1.6,1.1,1.7,1.1l0.1,0l0.1,0.1c0.3,0.6,0.7,1,1.2,1.1c0.6,0.1,1.1-0.3,1.3-0.4l0.7-2.7c-0.4-0.7-3.8-6.4-6.6-6.7
				C89.3,105.1,89.2,105.1,89.2,105.1z"/>
		</g>
		<path class="st7" d="M89.9,127.8l-0.4,0c0-0.1,0.3-5.4,4.8-12.9l0.3,0.2C90.2,122.6,89.9,127.8,89.9,127.8z"/>
		<path class="st7" d="M86.7,125.9c0-0.1-0.6-3.2,5.7-12.1c-0.1-0.5-0.5-2.4,1.6-3.6l0.2,0.3c-2.1,1.3-1.5,3.2-1.5,3.3l0,0.1
			l-0.1,0.1c-6.2,8.7-5.7,11.8-5.7,11.8L86.7,125.9z"/>
		<g>
			<path class="st8" d="M97.2,113.7c1.6,0,3.4,9.9,2.9,15.9c-0.2,2.2-1.3,3.9-2.9,3.9c-1.6,0-2.7-1.8-2.9-3.9
				C93.8,123.6,95.6,113.7,97.2,113.7"/>
			<path class="st7" d="M97.2,133.7c-1.6,0-2.9-1.7-3.1-4.1c-0.4-5.3,1-14.1,2.5-15.8c0.4-0.4,0.8-0.4,1.2,0
				c1.5,1.6,2.9,10.5,2.5,15.8C100.1,132,98.8,133.7,97.2,133.7z M97.2,113.9c-0.1,0-0.2,0.1-0.3,0.2c-1.4,1.5-2.9,9.9-2.4,15.5
				c0.2,2.2,1.3,3.8,2.7,3.8c1.4,0,2.6-1.6,2.7-3.8c0.4-5.6-1.1-14-2.4-15.5C97.4,114,97.3,113.9,97.2,113.9z"/>
		</g>
		<path class="st7" d="M84.5,123.4c0-0.1-0.1-3.4,6.1-10.8c-0.1-0.4-0.2-2.2,1.8-3.6l0.2,0.3c-2.1,1.4-1.6,3.2-1.6,3.3l0,0.1
			l-0.1,0.1c-6.2,7.3-6,10.6-6,10.6L84.5,123.4z"/>
		<path class="st7" d="M83,121.1l-0.4,0c0-0.1,0.3-3.4,6.4-9.8c0-0.4,0-2.2,2-3.3l0.2,0.3c-2.1,1.1-1.8,3-1.8,3l0,0.1l-0.1,0.1
			C83.3,117.8,83,121.1,83,121.1z"/>
		<g>
			<ellipse class="st8" cx="97.2" cy="113.7" rx="2.2" ry="3.3"/>
			<path class="st7" d="M97.2,117.1c-1.3,0-2.4-1.5-2.4-3.4c0-1.9,1.1-3.4,2.4-3.4c1.3,0,2.4,1.5,2.4,3.4
				C99.6,115.6,98.5,117.1,97.2,117.1z M97.2,110.6c-1.1,0-2,1.4-2,3.1c0,1.7,0.9,3.1,2,3.1c1.1,0,2-1.4,2-3.1
				C99.2,112,98.3,110.6,97.2,110.6z"/>
		</g>
		<path class="st7" d="M80.8,119.2l-0.4,0c0-0.2,0.5-3.9,6.9-9.6c0-0.4,0.1-1.7,2-3.1l0.2,0.3c-2,1.4-1.9,2.8-1.9,2.8l0,0.1
			l-0.1,0.1C81.3,115.4,80.8,119.1,80.8,119.2z"/>
		<g>
			<path class="st0" d="M97.2,112.9c0,0,18.6-8.2,18.7-27.3H78.6C78.6,104.7,97.2,112.9,97.2,112.9z"/>
			<path class="st7" d="M97.2,113.2L97.2,113.2c-0.1-0.1-4.8-2.2-9.4-6.6c-2.7-2.6-4.9-5.5-6.5-8.6c-2-3.8-2.9-8-3-12.4l0-0.2h37.7
				l0,0.2c0,4.4-1,8.6-3,12.4c-1.6,3.1-3.7,6-6.5,8.6C102,111,97.3,113.1,97.2,113.2L97.2,113.2z M78.7,85.8
				c0.1,9.7,5.1,16.5,9.3,20.5c4.3,4.1,8.6,6.2,9.2,6.4c0.6-0.3,4.9-2.4,9.2-6.4c4.2-4,9.2-10.8,9.3-20.5H78.7z"/>
		</g>
		<g>
			<rect x="87.2" y="85.4" class="st7" width="2.9" height="0.4"/>
			<rect x="81.4" y="85.4" class="st7" width="2.9" height="0.4"/>
			<rect x="92.9" y="85.4" class="st7" width="2.9" height="0.4"/>
		</g>
		<g>
			<g>
				<path class="st10" d="M81.4,85.6v12.2c0,0,1.4,2.8,2.9,4.6V85.6H81.4z"/>
				<path class="st7" d="M84.5,102.9l-0.3-0.4c-1.4-1.8-2.9-4.6-2.9-4.6l0,0V85.4h3.2V102.9z M81.6,97.8c0.2,0.3,1.3,2.5,2.5,4.1
					V85.8h-2.5V97.8z"/>
			</g>
			<g>
				<path class="st10" d="M87.2,85.6v20.1c0,0,1.8,1.8,2.9,2.6V85.6H87.2z"/>
				<path class="st7" d="M90.2,108.7l-0.3-0.2c-1.1-0.8-2.9-2.6-2.9-2.6l-0.1-0.1V85.4h3.2V108.7z M87.4,105.6
					c0.3,0.3,1.5,1.5,2.5,2.3V85.8h-2.5V105.6z"/>
			</g>
			<g>
				<path class="st10" d="M92.9,85.6v24.8c0,0,2,1.3,2.9,1.8V85.6L92.9,85.6z"/>
				<path class="st7" d="M96,112.5l-0.3-0.1c-0.8-0.4-2.8-1.7-2.9-1.8l-0.1-0.1V85.4H96V112.5z M93.1,110.4c0.4,0.2,1.7,1.1,2.5,1.5
					V85.8h-2.5V110.4z"/>
			</g>
		</g>
		<g>
			<rect x="81.4" y="85.4" class="st7" width="2.9" height="0.4"/>
			<rect x="87.2" y="85.4" class="st7" width="2.9" height="0.4"/>
			<rect x="92.9" y="85.4" class="st7" width="2.9" height="0.4"/>
		</g>
		<g>
			<g>
				<path class="st10" d="M113,85.6v12.2c0,0-1.4,2.8-2.9,4.6V85.6H113z"/>
				<path class="st7" d="M109.9,102.9V85.4h3.2v12.4l0,0c0,0-1.5,2.9-2.9,4.6L109.9,102.9z M110.3,85.8v16.1
					c1.2-1.6,2.3-3.8,2.5-4.1v-12H110.3z"/>
			</g>
			<g>
				<path class="st10" d="M107.3,85.6v20.1c0,0-1.8,1.8-2.9,2.6V85.6H107.3z"/>
				<path class="st7" d="M104.2,108.7V85.4h3.2v20.4l-0.1,0.1c0,0-1.8,1.8-2.9,2.6L104.2,108.7z M104.6,85.8v22.1
					c0.9-0.8,2.2-2,2.5-2.3V85.8H104.6z"/>
			</g>
			<g>
				<path class="st10" d="M101.5,85.6v24.8c0,0-2,1.3-2.9,1.8V85.6L101.5,85.6z"/>
				<path class="st7" d="M98.5,112.5V85.4h3.2v25.1l-0.1,0.1c-0.1,0.1-2.1,1.3-2.9,1.8L98.5,112.5z M98.8,85.8v26.1
					c0.8-0.5,2.1-1.3,2.5-1.5V85.8H98.8z"/>
			</g>
		</g>
	</g>
	<path class="st2" d="M116.9,131.4l-1.7,2.1"/>
	<path class="st2" d="M113,131.2l4.8,4.4"/>
	<g>
		<g>
			<g>
				<path class="st9" d="M127.3,120.2l-0.7,3l2,2l-2.8,11.8l-2.5-3.3l-3.7,1.7l2.8-11.8l2.6-0.7l0.7-3
					C125.6,119.8,126.4,119.5,127.3,120.2L127.3,120.2z"/>
				<path class="st7" d="M125.9,137.4l-2.6-3.5l-3.9,1.8l2.9-12.3l2.6-0.7l0.7-2.9l0.1,0c0,0,0.9-0.3,1.8,0.4l0.1,0.1l-0.7,3l2,2
					L125.9,137.4z M123.3,133.4l2.3,3.1l2.7-11.3l-2-2l0.7-2.9c-0.6-0.4-1.1-0.3-1.3-0.3l-0.7,3l-2.6,0.7l-2.7,11.3L123.3,133.4z"/>
			</g>
			<g>
				<path class="st9" d="M128,118.2l-1.4,2.7l1.4,2.4l-5.6,10.7l-1.6-3.9l-4,0.7l5.6-10.7l2.7,0l1.4-2.7
					C126.5,117.4,127.5,117.4,128,118.2L128,118.2z"/>
				<path class="st7" d="M122.3,134.5l-1.7-4.1l-4.2,0.7l5.8-11.1l2.7,0l1.4-2.7l0.1,0c0,0,0,0,0,0c0.1,0,1.1,0,1.7,0.9l0.1,0.1
					l-1.4,2.7l1.4,2.4L122.3,134.5z M120.9,129.9l1.5,3.7l5.4-10.2l-1.4-2.4l1.4-2.7c-0.4-0.5-0.9-0.6-1.2-0.6l-1.4,2.7l-2.7,0
					l-5.4,10.2L120.9,129.9z"/>
			</g>
			<g>
				<path class="st9" d="M128.2,119l-3.8,4.8l0.9,2.7l-7.7,9.1l-0.7-4.2l-4-0.3l7.7-9.1l2.6,0.6l4-5.1
					C127.2,117.6,128.3,118.1,128.2,119L128.2,119z"/>
				<path class="st7" d="M117.4,136l-0.8-4.4l-4.3-0.3l8.1-9.4l2.6,0.6l4.2-5.4l0.1,0.3c0.3,0.2,1.1,0.7,1,1.6l0,0.1l-3.8,4.8
					l0.9,2.7L117.4,136z M113.2,131l3.8,0.3l0.7,3.9l7.4-8.7l-0.9-2.7l3.8-4.9c0-0.5-0.5-0.9-0.8-1.1l-4,5.1l-2.6-0.6L113.2,131z"/>
			</g>
		</g>
		<g>
			<path class="st7" d="M51.5,64.1c-15.7-2.9-20.9-5.9-21-5.9l0.2-0.3c0.1,0,5.3,3,20.8,5.9L51.5,64.1z"/>
			<path class="st7" d="M53,67.3c-6.4-0.5-20.1-5-20.2-5l0.1-0.4c0.1,0,13.8,4.5,20.1,5L53,67.3z"/>
			<path class="st7" d="M55.8,71.5c-9.4-1.6-17.5-4.1-17.5-4.1l0.1-0.4c0.1,0,8.2,2.5,17.5,4.1L55.8,71.5z"/>
			<path class="st7" d="M58.6,75.2c-4.3-0.4-13.4-2.5-13.5-2.6l0.1-0.4c0.1,0,9.2,2.2,13.4,2.5L58.6,75.2z"/>
		</g>
		<g>
			<g>
				<path class="st7" d="M60.9,78.7c-1.9-0.2-9.4-1.7-9.7-1.8l0.1-0.4c0.1,0,7.7,1.6,9.6,1.8L60.9,78.7z"/>
				<path class="st7" d="M63.9,81.7c-2.3,0-7.5-0.8-7.7-0.8l0.1-0.4c0.1,0,5.6,0.9,7.8,0.8l0,0.4C64,81.7,63.9,81.7,63.9,81.7z"/>
				<path class="st7" d="M63.2,84.3l0-0.4c0,0,2.3-0.1,3.3-0.3l0.1,0.4C65.5,84.2,63.3,84.3,63.2,84.3z"/>
				<path class="st7" d="M65.3,87.9l-0.1-0.4c0,0,1.9-0.5,3-1.2l0.2,0.3C67.3,87.4,65.4,87.9,65.3,87.9z"/>
				<path class="st7" d="M68.2,91.7l-0.1-0.4c0,0,1.4-0.6,2.1-2l0.3,0.2C69.8,91.1,68.3,91.7,68.2,91.7z"/>
				<path class="st7" d="M71.9,93.1l-0.3-0.3c0,0,1.1-1,1.2-2.1l0.4,0C73.1,92,71.9,93,71.9,93.1z"/>
				<path class="st7" d="M76,94c-0.1,0-0.5-0.5-0.2-2.2l0.4,0.1c-0.3,1.4,0.1,1.8,0.1,1.8L76,94z"/>
				<path class="st7" d="M75.4,89.6c0,0-0.2-0.5-0.2-1.3l0.4,0c-0.1,0.7,0.1,1.1,0.1,1.1L75.4,89.6z"/>
				<path class="st7" d="M70.9,79c-0.9-1.1-1.7-3.1-0.3-6.5c0-0.1,0.1-0.1,0.1-0.2l0-0.1c0.3-0.8,0.8-2.1,0-3.4
					c-0.8-1.4-3.4-2.4-3.4-2.4l0.1-0.4c0.1,0,2.7,1.1,3.6,2.6c0.9,1.5,0.4,2.9,0,3.7l0,0.1c0,0,0,0.1-0.1,0.2
					c-1.1,2.6-1.1,4.6,0.2,6.1L70.9,79z"/>
				<path class="st7" d="M67.5,81.9l-0.1-0.2l-0.1-0.1c0,0,0,0,1-0.4l0.1,0.4C67.6,81.8,67.5,81.9,67.5,81.9z"/>
				<path class="st7" d="M65,78.4c-1.5,0-3.1-0.3-3.1-0.3l0.1-0.4c0,0,1.6,0.3,3,0.3L65,78.4z"/>
				<path class="st7" d="M63,74.5c-1.6,0-3.2-0.2-3.2-0.2l0-0.4c0,0,1.8,0.2,3.5,0.2l0,0.4C63.2,74.5,63.1,74.5,63,74.5z"/>
			</g>
			<g>
				<path class="st6" d="M66.6,119.7c0,0-0.1-1.6,2-1.7l5.9,8.2c0,0-0.2,0.5-2.9,0.5c0,0-0.3,0-0.4,0.3
					C70.9,127.4,66.6,119.7,66.6,119.7z"/>
				<path class="st7" d="M71.1,127.2c-0.2,0-0.5-0.1-2.6-3.8c-1.1-1.8-2.1-3.7-2.1-3.7l0,0l0,0c0,0,0-1.8,2.1-1.9l0.1,0l6,8.4l0,0.1
					c-0.1,0.2-0.5,0.6-3.1,0.6c0,0-0.2,0-0.3,0.2C71.2,127.1,71.2,127.2,71.1,127.2C71.1,127.2,71.1,127.2,71.1,127.2z M66.8,119.6
					c1.7,3.1,3.7,6.5,4.3,7.1c0.2-0.2,0.4-0.3,0.5-0.3c0,0,0,0,0,0c1.8,0,2.4-0.2,2.6-0.3l-5.8-8C66.9,118.3,66.8,119.4,66.8,119.6z
					 M74.3,126.1L74.3,126.1L74.3,126.1z"/>
			</g>
			<g>
				<path class="st7" d="M61.1,70.8c-1.4,0-4-0.5-4.1-0.6l0.1-0.4c0,0,2.6,0.5,4,0.5L61.1,70.8z"/>
				<path class="st7" d="M60.5,67.1c-2.4-0.3-5.6-1.2-5.7-1.3l0.1-0.4c0,0,3.3,0.9,5.6,1.2L60.5,67.1z"/>
				<path class="st7" d="M67.4,76.9c-2-1.7-1.5-3.3-1.3-3.8c-0.8-0.6-1.3-1.3-1.3-2.1c-0.1-1.3,0.9-2.2,1-2.3l0.3,0.3l-0.1-0.1
					l0.1,0.1c0,0-0.9,0.9-0.8,2c0,0.7,0.5,1.3,1.3,1.9l0.1,0.1l-0.1,0.2c0,0.1-1,1.7,1.1,3.5L67.4,76.9z"/>
				<path class="st7" d="M76.8,86.3c-2,0-2.7-1.5-2.8-2c-1.4,0-2.4-0.3-2.9-1c-0.6-0.7-0.5-1.6-0.5-2c-1.3,0-2.4-0.4-3-1.2
					c-1-1.1-0.8-2.5-0.8-2.5l0.4,0l-0.2,0l0.2,0c0,0-0.1,1.3,0.7,2.2c0.6,0.7,1.6,1.1,3,1.1h0.2L71,81.2c0,0-0.3,1.1,0.4,1.9
					c0.5,0.6,1.4,0.9,2.8,0.9l0.2,0l0,0.2c0,0.1,0.5,2.3,3.2,1.8l0.1,0.4C77.3,86.3,77.1,86.3,76.8,86.3z"/>
			</g>
		</g>
		<g>
			<path class="st7" d="M70.1,113.6c-0.3,0-0.7,0-1.2-0.1l0-0.4c1.4,0.1,2.1,0,2.1,0l0.1,0.4C71,113.6,70.7,113.6,70.1,113.6z"/>
			<path class="st7" d="M62.6,119.4c0-2,0.3-3.3,1.1-3.9c0.5-0.5,1.1-0.4,1.1-0.4l-0.1,0.4c0,0-0.4-0.1-0.8,0.3
				c-0.4,0.4-1,1.4-0.9,3.6L62.6,119.4z"/>
			<path class="st7" d="M64.1,120.3c-0.1-2,0.3-3.3,1-3.9c0.5-0.4,0.9-0.4,1-0.4l0,0.4c0,0-0.3,0-0.7,0.3c-0.4,0.4-0.9,1.3-0.8,3.6
				L64.1,120.3z"/>
			<path class="st7" d="M80.9,107.4c-0.1,0-0.2,0-0.3,0l-0.5,0l0.4-0.3c0,0,0.6-0.5,0.8-1.7c0.2-1.4,1-1.8,1-1.8l0.2,0.3
				c0,0-0.6,0.4-0.8,1.6c-0.1,0.8-0.4,1.3-0.6,1.6c0.4,0,0.9-0.1,1.3-0.5c0.7-0.7,1.6-0.9,1.6-0.9L84,106l0-0.2l0,0.2
				c0,0-0.8,0.2-1.4,0.8C82.1,107.4,81.3,107.4,80.9,107.4z"/>
			<path class="st7" d="M77.2,104.1c-0.1,0-0.2,0-0.3,0l-0.5,0l0.4-0.3c0,0,0.6-0.5,0.8-1.7c0.2-1.4,1-1.8,1-1.8l0.2,0.3
				c0,0-0.6,0.4-0.8,1.6c-0.1,0.8-0.4,1.3-0.6,1.6c0.4,0,0.9-0.1,1.3-0.5c0.7-0.7,1.6-0.9,1.6-0.9l0.1,0.4l0-0.2l0,0.2
				c0,0-0.8,0.2-1.4,0.8C78.5,104.1,77.6,104.1,77.2,104.1z"/>
			<path class="st7" d="M77,109c-0.1,0-0.2,0-0.2,0l-0.5,0l0.4-0.3c0,0,0.5-0.4,0.7-1.5c0.2-1.2,0.9-1.6,0.9-1.6l0.2,0.3
				c0,0-0.6,0.3-0.7,1.3c-0.1,0.7-0.3,1.1-0.5,1.4c0.3,0,0.8-0.1,1-0.4c0.6-0.7,1.4-0.8,1.4-0.8l0.1,0.4l0-0.2l0,0.2
				c0,0-0.7,0.2-1.2,0.7C78.1,108.9,77.4,109,77,109z"/>
		</g>
		<g>
			<g>
				<path class="st11" d="M115.9,71.8c0,0-9.1,4.8-18.7-0.4c-9.5,5.2-18.7,0.4-18.7,0.4v13.9h37.3V71.8z"/>
				<path class="st7" d="M116.1,85.8H78.4V71.4l0.3,0.1c0,0,2.3,1.2,5.7,1.7c3.1,0.5,7.9,0.5,12.8-2.1l0.1,0l0.1,0
					c4.9,2.6,9.6,2.6,12.8,2.1c3.4-0.5,5.7-1.7,5.7-1.7l0.3-0.1V85.8z M78.7,85.4h36.9V72.1c-0.7,0.3-2.8,1.2-5.5,1.6
					c-3.2,0.5-8,0.5-12.9-2.1c-4.9,2.6-9.8,2.6-12.9,2.1c-2.8-0.4-4.8-1.3-5.5-1.6V85.4z"/>
			</g>
			<g>
				<g>
					<path class="st9" d="M32.1,107.7c0.9-0.4,1.6-0.7,1.6-1.7c0-0.2-0.1-0.7-0.4-1.5l-6.1-18.6c-0.4-1.1-0.6-1.8-0.8-2
						c-0.3-0.5-0.8-0.7-1.5-1h0.7h6.2h0.7c-0.8,0.4-1.6,0.7-1.6,1.6c0,0.3,0.1,0.8,0.3,1.4l4.7,14.6l4.6-14.6
						c0.2-0.6,0.3-1.1,0.3-1.4c0-0.9-0.8-1.2-1.6-1.6h0.7h6h0.7c-0.7,0.3-1.2,0.5-1.5,1c-0.1,0.2-0.4,0.9-0.8,2l-6.1,18.6
						c-0.3,0.8-0.3,1.3-0.4,1.5c0,0-0.3,1.2,1.6,1.7L32.1,107.7z"/>
					<path class="st7" d="M31.1,107.9l0.9-0.4c1-0.4,1.4-0.7,1.4-1.5c0-0.1-0.1-0.5-0.4-1.5L27,86c-0.3-1.1-0.6-1.7-0.7-2
						c-0.2-0.4-0.7-0.6-1.4-0.9l-0.9-0.4h9.5l-0.9,0.4c-0.9,0.4-1.4,0.7-1.4,1.4c0,0.3,0.1,0.8,0.3,1.4l4.5,14l4.5-14
						c0.2-0.6,0.3-1.1,0.3-1.4c0-0.8-0.7-1.1-1.4-1.4l-0.9-0.4h9.3l-0.9,0.4c-0.6,0.3-1.1,0.5-1.4,0.9c-0.1,0.2-0.4,0.9-0.7,2
						l-6.1,18.6c-0.2,0.7-0.3,1.2-0.4,1.5l0,0c0,0-0.2,1,1.4,1.4l1.4,0.4L31.1,107.9z M25.8,83.1c0.4,0.2,0.6,0.4,0.8,0.8
						c0.1,0.3,0.4,0.9,0.8,2l6.1,18.6c0.3,0.8,0.4,1.3,0.4,1.6c0,0.8-0.4,1.2-0.9,1.5l5.7,0c-0.9-0.6-0.8-1.4-0.8-1.5
						c0-0.3,0.2-0.8,0.4-1.6l6.1-18.6c0.4-1.1,0.6-1.8,0.8-2c0.2-0.4,0.5-0.6,0.8-0.8h-5.8c0.5,0.3,1,0.7,1,1.4
						c0,0.4-0.1,0.8-0.3,1.5L36,101.1L31.1,86c-0.2-0.6-0.3-1.1-0.3-1.5c0-0.7,0.4-1.1,1-1.4H25.8z"/>
				</g>
				<g>
					<path class="st9" d="M161.5,105.8v-21c0-0.4-0.1-0.6-0.2-0.8c-0.1-0.2-0.6-0.8-1.4-1.1h0.7h5.5h0.7c-0.7,0.2-1.3,0.8-1.4,1
						c-0.1,0.2-0.2,0.5-0.2,0.8v21c0,0.4,0.1,0.7,0.2,0.9c0.1,0.2,0.6,0.7,1.4,1h-0.7h-5.5h-0.7c0.7-0.3,1.3-0.9,1.4-1.1
						C161.4,106.5,161.5,106.2,161.5,105.8z"/>
					<path class="st7" d="M167.7,107.9h-8.7l0.8-0.4c0.7-0.3,1.2-0.8,1.3-1c0.1-0.2,0.2-0.4,0.2-0.8v-21c0-0.3-0.1-0.6-0.2-0.7
						c-0.1-0.2-0.6-0.7-1.3-1l-0.9-0.4h9.1l-1.1,0.4c-0.7,0.2-1.2,0.8-1.3,1c-0.1,0.2-0.2,0.4-0.2,0.7v21c0,0.3,0.1,0.6,0.2,0.8
						c0.1,0.2,0.6,0.6,1.3,1L167.7,107.9z M160.6,107.5h5.5c-0.4-0.3-0.7-0.6-0.8-0.8c-0.1-0.2-0.2-0.5-0.2-1v-21
						c0-0.4,0.1-0.7,0.2-0.9c0.1-0.2,0.4-0.5,0.8-0.8h-5.4c0.4,0.3,0.7,0.6,0.8,0.8c0.1,0.2,0.2,0.5,0.2,0.9v21c0,0.4-0.1,0.7-0.2,1
						C161.4,106.9,161.1,107.2,160.6,107.5z"/>
				</g>
			</g>
		</g>
	</g>
</g>
</svg>
