<svg xmlns="http://www.w3.org/2000/svg" width="192" height="192"><path fill="#002395" d="M172 160V32c0-6.6-5.4-12-12-12H32c-6.6 0-12 5.4-12 12v128c0 6.6 5.4 12 12 12h128c6.6 0 12-5.4 12-12z"/><path fill="#DE3831" d="M160 20H32c-6.6 0-12 5.4-12 12v64h152V32c0-6.6-5.4-12-12-12z"/><path d="M20 33.33v125.34L114 96z"/><path fill="#FFF" d="M121.67 71l-76-51H32c-6.6 0-12 5.4-12 12v31.78L68.33 96 20 128.22V160c0 6.6 5.4 12 12 12h13.67l76-51H172V71h-50.33z"/><path fill="#FFB612" d="M20 34.55v29.23L68.33 96 20 128.22v29.23L104.5 96z"/><path fill="#007A4D" d="M118.6 81L28.3 20.6C23.5 22.17 20 26.69 20 32v19.6L86.6 96 20 140.4V160c0 5.31 3.5 9.83 8.3 11.4l90.3-60.4H172V81h-53.4z"/><g><path fill="none" d="M172 160V32c0-6.6-5.4-12-12-12H32c-6.6 0-12 5.4-12 12v128c0 6.6 5.4 12 12 12h128c6.6 0 12-5.4 12-12z" opacity=".4"/><path fill="none" d="M0 0v192h192V0H0z"/><path fill="#DFDFDF" d="M160 20c6.6 0 12 5.4 12 12v128c0 6.6-5.4 12-12 12H32c-6.6 0-12-5.4-12-12V32c0-6.6 5.4-12 12-12h128m0-8H32c-11.03 0-20 8.97-20 20v128c0 11.03 8.97 20 20 20h128c11.03 0 20-8.97 20-20V32c0-11.03-8.97-20-20-20z"/><path fill="#FFF" fill-opacity=".2" d="M160 20H32c-6.6 0-12 5.4-12 12v1c0-6.6 5.4-12 12-12h128c6.6 0 12 5.4 12 12v-1c0-6.6-5.4-12-12-12z"/><path fill="#212121" fill-opacity=".1" d="M160 172H32c-6.6 0-12-5.4-12-12v-1c0 6.6 5.4 12 12 12h128c6.6 0 12-5.4 12-12v1c0 6.6-5.4 12-12 12z"/><radialGradient id="a" cx="23.768" cy="23.933" r="204.625" gradientUnits="userSpaceOnUse"><stop offset="0" stop-color="#fff" stop-opacity=".1"/><stop offset="1" stop-color="#fff" stop-opacity="0"/></radialGradient><path fill="url(#a)" d="M160 172H32c-6.6 0-12-5.4-12-12V32c0-6.6 5.4-12 12-12h128c6.6 0 12 5.4 12 12v128c0 6.6-5.4 12-12 12z"/></g></svg>