<svg xmlns="http://www.w3.org/2000/svg" width="192" height="192"><path fill="#198A00" d="M172 160V32c0-6.6-5.4-12-12-12H32c-6.6 0-12 5.4-12 12v128c0 6.6 5.4 12 12 12h128c6.6 0 12-5.4 12-12z"/><path fill="#EF7D00" d="M139.6 172H160c6.6 0 12-5.4 12-12V86h-32.4v86z"/><path d="M105.3 86H140v86h-34.7z"/><path fill="#DE2010" d="M70 86h36v86H70z"/><path fill="#EF7D00" d="M166.69 37.48c.01-.05.02-.1.01-.14 0-.06-.03-.1-.05-.12a.219.219 0 00-.16-.07c-.2 0-.62.23-1.81.89-.9.5-2.16 1.2-3.75 2.01 3.01-2.08 3.75-3.82 3.65-4.59-.03-.25-.15-.31-.23-.33-.63-.08-2.02.7-4.17 1.9-.97.54-2.05 1.15-3.24 1.77 2.33-1.6 3.63-3.11 3.75-3.74.03-.16-.02-.26-.06-.31a.145.145 0 00-.21-.01c-.94.79-9.55 4.22-12.08 5.22.73-.64 1.24-1.43 1.17-1.87-.02-.12-.12-.42-.64-.37a.09.09 0 00-.07.03c-1.86 1.29-8.82 2.7-11.11 3.09-.01 0-.01 0-.02.01-.24.07-.58.18-.97.3-1.75.56-4.68 1.49-5.49 1.49h-.08c-1.42-.1-2.74-.15-3.93-.15-4.17 0-5.51.6-5.66.68-.04-.08-.06-.16-.08-.22l-.01-.03c0-.01-.01-.01-.01-.02-.43-.93-.5-1.68-.2-2.23.35-.64 1.07-.78 1.28-.81.23-.02.4-.03.55-.03.31-.01.54-.02.91-.18.04-.02.06-.04.08-.08.1.05.18.12.24.2.09.15.1.36.02.63-.02.05 0 .11.04.15.04.04.1.05.15.03.47-.16 1.27-.82 1.18-1.55-.1-.81-1.2-1.32-3.26-1.52-.71-.71-2.1-1.17-3.51-1.17-1.51 0-5.15.57-6.34 5.89 0 .02-.01.04 0 .06-2.11-.66-5.78-1.18-7.88-1.48-.32-.05-.61-.09-.84-.12-2.97-.79-5.99-2.18-8.2-3.21-1.61-.74-2.67-1.24-3.13-1.24-.09 0-.16.02-.22.05-.08.04-.14.11-.16.2-.08.4.66 1.22 2.24 2.78.12.12.26.25.38.37-3.09-1.61-5.91-2.78-8.76-3.94-1.03-.35-2.04-.93-2.86-1.4-.76-.44-1.17-.67-1.41-.67-.12 0-.19.05-.22.1 0 .01-.01.01-.01.02-.71 1.35 2.31 4.27 3.62 5.31-2.58-1.11-3.34-1.5-3.61-1.75-.02-.02-.05-.03-.08-.04-.34-.07-.99-.67-1.57-1.21-.87-.8-1.39-1.26-1.73-1.16l-.06.03c-.16.14-.12.54-.07.86.2 1.1.91 2.52 2.29 3.68-.5-.32-.99-.69-1.42-1.01-.86-.64-1.32-.97-1.61-.97-.06 0-.12.01-.16.04-.07.04-.15.14-.14.34.04.64 1.05 2.23 2.39 3.11-.06-.02-.12-.05-.18-.07-.68-.35-1.18-.74-1.54-1.02-.33-.26-.51-.4-.68-.4-.06 0-.12.02-.16.06-.07.05-.14.17-.1.44.22 1.33 2.49 3.96 9.47 5.64-.15.02-.3.04-.44.05-.88.12-.9.17-.93.26-.05.11-.01.27.09.42.23.34 1.12 1.14 4.4 1.14.35 0 .73-.01 1.12-.03-.58.16-1.01.28-1.1.28-.05.01-.12.02-.22.03-1.62.18-1.83.27-1.89.43-.03.07-.01.16.05.24.24.36 1.53 1.14 3.99 1.28.94.05 2.22-.15 3.41-.4-.79.26-1.04.35-1.12.39-.07.03-.45.07-.73.09-.93.09-1.07.12-1.13.25-.03.05-.04.14.04.26.19.3 1.25 1.09 3.76 1.09 1.4 0 3-.24 4.77-.73-.72.32-1.71.59-2.39.78-.86.23-.99.27-.99.44.02.3.98.97 2.08 1.19.28.06.6.09.97.09.39 0 .82-.03 1.26-.1.29-.05.59-.12.91-.21-.66.38-.79.5-.81.63-.01.06.01.11.06.16.31.26.82.39 1.52.39.77 0 1.64-.15 2.29-.31-.84.47-.81.52-.74.65 0 .01.01.01.01.02.18.27.56.4 1.16.4 1.02 0 2.4-.4 2.52-.46.03-.02.23-.12.53-.26-.5.36-.76.63-.78.79a.2.2 0 00.02.13c0 .13.04.25.12.34.15.16.41.24.81.24.96 0 2.56-.45 3.88-.89-.58.38-.99.76-1 1.07 0 .03.01.06.02.08.71 1.1 2.29 1.27 3.17 1.27.87 0 1.69-.15 2.1-.32-.03.12-.07.27-.1.38-.12.43-.15.55-.08.65.03.04.09.07.13.07.04 0 .07-.01.11-.04.09-.06.27-.26.48-.5-.13.34-.26.71-.37 1.11-.1.39-.17.79-.24 1.21-.09.55-.19 1.11-.37 1.7 0 .01 0 .01-.01.02-.02.1.02.16.05.19.04.05.1.08.18.08.29 0 .92-.45 1.39-1.31-.02.14-.05.28-.07.41-.22 1.25-.25 1.53-.08 1.65.06.04.13.07.21.07.06 0 .13-.02.21-.05-.11.49-.53 1.68-2.07 1.68-1.92 0-2.51 1.28-2.56 2.01-.08.12-.17.42-.07 1.14.01.06.06.11.12.13s.13-.02.16-.07c.26-.42.43-.65.51-.74.11.02.28.05.51.05.54 0 1.11-.15 1.71-.46-.22.34-.32.66-.29.94.03.26.16.42.25.51-.04.19-.09.6.12.96.16.28.45.46.84.54h.03c.09 0 .15-.07.15-.15a.16.16 0 00-.05-.11c-.21-.28-.18-.52-.15-.64.47-.08 1.16-.39 1.45-1.16.25.76.71 1.09.9 1.2.04.27.22.99 1.21 1.06h.01c.09 0 .15-.07.15-.15 0-.06-.03-.1-.07-.13-.4-.34-.4-.82-.39-.99.16-.12.57-.5.68-1.09.01-.04.01-.08.01-.12.12.21.31.4.62.64.03.02.06.03.09.03.09 0 .15-.07.15-.15 0-.03-.01-.05-.02-.07-.1-.35-.12-.64-.12-.82.27.07.79.09 1.35-.4-.13.55-.06.89.04 1.11.06.12.13.21.22.26.01.05.01.15.01.22.01.43.03 1.22 1.11 1.22h.03c.06 0 .12-.04.14-.1.02-.06.01-.13-.04-.17-.32-.28-.27-.66-.24-.82.16-.05.46-.17.69-.51.32-.46.4-1.14.23-2 .09-.07.18-.11.24-.11.07 0 .11.05.13.08.06.43.37 1.21 1.18 1.21.09 0 .18-.01.28-.03.06.05.08.09.09.13.04.2-.18.52-.26.62-.04.04-.04.11-.02.16.03.05.08.09.14.09.1 0 .97-.02 1.25-.75.27-.7.3-1.26.09-1.72-.17-.37-.49-.64-.97-.82-.01-.05.01-.07.02-.08.07-.1.28-.15.4-.16.26.08.87.33 1.05.62.02.04.09.14.21.14.03 0 .18-.01.2-.23.02-.34-.3-1.26-1.2-1.39h-.02c-1.06-.03-1.28-.19-1.32-.23-.01-.09-.02-.38-.05-.77.91.56 1.81.73 2.07.73.04 0 .14 0 .19-.08.01-.02.02-.04.02-.07.01-.11-.08-.24-.52-.89-.49-.72-1.4-2.05-1.33-2.46.17.07.4.23.63.41.41.31.88.66 1.35.66.15 0 .29-.03.41-.1.07-.04.1-.13.07-.2-.12-.26-.33-.35-.56-.46-.33-.15-.75-.35-1.21-1.1-.04-.07-.07-.14-.1-.21.66.54 1.75 1.28 2.85 1.28h.14c.03 0 .06-.01.08-.03.15-.11.18-.25.18-.34 0-.09-.02-.17-.07-.26.87.53 1.96 1.04 2.93 1.04.34 0 .66-.06.93-.19.02-.01.04-.03.06-.05.15-.2.2-.36.17-.53-.06-.3-.4-.5-.91-.79-.51-.3-1.23-.72-2.01-1.44 1.38.77 3.67 1.87 5.35 1.87.4 0 .75-.07 1.04-.19.02-.01.03-.02.05-.03a.43.43 0 00.13-.34c-.04-.42-.66-.96-1.72-1.72.36.12.75.18 1.16.18 1.22 0 2.4-.56 2.47-.78.01-.02.01-.05.01-.07-.02-.16-.17-.27-.48-.38 1.28-.03 2.41-.28 2.62-.6.02-.04.03-.08.02-.12-.07-.25-.23-.37-.92-.58 3.58-.08 6.2-1.81 6.46-1.98.39-.13.42-.26.41-.36l-.03-.09c11.09-1.59 13.81-6.33 13.83-7.01 0-.12-.07-.18-.15-.2-.2-.02-.51.09-.96.32 2.26-1.67 3.51-3.19 3.62-3.61.01-.05.01-.09 0-.13 0-.08-.03-.13-.06-.16-.06-.07-.15-.1-.28-.1-.36 0-1.14.28-2.31.79 3.37-2.37 3.79-4.18 3.8-4.2z"/><path d="M166.69 37.48c.01-.05.02-.1.01-.14 0-.06-.03-.1-.05-.12a.219.219 0 00-.16-.07c-.2 0-.62.23-1.81.89-.9.5-2.16 1.2-3.75 2.01 3.01-2.08 3.75-3.82 3.65-4.59-.03-.25-.15-.31-.24-.32-.63-.07-2.02.7-4.17 1.9-.97.54-2.05 1.15-3.24 1.77 2.32-1.6 3.63-3.1 3.75-3.74.03-.16-.02-.26-.06-.31a.145.145 0 00-.21-.01c-.94.79-9.55 4.22-12.08 5.22.73-.64 1.24-1.43 1.17-1.87-.02-.12-.12-.42-.64-.37a.09.09 0 00-.07.03c-1.86 1.29-8.82 2.7-11.11 3.09-.01 0-.01 0-.02.01-.24.07-.58.18-.97.3-1.75.56-4.68 1.49-5.49 1.49h-.08c-1.42-.1-2.74-.15-3.93-.15-4.17 0-5.51.6-5.66.68-.04-.08-.06-.16-.08-.22l-.01-.03c0-.01-.01-.01-.01-.02-.43-.93-.5-1.68-.2-2.23.35-.64 1.07-.78 1.28-.81.23-.02.4-.03.55-.03.31-.01.54-.02.91-.18.04-.02.06-.04.08-.08.1.05.18.12.24.2.09.15.1.36.02.63-.02.05 0 .11.04.15.04.04.1.05.15.03.47-.16 1.27-.82 1.18-1.55-.1-.81-1.2-1.32-3.26-1.52-.71-.71-2.1-1.18-3.51-1.18-1.51 0-5.15.57-6.34 5.89 0 .02-.01.04 0 .06-2.11-.66-5.78-1.18-7.88-1.48-.32-.05-.61-.09-.84-.12-2.97-.79-5.99-2.18-8.2-3.21-1.61-.74-2.67-1.24-3.13-1.24-.09 0-.16.02-.22.05-.08.04-.14.11-.16.2-.08.4.66 1.22 2.24 2.78.12.12.26.25.38.37-3.09-1.61-5.91-2.78-8.76-3.94-1.03-.35-2.04-.93-2.86-1.4-.76-.44-1.17-.67-1.41-.67-.12 0-.19.05-.22.1 0 .01-.01.01-.01.02-.71 1.35 2.31 4.27 3.62 5.31-2.58-1.11-3.34-1.5-3.61-1.75-.02-.02-.05-.03-.07-.04-.34-.07-.99-.67-1.57-1.21-.87-.8-1.39-1.26-1.73-1.16l-.06.03c-.16.14-.12.54-.07.86.2 1.1.91 2.52 2.29 3.68-.5-.32-.99-.69-1.42-1.01-.86-.64-1.32-.97-1.62-.97-.06 0-.12.01-.16.04-.07.04-.15.14-.14.34.04.64 1.05 2.23 2.39 3.11-.06-.02-.12-.05-.18-.07-.68-.35-1.18-.74-1.54-1.02-.33-.26-.51-.4-.68-.4-.06 0-.12.02-.16.06-.07.05-.14.17-.1.44.22 1.33 2.49 3.96 9.47 5.64-.15.02-.3.04-.44.05-.88.12-.9.17-.93.26-.05.11-.01.26.09.42.23.34 1.12 1.14 4.4 1.14.35 0 .73-.01 1.12-.03-.58.16-1.01.28-1.1.29-.05.01-.12.01-.22.03-1.62.18-1.83.27-1.88.43-.02.07-.01.15.05.24.24.36 1.53 1.14 3.99 1.28.94.05 2.22-.15 3.41-.4-.79.26-1.04.35-1.12.39-.07.03-.45.07-.73.09-.93.1-1.07.12-1.13.25-.02.05-.04.14.04.26.19.3 1.25 1.09 3.76 1.09 1.4 0 3-.24 4.77-.73-.72.32-1.71.59-2.39.78-.86.23-.99.27-.99.44.02.3.98.97 2.08 1.19.27.06.6.09.97.09.39 0 .82-.03 1.26-.1.29-.05.59-.12.91-.21-.66.38-.79.5-.81.63-.01.06.01.11.06.16.31.26.82.39 1.52.39.77 0 1.64-.15 2.29-.31-.84.47-.81.52-.74.65 0 .01.01.01.01.01.18.27.56.4 1.16.4 1.02 0 2.4-.4 2.52-.46.03-.02.23-.12.53-.26-.5.36-.76.63-.78.79a.2.2 0 00.02.13c0 .13.04.25.12.34.15.16.41.24.81.24.96 0 2.56-.45 3.88-.89-.58.38-.99.76-1 1.07 0 .03.01.06.02.09.71 1.1 2.29 1.27 3.17 1.27.87 0 1.69-.15 2.1-.32-.03.12-.07.27-.1.38-.12.43-.15.55-.08.65.03.04.09.07.13.07.04 0 .07-.01.11-.04.09-.06.27-.26.48-.5-.13.34-.26.71-.37 1.11-.1.39-.17.79-.24 1.21-.09.55-.19 1.11-.37 1.7 0 .01 0 .01-.01.02-.01.1.02.16.05.19.04.05.1.08.18.08.29 0 .92-.45 1.39-1.31-.02.14-.05.28-.07.41-.22 1.25-.25 1.53-.08 1.65.06.04.13.07.21.07.06 0 .13-.02.21-.05-.11.49-.53 1.68-2.07 1.68-1.92 0-2.51 1.28-2.56 2.01-.08.12-.17.42-.07 1.14.01.06.06.12.12.13.06.01.13-.01.16-.07.26-.42.43-.65.51-.74.11.02.28.05.51.05.54 0 1.12-.15 1.71-.46-.22.34-.32.66-.29.94.03.26.16.42.25.51-.04.19-.09.6.12.96.16.28.45.46.84.54h.03c.09 0 .15-.07.15-.15a.16.16 0 00-.05-.11c-.21-.28-.18-.52-.15-.64.47-.07 1.16-.39 1.45-1.16.25.76.71 1.09.9 1.2.04.27.22.99 1.21 1.06h.01c.09 0 .15-.07.15-.15 0-.06-.03-.1-.07-.13-.4-.34-.4-.82-.39-.99.16-.12.57-.5.68-1.09.01-.04.01-.08.01-.12.12.21.31.4.62.64.03.02.06.03.09.03.09 0 .15-.07.15-.15 0-.02-.01-.05-.02-.07-.1-.35-.12-.65-.12-.82.27.07.79.09 1.35-.4-.13.55-.06.89.04 1.11.06.12.13.21.22.26.01.05.01.15.01.22.01.43.03 1.22 1.11 1.22h.04c.06 0 .12-.04.14-.1s.01-.13-.04-.17c-.32-.28-.27-.66-.24-.82.15-.05.46-.18.69-.51.32-.46.4-1.14.23-2 .09-.07.18-.11.24-.11.07 0 .12.05.13.08.06.43.37 1.21 1.18 1.21.09 0 .18-.01.28-.03.06.04.08.09.09.13.04.2-.18.52-.26.62-.04.04-.04.11-.02.16s.08.09.14.09c.1 0 .97-.02 1.25-.75.27-.7.3-1.26.09-1.72-.17-.37-.49-.64-.97-.82-.01-.05.01-.07.02-.08.07-.1.28-.15.4-.16.26.08.87.33 1.05.62.02.04.09.14.21.14.03 0 .18-.01.2-.23.02-.34-.3-1.26-1.2-1.39h-.02c-1.06-.03-1.28-.19-1.32-.23-.01-.09-.02-.38-.05-.77.91.56 1.81.73 2.07.73.04 0 .14 0 .19-.08.01-.02.02-.04.02-.07.01-.11-.08-.24-.52-.89-.49-.72-1.4-2.05-1.33-2.46.17.07.4.23.63.41.41.31.88.66 1.35.66.15 0 .29-.04.41-.1.07-.04.1-.13.07-.2-.12-.26-.33-.35-.56-.46-.33-.15-.75-.35-1.21-1.1-.04-.07-.07-.14-.1-.21.66.54 1.75 1.28 2.85 1.28h.14c.03 0 .06-.01.08-.03.15-.11.18-.25.18-.34 0-.09-.02-.17-.07-.26.87.53 1.96 1.04 2.93 1.04.34 0 .66-.06.93-.19.02-.01.04-.03.06-.05.15-.2.2-.36.17-.53-.06-.3-.4-.5-.91-.79-.51-.3-1.23-.72-2.01-1.44 1.38.76 3.67 1.87 5.35 1.87.4 0 .75-.07 1.04-.19.02-.01.03-.02.04-.03a.43.43 0 00.13-.34c-.04-.42-.66-.96-1.72-1.72.36.12.75.18 1.16.18 1.22 0 2.4-.56 2.48-.78.01-.02.01-.05.01-.07-.02-.16-.17-.27-.48-.38 1.28-.03 2.41-.28 2.62-.6.02-.04.03-.08.02-.12-.07-.25-.23-.37-.92-.58 3.58-.08 6.2-1.81 6.46-1.98.39-.13.42-.26.41-.36-.01-.03-.01-.06-.03-.09 11.09-1.59 13.81-6.33 13.83-7.01 0-.12-.07-.18-.15-.2-.2-.02-.51.09-.96.32 2.26-1.67 3.51-3.19 3.62-3.61.01-.05.01-.09 0-.13 0-.08-.04-.13-.06-.16-.06-.07-.15-.1-.27-.1-.37 0-1.14.28-2.31.79 3.35-2.38 3.77-4.19 3.78-4.21zm-39.47 5.31c1.18 0 2.49.05 3.9.14.03 0 .07.01.1.01.85 0 3.69-.9 5.58-1.5.39-.12.72-.23.96-.3 2.3-.39 9.23-1.8 11.19-3.12h.05c.2 0 .21.08.22.12.06.37-.68 1.4-1.65 2.03-.06.04-.11.07-.17.1-.06.04-.12.07-.18.1-.15.08-.3.14-.45.19-1.77.74-7.51 2.56-10.11 2.56h-.05l-.43-.03c-.08 0-.15.06-.15.14-.01.08.05.15.13.16.13.02.28.02.43.03.57.07.82.24.82.37-.01.24-.72.7-2.31.7-.7 0-1.47-.09-2.29-.26-.07-.02-.15.03-.18.1s.01.15.07.19c1.46.75 1.46 1.01 1.46 1.02 0 .01-.01.01-.02.02-.09 0-.46.02-.95.02-.84 0-2.01-.04-2.9-.23-.27-.12-.61-.26-1.01-.39-.07-.02-.15.01-.18.07a.14.14 0 00.04.19c.23.18.57.31 1.05.42.64.3.65.46.65.46 0 .02-.05.05-.1.07-.11.01-.66.05-1.34.05-.81 0-1.47-.06-1.98-.17-.15-.05-.32-.11-.52-.16-.08-.02-.16.02-.18.1-.03.08.01.16.09.19.15.06.33.12.53.17.51.18.55.3.55.3-.01.02-.07.07-.14.09-.08.01-.47.06-.98.06-.67 0-1.27-.08-1.76-.25-.02-.01-.05-.02-.07-.03-.19-.25-.38-.48-.56-.71-.04-.04-.07-.09-.11-.13-.04-.04-.07-.09-.11-.13-.76-.89-1.47-1.55-2.11-1.97-.07-.1-.13-.17-.18-.23.48-.16 1.97-.56 5.35-.56zm13.48 1.93c.02.01.85.34 2.01.55.68.2.92.33 1.36.68-.38.19-2.35.16-4.06-.12-.41-.12-.89-.25-1.44-.41-.21-.06-.43-.12-.66-.19-.07-.02-.15.02-.18.09s0 .16.07.19c.15.08.34.15.55.23.42.15.96.27 1.56.38l.22.06c2.23.63 2.33.67 2.42.95-.17.09-.94.16-2.55.01-.83-.08-1.64-.19-2.38-.32-1.14-.2-2.08-.44-2.59-.67-.13-.09-.27-.18-.41-.29a.154.154 0 00-.2.02c-.05.05-.06.14-.02.2.07.1.21.2.41.3.9.61 1.61.99 2.23 1.29.19.09.38.18.56.27.3.14.6.28.88.43-.71.24-1.42.33-2.12.31-2.17-.06-4.28-1.17-5.88-2.19.18-.01.3-.02.3-.02.01 0 .02 0 .03-.01.03-.01.31-.1.33-.35.01-.12-.05-.24-.17-.35.76.09 1.59.12 2.22.12.58 0 .98-.02.99-.02h.03c.09-.02.24-.1.27-.27.02-.17-.07-.42-.82-.89.51.07.99.11 1.45.11 1.68 0 2.59-.49 2.61-.98.01-.1-.02-.28-.24-.43.78-.08 1.71-.25 2.68-.47.01.04.03.06.06.09.01.01.01.01.02.01.04.02 5.52 1.13 7.97.77-1.53 1.51-3.78 1.48-5.4 1.19-.27-.08-.6-.17-1.02-.28-.28-.08-.6-.16-.98-.27-.08-.02-.16.02-.18.1-.04.06-.01.15.07.18zm-13.13 3.08c.08.18 3.57 2.36 4.88 3.16.61.38 1.18.71 1.69 1.02 1.72 1.01 2.9 1.63 3.52 1.83-.15.06-.39.11-.75.13-1.1.06-2.5-.19-3.2-.4-.23-.07-.39-.13-.43-.18a.078.078 0 00-.04-.04l.05-.08-1.44-.68-.01-.01c-1.97-1.21-6.3-4.74-6.67-5.65a6.5 6.5 0 001.6.19c.6 0 1.03-.06 1.04-.07.01 0 .02 0 .03-.01.04-.01.35-.13.35-.38 0-.06-.02-.12-.06-.18.37.04.79.06 1.26.06.22 0 .43-.01.62-.01.01.02.02.05.04.06a23.83 23.83 0 005.42 3.42c2.13.96 3.98 1.4 5.32 1.71.89.21 1.55.37 1.86.58-1.31 1.52-4.74.53-8.06-.99-2.33-1.06-4.6-2.38-6.06-3.27-.83-.51-.83-.51-.93-.42-.04.07-.06.15-.03.21zm-26.43 4.99c-.41.06-.83.09-1.21.09-.35 0-.66-.03-.91-.08-.93-.19-1.55-.63-1.76-.84.15-.05.43-.13.69-.2 1.13-.31 2.83-.77 3.34-1.4.04-.05.04-.13.01-.18-.04-.06-.11-.08-.17-.06-2.13.66-4.03.99-5.64.99-2.16 0-3.22-.62-3.46-.89.19-.04.56-.07.82-.1.54-.05.74-.08.83-.12 0 0 .01 0 .01-.01.11-.05 1.08-.37 1.93-.65 2.4-.78 2.53-.84 2.59-.9a.15.15 0 00.03-.17c-.02-.06-.09-.1-.15-.1-.05 0-.15.03-.64.16-1.22.33-4.08 1.1-5.92 1.1-.1 0-.19 0-.28-.01-2.4-.13-3.48-.86-3.71-1.1.21-.06.74-.14 1.58-.24.1-.01.18-.02.22-.03.26-.02 4.96-1.37 5.19-1.56.1-.08.07-.17.06-.2-.01-.03-.05-.11-.18-.11-.17 0-.74.16-1.67.42-.88.24-1.87.52-2.16.54-.45.02-.89.04-1.29.04-2.94 0-3.84-.65-4.08-.93-.06-.07-.09-.13-.11-.16.31-.08 1.38-.22 1.76-.22h.08c.04 0 .1.01.4-.04.2-.02.53-.07 1.01-.17.02 0 2.05-.38 2.14-.44.06-.04.09-.11.07-.18a.169.169 0 00-.16-.11c-.09 0-.36.06-1.05.21-.33.07-.71.15-1.05.22-.42.08-.76.13-.99.17-.04 0-.07.01-.1.01h-.02c-.01 0-.01-.01-.02-.01-3.09-.67-5.57-1.56-7.38-2.66-1.68-1.02-2.34-1.96-2.59-2.43-.18-.35-.21-.57-.2-.66.09.04.29.19.46.33.37.29.88.69 1.6 1.06.01 0 .01.01.01.01 1.16.44 2.95 1.11 5.34 1.98 1.41.56 2.68 1.02 3.79 1.38.02.01.04.01.05.01.07 0 .14-.05.15-.13.01-.09 0-.12-.11-.17-.01 0-.02-.01-.03-.01-.05-.02-.11-.04-.2-.07l-.65-.24c-.7-.25-1.75-.63-2.9-1.05-1.36-.54-2.6-1.07-3.42-1.43-.4-.17-.72-.31-.92-.39-1.34-.57-2.5-2.07-2.82-2.95-.07-.2-.08-.3-.07-.34.21.01.83.47 1.43.91.88.66 1.98 1.48 2.98 1.84.1.03.85.32 1.67.63.27.11.62.24 1.05.4 6.66 2.54 7.23 2.74 7.31 2.74.06 0 .12-.04.15-.1.01-.04.01-.09-.01-.13-.07-.16-.61-.38-4.51-1.78-.99-.35-2.01-.72-2.83-1.02l-1.05-.4c-.45-.18-.61-.26-.67-.3-.01-.01-.02-.01-.03-.01-2.93-1.16-3.96-3.28-4.27-4.14-.22-.63-.25-1.08-.22-1.24.27.06.88.63 1.38 1.09.64.59 1.25 1.15 1.67 1.27.51.46 2.25 1.22 10.84 4.8.04.01.07.02.11 0 .06-.02.1-.08.1-.14 0-.04 0-.07-.1-.14v-.01c-.02-.01-.03-.01-.05-.02-.25-.15-.94-.45-2.81-1.27-1.55-.68-3.31-1.45-3.69-1.65-.77-.43-4.55-3.9-3.99-5.2.19.02.7.31 1.24.62.83.48 1.86 1.07 2.9 1.43 3.06 1.24 6.08 2.5 9.44 4.3.02.01.04.02.07.02l.02.02c.07.03.71.34 1.59.71-.41.24-1.45.75-2.66.71-.05 0-.1.02-.12.06s-.04.09-.03.13c.08.29.26.52.54.67.75.4 2.06.16 2.83-.04-.56.5-1.52 1.28-2.27 1.46-.06.01-.1.06-.12.12-.01.06.01.12.06.15.64.49 2.82.42 3.84.23-.84.82-1.53 1.43-1.7 1.45a.146.146 0 00-.16.13c-.01.05-.01.16.14.25.35.2 1.84.18 2.92-.04-.7.43-1.24.75-1.35.79-.07.01-.12.06-.13.13-.01.08.04.15.12.17 1.25.3 3.3-.09 5.13-.75-.09.05-.17.11-.25.16-1.26.8-1.72 1.09-2.83 1.54-.06.02-.1.09-.1.15.01.07.05.12.12.14.23.05.44.11.66.18 1.14.34 2.32.69 6.38-.91-1.02.69-2.1 1.35-3.17 1.98a.17.17 0 00-.06.06c-.02.04-.08.18.12.33.1.08.35.19.73.26-.02.01-.03.01-.04.02-1.82 1.61-3.23 2.04-4.46 2.26zm-.29-9.99c-.01 0-.01.01-.02.01s-.01 0-.02.01-.02.01-.03.02c0 0-.01 0-.01.01-.34.36-.69.72-1.03 1.07-.11.09-.21.17-.3.22-.2.11-.99.23-1.93.24-.74.01-1.35-.05-1.73-.16 1.13-.47 2.44-1.78 2.5-1.85.05-.05.06-.13.02-.19-.04-.06-.11-.09-.18-.06-.02.01-2.23.75-3.21.23a.772.772 0 01-.31-.28c1.46-.03 2.61-.76 2.78-.87.61.25 1.3.51 1.99.74.4.13.81.25 1.19.34.41.1.79.16 1.13.19-.1.06-.21.11-.31.15-.08.03-.15.06-.22.09-.17.06-.31.09-.31.09zm2.61.87c.16 0 .32-.01.49-.02.12-.01.24-.02.37-.04-.05.04-.1.09-.15.13l-.18.15c-.23.19-.4.32-.4.33a.18.18 0 00-.05.07c-.19.1-1.73.86-2.38 1.4-.54.45-2.75.57-3.43.45.52-.34 1.45-1.23 2.24-2.04.38-.33.79-.79.95-.98.01.01.03.01.05.02.44.18 1.29.52 2.49.53zm8.95 3.73c-.01.01-.02.01-.02.01-.02.01-.03.03-.05.04-3.02 2.86-5.44 2.93-6.34 2.83-.43-.05-.69-.15-.81-.22 1.8-1.06 3.61-2.2 5.14-3.46.07-.05.13-.11.2-.16.76-.59 1.31-1.18 1.65-1.56-.18.68-.23 1.55.23 2.52zm-9.54 6.37c-.55 0-.96-.08-1.21-.24.24-.18.94-.57 1.51-.9 2.2-1.23 2.86-1.67 2.7-2.01-.01-.02-.02-.04-.04-.05.2.03.43.05.69.05 1.38 0 3.52-.56 6.03-2.94.19.33.43.66.75 1-.24.26-.45.51-.65.74-.02 0-.03-.01-.05 0a.15.15 0 00-.13.12c-.28.39-4.32 2.57-6.45 3.66-.12.06-1.79.57-3.15.57zm14.24 2.62c-.01.01-.01.02-.01.02-.03.01-.06.02-.09.04-.22.15-1.1.37-2.12.37-.8 0-2.24-.14-2.88-1.08.08-.27.87-.9 2.51-1.69.18-.07.51-.21.63-.28.11-.06.09-.16.08-.18a.15.15 0 00-.15-.11c-.02 0-.08 0-.68.29-1.06.42-4.13 1.52-5.59 1.52-.4 0-.54-.09-.59-.14-.02-.02-.05-.07-.04-.16 0-.03 0-.06-.01-.09.12-.24 1.28-1.07 3.61-2.37.01 0 .01-.01.02-.01h.01c.04-.03.1-.08.08-.17-.02-.09-.14-.14-.22-.1-.04.02-.88.44-1.69.84-.95.47-1.93.96-2 1-.11.05-1.4.43-2.38.43-.38 0-.66-.06-.82-.17.35-.23 1.46-.83 2.54-1.41 2.37-1.28 3.74-2.05 4.52-2.53-.47.59-.73.98-.73 1.11 0 .06.03.11.08.14.05.03 1.32.64 3.55-1.05.3.34.56.66.79.97 2.08 2.75 1.79 4.27 1.63 4.7-.02.07-.04.11-.05.11zm1.11 5.78h-.01c-.02-.18.09-.8.18-1.35.11-.63.25-1.41.32-2.14.05-.38.07-.79.04-1.2-.01-.09-.01-.17-.02-.25a.155.155 0 00-.17-.13c-.08.01-.14.08-.14.17.01.08.01.16.02.23.02.32.01.69-.04 1.14-.22 1.6-1.15 2.5-1.52 2.68.15-.55.24-1.08.33-1.59.07-.42.14-.81.24-1.19.12-.44.27-.85.41-1.21.14-.36.26-.67.3-.92.01-.07-.03-.15-.1-.17-.07-.02-.15.01-.18.08-.16.32-.47.72-.71.99 0-.01.01-.02.01-.04.1-.35.15-.54.14-.66.02-.01.03-.03.05-.04.04-.06.62-1.01-.25-2.99l-.03-.01v-.05c0-.03-.01-.05-.02-.07 0 0-.24-.41.21-1.75.31.29.63.46.88.58.16.08.29.15.38.23.09.08.26.13.61.24.85.27 2.41.77 2.58 1.93 0 .02.01.04.01.05 0 .03.01.05.03.07l-.01.4c-.04 1.84-.07 3.43-.24 4.61 0 .02 0 .05.01.07.23.71.24.85.26 1.3 0 .08.01.18.01.28-.27-.2-.55-.53-.81-.88-.07-.1-.15-.2-.22-.3-.08-.11-.15-.23-.22-.34l-.38-.61c-.03-.06-.1-.08-.16-.07-.06.01-.11.07-.12.13-.06.6-.4 1.33-.76 1.88-.11.16-.21.31-.32.44-.09.11-.18.2-.26.27-.13.12-.24.19-.33.19zm3.89-.47c-.02-.23-.03-.4-.03-.54-.02-.45-.03-.62-.27-1.35.16-1.17.2-2.72.24-4.51 1.78 3.15 2.36 4.47 1.87 6.83-.01.07.02.15.1.17.2.07.42-.01.65-.25l.06-.06.07 1.21c-.04.06-.13.19-.21.28h-.6c-.55 0-1.27.04-1.81.32-.28-.12-.86-.36-1.19-.58-.11-.29-.08-1.35-.02-2.17.3.37.63.69.94.83.02.01.04.01.06.01.09 0 .15-.07.15-.15 0-.01 0-.03-.01-.04zm-.73 3.25c-.14.14-.3.26-.46.35-.04.02-.07.06-.08.1-.01.04 0 .09.03.12.35.47.5.93.43 1.35-.1.59-.6.93-.6.94-.04.02-.06.06-.07.1-.01.03-.09.51.18.98a.893.893 0 01-.51-.75c0-.06-.04-.12-.09-.14-.01 0-.88-.38-.96-1.89v-.07c-.01-.08-.07-.14-.15-.14h-.01c-.08 0-.15.07-.15.16v.07c.06 1.62-1.35 1.78-1.41 1.79-.05.01-.1.04-.12.08-.01.02-.15.31-.03.69a.838.838 0 01-.29-.27c-.21-.35-.07-.81-.07-.82a.162.162 0 00-.07-.18s-.17-.11-.2-.35c-.03-.26.09-.72.85-1.44.06-.05.06-.15.01-.21-.05-.06-.14-.07-.21-.03-.85.61-1.65.92-2.38.92-.22 0-.38-.03-.48-.05-.02 0-.04-.01-.06-.01-.05-.01-.1.01-.13.04-.01.01-.13.13-.36.48-.01-.37.05-.48.06-.5a.16.16 0 00.05-.11c0-.07.09-1.77 2.26-1.77 2.07 0 2.38-1.91 2.4-2.14l.04-.12c.52-.49 1.09-1.48 1.3-2.32.16.26.35.56.57.85-.04.49-.17 2.29.04 2.71.01.02.03.04.05.05.29.2.76.42 1.09.56-.07.05-.13.11-.18.18-.17.24-.27.5-.29.79zm.04.9c-.06-.12-.13-.24-.21-.36.06-.04.12-.09.18-.13l.03.2c-.01.1 0 .2 0 .29zm7.25-2.55c.38.06.6.29.72.47.07.1.12.21.15.3-.37-.31-.95-.49-1.03-.51-.02-.01-.04-.01-.05-.01-.05 0-.49.03-.66.3-.05.08-.11.22-.03.42.02.04.05.08.09.09.43.15.72.38.87.69.17.37.14.86-.1 1.48-.12.33-.43.46-.66.51.09-.17.17-.38.13-.58a.514.514 0 00-.29-.37.118.118 0 00-.1-.01c-.1.02-.19.03-.27.03-.76 0-.87-.93-.88-.97 0-.02-.01-.03-.01-.04-.05-.1-.19-.28-.42-.28-.16 0-.33.08-.51.25-.04.04-.06.09-.05.14.17.81.11 1.45-.16 1.85-.24.36-.58.41-.59.42-.05.01-.1.04-.12.1-.01.02-.18.49.06.93-.48-.12-.49-.52-.49-.89 0-.17-.01-.31-.06-.41a.127.127 0 00-.09-.07c-.02-.01-.08-.06-.13-.18-.08-.2-.15-.68.26-1.6.03-.07 0-.16-.07-.2a.185.185 0 00-.07-.02c-.05 0-.1.02-.13.07-.51.79-1.01.95-1.34.95-.22 0-.37-.08-.37-.08a.17.17 0 00-.14 0c-.04.02-.08.07-.08.12 0 .01-.04.29.03.71-.34-.34-.35-.62-.35-1.38v-.03c-.03-.15-.04-.29-.04-.42 0-.09.01-.18.03-.26.04-.17.1-.32.2-.44.08-.1.18-.18.3-.25.07-.04.14-.08.22-.11.47-.2 1.08-.23 1.55-.23h.29c.3 0 .43.01.51-.07.14-.15.29-.39.3-.4.02-.03.03-.06.02-.09l-.1-1.65c.26-.45.47-1.03.58-1.55.34.78.87 1.34 1.43 1.75.04.56.07.98.07 1.01-.02.31.51.48 1.58.51zm.87-3.48c.14.06.23.11.3.17-.03.01-.06.01-.1.01-.37 0-.79-.32-1.17-.6-.32-.24-.59-.44-.84-.49-.04-.01-.08 0-.11.02-.08.05-.14.13-.16.24-.1.49.56 1.51 1.37 2.7.13.19.27.4.36.54-.39-.06-1.16-.27-1.9-.78-.05-.04-.11-.08-.16-.12-.05-.04-.11-.08-.16-.13a4.009 4.009 0 01-1.34-2.11.16.16 0 00-.15-.12h-.02c-.08.01-.13.08-.13.16.03.43-.13 1.09-.37 1.66-.04.1-.09.2-.14.29-.04.09-.09.17-.14.25-.08.13-.16.25-.25.34-.06.07-.12.12-.18.15.48-2.59-.38-4.1-2.21-7.32l-.02-.02c-.18-1.38-1.88-1.91-2.79-2.21-.21-.07-.45-.14-.49-.18-.11-.1-.27-.18-.44-.27-.29-.15-.64-.33-.97-.7-.04-.04-.09-.06-.14-.05-.05.01-.1.05-.11.1-.23.62-.32 1.08-.36 1.42-.35-.61-.83-1.3-1.47-2.07l-.35-.41a.155.155 0 00-.21-.02c-1.12.88-1.97 1.13-2.49 1.19-.33.04-.57 0-.71-.04.14-.24.61-.92 2.15-2.65.05-.06.05-.15-.01-.21-.66-.67-1.88-1.93-.87-4.48.04-.1.07-.19.1-.27.05-.13.07-.23.05-.32a.154.154 0 00-.17-.12c-.08.01-.14.09-.13.18.01.05-.07.25-.13.41-.03.06-.05.13-.08.21-.04 0-.08.02-.1.05-.54.66-1.17 1.28-1.87 1.88a10.387 10.387 0 01-2.41 1.47c-3.99 1.59-5.13 1.25-6.23.92-.08-.02-.15-.05-.23-.07.85-.37 1.35-.69 2.45-1.38.55-.35 1.24-.78 2.19-1.37.07-.04.09-.14.05-.21a.158.158 0 00-.21-.06c-2.02 1.14-4.92 1.89-6.56 1.74.69-.39 2.11-1.27 4.24-2.63l.03-.03c.27.08 1.03.25 2.02.13a5.445 5.445 0 001.19-.27c-.12.15-.22.27-.3.38-.06.08-.11.15-.15.21-.06.09-.1.14-.1.15-.03.05-.04.1-.01.15.02.05.07.08.13.09l1.03.06.37.02h.01c.08 0 .15-.06.15-.14a.148.148 0 00-.14-.16l-.44-.02-.68-.04c.04-.05.09-.11.14-.18.16-.21.38-.48.65-.79.05-.05.05-.13.01-.19a.154.154 0 00-.19-.05c-.62.3-1.23.44-1.76.49-.19.02-.36.03-.53.03-.48 0-.86-.06-1.11-.11.08-.07.18-.15.29-.24.06-.05.12-.1.18-.16.15-.12.3-.26.43-.38.05-.05.06-.12.03-.18s-.1-.09-.17-.08a6.228 6.228 0 01-2.2.07c-.52-.08-.94-.22-1.26-.34.07-.03.15-.06.24-.1a2.83 2.83 0 00.72-.44c.05-.04.07-.11.04-.18s-.09-.1-.15-.09c-1.92.15-6.56-2.08-6.6-2.1h-.01c-.07-.13-.3-.37-.94-.99-.66-.65-2.19-2.16-2.16-2.49.01 0 .02-.01.02-.01s.01-.01.05-.01c.39 0 1.54.53 3 1.21 2.22 1.03 5.26 2.43 8.26 3.23h.02c.24.04.53.08.85.12 2.39.34 6.84.97 8.62 1.76.07.03.16 0 .2-.07.04-.07.02-.16-.05-.2-.29-.2-.41-.3-.5-.37-.01-.01-.02-.01-.03-.02 1.16-5.02 4.6-5.56 6.02-5.56 1.09 0 2.59.35 3.32 1.12.02.03.06.04.1.05 2.54.24 3 .89 3.04 1.26.05.41-.34.86-.72 1.1a.894.894 0 00-.12-.57c-.25-.39-.81-.49-1.35-.57-.12-.02-.24-.04-.35-.06-.22-.08-.45-.16-.67-.24-.07-.03-.15.01-.19.07s-.01.15.05.2c.21.14.5.22.73.26l.2.07c.15.05.3.1.45.16-.11.02-.23.02-.36.02-.16.01-.33.01-.57.04-.25.03-1.09.2-1.51.96-.34.62-.29 1.43.14 2.41-.57-.58-.79-1.17-.79-1.18a.155.155 0 00-.29.11c.01.04.28.76 1 1.42.19.18.41.35.67.5.05.03.1.06.16.1.15.1.3.22.46.35.27.23.56.5.83.78.21.21.41.44.6.65.01.01.02.02.02.03.03.03.06.07.09.1.04.04.07.09.11.13.15.17.28.33.39.48.1.12.18.24.25.34.12.16.19.29.22.35.08.28.32 1.43.51 2.47.01.07.02.13.04.2.01.07.02.13.04.2.09.48.15.91.18 1.18.01.13.02.22.01.26-.01.08.04.16.13.17h.02c.07 0 .14-.05.15-.13.02-.15-.05-.66-.16-1.29l-.03-.2c-.01-.06-.02-.13-.04-.2-.13-.73-.3-1.54-.42-2.1.96 1.12 3.19 2.92 4.85 4.14.24.18.47.34.68.49.31.22.58.4.8.53 0 .01.01.01.01.02.08.12.17.25.28.37.11.13.24.26.38.38.19.17.39.34.6.5.16.12.32.25.47.37.47.36 1.09.83 1.19 1.09-.06 0-.12.01-.18.01-2.03 0-4.58-1.65-6.02-3.06l-.11-.11-.11-.11c-.34-.36-.6-.69-.75-.97-.03-.05-.09-.09-.15-.08-.06.01-.11.05-.13.11-.07.26.19.65.69 1.19.03.04.07.07.1.11.03.04.07.07.11.11.24.25.52.52.83.83.72.71 1.8 1.77 1.73 2.07-.01.04-.1.08-.27.08-.68 0-2.38-.62-3.9-1.77-.04-.03-.08-.07-.12-.1-.04-.03-.08-.06-.12-.1-.42-.54-.92-1.06-1.49-1.55-.06-.05-.15-.05-.2 0-.06.05-.07.14-.02.2.38.54.87 1.05 1.46 1.54l.03.03c.02.03.04.06.07.09l.09.12c.81 1.11 1.18 2.13 1.52 3.03l.06.15c.02.07.05.13.07.2.03.07.05.13.08.2.11.29.23.57.37.83.53.88 1.01 1.1 1.36 1.26zm9.45-1.57c0 .03 0 .05-.02.08-.24.1-.54.15-.89.15-2.15 0-5.5-1.98-6.15-2.38a.155.155 0 00-.2.03c-.05.06-.05.14 0 .2 1.1 1.27 2.15 1.88 2.85 2.29.41.24.73.42.76.59.01.07-.02.15-.09.25-.23.1-.49.14-.77.14-1.74 0-3.91-1.77-4.33-2.12-.03-.02-.06-.04-.1-.04-.02 0-.04.01-.06.01-.05.02-.09.08-.09.14 0 .15.15.27.52.57.33.26.89.71.89.95 0 .02-.01.05-.03.07h-.07c-1.36 0-2.73-1.24-3.13-1.64-.06-.15-.12-.3-.17-.46-.29-.78-.6-1.64-1.19-2.57 1.38.93 2.86 1.48 3.6 1.48.41 0 .54-.17.57-.31.08-.36-.38-.92-1.21-1.76 1.43 1.03 3.21 1.89 4.71 1.89.12 0 .24-.01.35-.02.06-.01.11-.05.13-.11.08-.24-.1-.5-.41-.8-.17-.16-.38-.32-.61-.51l-.27-.21c-.16-.12-.33-.25-.49-.38-.29-.23-.58-.47-.8-.71l.72.34c0 .03.01.06.02.09.06.09.25.18.51.27.21.21.45.43.72.65.22.18.46.37.71.56.3.22.6.44.91.66.21.15.42.29.62.43 1.2.89 2.45 1.76 2.49 2.18zm1.86-2.41c-.29.18-1.16.55-2.12.55-.46 0-.88-.08-1.26-.24-.24-.1-.74-.36-1.45-.73-.67-.48-1.35-.97-1.88-1.44.33.07.7.13 1.07.18.01.04.04.07.08.09 1.22.61 2.56.99 3.96 1.15l.08.02c.65.14 1.31.3 1.52.42zm7.94-3.95c-.02.01-.03.01-.04.02-.03.02-2.76 1.94-6.54 1.94-.38 0-.76-.02-1.13-.06-.27-.07-.57-.14-.91-.23-.61-.15-1.34-.33-2.21-.55-.08-.02-.16.02-.18.1-.02.08.01.16.09.19 1.02.41 2.09.68 3.16.79 1.44.36 1.89.5 2.01.64-.24.15-1.1.42-2.52.42-.4 0-.81-.02-1.22-.07-.79-.18-1.91-.44-3.12-.85.11.01.22.01.32.01h.06c.85 0 1.38-.15 1.59-.43.04-.05.04-.12.01-.17s-.09-.08-.15-.07c-.32.04-1.89-.8-3.7-1.86-.62-.36-1.26-.75-1.9-1.14.66.34 1.33.67 2.01.98 2.24 1.02 4.47 1.79 6.17 1.79 1.05 0 1.89-.29 2.41-.99.03-.04.03-.09.02-.13 1.83-.05 3.58-.17 5.21-.37h.03c.26 0 .44.01.56.02-.02.02-.02.02-.03.02zm12.24-9.39c-.34.15-.69.32-1.04.48-1.79.82-3.81 1.76-5.44 2.39-.71.24-1.45.48-2.2.71-.08.02-.12.1-.1.18.02.08.1.13.18.11.56-.12 1.29-.35 2.23-.72 2.5-.87 4.7-1.84 6.52-2.89 1.71-.79 3.58-1.62 4.11-1.62h.03v.01c-.11.4-2.64 3.52-7.68 5.93-1.8.82-3.54 1.44-5.33 1.9-2.17.53-4.44.79-6.74.79-2.21 0-4.49-.25-6.78-.73-.08-.02-.16.03-.18.12s.03.16.11.18c2.25.54 4.52.81 6.75.81 2.31 0 4.64-.29 6.91-.87 1.86-.45 3.68-1.1 5.38-1.91a45.14 45.14 0 003.34-1.71c.74-.4 1.34-.74 1.66-.82-.16.44-.93 1.64-2.71 2.88-3.46 2.41-8.35 3.41-11.85 3.83-1.02 0-2.82.13-5.35.37-.04 0-.08.03-.1.06-.37-.22-1.01-.37-1.88-.57-1.32-.31-3.13-.74-5.22-1.67-1.07-.48-2.22-1.09-3.41-1.9 1.2.59 2.54 1.06 3.92 1.14.91.05 1.84-.07 2.75-.44.01-.01.02-.01.03-.02.22.01.53.01.88.01.75 0 1.65-.02 2.08-.08.08-.01.14-.09.13-.17a.155.155 0 00-.17-.13c-.65.09-2.51.09-3.04.06-.35-.2-.71-.37-1.09-.55-.17-.08-.34-.16-.52-.25-.35-.17-.73-.37-1.16-.62.42.11.88.21 1.38.3 2.13.39 4.68.58 5.25.3.22-.1.19-.27.17-.32-.1-.35-.18-.46-1.07-.74.74.05 2.21.1 2.54-.2.09-.08.11-.19.07-.3a.21.21 0 00-.04-.06c-.19-.15-.34-.27-.49-.36 1.65.11 3.59-.19 4.89-1.78.04-.05.05-.13.01-.18-.04-.06-.11-.08-.17-.06-1.74.52-6.66-.34-7.94-.59 2.48-.6 5.13-1.49 6.23-1.95.24-.08.49-.2.73-.35l.05.02c.03.01.07.01.1 0 .45-.18 10.58-4.15 12.6-5.37-.35.8-2.79 3.4-7.39 5.58-2.58 1.13-4.95 1.93-7.25 2.43-.08.02-.13.1-.12.18.02.08.1.13.18.12 2.58-.54 5.04-1.37 7.31-2.44 2.82-1.24 5.27-2.61 7.24-3.71 1.87-1.05 3.35-1.88 3.93-1.87.02.06.04.22-.03.5-.65 2.57-5.35 5.07-6.77 5.77a78.96 78.96 0 01-10.78 3.92c-.97.27-1.99.54-3.03.79a.15.15 0 10.07.29c1.01-.24 2.04-.51 3.04-.8 4.32-1.2 7.97-2.53 10.82-3.94 3.28-1.47 5.76-2.85 7.24-3.67.67-.37 1.26-.7 1.53-.81-.16.5-1.09 2.57-5.32 5.01zm-37.38 11.59c.01.08-.05.16-.14.17h-.01c-.08 0-.14-.06-.15-.14 0 0-.02-.19-.15-.47-.1-.23-.28-.54-.57-.86a4.47 4.47 0 00-.49-.47c-1.19-.99-1.5-2.25-1.51-2.3-.02-.08.03-.16.11-.18s.17.03.18.11a4.498 4.498 0 00.93 1.68c.14.16.3.31.48.46 1.21.99 1.31 1.96 1.32 2zm-3.28-16.21c.01-.02.02-.05.02-.07 0-.19-.32-.69-1.05-.69-.51 0-1.14.24-1.86.71-.05.04-.08.1-.06.17.02.06.07.11.14.11.32.02.65.08.96.14.33.07.65.13.93.13.44 0 .74-.16.92-.5zm-.92.19c-.25 0-.55-.06-.87-.12a8.96 8.96 0 00-.55-.1c.51-.29.95-.43 1.31-.43.47 0 .68.26.73.37-.12.2-.32.28-.62.28z"/><g><path fill="none" d="M172 160V32c0-6.6-5.4-12-12-12H32c-6.6 0-12 5.4-12 12v128c0 6.6 5.4 12 12 12h128c6.6 0 12-5.4 12-12z" opacity=".4"/><path fill="none" d="M0 0v192h192V0H0z"/><path fill="#DFDFDF" d="M160 20c6.6 0 12 5.4 12 12v128c0 6.6-5.4 12-12 12H32c-6.6 0-12-5.4-12-12V32c0-6.6 5.4-12 12-12h128m0-8H32c-11.03 0-20 8.97-20 20v128c0 11.03 8.97 20 20 20h128c11.03 0 20-8.97 20-20V32c0-11.03-8.97-20-20-20z"/><path fill="#FFF" fill-opacity=".2" d="M160 20H32c-6.6 0-12 5.4-12 12v1c0-6.6 5.4-12 12-12h128c6.6 0 12 5.4 12 12v-1c0-6.6-5.4-12-12-12z"/><path fill="#212121" fill-opacity=".1" d="M160 172H32c-6.6 0-12-5.4-12-12v-1c0 6.6 5.4 12 12 12h128c6.6 0 12-5.4 12-12v1c0 6.6-5.4 12-12 12z"/><radialGradient id="a" cx="23.768" cy="23.933" r="204.625" gradientUnits="userSpaceOnUse"><stop offset="0" stop-color="#fff" stop-opacity=".1"/><stop offset="1" stop-color="#fff" stop-opacity="0"/></radialGradient><path fill="url(#a)" d="M160 172H32c-6.6 0-12-5.4-12-12V32c0-6.6 5.4-12 12-12h128c6.6 0 12 5.4 12 12v128c0 6.6-5.4 12-12 12z"/></g></svg>