<svg xmlns="http://www.w3.org/2000/svg" width="192" height="192"><path fill="#319208" d="M160 20H32c-1.7 0-3.4.4-4.9 1.1L52.4 40H172v-8c0-6.6-5.4-12-12-12zM29 171.6c1 .3 2 .4 3 .4h128c6.6 0 12-5.4 12-12v-6H52.4L29 171.6z"/><path fill="#FFD200" d="M52.4 154H172v-22.5H82.5L52.4 154zM83 63h89V40H52.4L83 63z"/><path fill="#DE2010" d="M113.8 86.1H172V63H83l30.8 23.1zM81.5 132H172v-24h-58.2l-32.3 24z"/><path d="M113.93 86.1l-.13-.1L83 63 52.4 40 27.1 21.1c-1.3.6-2.4 1.4-3.4 2.3l98.9 74.2-96.8 72.6c1 .6 2.1 1.1 3.3 1.4L52.4 154l30.1-22.5 31.3-23.5H172V86.1h-58.07z"/><path fill="#FFF" d="M122.5 97.6L23.7 23.4C21.4 25.6 20 28.6 20 32v128c0 4.3 2.3 8.1 5.7 10.2l96.8-72.6z"/><path fill="#DE2010" d="M76.4 99l18.8-13.4-21.7-3.1-9.7-19.7-9.7 19.7-21.7 3.1L51.3 99l-4.2 19.8 16.7-9.6 16.7 9.6z"/><path fill="#FFC618" d="M58.3 87.7c2 4.4 2.5 4.7 7.6 6.5 5.1 1.7 19.5 3.4 20.9 3.6-.9-.9-17.1-12.9-20.5-15.3C63 80.1 62 79 62 79s-3-5.4-4-7-2.9-3.8-5.5-3.8c-2.5 0-4 1.5-4.8 4.1-.4.1-2.5 1.4-2.5 2.8.6-.1 4.5-1.2 5.9 3.2 1.3 4.4 1.4 11.6 0 15.2s-3.5 6.3-3.5 9.4c0 .4.3 1.3 1 1.3.3 1.4 2.3 11.2 2.3 11.2h29l4.6-17.8"/><path d="M86.9 97.7c-1-1-17.5-13.2-20.5-15.4s-4.1-3.3-4.2-3.4c-.2-.4-3-5.5-4-7-1.1-1.8-3.1-3.9-5.6-3.9-2.4 0-4.1 1.3-4.9 4.1-.6.2-2.6 1.5-2.5 2.9v.2h.4c1-.2 4.2-.8 5.4 3.1 1.3 4.4 1.3 11.6 0 15-.4 1.2-1 2.2-1.5 3.3-1 2-2 4-2 6.1 0 .5.4 1.4 1.1 1.5.4 1.9 2.3 11 2.3 11.1v.2h29.4l1.82-7.32.08-.08-.05-.05L84.7 97.8c.9.1 1.6.2 2 .2l.6.1-.4-.4zM51.4 78.1c-.8-2.8-2.8-3.9-5.8-3.4.2-1.1 2-2.2 2.3-2.3h.1v-.1c.8-2.6 2.3-3.9 4.6-3.9 1.1 0 3.2.5 5.3 3.7.87 1.39 3.23 5.54 3.85 6.69-1.77.68-7.97 3.61-9.43 4.34-.16-1.82-.47-3.57-.92-5.03zm-2.52 26.19c.95-.06 5.68-.35 7.43-.39.2 3.77 1.1 10.05 1.26 11.2H51.2c-.28-1.23-1.81-8.87-2.32-10.81zm10.32-4.75v.16c.1 0 13.47 0 24.13 2.15l-.93 3.61c-1.14-.25-2.38-.47-3.69-.66l-.1-.1-.1.07c-1.6-.23-3.3-.42-5.02-.57l-.08-.1-.1.08c-1.75-.15-3.51-.27-5.2-.37l-.11-.11-.13.11c-1.93-.1-3.76-.17-5.39-.22l-.09-.09-.1.08c-2.68-.07-4.76-.08-5.68-.08l-.32-.3v.3c-.37.01-.85.02-1.4.05-.02-.33-.02-2.21 4.31-4.01zm-1.8 8.02l1.59 1.44c-.61 0-1.09-.01-1.43-.01-.06-.47-.11-.95-.16-1.43zm20.91-.1l-2.88 2.2-2.37-2.79-2.92 2.41-2.6-2.71-2.79 2.48-2.6-2.69-2.58 2.58-2.22-2.03c-.1-.96-.18-1.89-.24-2.72l2.5 2.4 3-2.6 2.5 2.7L68 104.2h.03l2.49 2.89 2.9-2.5 2.3 2.7 2.9-2.1 3.09 2.99-.48 1.84-2.92-2.56zm2.63 2.89c-1.59-.22-3.26-.41-4.95-.57l2.3-1.77 2.65 2.34zm-6.06-.67c-1.41-.12-2.81-.22-4.19-.3l2.31-1.9 1.88 2.2zm-5.31-.36c-1.5-.08-2.94-.14-4.28-.19l2.22-1.97 2.06 2.16zm-5.38-.22c-1.57-.05-2.97-.07-4.1-.09l2.02-2.04 2.08 2.13zm-7.14-5.2c.99 0 2.69.02 4.81.07l-2.46 2.13-2.35-2.2zm5.83.1c1.4.04 2.93.1 4.54.18L65 106.2l-2.12-2.2zm5.58.24c1.45.08 2.93.18 4.41.31l-2.38 2.05-2.03-2.36zm7.24 2.56l-1.84-2.16c1.43.13 2.83.29 4.17.47l-2.33 1.69zm4.2 8.3H58.37c-.11-.5-.45-2.97-.77-5.7.42 0 1.04 0 1.83.01l.14.13.12-.13c1.29.01 2.97.04 4.89.1l.13.13.14-.12c1.58.05 3.31.12 5.12.22l.13.13.14-.12c1.64.09 3.32.21 5.01.36l.12.14.15-.12c1.87.17 3.73.37 5.5.62l-1.12 4.35zm-.68-9.82c1.09.17 2.12.36 3.07.57l-.48 1.87-2.59-2.44zm4.21-3.83c-9.39-1.81-20.96-2.1-23.65-2.14.01 0 .01 0 .02-.01.6-.2 1.69-.72 2.8-1.41V98c.2.1 1.7.1 3.1.1 1.1 0 2.1-.1 2.4-.1 1.34-.38 2.3-1.23 2.73-2.35 4.53.89 10.25 1.64 13.57 2.05l-.97 3.75zm-17.41-6.98c.58.19 1.26.38 2.02.57-.7 1.44-2.74 2.56-2.74 2.56l.02.03c-.82-.01-1.66-.03-2.27-.03 1.36-.9 2.64-2.03 2.97-3.13zm4.41 1.1c-.53 1.27-1.57 1.75-2.43 2.03-.25.04-.98.05-1.85.04.73-.46 1.85-1.35 2.31-2.5.62.15 1.28.29 1.97.43zM65.9 94c-5.1-1.8-5.5-2-7.5-6.4l-.4.2c2.08 4.46 2.6 4.8 7.65 6.55-.44 1.77-4.33 4.07-5.95 4.55-5.04 1.95-5.23 4.12-5.21 4.67-1.05.05-2.26.12-3.31.18-.09-.18-.54-.79-.18-2.05.1-.4.5-1 1.1-1.8 1.4-2 3.6-5.1 3.6-9h-.4c0 3.8-2.2 6.8-3.6 8.8-.6.9-1.1 1.5-1.2 2-.26.98-.05 1.7.12 2.08-.88.05-1.58.1-1.82.11v-.09h-.2c-.6 0-.8-.8-.8-1.1 0-2 .9-3.8 2-5.9.6-1.1 1.1-2.2 1.6-3.4.9-2.26 1.22-6.11.96-9.77 1.08-.49 7.84-3.77 9.62-4.45.28.28 1.41 1.38 4.22 3.42 3 2.2 16.9 12.5 19.9 14.9-3.8-.5-15.7-2-20.2-3.5zm-1.12 9.08c.74 0 1.33-.59 1.36-1.36 0-.74-.61-1.36-1.36-1.36-.76 0-1.36.61-1.36 1.36s.62 1.36 1.36 1.36zm0-2.27c.51 0 .91.42.91.91a.9.9 0 01-.91.91c-.51 0-.91-.4-.91-.91s.41-.91.91-.91zm4.77 2.59c.74 0 1.33-.59 1.36-1.36 0-.76-.61-1.36-1.36-1.36-.76 0-1.36.61-1.36 1.36s.62 1.36 1.36 1.36zm0-2.25c.51 0 .91.4.91.91a.9.9 0 01-.91.91c-.51 0-.91-.4-.91-.91s.4-.91.91-.91zM52.88 71.59c0-.59-.49-1.08-1.08-1.08-.59 0-1.08.49-1.08 1.08s.49 1.08 1.08 1.08c.62 0 1.11-.48 1.08-1.08zm-1.73-.02c0-.36.3-.66.66-.66.38 0 .66.3.66.66s-.3.66-.66.66c-.36 0-.66-.3-.66-.66z"/><g><path fill="none" d="M172 160V32c0-6.6-5.4-12-12-12H32c-6.6 0-12 5.4-12 12v128c0 6.6 5.4 12 12 12h128c6.6 0 12-5.4 12-12z" opacity=".4"/><path fill="none" d="M0 0v192h192V0H0z"/><path fill="#DFDFDF" d="M160 20c6.6 0 12 5.4 12 12v128c0 6.6-5.4 12-12 12H32c-6.6 0-12-5.4-12-12V32c0-6.6 5.4-12 12-12h128m0-8H32c-11.03 0-20 8.97-20 20v128c0 11.03 8.97 20 20 20h128c11.03 0 20-8.97 20-20V32c0-11.03-8.97-20-20-20z"/><path fill="#FFF" fill-opacity=".2" d="M160 20H32c-6.6 0-12 5.4-12 12v1c0-6.6 5.4-12 12-12h128c6.6 0 12 5.4 12 12v-1c0-6.6-5.4-12-12-12z"/><path fill="#212121" fill-opacity=".1" d="M160 172H32c-6.6 0-12-5.4-12-12v-1c0 6.6 5.4 12 12 12h128c6.6 0 12-5.4 12-12v1c0 6.6-5.4 12-12 12z"/><radialGradient id="a" cx="23.768" cy="23.933" r="204.625" gradientUnits="userSpaceOnUse"><stop offset="0" stop-color="#fff" stop-opacity=".1"/><stop offset="1" stop-color="#fff" stop-opacity="0"/></radialGradient><path fill="url(#a)" d="M160 172H32c-6.6 0-12-5.4-12-12V32c0-6.6 5.4-12 12-12h128c6.6 0 12 5.4 12 12v128c0 6.6-5.4 12-12 12z"/></g></svg>